<svg id="Layer_1" data-name="Layer 1" xmlns="http://www.w3.org/2000/svg" viewBox="0 0 1440 712"><defs><style>.cls-1{fill:#ff7a06}</style></defs><title>Artboard 1</title><path class="cls-1" d="M126.8 522.2a18.82 18.82 0 0 0-10-3.2c-1.3-.1-3.6.6-4.8.2-2.3-.8-1.5-3.1-1.7-5.4-.7-8.5-8.6-9.2-15.6-7.7-5.9 1.3-12.4-.5-18.1 1.3-3 1-5.2 3-8.3 1.6-1.9-.8-2.8-1.8-5.1-2s-3 3.8-.6 4.3a11.63 11.63 0 0 1 3.5 1.8c-1.9.6-3.7 1.3-5.5 2-2.1.8-4.2 1.8-6.3 2.7-3.3 1.5-6.6 2.2-9.9 3.5-5.7 2.1-7.4 7.1-1.5 10.1 3.3 1.6 6.9 1.1 10.1 2.4 5.2 2.1.6 6.4 3.2 9.3 1.8 2.1 6 1.2 8.2.5 5.8-1.9 10-4.8 15.4-.1 2.5 2.1 4.5 5.3 7.7 6.5s6.3-.6 9.3-1.8c9.1-3.6 19.7-.6 27.7-6.9 6.3-5 10.2-13.5 2.3-19.1zM116 541.3c-4.2 1-8.6.3-12.9 1.1-3.8.7-7.1 2.3-10.7 3.5-4.4 1.5-6.3-1.9-9.3-4.6-4.7-4.3-9.7-5.5-15.7-3.1-1.7.7-3.4 1.8-5.3 2.1a22.09 22.09 0 0 0-2.6 0 3.08 3.08 0 0 0-.1-1c-.4-2.4.5-4.4-1-6.6-2-2.8-5.5-2.8-8.5-3.3-1.5-.2-4.4-.6-5.5-1.6-2.3-2.2 2.1-3.3 4.1-4 9.7-3 18.4-8.6 28.6-10.1a1.27 1.27 0 0 0 1.1-1.7 8.45 8.45 0 0 1 1.7-.5c4.1-.7 8.3.4 12.5-.2 3.4-.5 9.6-3.1 12.5-.3 3.3 3.2-1.1 10.4 4.6 12.4 1.7.6 3.6.1 5.3 0 5-.3 12.5 1 12.3 7.1-.2 5.5-5.9 9.6-11.1 10.8z"/><path class="cls-1" d="M90 516.2c-5.3-.1-9.5 5.4-11.2 9.9-.4.9.3 1.8.9 2.3a3.83 3.83 0 0 0 3.4.9 12.65 12.65 0 0 0 3.1-1.4 1.7 1.7 0 0 0 0 1.4 1.67 1.67 0 0 0 1.3 2.4h.1a5.31 5.31 0 0 0 2.3-.2c2.5-.2 5.1-.5 7.6-.6a.86.86 0 1 0 .1-1.7c-2-.1-4.1-.2-6.1-.4a3.49 3.49 0 0 0-1.4-2.3 3.41 3.41 0 0 0-1.8-2 5 5 0 0 0-2.9-.7 3.08 3.08 0 0 0-.9.4c1.9-2.6 4.6-5 7-3.3s2.5 5.6 4.7 7.6c1.9 1.8 4.8-1.1 2.9-2.9-3.4-3.2-3.1-9.3-9.1-9.4zM551.7 477a7.49 7.49 0 0 0-4.9-3 30.88 30.88 0 0 0-4.3.1 26.17 26.17 0 0 1-6.2-1.2 13.16 13.16 0 0 0-7.1.2c-1.1.4-2.2 1.4-3.3 1.7-2.9.8-3.9-.4-6.3-1.1a17 17 0 0 0-5.5-.2 26.55 26.55 0 0 1-6.3 0 23.16 23.16 0 0 0-4.5-.6 1.67 1.67 0 0 0-1.4 2.4c1.7 3.9 1.6 8.3 4.3 11.9a15.59 15.59 0 0 0 6.7 4.9c4.1 1.8 8.5 2.4 12.5 4.5a28.46 28.46 0 0 1 8.6 6.8 8.6 8.6 0 0 1-2.6-2c-1.7-1.9-5.2.7-3.6 2.8 3.3 4.5 8.5 4.7 13.5 6.2 5.4 1.6 9.7 2.8 15.1.7 3.7-1.4 7.9-4 9-8.1s-1.3-9.4-3.2-13.1c-2.6-5-6.9-8.7-10.5-12.9zm5.6 28.5c-4.1 2.4-7.9 2.4-12.3 1.1-2.3-.7-5.2-1.2-7.8-2a34.26 34.26 0 0 0-15.1-11.7c-3.6-1.5-7.6-2.1-10.8-4.4-4.4-3-4.6-7.5-5.9-12a32.58 32.58 0 0 0 4.5.9c2 .1 3.8-.5 5.7-.6 3.3-.2 5.9 2.6 9.1 2.2 2.2-.3 4.1-1.8 6.2-2.3 3.3-.8 5.6.5 8.8 1 3 .6 6.3-.6 8.8 1.8 1 1 1.8 2.6 2.8 3.7 4.6 5 15.1 17 6 22.3z"/><path class="cls-1" d="M537 491.6a2.23 2.23 0 0 0-3.7 2.2 2.92 2.92 0 0 0 .2.9 1.84 1.84 0 0 0 1.1 1.3 3.17 3.17 0 0 0-.5.6 3.92 3.92 0 0 0 3.4 5.7 4.26 4.26 0 0 0 4.8-5.1c-.7-2.6-3.7-4.3-5.3-5.6zM1124.9 480.1a11 11 0 0 0-3.1-3 2.44 2.44 0 0 0-3.3.9 2.24 2.24 0 0 0-.1 2.1l-.9.6c-1.7 1.6-1.2 4.2 0 6 1.6 2.5 5.3 3.4 7.4 1.8 2.4-.7 3.8-4.5 1.7-7a7.94 7.94 0 0 0-1.7-1.4zm-4.5 3.7zM1308.4 547.8c-4.9-3.8-10.4-5.5-16.1-7.8-5.2-2.2-9.7-6.4-15.5-7-6.2-.6-8.3 4-13.5 6-4.9 1.9-11.5 1.5-14.4 6.8a7 7 0 0 0-.2 6.7c-4.5-1-9.2-.1-11 4.3a10.85 10.85 0 0 0 .8 8.8c1 1.8 2.5 2.7 4.2 3.7.4.2 2.4 1 2.6 1.5s-.6 2.4-.7 3c-1.2 13.8 19.5 18.3 29.4 20.2 7.2 1.4 14.4 2.7 21.4-.3a37.42 37.42 0 0 1 14.7-3.6c4.4-.2 8.3-1 11.2-4.5 6.2-7.3 3.8-18.7-1.4-25.8a59.5 59.5 0 0 0-11.5-12zm6.6 35.9c-2.7 1.5-6.3.9-9.3 1.1a26.94 26.94 0 0 0-9.2 2.6c-3.7 1.7-6.8 3.3-10.9 3.2a39.34 39.34 0 0 1-5.9-.6c-9.1-1.2-21.3-3-28.2-9.7a8.15 8.15 0 0 1-2.8-6.1c.1-2.7 1.6-3.9-.5-6.1-2.8-2.8-7.7-3-7.6-8.1 0-5.9 7.1-5.5 11.6-3.5.1.1.2.2.3.2a2.7 2.7 0 0 0 1.1.5 10.53 10.53 0 0 1 1.1.7c1.2.9 2.8-.6 1.7-1.6l-.2-.2c1-1.2 1.4-3 0-4.2-4.8-4.1 3.3-5.3 6.3-6a20.53 20.53 0 0 0 9-4.7c3.6-2.8 6.6-1.8 10.4.4a75.86 75.86 0 0 0 10.3 5.1c8.6 3.3 14.9 7.3 20.9 14.3 4.5 5.3 10.5 17.9 1.9 22.7z"/><path class="cls-1" d="M1278.7 561.6c-.1 0-.1 0-.2.1a4.43 4.43 0 0 0-1.5-1.2 1.85 1.85 0 0 0-2.6.7 5.19 5.19 0 0 0-.6 3.4 2.57 2.57 0 0 0-.4 3 2.43 2.43 0 0 0 2.8 1.1l1.2-.6a4.43 4.43 0 0 0 3.5-1 3.74 3.74 0 0 0 .3-4.5 2.29 2.29 0 0 0-2.5-1zM373.9 490.7c-1.9-4.3-7.1-6.1-11.5-6.5a30.52 30.52 0 0 1-9.4-2.1 15.64 15.64 0 0 0-8.3-.9 64 64 0 0 1-6.3 1.4c-1.9.1-3.7-.3-5.6.3s-3.3 1.8-5.3 2.3a49.27 49.27 0 0 1-5.4.5c-2.2.3-4.8.8-6.5 2.4a1.76 1.76 0 0 0-.4.5c-6.7.3-22.3 3.7-18.9 12.2.5 1.3 1.5 1.8 2.2 2.8 1.8 2.5 1.3 4.8 1.9 7.6a9.42 9.42 0 0 0 4.8 5.9c4.1 2.3 9.7 2.7 13.5-.2 3.6 3.1 6.9 6.8 11.3 8.4a12 12 0 0 0 6.5.5 109.42 109.42 0 0 1 11.5-1.4 21.14 21.14 0 0 0 6.6-1.5c.6-.3.8-1 1.4-1.2.9-.2 2.7.5 3.8.4 4.7-.4 5.2-4 8.1-7s6.8-4.3 7.5-9.1c.3-2.1-.2-4-.5-6.1-.4-3 .3-6.4-1-9.2zm-61.1.7a3 3 0 0 1-1 .2c.4-.1.7-.1 1-.2zm56.7 17.3c-1.5 1.6-3.6 2.4-5 4.1-1.8 2-2.2 5.1-5.3 5.4-2.6.3-3.5-1.1-5.8.3-2.5 1.4-3.6 2.1-6.8 2.3-2.7.2-5.4 0-8.1.6-4.1 1-7 1.1-10.5-1.5-2.8-2-5.2-4.6-8-6.8a1.87 1.87 0 0 0-2.6 0c-3.9 4.3-12.3 1.7-13.3-3.9-.3-1.8.2-3.6-.5-5.3s-2.6-2.5-3.2-4.2c-1-2.8 2.4-5.1 6.6-6.6a2.73 2.73 0 0 0 2.3 3.8c2.1.1 6 .7 7.8-.7s1.2-3.7 3.6-4.7c2.8-1.2 6.2.1 9.1-.8 1.3-.4 2.4-1.4 3.7-1.9 2.4-1 3.6-.7 5.7-.8 3.9-.3 7.1-2.2 11.1-1.2 2.7.7 5 2.2 7.8 2.4 3.5.3 6.5-.7 9.7 1.5 3 2.1 2.3 6.9 2.9 10.3.5 2.9 1 5.3-1.2 7.7z"/><path class="cls-1" d="M337.3 496c.1-1.7-2.1-2.3-2.5-.8a.76.76 0 0 1-.2.5 5.62 5.62 0 0 0-2 .3 2.22 2.22 0 0 0-.5 4c.3.2.6.3.9.5a3.45 3.45 0 0 0 4.4 2.6l.9-.3a4.18 4.18 0 0 0 1-.4 2 2 0 0 0 1.9-1.5 2.26 2.26 0 0 0-.2-1.6c0-1.9-1.7-2.9-3.7-3.3zM428.8 502c-3.8-1-7.8-2-11.8-1.7-3.6.3-6.3 2.6-9.7 3.1a2.06 2.06 0 0 0-1.6 1c-5.6-1-11.9.3-15.5 4.4-1.5 1.8-1.2 2.7-4.2 3.2-1.2.2-2.5-.1-3.7.2a5.51 5.51 0 0 0-3.9 3.5c-1.1 3.2.5 6.4 2.9 8.4-.7 1.6 0 3.6 1.3 5.4 2.7 3.6 7.1 7 11.8 7.2 4.1.1 7.9-1.9 12.1-1.3 4 .6 7.8 2.3 11.9 2.7 7.9.6 11.8-4 16.2-9.5 4 1.3 8.3.8 9.9-3.9s2.1-10.8-1-15c-3.4-4.6-9.4-6.3-14.7-7.7zm11.5 19.7c-1.1 2.7-3.2 3.4-6 2.3a2.09 2.09 0 0 0-2.1.5c-3.5 4.5-6.1 9.3-12.5 9.4-5 .1-9.7-2.7-14.7-2.9-4.4-.2-9.2 2.7-13.5.9-1-.4-7.1-6.1-6.5-6.2a2 2 0 0 0 0-3.8 4.91 4.91 0 0 1-3.2-3.5c.8-2.2 2.1-3.2 4-2.8 1.1-.3 2.1-.1 3.3-.6 2.5-1.1 2.6-3.5 4.4-5.3 2.9-3.1 7.6-3.8 12.1-3.1a2.67 2.67 0 0 0 3.1 1.9 10.55 10.55 0 0 0 1.9-.5 14 14 0 0 1 3 1.5c.8.4 1.4-.4.9-.8-.6-.6-1.2-1-1.8-1.5 2.3-1 4.6-2 7.5-1.9 4.3.2 9.1 1.7 13.1 3.2s7.6 3.8 7.7 8.4a12.71 12.71 0 0 1-.7 4.8z"/><path class="cls-1" d="M412.3 515c1.6-1.4-.5-4.1-2.1-2.9s-3.7 3-4.1 5.1a4.1 4.1 0 0 0-.1 1.1 2.38 2.38 0 0 0 .3 1.2 4.51 4.51 0 0 0 1 1.4 3.61 3.61 0 0 0 4.2.1 2 2 0 0 0 .7-2.7 5.51 5.51 0 0 0-1.7-1.7c.6-.6 1.2-1.1 1.8-1.6zM244.7 513.9c-6-2.1-8.8 4.7-13.5 6.1a17.66 17.66 0 0 0-3.1-6.3c-1.5-2-4.4-5.7-7.1-6.2-4.5-.8-7 6.3-8.7 10.3-3.4-1.9-5.1-5.8-10-4.1a1.8 1.8 0 0 0-1.2 1.2c-.4 2.2 0 3.4.6 5.5a17.75 17.75 0 0 1 .6 7.6c-3-.8-5.7-2.2-8.8-2.5a30.57 30.57 0 0 0-7.4.2c-2.5.4-7.5 1.6-6.4 5.2 1 3.4 7.8 5.5 10.6 6.8 3.8 1.6 7.7 3.8 11.8 4.3-.3.5-.5.9-.8 1.4-3.2 7.8 6.3 11.6 12.3 9.3a44.38 44.38 0 0 0 5.7-3c3.5-2 4.9-1.3 7.6 1.6 2.2 2.4 4.2 4.6 7.8 4.2 5.7-.7 5.2-6.9 4.1-11.4 1.5 0 3.2.7 4.4.8a15.07 15.07 0 0 0 5.2-.3 10.08 10.08 0 0 0 6.1-4.4c3.1-5.1-.8-10.5-2.9-15.1-1.7-3.8-2.3-9.7-6.9-11.2zm3.9 25.6c-4.4 3-9.4-1.8-13.9 1.2a2.49 2.49 0 0 0-1.1 2.6 20.1 20.1 0 0 1 .9 4.1c.1.5.5 2.4.1 2.8-.8.9-3-.5-3.6-1-2.7-2.2-3.7-5.5-7.8-5.7-3.2-.2-6.1 2-8.8 3.4a17.06 17.06 0 0 1-3.9 1.7c-.8 0-1.7.1-2.5.1-.7-1.3-1.4-2.6-2-3.9.2-2 5-4.3 6.6-5.3a42.82 42.82 0 0 0 6.1-4.4 8.57 8.57 0 0 0 3.3-1.9c1.5-1.2.5-3.4-1-3.9a3.93 3.93 0 0 0-4.8-2.3c-2.7.8-3.3 3.7-2.8 6.2a20.45 20.45 0 0 1-3.1 2 32 32 0 0 0-6.5 4.6c-3.9-.2-7.5-2.3-11.1-3.9-2.7-1.2-6.2-2.4-8.5-4.4-1.9-1.7-.9-2.1 1.5-2.6a29.22 29.22 0 0 1 5.1-.4c4.5.1 8.2 2.2 12.5 3.1a1.52 1.52 0 0 0 1.9-1.1 27.84 27.84 0 0 0 .6-5.8c0-1.7-1.2-4.2-1-5.6.3-3.7 3.1-.3 4.3.8a10.7 10.7 0 0 0 3.7 2.2 2.13 2.13 0 0 0 2.1-.8c.9-1.6 3.3-9.1 5.3-9.4 3.1-.5 7.1 8.2 7.3 10.6a2.11 2.11 0 0 0 2.1 2.1c3.9.1 6-2.4 8.9-4.5 6-4.4 6.8 1.5 8.6 6 1.7 4.3 6.6 10 1.5 13.4zM325.4 474.3a6.71 6.71 0 0 0 4-.2c-.3 1.7 1.8 3.1 3.5 2.9a3.87 3.87 0 0 0 3.1-2c1.2-.2 2.8-.3 3.4-.4a9.54 9.54 0 0 0 4.6-1.7c2.7-2.1 3.1-6.1 3.4-9.3.5-5.5.4-10.8 1.8-16.3 1.2-4.8 3.1-9.2 0-13.8-3.7-5.5-8.2-2.1-11 2.1-.9 1.3-1.6 2.7-2.4 4-1.4 2.2-2.4 2.3-4.7 3.2-1.8.6-3 1.9-4.4 3s-2.4 1.8-4.1 1.8c-.8 0-1.9-.3-2.7-.3a2 2 0 0 0-1.8 1.3 52.21 52.21 0 0 0-.7 5.7c-.2 2.6-1.2 4.9-1.6 7.4-.4 3 1 5.6 2.8 7.9a12.6 12.6 0 0 0 6.8 4.7zm-5.3-15c.8-2.6.8-5.3 1.3-8 1.8.4 2.9 1 5 0 1.9-1 3.2-2.8 5-3.9 1.5-.9 3.4-.8 4.9-1.7 2.6-1.7 5.9-11.1 8.8-10.5 3.9.8-1 14.1-1.5 16.3a102.15 102.15 0 0 0-1 11c-.2 1.7-.2 4.5-1.4 5.9s-3 1.3-4.8 1.6h-.2c-.9-3.4-2.5-6.9.4-10 2.3-2.5-1.5-6.3-3.8-3.8s-3 5.7-3.1 8.9a17.22 17.22 0 0 0 .4 3.9 10.41 10.41 0 0 0 .6 1.6 6.47 6.47 0 0 1 .4 1.3.1.1 0 0 0-.1.1c-.1 0-.1 0-.2.1-4.7 1-8.2-1.2-10.5-5-1.7-3-1.2-4.8-.2-7.8zM482.9 563c4.2 2.2 8.9.7 13.3 1.8 6.1 1.5 11.1 3.6 17.3 1.1 5.4-2.2 12.4-.6 16.4-5.7 2.9-3.7 2.7-8.6 1.5-12.8-1.3-4.8-2.4-10.7-6.2-14.3-4.2-4.1-11.7-5.4-17.1-3.3-3.7 1.5-6.5 4.5-5.6 7.8a12 12 0 0 0-1.1 1.2 36.58 36.58 0 0 0-6.7.4c-1 .2-1.3 1.3-1.2 2.2a10.55 10.55 0 0 0 .5 1.9c-3.2-.2-6.3-2-8.8 1-1.6 1.9-.7 4-1.7 6-.8 1.7-3 1.8-4 3.7-1.7 3.4.1 7.3 3.4 9zm2.6-7.2c2.8-2.1 2.8-2.4 3.2-5.9s1.7-2.7 4.5-2.4a9.87 9.87 0 0 0 4.2-.3 2 2 0 0 0 1.4-2.4 14.46 14.46 0 0 0-.9-2.2c.3-.1.7-.1 1-.2-.7 3.8 1.5 5.8 5.3 5.8a2.72 2.72 0 0 0 2.7-2.1 2.59 2.59 0 0 0 .6-2.7c3 1.5 4.5 4.8 6.8 7.2.2.2 1.5-.8.9-1.5-2.3-3.2-3.5-6.6-6.9-8.6a2.52 2.52 0 0 0 .1-3.8c-1.3-1.2 6.2-2.2 7.1-2.1 2.8.4 5.7 1.5 7.4 3.9 2.1 3.1 3.8 8.8 4.4 12.4.3 2 .4 4.4-.8 6.2-1.9 2.9-5.3 2.4-8.3 2.6a18.23 18.23 0 0 0-5.1 1.3c-3.6 1.5-6.5 2-10.3 1-4.2-1-7.3-2.2-11.7-2.2-2.4.1-10-.7-5.6-4zM739.4 524.8a6.2 6.2 0 0 0-2.6 1.1 8.42 8.42 0 0 0-1.4-.6 21.72 21.72 0 0 0-11-1.5c-3.3.3-7.6.1-10.7 1.6-5.5 2.7-3.9 8.4-1.7 12.9a14.64 14.64 0 0 1 2.1 7.9 9.15 9.15 0 0 0 3.8 7.5c5.9 4.8 13.7 3.4 20.2.8a33.28 33.28 0 0 1 11.3-2.1c2.5-.1 4.9-.8 6.5-2.9 3.7-4.8 1.9-11.4-2-15.2-4.4-4.2-7-10.6-14.5-9.5zm.1 8.4zm9.9 13.6c-1.7.4-3.7 0-5.4.2a23.55 23.55 0 0 0-5.9 1.7c-4.7 1.9-9.7 4.2-14.8 2s-3-5.9-4.3-10.1c-.9-2.7-3.6-5.4-3.8-8.3-.2-3.3 2.7-3 5.1-3.6 2.9-.7 5.7-1.6 8.8-1.5a20.9 20.9 0 0 1 6.1 1.3 6.15 6.15 0 0 0 4.4 7.6 6 6 0 0 0 1.9 0c0 1.3 2 1.5 2.2.3a7.57 7.57 0 0 0 .1-1.5 4.29 4.29 0 0 0 1-2.4c.1.1.2.1.2.2 1.1 1.2 1.8 2.8 2.9 4 1.5 1.6 3.5 2.5 4.1 4.7.7 2.5-.1 4.8-2.6 5.4zM1075.3 375.7c3.7-6 1.4-15.4-1.7-21.2-3.8-7.1-11.6-15.1-20.1-16a6.15 6.15 0 0 0-3.8.9c-2-1.2-4.5-1.2-6.1 1.1a16.93 16.93 0 0 0-5 .2c-6.6 1.3-10 5.6-11.3 11.8-8.1 1.7-4.9 13.2-.2 15.5.9 5.6 8.7 4.7 13.2 5.2 3.5.4 5.4 3.7 9 4.3 4.2.7 7.9-1.1 11-3.6 4.1 4.3 11.1 8 15 1.8zm-47.4-11.4c.2-.2.3-.3.4-.3-.1.1-.3.2-.4.3zm.5-.3c.2-.1.2.1 0 0zm19 7.2c-1.7-1-2.9-2.2-4.9-2.6-2.6-.5-11.1 1.3-10.7-2.7.2-1.9-2-2.7-3.4-2a1.07 1.07 0 0 1-.3-.5 10.88 10.88 0 0 1-1-2.5c-.5-2-.4-4.2 2.2-4.3a2.26 2.26 0 0 0 2.1-2.1c.7-6.2 3-10.1 9.7-11a6.6 6.6 0 0 1 1.4-.1v.4a4.81 4.81 0 0 0-1.5 5c1.2 5.3 8.1 5 9.2.5a6.1 6.1 0 0 0 1.6-1.3c.1-.1.1-.2.2-.2a2.34 2.34 0 0 0 .7-.7c1.7 1.2 3.2 2.5 4.8 3.8.3.5 1.4-.6.7-1.4a34.06 34.06 0 0 0-4.7-4.6 42.31 42.31 0 0 1 7.1 3.5 27.77 27.77 0 0 1 8.9 11.2 19.2 19.2 0 0 1 1.8 9.2c-.1 1.4 0 4.2-1.9 4.6-2.1.5-5.3-3.1-6.4-4.6a2.65 2.65 0 0 0-4.2-.5c-3.5 3.4-7 5.6-11.4 2.9zM659.8 401.3c-4.1-.4-8.8.7-12.8 1.5-2.6.5-5.5 1.5-6.7 4.1a6.08 6.08 0 0 0-.6 2.5c-4 2.6-6.8 7.3-5.7 12.1 1.3 5.5-2 11.1 4.4 14.6 2.3 1.2 4.9 1.8 7.1 3.3 3.1 2 5.7 4.7 9.5 5.6a8.53 8.53 0 0 0 7.4-1.7c1.1-.9 2.2-2.8 3.7-3.1 1.8-.3 4.2 1.3 6.1 1.4 6.9.4 10.5-6.4 11.5-12.3 2.5-14.4-10-26.7-23.9-28zm18.3 28.3c-1.1 4.1-2.7 6.5-7.3 5.7-2.1-.4-4-1.3-6.2-.7-1.8.5-3 1.9-4.3 3.1-3.2 3-6.3.8-9.3-1.5a27.2 27.2 0 0 0-5.7-3.5c-1.5-.6-4.4-1-5.4-2.4-1.5-2.1.5-5.7.2-8.1-.1-.7-.6-1.1-.7-1.7-1-3.5-1.2-4.9 1.3-7.4l.1-.1c2 2.5 6.1 4 9.4 5.1a.37.37 0 0 0 .1.3 2.35 2.35 0 0 0-.2.8 2.86 2.86 0 0 0 .7 2.8 5.63 5.63 0 0 0 5.8 1.4 2.62 2.62 0 0 0 1.9-3.6 2.56 2.56 0 0 0-.7-3 5.49 5.49 0 0 0-.9-.7 3.36 3.36 0 0 0-2.2-3c-1.4-.5-7.4-1.9-7.7-3.2a15.23 15.23 0 0 1 4.7-.4c3.2.2 5.3 2.4 8.4 3 1.2.5 1.8-1.7.3-2.1-2.2-.5-3.8-1.9-5.7-2.7a22.24 22.24 0 0 1 16.9 4 17 17 0 0 1 6.5 17.9zM1345.4 503.1c4.6-5.5 3.6-12.8 1-19s-6.6-13.8-14-14.5c-2.1-.2-3.7.7-5.7.8a4.48 4.48 0 0 1-1.2-.1 12.45 12.45 0 0 0-4.3-3.9 5.77 5.77 0 0 0-3-1.3 12.87 12.87 0 0 0-8-.1c-1.7.7-2.5 2.1-4.6 1.9s-2.7-.8-4.7.2c-12.7 5.8-6.7 29.4 5.4 32.1 3.2.7 6.2-.4 9.4-.3 4.5.1 7.3 4.5 10.7 7 6.5 4.8 13.9 3.4 19-2.8zm-20.6-25.8v.5a3.61 3.61 0 0 0-2.7-.3v-.2c-.1-.3-.2-.7-.3-1a7.61 7.61 0 0 0 3 1zm15.4 22.5c-6.4 6.8-11.4-.1-16.6-4.2-4.1-3.2-7.9-2.4-12.7-2-7.1.6-10.9-6.6-11.3-13-.2-2.3.5-6.6 2.6-8.1 2.3-1.7 4.9.5 7.3-.6 1.2-.6 2-1.7 3.1-2.5a9.64 9.64 0 0 0 .6 7.6 7.81 7.81 0 0 0 .1 3.4c1.8 7 9.1 7.2 12.8 1.8a2.71 2.71 0 0 0 .1-3.3 1.48 1.48 0 0 0 1.3-1.3v-.6a11.75 11.75 0 0 1 3.8-.9c3.5 0 5.2 2.7 6.8 5.4 3 5.2 7 13 2.1 18.3zM1191.1 509.8a5.93 5.93 0 0 0-.8-.4l-1-.3c-2.3-.7-3.7 1.3-3.6 3.1a3 3 0 0 0-.8.4c-1.6-3.3-7.6-7.9-8.9-8.8-3.7-2.2-9.2-4-13.2-1.6-.4.2-.5.9-.8 1.1a7.4 7.4 0 0 1-2.9.8c3.8-3 7.4-7 6.3-12.1a24.87 24.87 0 0 0-9-13.8c-4.9-3.8-7.1-11.2-14-11.7-4.1-.3-7 .6-10.5-2.3-2.3-1.9-4.1-4.5-7-5.6-5.4-2.1-8.5 2.8-11.6 6.3-4.7 5.4-13 3.2-19 6.9-2.2 1.3-4.1 3.2-4.7 5.2-4.3-.1-8 2.3-9.8 7.3a9.37 9.37 0 0 0-.4 1.6c-4.4-.9-9.7-3.1-13.1.3a1.13 1.13 0 0 0-.3 1.1c.2.5.4 1 .6 1.4-3.6 1.1-7.7 5-6.4 8.5.8 2.3 3.5 2.1 5.1 3.4.1.1.2.1.3.2v.2c.1.6-.3 1.3-.3 1.8a6.36 6.36 0 0 0 .5 3.6c1.1 2.1 3.2 3 5.3 3.7 1.7.6 2.9.7 4 2.2 1 1.3 1.3 3.1 2.3 4.5a12.33 12.33 0 0 0 6.9 4.7c4.8 1.2 9.2-1.3 13.6 1.6 2.5 1.6 4.6 3.6 7.7 4 3.7.5 7.7-1 10.8-3a24 24 0 0 0 10.8-16.6 31.91 31.91 0 0 0 12 3.5 26.08 26.08 0 0 0 12-2.1 6.68 6.68 0 0 0 2.3 7.8c2 1.7 3.8 2.3 4.9 4.8 1.6 3.5 1.7 6.9 4.5 9.9 6.5 7.2 22.1 13 30.4 6.1 4.6-3.8 8.5-8.8 7.3-15-1-5.4-4.5-10.5-9.5-12.7zm-4.3 2.1zm-64.7-.3c-2.8 7.2-12 15.2-19.7 10.4-2.2-1.4-4-3.2-6.6-3.9-2.9-.8-5.5.5-8.4.4-4.7-.1-6.9-2.8-8.9-6.6a7.41 7.41 0 0 0-2.2-3.3c-1.5-1.1-3.4-1-5-1.8-4-2-1.6-4.4-2.7-7.2-.4-1-1-1.2-1.9-1.7s-2.7-.6-3.2-1.3c-1.8-2.6 3.8-5.7 5.4-5.7 1 0 1.8-1.5.9-2.2-1.9-1.5.7-2.3 2.3-2.3a16.66 16.66 0 0 1 2.9.6 19.09 19.09 0 0 0 3.3.6c.3 0 .7.1 1.2.1a5.81 5.81 0 0 0 .9 2.5c-1 3.5.8 8.3 4.4 9 3.2.6 5.3-2.4 4.9-5.1a2.35 2.35 0 0 0 1.6-2.1c.4-3.8-3.3-6.1-6.6-5.6a2.51 2.51 0 0 0-.7-.4c0-.2.1-.4.1-.6.4-1.3 2.5-3.9 3.9-4.3a4.08 4.08 0 0 1 1.9-.1 6 6 0 0 0 1.5 1.8 1 1 0 0 0 1.7-.8 25.18 25.18 0 0 1 2.9 1.6c5.3 2.8 10.3 6 15.3 9a2.13 2.13 0 0 0-.7 1.5c-.6 5.7 4.3 7.7 8.6 9.6 1.4.6 2.8 1.3 4.2 2a15.31 15.31 0 0 1-1.3 5.9zm-6.4-16.4a24.84 24.84 0 0 1 5.2 3.8 7 7 0 0 1 .8 1c-2.8-1.4-5.4-3.1-6-4.8zm35.6 8.5c-6.6 3.4-13.5 3.1-20.2.2-.8-.4-2.3-.9-4.1-1.6-1.1-5.1-5.4-8.4-10.1-11.2-7.3-4.4-14.5-9.6-22.3-13a18 18 0 0 0-2.8-.9c1.5-2.7 6.7-4.4 8.5-4.9 3.1-.7 6.2-.3 9.3-.9 4.3-.8 6.2-4.4 9.1-7.3 3.9-4 6.2-1.1 9.5 2.1a17.88 17.88 0 0 0 5.2 3.8c2.2.9 4.2.8 6.5.8 4.9.1 6 2.3 8.5 5.9 3 4.4 7.8 6.5 10.4 11.5 1.9 3.7 2.9 6.3-.1 9.8a25.72 25.72 0 0 1-7.4 5.7zm43.1 24.3c-2.9 5.1-7.8 7.7-13.5 6.6-4.7-.9-10.3-3-13.6-6.5-3.5-3.7-2.8-9.3-6.6-12.7-1-.9-2.2-1.4-3.2-2.3-2.8-2.4.2-4 2.9-4.5a7.73 7.73 0 0 0 3.8-1.7c.5-.5 1.1-1.8 1.5-2.2 3.2-2.2 9.4 1.2 12.2 3.2 1.4 1 2.7 2 4 3.1a22.49 22.49 0 0 1 1.8 2 4.68 4.68 0 0 1-1.7.2 1.88 1.88 0 0 0-.5 3.7 3.77 3.77 0 0 0 3.7-.3c.6-.4 1.4-1.1 2.1-1.6a1.38 1.38 0 0 0 .4-.3h.1c4.8 1.5 9.5 8.3 6.6 13.3zM945.3 547.9c2-.1 4.5-2 6-1.7.9.2 1.9 2.1 2.8 2.6 1.3.7 3 .5 4.5.8 3 .6 5.4 2.7 8.5 2.7a13.79 13.79 0 0 0 7.6-2.5c9.9-6.6 11.4-19.2 6.9-29.5a33.78 33.78 0 0 0-10.7-13.8 24.64 24.64 0 0 0-6.8-3.6c-3.4-1-5.2.3-8.5.5-2.7.2-5.2-.5-8 .1s-5.5 1.8-7.2 4.1a7.29 7.29 0 0 0-1.5 4.4c-5.8 4.6-3.7 13-1.8 19.4-3.2 1.5-5 4.1-3.3 8.1 1.9 4.4 6.4 8.7 11.5 8.4zm-4.6-31.9a8.31 8.31 0 0 0 5.9 2.3 3 3 0 0 0 3.1-3.6c.6.2 1.2.4 1.9.6a2.18 2.18 0 0 0-.4.5c-.9 2-2.5 3.8-2.8 5.6a6 6 0 0 0-2.4 6.4c.8 2.9 3.6 5.7 6.8 4.9.2-.1.4-.1.6-.2a1.45 1.45 0 0 0 .7.2c6.2 1.6 6.2-6.8 3.4-10a7.41 7.41 0 0 0-3.3-2.2 2.59 2.59 0 0 0-1.4-1.1c.5-.9 1.2-1.9 1.4-2.4a.85.85 0 0 0 0-.7 30 30 0 0 0 5.6 1.8c1.8.4 2.7-2.6.7-3-3.7-.8-8.3-3.5-12.7-4.5a5.77 5.77 0 0 0 .9-.5 7.77 7.77 0 0 1 3-.4c1.5.1 2.8.6 4.4.4 2.9-.3 4.1-1.6 7.1-.5a20.1 20.1 0 0 1 5.4 3.3c6.6 5.5 12.2 15.9 8.6 24.5-1.7 4.1-6.2 10-11.3 8.9-1.9-.4-3.5-1.8-5.4-2.2-3.5-.8-2.8-.1-5.5-2.4s-4.8-1.4-7.6-.3-5.2.7-7-2-.5-3.1 1.5-4.8a2.22 2.22 0 0 0 .6-2.3c-1.3-3.8-4.8-12.3-1.8-16.3zM501.2 576a8.06 8.06 0 0 0-3.4 4.9 10.89 10.89 0 0 0-4.7.3c-4.4 1.3-5.6 4.6-5 8.5-4.8.8-9.2 2.6-11.2 7.8a8.85 8.85 0 0 0 .2 7.3c1.6 3.2 5.1 3.9 7.2 6.4 1.8 2.2 3 4.2 5.7 5.5a21.5 21.5 0 0 0 9.7 1.8c6.4.1 12.6 2.5 18.6-.9 2.5-1.4 4.6-3.5 7-5.1 2.7-1.8 5.3-3.2 7.2-5.9 4.4-6.3 1-12.4-2.5-18.1-5.4-8.7-18-20.4-28.8-12.5zm24.7 29.7c-3.1 2.5-7.2 5.8-10.8 7.6-4.4 2.2-10.6 0-15.5 0-3.2 0-6.9-.2-9.4-2.6-1.5-1.4-2.3-3.4-3.9-4.7-3.1-2.6-7.5-4.4-3.9-9.1 2.2-2.8 5.4-3.1 8.6-3.8a2 2 0 0 0 1.4-2.5c-1.1-2.6-1.9-4.7 1.5-6.3a6.32 6.32 0 0 1 4.3-.4c.3.6.7 1.3 1 1.8a3 3 0 0 0-2.2 3.3c-3.9 4.5.8 9.8 6.4 8a3 3 0 0 0 2.1-2.7 6.4 6.4 0 0 0-1.7-3.8 5 5 0 0 0 1-2.9 3.08 3.08 0 0 0-.1-1 18.79 18.79 0 0 0 4.9 1.6c1.8.5 2.5-1.9.8-2.3a26.14 26.14 0 0 1-6.7-2.7c-.6-4 4.7-4.2 7.6-3.6 4.9 1.1 8.8 4.3 11.7 8.3 1.4 1.9 2.6 4 3.8 6 2.5 4.2 3.5 8.2-.9 11.8zM1416 614.2a15 15 0 0 0-7.4-2.6c-1-1.4-2-2.7-3.1-4a65.54 65.54 0 0 0-10.4-10c-3.4-2.6-7.5-5-11.9-5-2.8 0-3.9.5-6.7-.6a25 25 0 0 0-6.4-2 14.18 14.18 0 0 0-11.8 4.5c-1.5 1.6-2.5 3.5-3.9 5.1-1.8 2.3-2.5 2.7-5.4 2.8a14.28 14.28 0 0 0-4.1.4c-4.6 1.5-7.6 6.6-8.3 11.2s1.2 8.4 3.9 12c-1.7 5.1-.3 10.5 3 14.8a14.12 14.12 0 0 0 7.3 5.4c3.1.8 7.5-1.1 10.2.8 2.5 1.7 3.3 5.4 6 7.3a17.39 17.39 0 0 0 9.4 3.2c4.4.1 6.9-3.8 11.4-1.8a28 28 0 0 0 9.4 2.6c7.2.5 12.8-3.7 16.4-9.6a88.17 88.17 0 0 1 7.2-10.8 14.32 14.32 0 0 0 3.3-7.9 17.12 17.12 0 0 0-8.1-15.8zm-4.4 24.7c-3 4.6-4.5 11.1-10.5 12.9-5.5 1.7-9.7-2.3-14.9-3.1-4.8-.8-7.7 3.8-12.4 2.3-5-1.6-5.7-6-9.4-8.9s-7.8-.3-11.9-1.5c-5-1.4-8.4-9-6.2-13.6a3 3 0 0 0-.4-3.4c-3.1-4-6-10.9-.4-14.7 3.6-2.4 7.8-.1 11.3-3.5 3-3 4.4-7.3 8.3-9.4 4.9-2.7 8.5.8 13.2 1.6 2.9.5 5.2-1.5 8.2-.9 4.4.8 8.8 4.6 12 7.4a71.27 71.27 0 0 1 7.6 7.9 7.91 7.91 0 0 0-4.5 3.5c-1.8 3 2.5 6.4 4.9 3.8a3 3 0 0 1 3.4-.9 18.9 18.9 0 0 0 3.1 5.3c.2.7 1.2-.4.6-1.2a9.2 9.2 0 0 1-1.4-2.8 15.85 15.85 0 0 1 4.9 6.5c1.5 5.6-2.8 8.5-5.5 12.7z"/><path class="cls-1" d="M1378.7 621.6a9.6 9.6 0 0 0-2.5-4.9 8.15 8.15 0 0 0-9.4-2 3 3 0 0 0-1.5 2.5 4 4 0 0 0 .3 2.2c-.1.2-.1.3-.2.5-2.5 6.9 8.7 11.9 12.5 5.8a6.12 6.12 0 0 0 .5-1.2c.2 0 .3-.1.5-.1a1.43 1.43 0 0 0-.2-2.8zM964 597.9c-2.9.5-4.5.8-7.1-1.1-1.3-.9-2.2-2.2-3.6-3.1a28.62 28.62 0 0 0-9.6-4.3c-6.4-1.5-10.1 1.5-15.6 3.9-3.6 1.5-8.1 2.3-10.9 5.3-3.2 3.4-1.3 7.2 2.4 9.1a3.18 3.18 0 0 0 .9.3c-2.7 1.6-4.9 4.4-5.1 7.5-.5 6.4 6.8 13.6 13.3 13.5a23.64 23.64 0 0 0 5.1 5.6c5.7 4.7 13 5.8 19.4 2.6 6.4 6.8 21 3 24.8-4a8.14 8.14 0 0 0 4.6-.5c4.7-1.9 5.8-7.1 4.9-11.7-2.1-10.6-11-25.2-23.5-23.1zm-32.2 30.6a.1.1 0 0 1 0-.2zm50.4-4.1a3.49 3.49 0 0 1-.8 2.4c-.5.5-1.9 1.3-2.8 1a8.75 8.75 0 0 0-1.7-3.1c-1.5-1.9-4.6-.3-4.6 1.9a6.69 6.69 0 0 0 1.2 3.9c-1.5 3.8-13.8 7.6-17.5 2.5a2.31 2.31 0 0 0-3.2-.8 13 13 0 0 1-14.6.4 32.54 32.54 0 0 1-2.9-2.3 11.37 11.37 0 0 0-1.6-1.5l-.6-.6a5.91 5.91 0 0 0-.4-.6 2 2 0 0 0-2.1-3.1 11.65 11.65 0 0 0-1.5.6c-4.5.7-10.5-5-10.1-9.2.2-3.5 4.8-6.8 8-6.9 2.9-.1 5.9 1.7 8.4 3.1.6.3 1.3-.5.7-.9-.1-.1-.2-.2-.3-.2s.1-.1.1-.2a33.71 33.71 0 0 0-3.2-1.9c-.3-.2-.7-.4-1-.6-.2-.4-.3-.2-.2-.1l.2.2c-2.6-1.3-5.4-2.1-8.3-1.4a2.86 2.86 0 0 0-.7-4.3c-.2-.1-.3-.2-.4-.2a2.19 2.19 0 0 0 .5-.3 30.44 30.44 0 0 0 3.7-1.7c1.8-.7 3.7-1.2 5.5-2.1 4.3-2.1 6.8-4.2 11.9-2.7 4.9 1.4 7.4 4.6 11.3 7.4 2.7 1.9 5.2 1.7 8.3 1.1 5.1-1 8.9.7 12.1 4.8a37.91 37.91 0 0 1 5.6 10.5 13 13 0 0 1 1 4.9z"/><path class="cls-1" d="M951.5 616.9c-.8-.2-1.5-.4-2.2-.6a6.07 6.07 0 0 0-.7-1c-2.2-2.5-6.6-2.2-9.6-2.1s-3 4.8 0 4.7c1.2 0 2.4-.2 3.6-.2h.1a1.88 1.88 0 0 0 .8 3.1 4.83 4.83 0 0 0 5.3-1.2 9.46 9.46 0 0 0 1.8.5c2.2.5 3.1-2.7.9-3.2zM1087.6 275.1c2.1 1.7 4.5 2.3 6.9 3.1-2.9 2.3-5.3 4.9-4.7 9a8.27 8.27 0 0 0 2.9 5.3c2 1.6 4.5 1.4 6.7 2.6 2.4 1.3 3.2 4.6 5.6 6.2a11.85 11.85 0 0 0 8 1.7c3.4-.3 6.8-1.6 10.2-1.6 4 .1 7.6 1.9 11.6 2.4 11.8 1.6 18.7-14 13.5-23.3a24.77 24.77 0 0 0-5.9-6.6c-2.5-2.2-4.1-5.1-6.7-7.2a21.19 21.19 0 0 0-17-4 15.16 15.16 0 0 0-4.5 1.6 24 24 0 0 0-3.9-2 19.31 19.31 0 0 0-8.8-1.8 64.37 64.37 0 0 1-9.8-.5c-4.1-.3-11.7 1.9-10.2 7.3.9 3.1 3.7 5.9 6.1 7.8zm29.4-5.5a9 9 0 0 1 .9 1c-.1 0-.2 0-.2.1-.7-.4-.9-.7-.7-1.1zm-21.3-4.6c3.6.2 6.7-1.6 10.4-.9a27.78 27.78 0 0 1 5.7 2 5.57 5.57 0 0 0-1.3 5.9 5.52 5.52 0 0 0 2 3l-.3 1.2v.4a23.07 23.07 0 0 0-1.9 1.4 2.77 2.77 0 0 0 1.2 4.5 19.77 19.77 0 0 0 7.6 1.1 2.66 2.66 0 0 0 1.7-4.6 2.4 2.4 0 0 0-.8-2.5c.6 0 1.3-.1 1.9-.1.2.3.5.6.7.9a1.14 1.14 0 1 0 1.8-1.4c1.6-1 2.4-3.6.2-4.5a12.36 12.36 0 0 0-3.9-.9c-.5-.7-.9-1.3-1.5-2a1.09 1.09 0 0 1 .5-.1c6.2-1.3 11.6 1.5 15.3 6.2 2.9 3.7 7.7 5.9 9.3 10.6 1.8 5.3-2.1 14-8.4 14-2.7 0-5.6-1.5-8.2-2.1a23.39 23.39 0 0 0-7-.4c-5.1.5-11.1 3.8-14.8-1.4a11.61 11.61 0 0 0-7.6-5.5c-3.1-.9-5.2-2.8-2.6-6.3 1.3-1.6 3.5-2.8 5.1-4.1 1.3-1 .8-3.2-.5-3.9-2.4-1.4-5.1-1.7-7.6-2.9a14.35 14.35 0 0 1-6.7-6.4c2.8-2.9 6.1-1.5 9.7-1.2zM1209.4 319.7c5.8 3.5 12.7 0 18.9 1.7 4.7 1.3 10.1 2.5 13.4-2.1a9 9 0 0 0 1.6-5.9 7.54 7.54 0 0 0 2.9-.9c3.7-2 4.8-6.5 4.8-10.3a26.59 26.59 0 0 0-4.5-13.7 30.74 30.74 0 0 0-4.9-5.9c-2.4-2.2-5.6-3-8-5a3.11 3.11 0 0 0-5 1.8c-2.6-3.5-5-7.1-8.2-10.1-8-7.7-14.6.2-19.6 6.8-1.6 2.1-3.2 4.7-5.4 6.2-1.5 1-3.2 1.6-4.6 2.9a13.77 13.77 0 0 0-3.7 11.1c1 7.8 9.2 11.4 16.2 12.9.7 4.2 2.1 8.1 6.1 10.5zm26.9-33.8a12.38 12.38 0 0 1 2.2 1.8c-.1 0-.2-.1-.3-.1a19.25 19.25 0 0 1-6.4-4.2 50.54 50.54 0 0 1 4.5 2.5zm-43.3 6.6c1.1-3.5 3.4-3.9 6-5.9s4.4-5.1 6.2-7.7c2.7-3.7 6.1-10.3 11.4-6.7 2.5 1.7 4.6 4.7 6.5 7 2.5 2.9 4.6 6.1 7.7 8.5s7.2 2.7 10.2 5.1a1.5 1.5 0 0 0 1.3.1l.3.6a20.05 20.05 0 0 1 2.5 7.6c.1 1.2-1 9.6-3.7 6.2-.1-.1-.1-.2-.2-.3h-.1c-2.1-2.8-6.7-.3-4.9 3 1.7 3.1 2.1 7.2-2.7 6.9-3-.2-5.7-1.8-8.7-2s-6 .9-9 .8c-5.5-.3-6.6-4.4-7.1-8.9a2.88 2.88 0 0 0-2.1-2.7c-5.8-.9-16-3.7-13.6-11.6z"/><path class="cls-1" d="M1221.5 298.3a4.13 4.13 0 0 0 5.3.8 5.37 5.37 0 0 0 2.1-3.4 1.33 1.33 0 0 0 .6-.5c2-3.1-.3-9.7-4.8-7.5a5.51 5.51 0 0 0-1.4.9 7.88 7.88 0 0 0-5.2 2c-2 1.8-2.8 5.2-.6 7.3a4.08 4.08 0 0 0 4 .4zm3.4-4.4a3.4 3.4 0 0 1 .1 1c-.1.5-.3 1.1-.5.9l-.2-.2a8.52 8.52 0 0 0 .6-1.7zM184.5 321.9c1.2-.3 2.7.9 3.7 1.1a15.62 15.62 0 0 0 6.8.2c8.5-1.6 15.1-11.6 12.7-20.1a2.4 2.4 0 0 0-1.5-1.6c.7-10.3-13.2-21.7-22.3-21.9-5.9-.2-13 2.9-17.8 6.2-4.2 2.8-5.9 8-.3 10.1 2.7 1 4.5-2.7 2.9-4.5.1-.1.2-.3.4-.5a11.78 11.78 0 0 1 1.9-1.1c1.3-.7 2.6-1.2 3.9-1.8 4.4-2 8.9-3.7 13.6-1.4 5 2.4 14.2 10 12.1 16.2a2.69 2.69 0 0 0 1.9 3.3 2 2 0 0 0 .7.1c.4 3.6-2 7.9-4.5 10.1-3.8 3.2-7.8 2.2-12.2 1.1-3-.8-3.3.4-5.7 1.6-4.3 2.1-8-1.4-11.4-3.4-2.1-1.2-3.8-2-6.3-1.5-1.1.2-2.1 1-3.2 1.2-1.9.3-3.3-.6-4.8-1.6-3.4-2.1-12.4-9.9-8.5-14.3a1.76 1.76 0 0 0-.8-2.9c-5.8-2.3 1.8-22.6 13.9-12.9 1.3.8 3-.8 1.8-1.9-5.9-5-13.4-4.7-17.7 2-2.7 4.1-5 11.2-.9 14.7-2.8 5 2.1 11.3 5.8 14.9 2.3 2.2 5.1 4.6 8.2 5.5a11 11 0 0 0 5.1-.2c3.7-.8 5 .3 8 2.4 3.2 2.2 8.3 4.3 12.1 2.6.8-.4 1.6-1.6 2.4-1.7z"/><path class="cls-1" d="M175.3 300a5.64 5.64 0 0 0-1.2.4 1.88 1.88 0 0 0-1.3 2.2 4.55 4.55 0 0 0 5.9 3 2.21 2.21 0 0 0 1.3-3.3c-.3-.4-.5-.8-.8-1.2a7.46 7.46 0 0 0 .7-1.2 1.63 1.63 0 0 0-.6-2.2 1.54 1.54 0 0 0-2.1.6c-.4.7-.6 1.1-1.2 1.4-.1.1.1 0-.2.1s-.3.1-.5.2zM402.5 454.3c5.1 1.6 10.7 5 16.1 2.8 10.8-4.4 8.4-22 1.2-28.4-4.9-4.4-12.5-6.3-18.8-8.1-4.7-1.5-10.7-3-15.3-.6a14.19 14.19 0 0 0-2.9-1c-4.6-1.1-10.3.4-12.8 4.6-3.1 5.2-2.1 11.1.2 16.4 2.7 6.4 5.4 12.4 12.5 14.9s13-2.8 19.8-.6zm-27.6-13.6c-2.4-5.4-5.4-12.9-.1-17.8 2.5-2.3 5.8-2.3 8.9-1.4l-.1.1a3.06 3.06 0 0 0 0 4.1c.5.6 1.1 1.1 1.6 1.6-1.7 1.2-1.3 4.2.9 5.1a5.35 5.35 0 0 0 2.6 1.4c2.3.7 4.9-2.2 3.3-4.3a5.72 5.72 0 0 0-.7-.8 1.3 1.3 0 0 0 .3-.9 3.29 3.29 0 0 0 .1-2.9c2.4 1.1 4.9 2.4 5.5 3.5a.46.46 0 0 0 .7-.5c-.9-2-2.6-2.7-4.4-3.5a50.92 50.92 0 0 1 9.1 2.5c5.1 1.7 11.8 2.8 15.3 7 3.3 3.9 4.4 11.3 1.9 16-3.2 6.1-10.3 2.1-15 .5-5.3-1.8-8.4-1-13.8.4-8.3 2.2-13-3.3-16.1-10.1zM48 443.3c-.1.7-.8 1.6-1 2.4-1 4.3.8 9.9 3.1 13.4 5.2 7.7 15 7.5 23.1 9.3 4.9 1.1 9.7 2.3 14.5.2a11.74 11.74 0 0 0 5-3.8c1.5-2 1.6-4.6 2.8-6.7 9.7 2.8 16.2-5.6 12.5-15.1-4.3-11.2-15.9-17.4-26.6-10.8-2.3 1.4-.3 5 2.1 3.7 7.4-4.1 15.1-1.4 19.3 6 1.6 2.8 3.3 6.9 1.5 10-2 3.4-6.1 2.9-9.1 1.7-.9-.4-1.8.3-2.4 1-2.9 3.8-2.2 8.8-7.7 10.6-4 1.3-8.1-.2-12.1-1-6-1.2-13.6-1-18.3-5.6a13.91 13.91 0 0 1-3.5-13.4c.6-2 1-2.9.1-5-1.2-2.7-3.8-3.9-2.9-7.5a11.17 11.17 0 0 1 3.4-4.9c4.6-4.1 9.9-4.2 15.7-4.6a1.1 1.1 0 1 0 .1-2.2c-8.2-.7-21.6 2.3-22.6 12.6-.2 2.1.5 3.7 1.3 5.6.5 1.2 1.8 2.7 1.7 4.1z"/><path class="cls-1" d="M77.1 451.6a1.62 1.62 0 0 0 1.8-.7 4.2 4.2 0 0 0 .6-2.1c1-1.1-.2-3.4-1.8-2.8-.1 0-.3.1-.4.1.1-.1.2-.2.3-.2 1.3-1.3-.4-3.6-1.7-2.6a5.42 5.42 0 0 0-2.4 4.5 4.46 4.46 0 0 0 3.6 3.8zm-1-2.1zM1260.2 472c3.7-4.5 3.8-11.2 3.3-16.7-.6-6.1-2.1-13.6-7.4-17.4a9.41 9.41 0 0 0-2.2-1.2c-2.5-5.2-5.8-10.1-11.3-12.3-7.2-2.8-12.5.9-18.3 4.7-4.9 3.2-11.9 4-15.6 8.9-3.3 4.3-2.4 10.9 1.5 14.6 4.6 4.3 11.7 3.9 16.6 7.6 6 4.6 9.2 11.7 16.7 14.5 5.5 2.1 12.6 2.3 16.7-2.7zm-27.2-13.2c-4.2-4.3-8.8-5.5-14.3-7.3-3.5-1.1-6.8-2.7-7.2-6.8-.3-3.9 2.6-5.8 5.7-7.2a68.63 68.63 0 0 0 7.6-4c2.7-1.9 5.2-4.3 8.3-5.6 7.7-3.5 13.5 1.8 17.4 7.9a6.55 6.55 0 0 0-2.8.3c-1.5.5-1.8 1.4-2.9 2.2-1.9 1.2-3.4.7-5.1-.1a3.2 3.2 0 0 0-2-1c-.4 0-.7-.1-1.1-.1-3.6-.4-3.7 4.8-.8 5.9s5.7 3 9 2.2c2.4-.6 3.7-3.3 5.5-3.7 5.9-1.2 7.7 11.2 8 14.8.5 5.8.3 14.3-7.2 14.5-8.4.3-12.9-6.7-18.1-12z"/></svg>