<svg id="Layer_1" data-name="Layer 1" xmlns="http://www.w3.org/2000/svg" viewBox="0 0 1440 712"><defs><style>.cls-1{fill:#ff68cb}</style></defs><title>Artboard 1</title><path class="cls-1" d="M357.6 311.1c10.7.3 20-6.5 29.3-11 11.4-5.5 24-6.3 36.6-6.3 4.9 0 10.4.7 15.2-.6 3.9-1.1 7.2-3.6 10.2-6.3s5.9-5.9 9.3-8.3c4.1-3 8.3-5.8 11.8-9.5 6.5-6.8 9.7-15.6 11.4-24.8 1.9-10.5.8-21.3 3-31.8 2.3-11 8.3-20.8 12.2-31.2a65.82 65.82 0 0 0 3.7-15c.7-5.7 2-11.8 1.8-17.6-.3-10-5.9-18.8-11.3-26.8-6.5-9.8-11.6-19.1-14.2-30.7-2.2-9.9-3.2-20.1-4.7-30.2-.8-5.6-1.9-13.1-8.9-13.7-6.19-.54-9.17 6.23-11.08 12a64.27 64.27 0 0 0-13.22 11.6c-12.1 15.1-16 34.1-20 52.5-2.3 10.6-5.8 20.9-8 31.5-2.1 10.2-3.3 20.5-4.7 30.7-2.9 20.9-5.8 42.6-13.9 62.2-9 22-26.7 39-35.9 60.8a1.69 1.69 0 0 0 1.4 2.5zm118.7-203.5c4 9.1 10.5 16.8 15.4 25.4 2.8 4.9 5.2 10.1 5.4 15.9.2 5.2-.9 10.6-1.5 15.8-1.3 11.3-6.2 21.1-10.7 31.3a83.93 83.93 0 0 0-6.9 28.3c-.6 9.7-.6 19.1-3.7 28.5-3.8 11.4-12.1 16.5-20.8 23.8-3.4 2.8-6.2 6.3-9.7 9.1-5 4.2-10.1 4.2-16.4 4.3a170.81 170.81 0 0 0-18.9.9c-5.3.7-11.1 1-16.2 3a101.07 101.07 0 0 0-12.61 6.53c6.5-6.06 13.45-11.46 20.11-17.43 4.89-4.42 8.48-9.47 12-14.7 1.92 7.29 5.33 14.09 9.1 20.7.5 1 2 .1 1.5-.9-4-6.81-7.61-13.75-9.6-21.3 1.4-2.09 2.8-4.2 4.3-6.3 5.5-8 11.8-15.5 15.6-24.5.34-.83.67-1.68 1-2.53 4 7.88 9.06 15.24 13.4 22.93 1.1 2 4.1.2 3-1.8-4.85-8.58-10.7-16.66-14.81-25.52A98.88 98.88 0 0 0 440 208.3c1.09-9.9 1.12-19.88 1.78-29.79.23.28.44.52.62.69 2.3 2.3 4.6 4.6 7 6.7a74.65 74.65 0 0 0 13.5 9.5c1.7 1 3.3-1.7 1.6-2.7a81.79 81.79 0 0 1-17.8-13.1c-1.15-1.1-2.78-3.2-4.6-5.08.9-9.88 2.94-19.6 4.23-29.47 1.07 1.38 2.18 2.74 3.37 4a83.24 83.24 0 0 0 16.2 13.3c1.5 1 2.9-1.4 1.4-2.4a82.87 82.87 0 0 1-16.8-13.9c-1.32-1.48-2.54-3-3.73-4.62a164.81 164.81 0 0 0 .83-17.35 33 33 0 0 1 3 5.67 86.43 86.43 0 0 0 5.9 9.7c4.8 7 10.2 13.7 15 20.7.9 1.3 2.9 0 2.1-1.2-6-8.4-12.7-16.4-18.3-25.1-2.44-3.78-4.15-9.17-7.69-12.22 0-15.4-.76-30.76 3.89-45.88 1.6-5.2 3.3-10.5 5.4-15.5l.33-.87c.78-.37 1.57-.72 2.37-1a18.65 18.65 0 0 1 2.2-.7 12.23 12.23 0 0 1 4.26.2c.5 2.3.66 4.79 1 7.1.8 4.9 1.4 9.8 2.1 14.7 1.44 9.52 3.24 19.12 7.14 27.92zm-16.6-53c2.16-2.44 4.41-1.88 5.59.77a11.12 11.12 0 0 0-6.45.47 8.19 8.19 0 0 1 .86-1.24zm-54.3 155.5c3.3-19.2 4.9-38.8 9.1-57.8 2.1-9.4 5.1-18.6 7.1-28s3.8-18.8 6.8-28c3.2-9.4 7.8-18.9 14.5-26.3a43 43 0 0 1 7.83-6.92c-.11.36-.22.7-.33 1-3.7 11-6.6 22-7.2 33.6-.7 12 .6 24.1 0 36.1 0 .83-.11 1.65-.17 2.47-1.43-2-2.87-4-4.42-6a7.22 7.22 0 0 0 .49-3.2 1.13 1.13 0 0 0-1.08-1l.48-.78c.3-.5-.5-.9-.7-.4l-1.26 2.13a6.83 6.83 0 0 0-1.64 2.21c-.17.37-.33.75-.48 1.14a42.15 42.15 0 0 1-3.72 4.87c-1.4 1.6-3 2.7-3.1 4.9-.1.1.1.1.1 0 .3-2.9 4.1-5.4 5.9-7.6-.39 1.12-.75 2.26-1.12 3.4-.25.35-.49.69-.71 1a139.08 139.08 0 0 0-6.9 12.6.86.86 0 0 0 1 1.26 46.26 46.26 0 0 1-6 8.64c-.6.3.1 1.1.6.6a54.14 54.14 0 0 0 9.3-14.3c.3-.6.6-1.23.9-1.84 1.27-2.06 2.5-4.15 3.7-6.26a.75.75 0 0 0 0-.81c.11-.16.22-.33.34-.49.86-1.17 1.86-2.37 2.68-3.65 1.84 2.42 3.56 4.94 5.31 7.43-1 9.72-3 19.3-4.2 29-.1.77-.17 1.55-.26 2.33a4.85 4.85 0 0 0-2.44-.63c-3.9.3-6.4 7.4-8 10-2 3.2-3.8 6.6-5.9 9.6-2.3 3.3-5.4 6.1-7.9 9.3-.6.5 0 1.2.4.7 3.5-4 7.4-7.5 10.4-11.9 1.8-2.7 3.7-5.4 5.5-8.2 1.4-2 3.4-7.3 6.4-6.7a3 3 0 0 1 1.23.64c-1.06 11.33-.92 22.77-2.13 34.06a88.79 88.79 0 0 1-2.93 14.81c-.39-1.12-.76-2.25-1.07-3.41a1.68 1.68 0 0 0-2-1.2c-4.2 1.5-6.6 5.5-9.8 8.4a77.57 77.57 0 0 1-8.6 6.5c-2.8 2-5.7 4.7-9.4 4.8-.8.2-.8 1.6.1 1.6 5.4 0 10.2-4.6 14.4-7.6 3.78-2.7 8.12-8.21 12.59-10a63 63 0 0 0 2.15 5.93 76.23 76.23 0 0 1-8.44 17c-3.3 4.9-7 9.6-10.3 14.5-.33.48-.64 1-1 1.45-.35-.28-1.12-.12-1 .45 0 .32.09.63.13.94-2.84 4.42-5.51 8.91-9.13 12.86-4.2 4.6-9.2 8.2-14 12.1-5 4.1-9.6 8.6-14.1 13.1a2 2 0 0 0 .26 3.12 36.38 36.38 0 0 1-13.41 4.22c7.34-15.87 19.21-29.35 27.85-44.54 9.5-16.43 14-34.63 17.3-53.23z"/><path class="cls-1" d="M383 277c3.8-3.9 8.8-6.4 13.1-9.6 4.6-3.3 9-6.7 14-9.3 1.3-.7.1-2.6-1.1-1.9-5.2 3-9.8 6.8-14.5 10.4-4.1 3.2-8.8 5.7-12.3 9.6-.5.5.3 1.3.8.8zM430 159c1.5-2 2-4.29 2.71-6.55a1 1 0 0 0 1.69.15c1.4-1.8 1.5-4.2 2.8-6.1.48-.67-.5-1.41-1-1 1-1.6 2-3.19 2.92-4.84a1.1 1.1 0 0 0-1.9-1.1c-1.8 3-3.9 5.8-5.5 8.9-1.4 2.7-1.6 6.4-3.4 8.8-1.12 1.24.68 3.04 1.68 1.74zm3.21-7.93a27 27 0 0 1 1.35-2.81 24.15 24.15 0 0 1-1.35 2.81zM450.7 115.1c6.6 11.6 14.4 22.5 24.1 31.8a1.21 1.21 0 0 0 1.7-1.7 153.89 153.89 0 0 1-23.9-31.2 1.11 1.11 0 0 0-1.9 1.1zM1304.4 428.2c-4.7-18.7-8.2-37.7-12.6-56.5-4.4-19-2.3-39.9.2-59.1 2.4-18.3 3.8-36.1 1.1-54.5-2.5-17-7.8-34.2-16.5-49.1-4-6.94-9.54-13.88-16.27-18.76l.57-1.34c1.1-2.6-3.5-4.5-4.6-1.9l-.23.54a33.2 33.2 0 0 0-7.57-3 239.73 239.73 0 0 1 43.2-26.84c-.64.51-1.28 1-1.9 1.55-.3.5.2.9.5.6a55.53 55.53 0 0 1 5.53-4.1l1.27-.6c9.44-4.33 19.08-7.3 29.09-10.06 5.62-.86 11.34-1.34 17-1.64 18.8-1 38.5.4 55.8 8.1 1.3.6 2.5-1.4 1.1-2-18.3-8-38.9-9.1-58.6-7.6q-3.14.24-6.29.57c7.88-2.32 15.75-4.61 24-5.27 1.9-.2 2-3.1 0-3-9.5.5-18.3 3.2-27.4 5.9s-18.3 4.8-27 8.4a242.5 242.5 0 0 0-47.2 25.7q-6.58 4.6-12.82 9.58c-.59-.08-1.18-.14-1.78-.18-7.5-.5-15.1 1.4-22.1 4a218.05 218.05 0 0 0-23.4 9.8c-8.5 4.2-16.3 9.9-24 15.4a132.08 132.08 0 0 0-19.1 15.9c-24.5 24.9-41.8 55.6-51.7 89.1-11.1 37.6-20.6 76.3-35.7 112.5-7 16.7-13.6 33.9-22.2 49.9-8.1 15.1-18.6 29.9-34.3 37.6a20.93 20.93 0 0 1-10.7 2.3c-3.3-.2-7.5-1.5-7.9-5.6-.2-2.1 1.1-4.7 1.5-6.7 0-.5-.5-.6-.6-.3-.7 3.2-2.7 6.5-1 9.7s5.9 3.9 9.2 4c9.5.4 18.3-6.2 25.1-12.2 17.7-15.5 26.5-38.5 36-59.4 5.5-12.2 11-24.4 15.6-36.9 4.9-13.3 8.7-27 13-40.5s8.6-27.3 12.5-41c3.7-12.9 7.4-25.7 12.8-38.1 20.4-47.5 60.5-87.3 110.5-102.4a49.17 49.17 0 0 1 12.73-2.34c-.88.75-1.76 1.48-2.63 2.24-6.9 6.2-12.7 13.4-18.7 20.4-12.6 15-24.5 30.2-36 46.1-23.5 32.5-45.6 65.3-63.8 101.1-9 17.7-18.1 35.5-26.6 53.4-8.3 17.6-14.5 36-20 54.6a272.41 272.41 0 0 0-8.1 32.3c-1.8 10.5-2.8 21.1-4 31.6-1.2 11.4-2 22.7-1.2 34.2.7 10.8 3.2 21.3 5.2 32 0 .2.5.1.5-.3-1.6-10-3.6-19.8-4.3-29.9a169.71 169.71 0 0 1 .6-29.4c2-19.5 4.3-39 9.7-57.9s11-38 18.9-56c7.5-17.3 16.6-33.8 25-50.7a710.74 710.74 0 0 1 59.3-98.3c11.3-15.7 22.5-31.8 34.8-46.7 11.11-13.5 22.22-27.36 35.61-38.61h.19a25.88 25.88 0 0 1 10.42 3.55c-6.35 14.55-13 28.92-13.22 45.15a139.33 139.33 0 0 0 2.68 27.6 92.51 92.51 0 0 0 3.32 21.1 1.11 1.11 0 0 0 .61.75c-1.89 9.48-2 20.28 7.39 25.55a1.17 1.17 0 0 0 1.44-.18c.34 1.79.7 3.58 1.06 5.38.3 1.6 2.7.9 2.4-.7q-.26-1.28-.53-2.56c4.15 10.14 8.55 20.19 12.73 30.26a465.42 465.42 0 0 1 18.7 55.2 237.4 237.4 0 0 1 5.9 27.3c1.1 7.4 2 15.1 4.3 22.3 1.5 4.8 4.3 10.3 9.4 12 3.7 1.2 4.9-1.6 4.5-4.8-1.4-9.84-8-18.54-10.4-28.24zm-48.47-118.37c-7.74-4.83-7.82-13.68-6.39-21.86q.52 1.63 1.06 3.23c1.31 3.9 2.73 7.77 4.19 11.62.32 2.33.71 4.67 1.14 7.01zm25.3 45.77a1.9 1.9 0 0 0-.13-.4l-.21-.5q-1.71-4.56-3.49-9.09c-6.65-19.71-8.12-40.69-10.1-61.31-1.1-11.7-2.8-23.2-4.3-34.9-.8-6.4-2.2-13-1.2-19.4.7-4.6 1.6-8.7.3-13.2a.77.77 0 0 0-1.3-.3c-.4.4-.8.7-1.2 1.1-.9.6.3 1.7 1 1l.24-.22c.88 5.39-1.55 10.71-1.64 16.12-.1 6.2 1.2 12.6 1.9 18.7 1.5 12.1 2.9 24.2 3.9 36.4 1 11.8 2 23.63 4 35.25l-2.09-5.09a113.42 113.42 0 0 1-3.31-17.46c-1-9.9-1.9-20.3-.8-30.2.2-1.4-2.2-1.7-2.4-.3-1.4 10.3-.8 21.2.2 31.4 0 .47.11.93.16 1.4q-2.47-6.2-4.56-12.44a49.58 49.58 0 0 1 .4-6.66c.1-1.1-1.9-1.3-2-.2-.07.45-.11.89-.17 1.33a205.72 205.72 0 0 1-7.73-36.73 79.86 79.86 0 0 1 .94-26.33 97.28 97.28 0 0 1 4.16-9.57.87.87 0 0 0-.94-1.24c2.21-6.07 4.87-11.95 7.45-17.84 1 .81 2 1.68 3 2.57 9 8.3 14.6 19.8 18.9 31.1 9.6 25.3 10.8 51.6 7.3 78.2-2.1 16-3.5 31.8-3.1 47.9a91 91 0 0 0 1.69 14.49q-1.77-5.12-3.59-10.19c-.43-1.13-.86-2.26-1.28-3.39zm22.29 84.9c1.07 2.39 2.14 4.75 3.18 7.1a64.36 64.36 0 0 1 2.4 6.1c.19.49.33 1 .46 1.48-3.94-3.35-5.08-9.79-6.04-14.68zM204 378.3a23.56 23.56 0 0 1 1 3.8 29.08 29.08 0 0 1 .4 3.1 1.42 1.42 0 0 0-.09.88v1.12c0 .4.6.4.7 0 .6-6.2-2-12.1-4.3-17.8a.61.61 0 1 0-1.1.5c1.19 2.8 2.39 5.5 3.39 8.4zM221.7 375.6a113.22 113.22 0 0 1 1.4-11.7c.2-1.3-1.7-1.8-1.9-.5-.6 4.1-1.4 8.1-1.6 12.3-.1 1.2 2 1.2 2.1-.1zM272.5 359.5c-2 1.5-3.6 3.6-5.9 4.6-1.2.5-.3 2.3.9 2 2.6-.7 4.2-3 6.3-4.5 1.3-.8 0-3-1.3-2.1zM246.9 382.4a12.51 12.51 0 0 0-3.4 6.4 1.11 1.11 0 1 0 2.2.3 10.6 10.6 0 0 1 2.6-5.3c.9-1-.5-2.4-1.4-1.4zM256.8 374.6c-1.6-.3-3-1.1-4.6-1.3-.8-.1-1.2 1.3-.3 1.5 1.6.4 2.9 1.4 4.4 1.7 1.2.3 1.7-1.7.5-1.9zM766.1 258.6c.1-7.2 2.7-13.9 4.5-20.7.3-1.2-1.6-1.8-1.9-.5-1.8 7.1-4.4 13.9-4.5 21.3-.1 1.2 1.8 1.2 1.9-.1zM780.7 236.7c2.1-2.6 3-5.6 4.5-8.6 1.9-3.8 4.2-7.4 6-11.2.4-.8-.7-1.4-1.1-.7-1.9 3.4-4.1 6.6-5.9 10-1.6 3.1-2.5 6.4-4.7 9.2-.8 1 .5 2.3 1.2 1.3zM797.6 228.1c4.9-5.7 7.9-12.9 13.3-18.2 1.1-1-.5-2.5-1.6-1.6-5.9 4.9-8.8 12.1-13.7 17.8-1.1 1.4.8 3.3 2 2zM814.4 222.6c1.1-9.1 8-16.3 13.1-23.5.7-.9-.9-2.2-1.6-1.3-6.1 7.4-12.8 14.8-14.1 24.7-.2 1.7 2.4 1.7 2.6.1zM832.4 204.6c-.6-7.3 6.5-13.3 10.3-18.8 1-1.4-1.3-2.7-2.3-1.3-4.1 6-11.3 12.2-10.7 20.2.2 1.6 2.9 1.6 2.7-.1zM848.4 181.4c5.1-5.1 7-12.2 10.5-18.3a1 1 0 0 0-1.7-1c-3.8 5.7-5.6 12.8-10.5 17.7-1 1 .6 2.7 1.7 1.6zM864.9 149.6c1.5-2.5 4.5-4.7 4.4-8a.7.7 0 0 0-1.4 0c-.1 1.5-1.4 2.8-2.3 3.9a22.59 22.59 0 0 0-2.3 3.1.94.94 0 0 0 1.6 1zM836.3 215.8c-3.7 3.1-6.5 7.2-10.4 10.1a1.52 1.52 0 0 0 0 2.29A49.5 49.5 0 0 0 815 235c-1.3 1.3.7 3.4 2.1 2.1 3.4-3.1 7.7-5 11.6-7.4a1.32 1.32 0 0 0-.36-2.43c3.5-3 6.12-6.8 9.46-10 1-.87-.5-2.27-1.5-1.47zM846.8 206.3c-2.6 1.2-5.4 2.4-5.4 5.7.1 2.2 3.3 2.2 3.3.1-.1-1.7 2.3-2.5 3.6-3.3 1.6-.9.2-3.3-1.5-2.5zM858.7 187.2c-3 3.1-4.8 7.1-7.7 10.3-1.1 1.5.9 3.5 2.1 2.1 2.8-3.3 4.6-7.3 7.3-10.7 1-1.2-.6-2.9-1.7-1.7zM573.6 340.9a40.23 40.23 0 0 0-3.2 16.8c0 1.4 2.4 1.4 2.4-.1a49.71 49.71 0 0 1 2.8-16.2c.4-1.3-1.5-1.7-2-.5zM585.8 330.2c-2.9 4.8-6 9.6-6.1 15.5 0 1.1 1.8 1.1 1.8-.1.1-5.5 3.1-10 5.9-14.5a.92.92 0 0 0-1.6-.9zM600.4 313.4a56.81 56.81 0 0 0-5.7 9c-1.4 2.9-1.5 6.4-3.4 8.9-1.1 1.6 1.5 3.1 2.6 1.5 1.9-2.7 2-6 3.4-8.9a65.38 65.38 0 0 1 5.6-9.1c1-1.5-1.4-2.9-2.5-1.4zM612.6 302.5c-3.6 3.1-5.1 6.6-6.7 11-.7 2.2 2.6 3.1 3.4 1 1.3-3.7 2.6-7.1 5.3-10a1.42 1.42 0 0 0-2-2zM609.1 356.5c-1.5.1-5.8.3-6.1-1.9a1.42 1.42 0 1 0-2.8.4c.6 4.3 5.9 4.3 9.2 3.7a1.12 1.12 0 0 0-.3-2.2zM614.7 343.3c-.8-1.5-3.1-.1-2.3 1.5 1.9 3.4 4.9 5.3 7.7 7.7 1.3 1.1 3.2-.8 1.9-1.9-2.7-2.3-5.6-4-7.3-7.3zM635.4 342.7c-4-2.8-7.1-6.4-10.2-10.2-1.3-1.5-3.4.7-2.2 2.2 3.3 4 6.5 7.8 10.8 10.8 1.7 1.2 3.3-1.6 1.6-2.8z"/><path class="cls-1" d="M968.6 377.3c5.6-15.2 10.9-30.7 17.6-45.3 6.5-14.2 16.3-26.4 24-39.9s14.4-27 22.4-40.2c8.2-13.4 17.2-26.7 23.9-40.9 7.5-15.9 16.3-31.2 24.1-46.9 3.8-7.6 7.6-15.3 10.3-23.4 2.4-7.3 7.6-14 8.6-21.7a1.35 1.35 0 0 0-.23-1 82 82 0 0 1 24.23-17.66c13.8-6.5 29-9.2 43.9-11.7a.83.83 0 0 0 .75-.84 106.92 106.92 0 0 0 13.45 2.84 138 138 0 0 1 17.8 4.9c4 1.27 8 2.39 11.95 3.36a102.07 102.07 0 0 0-16.25 5.84c-1.2.6-.2 2.3 1 1.8a98.59 98.59 0 0 1 15.68-5.49c-3.49 1.54-7 3.1-10.58 4.59-1.8.8-1 3.7.8 3 6.15-2.54 12.07-5.34 18.09-7.88a138.54 138.54 0 0 0 14.61 1.88c3.83.3 7.67.5 11.51.63-12.05 7.37-24.21 14.73-36.21 22.33-12.7 8-25.2 15.9-39.2 21.6-13.4 5.5-27.5 8.8-41.6 11.8a202.84 202.84 0 0 1-30.72 3.94 40.18 40.18 0 0 1 4-1.54c5.2-1.6 10.6-2.7 15.9-3.8a251.29 251.29 0 0 0 30.9-8.3c9.4-3.2 18.7-6.3 27.7-10.5 9.8-4.5 19-10 28.3-15.4a1.5 1.5 0 0 0-1.5-2.6c-8.7 5.2-17.5 10.4-26.6 14.8-9.8 4.7-20 8.3-30.3 11.8a246.2 246.2 0 0 1-29.1 8.1c-5 1.1-10.1 2.1-15 3.7-3.27 1-6.36 2.69-9.52 4-3.93.16-7.88.25-11.88.3a.57.57 0 0 0 .2 1.1c2.46 0 4.89.07 7.32.07h-.12a.93.93 0 0 0 .5 1.8 33.05 33.05 0 0 0 5.36-1.88 214.06 214.06 0 0 0 32.54-2.82c15.1-2.6 30.3-5.9 44.6-11.6 13.3-5.3 25.5-12.5 37.6-20.1 14.1-8.8 28.4-17.3 42.5-26a1.76 1.76 0 0 0 .69-.74c20.56.21 41.23-1.7 61.61-3.56 2.1-.2 2.2-3.5 0-3.4-12.4.62-24.75 1.79-37.12 2.67 3.19-.46 6.4-.89 9.62-1.07 4.4-.2 8.5-.4 12.7-1.9 1.3-.5 1.2-2.6-.3-2.5-13.5.8-27.1 1-40.6 1.9-2.75.17-5.51.38-8.27.59a1.21 1.21 0 0 0-.63-2.19q-5.72.15-11.46.59c12.59-3.24 25.52-5.16 38.46-6.79 2-.3 2-3.4 0-3.2-13.1 1.7-26.2 3.6-39 6.9-2.14.55-4.24 1.17-6.3 1.84-15.77-4.15-31.25-9.51-46.8-14.24-15.8-4.8-33.4-7.9-49.4-2.6-7.3 2.4-13.6 6.4-20 10.5s-12.8 8.6-17.7 14.5a73.42 73.42 0 0 0-12.7 22 49 49 0 0 0-2.7 12.5c-.4 5 1.5 9.7 1.3 14.6a1.49 1.49 0 0 0 .07.55c-2.27 5-4.81 9.94-7.27 14.75-7.7 15.2-15.8 30-23.2 45.3s-17.2 29.6-26 44.1c-8.6 14.1-15.2 29.3-24.1 43.2-8.7 13.7-17.3 26.8-23.3 42-6.3 15.8-12.3 31.8-17.7 47.9a447 447 0 0 0-13.5 49.5 141.91 141.91 0 0 0-1.7 49.5c2.3 17.2 5.3 34.5 11.5 50.8 1.8 4.8 3.4 10.9 7.1 14.6 1.9 2 4.8 3.3 5.7-.1.4-.6-.7-.9-.9-.2-.3 1-2.3.5-2.7.3a4.9 4.9 0 0 1-1.7-1.8 17.79 17.79 0 0 1-1.7-3 83.1 83.1 0 0 1-3.5-8.7 184.91 184.91 0 0 1-5.9-19.2 262.74 262.74 0 0 1-7-48.4c-.6-16.4 2.8-32.1 6.9-47.9S963 392.6 968.6 377.3zm256.51-278.63l.57-.22a76.69 76.69 0 0 0 9 .25q2.64-.07 5.28-.2c1 .2 1.95.41 2.92.6q3.54.69 7.07 1.09c-4.45 0-8.9-.11-13.37-.39-3.87-.24-7.69-.63-11.47-1.13zm46.31-1.67l-.62.09a84.71 84.71 0 0 1-14.88.52h.38c5.04-.29 10.09-.46 15.12-.61zm-26-.57zM1085 139.2c-.3-4.3.8-8.8 2-12.9a67 67 0 0 1 12.7-22.7c5.1-6.1 11.8-10.6 18.5-14.8s13.3-8 21-10.1c16.9-4.6 35.6.7 51.7 6 11.37 3.7 23.07 7.43 34.83 10.49q-1.53.57-3 1.18l-.78.13c-1.59-.17-3.18-.36-4.81-.6-1.2 0-1.5 1.2-.7 1.3l1.09.18-.25.06a157.94 157.94 0 0 1-18-4.44 124.44 124.44 0 0 0-17-4.3c-5.6-.9-10.9-1.5-16.2-3.5a.86.86 0 0 0-.6 1.6h.08c-15.17 2.64-30.48 5.68-44.18 12.77a83.67 83.67 0 0 0-23.2 17.83 1.84 1.84 0 0 0-1.9 1.57c0 .25-.1.49-.14.74a80.42 80.42 0 0 0-8.86 12.56c-.4.6.5 1.2.8.6a78.23 78.23 0 0 1 7.32-10.47c-1.08 3-2.83 5.66-4.22 8.57a79.11 79.11 0 0 0-3.9 10.6c-.42 1.21-.88 2.42-1.35 3.62-.38-1.97-.77-3.95-.93-5.99z"/><path class="cls-1" d="M1163.9 112.2c-10.8 1.8-21.7 4-31.9 8.1-10 4-17.5 11-26.7 16.2-1 .4-.2 1.8.7 1.3 4.4-2.5 8.3-5.7 12.5-8.5a68.62 68.62 0 0 1 15.5-7.9c9.8-3.6 20.1-5.6 30.4-7.3 1.2-.2.7-2.1-.5-1.9zM1177.4 113.6a110.7 110.7 0 0 0-25.7 9.1 1 1 0 1 0 .9 1.8 111.81 111.81 0 0 1 25.3-8.9c1.3-.3.7-2.2-.5-2zM1178.2 123.1c15-6.7 31.3-7.2 47.4-8.9 1.5-.2 1.5-2.5 0-2.4-16.5 1.7-33.2 2.3-48.6 9.1-1.5.8-.2 2.9 1.2 2.2zM1071.5 482.3c.2-.7-.8-1-.9-.3-.9 4.8-2.4 13.1 1.7 16.9.3.3.8-.2.5-.5-3.6-3.7-2.2-11.6-1.3-16.1zM1409.7 153.6c-10.94 3.91-21.8 7.85-32.75 11.41a1.5 1.5 0 0 0-1.75-.91 108.25 108.25 0 0 0-13.8 3.8c-3.1 1.1-6.5 1.7-9.2 3.7a1.75 1.75 0 0 0-.56.71c-4 1-8.06 1.89-12.14 2.69-11.7 2.3-23.4 4-35.1 6.2-12.1 2.2-24.4 4.5-36.8 4.8-1-.1-1 1.4 0 1.4 11.5-.1 23.2-1.8 34.6-3.8 12-2.2 24.1-3.7 36.1-5.8 4.89-.86 9.71-1.87 14.49-3a1.33 1.33 0 0 0 1-.25c19.3-4.63 37.89-11.19 56.78-17.75 2.03-.7 1.13-3.9-.87-3.2zM1389.1 151.1c-27 0-54.6-2-79.9 9.3-1.1.4-.2 1.9.8 1.5 25-11.1 52.4-8.8 79.1-8.7a1.05 1.05 0 0 0 0-2.1zM1339.3 164.4c-1.6.5-.9 2.9.6 2.4a131.44 131.44 0 0 1 37.2-7.4c1.7-.1 1.7-2.7 0-2.6a135.81 135.81 0 0 0-37.8 7.6zM148.5 366.9c-7.1 5.2-19.1 15.4-28 9.8a.57.57 0 1 0-.7.9c7.5 4.9 16.1-.5 22.8-4.9a122.72 122.72 0 0 0 25.5-21.6 205.8 205.8 0 0 0 33.3-49c3.19-4.82 6.45-9.6 9.7-14.37.9-1.3-1.2-2.5-2.1-1.2l-4 5.77a1.28 1.28 0 0 0-2 .53q-1.43 3.53-3 6.94A290.74 290.74 0 0 0 182 330a1.08 1.08 0 0 0-.06.77c-3.68 5.17-7.6 10.23-11.74 15.23a122.68 122.68 0 0 1-21.7 20.9z"/><path class="cls-1" d="M147.7 371.9c-.7-.8-2 .5-1.2 1.3 8.3 9 25.4-15.2 29.5-20.4 16.3-20.7 32.6-42.2 45.7-65.1.8-1.4-1.4-2.7-2.2-1.3-11.2 19.9-25 38-38.5 56.4-2.7 3.6-25.6 37.4-33.3 29.1z"/><path class="cls-1" d="M465.4 386c8.9-27.4 23.2-52.9 39.2-76.8a791.2 791.2 0 0 1 52.1-68.8c9.8-11.6 18.2-24.1 27.7-36q3-3.81 6.2-7.53a1.33 1.33 0 0 0 2-1 8.54 8.54 0 0 1 .52-2c6.55-7.62 13.33-15 20.08-22.4 18.3-20 37.2-40.2 50.4-64.2a193.34 193.34 0 0 0 9.9-20.5c2.2-5.3 5.7-12.9 3.7-18.7a6.08 6.08 0 0 0-5-4.1c-4.9-.7-7.9 2.6-10.5 6.2-4.5 6.3-9.3 12.3-13.1 19.1-4.2 7.5-8.2 15-12.3 22.5Q624 134.15 611.1 156c-4.2 7.2-8.5 14.2-12.4 21.6a104.87 104.87 0 0 1-5.5 9.9 32.19 32.19 0 0 0-2.92 4.83c-4.36 5.09-8.6 10.29-12.58 15.67-8.8 11.9-17.5 23.5-26.9 34.9-16.5 19.9-32.3 40.7-46.8 62.2s-27.5 44-36.8 68.2c-5 12.9-8.3 26.2-11.8 39.5-3.4 12.9-6.2 25.8-7.3 39.1-2.8 32 .6 63.8 1.3 95.7a316.8 316.8 0 0 1-.78 32.14c-.68-2.25-1.36-4.51-2.12-6.74-3.2-9.7-6.5-19.3-10.1-28.9-7.1-18.68-14.53-37.27-21.76-55.93a83.68 83.68 0 0 0-.74-9.37 170.24 170.24 0 0 0-5.4-27.4 428.7 428.7 0 0 0-18.9-54.9c-7.1-16.8-15.4-32.9-23.9-49-6.08-11.4-12.38-22.75-19.84-33.29-11.15-40.2-16.44-81.82-28.94-121.59-.11-2.29-.12-4.6 0-6.92.6-12.2 3.8-24.1 5.5-36.1s3-23.9 4.2-35.9c1-10.9 3.9-21.9 3.1-32.9-.3-4.5-1.4-14.3-7.9-13.7-7.7.7-10.5 9.3-14.1 14.8-5.6 8.6-7.1 20.9-8.3 30.9a116.14 116.14 0 0 0 1.3 33.8c2.83 15.86 8.22 31 13.2 46.28a106.71 106.71 0 0 0 5.7 28.52 1.55 1.55 0 0 0 2.49.71c2 9 3.58 18 5.41 27 2.4 11.8 5.3 23.4 7.9 35.2 1.83 8 3.86 16 6 23.92-1.11-1.42-2.24-2.83-3.4-4.22-21.4-25.5-53.2-43.4-87-43.7-2 0-4 0-6 .16-2.72-3.44-5.58-6.76-8.29-10.26-4.4-5.8-7.2-12.6-10.5-19-3.1-6-6.6-11.7-9.9-17.7-6-10.8-10.7-22.4-17.2-32.9q-1.23-2-2.58-3.89l1-.51c1.9-1 .2-3.9-1.7-2.9l-1.35.67c-11.77-14.68-29-22.17-48.65-19.37-12.4 1.7-23.9 7.1-35.2 12.1-12.8 5.6-25.3 11.6-37.9 17.6-5 2.4-10.7 4.6-14.8 8.4-3.3 3.1-5.6 6.8-9.3 9.6-3 2.3-10.9 9.5-3.9 12.4 3.1 1.3 7.1-.9 9.9-2.1 1-.47 2-.91 3.06-1.36a18.21 18.21 0 0 1-2.46 5 .64.64 0 1 0 .9.9c1.59-1.93 2.23-4.24 3.06-6.51 3.93-1.67 7.91-3.2 11.94-4.79 14-5.5 30-10 45.1-10.1 6.6 0 12.6-1.2 19.1-2.7 7.7-1.7 15.7-1.8 23.5-2.6 12.79-1.34 23.59-6.45 34.74-12.16a120.45 120.45 0 0 1 8.86 15.16c5.2 10.3 10.4 20.6 16.2 30.7 6.1 10.6 10.7 22 18.5 31.5 1.27 1.54 2.5 3.11 3.72 4.69-2.44-.1-4.88-.18-7.32-.29-3.2-.1-6.3-.1-8.9 1.9a1.52 1.52 0 0 0-.2 2.07 90.63 90.63 0 0 0-21.6 9.43l-1.36.85c1.27-1.92 2.5-3.86 3.66-5.85.8-1.4-1.4-2.7-2.2-1.3-2.11 3.67-4.45 7.21-6.86 10.7-12.11 8.47-22.71 19.11-32.44 30.2-14.4 16.4-29.3 32.3-45.5 47-8.1 7.4-16.4 14.5-25.1 21.3s-18.3 12.1-26.7 19c-1.7 1.4.7 3.7 2.4 2.4 7.7-6.1 16.4-11 24.3-17 6.9-5.2 13.4-10.8 20-16.5a471.94 471.94 0 0 0 40.5-39.5c11.74-12.93 22.58-26.55 36.08-37.72l-.78 1.12c-4.8 6.9-9.2 14.1-13.9 21a362.71 362.71 0 0 1-32.7 41.4c-11.3 12.6-23.7 24-38.4 32.6a149.3 149.3 0 0 1-23.2 11c-6.1 2.3-9.1 5-13.4 9.9-.1.2.4.6.6.3 2.4-2.6 4.5-5.5 7.6-7.3 3.8-2.2 8.5-3.3 12.6-5a152.28 152.28 0 0 0 20.2-10.1c13.9-8.3 25.7-19.6 36.5-31.5a360.78 360.78 0 0 0 31.1-38.7c4-5.75 7.74-11.7 11.65-17.47a1 1 0 0 0 1.15-.53c2.92-5.07 6.14-10.13 10.61-13.93a105.29 105.29 0 0 1 10.42-6.21 71.69 71.69 0 0 1 7.32-2.81 78.71 78.71 0 0 1 28.67-4c8.59 12.07 16.08 24.91 24 37.49a65 65 0 0 0-29.77 11.41c-7.6 5.4-13.3 12.7-19.3 19.8-5.8 6.7-12.1 12.8-17.4 20-13.2 17.6-27.6 35.7-46.6 47.2-7.8 4.7-15.84 9-23.84 13.27l-1.26.53c-3.05 1.32-7.07 3-9.61 5.72a39.29 39.29 0 0 0-11.79 11.48 1.76 1.76 0 0 0 .6 2.4c4.2 2.9 10.2 1.5 14.9.4 7.1-1.7 13.8-4.6 20.8-6.6 8.8-2.4 17.9-3.4 26.8-5.2 9.5-2 19.1-3.1 28.6-4.9 32.9-6.3 59.3-28.1 78-55a103.57 103.57 0 0 0 13.2-25.6c.09-.26.17-.53.25-.79Q311 363.09 329 387.6c17.2 23.5 35.1 46.5 51.3 70.7l1.06 1.59q5.44 23.88 10.54 47.81c2.8 13.2 5.4 26.5 7.4 39.9 1.1 7.6 2 15.3 2.9 23 .8 7.2 2.5 15.1 1.1 22.3 0 .4.5.5.5.2 1.2-4.9.7-9.7.2-14.7-.5-5.8-1.1-11.6-1.7-17.4-1.2-11.3-2.8-22.6-4.8-33.8-3.66-20.7-8.11-41.32-12.58-61.87 6.22 9.66 12 19.52 17.58 29.57 3.4 6.2 6.9 12.5 10.1 18.8 2.9 5.6 4.9 11.7 8.6 16.8.4.3 1.1-.2.8-.6-3.2-4.8-4.9-10.2-7.4-15.4-3.2-6.7-6.8-13.2-10.3-19.8-6.49-12-13.18-23.86-20.66-35.24l-.34-1.56c-5.4-25.24-11.49-50.3-18.09-75.23 6.84 11.69 12.29 23.93 17.59 36.73 7.5 18 15.7 35.7 23 53.9q3.43 8.56 6.8 17.16c-.24 4.17-.42 8.66 2.2 11.34a.78.78 0 0 0 1.1 0l.9-.7c4.45 11.29 8.94 22.55 13.6 33.7 4.3 10.3 8.3 20.7 12.1 31.3 2 5.72 3.78 11.58 5.81 17.31-.42 4.57-.94 9.14-1.61 13.69-1.5 11.4-2.3 28.1-11.6 36.5 7.7-6.6 9.1-17.6 10.9-27q2-10.47 3.1-21a96.28 96.28 0 0 0 3.9 9.22.48.48 0 0 0 .6.2c2.5-1.6 3.4-4.2 5.5-6.2.2-.3 0-.4-.1-.3a16 16 0 0 0-2.5 2.7c-3.2 3.8-4 .2-5.2-3.1-.69-1.9-1.29-3.83-1.88-5.75q.86-8.85 1.18-17.75c1.1-30-2.1-60-1.5-90.1.7-30.32 6.9-59.72 16.3-88.52zm146-224q11.25-18.9 22-38.1c7-12.4 13.2-25.6 20.9-37.6 3.2-4.9 6.9-9.5 10.3-14.2 1.6-2.2 4.5-6 7.7-4.4 1.5.7 1.7 2 1.8 3.6.3 6.8-3.7 14.4-6.6 20.4a243.57 243.57 0 0 1-12.4 23.1 236.12 236.12 0 0 1-15.28 21.35c5.66-10 11.43-20.05 19.28-28.45a.78.78 0 0 0-1.1-1.1c-8.7 9.3-14.9 20.6-21.1 31.7a.71.71 0 0 0 .41 1c-10.46 12.81-21.86 24.89-32.91 37.13l-3.53 3.92c3.3-6.28 6.86-12.27 10.53-18.35zm-309.6-39.7c.3-11.1 2-23.8 6.1-34.1 1.8-4.5 5.1-8.6 7.5-12.8 1.3-2.2 2.6-4.1 5.3-4.6 3-.6 4.1 1.2 4.9 4.2 3.2 11.3-.5 23.9-1.8 35.2-1.5 13.5-2.6 27-4.6 40.4-1.6 11-4.44 21.85-5.18 33-2-6.07-4-12.2-5.74-18.38q.22-7.31 1.11-14.56c.57 2.56 1.18 5.11 1.82 7.64.3 1.1 1.9.6 1.7-.5-1-4-2-8.14-2.8-12.27.1-.63.21-1.27.31-1.9.4.17.92 0 .79-.53-.1-.77-.19-1.54-.28-2.31.13-.66.24-1.33.38-2a.78.78 0 0 0-.68-1 107.63 107.63 0 0 1-.12-17.7c.6-7.8 1.1-16 3.6-23.4.2-.6-.8-.9-1-.2a51.7 51.7 0 0 0-2.07 8.42.77.77 0 0 0-1.23.48c-1.6 8.9-3.1 18-2.9 27.1a84 84 0 0 0 1.55 13.61 138.84 138.84 0 0 0-1.46 14.55c-3.33-12.54-5.6-25.31-5.2-38.35zm6.8 10.1a102.91 102.91 0 0 1 1.13-16.56c-.08.82-.15 1.65-.23 2.46a107.27 107.27 0 0 0 .09 21.23q-.13.67-.25 1.33a72.74 72.74 0 0 1-.74-8.46zm-148.9 54.8c-5.9.7-11.8.9-17.6 1.6-5.5.6-10.8 2.3-16.3 3.3s-11.37.56-17 1.22c10.3-9.3 25.6-11.4 38.6-14.7a1 1 0 1 0-.6-2c-13.3 3.4-28.8 5.7-39.4 15.3a.93.93 0 0 0 .23 1.55c-6 .81-12 2.28-17.83 3.65a176.16 176.16 0 0 0-28.56 9.43c2.63-3.61 6.93-6.14 10.66-8.33 8.5-4.9 17.8-8.1 26.9-11.5 19.7-7.4 40-12.6 60.6-17 1.4-.3.8-2.5-.6-2.2-21.6 4.9-42.8 10.7-63.5 18.7-8.5 3.3-17 6.4-24.8 11.1-3.4 2-7.1 4.4-9.7 7.5a12.7 12.7 0 0 0-1.62 2.6l-1.88.8c-2.5 1.1-6.7 4.2-9.5 3.6-5.8-1.1 3.7-7.1 5.4-8.4 3.6-2.8 5.6-7.1 9.5-9.7 5.1-3.5 11.1-5.8 16.6-8.4q17-8.1 34.2-15.6c12-5.3 24.4-11.2 37.7-11.9a48.17 48.17 0 0 1 28 6.59 46.83 46.83 0 0 0-12.1 7.59c-1.5 1.4.7 3.5 2.1 2.2 3.5-3.2 7.5-5.2 11.7-7.3a1.2 1.2 0 0 0 .73-.92l.17.12a48.18 48.18 0 0 1 9.66 9.37c-10.23 5.16-20.19 10.33-31.76 11.73zm70.3 75.34q-1.37.31-2.73.65a8.91 8.91 0 0 1 2.73-.65zm9.18 1.75c1.46-.17 2.91-.3 4.36-.41l.31.43q-2.33-.09-4.68-.02zm20.83 19c-3.2-5.3-6.5-10.6-9.9-15.8l-.19-.28.69.08c1.3.2 1.6-2.1.3-2.3-.91-.14-1.83-.26-2.75-.36l-.69-1q1.79-.05 3.57 0a148.55 148.55 0 0 1 24.77 5.25 1.34 1.34 0 0 0 1.71-1.32c20.47 5.9 39.24 18 53.89 33.52a142.93 142.93 0 0 1 12.1 14.76c3.59 12.89 7.4 25.72 11.1 38.64.95 3.31 1.86 6.63 2.79 10a271.2 271.2 0 0 0-30-34.65c-8-7.76-17-15.18-27.11-20.07l.21-.93c.6-2.6-3.4-3.7-4-1.1l-.07.33a57 57 0 0 0-9.83-3 53.06 53.06 0 0 0-13.77-.94c-4.4-6.88-8.65-13.8-12.83-20.82zm15.27 24.49a46.29 46.29 0 0 1 8.23.59 30.57 30.57 0 0 0-5.19 4q-1.55-2.3-3.05-4.58zM286 311.2a1.79 1.79 0 0 0 .75-2.18 55.29 55.29 0 0 1 8.8 2.86c-1.41 6.27-2.79 12.47-4.46 18.55l-7.39-10.33q-1.59-2.22-3.14-4.47a32.68 32.68 0 0 1 5.44-4.43zm-131.5 97a111 111 0 0 0 21.6-15.6c6.1-5.8 11.5-12.3 17.2-18.5 6.2-6.9 11.3-14.6 17.1-21.8 5.6-7 12.1-13.2 17.9-20.1 11.27-13.37 26-22.8 43.68-24.23q2.09 3.27 4.25 6.5a64.27 64.27 0 0 0-8.33 12.44 1.1 1.1 0 0 0-1.8.2 34.41 34.41 0 0 0-4.73 12.09l-.57 1a94.52 94.52 0 0 1-7.5 10.93c.07-.21.13-.42.2-.63.6-1.7-2.1-2.4-2.7-.7a62.89 62.89 0 0 0-1.88 6.5 131.49 131.49 0 0 1-13.52 12.91c0-6.28.28-12.43 2.9-18.41.7-1.6-1.5-2.9-2.3-1.4-3.46 7-3.43 14.44-3.28 22q-4 3.21-8.22 6.2a246.71 246.71 0 0 1-22.4 14c-7.3 4.1-15.1 9.4-23.3 11.1-8.56 1.79-16.93 3.66-25.18 6zm126.2-52a147.51 147.51 0 0 1-29.7 35.7c-12 10.4-27.3 19-42.7 23.1-8.4 2.2-17 3.3-25.5 4.8-8.3 1.4-16.5 3.4-24.9 4.8-8.8 1.5-17 4.3-25.5 6.9-5.15 1.54-12.9 4.77-18.34 2.5a32.55 32.55 0 0 1 5.36-5.51c.32 3.55 4.64 2.88 8.07 2.7.3 0 .3-.3.1-.3-1.1 0-2.4.2-3.5.1-2.41-.33-3.5-1.72-3.44-3.48a87.62 87.62 0 0 1 11.44-7c4.87-2.6 9.74-5.2 14.58-7.88.87-.27 1.74-.56 2.62-.82a195.4 195.4 0 0 1 22.6-5.4c7.2-1.2 13.2-2.4 19.7-5.8 14.09-7.48 28.37-15.34 41.2-24.95 0 1.75 2.7 1.73 2.7-.05v-2a136 136 0 0 0 12.43-10.95c-.12 1.33-.19 2.68-.19 4-.1 1.8 2.9 1.8 2.9-.1a43.68 43.68 0 0 1 .66-7.45 105.46 105.46 0 0 0 9.14-11.35c.57-.83 1.12-1.68 1.66-2.54.87.35 2.07 0 1.94-1.16a16.15 16.15 0 0 1-.09-2c4.65-8.15 8.54-17.27 14.6-24.3q1.38 2 2.79 4l8.74 12.24a99 99 0 0 1-9.37 22.2zm92.8 70q3.33 13.9 6.5 27.8c-14.45-21.54-30.18-42.17-45.42-63.13Q314.33 363 294.34 335c2.08-7 3.5-14.17 5.07-21.33a93.78 93.78 0 0 1 20.19 14.03c13.6 12 25.6 26.1 36.3 40.7q2.25 3.08 4.31 6.22 7.03 25.71 13.29 51.58zm16.2 1c-8-18.4-14.6-37-26-53.8-.52-.77-1.06-1.52-1.58-2.28Q355.56 347 348.4 323c4.51 6.92 8.64 14.11 12.6 21.38 8.6 15.7 17.1 31.6 24.3 48a437.71 437.71 0 0 1 21.5 60.4 173.91 173.91 0 0 1 5.67 29.79q-10.82-27.96-22.77-55.37zm24.89 68.31l1.64 4.16c-1.16.58-1.54-1.73-1.64-4.16z"/><path class="cls-1" d="M644.5 122.1c-.9-7.6 6.5-13.3 10.4-19 .7-1-1-2-1.7-1-4.1 6-11.6 11.9-10.6 20 .2 1.2 2.1 1.2 1.9 0zM651.5 103.2c1.7-1.3 3.1-2.9 3.2-5.1 0-.7-1-.7-1.1 0-.2 1.6-1.6 2.9-2.8 3.9-.8.5-.1 1.8.7 1.2zM974.1 164.6c-5.7 5.4-11.9 10.3-17.1 16.2-4.9 5.6-7.3 13.4-12.7 18.5a1.06 1.06 0 0 0 1.5 1.5c5.5-5 7.9-12.7 12.9-18.3 5.3-5.8 11.5-10.7 17.3-16 1.2-1.1-.6-3-1.9-1.9zM1010.25 134.66a1.39 1.39 0 0 0-1.35-.16 66 66 0 0 0-24.3 18.2 1.48 1.48 0 0 0 .48 2.09 24.7 24.7 0 0 0-3.18 4.41.81.81 0 0 0 1.4.8c1.9-3.4 4.6-6.2 7.2-9a.53.53 0 0 0-.09-.82 62.61 62.61 0 0 1 14.84-11 38.54 38.54 0 0 0-4.25 4.74c-.9 1.3 1.2 2.6 2.1 1.3a52.34 52.34 0 0 1 8.8-8.8c1.18-1.01-.45-2.67-1.65-1.76zM648.1 605.2c4.4-2 8.4-4.7 13.1-5.9 3.7-1 7.4-1.5 10.9-3.1.2-.1.1-.3-.1-.2-4.4 1.9-9.3 2.2-13.7 4-3.6 1.4-6.8 3.5-10.3 5-.1.1 0 .3.1.2zM739 107.3c.4-3.2 2.6-5.4 4.5-7.9 2.4-3.1 4.7-6.2 7.3-9.2 4.7-5.4 9.9-10.4 15-15.5a1 1 0 0 0-1.4-1.4c-6.2 6.1-12.4 12.2-17.8 19-3.4 4.2-8.7 9.2-9.4 14.8-.2 1 1.6 1.3 1.8.2zM735.8 110.8a195 195 0 0 0-20.8 23.7c-3.19 4.24-6.09 8.75-9.07 13.21-1 1.12-1.92 2.24-2.86 3.38A1.42 1.42 0 0 0 701 151c-6.6 6.5-13.9 12.3-20.3 19.1-6.1 6.5-10.3 13.9-14.5 21.7-.9 1.8 1.8 3.4 2.7 1.6 4.4-8.1 8.7-15.6 15.2-22.3 4-4.07 8.27-7.89 12.48-11.79-2.3 2.93-4.61 5.86-6.88 8.89-2.5 3.3-4.8 6.7-5.2 10.9-.2 1.5 2.1 1.5 2.3 0 .5-5.2 4.8-9.6 8-13.5.51-.61 1-1.23 1.48-1.84a1.06 1.06 0 0 0 .62-.36 105.07 105.07 0 0 0 9.65-12.69C713.9 142 721.94 134 730 126c1.1-1.1-.6-2.7-1.7-1.7-3.8 3.76-7.59 7.53-11.31 11.38a227.86 227.86 0 0 1 20.41-23.28 1.13 1.13 0 0 0-1.6-1.6zM698.8 166.8c-7.1 8.3-12.6 17.7-18.2 27-.6.7.6 1.4 1.1.7 5.6-9.2 11-18.6 17.8-27 .4-.5-.3-1.3-.7-.7zM918 521.1v3c0 .1.2.1.2 0v-3c0-.1-.2-.1-.2 0z"/><path class="cls-1" d="M1000.7 254.1c6.6-15.53 11.26-31.77 15.38-48.09 1.14-1.72 2.31-3.42 3.52-5.11.89-1.16-.83-2.31-1.85-1.64 1.27-5.19 2.51-10.39 3.75-15.56 3-12.5 6.2-24.9 10.3-37 1.9-5.8 3.6-11.5 5-17.5.4-1.9 1.7-4.8.5-6.7a4.69 4.69 0 0 0-.86-1.07c3.39-3.57 6.75-7.07 9.76-10.93 1.3-1.7 4.4-4.9 3.4-7.3a2.11 2.11 0 0 0-2.4-1.4c-9.1 1.8-17.3 6.7-25.6 10.7a153.34 153.34 0 0 0-27 16.2 144.29 144.29 0 0 0-20.9 19.7c-6.6 7.5-13.5 15-19 23.4-11.7 17.9-24.2 35.2-35.5 53.3-.56.89-1.1 1.78-1.65 2.68h-.21v-.79c-.2-2.5-4.2-2.5-3.9 0a22.76 22.76 0 0 1 .2 2.6 2.19 2.19 0 0 0 1.4 1.9l.21.05c-10.38 17-20.15 34.29-30.71 51.15-23 37-46.3 73.5-72.6 108.3-25.4 33.6-51.3 66.8-75.4 101.3-9.39 13.36-18.21 27.24-25.15 42a218.1 218.1 0 0 0-1.95-32.74c-1.7-12.65-4.11-25.27-7-37.77 4.49-13.24 8.54-26.67 13-39.93 7-20.7 10.3-41.7 14.3-63.1a184.19 184.19 0 0 0 3.6-31.4c.2-11.1-.5-22.2 1.6-33.1.39-2.08.86-4.15 1.37-6.22 9.34-.12 18.78-.9 27.73-4 10-3.5 19.3-9.5 28.2-15.3 9.4-6 18.9-12.2 27.8-19 4-3.1 7.8-6.5 11.9-9.4 3.8-2.7 8.2-4.6 11.8-7.6 7.1-6 11-14.8 15.2-22.9 2.3-4.4 5.1-8.3 7.6-12.5 2.7-4.6 5.1-9.1 8.2-13.4 3-4.1 5.1-9 7.7-13.4 3-5.2 5.6-10.5 8.2-15.9 5-10.4 10.4-20.7 16.4-30.6a203.86 203.86 0 0 0 15-30.8c1.2-3 1.9-6.1 3-9.1s2.8-5.6 4.1-8.5a39.91 39.91 0 0 0 2.3-6.9 62 62 0 0 1 3.4-9.4c.3-.7-.4-1.3-1.1-1.4-4.7-.3-6.1 6.8-7.5 10-4.2 9.4-12.8 15-20.6 21.1-15.7 12.3-29.9 26.9-43.8 41-7.3 7.4-13.1 16.3-20.3 23.8-7.1 7.3-15.6 12.1-23.7 18.1-8.3 6.1-16.3 13.1-24.1 19.7-8.2 6.9-15.1 14.9-21.8 23.2-12.6 15.5-23.2 31.9-31.1 50.3a159.66 159.66 0 0 0-7 19.91l-.17.18h-.32A1.36 1.36 0 0 0 732 289c-.65.69-1.31 1.38-2 2.07s.4 1.7 1.1 1 1.29-1.33 1.92-2c-.73 3-1.35 6-1.82 9-1.6 10.3-.9 20.8-1.1 31.2-.2 11.7-2.2 22.9-4.3 34.4-2.1 11.1-3.6 22.4-6.1 33.4-4.62 20.44-12.42 40.3-18.67 60.24-2.27-9.16-4.8-18.26-7.53-27.24-3.6-12-7.7-23.9-12.2-35.7-4-10.6-7.3-20.8-8.9-32q-.45-3.08-.88-6.15a211.24 211.24 0 0 0 1.65-32.13 62.1 62.1 0 0 0 2.73-8 125.82 125.82 0 0 0 3-16.08c.16 2.38.27 4.75.35 7.08.1.3.7.3.7 0-.06-3.64-.21-7.55-.59-11.53.32-3.63.52-7.26.59-10.87a1.88 1.88 0 0 0-2.68-1.65c-2.59-10-7.68-19-17.72-23.35a44.19 44.19 0 0 0-12-3.12l-.09-.28a76.44 76.44 0 0 1-2.4-27.06c2.31-.79 4.08-2.3 6.2-3.74 3.6-2.5 7.3-4.7 10.9-7A172 172 0 0 0 679.9 207a220.06 220.06 0 0 0 34.2-34.7c9.8-12.5 20.4-24.3 29.1-37.7 9-13.9 16.9-28.5 27.4-41.4 1.2-1.5-.9-3.7-2.2-2.2-9.5 11.7-16.9 24.8-24.8 37.6-8.6 13.9-19 26.2-29 39.1-9.7 12.5-19.8 24.1-31.7 34.6a170.76 170.76 0 0 1-19.9 15.1c-3.1 2-6.3 4-9.4 6.1-2.69 1.77-5.38 4.29-8.49 5.53.29-3 .72-5.92 1.29-8.83a93.7 93.7 0 0 1 15.4-36c3.6-5.1 7.7-9.8 11.2-14.9 3.8-5.5 6.1-11.5 9.1-17.4 5.9-11.5 15.9-21.2 24.5-30.7 4-4.5 7.9-9.1 11.5-13.9l.9-1.3a111.26 111.26 0 0 0-8.74 14.08c-.4 1 1 1.9 1.5.9 7.7-14.5 19.2-27 30.2-39q8.25-9 17-17.54-2 2.26-4.06 4.54a103.25 103.25 0 0 0-7.9 9.6c-2.6 3.9-4.6 8.1-8.3 11.2a1.14 1.14 0 0 0 1.6 1.6 33.58 33.58 0 0 0 6.6-8.4 95.52 95.52 0 0 1 9.6-12.4c6.9-7.8 14-15.3 21.4-22.6a1.12 1.12 0 0 0 .11-1.51c1.27-1.2-.62-3.08-1.91-1.89a518 518 0 0 0-36.9 37.2c-2.38 2.67-4.78 5.37-7.17 8.11a1.56 1.56 0 0 0-2.43-.81c-8.2 5.5-13.2 14-19.4 21.5-7.1 8.6-14.9 16.7-22 25.3a103.86 103.86 0 0 0-8 10.8c-3.2 5.2-4.9 11.1-8 16.3-5.4 9-12.9 16.5-18.1 25.6-10.2 17.8-15.1 38.9-12.4 59.3a68.7 68.7 0 0 0 2 9.35 73.78 73.78 0 0 0-35.7 7.87c-18 9.1-29.1 26.3-39.2 43-11.5 19-22.2 38.6-35.2 56.6-15.9 22.1-35.9 40.7-58.2 56.2a1.14 1.14 0 0 0 .6 2.1 28.21 28.21 0 0 0 10.16-1.67c0 .72-.05 1.47-.05 2.27 0-.8.05-1.56.12-2.29a105.52 105.52 0 0 0 10.38-4.41c9.1-4.1 18.8-6.9 28.1-10.3 9.6-3.5 18.3-6.7 28.6-7 9.3-.3 18.6.9 27.9-.1a113.15 113.15 0 0 0 11.3-2.3c4.3-.9 8.6-1.5 12.7-3.2 8.5-3.5 16.4-9 23.7-14.5a104.75 104.75 0 0 0 18-17.2c5.6-6.6 11.6-12.5 16.5-19.7.83-1.2 1.63-2.42 2.43-3.65q.52 3.76 1 7.55c.56 4.6 1.07 9.23 1.68 13.84-3.19 17.44-7.68 34.8-11.48 52.16s-7.7 35-8.8 52.8c-1.1 16.9 2.5 33.9 5.2 50.5 1.6 9.7 3 19.6 6.3 28.8 2.9 8.1 7.3 15.4 12.3 22.4 1.4 1.9 4.7.1 3.2-1.9a90.15 90.15 0 0 1-11.8-20.7c-2.9-7.7-4.3-15.9-5.7-24-3-17-6.8-34.4-6.4-51.7.5-18.7 4.8-37.2 8.6-55.4 3.14-15 6.91-30 9.75-45.05a110.63 110.63 0 0 0 2.75 12.25c3.1 10.3 7.5 20.3 11.1 30.4 3.9 11.2 7.6 22.4 10.7 33.9 1.76 6.43 3.43 12.88 5 19.34-7.24 21.53-16.94 41.93-19.74 64.76a151.06 151.06 0 0 0 .4 36.8c1.2 9.4 2.4 19 6.9 27.5 0 .1.1.1.2.1 4.1-1 6.1-5.4 10.3-6l.21-.06c-.12 3.88-.08 7.74-.2 11.59a159.43 159.43 0 0 1-21.41 40.27c-7.2 9.7-16.5 18.8-28.1 22.9a33.26 33.26 0 0 1-13.2 2.1c-1.6-.1-12.2-1.4-8.9-4.7.6-.4 0-1-.4-.6-3.1 3 1.1 4.7 3.8 5.4a32.43 32.43 0 0 0 18.5-.9c18.6-6.2 31.3-23.7 40.6-40.1a166.87 166.87 0 0 0 8.92-18.2 33.07 33.07 0 0 0 .68 8.53.27.27 0 0 0 .4.2c2.3-1.6 2.9-4.3 3.9-7.1-.6 1.3-1 3.4-1.9 4.4-3.6 3.9-2.7-3.8-2.6-5.7 0-.55 0-1.1.06-1.65a191 191 0 0 0 13.59-65.32A238.8 238.8 0 0 1 730 505.5c22.9-34.3 49-66.6 74.2-99.3 12.5-16.2 25-32.5 36.8-49.2 12.3-17.4 23.5-35.5 34.8-53.5 14.93-23.87 29.06-48.28 44-72.15 2.17-.57 4.35-1.55 6.16-2.05a62.92 62.92 0 0 0 17.9-8.6c13.1-9.2 24.1-21.1 34.6-33.1 15-17.12 29.51-34.77 44.68-51.74-3.37 7.13-6.53 14.41-9.18 21.74-4.5 12.6-7.6 25.6-11 38.5-3.9 14.4-8.2 28.6-13.2 42.6-4.5 12.8-10.9 24.7-15.6 37.3-2.2 6.1-7.4 15.9-3.7 22.2a1.64 1.64 0 0 0 .9.71c-5.14 7.52-10.36 15-15.3 22.59-25.1 38.6-41.4 82.8-50.6 127.8-5.1 25-8.3 50.3-11 75.6-1.4 13.2-2.7 26.5-4.1 39.7-.7 6.8-1.3 13.6-1.4 20.4a59 59 0 0 0 .2 9.4c.5 3.2 1.6 6.2 1.4 9.5.1.2.9.2.9-.3.3-5.7-1.7-11.2-1.6-16.9.1-6.5.6-13 1.3-19.4 1.3-12.6 2.8-25.3 4.2-37.9 2.8-25.5 6.1-51 11.2-76.1 10.1-49.3 28.7-96.5 57.2-138.1 13.54-19.8 27.54-39 36.94-61.1zm-245.09-9.36a92.31 92.31 0 0 0-3.11 24.36.6.6 0 0 0 1.2 0 90.67 90.67 0 0 1 4.6-28.3.66.66 0 0 0 0-.42q1.09-1.71 2.2-3.38c11.8-17.6 26-33.8 42.6-47 8.1-6.5 15.8-13 24.5-18.7a99.91 99.91 0 0 0 21.3-19.2c3.5-4.2 6.8-8.6 10.4-12.8s7.9-8.1 11.8-12.3c7.5-8.1 16-15.5 24.2-23 8-7.4 17.4-13.5 24.9-21.3 3.1-3.3 6.2-7 8-11.2.73-1.69 1.68-6 3.4-8.19a35.12 35.12 0 0 0-1.6 4.19c-.9 3.1-1.3 6.1-2.7 9-1.9 4.2-4 7.9-5.4 12.3-3.1 9.9-8 20-13 29.2s-10.8 18.1-15.7 27.5c-5 9.6-9.6 19.3-15 28.7-5.1 8.7-10.1 17.4-15.6 25.9-5.4 8.3-9.3 17.5-14.9 25.6-5.3 7.7-13.2 10.8-20.3 16.4-8.7 6.8-17.6 13.3-26.7 19.6-10.1 6.8-20.4 13.8-31.3 19.1-10.18 4.86-21.25 6.15-32.41 6.44q.24-.89.49-1.78a34.34 34.34 0 0 1 2.82-2.46c3.7-2.8 7.5-5.8 11.3-8.5 7.3-5.3 15.1-9.9 22.6-15 5.85-4 11.77-8 17.56-12.27 3.78-.14 7.62-.89 11.34-1.33a94.14 94.14 0 0 0 14.8-2.8 1 1 0 0 0-.5-1.9 116.91 116.91 0 0 1-23.88 4.73 196.76 196.76 0 0 0 21.88-18.53c12-12 24.8-24.4 34-38.6 4.7-7.3 8.7-15.3 14.4-21.9 5.4-6.2 11.4-11.5 16.2-18.3a235.1 235.1 0 0 0 16.3-26.7c4.8-8.9 10.3-17.3 15.4-26.1a1.39 1.39 0 0 0-2.4-1.4c-9.4 15.1-17.3 31.1-27 46.1a125.14 125.14 0 0 1-16.8 20.9c-5.7 5.8-9.9 12.6-14.1 19.6-9.1 15.2-21.1 27.9-33.3 40.7a222.1 222.1 0 0 1-28.3 24.44c-.7 0-1.41.06-2.1.06s-.7.8-.1.9c.27 0 .55 0 .82.06-4.29 3.17-8.64 6.26-13 9.34-8.1 5.7-16.7 10.7-24.7 16.6-3.8 2.8-7.5 5.7-11.2 8.6-.41.32-.81.65-1.2 1a171.37 171.37 0 0 1 17.29-37.96zM671.8 274.1a42.32 42.32 0 0 1 4.53 10.7 1.79 1.79 0 0 0-.23.9 122.36 122.36 0 0 1-3.19 27.08c-.12-4.56-.25-9.12-.31-13.68a.5.5 0 1 0-1 0c-.1 6.2-.06 12.44-.07 18.69a80.62 80.62 0 0 1-4.15 10.79A290.76 290.76 0 0 0 658.9 290c-3.1-10.44-7.69-20.35-10.89-30.72 9.99 1.24 18.18 5.64 23.79 14.82zM479.72 420.49q4.17-3 8.25-6.14a12.6 12.6 0 0 0-1.55 4.42 32.52 32.52 0 0 1-6.7 1.72zM662.6 337.2c-4.8 7.6-10.6 14-16.5 20.7-5.7 6.4-10.7 12.5-17.6 17.7a125.5 125.5 0 0 1-21.8 14.2 49.82 49.82 0 0 1-12.6 3.9c-4.9 1-9.7 2.5-14.7 2.9-8.4.8-16.9-.1-25.3.1a68.79 68.79 0 0 0-23.8 4.9c-9.7 3.9-19.6 6.9-29.3 10.8-4.75 1.88-9.48 4.51-14.38 6.3a12.47 12.47 0 0 1 2.43-5.18q3-2.35 5.93-4.77a70.17 70.17 0 0 1 11-5.05c8.7-3.2 17.4-6 25.9-9.6 16.5-6.9 32.4-17.3 46.3-28.5 13.5-10.8 23.8-24.6 32.3-39.5a169.53 169.53 0 0 1 35.6-43.9c1.5-1.3-.7-3.4-2.2-2.2a139.78 139.78 0 0 0-17.1 17 1.44 1.44 0 0 0-2-.56c-4.6 2.5-7.4 6.3-9.6 11a1.67 1.67 0 0 0 2 2.22c-.69 1-1.39 2-2.06 3.08-8.1 12.7-14.6 26-24.5 37.4s-22.3 20-34.9 28.5l-1.31.86a42.91 42.91 0 0 1 1.59-13.8c1.3-4.2 3-8.2 4.3-12.4.3-.9-1.2-1.3-1.5-.4-1.5 4.8-3.5 9.4-4.9 14.2-1.3 4.4-1.2 8.4-1.1 13a.74.74 0 0 0 .09.35c-13.08 8.39-26.94 14.26-41.59 19.95a124.36 124.36 0 0 0-13.3 5.76 231.18 231.18 0 0 0 24.7-24.36c13.3-15.3 24-32.6 34.3-50 10.2-17.2 19.4-36.2 33.1-50.9a70.16 70.16 0 0 1 52.5-22c.52 0 1 0 1.54.06 1.95 6.53 4.57 12.87 7 19.24a254.48 254.48 0 0 1 9.8 33.3c1.62 7.22 3 14.43 4.09 21.7-.8 1.34-1.58 2.68-2.43 4zm-44.06-29.6a22 22 0 0 1 4.9-6.55c-1.68 2.13-3.33 4.31-4.9 6.55zm52.86 21.46c-.14 6.42-.46 12.82-1.14 19.18-.62-4.48-1.25-9-1.92-13.42q1.66-2.82 3.07-5.77zm26.1 257.84c-2.7.4-4.2 2-6.2 3.7-3.7 3-5 .8-6.4-3.1a42 42 0 0 1-1.7-7 180.9 180.9 0 0 1-2.7-31.2c-.1-22.8 5.8-43.6 14.2-64.6 2-5 3.92-10.1 5.72-15.22 5.35 23.65 8.75 47.55 8 71.57-1.16 2.75-2.25 5.53-3.27 8.35a125.28 125.28 0 0 0-7.3 32.6c-.14 1.64-.22 3.27-.28 4.9zm6.7-11.8a183.56 183.56 0 0 1-6.32 22.17c.06-2 .13-4 .22-6.07a122.79 122.79 0 0 1 5.1-31.8c1.43-4.75 3.1-9.42 5-14a186.36 186.36 0 0 1-4 29.7zm288.1-310.4c-3.14 6.3-6.65 12.3-10.37 18.3.23-.69.45-1.35.67-2 3.3-9.2 6.4-18.4 9.9-27.6a264.09 264.09 0 0 1 17.5-37.61c-4.52 16.77-9.88 33.28-17.7 48.91zm-35.3-60c-6.9 6.5-14.4 13-22.9 17.3a66.28 66.28 0 0 1-10.5 3.9l-.4.13c6.94-10.91 14.08-21.7 21.6-32.23 7.1-10 13.1-20.9 20.9-30.3 7.1-8.5 14.4-17.1 22.6-24.5a138.35 138.35 0 0 1 28.7-19.8c8.56-4.55 18.07-10.12 27.69-12.76-1.85 2.48-5.41 6.11-6.39 7.16-3.4 3.7-6.9 7.3-10.3 10.9-11.7 12.2-22.3 25.7-33.4 38.6-12.2 14.1-24.1 28.7-37.6 41.6zm17.5 80.8c1.3-4 2.7-8 4.3-11.9 4.3-10.8 9.7-21.1 13.6-32.1 7.9-22.1 13.5-44.8 19.9-67.3a229.78 229.78 0 0 1 12.9-34.1c1.6-3.4 3.1-7 4.9-10.3.6-1.1 1.6-3.8 2.8-4.3 2.2-.9.7 2.5.4 3.8-2.5 11.2-6.8 21.9-9.9 32.9-3.2 11.8-5.9 23.7-8.8 35.6q-1.13 4.64-2.31 9.26a229.11 229.11 0 0 0-19.69 39c-3.4 8.3-6.5 16.6-9.5 25-1.5 4.2-2.8 8.4-4.4 12.5-1.28 3.34-2.94 8.65-6 11.37-.48-3.02.97-6.85 1.8-9.43z"/></svg>