<svg id="Layer_1" data-name="Layer 1" xmlns="http://www.w3.org/2000/svg" viewBox="0 0 1440 712"><defs><style>.cls-1{fill:#ff0626}</style></defs><title>Artboard 1</title><path class="cls-1" d="M808.87 304.12c1.8-2.26 3.95-4.08 4.83-6.92a1.4 1.4 0 0 0 0-1.11.9.9 0 0 0-.28-.69c-7.2-7.4-13.8 6.9-15.1 12a49.75 49.75 0 0 0-1.1 19.2c.56 4.84 1 10.24 2.79 14.91a8.74 8.74 0 0 0 1.39 3.49c1.07 1.36 3.25.17 2.47-1.27l.23-.13a7.52 7.52 0 0 1-1-2.44 10.34 10.34 0 0 0 2.35 3.34c1.7 1.6 4.3-1 2.6-2.6-5-4.6-2-15.6-1.6-21.6.29-4.85.45-11.11 2.42-16.18zm-6 16.18c-.13 1.84-.42 3.95-.7 6.16a50.21 50.21 0 0 1 .8-8.66c0-.17.08-.35.12-.52-.09 1.04-.09 2.05-.19 3.02zm-.1-12.4a38.81 38.81 0 0 0-3.6 12.9q-.09 1-.16 2a43.71 43.71 0 0 1 .06-8.18 44.28 44.28 0 0 1 2-9.6c.92-2.85 4.87-11.49 9.38-9a16.54 16.54 0 0 0-4.56 6.49 37.3 37.3 0 0 0-3.09 5.39zM825.3 311.7c.3 1 1.5 0 1-.7-1.7-2.4-3.5-2.1-5.1.4-2.9 4.6-2.7 11.4-2.4 16.5.7 14.6 3.3 29.8 9.5 43.1.7 1.4 2.6.6 2.7-.7v-.74c.06.08.11.17.17.24 1 1.2 3.1.2 3.1-1.3 0-4.7-1.6-9.1-2.6-13.6-.5-2.19-1-4.4-1.36-6.62-.32-3-.65-6-.94-9-.12-1.44-.22-2.89-.29-4.35a41.68 41.68 0 0 1 3-15.55c1.8-4.5 4.1-10.6 7.8-13.9 1.7-1.6-.8-4.1-2.6-2.6a26.74 26.74 0 0 0-5.61 8.41 1.64 1.64 0 0 0-2.39.49c-3 6-4 12.5-4.05 19.11-.32 3.05-.48 6.14-.55 9.19a109.42 109.42 0 0 0 1 15.1c.05.37.13.75.2 1.12a120.69 120.69 0 0 1-3.2-15.22 123.48 123.48 0 0 1-1.7-16.2 33.93 33.93 0 0 1 .8-9c.22-.88 1.62-6.58 3.52-4.18zM841.84 267.18l-.4.29a2 2 0 0 0-.74 2 10 10 0 0 0-.7 4.53c0 1 2 1.1 1.9-.2a8.29 8.29 0 0 1 .29-2.8 1.86 1.86 0 0 0 .61-.1c7.9-2.7 15.5-6.6 23.6-9 3.21-.92 6.47-1.6 9.65-2.51a33.21 33.21 0 0 1 14.45 3.41c2.4 1.2 4.4-2.4 2.1-3.5a35.67 35.67 0 0 0-8.8-3q.55-.3 1.1-.64a1.66 1.66 0 0 0-.4-3c-4.9-1.9-10.2-.7-15.2-.1a39 39 0 0 0-15.3 5.1c-4.07 2.42-9.38 5.34-12.16 9.52zm14.86-8.28a38.78 38.78 0 0 1 14.2-3.7 42.76 42.76 0 0 1 8.09-.52c-.82.32-1.65.6-2.5.86a55 55 0 0 0-22.69 4.78c1.02-.51 2.01-.99 2.9-1.42zM864.7 291.3a2 2 0 0 0 1.15 1.81c-4.58 3.07-12.17 8.81-8 13.19.8 1 2.4-.5 1.4-1.5-2.8-3 6.83-9.16 10.47-11.27 5.37 0 10.5-2.11 15.83-2.93 4.9-.8 11.1-.8 14.4-5.2a1.71 1.71 0 0 0-1-2.5 9.76 9.76 0 0 0-1.79-.4 61.35 61.35 0 0 1 13.45.58c.89 1.94 4.44 1.35 4.34-1.07v-1a2.37 2.37 0 0 0-1.7-2.3c-9.9-2.1-21.9-.8-31.9 1-5.45.99-16.65 4.39-16.65 11.59zm23.54-4.65a30.47 30.47 0 0 1 5.37-1 24.37 24.37 0 0 1-5.37 1zm2.29-3.66c-2.78.6-5.51 1.53-7.73 2.21a60 60 0 0 0-11.33 4.5 17.65 17.65 0 0 1-2.14 0c1.66-2.23 6.15-4 7.77-4.55a52.82 52.82 0 0 1 11.1-2zM957 299.55A56.11 56.11 0 0 0 947 286c-3.38-3.54-6.71-7.06-10.74-9.72A58.7 58.7 0 0 0 922.7 265c-1.6-.6-3.1 2-1.4 3a48.91 48.91 0 0 1 8.67 7 2.4 2.4 0 0 0-.27.51c-.7 2.4 1 4.3 2.6 5.8a97.8 97.8 0 0 1 8.3 8.7c6.19 7.64 12.66 16.39 20.4 22.57l.1.13.66.53c2.1 1.6 3.9-1.6 2.6-3.4-2.53-3.39-4.86-6.91-7.36-10.29zM920.2 308c-2.32-.92-4.66-2.07-7-3a8.77 8.77 0 0 0-5.84-1.73 12 12 0 0 0-9.44 2.35 17.34 17.34 0 0 0-4.75 5.54l-1 .36a2.75 2.75 0 0 0-1.08 4.38 60 60 0 0 0-2.12 8 2 2 0 0 0 3.6 1.5c1.3-2 1.7-4.2 2.4-6.4a23.55 23.55 0 0 1 1.21-2.87c6.33-.81 14.35-2 17.89 3.67 1.7 2.7 5.9.3 4.4-2.5a14.62 14.62 0 0 0-.38-4.6c.49 0 1 .08 1.48.1 2.93.1 2.93-3.9.63-4.8zm-17-.15l.16-.11a8.13 8.13 0 0 1 .88-.15zm9.9 4.34l2.5.27a14.17 14.17 0 0 1 .46 1.8 11.81 11.81 0 0 0-2.94-2.07zM886 358.6c4.2-.7 9.2-1.4 11.9-5.1.9-1.2-.1-2.8-1.3-3.2a26.33 26.33 0 0 0-9.83-.8 2.21 2.21 0 0 0-.67-.3c-5.8-1.5-16.6-4.2-19.8 3-.49 1.18-.2 2.94 1.24 3.28-1.82.52-1.67 3.52.46 3.52 6.2.1 11.8.6 18-.4zm3.93-4.83a23.86 23.86 0 0 1-2.39.54 1.25 1.25 0 0 0-.62-.41c1.01-.08 2.01-.13 3.01-.13zm-9.83.83l1.5-.14-2.1.54a22.81 22.81 0 0 1-2.42.43H874c2-.3 4.1-.68 6.1-.83zM901.58 387.46a2.08 2.08 0 0 0-2.48-2.76 35.88 35.88 0 0 1-12.2 2.5 1.75 1.75 0 0 0-1.79 1.3c-3.3-.44-6.55-1-9.51-2.7-1.3-1-2.5 1.1-1.2 2a16.81 16.81 0 0 0 5 2.21 12.65 12.65 0 0 0-5.1 1.49c-1.2.7-1.1 2.9.4 3.2 6.23 1.29 14.2.21 21-1.65 1.53 0 3.07.05 4.6.05a1.52 1.52 0 0 0 1.43-2 1.88 1.88 0 0 0-.15-3.64zM946.6 370.2a14.6 14.6 0 0 0-6.2 1.2 2.58 2.58 0 0 0-.9 4l-1.31.7c-4.74-.6-10.47 1.05-12.89 5a1.85 1.85 0 0 0 .7 2.6c3.18 2 6.89.16 9.82-1.55-3.43 3.46-10.32 6.71-12.72 5.25-2.1-1.1-3.9 2-1.9 3.2 4.9 3 9.2-.6 13.6-3.1 3.25-1.82 7-4.37 6.93-8.53a20.17 20.17 0 0 0 6.47-5c1.1-1.47.5-3.67-1.6-3.77zM917.6 356.9c-.8 2.1-1.6 4-1.5 6.3a2.7 2.7 0 0 0 0 .36c-.08.48-.16 1-.25 1.44s-.28 1.51-.51 2.65a43.76 43.76 0 0 0-3.19 6.25c-.6 1.4 1.1 2.7 2.4 2.4 2.13-.48 3.22-2.52 4-4.6a1.86 1.86 0 0 0 3-1.5c-.18-3 1.35-5.52 2.54-8.13l.36-.47-.13-.06c.08-.18.16-.36.23-.54.76-1.85-1.38-2.7-2.79-2 .09-.29.18-.57.29-.86 1.05-2.84-3.35-4.04-4.45-1.24zM957.8 343.8a3 3 0 0 0-4.4-1.8c-.15.1-.27.22-.41.33a6 6 0 0 0-1.69-2.13 3.75 3.75 0 0 0-.76-.47 12.51 12.51 0 0 0 .06-5.73c-.6-2.5-3.7-2.4-5-.7a31.29 31.29 0 0 0-3.35 5.94 39.34 39.34 0 0 0-2.25 5.16h.05l-.15.37c-.62 1.58.64 2.91 2.07 3.28l-.14.44c-.14.26-.28.52-.43.78l.17.07-.07.23a2.46 2.46 0 0 0 3.57 2.7 8.4 8.4 0 0 0 .23 3.8c.4 1.3 2.3 2.1 3.3.9a6.79 6.79 0 0 0 .84-1.18 2.62 2.62 0 0 0 2.66-.72c.67-.79 1.32-1.61 1.91-2.46a2.56 2.56 0 0 0 2.39-.84c.6-.7 1.2-1.4 1.9-2.1a2.84 2.84 0 0 0-.26-4.2 12.65 12.65 0 0 0-.24-1.67zM971.6 283.78a47.22 47.22 0 0 0-3.7-7.68c-1.8-3-6.2-.4-4.7 2.7.59 1.22 1.2 2.42 1.82 3.62a51.47 51.47 0 0 1 3.72 12.12c-1.68.15-3.18 1.52-2.44 3.57a99.5 99.5 0 0 1 3.7 10.53c.08 5.11-.12 10.26-.29 15.36-.1 3.5 4.5 3.5 5.7.8 2.31-5.54 1.77-11.63.25-17.5v-.74c1.8 7.17 3.51 16.51-.92 22.74-1.1 1.7 1.4 3.6 2.7 2.2 5.7-6.3 4.8-15.2 3.5-23-1.63-9.11-5.42-16.79-9.34-24.72zM819.4 257.1a1.9 1.9 0 0 0-1.16 2.15A32.47 32.47 0 0 0 807 269a45.62 45.62 0 0 0-3.82 3.71c-1.07 1.16-.94 3.43.53 4.12a16.83 16.83 0 0 0-.23 2.28 2.48 2.48 0 0 0 3.1 2.4h.09a68.13 68.13 0 0 0-5.89 9 2 2 0 0 0 1.2 2.9c4.3 1.6 9.3-7.1 11.2-9.7 2.06-2.82 4.1-5.67 6.05-8.56a47.74 47.74 0 0 0 6.55-6.64 2.37 2.37 0 0 0 .57-1.58 19.84 19.84 0 0 0 4.8-5.32c1.9-.71 3.82-1.39 5.74-2.06a2.47 2.47 0 0 0 2.55-.88c2.36-.81 4.72-1.62 7-2.46 3.1-1.1 1.8-6-1.4-5l-3.5 1.16-.08-.1a22 22 0 0 0 5.08-3.86 1.73 1.73 0 0 0-2.1-2.7l-.44.29v-.06l-.25.22c-1.6.9-4.38 2.47-7.62 4.44a2 2 0 0 0-1.52-.16 32.88 32.88 0 0 0-7.32 3.41 59.31 59.31 0 0 0-7.15 2.94h-.23v.05zM862.9 246.9c2.9-2 6.4-2.2 9.8-2.8 1.3-.22 2.59-.43 3.87-.61 2.05-.07 4.12-.32 6.13-.52h2.2v-.2a2.06 2.06 0 0 0 1.34-.52c1.58.26 2.8.55 2.76.82-.3 3.2 4.9 3.3 5.1 0 .6-8.7-21.3-7.3-26.1-5.2a2.21 2.21 0 0 0-.64 3.33 17 17 0 0 0-6.36 3.1c-1.4 1.2.4 3.6 1.9 2.6zM260.2 423.4a166.75 166.75 0 0 1-2 16.93 62 62 0 0 1-10.31 19.23c.23-.38.46-.76.69-1.15a69.34 69.34 0 0 0 7.6-19c1.5-6.4 3.3-13.8 3.2-20.4a2.35 2.35 0 0 0-1.6-2.1c-.3-.1-.7-.3-1-.4-2.36-.91-3.47 2.45-1.73 3.76-.15 6-1.78 13-3.17 18.74a66.16 66.16 0 0 1-7.8 18.6c-6.13 10.22-14.26 19-23.31 26.64l-.63.53c-.49.41-1 .83-1.45 1.23l.05.05h-.05c-1.9 1.9.9 4.5 2.9 2.9q2.74-2.17 5.35-4.5c4.34-3.14 9-5.89 12.85-9.8a114.68 114.68 0 0 0 14.1-17c.19-.29.37-.59.56-.89-.55 1.89-1.13 3.79-1.76 5.69-2 6-4.2 11.9-7.6 17.3-3.5 5.6-8.5 9.8-13.2 14.5-.9.8.5 2.3 1.5 1.4 4.4-4.3 9.2-8.4 12.7-13.5a72.08 72.08 0 0 0 8-16.8c2-5.95 4-12.07 5.45-18.2a58.46 58.46 0 0 0 3.15-9.4c1.2-4.8 2.7-10.6.5-15.2-.69-1.56-2.89-.56-2.99.84zM223 451.2c1-1.3-.7-3.1-1.8-1.9a3.39 3.39 0 0 1-1.26.95c.12-1.38.42-2.74.56-4s.7-3.1 0-4.3a1.36 1.36 0 0 0-2.3 0c-1.11 1.92-1.85 4.1-2.86 6.11.32-2.86 1.29-5.69 1.16-8.61a1.75 1.75 0 0 0-2.9-1.2c-1.36 1.36-1.58 3-1.71 4.77a1.84 1.84 0 0 0-.89 1 9.83 9.83 0 0 0-.56 4.08c-.08.3-.17.59-.27.88a1.71 1.71 0 0 0-.47 1.13v.15l-.1.25h.09a2 2 0 0 1-.09.49c-.16 1.74 1.73 2.16 2.89 1.38 0 .17.07.35.11.52a1.51 1.51 0 0 0 2.5.7 14.16 14.16 0 0 0 2.24-3.34 11 11 0 0 0 0 1.64 1.32 1.32 0 0 0 1.3 1.3 5.71 5.71 0 0 0 4.36-2zM193.9 470.2a20.17 20.17 0 0 0 4.1-2.2c1.6-1 .2-3.5-1.4-2.5a15.9 15.9 0 0 1-4.1 2.1c-1.2.2-2.3-.4-3.5-.1a2.66 2.66 0 0 0-2.46 2.49 1.76 1.76 0 0 0-.14 1.11 21.5 21.5 0 0 0 1.33 4c.1.36.22.73.37 1.12h.09a1.82 1.82 0 0 0 .09.17c1.79 4.41 4.35 9.36 7.61 12.53a1.56 1.56 0 0 0 2.6-1.5c-1.38-4.9-3.13-10.61-6.71-14.47a1.73 1.73 0 0 0-.39-1.43 14.27 14.27 0 0 0-1-1.06c.76-.31 2.61.02 3.51-.26zM195.5 401.7a2 2 0 0 0 0-.29 44.57 44.57 0 0 1 11.7-5.41c2.7-.9 1.6-5.1-1.2-4.3a53.87 53.87 0 0 0-13.79 6 1.61 1.61 0 0 0-2.49-1.08l-.14.15-.06.05c-6.4 6.4-13.2 12.6-18.1 20.4-3 4.7-6.2 11-1.3 15.5 1.7 1 3.8-1 2.4-2.3-3.8-3.51-.17-9.64 3.27-14.13a1.85 1.85 0 0 0 1.83 0 43.79 43.79 0 0 0 6.58-5.08 2 2 0 0 0 .92-.22c3.38-1.99 9.58-5.09 10.38-9.29zM212.3 403.8c6.37-2 13.42-4.58 18.22-9.42l1-.49c7.87.43 15.73.12 23.6.12 3.4 0 3.4-5.3 0-5.3-4.58.05-9.17.18-13.75.2a2.62 2.62 0 0 0-3.15-3.2 39.59 39.59 0 0 0-5.15 1.94c-2.16.07-4.45-.1-6.15 1.66a2.55 2.55 0 0 0-.73 1.79l-1.57.81c-4.8 2.4-9.6 4.6-14.1 7.7a2.35 2.35 0 0 0-.85 1.1c-2.85 1.81-5.69 3.67-8.55 5.5-2.2 1.3-.2 4.8 2 3.4 3.06-1.92 6.09-3.89 9.16-5.79zM272.4 412.4a2.08 2.08 0 0 0 1.38.47c.86 1.7 1.75 3.38 2.72 5a2.21 2.21 0 0 0 4.1-1.1 27.88 27.88 0 0 0-.48-5 2.16 2.16 0 0 0 .38-2.69c-1-1.83-2.07-3.66-3.05-5.55q-.4-.86-.84-1.69c-.17-.35-.35-.7-.51-1.06a2.07 2.07 0 0 0-3.37-.36l-.58-1.27-.12.07a1.91 1.91 0 0 0-3.4.14l-.48-.71c-2.7-3.6-5.9-6.9-8.7-10.4-.9-.9-2.4.3-1.7 1.3 3.1 4.5 6.8 8.6 9.5 13.3 1.65 3.05 2.45 7.35 5.15 9.55zM289.5 415.5v.61c-.76 6.16-.28 12.33-.2 18.49v.09a2 2 0 0 0 1.66 1.94c0 .89 0 1.77-.07 2.66a2.56 2.56 0 0 0 1.61 2.44c.24 3.15 5 3.14 5 0v-.1c-.07-5.45 0-10.85.06-16.27q.08-3.35 0-6.72a2.49 2.49 0 0 0-2.49-2.53q-.27-1.84-.61-3.67a1.86 1.86 0 0 0-1.09-1.4c0-5.28 0-10.48-1.31-15.6-.6-2.2-4.2-1.2-3.6 1.2 1.54 6.16 1.04 12.56 1.04 18.86zM312.5 418.3c-2.6 2.4-2.1 6.1-1.8 9.4.48 6.34-.33 13-1.29 19.33a2.24 2.24 0 0 0-1.41 1.77c-1.19 5.88-2.32 11.87-3.89 17.71a72.68 72.68 0 0 1-7.25 16.72 2.63 2.63 0 0 0-3.16 1.77c-2.5 7.4-7.7 13.2-11.4 20-1.3 2.4 1.4 5.4 3.9 3.9 3.5-2.2 5.3-6.6 7.7-9.8a119.32 119.32 0 0 0 8.84-13.42c5.85-7.45 7.81-18.9 9.36-27.48a181.81 181.81 0 0 0 2.6-20.8 61.4 61.4 0 0 0 .2-8.6c-.1-2.1-1.2-5.9.5-7.6 1.5-1.9-1.1-4.5-2.9-2.9zM283.5 494.6a1.43 1.43 0 0 0-.81-2.23c.85-6 3.2-11.76 2.11-18-.2-1.39-2-1.5-2.87-.82 1-2.21 2.1-4.43 3.13-6.67l.14-.21v-.08a2.38 2.38 0 0 0-4.1-2.4c-3.8 5.1-5.3 11.1-8.1 16.6-1.9 3.8-5.1 8.1-3.9 12.5a2.67 2.67 0 0 0 2.6 2c.7 0 1.4-.1 2.1-.1a2.71 2.71 0 0 0 1.39-4.92c2.38-3.59 4.08-7.73 6.68-11.18-.15 5.64-2.59 11.24-2.67 16.9 0 1.5 2.4 2.4 3 .8a6.11 6.11 0 0 1 1.3-2.19zM596.7 174.7c-1.68 1.39-3.76 2.09-5.35 3.56v-.42c0-.14.09-.56.13-.84h-.07c0-.3 0-.6.07-.89.3-3.2-5.1-3.9-5.6-.8-.28 1.54-.5 3.09-.71 4.64a3.29 3.29 0 0 0-1.39 1.56 32.17 32.17 0 0 0-1.79 6 43.09 43.09 0 0 0-2.2 6.41 2.16 2.16 0 0 0-2.5 1.79 79.39 79.39 0 0 1-5.3 16.5c-2.4 5-5.5 9.7-8.3 14.5a2.4 2.4 0 0 0-.32 1.09q-1.35 2.18-2.66 4.39c-4.24 2.78-8.34 5.84-12.34 9-3.1 1.52-6.14 3.35-9.18 5-3.5 1.9-8.3 6-12.4 5.9-3.8-.1-3.8 5.8 0 5.9 4.1.1 7.3-2.3 10.8-4.2l4-2.26a2.31 2.31 0 0 0 1.8-.54l1.72-1.41 2.4-1.32a35.63 35.63 0 0 0 6.05-2.63 65.72 65.72 0 0 1 8.44-1.83 6.78 6.78 0 0 0 4.8-2.4 42.19 42.19 0 0 0 6.84-10.91 8.82 8.82 0 0 0 1.86-2.69v-.1c3.2-5.49 6.48-10.93 7.81-17a31.71 31.71 0 0 0 2.09-3.7 2.25 2.25 0 0 0 0-1.88c.91-1.6 1.83-3.18 2.79-4.72a5.8 5.8 0 0 0 1.15-4.18 37 37 0 0 0 1.66-9.88c.13-.15.25-.3.39-.45 1.5-1.6 2.6-3.4 4.4-4.6a44 44 0 0 0 4.5-3c2.61-2.09-1.09-5.69-3.59-3.59zM878.9 590.2c-2.4-.6-6.48-2.29-9.24-1.32-4.17-6.11-9.25-12.06-16.46-13.58a17.07 17.07 0 0 0-4.59-.35c2.82-1 6.88-.59 9.49-.75 2.15-.19 3.86-2.82 2.44-4.64 1-1.31 1-3.31-.74-4.16-5-2.47-10.51-3.46-16-4.41l-.3-.09a2.82 2.82 0 0 0-1-.12 75 75 0 0 1-11.69-2.69 1.8 1.8 0 0 0-.23-.29c-3.6-2.9-7.1-5.7-11.6-6.9-2.7-.8-4.8 2.8-2.8 4.7a27.83 27.83 0 0 0 2.42 2.12l-1.82-.32a14.36 14.36 0 0 0-8.9.8 17.44 17.44 0 0 0-2 1 2.17 2.17 0 0 0-3.24.51c-.59 1.21-1.15 2.43-1.69 3.66a23.56 23.56 0 0 0-5.21 14.57q-.78 2.63-1.51 5.27c-1.6 6.1-3.1 12.8 0 18.7a2 2 0 0 0 3.5-2.1 11.62 11.62 0 0 1-1.19-3.82 2.55 2.55 0 0 0 2.39-.58c4.3-4 3.8-11.1 5.1-16.3 1-4.37 2.62-9.12 2.87-13.77a11.49 11.49 0 0 1 9.83-2.43c2.94.53 8.9 2.19 12.25.49 1.5.56 3 1.06 4.55 1.51a63.32 63.32 0 0 0 8 1.62 42.7 42.7 0 0 0 5.76 2.92c-3.09.8-5.78 2.33-7.14 5.46a6.2 6.2 0 0 0-.42 1.95 14.91 14.91 0 0 0-7.28 4c-2.8 3-2.9 8.3 1.6 9.9 4.2 1.4 10-1.7 11.3-5.8a4.78 4.78 0 0 0 .14-.52 2.36 2.36 0 0 0 .86-1 6.92 6.92 0 0 0 .73-2.32 5.2 5.2 0 0 1 1.67-.28 10.91 10.91 0 0 1 4.7.6 17.19 17.19 0 0 1 6.4 4.6c3.3 3.5 5.8 7.6 8.5 11.5 2.1 3.1 6.8.4 5-2.9 0-.13 0-.25-.06-.38 1.46.18 2.95.61 4.26.88 3.25.66 4.55-4.14 1.35-4.94zm-40.7-5.7c-2.1 1.5-.9-.2.3-.9.25-.14.52-.28.8-.41a3.45 3.45 0 0 1-1.1 1.31zM816.1 543.5c3.5.1 3.4-5.1 0-5.4a90 90 0 0 1-19.8-4.4c-4.6-1.5-8.9-3.8-13.9-3.8a2.89 2.89 0 0 0-2.6 2 17.86 17.86 0 0 0-.62 2.61q-.33-.72-.61-1.47a17.75 17.75 0 0 0-2.17-7.14c-1.5-2.5-5.7-.9-4.8 2 .59 2 1.13 4.14 1.84 6.23a2.59 2.59 0 0 0-3.17 1c-.12-.16-.23-.31-.36-.48a2.19 2.19 0 0 0-2.23-.69l-.42-.73c0-.1 0-.2-.05-.28h-.09c-.11-.18-.2-.36-.31-.54a2.76 2.76 0 0 0-.2-.27 52.66 52.66 0 0 0-2.6-6.33 22 22 0 0 1-2.5-5.4c-.2-.7-.7-3.6.1-3.9s.6.2 1.3.5c2.1.7 3.9 4.6 5.6 6.1 1.5 1.2 3.9.5 3.9-1.6s-.9-4.9 3-3.9c1.6.4 3.3 2.2 4.5 3.3 2.1 1.9 4.1 3.9 6.2 5.8 4.8 4.2 10.4 8 17 7.4 2.1-.3 2.1-3.3.1-3.1-10.4.6-16.3-10.2-23.8-15.5-2.3-1.6-5.2-3.1-8.1-1.9a4.83 4.83 0 0 0-2.64 2.83c-1.71-2.22-3.55-4.43-6.26-4.93-4.9-.8-6.8 5-6.2 8.9.8 5 4.1 9.8 5.8 14.6l.46 1.3c.6 3.53 1.25 8 4.44 9.6a2.87 2.87 0 0 0 1.46.3 5.21 5.21 0 0 0 .84 1.3c1.4 1.6 3.7.6 4.3-1.1.19-.5.35-1 .51-1.51a2.59 2.59 0 0 0 3.79-1.59c.09-.44.18-.9.27-1.35.21.19.41.38.63.55a2.67 2.67 0 0 0 4.4-1.2 33.32 33.32 0 0 0 1.26-5.92c4.57.68 9 3.12 13.34 4.42 6.09 1.89 11.99 3.49 18.39 3.69zM899.1 578.1a2.28 2.28 0 0 0 1.56 1.94c.48.63 1 1.29 1.43 2a39.19 39.19 0 0 0 1.71 5.2c1.2 2.8 5.6 2.7 5.6-.8V585.57a11.87 11.87 0 0 0-1.72-5q-.21-.74-.41-1.48c1.17-2.6-.19-5.88-2.28-8.26a37.08 37.08 0 0 0-1.56-4.1c-1.1-2.4-4.5-1.4-5.2.7-1.32-2.86-4.21-4.33-7.3-5.91-5.4-2.9-10.4-5.8-16.7-5.5-1.3.1-2.9 1.2-2.7 2.7 0 .22.07.44.12.67-7.43-1.13-14.08-4.58-21.52-5.57-2.4-.3-3 4.1-.4 4.5 6.3 1 11.9 4.4 18.2 5.5 1.75.29 4.1.48 6.41.91 2.74 3.69 7 6.84 10.59 5.49a2.7 2.7 0 0 0 1.6-3.9 9.33 9.33 0 0 0-1.22-1.72l1.72.92c.28.15.64.31 1 .49a2.66 2.66 0 0 0 .06.71 7.63 7.63 0 0 0 6.76 6.14 39.79 39.79 0 0 1 4.2 5.07c.02.07.04.07.05.17z"/><path class="cls-1" d="M866.1 613.8c-4.1-1-8.4-1.9-12.4-3.2-3.5-1.2-6.7-2.7-10.4-2.9-3-.1-3.2 4.1-.7 5 2.34.86 8.57 2 11.1 4.5-3.76-.19-7.37-1.24-11.1-2a2.44 2.44 0 0 0-1.9 4.4 31.33 31.33 0 0 0 4.17 2.44c-3.15-.59-6.29-1.25-9.37-2a2.26 2.26 0 0 0-2.86 2c-1-.46-1.92-.92-2.86-1.4-1.25-.71-2.51-1.41-3.78-2.08a2.54 2.54 0 0 0-3.36.89c-.61-.25-1.22-.49-1.82-.77l-.44-.39-.15-.08c-2.94-2.42-9.43-6-10.77-9.72 3.54.57 6.62 2.34 10 3.79 1.4.6 3.7 0 3.5-2-.44-4.45-4.53-6.24-7.36-9.08 3.13-.89 10.88 2 12.86 2.48 2.1.3 2.8-2.5 1-3-4.2-1.2-14.5-5.9-18-1.4a2.1 2.1 0 0 0-.3 2.5 11.89 11.89 0 0 0 2.58 2.7 20.74 20.74 0 0 0-6.78-1.2 2.69 2.69 0 0 0-2.4 1.8c-1 4.75 1.77 8.19 5.25 11.15a2.15 2.15 0 0 0 .85 2h.06l-.06.06a46.32 46.32 0 0 0 4.43 3l.78.45.64.34a47.06 47.06 0 0 0 13.94 4.77c6.67 3.81 13.32 7.64 21 8.9 2.3.4 4.4-2.3 2.4-4.2a33.25 33.25 0 0 0-5.22-4l1.72.33c3 .6 6.3 1.7 9.2.1a2.48 2.48 0 0 0 0-4.2c-1-.61-2-1.14-3.09-1.65.23 0 .46 0 .69-.05a2.61 2.61 0 0 0 2.5-2.5 7.26 7.26 0 0 0-.12-2c1.72.33 3.44.6 5.22.84 2.95.38 4.35-3.92 1.35-4.62zM927.7 581.1c-1.3-2.7-1.1-4.3.8-6.6a9.32 9.32 0 0 0 2.2-3c2.6-7.2-10.5-11.9-14.6-15.2-1.6-1.7-4.2.8-2.4 2.3 2.8 2.4 5.9 4.1 8.9 6.2 1.7 1.2 5.4 3.1 3.9 6-.5 1-2 1.5-2.7 2.5-2.9 3.9-.6 8.8 1.5 12.5 1.7 3.1 3.3 5.9 1.5 9.4a13.09 13.09 0 0 1-4 4.44l1.29-2c1.7-2.7-2.4-5-4.2-2.5-2.38 3.32-4.91 7.78-8 11.37a126.11 126.11 0 0 1-13.16 6.43c-2.6 1.1-1 4.7 1.3 4.9 6.13.36 10.86-2.69 14.74-6.89a91.56 91.56 0 0 0 9.56-6.11c5-3.7 9.6-9 7.6-15.7-.93-2.94-2.93-5.34-4.23-8.04zM855 529.9c1.36.28 2.73.54 4.11.8 3.6.6 5.1-4.8 1.5-5.5-2.56-.49-5.12-1-7.66-1.59a14.22 14.22 0 0 0-7.14-1.91 2.51 2.51 0 0 0-2.56 1.8c-1.92-.28-3.83-.6-5.73-1a17.89 17.89 0 0 0-7.81-1.74 2.52 2.52 0 0 0-.7 4.9 69.63 69.63 0 0 0 9.77 2.49l1.43.61 2.57 1.09c-1.92-.6-3.57-1.15-4.17-1.29-7.5-2-15.1-4-22.8-4.7a1.54 1.54 0 0 0-1.3 2.4 27.82 27.82 0 0 0 2.1 2.7c.74.92 2.58-.28 2.15-1.5a185.05 185.05 0 0 1 22.25 6c3.3 1.1 10.8 4.3 13.6.7a2.23 2.23 0 0 0-.4-3.4l-.77-.5a2.12 2.12 0 0 0 1.56-.36zM935.5 526.4a5.5 5.5 0 0 0-3.9 1c-3.9 2.1-7.7 4.2-12.1 5.2-1.5.2-1.2 2.6.2 2.4a39.4 39.4 0 0 0 9.9-2.7c1-.4 2-1 3-1.5 2.2-1.1 1.8-.3 2.9 1.7 1.5 2.8 5.9-.2 3.6-2.7-1.2-1.3-1.7-3-3.6-3.4zM864.1 329c-3.4-.7-4.7-4.2-8.7-2.1a8.9 8.9 0 0 0-3.18 3c-.1-.53-.2-1.06-.32-1.59a2.48 2.48 0 0 0-3.7-1.5 9 9 0 0 0-1.38 1.29 3 3 0 0 0-1-1v-.63a2.63 2.63 0 0 0-3.25-2.34c-.43-1.51-2.44-2.24-3.15-.66-2.5 5.4-7.2 12.2-3.6 18.1a1.86 1.86 0 0 0 1.5.9 4.21 4.21 0 0 0 2.7-1.25v.05c.3 2 2.6 3.4 4.3 1.8 1.92-1.92 2.58-4.9 3.55-7.55l.15 1.85c.2 1.9 2.9 3.8 4.4 1.8 1.2-1.5 2.9-6.1 4.5-6.9 1.9-1 4.5 1.5 6.5 1.7 2.78.23 3.48-4.37.68-4.97zM795.4 161.3a13.8 13.8 0 0 0 2.08-2.58 4 4 0 0 0 1.3-.93 2.29 2.29 0 0 0 2.22-2 7 7 0 0 1 .7-1.74 3 3 0 0 0 .7-.86c.28-.49.53-1 .8-1.48a18.6 18.6 0 0 0 1.6-2.62c.89-1.94 1.65-3.94 2.43-6l.37-.84.23-.59a3 3 0 0 0 .12-.42 1.46 1.46 0 0 0-.15-1.52 2.45 2.45 0 0 0-1.44-1.14 10.73 10.73 0 0 0 .47-3.31 2.65 2.65 0 0 0-5.12-.9 2.49 2.49 0 0 0-1.08 1.3c-.44 1.25-.86 2.51-1.28 3.77-6 4.14-7.53 13.47-7.72 20.23a2.25 2.25 0 0 0 3.77 1.63zM766.5 186.5c2 1.86 4.49-.8 3.07-2.88l-.1-.1c-.22-.28-.45-.55-.68-.81a3.48 3.48 0 0 0 3.38-2.38 2.56 2.56 0 0 0-1.2-2.9c-4.83-2.26-9.78-4.27-14.54-6.58L751 165.7c-3.3-3-8.1-8.2-13.1-6.8a2.33 2.33 0 0 0-1.35 1 2.85 2.85 0 0 0-3.23 0 8.77 8.77 0 0 0-1.11.1c-1 .1-1.4 1.6-1 2.3 2.2 3.6 5.5 6.1 8.5 9a1.64 1.64 0 0 0 2.69-.78h.06a72.78 72.78 0 0 0 8.46 5.65c3.1 1.77 6.87 3.2 10.11 5.18q2.72 2.59 5.47 5.15zm1.5-8.7a.47.47 0 0 0-.18-.13c1.07-2.3.97 1.18.18.13zM734.7 130.5a40.62 40.62 0 0 0 3.91-4.33 2.59 2.59 0 0 0 4.59 2.33c.5-.75 2-3.47 3.28-5.34v4.74c0 3.4 5.2 3.4 5.2 0 0-3 .1-6-.1-9.1a2.58 2.58 0 0 0-1.9-2.5 4.79 4.79 0 0 0-2.28-.12c.1-1.52-1.21-3.29-2.74-3.13l.32-.56a2.43 2.43 0 0 0-2.7-3.5 9.46 9.46 0 0 0-4.71 3.07c1.08-1.94 2.21-3.86 3.45-5.74l.86-1.13c1.2-1.5-.9-3.7-2.1-2.1l-.28.37-.12-.07c-4.25 6.29-12.17 13.35-12.86 21.34-1.92 2.91-4 6.46-3.24 9.16a2.12 2.12 0 0 0 3.8.5c1.21-1.63 2.4-3.26 3.57-4.89a2.38 2.38 0 0 0 4.05 1zM780 117.1c2.9-1.5 4.1-6 5.1-8.8.42-1.25.86-2.53 1.26-3.83a12.83 12.83 0 0 0 3.43-.07c2.7-.4 2.1-5-.6-4.8a5.09 5.09 0 0 1-1.26.1c-.05-.82-.06-1.65-.05-2.49a16.68 16.68 0 0 0 0-2.11 2.2 2.2 0 0 0-4.4 0c-.12 1.42-.24 2.77-.26 4.14-.07.4-.16.8-.25 1.2a1.92 1.92 0 0 0-2.68 1.06 98.28 98.28 0 0 0-3.4 13.2 2.16 2.16 0 0 0 3.11 2.4zM806.8 100.3l.2-.4c.68-1.39 1.37-2.79 2.08-4.19a68.65 68.65 0 0 0 6.22-10.14 33.28 33.28 0 0 1 3.29-3.65 1.46 1.46 0 0 0-.28-2.41l.61-1.25.27-.44v-.08c1.4-2.8-2.6-5.2-4.2-2.5-3.45 6-7.63 11.65-10.39 18-.3.37-.59.76-.91 1.12a2.52 2.52 0 0 0-.51 2.61c-.18.56-.34 1.12-.49 1.69-.59 2.34 2.91 4.04 4.11 1.64z"/><path class="cls-1" d="M734.9 90.3a27.64 27.64 0 0 1 9.9-6.2c2.64-1 6.84-1.88 8.82-.4a2.87 2.87 0 0 0-1.46.54c-3.38-.61-6.7.5-8.35 4-3.2 6.9 1.1 21.6 9.9 22a2.05 2.05 0 0 0 1.6-.8 4.1 4.1 0 0 0 3.1 1.1 2.77 2.77 0 0 0 2.5-1.9 39.72 39.72 0 0 0 1.16-5.37 26.62 26.62 0 0 0 5.14 7.57c2.3 2.3 5.7-1.1 3.6-3.6a26.17 26.17 0 0 1-5.7-11.7c-.8-3.8-1.3-7.4-3-10.8-1.2-2.4-5-1.2-4.9 1.3v.86c-.23-.23-.47-.44-.7-.64.45-6.61-9-5.73-14.34-3.53-7.06 2.89-12 8.48-16.62 14.32a10 10 0 0 0-1.78-5.32 2.21 2.21 0 0 0-2.9-.8 27.39 27.39 0 0 0-9.49 11 1.33 1.33 0 0 0-.91.32c-6.7 5.6-16.3 12.2-13.9 22.2a1.89 1.89 0 0 0 1.3 1.3 16.28 16.28 0 0 0 6.76-.44c-2.1 9.09 6 17.37 13.94 22.14 2.4 1.4 4.4-2.1 2.1-3.7-7.3-5-16.1-12.3-10.1-21.7 1.1-1.6-1.1-4.1-2.8-2.8a13.32 13.32 0 0 1-8 3c-1-6.35 4.89-11.57 9.83-15.72a20.14 20.14 0 0 0-.66 3.58 1.83 1.83 0 0 0 .42 1.38c-.16 1.84.27 3.45 1.88 4.32a2.27 2.27 0 0 0 2.8-.4 16 16 0 0 1 1.3-1.3 2.14 2.14 0 0 0-.7-3.52 7.51 7.51 0 0 1 .2-1.08v-.05a64.13 64.13 0 0 0 6.58-9.53 11.74 11.74 0 0 1-2 4.68c-1.31 1.78 1.4 3.46 2.82 2.12l.08.08a15 15 0 0 0 1.27-1.94c3.57-5.05 6.86-10.3 11.31-14.57zm17.52 15.25c-3.47-1.28-5.37-7.5-5.82-10.45-.3-2.1-.6-5.3 1.1-7a4 4 0 0 1 3.48-1.1c-.08 3.78-.18 12 1.51 17.66-.08.28-.17.58-.27.89zm5.1-9c-.08-1-.2-2.06-.34-3.1a1.11 1.11 0 0 0 .32 0c.02 1.08.03 2.11.01 3.14zm-.12-6.28v1.15a1.13 1.13 0 0 1-.24.14 1.28 1.28 0 0 0-.28.17q-.17-1.11-.36-2.23a5.3 5.3 0 0 1 .87.81zM526.8 227.3a2.61 2.61 0 0 0 2.58-.16 2 2 0 0 0 2.32-.24c5.45-4.55 9.32-10.49 13.53-16.16a2 2 0 0 0 1.19-.08c.88 3.53 2.38 6.76 5.48 9.14 1.4 1.3 3.4-1.3 1.9-2.5-6-4.7-4.7-14.1-6.2-20.8a1.69 1.69 0 0 0-1.19-1.21c.47-1.49.91-3 1.39-4.39a1.31 1.31 0 0 0-1.9-1.5 14.81 14.81 0 0 0-4.5 4.45 1.94 1.94 0 0 0-2.7.45c-2 2.55-3.78 5.2-5.67 7.79a67.84 67.84 0 0 0 2.67-7.79 2.2 2.2 0 0 0-1.6-2.7 4.91 4.91 0 0 0-3.6 1v-.11-.06c.2-.32.4-.64.6-.94a86.54 86.54 0 0 1 7.6-9.6c1.3-1.5-1.1-3.9-2.5-2.3-1.11 1.21-2.18 2.42-3.22 3.65l.12-.25a2.4 2.4 0 0 0-1-3.2l.08-.2c1-2.5-3.1-3.6-4-1.1h-.09c-1.15 2.9-2.3 5.8-3.54 8.67a2 2 0 0 0-2.16.73 21.42 21.42 0 0 0-4.49 9.32 9.14 9.14 0 0 0-.41 2.63c-.05.55-.09 1.1-.1 1.65a2.4 2.4 0 0 0 2.29 2.36l.21.14a2.06 2.06 0 0 0 1.85.16 5.39 5.39 0 0 0 .55 1.14 2.37 2.37 0 0 0 3.7.5c.51-.59 1-1.19 1.45-1.8q-.35 1-.63 2c-3 1.71-5.95 3.5-8.82 5.42a2.4 2.4 0 0 0-1.2 2.2v.13l-1.42-1.23a2.24 2.24 0 0 0-3.4.4c-2.33 3.42 1.62 7.09 6.13 9.92l-.56.86a1.57 1.57 0 0 0-1.77.92 11 11 0 0 0-.45 1l-.64-.38a1.5 1.5 0 0 0-1.47-.91c-.73-.48-1.37-.91-1.83-1.19-1.8-1.1-3.7-2.6-5.8-2.8-3.4-.4-5.2 1.6-6.2 4.7-.7 2-.8 4.2-1.4 6.2-1 3.3-2.8 6.3-4 9.5-.6 1.5 1.3 2.4 2.4 1.9a19.52 19.52 0 0 0 4.6-2.8c1.05-1.24-.55-3.48-1.91-2.72a43.46 43.46 0 0 0 2.11-5.18c.5-1.7.7-6.6 2.1-7.7s4.38.67 6.86 2.28c-3.58 4.11-8.78 12.56-2.46 14.52a1.79 1.79 0 0 0 1.7-.4 44.55 44.55 0 0 0 6.21-7.71 12.45 12.45 0 0 0 1.75-2.66 23.88 23.88 0 0 0 4.73 1 1.76 1.76 0 0 0 1.7-1 7.55 7.55 0 0 0 1.11-3.76zm17.3-32.23a29.16 29.16 0 0 1-3 7.23 2.72 2.72 0 0 0-.21-1.14 30.58 30.58 0 0 1 3.21-6.09zm-10.85 17.61c1.19-1.67 2.47-3.29 3.8-4.87a1.41 1.41 0 0 0 1.25-.82c.14-.27.28-.55.42-.83a1.2 1.2 0 0 0 1.88.23 16.27 16.27 0 0 0 3.06-4.1c0 1.26 0 2.51.06 3.77-4.57 5.79-8.64 12-14 17.21a9.23 9.23 0 0 0-1-1.32c2.16-2.03 3.85-5.76 4.53-9.27zM511 233.39a39.69 39.69 0 0 1-2.92 3.39c.17-1.24 1.54-3.48 3-5.46-.09.43-.17.86-.21 1.28a1.57 1.57 0 0 0 .13.79zm8.7-6.39a1.75 1.75 0 0 1-.43.07q.75-1.22 1.52-2.42c.6 1.03.71 1.75-1.09 2.35zm2.22-12.43q2.18-1.33 4.37-2.61v.15a1.51 1.51 0 0 0 .44.87 48.61 48.61 0 0 0-2.5 4.71 9.74 9.74 0 0 1-2.31-3.12zM539.33 167.15a13.37 13.37 0 0 0-1.23 7.75 1.62 1.62 0 0 0 .87 1.18 6 6 0 0 0 2 4.92c1.4 1.1 3.6-1.1 2.1-2.4a4.19 4.19 0 0 1-1.09-3.42 39.41 39.41 0 0 0 2.69-6.34 2.15 2.15 0 0 0 1.5-.64c.79-.84 1.43-2.94 2.06-5.06 1.54.39 2.93.86 3.68 1.14.21.78.4 1.65.56 2.53a8.91 8.91 0 0 0 1.5 8.59 2.11 2.11 0 0 0 2 .84c.58 1.6 1.15 3.21 1.73 4.86.9 2.7 2 4.7 4.5 6.1a2.27 2.27 0 0 0 3.4-1.4 22.34 22.34 0 0 0-1.45-15.49c1.09-3.22 2.52-6.37 3.15-9.71.35-1.65-1.72-3-2.86-2a22.25 22.25 0 0 0 .46-4.79c-.2-2-3.3-2-3.2 0 .2 3.5-1 6.8-1.2 10.2v1.26a20.79 20.79 0 0 0-3.44-2.7 14.57 14.57 0 0 0-2.54-4.74c1.56-1.57-.13-3.82-2-3.81l-.07-.1a2.42 2.42 0 0 0-2.7-1.1 5.17 5.17 0 0 0-3.42 2.75 2.37 2.37 0 0 0-2.88 1.55c-.17.53-.33 1.06-.49 1.6-3.3.8-6.4 3.8-5 7.3a1.92 1.92 0 0 0 1.37 1.13zm22.73 10.32a16 16 0 0 1 0 1.77c-.15-.51-.28-1-.4-1.55a2.07 2.07 0 0 0 .39-.22zm-3.06-7.89v.07l-.11-.26zm-17.23-6.7l-.33 1.25-.21.23a1.38 1.38 0 0 1 .52-1.48zM163.6 186.3a17.24 17.24 0 0 0 6.07 0c3 1.82 6.78 2.06 10.33 2.14a52.43 52.43 0 0 0 19.2-2.9c3-1.1 1.8-5.6-1.3-4.8a73.37 73.37 0 0 1-15 2.17l-.1-.13c1.32-.49 2.56-1 3.7-1.53 2.28-1.06 1.56-3.79-.23-4.78a2.44 2.44 0 0 0-1.87-.82c-6.31 0-12.53.36-18.59 2.17a2 2 0 0 0-1.31.4h-.1a2.81 2.81 0 0 0-1.54 4.16c-1.34 1-1.16 3.62.74 3.92zM157.3 157.2a2.34 2.34 0 0 0 3.4-1.4 6.05 6.05 0 0 0 .2-3 2.33 2.33 0 0 0-.86-1.6 16.57 16.57 0 0 0-.13-6.2c0-3.37-.89-6.8-3.11-8.9a2.4 2.4 0 0 0-2.19-.48 42 42 0 0 0-1.48-5.74c-.17-1-.33-2-.43-3-.3-1.49-2.36-1.59-2.3-.23a1.78 1.78 0 0 0-1.5 2.23c.9 5.32 1.65 10.83 3.45 15.94-.64 4.47.88 10.56 4.95 12.38zM147.6 151.2a15.38 15.38 0 0 0-1.9-.8 1.63 1.63 0 0 0-2.2.6c-2.49 3.92-2.13 15 3.33 16.71.57 1.2 1.18 2.39 1.77 3.59 1 2 4.6.6 3.7-1.6-.6-1.55-1.31-3.08-2-4.62.85-3.93.92-10.39-3.12-10.93 1.17-.36 1.72-2.38.42-2.95zm-1.87 3c0-.11 0-.21.06-.31.17.07.35.13.51.22h.06a5.74 5.74 0 0 0-.63.08z"/><path class="cls-1" d="M179.2 224.7a2.43 2.43 0 0 0 0-4.1 58.36 58.36 0 0 0-7.4-4.35q1.77.22 3.53.47l.87.18v-.08a2.6 2.6 0 0 0 2.59-3.25 22.32 22.32 0 0 0 5.59-2.27 2.46 2.46 0 0 0 .6-3.7c1.25-.6 2.48-1.22 3.7-1.9a23.41 23.41 0 0 0 5.69-4.1 2 2 0 0 0 .11.2c1.7 2.3 4 3.6 6.7 2a8.42 8.42 0 0 0 3-3.2c.64-1.35.53-2.9.77-4.33 3.16-1 7.45-7.46 8.23-9.17s-.5-3.8-2.4-3.2a20.15 20.15 0 0 0-2.3.7 2.16 2.16 0 0 0-.72 3.78c-.17.25-.33.49-.48.72-.5.7-1 1.4-1.6 2.1-.19.28-.64.57-.86.85a1.9 1.9 0 0 0-2.74 1 16.66 16.66 0 0 0-.8 3.2 8.33 8.33 0 0 1-.3 2.2c-.5 1.7-1.5 2.2-3.2 1.4a1.88 1.88 0 0 0-2-.86 3.85 3.85 0 0 0 .09-1c2.23-1.29 1-5.24-1.63-4.3a39.46 39.46 0 0 1-12.2 2.4 2.39 2.39 0 0 0-1.56.68c-.78.19-1.56.39-2.34.62a2.19 2.19 0 0 0 0 4.2c3.58 1.11 7.27.32 10.84-.92a106.33 106.33 0 0 1-13 6.23 2.32 2.32 0 0 0-2.84-2.6c-4.34 1-9.5.73-12.83 4.11a64 64 0 0 1-13.08-6.94 93.76 93.76 0 0 0-7.15-11c-4-6.77-7.71-13.77-11.07-20.83.11-.3.22-.6.33-.86.9-2.2 2.7-4.9 2.1-7.3-.2-1.1-1.2-1.9-1.8-2.9a30.93 30.93 0 0 1-2.6-7.4c-1.5-6-.7-11.6.7-17.5.6-1.2-1.8-1.9-2.3-.3-1.4 5-2.4 10.1-1.8 15.4a42.52 42.52 0 0 0 2.2 8.5c.6 1.6 1.8 3.1 2.4 4.7a7.79 7.79 0 0 1-.55 4.85c-.59-1.28-1.18-2.57-1.75-3.85a188.81 188.81 0 0 1-8.6-22.7c-1.32-4.54-.67-9.42-1.92-13.85a51.41 51.41 0 0 1 3.53-6.53c2.52-2.72 5.34-5 8-7.72a2.49 2.49 0 0 0 .69-1.51c.33.09.66.19 1 .31a6.06 6.06 0 0 0-.37.93 34.87 34.87 0 0 0-4 12.27 1.37 1.37 0 0 0 1.4 1.4 3.07 3.07 0 0 0 1.21-.26c-.41 1.52-.81 3-1.21 4.56a1.2 1.2 0 1 0 2.3.7c.45-1.74.89-3.48 1.36-5.22a2 2 0 0 0 1.34-.66c-.1 2.59-.23 5.18-.4 7.78-.2 3.6-.9 7.3 1 10.6.8 1.5 3 1 3.5-.5.12-.36.23-.72.35-1.08a43.73 43.73 0 0 0 2.88 6.3c1.3 2.3 4.6.3 3.5-2a38.74 38.74 0 0 1-4.37-15.13v-3.77a2 2 0 0 0-2.75-1.83q.11-2.9.2-5.83a28.82 28.82 0 0 0 5.25-.95 22.77 22.77 0 0 1 7.16-.7 16 16 0 0 1-5.06 1.8c-1.7.3-2.5.4-3.8 1.8a2.74 2.74 0 0 0-.4 3.2l.9 1.2a2.59 2.59 0 0 0 4.75-1.41c1.24-.36 2.86-.56 3.65-.89a28.49 28.49 0 0 0 5.62-3.54c.37.24.74.51 1.13.8a2.34 2.34 0 0 0 .65.51 56.15 56.15 0 0 1 7.37 6.94c1.7 1.8 4.3-.8 2.7-2.6a65 65 0 0 0-6.5-6.4 47.67 47.67 0 0 0 5.81-9c.81.66 1.79 1.65 2.7 2.48a6.87 6.87 0 0 0 1.7 3.22 1.21 1.21 0 0 0 1.39.31c.6 4.43 1.71 8.5 6.21 9.49a1.67 1.67 0 0 0 1.9-.8 12.83 12.83 0 0 0 1.31-2.28c.78 2 1.22 4 4.19 3.88 2.1-.1 2.8-3.5.5-3.9-1.6-.3-2.2-3.9-3.6-5.1a1.85 1.85 0 0 0-2.9.4c-.68 1.36-1.08 2.78-1.7 4.08-4.45-2.45-3.4-13.69-6.08-17.86-1.34-3.79-3.71-7.21-6.92-7.92-6.3-1.4-8.6 8.5-10.3 12.7-.3.8.7 1.2.9.6 1.4-3.3 3-10.7 7.1-11.7 3.3-.86 5.54 2.33 6.7 6.06a1.26 1.26 0 0 0-.1.24 21.19 21.19 0 0 0-.63 4c-.34-.36-.68-.71-1-1l.06-.16c.8-2.3-2.7-3.7-3.9-1.6-.12.21-.26.41-.4.62a4.59 4.59 0 0 0-1 .68c-.31.27-.63.58-.95.91-2.89 1.81-5.06 4.82-7.66 7.21-3.21-1.2-6.64-1-10.2-.32-1.1.2-2.2.4-3.3.7-1.77.37-2.61 1.11-3.14.24v-1.34a1.61 1.61 0 0 0-.16-.69c.31-.69.61-1.39.9-2.09l.76-.12c1-.2 2-.3 3-.5a38.67 38.67 0 0 0 14.2-6.3 2.23 2.23 0 0 0 .4-3.4c-2.8-3.5-7.9.1-10.5 2a2.1 2.1 0 0 0-.81 2.36 27.13 27.13 0 0 1-2.89.94c-2.5.6-5 .7-7.4 1.7l-.33.16a1.67 1.67 0 0 0-1.67.74 10.23 10.23 0 0 0-5-1.12c-3.1.2-6 2.1-8.2 4.3a31.18 31.18 0 0 0-6.78 10.1 2.58 2.58 0 0 0-2.52 1.8c-.68 2.11-1.43 4.17-2.05 6.25a2.65 2.65 0 0 0-1.24 2.03c-.17 2-.34 4.12-.44 6.24-.54 3.87-1.38 7.63-2.16 11.46a2.47 2.47 0 0 0 .28 1.81 8.78 8.78 0 0 0 1 4.3v.2c-.78 3.52-1.54 7.53-.3 10.61a20.4 20.4 0 0 0 .66 4.18 2.46 2.46 0 0 0 4.4.6l.54-.78v.37a39.3 39.3 0 0 0 .2 6.07 7 7 0 0 1-.14.74 1.78 1.78 0 0 0-1.53.91c-.6 1-.3 1.8-.1 3a2 2 0 0 0 2.08 1.41 13.67 13.67 0 0 1 .79 1.64c.08.48.15 1 .23 1.45.49 3.26.86 6.38 2.38 9.2.55 2.25 1.19 4.69 1.71 7.18a19.53 19.53 0 0 0 0 2.83 2 2 0 0 0-.89.79c-1.7 3.2-3.4 9.9 1.4 11.3a2 2 0 0 0 1.94-.57 1.72 1.72 0 0 0 2-1.43c.1-.42.18-.85.25-1.29a1.89 1.89 0 0 0 1.65-1.91 8.3 8.3 0 0 0-1.54-4.53c-.06-.7-.14-1.41-.23-2.11a1.55 1.55 0 0 0 1.47-1.26h.29a15.57 15.57 0 0 0-.06-2.87 40.87 40.87 0 0 1 .34-4.42 42.68 42.68 0 0 0 1.52 4.19 1.84 1.84 0 0 0 1.25 1.16 23.84 23.84 0 0 0 3.25 8c1.07 4 2.35 8 5.36 11.06 1.2 1.2 3.9.8 4.2-1.1a29.75 29.75 0 0 0 .34-3.15 5.32 5.32 0 0 0 2.36 1 2.51 2.51 0 0 0 2.8-1.1c.19-.37.34-.73.47-1.09.11.13.21.27.33.39a2.57 2.57 0 0 0 3 .4 6.11 6.11 0 0 0 2.29-2.28 22.52 22.52 0 0 0 5.07 4 2.29 2.29 0 0 0 1.55 3c4.9 1.8 9.8 2.6 14.9 3.6 3.29.6 6.89 1.5 9.89-.5zm-51.36-103.8l-.19.27c.1-.36.21-.71.32-1.06-.05.26-.09.52-.13.79zm-18.11 47.71l.06-.1v.07zm0-18.89a27.07 27.07 0 0 1-.64-3.94c.26-.51.51-1 .72-1.57a31.4 31.4 0 0 1-.1 5.51zm4.79 30.78a3.35 3.35 0 0 0-1.51 2c-.2-1.25-.38-2.5-.53-3.75a2.43 2.43 0 0 0 1.94.54q.13.58.27 1.15zm3.48 15.43a1.72 1.72 0 0 0-1.15 0 37.8 37.8 0 0 0 .34-4.48c0-.8-.23-2.29-.35-3.73l.15.43a2.85 2.85 0 0 0 1.94 1.64q.21 1.13.45 2.26a15.69 15.69 0 0 0-1.38 3.88zm1.49-36.23c-1.7-2.54-3.23-5.16-6-6.46a36.19 36.19 0 0 0 .33-9.36c1.92 5.76 4.14 11.51 6.52 17.11zM151 211c-.65-.68-1.26-1.37-1.82-1.93a9.69 9.69 0 0 0-.87-1.75c1 .68 2.1 1.31 3.2 1.9A2.69 2.69 0 0 0 151 211zm10 5.92l.21-.34 2.65 1.13c-.86-.31-1.86-.58-2.8-.79z"/><path class="cls-1" d="M167.3 148.7c-.8-.2-1.6-1.3-2.1-1.9-.9-.9-2.5.8-1.6 1.9s3.1 3.4 4.8 3a2.85 2.85 0 0 0 1.71-1.51 1.61 1.61 0 0 0 1.59-.79 16.06 16.06 0 0 0 1.7-4.11 4.93 4.93 0 0 0 1.4.91 2.29 2.29 0 0 0 3.3-1.3 12.21 12.21 0 0 0 .37-4.79 2 2 0 0 0-.39-2 17.82 17.82 0 0 0-.87-2.51 2.09 2.09 0 0 0-2-1.12 2.85 2.85 0 0 0-.54-.25 2.22 2.22 0 0 0 .06-.43c0-.7 1-1.8 1.5-2.3.8-.8 1.3-1.5 2.3-1.1s1.4 1.4 2.6 1.4 2.2-.8 3-1.7c1.3-1.4-.6-3.4-1.9-2-.9.9-.9.5-1.7-.2a5.72 5.72 0 0 0-1.6-1.1 4.2 4.2 0 0 0-3.6.5c-2.3 1.3-4.5 3.8-4.8 6.5a1.85 1.85 0 0 0 .05.7 2.13 2.13 0 0 0-1.05 1.6c0 .47-.08 1-.1 1.5a1.39 1.39 0 0 0-1.6.5c-1.68 2.44-1.8 7.92.29 10.67-.12.14-.29.11-.82-.07zM178.9 153.7a2.45 2.45 0 0 0 .83 4.41 2.41 2.41 0 0 0-.33.9 36.77 36.77 0 0 1-3.8 0c-1.6-.1-1.9 2-.8 2.9l.27.18-.07.12h.28c.94.66 1.88 1.27 2.82 1.87.92 1 2.35-.61 1.62-1.65 5.94-.19 11.71-2.2 17.18-4.65 1.6-.7.9-2.9-.4-3.4a11.48 11.48 0 0 0-3-.61c.61-.61 1.21-1.24 1.8-1.89a2.35 2.35 0 0 0-.44-3.55l3-2.45c2-1.6-.7-5.1-2.8-3.6-3.65 2.64-7.12 5.45-10.78 8a38.37 38.37 0 0 0-5.38 3.42zM199.5 170.7a5 5 0 0 0 3.78-.22c2-.06 4 0 5.92 0a1.4 1.4 0 0 0-.1-2.8c-1 0-2 0-3-.06a23.24 23.24 0 0 0 2.1-5.14c1.2-4 4.9-11.1.1-14.2-7.3-4.8-12 13.59-2.71 12.5-.9 3-2.22 6.1-4 6.8h-1.7a1.58 1.58 0 0 0-.39 3.12zm5.4-17.6c1.3-3.8 2.4.1 2 2.4l-.25 1.14a2.3 2.3 0 0 0-1.05-.24c-1.6 0-1.1-2.2-.7-3.3zM1235.4 501.6a39 39 0 0 1 5.39-1.13c-.09.21-.2.41-.29.63a2.56 2.56 0 0 0 .43 2.38 3.3 3.3 0 0 0 .17 2.12 4.43 4.43 0 0 0 2.28 2.31c3 2 9.12 2 11.72 1.89a1.85 1.85 0 0 0 1.24-1.08 19.9 19.9 0 0 0 8.35.16 30.17 30.17 0 0 1 7.3 5.42c.9 1.3 2.5-.3 1.5-1.4a36.64 36.64 0 0 0-5.85-4.95 8.68 8.68 0 0 0 3.75-3 2.11 2.11 0 0 0-.8-2.9c-.93-.42-1.89-.79-2.87-1.13a13 13 0 0 0 4.24-4c2.86-.49 6-.91 8.07-.27-.43 1.87 2.12 3.48 3.56 2l1.1-1.1a2.42 2.42 0 0 0 .4-2.8 7.13 7.13 0 0 0-1.6-1.95l.11-.05a1.76 1.76 0 0 0 .6-2.4 6.76 6.76 0 0 0-.55-.73c3.77-.28 7.52-.62 11.25-.67 3 0 3-4.7 0-4.7-7.7-.1-15.3 1-23 1.3-2.4.1-3 3.7-.6 4.3 1.88.45 5.67.22 8.07 1.06l-.45.18a22.71 22.71 0 0 0-5.12.26l-2.63.34c-6-3.58-16-6.42-21.67-1.34a2.57 2.57 0 0 0-.83 2.15l-.42.17a34.21 34.21 0 0 1-9.65 1.19 2.31 2.31 0 0 0-2.29 2.78c-.56.16-1.12.34-1.67.54l-.44.07v.09l-.53.21c-2.27 1.05-.67 4.75 1.73 4.05zm25.91 2.33a32.62 32.62 0 0 1 3.72.73 11.64 11.64 0 0 1-2.6.46l-.72-.32-1.32-.53z"/><path class="cls-1" d="M1334 507.4a23 23 0 0 1-11 1.1l-.93-.16c1.9-1.95 3.66-4.09 4-6.84.3-2-1.1-3.8-3.3-3.3a16.67 16.67 0 0 0-4 1.57 19 19 0 0 0-5.14.52c.07-.73.14-1.45.19-2.16a28.17 28.17 0 0 0 .27-4v-.1c0-3.2-4.5-3-4.8 0-.35 2.82-.78 5.94-1.33 9.19v.15a32.14 32.14 0 0 0-1.62-3.64c-1.4-2.6-5.3-.3-3.9 2.3a14.91 14.91 0 0 1 1.94 5.94 20.49 20.49 0 0 0-1.64-1.34c-.35-.27-.73-.51-1.12-.76a8.75 8.75 0 0 0 .42-1.54 1.93 1.93 0 0 0-2.8-2.2l-2.45 1.26a29.8 29.8 0 0 1-6.14-3.48 9.45 9.45 0 0 0-1.24-1.18l-.27-.29v.06c-.21-.16-.43-.31-.66-.46a1.76 1.76 0 0 0-2.4 2.4 12.26 12.26 0 0 0 4.15 3.84 6.15 6.15 0 0 1 .47 1.85 2.39 2.39 0 0 0-1.72-.29h-.18a5.23 5.23 0 0 0-2.8 1.12c-2 .78-3.91 1.57-5.85 2.39a1.81 1.81 0 0 0-3.27 1.43l-.5.22c-2.3 1.1-.3 4.4 2 3.4l.13-.06.07.16c.52-.23 1.05-.45 1.58-.67a30.12 30.12 0 0 0 6.65-1.94c.48-.06 1-.1 1.44-.11-3.59 1.37-7.12 3-10.68 4.54a68.62 68.62 0 0 1-10.07 1.57 1.56 1.56 0 0 0 .06-.32c1.25-1.66 0-4.69-2.46-3.87-4.4 1.5-8.8 3.1-13.3 4.3-2.75.71-8.88 2.69-12.45 1.44 4.59-.82 9-2.09 13.65-2.84 2-.4 1.6-3.9-.5-3.7h-.39l-.38.08a79.23 79.23 0 0 0-12.93 2 26.87 26.87 0 0 0-8.79 1.29 1.42 1.42 0 0 0-.3 2.6 6.82 6.82 0 0 0 3.58 1.17c4.21 8 17.3 4.14 26.49.79a2.23 2.23 0 0 0 .83.54 15.82 15.82 0 0 0 1.63.44 7.05 7.05 0 0 0-1.53 1.46 1.52 1.52 0 0 0 .6 2.1 12.64 12.64 0 0 1 2.6 1.3 1.57 1.57 0 0 0 .31.16 2.62 2.62 0 0 0-.51 0 67.92 67.92 0 0 1-19.31 1.17 2.35 2.35 0 0 0-1.69-2.37c-7.6-2-14.9-4.6-22.4-6.9a2.14 2.14 0 0 0-2.7 2.1 4.82 4.82 0 0 0 .38 1.87c-4-1.64-8.41-2.61-12.08-.27-.06 0-.11.09-.17.14l-.67-.19-.6-.22c.21-2.46.63-4.81.84-6.14.41-2.42.85-4.8 1.33-7.18l.76-.68c-.56 3.53-.52 7 1.62 9.46 2.5 3 6 2.1 9.2.9a130 130 0 0 1 16.5-4.7c3.3-.7 1.9-5.7-1.4-5s-6.7 1.4-10 2.4c-2.6.8-6.9 3.4-9.4 2.4-1.9-.8-1.6-1.1-1.5-3 .1-1.4.3-2.8.5-4.2.4-2 .8-4 1.1-6.1a2.43 2.43 0 0 0-4.4-1.9c-.21.29-.54.7-1 1.19a20.86 20.86 0 0 0 .23-8.37 44.5 44.5 0 0 0 1.16-6.32c1.48 1.11 2.85 2.41 4.36 3.59 2.5 2 5.9-1.2 3.6-3.6s-4.56-4.57-7.35-6.12c.21-.68.41-1.37.63-2l.22-.53h-.06l.06-.18c.9-2.8-3.6-4.8-4.8-2q-1 2.33-2 4.64l-.13.16c-3.2 4.3-5 9.2-6.4 14.3a2.73 2.73 0 0 0 1.91 3.29 9.91 9.91 0 0 0 0 6.61c.56 1.35 2.44 1.55 3.59.77l-.28 1.13c-4.26 3.71-9.23 6.55-10.31 1.4a25.55 25.55 0 0 1 .35-10c4.27-2.28 7.49-10.95.45-11.3a2.13 2.13 0 0 0-2 1.6c-.34.84-.73 1.87-1.13 3a22.67 22.67 0 0 1 1.33-5.64c1.9-6 5.2-12.8 12.4-12.6 1.7.1 1.6-2.4 0-2.5-7.2-.5-11.1 4.3-14 10.4-1.9 4-4.9 11.1-2.3 15.4a5.79 5.79 0 0 0 .83 1.05c-1.47 6.49-1.84 13.91 2.57 17 3 2.19 6.67 1.5 10.14-.44-1.05 5.77-2.22 11.82-.84 17.54.6 2.67 1.88 5 4.39 5.67-.81 4.38 2.62 6.71 6.55 8a3.39 3.39 0 0 0 .66 2.59c4.7 5.9 12.3 8.1 19.3 9.6 2.66.6 5.28 1.19 7.91 1.73-4.13.16-8.43-.32-12-.43-4.8-.1-13-1.2-16.5 2.9-1.1 1.3-.9 3.9 1.1 4.2a14.49 14.49 0 0 0 4.28 0 24.66 24.66 0 0 0-3 1.81c-1.4 1-2 3.6 0 4.5 12 5.54 25.28-.42 37-4.37 10.33 5 22.44 4 34.06 2.62a51.61 51.61 0 0 0 5.84-.16v-.54a3.07 3.07 0 0 0 2.47-3.69c1.25-.2 2.5-.4 3.73-.57a5.86 5.86 0 0 0 5.3-4.6 2.72 2.72 0 0 0-2.6-3.4c-1.94-.19-3.87-.41-5.8-.62a73.27 73.27 0 0 0 10.79-3.06h.8l-.08-.3c.46-.2.93-.38 1.38-.6 2.3-1.1 1.2-5-1.3-4.8-5.52.32-11 1.17-16.57 1.75l.26-.12c3.51-1 9.35-2.46 10.1-6.43a3.21 3.21 0 0 0 0-1 34.29 34.29 0 0 0 2.49-2.94c.75-.59 1.47-1.21 2.18-1.87a2.52 2.52 0 0 0 .65-1 31.39 31.39 0 0 0 4.79-2 11.76 11.76 0 0 1 5.25.6c5 1.8 6.9-.9 10.1-4.8 4.7-5.6 8.2-12 11.9-18.3.92-1.36-.58-3.56-2.28-2.86zm-125.6 24.1c-2.47.2-3.57-1.6-4-4.07l4.33 1.53a24.74 24.74 0 0 0 2.85 1.84 12 12 0 0 1-3.18.7zm9.78 2.28l-.39-.43q1.14.33 2.3.6zm74.5-24.64c1-.5 2-1 3.08-1.46a27 27 0 0 1-2 1.86q-.52-.19-1.06-.33zm-62.38 26.16l-1.06-.17H1231.07a2.12 2.12 0 0 0 1.71-.73c.84.67 1.61 1.27 2.25 1.73-1.56-.26-3.15-.57-4.73-.83zm-8.75 32.29a51.89 51.89 0 0 0 8.65-4.39 2.94 2.94 0 0 0 .93-1.1h.17c4 0 8.44.35 12.65-.14.31.26.62.52.94.77-7.49 2.63-15.77 5.81-23.34 4.86zm21.27-24l.6.11h-.59zm3.74 4.06l-2.72-.61q1.67.11 3.38.14zm6.71 13.88a2.2 2.2 0 0 0-2.35-.76l-.68-.44.52-.23c1 .14 2 .41 2.76.57a3 3 0 0 0-.25.87zm9.19-9.89a2.55 2.55 0 0 0 2.54 2.95c1.86-.11 3.71-.17 5.57-.21a2.64 2.64 0 0 0 .93 4.41c.25.09.51.17.77.25 0 .15 0 .3-.07.45h2.09a2 2 0 0 0 3.31 1.62 16.85 16.85 0 0 0 1.29-1.53c2.89.14 5.76.42 8.63.76a75.84 75.84 0 0 1-9.71 1.38q-1.29.13-2.58.2c-1-.12-2-.26-2.92-.4-3-.43-5.89-1.09-8.83-1.6 1.4-1.35 1.46-4-1-4.5-.35-.08-.7-.13-1.05-.2 0-.13 0-.27.05-.4l-1.84.14c-1.08-.12-2.16-.2-3.24-.24a2.4 2.4 0 0 0 0-.39c-.32-2.87-3-4.5-6-5.56 1.25-1 2.48-2 3.71-3l1.13-.92a2.22 2.22 0 0 0 1.47-1.21c2.94-2.49 6.58-6.11 5.4-9.07a1.94 1.94 0 0 0-2.3-1.3c-4.34.9-8.6 2-12.85 3.18q-4.68-2.1-9.34-4.25a15.77 15.77 0 0 0 1.83-.18 61.68 61.68 0 0 0 25.36-.85c2.42-.52 1.85-3.64-.15-4.16a1.45 1.45 0 0 0 .45-2.64l-.37-.29c2.37-1.16 5.39-1.55 8-2.28 2-.31 4-.7 5.92-1a40.07 40.07 0 0 0 8.07-2.18c-.75 1.45-1.53 2.88-2.26 4.26a22.68 22.68 0 0 1-4 1.22c-1.9.4-1.4 3.2.4 3.3h.49v.09l.23-.08h.59c-.18.4-.34.79-.49 1.16-3.33 1.07-6.69 2.06-10.13 2.91-3.07.77-2 5.2 1 5-.8.25-1.61.5-2.41.77-2.8.9-2.5 5.7.7 5.4l.68-.07v.17l.71-.24a105.78 105.78 0 0 0 16.16-3l-1.68.72c-5.8 1.22-11.57 2.55-17.29 4.13a2.16 2.16 0 0 0-1.3.36c-2 .57-4.08 1.17-6.1 1.81-2.85.84-2.26 4.63.43 5.12zm-9.38-12.48h-.16q2.13-.57 4.26-1.11c-.59.67-1.26 1.4-1.76 1.93a2.85 2.85 0 0 0-.32-.16c-.19-.07-.37-.12-.56-.19 0-.14 0-.28.06-.41zm32.47-12l-1.13.37.12-.29zm4.25-7l-1.69.87a30.44 30.44 0 0 0 1.49-2.67l.13-.28h.17a5 5 0 0 0 2.9-1.7 2.12 2.12 0 0 0 .49-1.53c2.12-1.86 4.55-3.6 6.32-5.7a14.86 14.86 0 0 1 1.85 1.44 10.87 10.87 0 0 0-5.66 2.89 2.09 2.09 0 0 0 .27 3.13c-1.07 1.9-4.38 2.6-6.27 3.59zm11.73-2.93a26.61 26.61 0 0 1-3.72 2.51l-.75.12a5.63 5.63 0 0 0 1.44-1.71 1.51 1.51 0 0 0 .07-1.49 2.19 2.19 0 0 0 .23-.21 7.61 7.61 0 0 1 4.19-2.24c-.44 1.07-.94 2.07-1.46 3.06zm11.4-11.25h.16a4.22 4.22 0 0 0 .12 1.85l-.64.51c.13-.75.25-1.53.36-2.34zm7.27 21.87c-1 1.2-2.1 2.7-3.9 2.5a8.3 8.3 0 0 1-2.57-1l.07-.07c1.25-1.33.83-4-.83-4.65 1.33-.74 2.64-1.46 3.93-2.15 2.7-1.5 1.2-5.2-1.5-5.4-.63-.06-1.26-.1-1.88-.1 1.46-1.54 2.94-3.06 4.44-4.55 3.62 1.48 8.3 1.28 12.4.4a123.16 123.16 0 0 1-10.16 15.07zM1180.24 208.83a2.77 2.77 0 0 0 3.51-1.19c3-.3 6.37.6 9.46-.75 7.2-3.3 9.3-11.9 10.6-18.9.11-.58.24-1.22.38-1.9a2.79 2.79 0 0 0 4 1.7c5.4-3.2 2.8-10.5 2.1-15.5-1.12-8.53-3.27-16.92-4.1-25.54.2.16.4.31.6.44 2 1.2 4.9-1.3 3.4-3.4-4.6-6.6-17-10-24.6-10.1-2.9.1-2.9 4.6 0 4.7a41.84 41.84 0 0 1 15.12 4 1.92 1.92 0 0 0 0 .3 100.49 100.49 0 0 0 1.59 15.06 9.24 9.24 0 0 0-3.39-1.76 2.78 2.78 0 0 0-3.3 1.9c-2.15 5.34-2.72 11-3 16.66a96.46 96.46 0 0 1-12.3 8.08v-.5a2.46 2.46 0 0 0 1.18-1.54 4.5 4.5 0 0 0-.1-2.3 2.25 2.25 0 0 0-3-1.73l-.1-.17c-.2-.5-.8-.9-1.2-1.3a40.83 40.83 0 0 1-2.5-3.3c-1.7-2.48-3.11-5.11-5.14-7.21.14-.16.28-.33.44-.49l.12-.1a10.92 10.92 0 0 0 7.28-1.1 2.6 2.6 0 0 0 .5-4.1 3.56 3.56 0 0 0 .23-1.87 3.87 3.87 0 0 0-.85-2 37.38 37.38 0 0 0 11.45-.44c2-.4 2-3.1.5-4-8.3-5.4-19.1-9.4-28.8-5.7-2.2.9-1.3 4.6 1.1 3.8 6.5-2.36 13.32-.8 19.42 2.2-3.12-.13-6.29-.59-9.22-1-4.3-.7-9-1.9-13.2-.3-1.9.7-2.6 3.4-.6 4.5a62.08 62.08 0 0 0 8.56 3.63c-1.65.73-1.55 3.08-.46 4.17.13.14.26.26.4.38a2.61 2.61 0 0 0-3.6 2.32c-.4 6.6-1.6 12-5.4 17.6a63.3 63.3 0 0 1-12.2 13.1c-3.7 3-8.9 5.2-12.2 8.6-2.3 2.3-2.3 4.8-.1 7.2 3 3.37 6.44 3.1 9.58 1.33a32.09 32.09 0 0 1 2.72 2.37 5.26 5.26 0 0 1 1.2 1.4c-.19.05-.45.14-.82.27-4.7 1.7-12.4 2.7-13.9 8.3-.4 1.5.8 3.4 2.5 3.2a55.83 55.83 0 0 0 11.26-2 2.75 2.75 0 0 0 3.34 3.24c7.62-1.71 14.21-5.46 21.65-7.29-.49.38-1 .74-1.35 1.09-1.07.93-2.14 1.86-3.22 2.77a12.52 12.52 0 0 0-4.68 4.13c-1.1 2 1.3 4.8 3.3 3.3 2.59-1.88 5-3.88 7.4-5.87 1.95-1.24 3.86-2.59 5.78-4-.49 3.93-.51 8.07 4.63 7.72 2.6.1 2.7-4.3-.1-4.1-1.6.1.4-6.6.4-8.1a2.27 2.27 0 0 0-3.4-1.9 2.77 2.77 0 0 0-2.08-1.11c-1.35.05-2.7.17-4 .34 2.72-1.93 4.41-5.41 7.21-7.24zm25.33-30.05c.33 1.8.46 3.72-.67 4.72a2.74 2.74 0 0 0-.25.27c.35-1.55.63-3.23.92-4.99zm-8.57 10c1.05-8.61.26-17.76 2.56-26.16 4 5.5-.6 22.71-1.66 27.46a29.9 29.9 0 0 1-2.29 7 54.37 54.37 0 0 0 1.39-8.28zm-11.9 5.7c.95-4.5 4-7.32 7-10.21a56.61 56.61 0 0 1-1.51 10.41c-.4 1.6-1.1 5.2-3 5.9-3.39 1.32-2.89-4.38-2.49-6.08zm-3.68-6.24q-.28.57-.53 1.17l-.15-.85zm-2.65-11.24c.64 0 .42.35 0 0zm-33 26.06a32.64 32.64 0 0 1-2.83 3.26l-1.87-1.22c2.35-1.55 4.64-3.2 6.83-5-.65 1.08-1.36 2.06-2.1 3zm2.94 7.51a23.28 23.28 0 0 0-2-1.7 37.7 37.7 0 0 0 2.73-3.05 25.57 25.57 0 0 0-.7 4.79zM1176 179l.28-.28q-.12.39-.22.78h-.16a.9.9 0 0 1 .1-.5zm-3.8 7c.2-.19.39-.39.57-.59l.11.43-.84.28zm-21.29 33a4.2 4.2 0 0 0 .36-.47l.3.22zm11-.29c-2.12.69-4.19 1.59-6.27 2.48a2.6 2.6 0 0 0-.67-1.81 2.63 2.63 0 0 0 1.24-1.07 48.38 48.38 0 0 0 4-9c.23-.66.43-1.39.63-2.14a16.06 16.06 0 0 0 4.37 5.69 17.24 17.24 0 0 0 3.71 4 65.22 65.22 0 0 0-7.02 1.84zm5.8-19.8a16 16 0 0 0-1.1 4.8v.44c-.8-2.36-1.44-4.8-2.3-6.94-.7-1.8-3-2.8-4.5-1.2v.05a2.93 2.93 0 0 0-1.85.35 9.29 9.29 0 0 0-1.8 1.44 2.24 2.24 0 0 0-1.14-.3c.84-1.49 1.63-3 2.35-4.55.53-1.1 1.08-2.4 1.69-3.71.3-.36.61-.72.91-1.09.78-1 1.48-2 2.14-3a39.28 39.28 0 0 0 2.06 4.88 2.49 2.49 0 0 0 4.3 0 4.93 4.93 0 0 0 .24-.54 2.63 2.63 0 0 0 1.93 2 15.26 15.26 0 0 0 1.61 2.17c-2.32.79-3.64 2.96-4.55 5.19zm3.15 12.17c1-2.75.14-6.07.85-9 .2-.8.8-3.4 2-3.3.8.1 1.7 1.9 2.2 2.6a35.17 35.17 0 0 1 1.61 3.21c-2.38 1.86-4.18 4.57-6.67 6.48z"/><path class="cls-1" d="M1142.61 157.22c-2.42 1.84-4.71 3.82-7.21 5.58s-5 3.5-6.9 6.1c-1.6 2.1 1.5 4.7 3.5 3.5s4.35-3.35 6.79-4.65a1.55 1.55 0 0 0 1.51 1.85c-1.4 2.69-3.54 5.07-4.9 7.8a2.72 2.72 0 0 0 .4 3.2 4.19 4.19 0 0 0 3.9 1.5c2.3-.18 3.26-3.32 1.45-4.46 2.44-4 5.37-7.36 5.63-12.3 3.57-2.8 7.15-6.33 6.32-9.74a2 2 0 0 0-2.4-1.4l-.51.23c.3-.55.62-1.08.91-1.63a1.45 1.45 0 0 0-1.6-2.1c-2.78.97-4.9 3.76-6.89 6.52zM1129.8 182.2a7.33 7.33 0 0 0-1.65-.36 4.31 4.31 0 0 0-3.15-.74c-1.9.4-3.2 2.3-4.3 3.8-3 4.1-5.3 9.4-5.3 14.5a2 2 0 0 0 3 1.7 17.66 17.66 0 0 0 5.9-7.6l1.8-4.2c.6-1.5.6-3.2 2.5-2.8a2.23 2.23 0 0 0 1.2-4.3zM1107.3 161.4c.6 0 1.2.1 1.8.1 2 .09 2.27-2.72.69-3.44 2-3.13 6.94-5.46 9.51-7.36 2.73-2.06 5.42-4.17 8.1-6.31a43.74 43.74 0 0 1 18.2-5.89c3-.3 3.1-4.9 0-4.7a40.46 40.46 0 0 0-14 3.16 1.63 1.63 0 0 0-1.33.24l-2.1 1.37a61.22 61.22 0 0 0-10.8 7.33 1.85 1.85 0 0 0-.55 2.12c-1.25.91-2.5 1.81-3.75 2.68-3 2.1-6.9 4.4-7.5 8.4a1.81 1.81 0 0 0 1.73 2.3zM1110.1 191.7a2.45 2.45 0 0 0-4.2-1.5c-.35-.44-.72-.88-1.1-1.3a2.11 2.11 0 0 0-2.6-.3c-1.93 1.11-2.82 3.4-3 6a11 11 0 0 1-1.92-2.61c1.79-.94.68-4-1.65-3.66-.4.1-.7.1-1.1.2-.9.1-1.4 1.1-1.5 2-.4 3.6 3.5 6.8 5.6 9.2l1.35 1.61a12.38 12.38 0 0 0 1.55 3.39 5 5 0 0 0 3.72 2.15 17.23 17.23 0 0 0 4.58 2.75 1.83 1.83 0 0 0 1.82-.36l1.28 2.16c1.5 2.5 5.3.3 3.9-2.3-3.03-5.53-6.43-11.03-6.73-17.43zm-5.46 9.07l-.52-.62a17.57 17.57 0 0 1-.6-6 24 24 0 0 1 1.83 3 20.33 20.33 0 0 1-.71 3.62z"/></svg>