<svg id="Layer_1" data-name="Layer 1" xmlns="http://www.w3.org/2000/svg" viewBox="0 0 1440 712"><defs><style>.cls-1{fill:#ff2588}</style></defs><title>Artboard 1</title><path class="cls-1" d="M173 492.8c-.9.5-3.9 3.6-4.7 3.1-2.87-1.74-5.28 1.74-3.89 4.12l-1.93 1.37a38.38 38.38 0 0 0-6.61 3.38 3.77 3.77 0 0 0-.09-2.3 8.43 8.43 0 0 0 .53-1.47 3 3 0 0 0-3.7-3.7 34.19 34.19 0 0 0-6.66 3.13c.42-2-1.3-4.25-3.54-3.53a53.67 53.67 0 0 0-9.4 4.4c-.73.43-2.94 2.26-4.81 3.54a5.41 5.41 0 0 0-1.59-3.14 2.81 2.81 0 0 0-3.9 0 5.83 5.83 0 0 0-1.92 3c-1.42-.7-2.84-1.38-4.18-2.21-3.6-2.2-6.9-4.8-10.4-7.2-2.6-1.7-5.4 2.1-3.3 4.2l.39.36-.16.21a2.85 2.85 0 0 0-1.34 1 12 12 0 0 0-4-1.59c-1-.2-2.4 1-1.6 2.1a13.18 13.18 0 0 0 .92 1.08 2.38 2.38 0 0 1-.61-.19l-.62-.25a1.77 1.77 0 0 0-1-1.35l-.4-.19a17.43 17.43 0 0 0-8-2c-2.93-1-6.68-2.17-9.48-.49a1.88 1.88 0 0 0 .4 3.4c4.78 1.63 9.57 1.71 14.35 2.74l.65.26c1.74.67 5.79 2.82 7.6 1.19 2.52 1.31 5.15 2.51 7.79 3.63 1.21.85 2.39 1.73 3.61 2.57.24.23.48.46.71.71l.11-.15.69.45a1.94 1.94 0 0 0 2.91-1.61 3.47 3.47 0 0 0 .84-.36c.93.44 1.85.89 2.75 1.38a2.48 2.48 0 0 0 2.9-.24l.2.14a2.28 2.28 0 0 0 2.94-.15 5.78 5.78 0 0 0 1.9-.42 2.8 2.8 0 0 0 1.46.27 22.91 22.91 0 0 0 6.9-1.44 2.61 2.61 0 0 0 .4-.06c1.32-.38 2.66-.76 3.94-1.23a3.27 3.27 0 0 0 2.26-.27c.67-.33 1.33-.69 2-1.05-.59.51-1.18 1-1.77 1.55a3 3 0 0 0 0 4.3c5.25 4.86 10.87-1.33 16-4.63a3.3 3.3 0 0 0 3.16.23 7.44 7.44 0 0 0 2.85-2.07 77.65 77.65 0 0 0 12.15-9.73c2.39-2.49-.71-6.69-3.71-4.79z"/><path class="cls-1" d="M110.19 483.07c-.33-.25-.65-.52-1-.77a2.14 2.14 0 0 0-1.88-.29 8.09 8.09 0 0 0-2.34-1.65h.72a1.77 1.77 0 0 0-.1-3.5c-2.3-.3-4.2-.5-5.7 1.4a1.82 1.82 0 0 0-.3 2.2 11.33 11.33 0 0 0 1.41 1.61c.4 6.27 10.12 13.39 16.09 13.39a2.47 2.47 0 0 0 2.41-3.07 2.82 2.82 0 0 0 .17-2.36 2.59 2.59 0 0 0 3.72-1.47c.22-.72.48-1.42.75-2.13a2.63 2.63 0 0 0 4.86 1.27c1-1.4 1.88-2.8 2.82-4.19a3.07 3.07 0 0 0 .88.19c1.7.2 2.8-.8 3.8-2a19.68 19.68 0 0 0 1.78-3c.79 2.33 2 4.2 5 4.39 2.4.2 3-3.8.6-4.3-1.7-.3-1.6-4-1.9-5.4a2.48 2.48 0 0 0-3.1-1.7 6.76 6.76 0 0 0-3.6 2.6c-.6.7-1.1 1.6-1.6 2.3a3.72 3.72 0 0 1-.24.34c-.12-.08-.22-.16-.36-.24a2.34 2.34 0 0 0-1.61-.33c.19-1.25.33-2.51.41-3.77a2.65 2.65 0 0 0-2.6-2.6c-4.17 0-6.76 4.55-8.48 9.25a29 29 0 0 1-2.62 2.48c-.07-.07-.12-.16-.2-.23a2.76 2.76 0 0 0-4.2.5 5.06 5.06 0 0 0-.61 2.28l-1.29-.78a2.55 2.55 0 0 0-1.69-.42zM162 477.2a2.32 2.32 0 0 0-3.53-.55 2.31 2.31 0 0 0-4-.25c-1.24 2.18-2.53 3.94-2.77 6.16a20.17 20.17 0 0 0-1.23 3.84c-.4 2 2.2 4.1 3.8 2.2a15.28 15.28 0 0 0 1.06-1.36 2.34 2.34 0 0 0 2.14 1.66 5.53 5.53 0 0 0 3.41-.86v.06a2.46 2.46 0 0 0 1.7 2.3c2.7 1.1 5.4-.6 7.4-2.2a2.48 2.48 0 0 0 3.16 2.43c2.6-.7 3.4-2.7 3.2-5.3a2.85 2.85 0 0 0-.08-.48c1-1.6 2.23-3.11 3.08-4.62a2.56 2.56 0 0 0-.9-3.4c-2.5-1.3-4.5.5-6.3 2.2-1 .89-2.85 3.4-4.74 5.1a11.3 11.3 0 0 0 1.74-3c.6-1.8-1.2-3.2-2.9-2.9a7.69 7.69 0 0 0-3.58 2.35 4.54 4.54 0 0 0-.66-3.38z"/><path class="cls-1" d="M97.2 480.6a1.82 1.82 0 0 0 .8-1.9 11.11 11.11 0 0 0-1.21-2.42 3.08 3.08 0 0 0 2.34-3 8.47 8.47 0 0 0 5.17 2.92 1.7 1.7 0 0 0 1.6-.9 10.4 10.4 0 0 0 .85-5.61c1.71 1.55 3.37 2.73 5.85.71 1.4-1.1-.5-3.6-1.9-2.5-1 .8-4.2-3.2-5.3-3.7a1.81 1.81 0 0 0-2.7 1.6c0 .9 1.1 6.2.5 6.5s-3.9-4.3-4.4-4.9a1.87 1.87 0 0 0-3.1.8c-.2 1.1.4 4.1-1.2 4.3-.51.07-2-1.38-3-2.41-.12-.17-.26-.32-.38-.49l-.07.07c-.21-.2-.4-.37-.53-.47-1.4-1-3.4 1-2.4 2.4 1.62 2.23 3.93 3.88 5.46 6.11-2-1.1-4.78-4-6.36-5.65.32-1.44-1-3-2.51-2.06-.2.1-.4.3-.6.4a1.66 1.66 0 0 0-.3 2.6c2.59 2.6 9.09 10.6 13.39 7.6zM115.3 463.7c1.12 1.9 1.28 4.17 2 6.24v.06a9.63 9.63 0 0 0 .37.9 1.53 1.53 0 0 0 2.7-.3c.82-4.08.32-9.14-.23-13.48l.09-.36c.21 1.4.42 2.79.71 4.18 0 .33 0 .65-.07 1h.28c0 .18.08.36.12.54.5 1.9 3.8 2.2 4.1 0 .14-.95.16-2.39.23-3.93a13.9 13.9 0 0 0 1.47 3.83 2.34 2.34 0 0 0 2.6 1.1 5.28 5.28 0 0 0 2-1.09l.13.39c.6 1.7 3.4 2.6 4.3.6.5-1.1.5-2.6 1.1-3.6.9-1.7.6-1.2 2.5-.2 2.6 1.4 4.9-2.5 2.3-4-2.1-1.2-4.2-2.7-6.7-1.5a3.83 3.83 0 0 0-1.63 1.48c-.12-.16-.24-.32-.37-.48a2.38 2.38 0 0 0-3.92.9c-.43-2.3-.45-4.72-.88-7a2.33 2.33 0 0 0-3.3-1.4 7.19 7.19 0 0 0-2.31 2.55c-.06-.25-.12-.5-.19-.75a2 2 0 0 0-3.7-.5 20 20 0 0 0-2.85 7.68 7.33 7.33 0 0 0-.57 2.52c-.09.37-.18.73-.28 1.1h.22v.4a1.71 1.71 0 0 0 1.74 1.79c0 .45.09.9.13 1.35a7.53 7.53 0 0 0-.46-.75.91.91 0 1 0-1.63.73zM151.8 464.1a10.63 10.63 0 0 0 2.21-2.19c.32-.12.64-.25 1-.41a1.73 1.73 0 0 0 .88-2.32c.21-.31.47-.68.71-1.09a4.44 4.44 0 0 0 1.47 2.15c2.3 1.9 5.5-1.3 3.3-3.3-.5-.4-.2-1 0-1.6a2.44 2.44 0 0 0-1.4-3.5 5.27 5.27 0 0 0-4.74 1 2.52 2.52 0 0 0-1.56.63 11.68 11.68 0 0 0-3.57 5.3c-.55.85-1 1.65-1.43 2.3-1.17 1.73 1.23 4.33 3.13 3.03zm6.9-7.6c.3-.3.3.1 0 0zM195.7 482.7c-1.87 2.33-3.67 6.19-6.05 8.8 1.53-3.17 3.61-6.12 2-9.5a2.5 2.5 0 0 0-3.5-.9 22.23 22.23 0 0 0-2.23 1.77c2.67-5.19 6-10.16 5.53-16.17a2.38 2.38 0 0 0-4-1.7c-1.67 1.54-3.08 3.2-4.72 4.65.38-2.79 2.31-6.07 3.12-8 .6-1.3-.1-3.4-1.9-3.2a5.76 5.76 0 0 0-4.1 1.8c-.94.94-1.88 3.12-3.08 4.3a2.3 2.3 0 0 0-2.52 1c-.3.4-.5.7-.8 1.1a2.33 2.33 0 0 0 2 3.5 6.83 6.83 0 0 0 3.26-1.1 8.86 8.86 0 0 0 .34 5.2 2.19 2.19 0 0 0 3.2 1.3 16.09 16.09 0 0 0 3.23-2.12c-1.88 4.67-5.32 9-6.83 13.62a2.54 2.54 0 0 0 1.8 3.1 7.32 7.32 0 0 0 4.36-.64 4.73 4.73 0 0 0-.36.74 14.4 14.4 0 0 0-1.1 6.5c0 1.2 1.1 2.7 2.5 2.5 7.2-.9 10.1-8.3 13.6-13.7 1.35-2.25-2.05-4.95-3.75-2.85zM248.3 197.5c-3.66 1.56-6.58 4.44-9.4 7.25a15.94 15.94 0 0 1-4.94 1.39 18.92 18.92 0 0 1 2.88-4.52 2.1 2.1 0 0 0 2.85 1c2.4-1.1 3.8-3.5 5.3-5.6 1.12-1.44-.57-3.19-2.06-3l.66-1.13a1.9 1.9 0 0 0-3.3-1.9h-.07l-.62 1.09-.68 1a23.62 23.62 0 0 1 1-2.7c.6-1.5-.9-3.8-2.5-2.5-.26.22-.53.41-.79.6a2.19 2.19 0 0 0-2.1 2.16 2.94 2.94 0 0 0-3.41 1.14c-2.7 3.8-5.4 7.6-8.3 11.2-.31.38-.64.82-1 1.27a21.94 21.94 0 0 0 1.79-7.07c.08-2.27-2.22-3.12-3.95-2.39a19.88 19.88 0 0 0 .45-4.41 2.7 2.7 0 0 0-5-1.4 36.15 36.15 0 0 0-3.69 8.61l.15-1.5a21.8 21.8 0 0 0 .44-2.52c.1-3.5-4.9-3.3-5.3 0v.4h-.16a17.7 17.7 0 0 1-.22 2 24.58 24.58 0 0 0-2.28-6.07l-.1-.74-.28.12-.22-.32a2.63 2.63 0 0 0-4.8 2c.3 2 .48 4.93 1 7.84-1-1-2-1.92-2.78-2.84s-1.28-1.62-1.93-2.44l.06-.1a3.88 3.88 0 0 0 2.17-2 10.4 10.4 0 0 0 1-6.32 2.28 2.28 0 0 0 2.39-.48 6 6 0 0 0 2-2.66 15.25 15.25 0 0 0 1 3.7v.06c-.3 1.9 2.2 4.2 3.8 2.2a16.77 16.77 0 0 0 1.26-1.91 9.53 9.53 0 0 0 3-4.33 2.42 2.42 0 0 0 1.77 2.14C219.42 186 222 176 226 175.56c.77 1.87 3.89 1.22 3.89-.86-.1-3.7-3.9-4.6-6.8-3.1-1.73.86-4.62 5.46-6.89 7.08 0-1.62 0-3.23-.11-4.88a2.49 2.49 0 0 0-3.6-2.1 11 11 0 0 0-2.7 1.78 2.37 2.37 0 0 0-1.9 1.52c-.1.27-.18.54-.27.82a20.75 20.75 0 0 0-1.5 2.28 8.41 8.41 0 0 0-2.43-5 2.33 2.33 0 0 0-3.2 0c-1.33 1.54-1.29 4.06-1.86 6-.89-1.49-1.45-3.3-2.14-4.75-.9-2-4.3-1-4.1 1.1 0 .49.25 1.72.52 3.24a3.32 3.32 0 0 0-.3-.14 1.26 1.26 0 0 0-1.63-.16 4.79 4.79 0 0 0-3.39 2.77 11 11 0 0 0 .92 10.82 2.08 2.08 0 0 0 0 1.58c.19.51.41 1 .64 1.46l-.24.14c.27.3.57.66.88 1.07a28 28 0 0 0 1.62 2.49l-2.59-2.2a.91.91 0 0 0-.11-1.16 12.51 12.51 0 0 0-4.9-3 1.38 1.38 0 0 0-1.3 2.3l.45.43a2 2 0 0 0-.15 2.17c3.5 5.9 8.8 10 13.9 14.3 2.8 2.3 6.2 6.1 10.2 5.5a2.38 2.38 0 0 0 1.4-3.5c-1.24-1.69-2.47-3.4-3.7-5.1a5.72 5.72 0 0 0 1.17.43 5.79 5.79 0 0 0 2.13 2.37 2.79 2.79 0 0 0 3.7-1c.28-.37.54-.75.78-1.14h.12a5.59 5.59 0 0 0 1.71 0c-.16.95-.29 1.9-.41 2.87-.2 1.9 2 3 3.6 2.7 3.19-.6 5.63-3.28 7.71-5.74a2.73 2.73 0 0 0 2.23.35 3.12 3.12 0 0 0 2.15 2.39 11.49 11.49 0 0 0 2.13.38 18.08 18.08 0 0 0-3 5c-1.1 3.1 2.9 4.6 5 2.9q2.46-2 5-3.72c2.69-.52 4.79-2 7.28-3.48 2.1-1.3 4.8-2.3 6.1-4.5a2.71 2.71 0 0 0-.8-3.76 3.19 3.19 0 0 0-.39-1.37c.36-.36.71-.71 1.09-1.07 2.69-2.37-.71-5.87-3.61-4.57zm-57-13.6a2.13 2.13 0 0 0-1.43-.15 1.33 1.33 0 0 1 1.36-1.28 4.82 4.82 0 0 0 2.17 1.43 1 1 0 0 0 .37.06c.1.8.18 1.57.22 2.26a7.12 7.12 0 0 0-2.69-2.32zM645.31 377.87l-.15.26c.29-.08.29-.22.15-.26zM644.2 371.9c-2-.43-3.82.82-5.33 2.45-.11-.28-.23-.56-.37-.85a3.15 3.15 0 0 0-2.7-1.6c-4.25.54-7.25 2.64-10.33 5-.16-3 1.17-7.47 1.53-9.34a3.44 3.44 0 0 0-1.5-3.6c-4.32-2.41-7.26 1.66-10.65 3.68-1.15-3.43 0-8.63-5.35-8.88a6.26 6.26 0 0 0-4.8 2.4 11 11 0 0 0-1.75 2.18c-.41-.85-1-1.75-1.25-2.48-.7-1.9-1.3-3.8-2.1-5.6-1.2-2.7-2.9-5.6-6-6.3a3.29 3.29 0 0 0-3.6 1.5 35.83 35.83 0 0 0-2.92 8.32c-.45 1.07-.84 2.17-1.28 3.28l.57.16a3.29 3.29 0 0 0 .23 1.82q-.21.92-.46 1.82a5.36 5.36 0 0 0-1.37 2.42 3.49 3.49 0 0 0-2.79 3 46.27 46.27 0 0 0-4.81-1.4l-1-.71a2.82 2.82 0 0 0-3.77.55 3.65 3.65 0 0 0-1.93 2.05c-1.13 3.51 1.61 7.86 5.3 10.54a2.25 2.25 0 0 0-1.9 2.56c.3 3.2-2 2.6-3.2.4-.5-1-.9-2-1.4-3a12.57 12.57 0 0 0-2.2-3.25l-.3-.65-.19.19a10 10 0 0 0-1.31-1 2.19 2.19 0 0 0-2.29-.18c-.6-1.19-1.23-2.37-1.91-3.52a1.74 1.74 0 0 0-3.2.9v1l-.5.14c.18.25.35.51.53.76.3 6.12 2.89 13.49 7.87 16.84a1.64 1.64 0 0 0 .6.25c.22.42.44.84.7 1.25 1.1 1.8 3.2 3.1 3.7 5.3 1.2.9 3 .4 2.8-.9a7.17 7.17 0 0 0-1.7-3.5 38 38 0 0 1-2.56-4.13c.05-.1.11-.2.15-.3a6.76 6.76 0 0 0 3 1.63 5.81 5.81 0 0 0 3.54-.1 33.79 33.79 0 0 0 2.48 5.77 2.85 2.85 0 0 0 4.4.6c2.11-2.19.87-4.62.75-7.1 3.49.1 7 .59 10.46.85a51.46 51.46 0 0 0-7.4 1.25 2.92 2.92 0 0 0 0 5.6 33 33 0 0 0 15.31.17h.09a19.25 19.25 0 0 0 9.28-.18 17.61 17.61 0 0 0-1 1.56l-.34.22.14.14c-.19.34-.38.69-.54 1.06a3.18 3.18 0 0 0 4.3 4.3c6.14-3.31 11.19-8.1 16.26-12.79a2.61 2.61 0 0 0 3.24-.71l1.15-1.4.35.2a7.63 7.63 0 0 1 .33-1.08 12.78 12.78 0 0 0 1.43-2.33 4.23 4.23 0 0 0 1.13-1 121 121 0 0 0 7.35-10.07 1.86 1.86 0 0 1-.45 0c.23-.28.47-.34.6-.31.27-.45.54-.91.79-1.37a3.16 3.16 0 0 0-1.91-4.48zm-13.3 11.5a7.92 7.92 0 0 0 0 1.19q-1.25 1-2.46 2.06a2.39 2.39 0 0 0-.68 0c-3.46.16-6.54 1.76-9.59 3.52a2.83 2.83 0 0 0-1.31-.22c-.69 0-1.4.11-2.13.19a2.53 2.53 0 0 0-1-1c-4.5-2.3-9.1-1.9-14-1.6-6.4.4-12.8-1-19.2-.8a2.65 2.65 0 0 0-.71.1 11.4 11.4 0 0 0 0-2h-.52a3.13 3.13 0 0 0-.14-.59 7.06 7.06 0 0 0 6.26-.21 3.5 3.5 0 0 0 1.33-1.66 12.29 12.29 0 0 0 1.57.06c2.36-.08 4.5-1.09 5.12-3.2 1.63.76 3.29 1.48 5 2.1 4.1 1.5 10.7 2.3 10.8-3.9a3.21 3.21 0 0 0-2.3-3c-.6-.3-4.7-.9-4.8-1.3-.89-3.38-5.71-2.49-6.08.42-.68-.33-1.35-.67-2-1l-1-.51c-.1-1.74-.45-3.51-.73-5.29a2.29 2.29 0 0 0-.29-.83c.21-.93.41-1.86.61-2.8.27-.76.56-1.49.88-2.27l-.33-.14.13-.56a3 3 0 0 0-.22-2l.1-.35c.82 1.89 1.36 4.33 1.72 5.35.9 2.5 2 5.8 4.6 7.2s5.3 0 7.1-2.1a20.28 20.28 0 0 0 1.3-1.8c1.3-2.1 0 .2-.1 1.2a8.69 8.69 0 0 0 2.7 6.4 3 3 0 0 0 3.1.8 14.74 14.74 0 0 0 4.5-2.3l.81-.55c-.76 4.56-1 9.61 2.39 12.15 1 .8 2.6 1.4 3.8.5 2.21-1.62 4.43-4.06 7-5.43a33.91 33.91 0 0 0-1.23 4.17zm-27.62-7c.36-.84 1.06.45 0 0zM600.4 346.5a20.16 20.16 0 0 1 2.3-.7c2.88-.58 2.3-4.53.12-5.3l.08-.24a2.43 2.43 0 0 0 1.3-.26 1.09 1.09 0 0 1 1.2-.2c3.28 0 3.2-4.55.25-4.89a9.19 9.19 0 0 0-.25-1.81c-.7-2.5-4-2.2-4.8 0-1.3 3.6-3.5 6.9-3.5 10.9 0 1.5 1.7 3.2 3.3 2.5zM1069.7 454.5q-3.23 2-6.44 4a3.67 3.67 0 0 0-4.26-.71 62.35 62.35 0 0 0-8.7 4.9c-.24.17-.54.4-.87.66a8.72 8.72 0 0 0 .27-2 2.9 2.9 0 0 0-.77-2c4.61-.86 8.11-4.24 12.17-6.4l-.14-.19c.25-.2.5-.4.74-.61a3.08 3.08 0 0 0-.09-4.69l.79-.71a3.44 3.44 0 0 0-2.4-5.8 18 18 0 0 0-7.76 2.25c.63-3.74 1.28-7.24-2.24-10.55a13.4 13.4 0 0 0-7.4-3.2c-.76-.07-3.92.24-6 .25 3-5.19 6.52-10 9.76-15 2.2-3.5-2.5-6.3-5.3-4.1s-4.7 5.3-6.9 8.2a3.33 3.33 0 0 0-.67 2.72c-.77 1.17-1.52 2.36-2.23 3.58-2 3.4-4.4 7-.6 10 2.8 2.2 6.5 1.1 9.8 1.2 3.8.2 6.1 1.8 5.3 5.8a22.24 22.24 0 0 0-.8 6.8 4 4 0 0 0 .19.86c-2.28.61-4.53 1.36-6.77 2.16-.31.06-.61.13-.92.18a9.73 9.73 0 0 1-1.37.16c2.69-2.9 5.53-5.64 8.17-8.56 1.9-2 .6-5.7-2.3-5.6-4.75.08-8.67 4-12.28 7.14-2-.91-3.67-.13-5.92.46s-2.1.5-3.9-1.4c-.42-.42-.82-.84-1.22-1.26a26.6 26.6 0 0 0-.85-2.76l-.13-.48h-.09a3.55 3.55 0 0 0-4.94-1.42c-3.91-2.17-8.81-3.43-11.47.9-2.8 4.5 1.1 11.4 5.3 13.5a3.84 3.84 0 0 0 2 .4 11.68 11.68 0 0 0 1.13 1.9c1.24 1.73 4.24 2.23 5.59.56a4 4 0 0 0 1.71-1.36l.07-.12a7.54 7.54 0 0 0 4 1.82 8.87 8.87 0 0 0 2.08 0 11.26 11.26 0 0 0 1.15 3.23 27.05 27.05 0 0 0 2.17 7.07 3.57 3.57 0 0 0 3.8 1.6 5.86 5.86 0 0 0 3.9-2.6 27.35 27.35 0 0 0 1.43-2.77 32.62 32.62 0 0 1 1 4.11 45.86 45.86 0 0 1-4 4.05c-2.2 2-4.72 4.3-7.69 4.62a99.26 99.26 0 0 0-10-8c-1.19-.85-3.3-2.48-5.62-3.84-1.87-3.18-3.88-6.21-5.88-9-1.4-1.9-5.4-1.6-5.1 1.4.07.61.19 1.21.31 1.8a25.89 25.89 0 0 0 1.47 4.64 4.33 4.33 0 0 0-.58.84c-3.5 6.5 8.2 18.8 14 20.3l.18.1c1.5.7 3.9.3 4.2-1.7a19.36 19.36 0 0 0 .24-3.13 12.18 12.18 0 0 0 6.91 2.11c.57.5 1.14 1 1.75 1.42 2.3 1.7 5 1.4 7.4 2.8 2 .7 3.7-2.3 1.8-3.4-1.6-1-2.8-1-4.5-1.5a6.68 6.68 0 0 1-1.38-.57 25.51 25.51 0 0 0 5.63-3.91c0 .09 0 .18-.05.28a3.21 3.21 0 0 0 3.9 3.9 18.3 18.3 0 0 0 3.84-1 2.73 2.73 0 0 0 3.16.81 11.9 11.9 0 0 0 3.82-2.39c.47-.35.93-.71 1.39-1.08a2.78 2.78 0 0 0 4 .57c6.9-5.2 14.2-10 18.8-17.5a3.54 3.54 0 0 0-4.79-4.74zm-27.89 6.67c0-.31-.09-.59-.14-.82a3.51 3.51 0 0 0 .65.39zM1212.68 350.18a15.72 15.72 0 0 0 1.92-3.18 6.61 6.61 0 0 0-3.4-7.7c-2.82-1.39-6.31-1.06-9.89-.06h-.44c2-2.08.24-6.31-2.78-6.12a20.37 20.37 0 0 0-2.12.31l.21-.19a12.22 12.22 0 0 0 3.42-3.82c1.1-2-.3-3.8-2.3-4.1a21.08 21.08 0 0 0-2.37-.17 9.67 9.67 0 0 0 .85-1 35.46 35.46 0 0 1 9.22.76c3.8.7 5.4-5.1 1.6-5.8a49.26 49.26 0 0 0-8.6-1 13 13 0 0 0-1.86.17 3.1 3.1 0 0 0-3.14-1.07 15.23 15.23 0 0 0-6.2 2.1 3.06 3.06 0 0 0-.43 4.73c-.46.26-.93.53-1.37.77-2.1 1.1-4.2 2-6.2 3.3a2.81 2.81 0 0 0 2.2 5.1l1.53-.38a6.86 6.86 0 0 0-.86 6.66c-1.4.73-2.77 1.53-4.12 2.35-.68.34-1.36.67-2 1l.13.23c-3 2-1.4 5.87 1.5 6.44-2.1 2.5-.2 7.2 3.5 6 1.52-.49 3-1.06 4.5-1.67l-1.26 1c-2.56.53-5.11 1.13-7.66 1.77a4.33 4.33 0 0 0-1.2-3 13.75 13.75 0 0 0-2.3-9.41l.15-.23.68-.65-.16-.13.76-1.17c1.71-2.6-.73-5.42-3.28-5.51 1.78-1.36 1.92-4.82-.92-5.69-3.2-1-4.6-2.5-6.8-4.8a2.93 2.93 0 0 0-2.74-.84 3.07 3.07 0 0 0-4.56-2 21 21 0 0 0-2.9 2.3c-.5-2.5-4.2-2.8-5.3-.7a4.08 4.08 0 0 1-.65 1 11 11 0 0 0-.13-1.42v-.22l.15-.41h-.09a2.8 2.8 0 0 0-1.61-3 9 9 0 0 0-.9-1c-4.2-4.2-9.4 0-11.4 4.1s-2 10.9 4.1 11.3a6.31 6.31 0 0 0 5.07-2.09 20.73 20.73 0 0 0-.87 5.69c.2 2.2 3.8 2.2 3.8-.1a28.12 28.12 0 0 1 .87-5.82 5.19 5.19 0 0 0 3-.91 5.74 5.74 0 0 0 .8 1 8 8 0 0 0 .13.82c.4 1.8 2.2 2.4 3.8 2.2 2.64-.44 4.47-2 6.48-3.4a9.4 9.4 0 0 0 2 2.2c1.7 1.3 4 1.7 6 2.3a3.48 3.48 0 0 0 .67.14 3.63 3.63 0 0 0-.57.47 14 14 0 0 0-1.39 1.37c-2.56-1.11-5.12-.69-6.71 2.33a3.75 3.75 0 0 0 0 3.7 7.26 7.26 0 0 0 2.18 2.16q-.92 1.53-1.76 3.09l-.32-.25c-2.9-2.2-7.3-7.1-11.4-4.5a3.55 3.55 0 0 0-1.56 4.15 6.91 6.91 0 0 0-.59-.45 28.08 28.08 0 0 0-3.35-4.51 3.2 3.2 0 0 0-4.73 0 8.58 8.58 0 0 0-2.77-.92c-3.6-.6-6.1 2.4-7.4 5.4-1.7 4.1-.5 7.1 2.4 10.1 2.2 2.9 5.2-.2 3.3-2.3-2.75-2.95-1.44-9.18 3.16-6.25a3.08 3.08 0 0 0 .44 2l.4.7.11.18.46.8c.31 7.15 5.58 19.07 11.57 16.72a33.34 33.34 0 0 0 8 5.93 9.21 9.21 0 0 0 5.79 1.78 3.46 3.46 0 0 0 3.13-2.39 3.09 3.09 0 0 0 2.67.29l1-.32.17-.08c1.8-.58 3.62-1.12 5.45-1.62a3 3 0 0 0 2 1.19 22.77 22.77 0 0 0 6.52.13 3.27 3.27 0 0 0 3.58 3.27c4.6-.2 8.2-2.5 12.4-4 3.4-1.3 6.4-2.5 8.4-5.7a11.17 11.17 0 0 0-2.63-6.39 14.38 14.38 0 0 0 4-3.89c.87-.46 1.73-.93 2.58-1.41a22 22 0 0 0 2.15-1c3.72-2.18.88-7.68-2.91-6.76zm-74-21.48c-3.5 3.5-2.2-3.7-.4-5.2 1.4-1.19 2.41-1.24 3.13-.7-.63 1.96-1.33 4.52-2.71 5.9zm12.74 23.88c-.58.11-.55-.25 0 0zm16.63-1.14a1.94 1.94 0 0 1-.85 1.53q.43-.77.87-1.53zm8.5 14.15a18.19 18.19 0 0 0-3.07 1.2 3.11 3.11 0 0 0-.79.58q-2.81 1.3-5.61 2.62a2.91 2.91 0 0 0-1.69 2.06l-1.29-1.19-.13-.35a18.85 18.85 0 0 0 5.8-4.34c3.61-.95 7.26-2 10.93-2.87.09.08.18.17.28.24zm8-27.55a4.54 4.54 0 0 1-.06-1.09 2.65 2.65 0 0 0 .62.78z"/><path class="cls-1" d="M1168.3 320.9c3 .94 4.41-3.47 2-4.78-.23-2.92 2-5.34 2.92-8.07a7.68 7.68 0 0 1 1.42-.05c3.2.2.5 4.4-.7 5.8s.9 3.6 2.1 2.2c2.5-2.9 5.5-9.5-.1-10.9a9.11 9.11 0 0 0-2.55-.25c-.77-1.38-3.13-1.69-4-.05-.19.38-.39.77-.61 1.16a4.73 4.73 0 0 0-2.89 3.94 1.72 1.72 0 0 0 .39 1.22 15.15 15.15 0 0 0-1 3 8.37 8.37 0 0 0 .2 4.7c.52 1.38 1.52 1.68 2.82 2.08zM1402.2 224.3c-3.7-8.83-13.6-1.66-21.28.59 1.74-2.16-.81-6.21-3.62-5.09a74.4 74.4 0 0 0-10.06 5.1c.15-.17.31-.33.46-.5a3.32 3.32 0 0 0-2.3-5.6 10.23 10.23 0 0 0-5.54 1.08c-.09-2.23-2.79-4.52-5.06-3-1 .68-2 1.34-3.05 2-.07-2.53-3.35-4.69-5.65-2.39l-3.91 3.92a3.75 3.75 0 0 0-1.33-1.12 38.32 38.32 0 0 0 4-5.8l.06-.13c1.64 1.66 5.2.24 4.44-2.57-.8-3-.1-5 1.6-7.5a2.47 2.47 0 0 0-1.53-3.77c-3.09-3.85-7.3-5.43-11.84-5.8a2.76 2.76 0 0 0-3.18-.08c-1.21 0-2.43.12-3.65.26a11.7 11.7 0 0 0-4.18 1 2.94 2.94 0 0 0-3.42 1c-1.6 2.4-1.6 5.4-2.6 8-1.2 3.1-1.95.09-1.94-2.58a29 29 0 0 0 .74-3.52c.43-2.31-2.22-4.1-3.93-2.88-1.78-3.2-4.21-5.5-7.27-4.32-7.6 2.8.8 13.6 4.5 15.8a2.29 2.29 0 0 0 1.5.29c.07.18.14.34.22.51a2.7 2.7 0 0 0-.72 2.2c.09.9.21 1.79.33 2.68-1.88-1.59-5.07-.84-5.79 1.28l-3.73-4.57c-2.4-2.9-7 .8-5.1 3.9l.44.72-.24.18 1.19 1.39.28.47q-1.26-1-2.56-1.95c-.37-.27-.72-.54-1.1-.8-2.1-1.5-4.6 1.4-3.4 3.4a66.93 66.93 0 0 0 6.72 9 12.61 12.61 0 0 1-1.32-.37c-3.8-1.3-5.4 4.7-1.7 6 2.17.8 5.35.59 8.22.82.29.42.56.84.83 1.26-.08.11-.17.21-.25.32a3.2 3.2 0 0 0 .5 3.8 12.85 12.85 0 0 0 2.94 2.17 10 10 0 0 0 2.76 3.73 1.67 1.67 0 0 0 .74.34 66.28 66.28 0 0 0-4.64 5.66 3 3 0 0 0 1.8 4.4c7.1 1.2 13.8-.1 20.8-1.6.62-.14 1.73-.41 3.11-.7a3.28 3.28 0 0 0 3 2.1 70.44 70.44 0 0 0 13.94-1.74 2.9 2.9 0 0 1 .15 2.44c-.6 2 1.5 4.3 3.5 3.5 5.6-2.1 15-3.4 17.1-9.9a3.05 3.05 0 0 0-2.9-3.8c-2.75.09-5.5.27-8.24.49a2.59 2.59 0 0 0-1.66-1 15.14 15.14 0 0 0-4.29-.18 2.67 2.67 0 0 0 0-2.13c.94.21 1.88.42 2.83.61 9.76 2.2 18.52-.27 27.76-3.21.48-.11 1-.21 1.44-.29v-.17a2.94 2.94 0 0 0 2.11-2.92c4.19-2.18 8.45-4.21 12.23-7.21a3.16 3.16 0 0 0 .74-3.22zm-88.79-23.43a10.14 10.14 0 0 1-2.2-2.59c-.6-1-3-4.9.1-2.1a12.31 12.31 0 0 1 2.31 3 15.51 15.51 0 0 0-.21 1.69zm1.5 40.52a1.43 1.43 0 0 0-.21-.29l-.05-.06.42.15zm12.29-37.69c.14-1 .32-2 .49-3l.61.44c1.5 1.2 3.6-1.4 2.1-2.7a3.06 3.06 0 0 1-.45-.39h.05c.66-.1 1.34-.18 2-.24-1.66 3.29-3.27 6.65-5.19 9.82.08-1.34.19-2.63.39-3.93zm-9.92 44.14l1.75-2a2.6 2.6 0 0 0 2.68 1.53l2-.19h.08a40.58 40.58 0 0 1-6.51.66zm7.53-18.71l-.31-1.09.59.65zm4.82 9.36q-.54-.7-1.1-1.39a7.31 7.31 0 0 0 .72-.44h.31a2.59 2.59 0 0 0 2.15 1.13q-1.04.37-2.09.7zm3.17-24.39c-2.06 1.73-4.46 3.2-6.3 5.18a20.45 20.45 0 0 1-1-2c-.17-.37-.33-.76-.49-1.14h.09a2.51 2.51 0 0 0 2.6-.7 53.83 53.83 0 0 0 3.58-5.33 5.8 5.8 0 0 0 1.62 2.13 5.19 5.19 0 0 0 1.16.72zm3.3-7c-1.18-1.52.91-6.52 2-9.31a13.72 13.72 0 0 1 7.49 3.46c-2.69 2.65-7.97 7.87-9.49 5.85zm22.51 43.15l-1.06.3v-.2zm21.5-17.66c-.2.13-.41.25-.6.39a3.67 3.67 0 0 0-1 1c-5.57 1.68-10.94 2.65-16.92 1.88 3.09-1.85 6.13-3.78 9.26-5.56a2.8 2.8 0 0 0 .42.29c3.67 2.1 7.28 1.73 11 .65q-1.1.65-2.15 1.36z"/><path class="cls-1" d="M1345 184c1-.19 2-.41 2.93-.65.58 1.59 1.74 2.78 2.53 4.18-3.4 1.25-7.4 2.12-6.07 6.86.8 3 5.4 1.7 4.6-1.3-.1-.3 5-1.7 5.9-2.1a2.4 2.4 0 0 0 1.2-2.2 6.68 6.68 0 0 0-1-3.3c-.46-.73-1.36-1.5-1.94-2.32.38-.13.78-.25 1.2-.35 3.51.29 7 .17 8.44.17a2.68 2.68 0 0 0 2.42-3.2l.58-.2c1.7-.6 2.3-3.7 0-4.1a58.63 58.63 0 0 0-19.6-.2 2.47 2.47 0 0 0-1.7 2.2 3.08 3.08 0 0 0 .66 2.28c-.52.11-1 .23-1.56.32-2.29.41-1.19 4.31 1.41 3.91zM1361.9 207.7c-2.2 1.8 1 5 2.9 2.9l.22-.26a2.31 2.31 0 0 0 1.83.86 4 4 0 0 0 1 .7 2 2 0 0 0 2.1 0 10 10 0 0 0 1.5-1.34 2.5 2.5 0 0 0 .53 1.35 14.58 14.58 0 0 0-3.62 3.9c-1.4 2.3 1.3 4.6 3.5 3.5 2.39-1.24 5.66-3.16 6.91-5.87a1.59 1.59 0 0 0 1.61-1h.08c1.7-1 1.6-4.1-.6-4.5-.23 0-.46-.06-.69-.09a7.6 7.6 0 0 0-.87-2.25 2.59 2.59 0 0 0 .16-.56 7.35 7.35 0 0 0-.2-3.6c-.4-1.1-1.7-2.2-2.9-1.7a7.5 7.5 0 0 0-2.79 2 3.15 3.15 0 0 0-1 .09 1.81 1.81 0 0 0-1.53-.77c-3.44.24-5.84 4.34-8.14 6.64zM329 375.4c2.13-.29 4.27-.53 6.4-.82.2 1.6 1.6 3.4 3.5 2.7 9.69-3.6 19.72-6.19 29.39-9.71a14.44 14.44 0 0 1 1.91-.39v-.3l.54-.2c2.7-1 2.6-5.8-.7-5.5a45.46 45.46 0 0 0-6.74 1.37 23.72 23.72 0 0 0 5.2-3.71l.34-.06-.12-.15a13.76 13.76 0 0 0 1-1.15c1.29-1.58.71-5.13-1.93-4.8 1.59-.69 3.11-1.44 4.43-2l-.32-.55c3-1.54.29-5.84-2.78-4.55l-1.09.53a14.54 14.54 0 0 0 2.09-3 2.77 2.77 0 0 0-2.4-4.1c-3.88-.17-7.27 1.6-10.54 3.86a3 3 0 0 0-4.36-.76c-1.22 1-2.42 1.93-3.63 2.89.11-.23.23-.46.33-.69 1.2-3-3.3-4.4-4.9-2.1l-.31.43-.29-.13c-1.06 2.61-4.55 4.38-6.86 5.94a3 3 0 0 0-1.51-1 11.51 11.51 0 0 0 .17-4.39 2.56 2.56 0 0 0-4.3-1.1c-3.23 4-5.15 8.39-7.14 12.92a16.93 16.93 0 0 0-3.57 2.33c-.3-.72-.59-1.47-.84-2.13 2.58-3.75-2.47-12.83-5.75-14.82a2.56 2.56 0 0 0-3.7 2.9c.45 1.28.89 2.56 1.32 3.84a50.66 50.66 0 0 1-4.42-3.24 2.51 2.51 0 0 0-4.06 1l-3.14-4.16a2.48 2.48 0 0 0-4.3.37q-1-1.64-2.1-3.27a2 2 0 0 0-3.7 1.6c.67 3.58 2.78 6.82 5 9.81a1.73 1.73 0 0 0 .22.59 49.82 49.82 0 0 0 5.9 8.31l.1.19.36.43a2 2 0 0 0 .47.39c2.22 3.16 4.46 6.3 6.83 9.31 1.4 1.8 4.7-.2 3.9-2.3-.58-1.57-1.27-3.07-2-4.56 1 1.06 2.06 2.1 3.13 3.12a3.3 3.3 0 0 0 2 3.24c1.65.67 6.49 1 9.09-.2 3 .33 6 .47 9.12.66l-4.78 1.38-1.33.16v.22l-.63.18c-3.5.97-2 5.67 1.5 5.17zm22.21-10.47c-.53-.05-.31-.51 0 0zm-19.89-6.61c1.82-.76 3.87-1.7 5.95-2.82.36 1.34 2.06 2.49 3.33 1.89.79-.33 1.56-.69 2.32-1.08a2.66 2.66 0 0 0 2.48.58c4.08-1 7.57-3.68 11.06-5.88a2.72 2.72 0 0 0 .33 1.43q-3 1.56-6 3.14c-2.8 1.6-7.2 3.2-8.2 6.6a2.52 2.52 0 0 0 0 1.56l-.59-.08a2.79 2.79 0 0 0-1.8-3.66 42.7 42.7 0 0 0-8.88-1.68z"/><path class="cls-1" d="M307.5 333.9a4.11 4.11 0 0 0 2.18-2.41 6.61 6.61 0 0 0 3.75 1.87 26.47 26.47 0 0 0 6 6.54c1.3 1 3.8.5 3.7-1.5a29.58 29.58 0 0 0-1-6.28 4.63 4.63 0 0 1 .44.78l.24-.1c.09.2.15.4.26.6 1.1 2.2 5 .6 4-1.7a12.38 12.38 0 0 0-1-1.95 5.3 5.3 0 0 1 1.65-4.53 2.66 2.66 0 0 0 1.48 3.78l1.06.16c0 .08 0 .15-.06.24a2.9 2.9 0 0 0 1.3 3.2 25.22 25.22 0 0 0 5.4 1.8c-.06.1-.13.19-.2.3a2.92 2.92 0 0 0 1.7 4.2c3.1.9 5.5.4 8.7-.4 3.8-.9 7.6-1.4 11.3-2.3 3.5-.8 2-6-1.5-5.3-2.6.5-5.3.9-7.9 1.4-.66.12-1.35.29-2.06.46a3.44 3.44 0 0 0-2.84-3c-1.67-.2-3.28-.37-4.87-.66l.37-.13c5.82-.84 11.55-3.19 13-8a2.5 2.5 0 0 0-.6-2.3c-.17-.15-.34-.27-.51-.41a2.62 2.62 0 0 0-1.29-2.49 12 12 0 0 0-7.18-.88 22.54 22.54 0 0 0-11.42 2.48c-3.74 1.81-7.38 4.64-8.92 8.17a30.27 30.27 0 0 1-4.58-5.77c-1.2-2.1-4.8-.7-4 1.7l.17.48-.27.12q.41.75.85 1.47c1 2.67 2.09 5.34 2.93 8.09a37.91 37.91 0 0 1-4.78-9.53l-.35.14-.35-.64a2.2 2.2 0 0 0-3.88.46 1.68 1.68 0 0 0-1.62 2l-.59.07a15.33 15.33 0 0 0 1.47 4.63 2 2 0 0 1-.07.37c-.6 1.6-2.8 2.1-4.3 1.7a10.44 10.44 0 0 1-4.3-3.5c-1.5-1.4-3.8-.1-2.8 1.2 2.29 3.07 7.09 7.37 11.29 5.37zm23.79-11.43a23.16 23.16 0 0 0-2.39 1.57 18.29 18.29 0 0 1 2.39-1.57z"/><path class="cls-1" d="M357.09 324.59a9.67 9.67 0 0 0-.09 2.11c.2 1.9 3.1 1.9 3 0a8 8 0 0 1 .06-1.48 16.84 16.84 0 0 0 4.84-1.32c2.4-.9 1.4-4.9-1.1-3.9-.49.21-1.14.53-1.83.83.53-.75 1.12-1.51 1.73-2.33a1.5 1.5 0 0 0-1.7-2.2 11.89 11.89 0 0 0-6.1 5.6 1.83 1.83 0 0 0 .3 2.1 5.67 5.67 0 0 0 .89.59zM421.5 642.1l.1-.2a3.21 3.21 0 0 0-2.87-4.76c.56-.58 1.12-1.15 1.67-1.74 2.4-2.6-.7-7-3.9-5-3.42 2.07-7.28 4.68-11.27 6.82 1.08-1.57 2.13-3.16 3.07-4.82 1.5-2.7-1.6-6.1-4.3-4.3-1.4.89-2.83 1.71-4.27 2.52A3 3 0 0 0 396 627c-5 1.13-8.9 4.46-13 7.43-.27-2.57 1-5 .7-7.53a3.36 3.36 0 0 0-3.2-3.2c-2.7-.2-6.3 2-8.6.4a4 4 0 0 1-.5-.4c1-1.23 2-2.45 3.06-3.65l1.93-.65a1 1 0 0 0 .16-1.65l.14-.15c3.2-3.4 7.7-5.2 10.8-8.7a2.58 2.58 0 0 0 .2-.28c.27-.07.53-.13.8-.22 2.25-.75 2.83-4.41.5-5.27a2.62 2.62 0 0 0-2.6-1.63h-.78v-.12l-.34.13A80.72 80.72 0 0 0 374.2 603a2.29 2.29 0 0 0-1.11.6c-5.7.5-11.29-.5-17-.6-3-.1-3.8 4.7-.7 5.3l.61.13v.07h.49A70.71 70.71 0 0 0 372 610c.76 0 1.53-.06 2.3-.13a10.5 10.5 0 0 0 1.06.9 17.71 17.71 0 0 0-2.86 2.33c-1.74 1.79-3.39 3.71-5 5.63a3.25 3.25 0 0 0-4.75.77 8.54 8.54 0 0 0-1.19 2.35l-.91.25c-3.24.86-6.58 2.19-9.95 2.68-2.4-1.9-5.73-2.57-5.65 1.92a1.75 1.75 0 0 0 1.7 1.7c.41 0 .82 0 1.23-.07A37.32 37.32 0 0 0 359.7 637c2.7 1.3 5-2.7 2.3-4a40.89 40.89 0 0 1-9-5.76c2.17-.7 4.3-1.57 6.45-2.24l1.55-.5a15.44 15.44 0 0 0 .25 3.1c.5 2.4 3.8 3 5.4 1.4.28-.28.55-.57.82-.86a8.22 8.22 0 0 0 2.58 2.06 6.61 6.61 0 0 0 1.12.43 60.14 60.14 0 0 0-8.12 11.07c-1.77 3.1-2.76 8.47-5.89 10.7q-.58-.72-1.11-1.47a41.75 41.75 0 0 0-6-12.87c-.16-.49-.32-1-.48-1.46l-.4.23c-.23-.31-.46-.62-.7-.93-1.4-1.8-4.4.2-3.8 2.2a78.46 78.46 0 0 0 4.11 10.69q-1.11-1.05-2.16-2.17l-.45-.61c-1.9-2.56-3.61-5.25-6-7.24l-.49-.66-.15.15c-.31-.23-.62-.45-.95-.65-1.8-1.1-4.3 1.2-3 3a78.27 78.27 0 0 0 11.67 13.32l.47.63c-1.92-1.36-3.79-2.81-5.63-4.32q-5.32-5.42-10.63-10.84l-.08-.2h-.07l-.83-.84c-1.4-1.4-4.2 0-3.5 2a17.22 17.22 0 0 0 3.88 5.9 1.49 1.49 0 0 0 .12 1.4 51.28 51.28 0 0 0 17.93 16.36 1 1 0 0 1 0 .74c-1.6 2.9-12.6-4.9-14.2-6a1.07 1.07 0 0 0-1.6.9c0 4.2.1 8.5 2.6 12 .3 1.3 2.1.3 1.4-.8-1.89-2.7-2.22-5.75-2.23-8.9 4.45 3.36 11.71 8.39 16.23 4.4a1.32 1.32 0 0 0 .34-1.13h.06a2.14 2.14 0 0 0 3.06-1.75 2.09 2.09 0 0 0 1.64-3.15c-.15-.28-.32-.55-.48-.82l.08-.08-.19-.1-.33-.57a2.32 2.32 0 0 0 1.35-.72h.07c4.17-1.48 6.11-4.68 7.88-8.4.81 1.3 2.62 1.36 3.92.8s2.54-1.24 3.77-1.92a18.75 18.75 0 0 0-1.37 2.12c-1.3 2.4.9 5.5 3.6 4.7.79-.23 1.57-.48 2.34-.75a3.4 3.4 0 0 0 2.26.95 26.14 26.14 0 0 0 3.94-.1 3.27 3.27 0 0 0 4.06 3.4c.4-.1.79-.23 1.18-.35v.05l.21-.12a36.15 36.15 0 0 0 6.21-2.64 3.15 3.15 0 0 0 3.18 2.76c.23 0 .46 0 .69-.06a3.05 3.05 0 0 0 4.11.86 72.11 72.11 0 0 0 9-5.78c3.6-1.92 7.46-3.61 10.46-6.52a3.12 3.12 0 0 0-.65-4.94zm-50.16.2c1.31-1.79 3.1-3.56 3.76-4.49a22.29 22.29 0 0 0 1.81-2.81 8.83 8.83 0 0 0 .59 3.31c-2.01 1.39-4.06 2.69-6.16 3.98zm37.09 5.52l-1.51 1 .91-1q.83-.48 1.67-.92-.5.46-1.07.91zM545.5 199.1a22.79 22.79 0 0 0-2.67 1.41 4.22 4.22 0 0 0-1.53.39c-2.86 1.35-5.67 2.79-8.48 4.23a34.78 34.78 0 0 1 4.68-8.13 37.14 37.14 0 0 0 3-4.11l.1-.09a7.51 7.51 0 0 0 .94-2.78c.3-3.4-4.1-4.5-6.2-2.6s-4.25 3.69-6.41 5.47c.47-.68 1-1.34 1.44-2l.78-.78-.15-.11.52-.71c2.5-3.5-2.9-7.3-5.8-4.4-1.62 1.62-3.27 3.94-5.14 5.85 1.48-4 4.24-8 5-11.85.4-1.8-.5-4.2-2.6-4.5a9.35 9.35 0 0 0-6.9 1.58 3.6 3.6 0 0 0-1.7-2.68c-.4-.3-.8-.5-1.2-.8a3.75 3.75 0 0 0-3.7 0c-4.9 2.7-4.8 9.7-4 14.5.4 2.6 3.5 3.1 5.5 2.2a16.17 16.17 0 0 0 4.22-3c-1.69 3.88-3.15 7.74-2.42 12.37a2.67 2.67 0 0 0 .2.7 4.28 4.28 0 0 0-.5-.1c-4.3-.5-8.5-.1-12.7-1-2.6-.5-5-.8-7.4.4a2.91 2.91 0 0 0-1 4c.6 1 1.28 1.88 2 2.8l-.37-.18c-.65-.72-1.32-1.45-2-2.22-3-3.4-5.7-6.7-9.5-9.3a2.41 2.41 0 0 0-3.6 1.2 36.23 36.23 0 0 0-4.3-2.9c-1-.6-2.8-.1-3 1.2-.7 4.4 4.1 8.1 7 10.6 1.32 1.11 2.65 2.2 4 3.27a1.66 1.66 0 0 0 .4.83c1.75 1.91 3.3 4.16 5.61 5.27l.19.33.14-.17a6.78 6.78 0 0 0 1.16.37 1.83 1.83 0 0 0 1.66-.49c1 .53 2 1 3 1.49a2.9 2.9 0 0 0 1.6.2v.2c.7 6.4 11.4 6.3 16 6.7 1.06.09 2.14.17 3.21.25a122.65 122.65 0 0 0 20.49 2.25c3 0 4.8-4.8 1.7-6.1a16.5 16.5 0 0 0-1.75-.62l.05-.18h-.21c2-1.57 4.06-3.18 6-4.89a27.08 27.08 0 0 0 4.18-4.27 27.69 27.69 0 0 0 2.93-1.86l.39-.17v-.08a17.64 17.64 0 0 0 1.55-1.32c3.19-3.07-.91-7.17-4.41-5.67zm-11-10c.06-.33.08-.24 0 0zM502 210a2.31 2.31 0 0 0-.11-1.31 26 26 0 0 0-2.8-5.35c1 .29 2 .62 2.7.75a60.49 60.49 0 0 0 7 .33c-1.29 2.25-4.05 4.13-6.79 5.58zm22.59-1.71v.18c-2.39.79-4.77 1.57-7.18 2.22a64.42 64.42 0 0 1-7.2 1.44c3.13-2.64 5.45-5.93 5.3-9.94a3.32 3.32 0 0 0-.26-1.13 4.7 4.7 0 0 0 2.06.13c.35-.06.68-.15 1-.24a12.17 12.17 0 0 0 .09 1.44c.3 2.7 2.9 4.7 5.5 3.2.58-.33 1.14-.68 1.7-1a34.89 34.89 0 0 0-1 3.71z"/></svg>