<svg id="Layer_1" data-name="Layer 1" xmlns="http://www.w3.org/2000/svg" viewBox="0 0 1440 712"><defs><style>.cls-1{fill:#ff9d08}</style></defs><title>Artboard 1</title><path class="cls-1" d="M103.8 223.6c-.1-9.7.2-19.3 0-29s-1.2-19.5-2-29.2c-1.6-19.4-2.9-38.8-4.4-58.2-1-10.6-2.2-21.2-3.4-31.7-.5-4.3-1-8.6-1.7-12.9q-.6-3.9-1.5-7.8c-.07-.28-.43-1.37-.76-2.65.69-.17 1.37-.34 2.06-.45 2.61-.46 5.57-1.22 7.12-3.31l.68-.09c1.41-.28 1.57-1.88.93-2.9a5.17 5.17 0 0 0 2.57-3.6 1.76 1.76 0 0 0-.8-2c-5.6-3.64-13.48-3.12-19.83-.8a18.58 18.58 0 0 0-8 .2 1.76 1.76 0 0 0-1.25 1.59 5.78 5.78 0 0 0-2.82 1.61c-1.57 1.72-1.54 3.14-.7 4.29a2.14 2.14 0 0 0 .5 2.91c2.8 2 6 2.6 9.3 3.3a2.2 2.2 0 0 0 1.88-.5c1.54.26 2.93.92 4.72.6h.09l.11.32c2.9 9.8 3.6 20.2 4.7 30.3 2.2 21 3.4 42.1 5.4 63.2 1.9 20.8 3.8 41.4 3.7 62.3a626.78 626.78 0 0 0 2.6 62.8c2.2 22.9 5.4 45.9 10.6 68.3.5 2 3.5 1.2 3.1-.9-7.4-38.32-12.5-76.72-12.9-115.72zM83.7 49.4c-1.1-.2-2-.8-3.2-.8a1.93 1.93 0 0 0-.81.19 1.67 1.67 0 0 0-1.29-2.19 20.52 20.52 0 0 0-4.16-.76c-.54-.31-.5-.65.81-1a15.36 15.36 0 0 0 1.58.48 1.47 1.47 0 0 0 .77.43v.14c.56 0 1.1 0 1.64-.06a2.57 2.57 0 0 0 1 1.46 10 10 0 0 0 5.1 1.71q0 .19.08.39a5.93 5.93 0 0 1-1.52.01zm10.5-3.1a12.25 12.25 0 0 0-1-.74 1.89 1.89 0 0 0-1.4-2.36 8.42 8.42 0 0 0-2.93.08 2.09 2.09 0 0 0-.16-2.08 17.12 17.12 0 0 1 10.45 1 2.43 2.43 0 0 1-1.66.8 1.94 1.94 0 0 0-1.33 1.92 2 2 0 0 0-.27 1.58c-1.36 1.42-4.28 1.63-6.38 1.89a8.36 8.36 0 0 0 3-1.77c.26.14.52.29.76.46.82.42 1.42-.38.92-.78zM235.3 298.8c-.3-14.1-1.1-28.1-2-42.1-1.8-27.6-3.9-55.1-7.9-82.4-2-13.8-4.2-27.7-6.6-41.5a61.41 61.41 0 0 0-5-16.8c-1-1.9-3.6-4.5-4.1-6.5a3 3 0 0 1-.06-.8c2.27 0 4.58-1 5.25-2.8a13 13 0 0 0 1.7-1.5 1.42 1.42 0 0 0 0-2 7.73 7.73 0 0 0-3.44-1.4l-.37-.07a12.18 12.18 0 0 0-3.31 0 7.52 7.52 0 0 0-5.79 1.32 13.45 13.45 0 0 0-3.09.39.89.89 0 0 0-.6 1 3.92 3.92 0 0 0 2 2.18 1.3 1.3 0 0 0 .89 1.12 17.26 17.26 0 0 0 3 .89 4.51 4.51 0 0 0 .45.26 6.05 6.05 0 0 0 .12 2.35c.6 2.1 2.8 3.9 3.8 5.9a47.45 47.45 0 0 1 3.3 8.1A119.15 119.15 0 0 1 217 143c2 14.4 4.8 28.7 6.6 43.2 1.8 14.7 3.2 29.5 4.4 44.3 2.4 29.9 4.3 59.9 4.1 89.9-.2 30.2 3.3 60.5 5.8 90.6 2.8 33.9 6.5 67.8 9.4 101.7.2 2.2 3.7 2.3 3.5 0-3.5-57-11.6-113.6-14.8-170.6-.8-14.4-.4-28.9-.7-43.3zM374.2 566.5c-.5-16.2-2.5-32.2-3.7-48.4-2.5-32.1-4.3-64.3-5.1-96.5s-1-64.6-.5-96.9c.3-16.1.4-32.2 1-48.3.6-15.6 1-31.2.3-46.7-.9-18.2-1.8-36.3-2.3-54.5-.2-8.8-.7-17.5-1.2-26.2-.28-4.42-.31-8.93-.72-13.38a2.69 2.69 0 0 0-.21-2q-.09-.73-.19-1.45c2.33-1.23 3.83-3.14 3.32-5.68a4.41 4.41 0 0 0-.53-1.41 3.76 3.76 0 0 0 0-1.29c-.86-4.74-7-2.47-10.87-.24-4.88 0-9.73 3-6.83 7.34.06.1.14.19.22.28a3.68 3.68 0 0 0 1.21 1.35 4.24 4.24 0 0 0 0 1.36 4.76 4.76 0 0 0 .45 1.43c.36 1.81 2.88 3.44 5 3.77a12.18 12.18 0 0 0 5.37-.83c.23 3.59.3 7.2.53 10.73.5 7.8.9 15.5 1.1 23.3.4 15.6.8 31.2 1.7 46.8 1.9 31.4-.6 62.5-.6 93.9 0 15.8-.8 31.5-.5 47.3s.4 31.7.7 47.6c.5 31.6 2.2 63.1 4.3 94.6 1.2 17.5 3.1 34.9 4.3 52.4.6 8.4.9 16.7.8 25.1-.1 4.4-.2 8.8-.1 13.2.1 2.4 1.7 7.2.3 9.1-1.2 1.7 1.6 3.3 2.7 1.6 2.2-3.2.1-9.1.1-12.6-.15-8.28.25-16.58-.05-24.78zm-24.26-438.36a.92.92 0 0 0-.21-.69 2.11 2.11 0 0 1 .88-.54 1.93 1.93 0 0 0 1.35 1.14 7.35 7.35 0 0 0-2.02.09zm3.16 8a9 9 0 0 0 .31-1.93 10.14 10.14 0 0 0 2-.07 2.13 2.13 0 0 1 1.31.8c1.18 1.86-2.92 1.66-3.62 1.16zm4.8-2.66h.09l.46.3v.28a5.56 5.56 0 0 0-.55-.62zM560.31 109.42a5.5 5.5 0 0 0-1.11-1c-4.5-3.1-15.6 1.6-11 7.4a4.57 4.57 0 0 0 1.38 1.17 3.49 3.49 0 0 0 2.12 4.83 5.79 5.79 0 0 0 1.91.42c-2.61 9.54-.92 20.19-1.31 30-.8 17.8-3.5 35.5-6 53.2-2.3 16.8-4 33.6-5.5 50.4-1.5 17.3-3.4 34.7-4.3 52.1-1.8 34.6-.9 69.5-.6 104.1.3 34.9 1.1 69.8 1.9 104.8.9 39 3.5 78 3.8 117.1a1.85 1.85 0 0 0 3.7 0c.3-16.6-.9-33.3-1.2-49.9-.3-17.5-1.6-34.9-2.2-52.4-1.1-34.2-1.6-68.5-2.1-102.8s-1-68.9-.4-103.3c.6-34 4-68.4 7.7-102.2 2.1-18.9 5.4-37.6 7.2-56.5a233.89 233.89 0 0 0 1-26.5c-.15-6.22-.3-12.67 1.53-18.54 1.53-.58 2.66-1.7 2.37-3.46a3.66 3.66 0 0 0-.4-1.16v-.07c.23-.3.45-.62.66-1a1.58 1.58 0 0 0 .21-.6 5 5 0 0 0 1.79-3.1 1.2 1.2 0 0 0-.38-1v-.29a17.19 17.19 0 0 1 5.61 2.19c.5.2 1.1-.8.4-1.3a16.52 16.52 0 0 0-6.78-2.59zm-6.91 1.48a9 9 0 0 0-3.31 2.55c-.23-2.07 3.6-3.55 5-3.55a7.29 7.29 0 0 1 .73 0 18.71 18.71 0 0 0-2.42 1zm2 3.9h-.13l1.21-.7a4.86 4.86 0 0 1-1.08.7zM702 40.7l-.38.22a3.49 3.49 0 0 0-1.49-1.22c.06-.17.11-.34.17-.51l-.39-.11a1.45 1.45 0 0 0-2.81-.69c-.11.3-.2.6-.3.9a9.71 9.71 0 0 0-6.32 3.07 6.18 6.18 0 0 0-4.68 3.93 1 1 0 0 0 .3 1.1 6.46 6.46 0 0 0 3.9 2.09 3.33 3.33 0 0 0 .48.67 3.44 3.44 0 0 0 2.15 1.34 5.1 5.1 0 0 0 1.93.09c-.4 4.85-.42 9.76-.63 14.41-.4 10.5-.4 20.9-.4 31.4 0 20.4-.2 40.9-1.3 61.3-2.1 41.8-4.1 83.6-8.1 125.3-3.9 41.2-8.8 82.3-13.5 123.4-2.4 20.8-4.6 41.6-7.3 62.4-2.6 20.4-4.1 40.9-6.2 61.3-2.3 23.1-5.3 46.2-8 69.3-1.4 11.8-2.7 23.5-3.9 35.3-.6 5.6-1.2 11.2-1.7 16.8-.6 5.8-.7 11.6-2.3 17.2-.8 2.7 3.5 3.9 4.3 1.2 2.6-8.7 2.5-18.3 3.4-27.3 1.1-10.5 2.2-21 3.4-31.5 2.3-20.5 4.8-41 7.2-61.5s3.7-41 6-61.5c2.3-20.7 5-41.4 7.4-62.1 4.6-41.1 9.5-82.2 13.6-123.4 4.2-41.6 6.8-83.3 8.7-125.1 1-23.1 1.8-46.2 1.8-69.4 0-11.7-.3-23.5 0-35.2.13-7.43-.17-15.74.77-23.58 2.53-1.65 4.53-4.57 4.53-7.12a4.36 4.36 0 0 0-.38-1.75 8.8 8.8 0 0 0 .78-.45c-.33-.09-.53-.49-.73-.29zM689.65 47a1 1 0 0 1-.27-1.85 3.6 3.6 0 0 0 .32 1.67zm9.08-2.36l.21-.91a.31.31 0 0 1 .06.1.92.92 0 0 1-.27.78zM958.28 121.56c1.14-1.32 1.53-2.82.52-4.16a5.42 5.42 0 0 0-3.5-4.7c-3.72-1.18-7 .94-8.8 4a4.44 4.44 0 0 1 .4-1c2.2-4.2 7.7-4.7 11.7-3.3.7.2 1.2-1.4.2-1.8-5-1.9-11-1-13.8 3.9a6.25 6.25 0 0 0 .05 7.06 7.21 7.21 0 0 0 3.25 6.64 7.85 7.85 0 0 0 3.08 1.11c.46 1.34.94 2.67 1.32 4 1.7 6 1.8 12.4 1.9 18.6.1 11.2-1.1 22.5-2.1 33.6s-1.4 22.4-1.6 33.6c-.5 22.3-.9 44.6-3.3 66.8-5.1 45.9-13.1 91.3-17.5 137.3-2.2 22.6-5.3 45.2-6.5 67.9-1.3 23-1.7 46-2.5 69-.9 26-2 52-2.7 78-.8 25.7-3 51.2-3.8 76.9-.1 2.5 3.7 2.4 3.8 0 1.2-21.8 3.2-43.5 3.9-65.2q1.05-33.45 2.2-66.8c1.6-44.2 2.3-88.4 6.9-132.4 2.3-22.1 4-44.2 6.7-66.2s6.2-43.9 9.1-65.8c2.9-21.5 5.8-43.2 6.3-64.9s.4-43.6 2.3-65.2c1.1-12.5 2.5-24.9 2.3-37.5a87.89 87.89 0 0 0-1.4-16.2c-.43-2-1.07-3.93-1.69-5.89a3.85 3.85 0 0 0 1.84-1.62 6.89 6.89 0 0 0 2.65-2.3 1.72 1.72 0 0 0 0-1.7 9.46 9.46 0 0 0-1.22-1.74zm-7.79-2.9a14.47 14.47 0 0 0-1.93.27 6.8 6.8 0 0 1 2.34-2.73c.7-.4 2.1-1.2 2.9-1.1a6.85 6.85 0 0 1 1.36.26c-2.16-.24-3.81 1.29-4.68 3.3zM1212.6 72c-2.65.26-4 1.79-4.28 3.61a4.21 4.21 0 0 0-2.68 4.54 4.92 4.92 0 0 0 .29 2.43c1.23 3.23 4.82 4 7.62 3.08-1 5.45-.94 11.32-1.32 16.62-.7 8.7-1.5 17.3-2.4 26-1.8 17.2-3.9 34.4-5.2 51.6-1.3 17.6-2.3 35.3-5.3 52.7-2.9 16.9-6.5 33.7-10.4 50.3-8.2 34.5-18.9 68.3-29 102.2-10 33.5-19.3 67.3-27 101.4-4.3 18.7-7.9 37.5-12.3 56.1-4.2 17.6-10.4 35.1-11.6 53.3-.2 3.1 4.6 3 4.8 0 1.1-16.5 6.6-32.3 10.5-48.3 4-16.5 7.2-33.1 10.8-49.6q11.1-51.15 25.9-101.3c19.3-65.8 41-131.9 46.2-200.6q2.1-28.5 5.1-57c1.1-9.8 2.1-19.7 2.9-29.6.6-7.78.17-16.67 1.91-24.49 1.31-.68 1.95-2 1.22-4a4.17 4.17 0 0 0 .65-2.19c.38-3.27-2.96-7.18-6.41-6.8zm-2.37 9.08a6.28 6.28 0 0 0 .61.54 1.75 1.75 0 0 1-.61-.54zm1-2.8zM1390.43 131.71c1.64-2.36 2.05-4.91 0-6.61a1.38 1.38 0 0 0-1.6-.2 13.46 13.46 0 0 1-4.17 1.12c-2.08-1.62-4.33-2.73-6.43-2.22-4.4 1-4.4 9.4-1.9 12.2 2 2.27 5.41 2 8.49.44.47 1.56-.2 3.12-.69 4.76-1.2 4-2.2 8-3.2 12-4.2 18.1-8 36.3-12.4 54.4-8.9 36.8-15.8 74-21.2 111.5-5.3 36.8-7.4 74-10.3 111.1-1.7 22.2-3.6 44.3-6.7 66.3-1.3 9.5-2.8 19.1-4 28.6-1.4 11.3-2 22.8-3.8 34.1-.4 2.4 3.2 3.4 3.7 1 1.6-8.8 2.2-17.7 3-26.5.9-9.3 2.3-18.5 3.6-27.8 2.5-18 4.6-35.9 6.1-54 3.1-36.8 4.4-73.9 8.8-110.6 2.3-18.8 5-37.6 8.3-56.3 3.2-18 6-36.3 10.1-54.2s8.5-35.6 12.3-53.5c1.9-8.8 3.6-17.6 5.6-26.3 1-4.18 4.51-11.61 3.4-16.2a15.42 15.42 0 0 0 2.08-1.91l.11.11c.8.7 1.8-.3 1.2-.9zm-11.43 2.11l.31.18c-.16.12-.31.09-.31-.18zm-1.9-2.82a5.5 5.5 0 0 0-.31.56c0-.27-.07-.55-.09-.86-.31-5.56 2.33-5.55 5.38-3.83a15.78 15.78 0 0 0-4.98 4.13zm5.35 3.45l.05-.1.35-.07zm3.5-2.2a4 4 0 0 0-2.16-1 6.51 6.51 0 0 0-1.19 0 3.55 3.55 0 0 0-1.19-1.85 11.79 11.79 0 0 1 2.89-1.14c1.07.8 2.11 1.69 3 2.52a12.42 12.42 0 0 1-1.3 1.47zm2.38-2.79c-.49-.52-1-1.05-1.57-1.58l.83-.08c1.2-.1 1.1-.6 1.2-.2a2.41 2.41 0 0 1-.46 1.86zM475.4 532.5c0-23.9-.3-47.8-1.1-71.7-.4-11.6-.3-23.3-.8-34.9a281.43 281.43 0 0 0-4-34.3c-2.1-13-3.9-26-6.1-38.9-1-6.3-1.9-12.6-2.9-18.9-.22-1.42-.39-2.92-.7-4.35a9.29 9.29 0 0 0 3.3.45.87.87 0 0 0 .8-.6c1.87-4.82-6.23-7.8-9.92-6.94-.14-.55.09-.92 1-.86s.8-1.2 0-1.3a3.94 3.94 0 0 0-2.4.1.75.75 0 0 0-.5.7c0 2.9 2.22 5.59 5 7.24 1.71 4 1.64 10.64 2.1 13.66.8 5.7 1.8 11.4 2.7 17.2 1.7 10.8 3.2 21.6 4.9 32.3a320.68 320.68 0 0 1 4 36.5c.4 11 .3 22 .7 32.9 1.6 45.9.2 91.8 1.5 137.7.7 26.3 2 52.6 1.9 78.9 0 1.8 2.8 1.8 2.9 0 .1-24.3-1-48.7-1.8-73-.68-24-.58-47.9-.58-71.9zm-15-204.7a1.19 1.19 0 0 0 1.16-1.28c.95.74 1.37 1.45-.06 1.68a3.42 3.42 0 0 1-1.9-.46 7.51 7.51 0 0 0 .8.06zM192.4 640.4c-2.5-8.2-5.1-16.2-8-24.3s-4.6-16.6-7.5-24.8c-2.9-8.4-6.6-16.1-8.1-25-.67-3.69-4.58-22.42-10.09-32.42 1.12-1.78.79-4.33-2-6.28-1.67-1.15-3.08-.94-4-.16a8.48 8.48 0 0 0-.89.14h-.06c1-1 2.4-1.48 3.74-2.68 1.2-.7-.2-2.2-1.2-1.3-2.3 2-6.6 2.5-6.8 6.2-.1 2.8 2.3 4.8 4.6 5.7a6.24 6.24 0 0 0 3.95.3 111.84 111.84 0 0 1 5.55 14.2c3.3 10.1 3.7 21 7.7 30.8 5.8 14.4 10.2 29.1 15.4 43.7 2.6 7.2 4.6 14.6 6.7 21.9 1.9 6.6 3.1 13.4 5.9 19.7.7 1.5 2.9.2 2.3-1.3-3.5-7.7-4.8-16.3-7.2-24.4zm-38.5-106.8a11.72 11.72 0 0 1-2.4-.9c-.89-.32-1.33-.84-1.31-1.56a1.44 1.44 0 0 0 .81-.24 1.26 1.26 0 0 1 .69-.17 2.78 2.78 0 0 0 2.49 1.94l.13.19c-.13.24-.31.49-.41.74zM774.69 393.81a3.07 3.07 0 0 0-3.25 1.2 1.85 1.85 0 0 0-1 .49c-2.14 1.94-2.66 4.54-.49 6.52v.48c.2 2.6 2.5 4.2 4.7 2.7a5.72 5.72 0 0 0 1.18-1.1c-.34 1.67-.71 3.12-.78 3.6-.7 4.8-.3 9.8-.7 14.7-.4 5.7-1.2 11.4-1.8 17.1-2.5 22.6-.1 45.6-4.9 67.9a1.17 1.17 0 0 0 1.7 1.3c.4-.2.9-.5 1.3-.7a1.27 1.27 0 0 0-.06-2.36c3.06-14.83 3.08-29.84 3.46-44.94.5-16.4 2.9-32.6 3.6-48.9.05-1.8 4.71-21.39-2.96-17.99zm-.69 6.49s-1.1 3.1-1.1 1.6a12 12 0 0 1 1-3.27 4 4 0 0 1 .1 1.67z"/></svg>