<svg id="Layer_1" data-name="Layer 1" xmlns="http://www.w3.org/2000/svg" viewBox="0 0 1440 712"><defs><style>.cls-1{fill:#ff0f45}</style></defs><title>Artboard 1</title><path class="cls-1" d="M110.1 651.3c2.9.1 2.7-4.1 0-4.4-2.37-.26-4.67-.44-6.93-.9a1.75 1.75 0 0 0-.47-.3 7.79 7.79 0 0 0-2.87-.87c-1-1.89-2-3.76-2.93-5.63-.5-1.1-2-.1-1.5.9a443 443 0 0 0 2.08 4.37 7.86 7.86 0 0 1-2.38-1.27c-1.1-.9-1.6-2-2.9-2.7-2-1.05-4.39-.8-6.55-1.15a1.8 1.8 0 0 0 0-1.26 14.92 14.92 0 0 0 2 .11 1 1 0 0 0 1.06-1.08 1.43 1.43 0 0 0 .59-1.12v-.56a5.07 5.07 0 0 0 2.93-1.14 2.4 2.4 0 0 0 .6-2.1 7.56 7.56 0 0 0-.66-1.34l.36.14a8.32 8.32 0 0 0 4.4.9c1.6-.2 3-1.5 4.6-1.7a30.88 30.88 0 0 1 4.3.1c1.2-.1 1.2-2.3-.2-2.3a36.4 36.4 0 0 0-7.4.3c-3.5.6-5.2-1-8.3-2a21.18 21.18 0 0 0-4.67-1 43 43 0 0 0-3.83-7 1.26 1.26 0 0 0 .29-2 9 9 0 0 0-1-.9 1.33 1.33 0 0 0-2.2.6 5.54 5.54 0 0 0-.25 2.08 1.45 1.45 0 0 0 .1 1l.15.22a22.64 22.64 0 0 0 1.95 4.48 1.49 1.49 0 0 0-.11.28c0 .29-.07.58-.1.87-.64-.16-1.27-.3-1.89-.41l-.21-.06c-.2 0-.5-.1-.7-.1a2.37 2.37 0 1 0-.7 4.68h.1a15 15 0 0 1 2.65.64 5.52 5.52 0 0 0 1.72 2.81 20.64 20.64 0 0 0 1.48 3 20.26 20.26 0 0 0-6.54-.6 1.29 1.29 0 0 0-1.2 1.2c.07 2.85 4.06 5.28 7.24 5.21 2.39 1.12 5 .66 7.76 1.79 1.9.8 3 2.9 4.8 3.9a12.42 12.42 0 0 0 2.33 1 1.76 1.76 0 0 0 .77.64c.75.34 1.51.62 2.26.87a.85.85 0 0 0 1 .33 38.44 38.44 0 0 0 8.97 1.47zm-24.35-15.76h.14l.37.74-1-.13a1.92 1.92 0 0 0 .49-.61zm-5.67 1.77a1.35 1.35 0 0 0-.56.87 10.24 10.24 0 0 1-1.51-1 18.44 18.44 0 0 1 2.07.13z"/><path class="cls-1" d="M119.8 642.1a2.4 2.4 0 0 0 0-4.8c-5-.4-10-.8-15.1-.9a2.44 2.44 0 0 0-2.35 2.81c-.32-.09-.63-.19-1-.31-2.4-.8-3.4 3-1 3.8 3.8 1.4 7.6 1.2 11.5 1.3a2.06 2.06 0 0 0 2-2.09c1.99.14 3.96.23 5.95.19zM107.4 620.2l2.44-.33a2 2 0 0 0 2.06 2.63c2.7-.4 5.3-.8 7.5-2.5a1.45 1.45 0 0 0 .34-.41c2.4.06 3.14-3.58.56-4.59a23.77 23.77 0 0 0-5.2-1.5 2.56 2.56 0 0 0-2.8 1.1c-.2.5-2.3.5-3 .5a7.33 7.33 0 0 0-3.5 1.2 2.14 2.14 0 0 0 1.6 3.9zM123.2 627.5a109.42 109.42 0 0 0 11.1-2.3 2.15 2.15 0 0 0 1.32-3 10.06 10.06 0 0 0 1.95-.51 7.89 7.89 0 0 0 1.14.83c2.23 1.36 4.17-1.9 2.27-3.37a3.46 3.46 0 0 0 .43-1.13 1.82 1.82 0 0 0-.9-2.1 4.81 4.81 0 0 0-3.7-.5 1.84 1.84 0 0 0-1.4 1.9 7.35 7.35 0 0 0 .25 1.35c-.85.33-1.76.6-2.62.85a1.25 1.25 0 0 0-1.26 1.56l-.53.06a2.48 2.48 0 0 0-2.61-1.42c-2.8.4-5.4 2.2-7.5 4.1-1.84 1.58.16 3.98 2.06 3.68zm8.55-6.4h-.27zM143.66 634.59a2.52 2.52 0 0 0 1.14 2.11c2.3 1.5 4.9-.2 7.2-.6a2.79 2.79 0 0 0 1.9-1.9 3 3 0 0 0 .2-1 2.73 2.73 0 0 0-1.9-3.3 2.6 2.6 0 0 0-2.06.3h-.75a2 2 0 0 0-1.95-.72 18.42 18.42 0 0 0-2.52.87h-1v.19h-.1c-2.57.16-2.61 3.91-.16 4.05zM138.87 644.74c2.34.29 4.4-.25 5.73-2.34.6-1-1.2-2.4-2.3-1.4a3.61 3.61 0 0 1-3.26.81 2.35 2.35 0 0 0-2.24-.81l-.36.07-1.06-.37a2 2 0 0 0 .2-.6 2.2 2.2 0 0 1 .6-1.5 2.13 2.13 0 0 0 .17-.2l1.13.6c2.2 1.1 4.1-2.3 1.9-3.3-1.8-.8-3.8-1.5-5.2-2.9a1.81 1.81 0 0 0-2.8 2.2 6.58 6.58 0 0 1 .72 3.64 4.54 4.54 0 0 0-.1 1.36V640.12a5.48 5.48 0 0 0-3.72 1.53 2 2 0 0 0-.3 2.4 5.7 5.7 0 0 0 1.11 1.2c-3.21-.19-3.28 5 .09 5.3.53 0 1.06 0 1.59.06a19.48 19.48 0 0 1 2 .37 1.9 1.9 0 0 0 1.34.37h.28a9.82 9.82 0 0 0 2.62.22 2.43 2.43 0 0 0 1.19-.39c1.2 0 2.39-.06 3.61-.11a1.79 1.79 0 0 0 1.72-1.92 1.76 1.76 0 0 0-1.72-1.88l-3.61-.14a2.33 2.33 0 0 0-1.19-.26v-.1c-.32 0-.63 0-.95-.08a2.42 2.42 0 0 0-.69-.9c.64-.15 1.31-.3 2-.42a2.52 2.52 0 0 0 1.5-.63zM97.8 654.4c-2.34-.62-4.63-1.3-6.87-2.11-1.25-1.55-2.61-2.24-4.53-1.19a1.21 1.21 0 0 0-.62 1.46c-2.71-.06-5.44-.59-8.18-.06a1.32 1.32 0 0 0-.8 2c.2.3.4.7.6 1a1.33 1.33 0 0 0 2.53-.5c3.14-.19 6.23.61 9.37.07a68 68 0 0 0 7.6 2.53c2.1.6 3-2.7.9-3.2zM169.7 658.8c-2.14-.3-4.33-.5-6.5-.8a5.31 5.31 0 0 0 .8-.6 1.52 1.52 0 0 0-.7-2.5 44.59 44.59 0 0 0-18.8-2.4c-1.3.1-1.4 2.2 0 2.1v.2c2.08 0 4.14.14 6.18.35a1.92 1.92 0 0 0 .52 2.55c5.1 3.6 11.4 4.1 17.4 5.1 2.6.4 3.7-3.6 1.1-4zM190.45 651.67a45.43 45.43 0 0 0 7 .13 1.6 1.6 0 0 0 0-3.2c-2.47 0-4.9.1-7.32-.06a12 12 0 0 0-5.48-.94 1.33 1.33 0 0 0-.3 2.6c.66.26 1.32.47 2 .66a12.07 12.07 0 0 1-11.48-.76c-1.9-1.3-3.5 1.6-1.8 2.7 4.8 3.31 13.15 3.38 17.38-1.13zM232.7 652.5c-2.1-.1-3.9.6-5.9.9-2.3.4-4.4-.4-6.7-.3a1.58 1.58 0 0 0-1.47.8 13.38 13.38 0 0 0-4.63-.8c-2.4.2-2.4 3.7-.2 3.6s3.8.9 5.9 1.2a21.1 21.1 0 0 0 4.94.06 6.43 6.43 0 0 0 1 0c2.3 0 4.8-.6 7.1-.8 2.96-.26 3.06-4.56-.04-4.66zM230.8 663.7c-.91-.32-1.84-.58-2.77-.84.82-.22 1.65-.43 2.47-.66a1.54 1.54 0 0 0-.4-3 39.75 39.75 0 0 1-6.9 0c-2-.3-3.8-1-5.8-1.1a1.34 1.34 0 0 0-1.48 1.25c-2-.54-4.06-1.1-6.12-1.55a1.7 1.7 0 0 0-1 3.26l.41.12.86.33c-3.92-.84-7.85-1.68-11.77-2.44a2.15 2.15 0 0 0-2.4 1c-.1.3-.3.5-.4.8-1.18 2.19 1.78 4.2 3.3 2.72 5.25 1 10.43 2.29 15.6 3.38 3.2.7 6.6 1.4 9.7.1a1.66 1.66 0 0 0 .9-1.07l.62-.14c1.39.43 2.77.87 4.13 1.39 2.25.95 3.35-2.75 1.05-3.55zM166.8 634.7c-2.3-.7-4.3-1.7-6.5-2.6-1.5-.6-2.6 1.3-1.9 2.5a5.37 5.37 0 0 0 3.6 2.26 2.16 2.16 0 0 0-1.85 1.35l-1-.11a5.42 5.42 0 0 0-.44-.41 1.8 1.8 0 0 0-2.8 2.2 3.07 3.07 0 0 0 .54.75 6.12 6.12 0 0 1-.74.55 4.51 4.51 0 0 1-1 .42h-.29v.1c-.13 0-.26.08-.4.1-1.9.3-1.4 3.3.4 3.3 1.4 0 2.6 1 4.1 1a1.67 1.67 0 0 0 .4-3.26 5.45 5.45 0 0 0 .63-.71 12.21 12.21 0 0 0 2.21.24 18.53 18.53 0 0 0 2.67 1.72c2.7 1.5 5.1-2.8 2.4-4l-.77-.29a2.37 2.37 0 0 0 0-.25 1.3 1.3 0 0 0 .54-.62 17.46 17.46 0 0 0 3.76.76 1.53 1.53 0 0 0 1.3-2.2c-.86-1.7-3.26-2.3-4.86-2.8zM178.7 644.1c.19.09.51.22.86.37a11.06 11.06 0 0 0 2.64 2.23c1.7 1 3.1-.9 2.5-2.5a4.82 4.82 0 0 0-2-2.13 1.83 1.83 0 0 0-2.25-1.77h-.11a5.47 5.47 0 0 0-4.29-.83 1.61 1.61 0 0 0-.7 2.7 10.3 10.3 0 0 0 3.35 1.93zM193.9 666.8a2.44 2.44 0 0 1-.92.64c-1-.73-2.24-1.29-3.18-2-1.3-1-3 1.2-1.8 2.3a10.54 10.54 0 0 0 2 1.45 1.62 1.62 0 0 0 0 .55 3.42 3.42 0 0 0 3.3 2.8 2 2 0 0 0 1.58-2.89 5.21 5.21 0 0 0 1.12-.91c1.4-1.24-.7-3.34-2.1-1.94zM186.8 638a6.11 6.11 0 0 1 2.2 1.3c1.92 1.2 3.65-.93 3.18-2.65 1.51.09 3.12.45 4.22.45a12.63 12.63 0 0 0 2.68-.4c3.42 1.45 7.39 1.59 11.12 1.9 3.1.3 3.1-4.5 0-4.8a49.12 49.12 0 0 1-8.14-1.11 2 2 0 0 0-1.26-1 27.59 27.59 0 0 1-2.7-.8 2 2 0 0 0-2.73 2.13c-3.18.12-6.61-1-9.47 1.37-1.4 1.11-.4 3.11.9 3.61zM238 641.9a26.55 26.55 0 0 0-5.33-.31 2 2 0 0 0-1.67-.79c-2.6.1-5.9-.6-7.8 1.8l-.05.09a12 12 0 0 0-1-1.69 1.25 1.25 0 0 0-2.3.6 5.71 5.71 0 0 1-.09 1c-.86-.2-1.53-.35-1.71-.38a12.42 12.42 0 0 0-7.62 1.59c-2.83-1.19-5.48-.73-8.28 1.11a2.09 2.09 0 0 0 2.1 3.6 5.9 5.9 0 0 1 5.2-.4 2.43 2.43 0 0 0 2.2 0c3.85-2.68 6.73-1.37 10.59-.78a1.52 1.52 0 0 0 1.71.78 5.42 5.42 0 0 0 1.21-.58 3.92 3.92 0 0 0 1.85-.59c3.26 0 6.46-.58 9.74-.12s4.55-4.33 1.25-4.93zM271.7 656.1c-.57-.2-1.33-.4-2.07-.66a1.66 1.66 0 0 0 0-1.74c-1.2-1.9-2.8-2-4.7-1.1a1.44 1.44 0 0 0-.72 1.07 13.54 13.54 0 0 1-2.78-.47c-2.4-.8-3.4 2.9-1 3.6a13.74 13.74 0 0 0 5.6.63c1.86 1.79 4.66 2.79 6.8 4.17 1.7 1.1 4.2-1.2 2.9-2.9a7.79 7.79 0 0 0-4.03-2.6zM268.3 668.1a1.71 1.71 0 0 0 1.2-1.6c0-.5-.1-1-.1-1.4-.18-1.36-2-1.23-2.64-.29-1.32-.21-2.73-.8-3-2.11-.5-2.1-3.8-1.2-3.4.9a6 6 0 0 0 3.88 4.06 1.54 1.54 0 0 0 0 .64 4.42 4.42 0 0 0 3.3 3.4 1.46 1.46 0 0 0 .8-2.8.6.6 0 0 1-.4-.1s-.4-.2-.1 0c-.1 0-.2-.1-.3-.2h-.05v-.09c0-.06-.11-.16-.15-.17l-.07-.1a5.31 5.31 0 0 0 1.03-.14zM202.36 624.08l.12.4v.31h.08l.12.41a2 2 0 0 0 2.69 1.13 3.69 3.69 0 0 0 .31.37 2 2 0 0 0 3.1-.4 8.56 8.56 0 0 0 .5-1.14c1.64 1.07 3.93-1.47 2.4-3.36a14.82 14.82 0 0 0-2.6-2.4 2.1 2.1 0 0 0-2.92 1 3.84 3.84 0 0 0-.28-.3 2.09 2.09 0 0 0-.9-.47V619a1.75 1.75 0 0 0-.36-1 4.19 4.19 0 0 0-.14-1.08c-.4-1.79-3.17-1.11-2.7.78-2.18.63-1.15 4.16-.2 5.72a1.46 1.46 0 0 0 .78.66zM249.8 614.8a2.12 2.12 0 0 0-2.6-.3c-2.87 1.85-3.81 4.67-4.7 7.59a2.23 2.23 0 0 0-3.3.31 26.57 26.57 0 0 0-2 5 4.91 4.91 0 0 0-1.11-1.22 2.06 2.06 0 0 0-2.21-.36c-.12-.48-.24-1-.39-1.44a1.74 1.74 0 0 0-1.78-1.22 5.25 5.25 0 0 0-2.32-3.58c-.7-.4-1.9-.1-2 .8-.9 4.4-.1 8.4.8 12.7-.08 1.47 1.84 1.2 2.33 0a1.38 1.38 0 0 0 .87-.22l.14-.1a2.09 2.09 0 0 0 3.06-.3 5.11 5.11 0 0 0 .57-1 5.59 5.59 0 0 0 1.23 1.15 2.08 2.08 0 0 0 2.8-.7 8.51 8.51 0 0 0 1.1-1.89 2 2 0 0 0 2.21.62 23 23 0 0 0 .19 7.26 2.2 2.2 0 0 0 4 .5c2.1-4.4 2.4-9.2 3.7-13.9.91-3.1 2.21-7.2-.59-9.7z"/><path class="cls-1" d="M233.1 616.24c0 1.56-.07 3.12-.1 4.66 0 2.4 3.9 2.4 4-.1v-2.4a2.33 2.33 0 0 0 2.75-2.3 47.66 47.66 0 0 1 2.2-13.5c.9-2.9-3.6-4.1-4.5-1.2l-.21.66a1.59 1.59 0 0 0-2.69.74c0 .21-.09.42-.13.63a1.15 1.15 0 0 0-1.87.87c-.3 3.5-.4 7-.4 10.6a1.49 1.49 0 0 0 .95 1.34z"/><path class="cls-1" d="M245.5 612.6a33.35 33.35 0 0 1 3.1-14.2c1.1-2.5-2.4-4.7-3.7-2.2a33.36 33.36 0 0 0-3.9 16.4c0 2.9 4.6 2.9 4.5 0zM260.5 604.5a58.9 58.9 0 0 0-6 10.3c-1.3 3-1.7 7-3.6 9.6-1.7 2.3 2 4.4 3.6 2.2 1.9-2.6 2.1-6 3.3-8.9a71.07 71.07 0 0 1 6-11.2c1.3-2.1-1.9-4-3.3-2zM278.2 626.7a2 2 0 0 0-2.32-1.95c.29-2.11-2.69-3.73-3.78-1.45-1.87 3.49-3.34 6.91-3.13 10.7a19.27 19.27 0 0 0-.27 13.2c.7 1.9 3.9 1.1 3.2-.9a15.68 15.68 0 0 1-.62-7.94 2.31 2.31 0 0 0 2.42-2.86 9.25 9.25 0 0 1-.29-1.66l.12-.07a6 6 0 0 0 .87 2.24c1.4 2.3 5.1.1 3.6-2.1-1.2-1.81 0-5.11.2-7.21zM281.1 599.9c-1.82 1.48-1.91 3.71-1.84 5.84a3 3 0 0 1-.26-.74 1.65 1.65 0 0 0-1.8-1.2 1.71 1.71 0 0 0-1.5 1.6 5.49 5.49 0 0 0 1.48 3.65 1 1 0 0 0-.68.35c-2.1 2.2-3.6 5.9-1.6 8.7 1.1 1.6 3.7 0 2.6-1.6s-.1-4.2.9-5.7a1 1 0 0 0 .19-.46l.21.16a2 2 0 0 0 2.6-.7 1.51 1.51 0 0 0 0-1.59 1.41 1.41 0 0 0 1.11-1.51c-.1-1.5-.6-3.8.5-4.9a1.34 1.34 0 0 0-1.91-1.9zM294.7 590.8c.8-2.1-2.8-3.7-3.7-1.6a74.41 74.41 0 0 1-4.4 7.8c-1.6 2.4-2.9 4.4-3.2 7.3s4.2 2.9 4.5.1c.2-2.6 2.6-4.9 3.8-7.1a54.41 54.41 0 0 0 3-6.5zM298.9 600.5c1.8-3.6 3.9-7.1 5.8-10.6 1-1.9-1.8-3.5-2.8-1.7-.41.73-.84 1.45-1.27 2.17a11.6 11.6 0 0 1 2.37-5.07 1.27 1.27 0 0 0-1.8-1.8c-2.9 2.4-4 5.5-4.4 9.1a1.46 1.46 0 0 0 1.55 1.65c-.85 1.47-1.69 2.94-2.45 4.45-1 2.1 2 3.8 3 1.8zM291.2 653.4c-1.5 4.3-2.7 8.8-2.4 13.3.1 1.9 3.1 1.9 3 0-.3-4.3.9-8.5 2.3-12.5.6-1.8-2.2-2.6-2.9-.8zM297.1 649.9c.3.2-.2-.2-.2-.2l-.22-.26c-.06-.14-.26-.41-.18-.24a1.27 1.27 0 0 1-.1-.6 1.35 1.35 0 0 0-2.6 0 4.07 4.07 0 0 0 1.3 3.9 1.71 1.71 0 0 0 2.6-.2 1.82 1.82 0 0 0-.6-2.4zM298.3 631.4c-.2 2.8-.3 5.5-.3 8.2.1 2.2 3.4 2.2 3.3 0 0-2.8-.1-5.5-.3-8.2a1.35 1.35 0 0 0-2.7 0zM306 615.6c-.5-1.7-3.3-1.4-3.2.4.1 2.2 1.2 3.9 2.3 5.7 1.2 2.3 4.7.3 3.4-1.9-.8-1.3-2.1-2.6-2.5-4.2zM76.15 604.72c.64 2.37 1.41 4.71 2.15 7.08.6 1.9 3.5 1.1 2.9-.8-1.4-4.5-3-9-3.5-13.7-.2-1.9-3.2-2-3 0a41.83 41.83 0 0 0 1 5.77c-1.46-4-2.85-7.92-4.23-12-.5-1.6-3-.9-2.5.7.69 2.07 1.34 4.14 2.05 6.18-1.26-2.59-2.4-5.21-4.75-7.18a1 1 0 0 0-.6-.21c-.71-1.88-3.49-.29-2.7 1.61.41.95.79 1.9 1.15 2.86a1.42 1.42 0 0 0-2.25 1.44c.24.89.48 1.79.74 2.68a2.08 2.08 0 0 0-1.44.12 1.76 1.76 0 0 0-.6 2.4 8.57 8.57 0 0 1 1 4.1c0 2.17 3.1 2.19 3.38.1.23.5.46 1 .72 1.5.7 1.2 2.8.4 2.3-1a79.69 79.69 0 0 1-2.75-8.17c.73 2.19 1.42 4.39 2.25 6.57.8 1.9 3.9 1.1 3.1-.9-.7-1.71-1.3-3.46-1.88-5.2a24.66 24.66 0 0 0 2.88 5.2 1.26 1.26 0 0 0 1.94.18c.15.31.3.62.46.92a1.21 1.21 0 0 0 2.18-.25zM84.2 618.8a1.44 1.44 0 0 0 .58.77c.3 1.3.57 2.6.82 3.93.3 1.6 2.8.9 2.4-.7-.26-1.39-.57-2.76-.9-4.13a1.4 1.4 0 0 0-.1-.67c-.11-.31-.22-.63-.33-.95-.33-1.22-.68-2.44-1.07-3.65a1.23 1.23 0 0 0-.16-.3 47.16 47.16 0 0 0-2.14-6c-.8-1.6-3.2-.2-2.5 1.5 1.5 3.3 2.1 6.9 3.4 10.2zM107.7 652c-.7-1.3-2.8-.1-2 1.2 1.5 2.5 2.8 5.2 4.8 7.4 1.1 1.2 3-.6 1.8-1.8-1.9-2-3.1-4.5-4.6-6.8zM127.1 671.6c-4.2-.6-6.6-5.7-8.9-8.8a1 1 0 0 0-1.62-.19 27.2 27.2 0 0 0-2-2.51c-1-1.1-2.5.4-1.6 1.5 1.3 1.5 2.2 3.3 3.5 4.8a1.07 1.07 0 0 0 1.67 0c2.08 3.39 4.75 7.31 8.63 7.39 1.22.01 1.62-1.99.32-2.19zM136.4 673.7c-3.9-1-6.3-5.1-8.9-7.8-1-1.1-2.6.5-1.6 1.6 3 3.1 5.6 8.1 10.2 8.7 1.4.2 1.7-2.2.3-2.5zM149.7 674.9c-4.6-2-8.1-5.5-11.7-9-.9-.8-2.3.6-1.4 1.5 3.6 3.8 7.1 7.5 11.8 9.8 1.5.7 2.8-1.6 1.3-2.3zM149.1 663.2c-1.4-1.7-3.8.7-2.4 2.4 4.9 5.7 9.6 11.6 15.3 16.5 1.6 1.4 4-.9 2.4-2.4a199.21 199.21 0 0 1-15.3-16.5zM62.49 588.28a1.74 1.74 0 0 0 2.31-1.9 7.09 7.09 0 0 0 1.1.92 1.71 1.71 0 0 0 2.5-1c.8-4-.3-7.6-1.1-11.4-.4-1.9-3.3-1.4-3.4.5v.8-.14l-.18.08-.12-.28a1.6 1.6 0 0 0-2.81 0 31.06 31.06 0 0 0-2.19-6.13 1.36 1.36 0 0 0-.57-.6c-.15-.43-.29-.87-.43-1.3-.5-1.5-3.1-1.3-2.9.4v.26h-.14l.27.81a64.89 64.89 0 0 0 2.1 8.15v.15l.17.52a48.56 48.56 0 0 1 2.3 9.88c.09 1.77 2.87 1.89 3.09.28zM89 605.3a25.75 25.75 0 0 1-1.38-6.51c1.61 1.55 1.93 5.64 2.18 7.31 0 .22.06.44.09.65a1 1 0 0 0-.79 1.45 16.62 16.62 0 0 1 1.11 4.08c0 .54-.05 1.08-.11 1.62h.24a1.19 1.19 0 0 0 2.36-.2 42.16 42.16 0 0 0-1.3-10.6c-.5-2.4-1.5-6.3-4.3-6.9a1 1 0 0 0-1.2.7c-.7 3.1.2 5.9.8 9 .3 1.5 2.7.9 2.3-.6zM607.08 576a1.44 1.44 0 0 0-1.62-1.28c.18-2.3.91-4.77.84-6.79a1.77 1.77 0 0 0-1.21-1.69c.1-.71.16-1.43.19-2.15v-.06-.6c0-2.5-3.9-2.5-4 0v1c-.5 3.11-1.25 6.16-1.46 9.27a2.31 2.31 0 0 0-.81.72 9 9 0 0 0-1.48 3.19c.13-.88.29-1.73.38-2.49.4-3.8.8-7.5-.1-11.3a1.85 1.85 0 0 0-2.3-1.3 3 3 0 0 0-2.2 3.2 1.7 1.7 0 0 0 1.19 1.63 64.81 64.81 0 0 1-.69 10.07c-.2 2.7-.5 5.6 1.1 7.9a2 2 0 0 0 3 .4c.3-.3.6-.7.9-1a2 2 0 0 0 .33-1.91 1.76 1.76 0 0 0 .89-.18c0 .2.05.4.08.6a2 2 0 0 0 1.23 1.62 9.59 9.59 0 0 0-.39 3.15c-.49 1.81-1 3.63-1.33 5.47a1.71 1.71 0 0 0-2.46.05 1.78 1.78 0 0 0-2.55.71 12.87 12.87 0 0 0-.72 1.81 1.78 1.78 0 0 0-.27-.18c.58-3.47 1.34-7.53-1.41-8.12a1.53 1.53 0 0 0-1.9 1.5c-.4 5.5-1.5 11.4-.8 16.9a1.07 1.07 0 0 0 0 .14c0 1.7-.12 3.39-.24 5.06a1.83 1.83 0 0 0 2 1.92 1.31 1.31 0 0 0 .57.73 26.21 26.21 0 0 0 .34 3.45 1.84 1.84 0 0 0 3.1.8 7 7 0 0 1 1-.8c1.28-1 .48-2.5-.73-2.93a32.73 32.73 0 0 1 .45-7.13 1.91 1.91 0 0 0 .68-1 34.57 34.57 0 0 0 1-4.26 40.4 40.4 0 0 1 1.48-3.86 1.64 1.64 0 0 0 1.42.83 1.59 1.59 0 0 0-.08.48c-.1 5.7-.3 11.4-.3 17a1.66 1.66 0 0 0 2.65 1.32 23.08 23.08 0 0 0 .25 3.08 1.43 1.43 0 0 0 1.8 1c3.32-.85 2.5-7.86.89-11.16 0-.61-.09-1.23-.19-1.84a1.41 1.41 0 0 0-2-1c-.05-2.83-.15-5.64-.25-8.43a1.42 1.42 0 0 0-1-1.34 1.82 1.82 0 0 0 .3-.86 54 54 0 0 1 2.05-9.14 1.41 1.41 0 0 0 1.15-1.46 56.87 56.87 0 0 1 .19-5.69c.66-1 1.33-2 1.91-3a1.38 1.38 0 0 0-.87-2.05zm-9.45 5.39h-.25a8.69 8.69 0 0 1-.08-1.52 5.31 5.31 0 0 0 .32 1.49zM629.2 610.76v-1-3.2l.13-.2a1.44 1.44 0 0 0-.15-1.88c0-1.53-.06-3.08-.09-4.62v-2.4H629a1.25 1.25 0 0 0-2.49.1c0 1.18 0 2.37-.07 3.55a1.59 1.59 0 0 0-1.44 1.59h-.1c0 4.3.1 8.6.1 13a1.56 1.56 0 0 0 2.6 1.1 4.71 4.71 0 0 0 .67-.94c.92.54 2.43 0 1.93-1.26a19 19 0 0 1-1-3.84zM630.6 567.5c-2.4 1.7-3.12 4.12-3.83 6.7-2.85 4.08-2.64 9.67-.87 14.2 1 2.4 5 1.4 4-1.1a13.35 13.35 0 0 1-.49-9.42c.25-.5.46-1 .65-1.5.08-.16.15-.32.24-.48l.15-.38a1.49 1.49 0 0 0 0-1.4 6.34 6.34 0 0 1 2-3.6c1.75-1.32.05-4.42-1.85-3.02zM668.27 627.29l.23-1.39a1.76 1.76 0 0 0-.94-2 22.19 22.19 0 0 1 .2-6.66c.31-1.12.61-2.25.94-3.38.5-1.6-1.9-2.2-2.5-.7-.18.45-.34.92-.48 1.39a1.69 1.69 0 0 0-1.82 1.61 28.13 28.13 0 0 1-.5 4.89 1.57 1.57 0 0 0 .4 1.39v.61a1.56 1.56 0 0 0 1.25 1.59v.32c-.17.63-.32 1.26-.47 1.89a1.86 1.86 0 0 0-.23.5 48.62 48.62 0 0 0-2.5 14.1 1.65 1.65 0 0 0 2.8 1.1 8.76 8.76 0 0 0 1-1.15 1.33 1.33 0 0 0 2.49-.65c0-1.94-.09-3.86-.06-5.77.38-2.09.58-4.23 1-6.13a1.46 1.46 0 0 0-.81-1.56zM818.4 662.9a2 2 0 0 0-2.47 1.15c-.82-1.93-4.23-1.69-4 .75 0 .19 0 .39.07.59h-.07l.11.3v.11c-1.07-2.24-2.19-4.43-3.32-6.61a1.69 1.69 0 0 0-1.9-1q-.41-.64-.83-1.24a2.21 2.21 0 0 1 .73-1.29c1.1-.9-.7-2.7-2-1.7a4.21 4.21 0 0 0-.65.63 1.69 1.69 0 0 0-2.25 1.47c-.2 4.6 2.7 10.9 6.1 13.9a2 2 0 0 0 1.65.49c.08.2.17.4.25.61a6.63 6.63 0 0 0 3.8 4.2 2 2 0 0 0 2.3-1 9.54 9.54 0 0 0 .68-4.35 2.12 2.12 0 0 0 1.72-1.05c.09-.15.17-.29.26-.44a6.42 6.42 0 0 1 .44 1.74c.2 2.7 4.5 2.7 4.2 0-.32-3.16-1.62-6.26-4.82-7.26zM1041.23 628a2.57 2.57 0 0 0-1.56-.66 9 9 0 0 0-.27-2.93c1.8-2.6-2.3-4.8-4.1-2.4a67.82 67.82 0 0 0-6.65 10.93l-.25.37v.08a2.42 2.42 0 0 0 2.77 3.45c-.2.74-.39 1.49-.57 2.25a2.26 2.26 0 0 0 2.61 2.73v.07a1.61 1.61 0 0 0 1.1 1.65c-.41 1.59-.49 3.23.5 4.45a1.44 1.44 0 0 0 2.4-.6 32.34 32.34 0 0 1 2.6-5.7 1.6 1.6 0 0 0-.95-2.22c.57-1.19 1.08-2.18 1.25-2.58.9-2 1.87-3.88 2.74-5.83.15-.26.3-.52.46-.77h-.1l.2-.46c.59-1.38-1.05-2.29-2.18-1.83zM1049.9 612.2a41.35 41.35 0 0 0 4.89-8.88c1.77-3.08 3.06-6.52 4.51-9.72 1.1-2.4-2.4-4.5-3.6-2.1-.94 1.89-1.76 3.94-2.64 6a57.79 57.79 0 0 0-4.17 6.2c-3.73 1.81-5.89 9.47-6.18 13.24-.1 1.8 2.2 2.5 3.4 1.4a9 9 0 0 1 1-.9 1.79 1.79 0 0 0 0-2.33c.16-.65.34-1.33.54-2a2.26 2.26 0 0 0 2.25-.91zM1062.7 586.7c-.1-5.5 2.9-10.1 6.5-14.1a2 2 0 0 0 .38-.63 1.64 1.64 0 0 0 1.22-1.27 7 7 0 0 1 .45-1.1 2 2 0 0 0 1.05-1.7c0-.3.1-.5.1-.8a1.83 1.83 0 0 0-1.4-1.8 1.77 1.77 0 0 0-2.1.9 9.69 9.69 0 0 0-1.29 3.45 1.86 1.86 0 0 0-.91.45c-4.5 4.3-7.7 10.2-7.7 16.5.1 2.5 3.7 2.5 3.7.1zM1054.7 635.3c-2.8 2.6-6.3 7.2-6 11.3.2 2.1 3.4 2.2 3.2.1a6.54 6.54 0 0 1 .57-2.88 9.67 9.67 0 0 0 3.93-2.82 1.89 1.89 0 0 0 .32-2.12c.26-.65.48-1.31.68-2a1.63 1.63 0 0 0-2.7-1.58zM1149.4 650.7a1.57 1.57 0 0 0-2.9-.8 76 76 0 0 0-3.7 7.6c-.9 2.3-1.9 5-.8 7.3a1.61 1.61 0 0 0 2.2.6 41.18 41.18 0 0 0 3.7-3.5 1.61 1.61 0 0 0-1.1-2.68c2.2-1.96 2.69-5.94 2.6-8.52zm-4.36 9.43h.17l-.26.27zM1020.5 625.2c-2.3 2.4-4.7 4.7-7 7.1a.42.42 0 0 0 .6.6c2.4-2.3 4.7-4.7 7.1-7 .5-.5-.3-1.2-.7-.7zM1032.4 615.5c.7-1-.9-2.2-1.7-1.3a34.89 34.89 0 0 1-4.5 4.9c-.6.6.2 1.7.9 1.2 1-.7 2-1.4 2.9-2.1a15.46 15.46 0 0 0 2.4-2.7zM1069.67 602.8a43.81 43.81 0 0 0 6.83-4.3c.5-.1-.2-.8-.7-.4-1 .82-3.85 3.23-5 2.71a1.49 1.49 0 0 0 .32-.41c.36-.78.71-1.63 1-2.51a10.53 10.53 0 0 0 1.42-4.49 27.23 27.23 0 0 0 .94-6.49 1.61 1.61 0 0 0-.13-.63c.55-1.71 1.09-3.43 1.63-5.17.4-1.3-1.6-1.8-2-.5q-.69 2.25-1.4 4.5a1.53 1.53 0 0 0-1.5.91 40.65 40.65 0 0 0-4.4 12.58 54.6 54.6 0 0 0-5.7 8.32c-2.1 3.5-4.5 6.9-4.2 11.1a2 2 0 0 0 .41 1.06 25.37 25.37 0 0 0-.31 3.84 1.46 1.46 0 0 0 1.18 1.45c-.71 3.87-.64 7.75 1.82 10.15a1.12 1.12 0 0 0 1.8-.5c.7-3.6 1-7.4 1.8-11a11.76 11.76 0 0 0 .4-4.17c2.37-5.22 3.69-10.79 5.79-16.05zm-9.07 24.6c-.13.92-.29 1.86-.45 2.79a32.47 32.47 0 0 1 .25-5.49 14.49 14.49 0 0 1 .27-1.66 17.15 17.15 0 0 1-.07 4.36zM1084.9 534.1a2.13 2.13 0 0 0-2.5 1.4c-.8 2.1-1.1 4.3.2 6.2a2.27 2.27 0 0 0 .18.22 20.71 20.71 0 0 0-2.18 10.68 1.49 1.49 0 0 0 .86 1.32 21.22 21.22 0 0 0-4.16 11.58 1.16 1.16 0 0 0 1.27 1.27 11.69 11.69 0 0 0-.57 1.53 1.15 1.15 0 0 0 .05.64 14 14 0 0 0-.65 6.06c.3 1.2 2.2 1.3 2.1-.1a13.43 13.43 0 0 1 .75-5 1 1 0 0 0 .41-1.08 23 23 0 0 1 2.15-4 .89.89 0 0 0-.92-1.34v-.26a1 1 0 0 0-1.56-.84 23.53 23.53 0 0 1 4.16-8c.69-.87 0-1.75-.91-1.94a18.91 18.91 0 0 1 2.21-9.66 1.58 1.58 0 0 0 .17-.9 1.79 1.79 0 0 0 .13-2.1c-.7-1-.2-2.1.2-3.2a2 2 0 0 0-1.39-2.48zM1077 552.6a14.71 14.71 0 0 1 1.5-7.4 12.46 12.46 0 0 0 1.9-5.6c.2-2.1-3.4-2.7-3.8-.5s-1.8 4.1-2.7 6.2c-1 2.3-1 4.7-1 7.2.2 2.6 4.1 2.6 4.1.1zM1035.3 585.7c.78-.94 1.51-1.89 2.2-2.87a1.33 1.33 0 0 0 2.4-.43c.2-1 .47-2 .77-2.93 2-1.91 4.16-3.7 6.23-5.57 1.8-1.7-.9-4.4-2.7-2.7l-.11.1.19-.72a10.12 10.12 0 0 0 .45-1.62l.17-.45h-.05l.05-.19a1.42 1.42 0 0 0-1.61-1.81 1.48 1.48 0 0 0-1.49.81 55.45 55.45 0 0 0-3.23 5.62 25.87 25.87 0 0 0-1.85 3.22 17.58 17.58 0 0 0-3.23 5.39c-.45.57-.88 1.17-1.29 1.78-1.2 1.87 1.7 4.17 3.1 2.37zM1042.9 587c-1.4 2 2 4 3.3 1.9 3.16-5 8.83-10.34 9.46-16.56a63.36 63.36 0 0 1 5.64-9.44 1.73 1.73 0 0 0-3-1.7c-1.62 2.47-3.38 4.73-4.73 7.32a1.35 1.35 0 0 0-.87.58c-2.37 3-5 6.81-4.22 10.76-1.88 2.54-4.07 4.94-5.58 7.14zM1039.7 601c1.4-1.7-.9-4-2.3-2.5-2.1 2.2-4 4.8-6.3 6.9-1.2 1-2.5 2.6-3 .6-.3-1.3.5-3.6.9-4.8a1.56 1.56 0 0 0-1.9-1.9c-2.2.7-3.7 3.1-4.9 5s-3.1 4.7-3 7.2c.1 2.2 3 2 3.3 0a20.1 20.1 0 0 1 2.43-6.06c-.18 2.77.54 5.4 3.77 5.16 4.6-.3 8.2-6.7 11-9.6zM1078 628.16c.12-3.25-.49-6.66-.65-9.76a1.15 1.15 0 0 0-2.3.1c0 .62 0 1.3.07 2a2.1 2.1 0 0 0-2.07 1.29 23.11 23.11 0 0 0-.83 12.05 38.32 38.32 0 0 0-.37 4.25 2.1 2.1 0 0 0 3.9 1 21.86 21.86 0 0 0 1.57-3.85 2 2 0 0 0 3.23-1c.63-2.17-.2-5.5-2.55-6.08zM1092.8 599.9c1.4-4.4 3.4-8.5 3.7-13.2.2-2.1-3-2-3.2 0-.37 3.21-1.58 6.19-2.58 9.2v.2a8.5 8.5 0 0 0-.82 2.77v.2a1.55 1.55 0 0 0 .16 1.11c-.39 2.51-.87 5.65-1.29 8.17a1.54 1.54 0 0 0-2.27 1.32v.4a7.06 7.06 0 0 0 .68 3.39v.06a1 1 0 0 0 .25.93l.25.89a1.69 1.69 0 0 0 2.73.8c.63 3 .76 6.19 2.87 8.8.7 1 2-.4 1.3-1.3-2.5-3.2-2.4-8.2-3.4-12.1a1.23 1.23 0 0 0-.75-.78c.58-3.42 1.12-6.8 2-10.15a1.65 1.65 0 0 0 .37-.71zM1099.39 569.22a10.76 10.76 0 0 0 2.41-3.72 1.56 1.56 0 0 0-2.1-2.1 8.94 8.94 0 0 0-2.28 2.09 4.19 4.19 0 0 1 0-1.29 14.25 14.25 0 0 1 1.1-3.5c.7-1.9 1.7-3.6 2.5-5.5.6-1.4-1.7-2.4-2.5-1-2.2 4-5 9.75-2.88 14.29a31.15 31.15 0 0 0-2.32 13.41c.2 2.1 3.4 2.1 3.3.1a24.89 24.89 0 0 1 2.77-12.78zM1105.7 628.3a1.55 1.55 0 0 0 1.53-1.25 1.57 1.57 0 0 0 1.27-1.65 5.69 5.69 0 0 0-.08-.84c1.24-3.72.34-7.85-.92-11.56a1.85 1.85 0 0 0-2.7-1.1c-3.9 2.6-6.3 16.9.9 16.4zm-.79-5.11l-.18.17a16.13 16.13 0 0 1 .37-4.49 10.61 10.61 0 0 1-.19 4.32zM1117 661.5c-.61-.8-1.28-1.6-1.94-2.41a1.76 1.76 0 0 0-.16-1 19.53 19.53 0 0 0-2-3.69c-2-3.85-3.59-8-3.37-12.31a1.41 1.41 0 0 0-1.35-1.65 25.82 25.82 0 0 1 .9-5.75 5.34 5.34 0 0 1 .65.95 14.16 14.16 0 0 0 1.29 3c.8 1.3 3.2.5 2.6-1.1l-.11-.3v-.07a22.62 22.62 0 0 0-1.06-2.44c-.67-2.11-.87-4.6.3-6.19.9-1.1-1.2-2.8-2.2-1.6a7.34 7.34 0 0 0-1.44 4.61 3.59 3.59 0 0 0-.86-.11 1.3 1.3 0 0 0-1.3 1 35 35 0 0 0-1.5 9.6 1.27 1.27 0 0 0 .87 1.27 25.9 25.9 0 0 0 2.43 9.91 1.71 1.71 0 0 0-.1 1.12c.6 2.7 2.1 4.6 3.7 6.7 2.8 3.7 5.6 7.5 8.3 11.3 1.2 1.7 4.1.1 2.9-1.7-2.15-3.14-4.35-6.14-6.55-9.14zM1114.1 676c-5.54-2.32-9.72-5.21-12.83-10-1-2-1.49-4.19-.37-5.69.9-1.2-1.2-2.9-2.2-1.6a6.39 6.39 0 0 0-1 5.54 1.35 1.35 0 0 0 0 1.36c1.2 2.2 2.4 4.3 3.6 6.5a1.32 1.32 0 0 0 1.69.65 23.11 23.11 0 0 0 10.41 5.85c1.7.49 2.3-2.01.7-2.61zM1170 656.82a8.89 8.89 0 0 1-.76-1.22c-.8-1.5-2.8-.6-2.9.8a3.27 3.27 0 0 0 2.4 3.8h.22l.22.26a8.23 8.23 0 0 0 2.36 4.49 1.44 1.44 0 0 0 2.4-.6c.43-2.48-1.41-4.46-3-6.41a1.69 1.69 0 0 0-.94-1.12zM1358.5 431.2h-.09a2.31 2.31 0 0 0-.91-2.26c.36-2.1.88-4.19 1.42-6.28a16.59 16.59 0 0 0 1.38-5.54 1.58 1.58 0 0 0-1.09-1.7c.16-.8.33-1.6.49-2.4.8-3.8.9-8.3 3-11.6.6-.9-.6-2-1.2-1.2-2.2 2.8-2.7 5.9-3.5 9.3-1.3 5.4-2.6 10.8-4.3 16.1a1.44 1.44 0 0 0 .11 1.21 37.79 37.79 0 0 0-1.1 8.4v.59a2.07 2.07 0 0 0 .09.57c-.35 1.65-.7 3.3-1 4.95a2.8 2.8 0 0 0 0-.41c-.1-5.1-.2-10.2.9-15.3a2.58 2.58 0 0 0-.32-2c.3-2.29.6-4.58 1.12-6.84l-.19-.05a2.41 2.41 0 0 0-1.58-2.83c.09-.64.18-1.28.28-1.92a2.52 2.52 0 0 0 0-.77 1.13 1.13 0 0 0 .69-.63c.07-.17.13-.35.2-.52h.1v-.25a30.64 30.64 0 0 0 2.07-7.58v-.07c0-.3.1-.59.13-.89a1.35 1.35 0 0 0-1.07-1.45c.27-1.25.57-2.5.87-3.75.5-2.1.7-9.7 2.8-10.8a.92.92 0 0 0-.9-1.6c-3.1 1.3-2.8 5.4-3.4 8.3-.72 3.62-1.81 7.14-2.56 10.72a38.77 38.77 0 0 0-2.29 5.47 1.81 1.81 0 0 0-.66.81c-.07.15-.11.3-.17.46l-.13-.06-.17.87a11.66 11.66 0 0 0-.41 2.11c-.73 3.74-1.49 7.51-2.12 11.22a2.35 2.35 0 0 0 .41 1.77c-.22 1.71-.45 3.42-.71 5.13a2.59 2.59 0 0 0 1.81 2.94c-.1 2.46-.11 4.94-.11 7.46 0 3.13 4.57 3.37 5.29.74-.06.32-.13.64-.19 1-.6 3 4.1 4.3 4.6 1.3.78-4.09 1.65-8.19 2.25-12.28.06-.16.1-.3.16-.44zM1379.42 510.63c.61-1.37 1.18-2.76 1.78-4.13a2.11 2.11 0 0 0-1.64-3c1.57-10.3 3.2-20.6 6.24-30.58.5-1.7-2.2-2.4-2.8-.7-3.53 11.33-5.24 23-7.07 34.66a2.25 2.25 0 0 0-3.13 1.44 69.61 69.61 0 0 0-1.8 7.9 2.57 2.57 0 0 0 1 2.41l-.71 1.69c-.61 1.47 1.19 2.57 2.46 2.05a22.89 22.89 0 0 0 .24 8.15c.2 1.5 2.4.9 2.1-.6-.9-4.3.6-8.6 1.7-12.8.52-2.19 1.07-4.34 1.63-6.49z"/><path class="cls-1" d="M1390 456a19.87 19.87 0 0 0 3.89-6.37c.9-3.1-3.9-4.4-4.8-1.3-1 3.6-4.5 6.3-6.3 9.7-1.17 2.22-2.18 4.54-3.26 6.83a34.9 34.9 0 0 0 .46-4c.1-1.9-2.8-1.9-3 0a35.76 35.76 0 0 1-1.54 7.25v-.23c.49-1.94 1-3.87 1.29-5.83a1.77 1.77 0 0 0-.44-1.48c.41-3 .76-6.08 1-9.12.2-1.6-2.3-1.6-2.5 0-.39 3.24-.82 6.49-1.33 9.72h-.07c-.07.5-.15 1-.23 1.48-1.16 5.12-2.21 10.31-3.67 15.42-.7 2.4 3.3 3.5 3.7 1 .28-1.45.57-2.89.85-4.34-.25 1.79-.47 3.58-.75 5.34-1 6.8-2.2 13.6-3.5 20.3-.4 2 2.7 2.9 3.1.9q2.1-11.1 3.6-22.2c.25-1.88.64-3.75 1.07-5.61a2.38 2.38 0 0 0 3.13-.79q1.32-1.92 2.56-3.89a.9.9 0 0 0 .74-.31c2.26-2.49 3.22-5.43 4.23-8.44a16.58 16.58 0 0 0 1-2.34c.17-.38.36-.74.53-1.12h-.11c.07-.15.15-.3.21-.45zM1392.7 416.7c-.49.6-1.22 1.38-2 2.27a1.93 1.93 0 0 0-2.73 1.93c0 .58.09 1.17.1 1.75a4.33 4.33 0 0 0-.47 3.69c-3.66 5.67-8 11.21-6.63 18.16.3 1.4 2.6 1.8 3.2.4.1-.3.2-.5.3-.8a1.83 1.83 0 0 0-.14-2c-.16-6.81 6.83-12.86 9.64-18.56a2.1 2.1 0 0 0 .21-1.5c.64-.84 1.2-1.75 1.79-2.7 1.23-2.04-1.77-4.54-3.27-2.64zM1397 375.3c-.3 0-.5-.1-.8-.1-1.73-.19-2.39 1.54-1.9 2.87-1.93 3.81-3.91 7.61-5.9 11.33s-3.6 7-3.4 11.1a2.14 2.14 0 0 0 1.94 1.92c-2.05 5.19-5.54 10.11-5.54 16 0 2.5 3.7 2.5 3.7.1 0-8.5 7.3-14.8 7-23.2a2 2 0 0 0-1.49-1.79c.81-1.56 1.76-3.08 2.59-4.61 1.9-3.5 3.8-6.9 5.6-10.4a2.16 2.16 0 0 0-1.8-3.22zM1373.9 408.2c1.5-4 2.6-8.1 4-12.1a50.09 50.09 0 0 0 1.7-5.5c.3-1.5.1-4 1.2-5.3a1.55 1.55 0 0 0-.17-2.11 1.41 1.41 0 0 0 1.57-1.19c.6-5.8 3.7-10.9 5.8-16.1.39-1-.48-1.6-1.3-1.52a51.92 51.92 0 0 1 4.6-8.88c.9-1.3-1.2-2.5-2.1-1.2-4.6 6.9-6.9 14.9-9.6 22.6a1.1 1.1 0 0 0 .73 1.44 25.19 25.19 0 0 0-.73 3.66 1 1 0 0 0 .23.83 1.3 1.3 0 0 0-1 .47c-2.07 2.24-1.84 5.37-2.37 8.24-.91-1.9 1-6.39 1.37-8l2.4-9.3c.6-2.3-2.9-3.2-3.5-1-1.1 4.4-2.2 8.8-3.4 13.3-.6 2.4-1.4 4.7.1 6.9a1.83 1.83 0 0 0 2.36.63c-1.37 4.52-2.69 9-4.26 13.47-.73 1.56 1.77 2.26 2.37.66zM1375.8 367.8c.2 2 3.3 2.1 3.1.1-.4-5.3 2.9-10.1 4.7-14.9.8-1.9-2.4-2.8-3.1-.9-1.9 5.1-5.2 10.1-4.7 15.7zM1385.8 346.9a16 16 0 0 0 3.06-5.15 13.25 13.25 0 0 0-.36 3.85c.2 2.1 3.6 2.1 3.5-.1-.2-4.1 2.1-7.8 3.6-11.5a78.31 78.31 0 0 0 3.4-9.2c.7-2.1-2.7-3.1-3.4-.9a111.09 111.09 0 0 1-4.8 12.5l-.48 1.11c.22-.68.44-1.35.68-2 .8-2.4-2.9-3.4-3.7-1-1.1 3.2-1.8 7.2-4.2 9.7-1.8 1.79 1 4.49 2.7 2.69z"/><path class="cls-1" d="M1396.3 342.8l.38-.75a15.28 15.28 0 0 0 0 2.35c.2 2.3 3.8 2.3 3.6 0-.6-7.1 4.7-13.1 7-19.5a1.57 1.57 0 0 0-1.37-2.15c-.39-1.21-2.24-1.82-2.93-.45l-9.3 18.9c-.88 1.8 1.72 3.4 2.62 1.6zM1403.1 342.7a110.85 110.85 0 0 1-5.9 13.7c-1.1 1.9 1.8 3.6 2.8 1.7a63.83 63.83 0 0 0 5.9-14.6 1.46 1.46 0 0 0-2.8-.8zM1386.8 373.8c-.8.8-1.6 1.6-2.3 2.4a1.56 1.56 0 0 0 2.2 2.2c.8-.8 1.6-1.6 2.4-2.3a1.63 1.63 0 1 0-2.3-2.3zM1370 458.1a186.18 186.18 0 0 0-4.44 25c.08-1.73.15-3.46.24-5.19.1-2.7.5-5.5-.2-8.1-.63-2.36-1.57-2.74-3.26-3.33.21-5.39 1.51-10.64 2.16-16h-.42v-.2a1.6 1.6 0 0 0-.63-1.45 52.79 52.79 0 0 1 .95-6.22c-.07.59-.14 1.18-.22 1.77a1.13 1.13 0 0 0 .93 1.31c-.9 6-1.27 12.17-2.13 18.19-.3 1.9 2.6 2.7 2.9.8 1.4-9.8 1.5-19.9 4.7-29.4.54-1.6-1.71-2.41-2.63-1.29.58-7.49 1.17-15 3.63-22.21.48-1.37-1.11-2.09-2.06-1.43 1.12-11.38.89-22.89 4.36-33.87a1.24 1.24 0 0 0-1.34-1.6c1.5-6.52 3.29-13 4.94-19.6.4-1.7-2.2-2.4-2.6-.7-3.7 14.4-8.7 28.8-8.1 43.9a1.21 1.21 0 0 0 .84 1.13c-.29 4.33-.55 8.67-1 13-.12 1 .77 1.41 1.56 1.23a67.46 67.46 0 0 0-1.81 8.93c-.71-.59-1.65-.4-1.65.44.09 3.94-1.22 7.7-2.2 11.46l-.2-.06c-.91 3.27-1.84 6.58-2.47 9.94-.2.59-.4 1.18-.63 1.76a1.19 1.19 0 0 0 .16 1.25 34.86 34.86 0 0 0-.26 5.85 2 2 0 0 0 .35 1c-.92 4.42-1.95 8.88-1.65 13.34a2.18 2.18 0 0 0 2.1 2.1c1.8 0 1.6-.5 2.6.8.9 1.1.7 2.4.7 3.7 0 2.9-.3 5.7-.5 8.6a141 141 0 0 1-1.67 15.34 1.66 1.66 0 0 0-1.83 1.46c-.1.68-.18 1.36-.26 2a2.11 2.11 0 0 0-1.54 1.46 15.88 15.88 0 0 0-.66 5.55v1.75a1.9 1.9 0 0 0 .86 1.66 2 2 0 0 0 3.34-.26 16 16 0 0 0 1.25-3.37 1.63 1.63 0 0 0 .85-1.13 112.21 112.21 0 0 0 2.3-18.85 1.53 1.53 0 0 0 2.9-.65c.5-9.8 2.4-19.4 4.6-29a1.46 1.46 0 1 0-2.86-.81zM1371.8 578.5c.3-2-2.8-1.9-3 0-1.5 11.5 1 23.3 3.7 34.5.4 1.7 2.9 1 2.6-.7-1.9-11.2-4.8-22.3-3.3-33.8zM1408.1 426.4c-4.27 13.31-5.55 27.15-6.81 41a.75.75 0 0 0-.09.22c-2.2 9.33-4.35 18.7-6.36 28.11a1.53 1.53 0 0 0-1.44 1.19c-3.23 12.49-4.45 25.29-5.42 38.14a1.68 1.68 0 0 0-2.27 0c.12-2.33.26-4.65.49-7 .7-7.9 2.6-15.6 4.4-23.3.5-2-2.5-2.8-3-.9a170.63 170.63 0 0 0-4.2 21.3c-1 7.8-.81 15.71-1.57 23.61a1.56 1.56 0 0 0-1.33 1.39c-.9 12.2-1.5 24.3-.1 36.5.2 2 3.4 2 3.2 0-1.49-12.11-.91-24.13-.12-36.24a1.28 1.28 0 0 0 .95-.55c-.34 8.74-.43 17.48-.43 26.19a1.6 1.6 0 0 0 3.2 0c0-5.3 0-10.61.1-15.93a1.92 1.92 0 0 0 2.4-1.67c1.5-16.07 1.76-32.34 4.29-48.24q1.19-6.13 2.46-12.23l.05-.23a1.93 1.93 0 0 0 0-.25q1.57-7.55 3.24-15.09c0 .25-.05.49-.08.74-.2 1.5 2.1 1.5 2.3 0 1.34-12 1.91-24.08 3.64-36 .2-.89.39-1.79.56-2.7a.67.67 0 0 0-.1-.34 120 120 0 0 1 4-17.16c.54-1.26-1.56-1.86-1.96-.56zM1398.1 444.6c3.4-11.5 5.2-23.4 7.3-35.2.3-1.4-1.8-2-2-.6-2.1 11.8-3.8 23.7-6.8 35.4a.78.78 0 1 0 1.5.4zM696.4 555.5c-.7 3.6-1.6 7.2-2 10.9l-.07.51c-.35 1.56-.72 3.13-1.13 4.69a1.46 1.46 0 0 0 1.12 1.83 6 6 0 0 0 1.08 2.17 1.42 1.42 0 0 0 2 0c.4-.4.8-.7 1.2-1.1 1.32-1-.48-2.88-1.78-2.07a9.08 9.08 0 0 1-.14-2.61c.95-4.28 1.69-8.6 2.42-12.93l.1-.49v-.1c.3-1.8-2.4-2.6-2.8-.8zM692.3 542.8c-.22.24-.44.47-.67.7.48-4.31 1.5-8.57 1.67-12.9 0-.9-1.3-1.5-1.8-.8a30.28 30.28 0 0 0-3.23 5.08c.26-1.13.49-2.26.67-3.39a1.38 1.38 0 0 0 1.16-1.4v-.78a1.45 1.45 0 0 0 1.56-1.3c1.71-2.6 1.92-5.43 1.85-8.33 1.23-2.77 2.6-5.44 3.85-8.17.8-1.7-1.7-3.3-2.6-1.5-.56 1-1.09 2.06-1.6 3.11h-.1v-.1c-.1-1.9-3-1.9-3 0v2.34a1.21 1.21 0 0 0-1.39.66c-1.5 3-1.7 6.1-1.7 9.5-.1 5.1-1.2 9.9-2.3 14.9a1 1 0 0 0 1 1.34 39.93 39.93 0 0 0-1.09 6.36c-.1 1.4 2.1 1.4 2.2 0a31.66 31.66 0 0 1 4.14-13.63c-.52 3.94-1.42 7.86-1.64 11.83a1.17 1.17 0 0 0 1.9.8 15.34 15.34 0 0 0 2.9-2.8c.72-1.02-.88-2.62-1.78-1.52z"/><path class="cls-1" d="M687 550.2a1.36 1.36 0 0 0-2.3 0c-1.8 3.1-2 6.6-2.4 10.1a.9.9 0 0 0 0 .38c-.42.9-.78 1.66-.94 2.12-1.23 4.14-.95 8.64-1.92 12.79-.77-1.32-3.38-1-3.38.91a8.78 8.78 0 0 0 1.5 5.2c.6.9 2.2 1.1 2.7 0 3-6.2 1.5-13.1 3.7-19.4.09-.25.2-.53.33-.83 2-.49 2.36-2.32 2.27-4.47a1.12 1.12 0 0 0-.07-.57c.94-2.36 1.51-4.75.51-6.23zM707.1 497.6a9.3 9.3 0 0 0-2.32 3.08 1.36 1.36 0 0 0-1.08.72c-3 4.9-5 11-4.6 16.8.1 1.8 3.1 1.8 3-.1v-.46a1.34 1.34 0 0 0 1.41-.64c1.53-2.53 2-5.5 2.45-8.43a11.31 11.31 0 0 0 1-4.44 12 12 0 0 1 2.3-4.43 1.49 1.49 0 0 0-2.16-2.1zM712.4 470.2c-.15 1.55-.39 3.08-.64 4.62-3.76 4.24-2.55 11.17-2.46 16.38 0 2.2 3.6 2.2 3.6-.1 0-2-.33-4.44-.35-6.81a1.55 1.55 0 0 0 1.55-1.49c.1-2.7 1.2-5.1 1.4-7.8a1.36 1.36 0 0 0-.3-1c.23-1.27.45-2.54.6-3.82.2-2.08-3.2-2.18-3.4.02zM745.39 365.75c.4-1.3-1.6-2.2-2.2-.9a51.25 51.25 0 0 0-3 5.7 1.56 1.56 0 0 0 1.1 1.9l.9.3a1.52 1.52 0 0 0 .31.09 7 7 0 0 1-1.81 3.81c-1 .7.2 1.8 1 1.1 2.9-2.54 2.68-7.22 3.44-10.9.16-.33.32-.67.46-1zM727.2 421.8c-.5-1.4-2.7-.8-2.2.6a32.07 32.07 0 0 1 1.59 7.48 1.3 1.3 0 0 0-2 .82 76.16 76.16 0 0 0-1.4 7.57c-.6 2.48-.87 5-1.39 7.51-1.14-3 .93-8.82 1.2-11.49.58-4.71.88-9.42 1.35-14.22l.05-.18v-.4c.2-1.4-2-1.6-2.4-.3-.29.89-.54 1.79-.77 2.69 0-.43-.08-.86-.13-1.29-.2-1.4-2.4-1.6-2.3 0 .1 7.8-1.8 15.3-2.7 23-.2 1.7 2.3 1.7 2.8.4l.12-.34a6 6 0 0 0 1.68 4.84 1.21 1.21 0 0 0 .44.26 36.22 36.22 0 0 0-.94 7.74c.2 1.6 2.5 1.6 2.5.1 0-3.9 1.1-7.3 1.9-11.1.44-1.94.68-3.88 1.07-5.8v-.19a22.82 22.82 0 0 1 .89-3.21 1 1 0 0 0-.2-1.14c.12-.52.25-1 .38-1.55.06 11.71-4.29 23.58-2.18 35.39.4 1.9 3.4 1.1 3-.8-3.06-15.49 5.24-31.09-.36-46.39z"/></svg>