<svg id="Layer_1" data-name="Layer 1" xmlns="http://www.w3.org/2000/svg" viewBox="0 0 1440 712"><defs><style>.cls-1{fill:#ff98a7}</style></defs><title>Artboard 1</title><path class="cls-1" d="M435.6 438.3a5.47 5.47 0 0 0 1.87-1.59c-.67 2.1-.8 5.21-2.87 6.39s-.6 4.1 1.5 3.6c1.6-.36 3.52 1.27 3.21 2.9a1.23 1.23 0 0 0-.81-.5 7.68 7.68 0 0 0-3.7.2 1.71 1.71 0 0 0-1.2 1.6c.2 4.7 5.8 4.6 8.2 1.6 2.59-3.16.73-7-2.3-8.74a32.84 32.84 0 0 0 2.2-6c.75-2.26-2.12-3.46-3.56-2.21a6.36 6.36 0 0 0 .06-5.15 3.37 3.37 0 0 0 .09-.43c.2-1.8-.6-3.7-1.3-5.4s-3.6-1.8-3.6.5a7.78 7.78 0 0 0 .41 2.28 3.17 3.17 0 0 0-3.41 1.92 3.65 3.65 0 0 0 3.2 4.8 4.13 4.13 0 0 0 1.3-.24 1.6 1.6 0 0 1-.6.94c-.8.6-2.9.7-3-.6-.6-2.5-4.4-2.6-4.1-.1a5.62 5.62 0 0 0 8.41 4.23zM428.7 422.3a7.13 7.13 0 0 0 4.69-1 1.69 1.69 0 0 1 .51 1.07 1.19 1.19 0 0 0 2.3-.3 4.25 4.25 0 0 0-.75-2.45 6.66 6.66 0 0 0 1.45-6.95 16.22 16.22 0 0 0-.93-2 5.81 5.81 0 0 1-.07-1.53c.6-3.4 2.2-5.5-.5-8.5-2-2.2-5.7.7-4.1 3.1 1 1.5-.7 3.9-.8 5.5a6 6 0 0 0 .7 3.7 1.09 1.09 0 0 0 .12.14 3.1 3.1 0 0 0 .38.76c0 1.2.9.7.4 2.2a2.87 2.87 0 0 1-.82 1.07 3.69 3.69 0 0 0-3.78 2.13c-.5 1.06-.2 2.86 1.2 3.06z"/><path class="cls-1" d="M469.5 565.1c-.2 0-3.8-.4-3.1-1.3s.1-2.6-.8-3.2a28.79 28.79 0 0 1-3-1.9l.23-.1c1.5-.7 1.3-2.5.5-3.5a3.51 3.51 0 0 0-4.6-1.2c.05-2 2.16-6.16 2.5-6.9.8-1.8 1.4-3.6.8-5.6-.7-2.3-2.7-3.9-4.5-5.4a24.51 24.51 0 0 1-3.5-2.9 5.19 5.19 0 0 1-1.62-3 6.7 6.7 0 0 0 4.92-.94 2.28 2.28 0 0 0 1-2.5 4.36 4.36 0 0 0-4.91-3.49 4.91 4.91 0 0 0 1.11-3.61c-.18-2.75-2.4-4-4.8-4.06a2.06 2.06 0 0 0-1.3-2.84 6.08 6.08 0 0 0-3.66-.21 3.73 3.73 0 0 1-1-1.27 8.65 8.65 0 0 0 1.08-.32c4.6-1.7 7.3-6.1 7.9-10.8.36-2.95-3.75-3.25-4.91-.93a11.15 11.15 0 0 0-1.52-3.94 12 12 0 0 0 3.39-3.5 8.52 8.52 0 0 0 2.74-6.53 2.33 2.33 0 0 0-1.86-2.06 4.85 4.85 0 0 0-.34-.64c-1.7-2.8-3.9-3.4-1.9-7.9a2.26 2.26 0 0 0-1.9-3.3c-.3 0-.6-.1-.9-.1a1.75 1.75 0 0 0-2 1.52 1.85 1.85 0 0 0-2.32.38 1.9 1.9 0 0 1-.26.21 6.85 6.85 0 0 0-.84-1.61c-.08-.1-.16-.2-.25-.3a6.2 6.2 0 0 0 2.15-1.9 9 9 0 0 0 2.11-5 8.42 8.42 0 0 0 1.69-4.82c-.1-6.3-10.2-6.9-9.9-.2a2.51 2.51 0 0 0 .09.58 5.47 5.47 0 0 0-1.82 1.98c-.06.11-.09.23-.15.34a1.6 1.6 0 0 0-2.25 1.26 6.5 6.5 0 0 0 2.26 6.53 3 3 0 0 0-.56.57 3.74 3.74 0 0 0-.56 3.36c-2.91 2.55-.28 6.21 2.92 6.81a6.06 6.06 0 0 1-1.49 1.7 1.61 1.61 0 0 0-.46-.27 4 4 0 0 0-3.7.3 1.51 1.51 0 0 0-.3 2.4c3 3.6 7.7-.4 9.1-3.4a7.88 7.88 0 0 0 .62-1.74 5.33 5.33 0 0 0 .78-.86 5 5 0 0 0 .54-1 6.93 6.93 0 0 0 1.67-.74 6.11 6.11 0 0 0 .58 4.55c.7 1.3 2.2 1.7 3 2.8a4.05 4.05 0 0 1-.23 4.57 2.31 2.31 0 0 0-2.18-.94 1.25 1.25 0 1 0-2.49-.13c-.06 1.39-2.05 1.94-4 2.47a4.41 4.41 0 0 0-4-1.53 10.24 10.24 0 0 0-1.66-.63 1.67 1.67 0 0 0-1.9.8 3.59 3.59 0 0 0 .66 4.55c0 .15.08.29.13.44a1.76 1.76 0 0 0 .49 1.1l-.18-.08a2.08 2.08 0 0 0-2 .5c-2 1.7-5-.4-6.7 2.5-1.3 2.2-.22 5.26 1.53 7.19a2.14 2.14 0 0 0 .17.41c1.9 3.4 5.5 9.9 10.2 8.9 2.14-.47 3.1-1.65 3.31-3.05a8.45 8.45 0 0 0 1.94-.32 7.14 7.14 0 0 0 .75 1.88 8.92 8.92 0 0 0 1.44 1.84 6.71 6.71 0 0 0 1.26 8.56 6.53 6.53 0 0 0 1.76 1.1 11.58 11.58 0 0 0 3.46 3.61c-.78 3.74 2.2 7.58 5.08 9.9 1.1.9 2.7 1.7 3.5 2.8 1.8 2.6.6 4.4-.6 6.8a12.8 12.8 0 0 0-1.5 6.6c.2 2.56 1.33 4.09 2.92 4.72.72 1.95 2.42 3.18 4.28 4.43-.57 3.66 3.89 6.51 7.9 6.34 3.06-.14 3.06-4.94-.04-4.84zm-28.4-106a1 1 0 0 1 .42.88 5.68 5.68 0 0 0-1.32-.57c.01-.54.14-.78.9-.31zm-2 4.5c-.76.48-1.13.57-1.46.2a1.4 1.4 0 0 1 1.46-.9 1.35 1.35 0 0 1 .58.24 5.12 5.12 0 0 1-.58.46zm-9 43.38a21.06 21.06 0 0 1-1.83-2.79 2.63 2.63 0 0 0-1.15-1.89l-.9-1.5c-1.2 0-1.3-.1-.2-.2.8-.4 2-.1 2.9-.4a7.81 7.81 0 0 0 1.51-.65 4.55 4.55 0 0 0-.41 1.35 5.17 5.17 0 0 0 .87 3.79 2.48 2.48 0 0 0-.81 2.31zm1.63-8.92c.05-.06.07-.07.06 0zm7.79-1a8.62 8.62 0 0 0 0 .92 3.67 3.67 0 0 0-.89 0 11.76 11.76 0 0 0-1.23-.39 11.16 11.16 0 0 0 2.17-.64s-.07.1-.07.15zm3.27 1.32a6.22 6.22 0 0 1 .41 1.14 5.24 5.24 0 0 1-.43-1.1zm5.8 22.25c.23-.81.73-.38 0 0zM599.71 510.54a9.85 9.85 0 0 0 2.59-2.24c1.51-1.87 2-3.44 1.72-4.73a5.32 5.32 0 0 0 1.28-1.8q.6-.12 1.2-.27a1.8 1.8 0 0 0 1.2-1.2 4.39 4.39 0 0 0-2.34-4.67 5.82 5.82 0 0 0 0-.93 6.08 6.08 0 0 0-2.86-4.8 5.74 5.74 0 0 0 1-2.8 6.27 6.27 0 0 0-1.46-4.55 7.74 7.74 0 0 0 1-6.7 5.93 5.93 0 0 0 1.73-.75c4-2.6 3.07-7.36.57-10.8a5.71 5.71 0 0 0 3.93-2.6c2.19-3.36.27-6.16-1.7-8.87 2.53-1.83 4.61-3.74 5.1-7.23.4-2.7-.5-5.4 0-8.1a20.63 20.63 0 0 1 4.3-8.3c1.8-2.4-2.4-5-4.1-2.4a27.49 27.49 0 0 0-4.5 10.2c-.3 2 .1 3.8.1 5.8 0 4.1-1.6 5.6-4.7 7.9a2.08 2.08 0 0 0-.7 2.8c.7 1 2.7 2.8 2.9 3.9.7 3.84-2.11 3.8-4.36 3.52l-.89-.12c-1.8-.2-2.4 2.5-.9 3.3 2.6 1.3 4.3 3.6 3.4 6.5.19 1.35-.27 2.13-1.47 2.28a9.05 9.05 0 0 0-2.23-2.38c-.9-.7-2.1.1-2.4 1-.95 2.53.41 3.94 2.34 4.42a5 5 0 0 1 .06 3.58 3.48 3.48 0 0 1-.39.71 9.09 9.09 0 0 0-6.91-.81 1.8 1.8 0 0 0-1.2 1.2c-.72 4.92 4.08 5.83 7.82 4.33a6 6 0 0 1 .08 1.57 5.79 5.79 0 0 1-.23 1.67 12.73 12.73 0 0 0-7.37.13 1.71 1.71 0 0 0-.4 3.1 10.25 10.25 0 0 0 9.29.48 2.38 2.38 0 0 1 1.09 1.12 3.92 3.92 0 0 1 .32 1.29l-.55-.09c-3.86-1.48-9.06-1.34-11.47.41a1.34 1.34 0 0 0-.5 1.9 13 13 0 0 0 2.27 2.44l-.37.05a1.41 1.41 0 0 0-1 1.3c.25 4.5 5.68 6.18 10.08 5.22a7.41 7.41 0 0 1-2.48 2.18 11.34 11.34 0 0 1-1.65.82c-1.91-2.21-6.07-2.76-9.45-2a20.44 20.44 0 0 1-1.7-1.52 1.66 1.66 0 0 0-2.4 2.3l.74.75a4.67 4.67 0 0 0-1.24 1.35 2.31 2.31 0 0 0-.14 1.83 4.24 4.24 0 0 0-1.66 3.67 2.5 2.5 0 0 0 .52 1.49 2.39 2.39 0 0 0-1.12.21c-2.22 1-2.67 2.41-2.13 3.93a8.75 8.75 0 0 1-2.87-.33 3.76 3.76 0 0 1-1.8-1.5c0 .08-1.39-3.09-.94-3.51l.64.41c1.4.9 2.5-1.2 1.3-2.2l-.09-.05.09-.15a10 10 0 0 0-1.4-.8 1.22 1.22 0 0 0-1.63.36 3 3 0 0 0-2 2.44c-.5 2.5 1.7 6.2 3.8 7.6a8.64 8.64 0 0 0 7.09.87 24.18 24.18 0 0 0 7.91 5.13c2.8.8 6.3 0 7.2-3.1a5.2 5.2 0 0 0 .21-1.28c5.28-.09 11.47-2.33 14.2-6.39a11 11 0 0 0 8.5 1 2.72 2.72 0 0 0 1.6-4c-3.29-4.82-12.49-6.28-19.47-4.49zm-6.87-14.32h.16a1.19 1.19 0 0 0 .05.21zm2 6c-1-.5-1.1-.6-.5-1a1.36 1.36 0 0 1 .79-.09 15.39 15.39 0 0 0 2.76.78c.46.18.83.35 1 .45a5.85 5.85 0 0 1-4.09-.16zm.28-4.55a21.52 21.52 0 0 0 4.28 1.09 12.21 12.21 0 0 1-4.32-1.11zM590.3 524c-.7 1.5-2.7.2-3.6-.2a40.7 40.7 0 0 1-4.09-2.88 4.81 4.81 0 0 0-.61-3.62l-.06-.09a21.75 21.75 0 0 0 4.41.27 1.9 1.9 0 0 0-.15.42c-.63 3.11 1.22 5.05 4.14 5.94a.71.71 0 0 1-.04.16zm2.58-4.7a12.91 12.91 0 0 0-2.47-2.28c.54-.11 1.06-.25 1.57-.4a2.79 2.79 0 0 0 1.22 2.08 9.89 9.89 0 0 0 1 .63zm9-1.26l.2-.25a2.48 2.48 0 0 0 .27-1.9c.82-.07 1.62-.09 2.35-.1a6.31 6.31 0 0 1-2.8 2.21zM869.7 497.34a6.51 6.51 0 0 0-.1-3.34 8 8 0 0 0-1.8-3.29 10.84 10.84 0 0 0-3-2.8 11.28 11.28 0 0 0-3.16-4.05c1.66-3.4.65-7.78-1.53-11a17.39 17.39 0 0 0-1.9-2.35 10.43 10.43 0 0 0 .8-1c3.42-4.72 2.21-10.87-1.43-14.92 2.84-2.91 3.45-7.69 2.23-11.91a10.35 10.35 0 0 0 3.3-1.77 3.36 3.36 0 0 0 .8-2.9c-.88-4.58-4.79-7.18-6.47-11.11a3.53 3.53 0 0 0 1.77-1.39 5.77 5.77 0 0 0 .81-4.73 2 2 0 0 0 1.39-2.27 7.27 7.27 0 0 0-1.79-3.68c0-2-1.61-4.26-4-3.42l-.9.3a3.16 3.16 0 0 0-1.9 4.6c.92 1.71 0 3.09-1 4.47-1.74-.32-3.31 1.57-1.84 3.13.1.1.21.17.32.26a8.87 8.87 0 0 0 .88 4.24c1.38 3.25 4.67 5.84 6.24 8.94a4.38 4.38 0 0 1-.51 0 9.66 9.66 0 0 0-7.73-3.29 3.1 3.1 0 0 0-2.2 5.2 12.53 12.53 0 0 0 5.95 3.51c1.85 3.11 2.12 7.82-.95 8.09a3.24 3.24 0 0 0-.84.22c-2.07-4.38-6.89-8.59-11.32-10.65-.65-.89-1.23-1.8-1.93-2.66-1.52-2.09-5.3-1.1-4.8 1.58a5.57 5.57 0 0 0-3.6 2.72c-1.53 2.77.11 4.71 2.32 6.22a3.29 3.29 0 0 0-.12.68c-.2 2.5 1.5 4.8 2.8 6.8.38.62.78 1.21 1.18 1.8a5.31 5.31 0 0 0-1.68 3.8 6.77 6.77 0 0 0 6 6.23 3 3 0 0 1-.87.67c-2.2-2.2-6 .6-4.3 3.3.14.24.26.49.38.74l-.08.06.2.17a26.23 26.23 0 0 1 1.09 2.54 5.4 5.4 0 0 0-1.89.79c-1.92 1.24-2.82 3.25-3.7 5.26l-.15.12c-1-1.81-4.12-1.66-4.7.45-2.91-.4-5.78-.6-7.75 1.66a2 2 0 0 0-.5 1.8 20.55 20.55 0 0 0 5.34 7.44 6.41 6.41 0 0 0 1.06 2.36 2.77 2.77 0 0 0 2.27 1.15 11.14 11.14 0 0 0 8.18 6.73 14.52 14.52 0 0 0 3.25 2.92c5.95 3.6 13.54 3.39 19.73.4a33 33 0 0 0 13.27-2.7 2.76 2.76 0 0 0 1.3-3.1 7.69 7.69 0 0 0-2.42-3.02zm-44.24-12.77a10.09 10.09 0 0 0-1.67 2.49 16.39 16.39 0 0 1-1.65-2.24 7.07 7.07 0 0 1 3.4-.7c-.03.15-.06.3-.08.45zm3.9 6.78c.06-.34.12-.68.17-1a6.94 6.94 0 0 1 .4 1.3zm26.49-10.5a41.17 41.17 0 0 0-12.63-1.65c-.66-1.76-1.17-3.55-1.77-5.32a6.71 6.71 0 0 0 2.95-2.32 8.29 8.29 0 0 0 8.38 2.16c2.44 1.93 4.22 4.78 3.07 7.13zm-9.25-25.25c.45 2.34 2.88 2.52 4.37 1.38a7.23 7.23 0 0 1 3.83 6.63 6.18 6.18 0 0 1-1.9 3.28 14 14 0 0 0-7.43-1 12.28 12.28 0 0 0-.58-2.18 20.45 20.45 0 0 0-1-2.22 17.75 17.75 0 0 0-2.14-4.57 1.91 1.91 0 0 0 1-3 14.12 14.12 0 0 1-2-3.29c-.06-.66-.15-1.31-.27-1.95a3.34 3.34 0 0 0-.13-.87c2.46 1.88 5.65 4.64 6.25 7.79zm-15.81 41.69a1.46 1.46 0 0 0 .43.11c.06.16.12.31.18.47-.21-.18-.4-.37-.61-.58zm7 2.58c-1.65-1.69-4.39-5-.18-6.18a9 9 0 0 1 3.2.9q2.55 2.85-.3 3.9a6.28 6.28 0 0 1-2.73 1.39zm3.06 2.34A12.56 12.56 0 0 0 843 501a15.52 15.52 0 0 0 3.86 2.89 14.24 14.24 0 0 1-6.01-1.68zm16.29-5.36a24.58 24.58 0 0 0-11.14-1.21c-.43-3.8-5.51-7.07-10-6.44a9.42 9.42 0 0 0-2.19.55 12.41 12.41 0 0 0-.66-1.73 35 35 0 0 0 2.15-3.72c1.7-3.2 1.4-4.6 3.7-1.1a3.24 3.24 0 0 0 .82.86 5.9 5.9 0 0 0 4 4.89 3.4 3.4 0 0 0 .34.45 13.46 13.46 0 0 0 2.33 2.11 4.71 4.71 0 0 0-.13.89 1.54 1.54 0 0 0 1 1.4 2.34 2.34 0 0 0 2.59-.53 15.18 15.18 0 0 0 3.94.75 15 15 0 0 0 3.41 2 2.92 2.92 0 0 0-.16.84zM1073.9 212.5c-4.6-.7-6.4 6.1-7.4 9.3-1.7 5.8-2.5 11.8-4.1 17.6a39.51 39.51 0 0 1-2.88 7.27 11 11 0 0 0-2.62-.57c-1.9-.1-2.2 2.4-.9 3.3a10.39 10.39 0 0 0 1.47.87c-3.4 5.36-7.82 10-12.47 14.55a25.15 25.15 0 0 0-13.3-2.92 2.89 2.89 0 0 0-2.6 2c-1.14 2.85-.07 5.25 2 7.21a1.9 1.9 0 0 0 .07.29 11.87 11.87 0 0 0 2.73 4.06 3.9 3.9 0 0 0-.93 1.14 2.87 2.87 0 0 0 .4 3.4 30.91 30.91 0 0 0 7.51 4.88 2.65 2.65 0 0 0-.22 1.76h-.19c-2.1-.4-4.4 1.8-3 3.9a14.21 14.21 0 0 0 11 5.6 9.41 9.41 0 0 1 2.78 3.29 20.7 20.7 0 0 1-10.36-.8 23.55 23.55 0 0 0-7.18-3.75 8 8 0 0 0-2.25-1.84 2 2 0 0 0-3 1.7c.17 3.26 2.08 5.95 4.68 8.11a2.22 2.22 0 0 1-.28.69c-1.8 2.9-6.2-1.3-7.6-2.5-3.12-2.78-7.82-7.29-8.75-11.89a9.31 9.31 0 0 1 4.05 6.69c.09.83 1.35.72 1.48 0h.32c-.08-.57-.19-1.11-.32-1.64.26-4.27 3.47-7.95 5.72-11.46.8-.5-.3-1.1-.8-.4-2.07 3-4.63 6.13-5.67 9.64a11.61 11.61 0 0 0-5.23-5.74 1.2 1.2 0 0 0-1.8.7c-.9 4.1 2.3 8.6 4.7 11.7 2.6 3.4 6.3 7.9 10.6 9.2 3.91 1.17 6-.32 6.77-2.76a42.77 42.77 0 0 0 8.53 3.76c.81.27 1.67.5 2.55.71a20.07 20.07 0 0 0 1.95 1 13.38 13.38 0 0 0 9 .9 8.86 8.86 0 0 0 4-2.85 11.52 11.52 0 0 0 4.32-3.75c1.4-2-1.3-4.4-3.3-3.3a8.1 8.1 0 0 0-1.08.82l-.08.1c-.56.5-1.08 1.06-1.6 1.61-2.58 1.81-6.52 2-10 1.51l-.82-.47a22.47 22.47 0 0 0 5.34-1.05 2.67 2.67 0 0 0 1.9-2.5 10.26 10.26 0 0 0-3.08-7.33A7.3 7.3 0 0 0 1055 293a2.62 2.62 0 0 0 0-2.7l-.2-.36c2.77-1.83 3.33-5.53 1.1-8.44a12.52 12.52 0 0 0-3-2.43 10 10 0 0 0-1.19-1.65 5.12 5.12 0 0 0 .83-1 14.36 14.36 0 0 0 6.85-5.79 9.22 9.22 0 0 0 1.5-5.8 9.61 9.61 0 0 0-1.33-3.09c4.8 2.75 11.27 5.07 11.93-2 .32-3.38-2.33-6.94-5.7-9.57 4.17-2.19 6.85-7.28 5-12a8.45 8.45 0 0 0 6.42-4.67c1.77-3.89-1.07-7.31-3.62-10.12 1.89-3.3 6.92-9.79.31-10.88zm-33.25 56.6a14.08 14.08 0 0 0-5.48-1.23 5.46 5.46 0 0 1-.57-.5 23.38 23.38 0 0 1 6.25 1.5 2.49 2.49 0 0 0-.2.23zm4.33 2.54l-.4-.29.21-.2c.23.19.44.39.65.59zm7.06-.83a16.07 16.07 0 0 0-3.26-3.51c2-2 4-4 5.95-6.06.13.34.26.68.37 1.06a7.15 7.15 0 0 1-3.1 8.51zm15-13.51c.5 1.1.8 3.4-1 4-1 .3-3-1-3.8-1.4a29.21 29.21 0 0 1-3.85-2.91c.93-1.17 1.82-2.36 2.65-3.59.33-.48.62-1 .92-1.5a14.85 14.85 0 0 1 5.04 5.4zm-2.43-10.77a58.87 58.87 0 0 0 2.32-7.15c1.4 2.74.07 5.62-2.36 7.15zm3.43-11.89c.18-.85.35-1.7.51-2.54.43-2.15.83-4.33 1.33-6.49a10.74 10.74 0 0 1 2.27 2.49c1.6 3.59-.05 6.97-4.15 6.54zM129 358.6c-.3-1.3-2.3-2-3.2-.9-2.8 3.6-4.1 7.9-6.2 11.9-2.9 5.6-6.5 10.8-9.7 16.2-6.2 10.5-11.5 21.1-20 30-1.9 2 1.1 5.1 3.1 3.1 8.1-8.1 13.1-18 18.7-27.9 3-5.3 6.2-10.5 9.3-15.8 2-3.39 3.37-7.35 5.2-10.91.42 3.15.66 6.33.8 9.51.1 4 1 15.6-6.8 10.5l-.09.21c-.17-.07-.33-.15-.51-.21-2.2-.8-3.3 2.4-1.5 3.6a9.43 9.43 0 0 0 1.52.78c.79 1.36.26 3.89-.22 4.92-1.1 2.5-3.5 3.2-5.8 4a2 2 0 0 0-1.4 2.4c.6 3.2 2 6.4-.2 9.1a3.4 3.4 0 0 1-1 .85 6.07 6.07 0 0 0-4.84-2.55 2.23 2.23 0 0 0-1.7.9c-1.65 3.71.91 6.12 4.21 6.46a5 5 0 0 1-2.11 3.74 7.49 7.49 0 0 1-1.74.9c-3-1.72-6.24-2.53-8.46-1.6-1 .4-1.9 1.6-1.1 2.7a8 8 0 0 0 4.37 3 9.82 9.82 0 0 0-2.57.17 1.92 1.92 0 0 0-1.4 1.8 4.57 4.57 0 0 0 .38 1.92 3.71 3.71 0 0 0-.28 2l-.61-.35a27.78 27.78 0 0 1-4.52-3.39 31.65 31.65 0 0 0-3.18-7.21c-1.2-1.9-2.9-3.7-3.5-5.9-1.5-4.9 2.9-9.2 7.6-9.5 1.2.3 1.2-1.5 0-1.4-4.6.2-9.6 3.7-10 8.6a11 11 0 0 0 1.7 6.1c.71 1.35 1.39 2.62 2 3.88l-.73-.78-.22.22a1.91 1.91 0 0 0-2.48 2.88c2.3 2.42 4.63 5 7.22 7.27 3.51 8.61 12.89 17.67 22.78 14.83a1.73 1.73 0 0 0 1-2.6 13 13 0 0 0-2.83-3.87c3.53.29 6.42-.75 6.33-4.63-.06-2.09-1.55-4-3.71-5.56a13.63 13.63 0 0 0-4.15-6 9.53 9.53 0 0 0 2.56-2.46 8.57 8.57 0 0 0 1.42-5.34c5.11-1.92 4.6-8.35 3.71-13.32 3.71-1.52 6.67-3.61 7.37-8a12 12 0 0 0 0-3.55 7.62 7.62 0 0 0 7-5.95c.9-3.5.2-7.6.1-11.2A88.7 88.7 0 0 0 129 358.6zm-16.92 73.79a.84.84 0 0 1-.28 1.31 3.13 3.13 0 0 1-2.09.17 4.25 4.25 0 0 0 2.37-1.48zm-3.92-2.7a7.27 7.27 0 0 1-2.86-.39c-.43-.12-1-.29-1.6-.51a7.18 7.18 0 0 0-.91-1.48 31 31 0 0 1 5.37 2.38zm-3.21-6.1c.55.44 1.06.89 1.53 1.34a28.65 28.65 0 0 0-3.85-1 11.15 11.15 0 0 0 2.37-.34zm-10.36 10a14.81 14.81 0 0 0 2.78 1c3.85 1.79 8.29 3.56 11 6.79-5.17.27-10.37-3.44-13.78-7.79zM1417.8 517.6c2.8-6.8-3.1-11.1-3.6-17.3-.3-3.4-5.7-3.5-5.4 0s1.8 5.9 3.2 8.9c.7 1.5 1.8 4.1 1.1 5.8-.9 2.3-2.7 1.9-4.2 3.1-3.85 3.29-.23 7.62.62 11.52a7.91 7.91 0 0 0-2.42-.52 2.47 2.47 0 0 0-2.5 1.9c-1.1 3.6 1.4 7 5.3 6l.4-.13a10.46 10.46 0 0 1 1.2 3.43 4.59 4.59 0 0 1-.1 2.69 4.29 4.29 0 0 0-3.7-1.59c-3.4.2-4.2 4.7-2.3 7a4 4 0 0 0 2.8 1.47 9.55 9.55 0 0 1-.2 3.33 5 5 0 0 1-.38 1.06c-.79-5.07-3.91-9.64-9.82-8.16a2.43 2.43 0 0 0-1.7 1.7 11.59 11.59 0 0 0 2.19 8.77 6.24 6.24 0 0 0-1.34 1.26c-3.5-3.21-11-.45-13.45 2.67-8.7 10.6 17.8 23.5 22.6 9.7a2.34 2.34 0 0 0-.5-2.1l-.05-.05a13.44 13.44 0 0 0 1.05-1.65 7.56 7.56 0 0 0 .64-5.33 7.47 7.47 0 0 0 4-2.67c1.51-1.81 2.43-6.2 2.07-10.07a8.8 8.8 0 0 0 .93-.73c4-3.67 3.1-10.32-.23-14.56a11.32 11.32 0 0 0 0-5.74c-.3-1.2-1.2-2.6-1.2-3.8a2.78 2.78 0 0 0-.19-1.12c.13 0 .39-.11.89-.58 1.69-1.6 3.29-1.8 4.29-4.2zm-10.31 28.95c-.42 0-.06-.6 0 0zm-22.3 18.31a3.66 3.66 0 0 1 .41-1.76c1.1-2.3 5.6-4.1 8-3.3 1.54.47 1.42 1.2.68 1.91a10.33 10.33 0 0 0-9 3.15zm12 3.44c-2.92 1.2-6 1-8.24-1a5.48 5.48 0 0 1 1.31-.83c.5-.13 1-.27 1.49-.43a10.42 10.42 0 0 1 6.51 1.78 9.38 9.38 0 0 1-1.06.48zm3.39-17.53c1.16.48 1.75 1.9 2 3.53a6.74 6.74 0 0 1-1.99-3.53zM1162.15 580.64c.09-.18.17-.35.25-.54 3.27-8.54-7.47-14.08-15.55-17a22.33 22.33 0 0 0-5.35-1.71 3.32 3.32 0 0 0-.33 0 5.17 5.17 0 0 0 2.83-2.17c1.4-2.5-.5-4.9-2.8-6.1a9.29 9.29 0 0 0-2.4-.88 4.84 4.84 0 0 0 1.5-2.35 13.62 13.62 0 0 0 7.36 1.77 3.76 3.76 0 0 0 2.65 3.56 6.92 6.92 0 0 0 6.37-.75c1.7 3.44 6.06 4.74 9.13.55 4.2-5.6 0-13.2-6.9-12-2.4.4-1.8 4.2.6 4.1 2.1-.4 3.3.6 3.7 3-2.6 2.3-3.6 2.3-3.1.2.1-2.1-2.8-2.7-3.8-1-1.3 2.2-6.8 3.4-4.4.5a1.7 1.7 0 0 0-2.4-2.4c-2 1.68-6.7-.32-9.5-2.61a7 7 0 0 0-3.1-3.69 2.22 2.22 0 0 0-2.52.37 12.37 12.37 0 0 0-1.08-.67 2 2 0 0 0-2.3.3 6.55 6.55 0 0 0-1.68 6.59 1.4 1.4 0 0 0 0 .41 6.39 6.39 0 0 0 3.45 5.2 8.65 8.65 0 0 0-1.05.8 1.65 1.65 0 0 0 .3 2.6 4.23 4.23 0 0 0 3.8.4 1.59 1.59 0 0 0 1.2-1.6v-.27c1.2-.18 2.39 0 2.89.87 1.4 2.5-3.7 2.3-5 2.7a9.44 9.44 0 0 0-2.8 1.5c-.3.2-2.7 3.1-2.6 1.3.3-2-2.8-2-3 0-.3 3.8 2.6 4.4 5.7 3.2.4-.2.6-.6.9-.7a6.42 6.42 0 0 1 5.4-2.3 8.25 8.25 0 0 0 .88-.06 2.8 2.8 0 0 0 .62 5.16c4.4 1.2 16.5 4.2 17.1 9.9a2.25 2.25 0 0 1-.87 2.15c-5.53-1.52-10.77-3.16-16.53-2a2.72 2.72 0 0 0-1.2 4.6c.17.17.36.34.56.5a5.32 5.32 0 0 0 .94 3.1c.1.17.22.32.34.48a21.48 21.48 0 0 1-7.34-2.88 6.2 6.2 0 0 1-2.56-3.28c1.83-.88 3.59-1.85 4.56-3.72a1.07 1.07 0 0 0-.7-1.6c-6.4-1.2-9.9 5.1-5.5 10.1 4.76 5.32 12.91 6.67 20.43 6.18 1.94.44 3.86.71 5.47.92 4.7.6 12.2 1.4 15.9-2.4a2.69 2.69 0 0 0 0-3.8 22.78 22.78 0 0 0-8.47-4.53zm-28.34-33a6.9 6.9 0 0 0-.74-.52 4.46 4.46 0 0 1 0-2.15 6.94 6.94 0 0 1 .77.65c1.16.72 1.16 1.38-.02 2zm26.38 38.71a5.86 5.86 0 0 0 0-.86c.79.23 1.57.48 2.34.77-.76.03-1.53.06-2.33.07z"/><path class="cls-1" d="M1167.6 457.9c4.1 6.4-5 11.1-6.3 16.5-.6 2.7 2.1 9.6-1.7 9.7a2.69 2.69 0 0 0-2.7 2.7 35.67 35.67 0 0 1 0 8c-.7 4.2-2.7 4.7-6.6 3.1a2.2 2.2 0 0 0-2.2 3.8c3.5 2.6 5.5 6.8 8 10.3 1.11 1.54 3.6 4.77 4.44 7.7-3.58-3.51-8-6.07-9.84-.6s5.3 12.2 10.5 8.8l.13-.1c2.41 4.58 5 11.32.57 10.9a2.37 2.37 0 0 1-.74-.22c1.18-3 .85-6.36-2.16-8.38a2 2 0 0 0-2 0 5 5 0 0 0-2.63 3.49 4 4 0 0 0-1.68-.35c.32-2.61 1-5-2.09-6.94a8.49 8.49 0 0 0-5.42-1.07c-3.21-2-8.14-2.35-10.78-.33-3.2 2.5-2.6 5.9.8 7.8a8.11 8.11 0 0 0 6.56.43 4.51 4.51 0 0 0 2.48 1.42c-.57 2.69-.57 5.35 1.57 7.56a9.73 9.73 0 0 0 9.9 2.1 9.5 9.5 0 0 0 3.24-2.27 6.89 6.89 0 0 0 4 1.07c9.4-.6 5.1-12.7 2.4-17.4a20.66 20.66 0 0 0-1.28-1.89 13.42 13.42 0 0 0-.92-8.31c-1.5-3.2-3.9-6-5.8-8.9q-1-1.54-2-3a6.47 6.47 0 0 0 4.71-2.69c2.4-3.15 2.54-7.74 2.4-11.73 5-1.33 4.21-6.57 4.3-11.67 0-3.6 3.9-6.5 5.5-9.8 2-4.2 2.9-8.4.1-12.4-2.06-2.82-6.66-.22-4.76 2.68zm-13.3 63.2c.5-2.4 3.7 1.6 4.7 2.8.09.12.22.3.36.52-1.9 1.25-5.56-.93-5.06-3.32zm-14 8a4.4 4.4 0 0 1-3-.71 3.76 3.76 0 0 1 3.41-.51 3.65 3.65 0 0 0-.41 1.2zm10.3 12.42c-4.08-.85-4.33-4.52-3.82-7.88a4.75 4.75 0 0 0 .82-1.22 5.43 5.43 0 0 0 .61-2.84 3 3 0 0 1 1 2.44c.1 1.3-.4 2.4-.2 3.8a1.79 1.79 0 0 0 2.6 1.1c.8.1 1.5.1 2.3.2a1.58 1.58 0 0 0 1.14.55 10 10 0 0 0 1.25 2 5.74 5.74 0 0 1-5.7 1.83zM290.2 580.2a30.8 30.8 0 0 0-5-2.66l.22-.09a15.35 15.35 0 0 0 3.52 1.65c3.1 1.1 4.5-3.9 1.4-4.9l-.25-.1a11.79 11.79 0 0 0 .95-1.3c2.87-4.46-4.16-9.49-11.64-11.72a6.31 6.31 0 0 0-.69-1.09c0-.49-.09-1-.16-1.56a7.12 7.12 0 0 0 1-3.13 10.58 10.58 0 0 0-.6-4.1c.17-1 .34-2 .5-3a2.43 2.43 0 0 0-3.5-2.7q-.45-.59-.94-1.14a7.42 7.42 0 0 0 3-3.67 6.19 6.19 0 0 0-1.42-6.7c.64-1.58 1.19-2.89 1.42-3.6.5-1.6 1.4-4 .6-5.7-.2-.5-.8-.7-1-1.2l-.11-.21c4.08-4.74 0-11.53-2.39-16.39-1-2.1-4.4-1.1-4.3 1.2.16 3.4-.3 7.12-.05 10.6a7.6 7.6 0 0 0-1.35-.4 2.31 2.31 0 0 0-2.9 2.2c.24 3.06 2 5.06 4.23 5.54.09 1.64-.8 3.13-2.73 2.66-2.3-.6-4.1 3-1.7 4.1a40.87 40.87 0 0 1 4.7 2.3l.37.23a18.93 18.93 0 0 0-.77 1.87c-.33 1.05-.69 2.21-1 3.4a6.51 6.51 0 0 0-1.72-.3 2 2 0 0 0-1.4 3.4 6 6 0 0 0 2.62 1.63 7.88 7.88 0 0 0 .58 2.47 6.24 6.24 0 0 0 3 3.2 4.64 4.64 0 0 0 1.24.42 45.58 45.58 0 0 0-.69 4.9c-3.58-1.29-7.63-1.31-9.56 1-.7.8-.8 2.4.4 2.9a18.46 18.46 0 0 0 2.85.95A4.16 4.16 0 0 0 265 564a3 3 0 0 0 0 .8 4.3 4.3 0 0 0-1.35 2.6c-.4 3.1 3.7 6.4 5.8 7.9a16.08 16.08 0 0 0 1.93 1.16 7.52 7.52 0 0 0-1 .64c-4.85 3.49-2 8.93 3.2 9.45a17.32 17.32 0 0 0 7.16 5.35c-.38.17-.79.34-1.26.5-4 1.4-8.8-.6-12.1-2.9a22 22 0 0 1-4.17-4.12 4.06 4.06 0 0 0 .87-2.88 1.77 1.77 0 0 0-2.7-1.5 3.61 3.61 0 0 0-2.23 2.48l-.57-.18a1.13 1.13 0 0 0-1.4 1c0 2.16 1.31 3 2.83 2.86a17.49 17.49 0 0 0 3.99 4.64c5.6 4.6 14.7 7.5 20.8 2.3a8.8 8.8 0 0 0 1.1-1.12 11.19 11.19 0 0 0 2.7-.28 8.15 8.15 0 0 0 5.8-5c1.2-3.3-1.6-5.8-4.2-7.5zm-16.29 1.43c-1-.07-.46-.82 1.66-.92a4.88 4.88 0 0 0-1.66.92zm1.79-8.63a13.8 13.8 0 0 1-4.9-3c-.9-.8-2.8-1.7-1.1-1.4 1.92.36 5.19 2.38 7.39 4.75a10.29 10.29 0 0 1-1.39-.35zm3.3 12.67a9.68 9.68 0 0 1 3.3 1.84 12.85 12.85 0 0 1-3.3-1.84zm9.42 2.13a4.32 4.32 0 0 1-1.11.37 9.62 9.62 0 0 0-4.47-6v-.06c2.48.72 5.13 1.78 6.15 3.38.71 1.21 1.01 1.51-.59 2.31zM300.9 358.4c-5.6-1.8-11.1-4.3-15.4-8.6a20.6 20.6 0 0 1-3.12-3.93c3.74-1.85 6.09-7.1 4.12-11.17a23.71 23.71 0 0 0-5.46-6.65 52.63 52.63 0 0 1-1.84-8.85c-.5-6.3-.1-12.5-1-18.7-.3-1.9-3.1-2-4-.5-.6 1.1-1.3 3.6-2.4 4.2-1.83 1-2.37-.87-2.61-2.58 2.66-3.06 2.66-8.33 1.51-11.92a2.05 2.05 0 0 0-1.52-1.47 6.58 6.58 0 0 0-2-3.63 2.21 2.21 0 0 0-3.6.9c-1.15 3-2.42 6.94-2.32 10.55a4.87 4.87 0 0 0-.35 2.68 2.21 2.21 0 0 0 .67 3.77c3.77 1.31 3 5.56 1.1 6.49a4.31 4.31 0 0 0-4.3-1.29 1.94 1.94 0 0 0-.9 3.2 6.22 6.22 0 0 0 3 1.81 44.87 44.87 0 0 1 2.55 6.39 7.14 7.14 0 0 0-7 6.4 7.84 7.84 0 0 0 3.64 8.2c-2.48.34-5.19 1.78-6 3.94-4.87 1-6.37 6.48-3 10.09l-.43.17A4.43 4.43 0 0 0 248 354a6.14 6.14 0 0 0 2 2.12c-.18.2-.34.41-.5.62a5.11 5.11 0 0 0-3.33 1.76c-1.9 2.4-.7 5.4 1.2 7.3a17.64 17.64 0 0 0 4.6 3c3.52 3.18 9.1 6.12 12.44 3.91a35.87 35.87 0 0 0 10-.73c2.9-.6 6.6-1.8 8-4.7a4.18 4.18 0 0 0 .42-2.6c3.14-.85 6.27-2.09 6.48-5.6a4.73 4.73 0 0 0-.48-2.4 59 59 0 0 0 11 5.5c2.37.92 3.47-2.98 1.07-3.78zm-19.5-17.6c.28-1.47.6-2.84.74-4.28l.06.08c-.3 1.5-.5 3-.8 4.5l-.05.06c.01-.16.03-.24.05-.36zm-3.62-7.8c0 .19.09.37.12.56.42 2.34 0 4.54 0 6.77a12.26 12.26 0 0 1-.57-3.27 18.27 18.27 0 0 1 .45-4.06zm-9.38-23.4a6.71 6.71 0 0 0 .32-.7c2.08 1.27 4.13.1 5.88-1.8.23 5.36 0 10.76.8 16.07a9.11 9.11 0 0 0-2.8-1.48c-2.2-.8-3.9-.2-5.2-2.4-1-1.6-1.64-4.32-2.62-6.74a6.56 6.56 0 0 0 3.62-2.95zM273 327a18.77 18.77 0 0 1 2.06 2 2.45 2.45 0 0 0-.84.48c-.47.42-.93.82-1.39 1.16A10.2 10.2 0 0 0 273 329a4.62 4.62 0 0 0 0-2zm-6.58-.83a2.26 2.26 0 0 1 0 3.82 6.18 6.18 0 0 1-1.79-4.3 3.76 3.76 0 0 1 1.77.51zm1.27 15.86a3.49 3.49 0 0 1-1.06.48 16.29 16.29 0 0 0-6.67-4.14c2.31-.76 6.82 1.24 7.71 3.69zm-12.89.45a11.6 11.6 0 0 0 6.2 4.22 12.88 12.88 0 0 1-5.07-.8c-1.52-.7-3.71-2.59-1.16-3.39zm11.9 21.42a5.7 5.7 0 0 1-.84.46 13.09 13.09 0 0 0-10-6.31 13.25 13.25 0 0 1 7.76-1.39c.76 2.41 2.66 4.44 5 4.66a3.82 3.82 0 0 1-1.92 2.58zm16.3-4.2c-1.3.9-3.8 1-5.3 1.6-2.1.8-2.4 4 0 4.6.2-.1.3-.2.5-.3a3.6 3.6 0 0 1-1.8 1.2 15.88 15.88 0 0 1-2 .7 31 31 0 0 1-6.1.9h-.51a8.68 8.68 0 0 0 5.61-5.82c.79-3.15-.45-5.71-2.57-7.77-.1-.12-.21-.22-.31-.33a25.43 25.43 0 0 1 2.78.7c2.2.6 4.2 1.4 6.4 2 .9.3 2.2.3 3 .9 1.7 1.02 1.8.52.3 1.62zm-5.1-8.3c-2.26-.77-6.46-2.14-9.8-1.86a9.1 9.1 0 0 0 3.59-3.23 7.44 7.44 0 0 0 1-2.84 7.21 7.21 0 0 0 .73-1.23 6.57 6.57 0 0 0 5.74 4.3 21.22 21.22 0 0 0 5.19 6.78c-2.19-.86-4.71-1.32-6.45-1.92zM1299.6 378.6a7.73 7.73 0 0 0-2.06-2.91c.16-4.11-3.27-8.89-7.31-10.23-2.55-4.27-8.62-6.8-12.73-3.06a5.74 5.74 0 0 0-.61.66l-.29-.46c-2.9-4.9-.9-9.2 1-14 .65-1.62 1.54-3.65 2.38-5.85.7 3.08 2.4 6.53 5.62 6.45 4.7-.1 6.9-8.1 7.1-11.6a13.54 13.54 0 0 0-3.05-9.11c1.45-6.17.28-14.2-2.45-17.59a2.69 2.69 0 0 0-2.28-.72 15.88 15.88 0 0 0-2.12-7.88c-1.2-1.9-3.5-1.6-4.7 0-1.9 2.5-2.9 5.7-5 8-2.3 2.6 1.5 6.6 3.9 3.9a20.7 20.7 0 0 0 2.52-3.64 32.51 32.51 0 0 1-.51 6.55 29.39 29.39 0 0 0-1.36 5.83v.16l-.06.42a4 4 0 0 0-1.57.37c-4.1 2-5.8 8.7-1.3 11.3a4.73 4.73 0 0 0 1.76.62c-1.48 5.23-4.63 11.53-5.36 13.48a21.5 21.5 0 0 0-1.8 9.7c.11 1.06 1.61 4.15 2.93 6.88a7.28 7.28 0 0 0 1.17 9.82c.9.8 2.6 1.3 3.7.5a11.07 11.07 0 0 0 1.09-.92 6 6 0 0 0 4 1.72 4.51 4.51 0 0 0 4.58-4.41l.22.11a3.16 3.16 0 0 0 3.35-.37 9.6 9.6 0 0 1 1.15 1.62c-2.05.94-2.06 3.57-.81 5.65a2.76 2.76 0 0 0 .24.32 5.29 5.29 0 0 0-2.34 1.08 2.72 2.72 0 0 0-.4 3.3c.06.13.13.25.2.37a7.37 7.37 0 0 1-2.4-1 11 11 0 0 1-2.3-2.5l-.35.35c-2.06-2.21-5.31 1.12-3.68 3.65a1.47 1.47 0 0 1-.21.11h-.3a3.65 3.65 0 0 1-1.86-2.71 2.81 2.81 0 0 0-2.87-1.79c.2-.89.35-1.6.37-1.91a2.43 2.43 0 0 0-3.6-2.1c-.45.28-.94.59-1.46.88-3.46-1.87-7.62-1.17-7.44 3.72a2.34 2.34 0 0 0 1.7 2.2 8.57 8.57 0 0 0 5-.07c-.25 1-.5 2.13-.64 3.19a8.48 8.48 0 0 1-1.42 1.29l.07.07a7.06 7.06 0 0 0-1 1c-1.2 1.6 1.1 3.4 2.6 2.6l.29-.17a4.56 4.56 0 0 0 1.81 1.77 2.49 2.49 0 0 0 3.6-1.5c.3-.87.55-1.75.81-2.63a5.37 5.37 0 0 0 6.59 1.23 5.77 5.77 0 0 0 2-1.63c2.84 1.66 6.29 2.47 8.9 1.07 1 .89 2.06-.36 1.61-1.28a7.34 7.34 0 0 0 1.08-1.64c3.12-1.24 5.6-4.69 4.3-8.26zm-14.62-39a6.59 6.59 0 0 0 2.29-.12c-.22 1.6-.67 3.08-1.49 3.32s-.91-1.29-.78-3.2zm-.58-21.73a36.52 36.52 0 0 1 .28 6.63l-.58-.3a3.19 3.19 0 0 0-1.06-.31 51.06 51.06 0 0 0 1.36-6.03zm-.08 50.1a16.65 16.65 0 0 0-1.65-1.42 2 2 0 0 1 1.8.74 3.39 3.39 0 0 0-.15.71zm-17.53 12.54c.1.13.2.27.31.4-.3-.31-.42-.43-.31-.41zM768.5 259.1c-4.6-.3-9.6 3.6-11.5 7.6a6.79 6.79 0 0 0-.54 4.66c-5.39 2.81-9.69 7.72-13.26 12.64a46 46 0 0 0-6.5 12.4c-1.1 3.4.1 5.3 2.5 7.9a2.44 2.44 0 0 0 3 .7 7.93 7.93 0 0 0 1.4.7 7 7 0 0 0 7.73-1.48 5.81 5.81 0 0 0 4.17-.12 5.4 5.4 0 0 0 .53-.29 7.69 7.69 0 0 0 1.07.49c4.7 1.8 9.6-1.6 11.9-5.6 2.53-4.37 2.16-10.18-.22-14.82a9.09 9.09 0 0 0 4.11-10.44c3.26-6.03 3.11-13.9-4.39-14.34zm-24.68 42.59a3.1 3.1 0 0 0-.62-1.39 3.63 3.63 0 0 1-.42-.68 4 4 0 0 1 .92-1.72 2.86 2.86 0 0 1 1.94-.92 8.06 8.06 0 0 0 2.24 5 5 5 0 0 1-4.06-.29zm21.48-7.09a6.25 6.25 0 0 1-1 2.2c-1.22 2.21-2.84 2.67-4.92 1.49.23-2.7-1.11-5.24-4.58-5.19a2.67 2.67 0 0 0-2.5 1.9v.19a8 8 0 0 0-2.67-2.29 2.35 2.35 0 0 0-3 .68 8.56 8.56 0 0 0-2.27-.06c.16-.3.32-.61.48-.92a52.7 52.7 0 0 1 4.9-7.4c3.1-3.93 6.75-7.65 11.38-9.4a10.1 10.1 0 0 0 0 1.1 2.7 2.7 0 0 0-2.6 4 6.91 6.91 0 0 0 4.61 4.19 11.8 11.8 0 0 1 2.09 4.71 11.08 11.08 0 0 1 .08 4.8zm4.06-26.24a4.62 4.62 0 0 0-2.76-.66 4.8 4.8 0 0 0-3.1 1.58 3.14 3.14 0 0 0-1.1 0l-.36.08c.08-.13.41-.42.76-.88a9.34 9.34 0 0 1 1.3-1.5c.8-.8 3.2-2.6 4.4-1.8 1 .63 1.17 1.82.86 3.18zM897.39 250.62l-.12-.22a17.91 17.91 0 0 0-.33-4.27 8.44 8.44 0 0 0 2.46-4.13c.74-2.74.45-8.19-1.16-12.41a9.68 9.68 0 0 0 2-4.49 15.88 15.88 0 0 0-1.34-8.78 10 10 0 0 0 4.54-4.82c3.3-8.4-6.8-12-13.2-10.1-3.9 1.2-2.3 7.3 1.7 6.1 1.3-.4 5.9-1.4 5.7 1.5-.07.8-1.46 2-2.6 2.22a12.07 12.07 0 0 0-3.2-1.92c-2.8-1.1-4.7 2.5-3.6 4.7a6.19 6.19 0 0 0 4.18 3.41c1.15 1.93.91 4.61 1.35 6.69a5.07 5.07 0 0 0-3.12-.1 3.22 3.22 0 0 0-1.9 4.6 6.36 6.36 0 0 0 3.51 3.37 5.49 5.49 0 0 1 .29.73 21 21 0 0 1 .9 5v.2a10.82 10.82 0 0 0-6-4.4 3.24 3.24 0 0 0-4 3 11.77 11.77 0 0 0 2.94 8.83 10.49 10.49 0 0 0-1.69 7.94 7.54 7.54 0 0 0-2.79 2.45 8.47 8.47 0 0 0-3.16-.82c-5.6-.2-7.7 7-4.3 10.9a5.51 5.51 0 0 0 5.56 1.81 9.4 9.4 0 0 0 2.11 6.21 5.72 5.72 0 0 0-3.82 1.18 2.32 2.32 0 0 0-.6 2.1 12.72 12.72 0 0 0 2.07 5.33c-2.88-1.93-3-5.08-2.07-8.33.8-2.3-2.7-3.2-3.4-1-1.7 5.2-.5 10.5 4.6 13.2 3.3 1.7 10.7 3.1 13.1-.9 0-.07.07-.15.11-.22 5.93.06 12.38-4.22 9-10.88a11.76 11.76 0 0 0-6.91-5.45c0-.3-.11-.59-.18-.88a6 6 0 0 0 1.15-.7 9.58 9.58 0 0 0 3.24 2.53 3.07 3.07 0 0 0 3.2 0c6.2-4.4 5.5-11.7.2-16.6a12.46 12.46 0 0 0-4.42-2.58zm-5.74-20.39c-1.17.13-.24-.77 0 0zm-9.53 47.68v.09zm2.38 3.09a3.78 3.78 0 0 1-1.69-1.48 3.65 3.65 0 0 0 1.36.92c.11.2.24.38.37.56zm15.23-18.17a9.64 9.64 0 0 1-1.23-3.94 4.42 4.42 0 0 1 1.23 3.94zM1325.5 575.5c-4.88-.14-7 4.21-6 8-3.23 2.94-5.36 7-7.27 10.93a38.54 38.54 0 0 0-2.7 6.3c-.09.33-.16.66-.22 1a3.17 3.17 0 0 0-5.38 2.11 16.49 16.49 0 0 0 0 1.69 8.87 8.87 0 0 0-3.27-3.39 2.76 2.76 0 0 0-4.1 2.3 33.88 33.88 0 0 0 .64 6.85c-.67 4.07.55 15.7 6.86 10.45a6.28 6.28 0 0 0 1.81-2.7c1.55 4 4.93 3.86 8 2.22a7.62 7.62 0 0 1 3.67 2.51 9.57 9.57 0 0 0-3.65 2.17 2.26 2.26 0 0 0-.75 1.45c-4.19-2.12-8.76-2.68-11.45.35a3.09 3.09 0 0 0-.8 3c2.34 5.6 8.12 6.54 13.39 4.92a7.17 7.17 0 0 1 2.14 2.47c-4.09-1.84-8.67-2.45-12-.81a9.07 9.07 0 0 0-2.5.33 2.56 2.56 0 0 0-1.7 3.1c.73 5.19 4.9 8.13 9.81 9.41a42.58 42.58 0 0 1-5.84-1.64 1.63 1.63 0 0 0-1-1.67c-2-.9-3.6-1-4.9 1a2 2 0 0 0 1.2 3c4.47 1.82 18.31 6.63 21-.26a19.75 19.75 0 0 0 3-.74c1.3-.5 2.6-2 2-3.5a12.66 12.66 0 0 0-3-4.19 7.59 7.59 0 0 0 .13-5c0-.08 0-.16-.07-.24a3.1 3.1 0 0 0 .47-2.66c-.22-.87-1-2.27-1.05-3.32.23-.25.45-.51.65-.78s.25-.35.37-.52a4.28 4.28 0 0 1 1.33-.08c2.05.18 3.17-1.74 3-3.48a11.82 11.82 0 0 0 1.86-1.32c2.3-2-.9-5-3.2-3.2a5.62 5.62 0 0 1-2 1 9 9 0 0 0-1.38-2.38 17.06 17.06 0 0 1-.17-5.24 26.75 26.75 0 0 1 1.06-4.88 9 9 0 0 0 1.54-1.42c3.51-4.07 3.66-10.27 1.8-15.46a10.69 10.69 0 0 0 4.8-4.84c2.27-4.74-.23-12.64-6.13-12.84zm-11.7 37.4a8.37 8.37 0 0 1-1.43 1.64l-.67-.1a3.38 3.38 0 0 0 .71-.74 13.8 13.8 0 0 0 1.67-3.63 4.34 4.34 0 0 1-.28 2.83zm5.12-8.35a1.43 1.43 0 0 1-.46 0 15.43 15.43 0 0 0-2.38-3.13 16.14 16.14 0 0 1 .62-1.65c.71-1.65 1.51-3.53 2.46-5.35.82 1.74 2 3.45 2 5.05.04 1.31-1.71 3.86-2.24 5.08zM836.1 434.4a2.08 2.08 0 0 0 2.8-.7 2.34 2.34 0 0 0-.8-2.9l-.35-.29c2.53-.63 2.31-4.91-.65-4.91a2.27 2.27 0 0 0-1.81.8 2 2 0 0 0-1.19-.4 2.11 2.11 0 0 0-2.1 2.1c.2 2.7 1.9 4.7 4.1 6.3z"/><path class="cls-1" d="M837.1 425.2a1.48 1.48 0 0 0 1.44-.93 14.34 14.34 0 0 1 1.35 1 7 7 0 0 1 .72 1 1.94 1.94 0 0 0 1.44.93 2.76 2.76 0 0 0 2.66-.53 2.48 2.48 0 0 0 0-3.4 12.82 12.82 0 0 0-1.9-1.9c-.8-2.06-1.48-4.18-3.46-5.15a1.36 1.36 0 0 0-.3-.12 5.23 5.23 0 0 0-1-.32c-1.9-.7-2.6 2-1.3 3a7.29 7.29 0 0 1 1.12 1 2.73 2.73 0 0 0-1 2.2 1.6 1.6 0 0 0 .23 3.22z"/></svg>