<svg id="Layer_2" data-name="Layer 2" xmlns="http://www.w3.org/2000/svg" viewBox="0 0 2000 1200"><defs><style>.cls-1{fill:#030b3f}</style></defs><title>2</title><path class="cls-1" d="M533.93 272.56c-9.13 8.51-9.15 23-9.81 34.56s-1.18 23.29.27 34.86a135.42 135.42 0 0 0 9.94 37.3c4.34 10.13 9.54 20 12.31 30.72 6 23.18.23 47.6 2 71.17 1.69 22.92 10 44.29 13.9 66.76 2.23 12.94 3 26.09 4.56 39.13 1.61 13.72 3.07 27.45 5 41.12.63 4.39 6.21 6.8 10.09 5.73 4.68-1.29 6.41-5.7 5.73-10.09-3.63-23.43-6.41-46.89-12.08-70-5.3-21.58-13-43.28-15.41-65.45-2.53-23.67 2-47.6 2-71.31 0-11.88.12-23.68-1.44-35.48-1.5-11.34-3.38-22.53-5.52-33.76-2.09-10.95-2.78-23.8-3.06-36.12-.29-12.85 1.69-29.37-8.35-39.2a7.29 7.29 0 0 0-10.1 0zM375.08 516c1.76-4.26 1.63-9.54 2.26-14.13a135.86 135.86 0 0 1 3.16-16.25c2.56-9.73 6.08-19.45 11.36-28 4.56-7.41 10-14.23 14.38-21.75 3.16-5.45 9.24-15.63 5.52-21.87a2 2 0 0 0-3.19-.41c-2.39 2.94-2.5 7-3.7 10.47a63.52 63.52 0 0 1-5.84 12c-4.67 7.84-10.29 15.14-14.36 23.32a102.63 102.63 0 0 0-8.78 27.75 137.25 137.25 0 0 0-1.73 13.66c-.36 4.72-1 10.78.77 15.24a.08.08 0 0 0 .15 0zM429 390.07c3.91-2.22 4.46-10 6-13.94a58.92 58.92 0 0 1 9-15.79c5.25-6.56 15.71-18.52 7.3-26.67a3.33 3.33 0 0 0-5.15.66c-2.58 3.86-3.35 8.73-5.58 12.8-2.45 4.47-5.62 8.5-8 13a43.56 43.56 0 0 0-4.66 15.9c-.46 3.87-2.09 11 1.06 14a.08.08 0 0 0 .09 0zM492.08 324c1-3.92 1.57-7.88 4.44-11 2.2-2.38 5.16-4.18 7.84-6 4.61-3 13.9-8.13 11.82-15a3.35 3.35 0 0 0-4-2.29c-3.47.87-5.63 4.63-8.09 7-2.74 2.64-5.95 4.87-8.5 7.71-4.68 5.21-7.06 13.07-3.61 19.49a.08.08 0 0 0 .14 0zM573 312.92a34 34 0 0 1-3.9.07c-1.67-.1-2.23 2-1.28 3.08 1.68 1.92 3.81 2.11 6.11 3.07 3 1.25 5.72 2.38 9 2.54 5.68.27 10.69-.7 16.13 1.65 8.83 3.82 20.16 16.48 30.29 10.15 4.23-2.64 5.17-7.51 3.11-11.86-2.37-5-9.41-6.6-14.12-9.08-5-2.62-9.94-5.4-15.38-6.9-6.37-1.76-12.87-1.55-19.36-.65a19 19 0 0 0-9.25 3.8c-2.11 1.6-4.93 2.68-6.56 4.73l2.83.37s2.44-.84 2.36-.81c.08 0 .07-.16 0-.15zM638.08 350c-.06-.47-.18-.9-.26-1.37l-2 1.58c8.14 4.54 14 11.15 20.8 17.34 6.24 5.7 14.22 12.87 22.72 14.63 6.71 1.39 11.81-8.32 4.94-11.71-3.81-1.88-7.83-3.16-11.61-5.15-4.07-2.13-7.84-4.73-11.82-7-7.49-4.28-15.2-8.52-23.51-11a1.62 1.62 0 0 0-1.6.42l-.21.25a1.41 1.41 0 0 0 1.36 2.33c.4-.08.77-.22 1.18-.28a.08.08 0 0 0 .06-.08zM697.92 395c.86 4.84 7.06 9.91 10.13 13.58a89.35 89.35 0 0 1 6.56 8.29c1.12 1.71 3.14 5.25 3.21 6.11.8 10.42 16.5 8.31 14.12-1.91-1.86-8-9.18-13.59-15.43-18.19-4.18-3.07-13-9.47-18.52-8a.08.08 0 0 0-.05.1z"/><path class="cls-1" d="M560.73 414.27c6.78 3.17 11.8 6.42 16.2 12.61a118.31 118.31 0 0 1 11.67 21.51c6.08 14 10.47 30.23 21.74 41.15 7.23 7 18.33-4.09 11-11-4.67-4.46-7.84-11.1-11.08-17.54-4-8-7.67-16.17-12-24-7.1-13-20-30.13-37-27.25-2.08.35-2.5 3.71-.6 4.59z"/><path class="cls-1" d="M588.93 422c1.1 1.71 3.08 1.85 4.91 2.7a38.48 38.48 0 0 1 7 4.13 84.45 84.45 0 0 1 13 12.29c8.16 9.43 15.6 19.73 23.28 29.56 8.47 10.84 17.36 21.21 25.3 32.46 6.65 9.42 15.79 24.67 28.53 25.73 6.34.52 10.6-7.58 7.29-12.71s-8.7-8.72-12.55-13.4-7.51-9.6-11.2-14.47a308 308 0 0 0-30-34.34c-8.7-8.51-17.39-17.12-27.26-24.29a47.26 47.26 0 0 0-15.77-8c-3.22-.84-10.14-2.75-12.57.21a.08.08 0 0 0 0 .09zM385.08 261c2.82-20 23.36-25.35 39.34-32 7.84-3.28 15.29-7.37 23.34-10.18a45.87 45.87 0 0 1 11.46-2.82 28.73 28.73 0 0 1 9.05.65 2.75 2.75 0 0 0 3.36-3.36c-3.44-9.75-15.27-6.94-23-4.46a152.71 152.71 0 0 0-27.48 12.46c-13.77 7.71-42.8 18.86-36.23 39.71 0 .07.14.08.15 0zM600 211.15c3.14 1.14 5.57.86 8.87 1.09 3.72.26 7.42 1.32 11.1 1.91 7.31 1.16 14.54 2.85 21.75 4.48 18.92 4.27 37.56 9.5 56.38 14.16 9.71 2.41 13.48-11.72 4.1-14.89-20.06-6.77-40-12.7-60.82-16.52-8.43-1.55-18-3.71-26.5-1.53-5.68 1.46-14.3 4.49-15 11.15a.16.16 0 0 0 .11.15zM697.55 248.44c2.52 4.69 8.76 6.92 13.53 8.52a108.27 108.27 0 0 1 15.55 6.39 101.79 101.79 0 0 1 27.7 21.05c7 7.39 18.25-3.87 11.15-11.15-9.15-9.38-19.83-17.88-31.88-23.23-9.14-4.05-26.73-12.26-35.68-4.4a2.36 2.36 0 0 0-.36 2.82zM768.43 381.46c10-5.44 14.22-16.79 17.55-27.15a115.54 115.54 0 0 0 5.85-34.59c.05-11.45-17-11.29-17.68 0a136.29 136.29 0 0 1-5.77 30.67c-2.85 9.76-6.74 18.76-4.93 29 .4 2.24 3.22 3 5 2zM731 492.08c6.43.17 13.28-6.8 17.06-11.37a92.36 92.36 0 0 0 13-20.86 350.55 350.55 0 0 0 16.92-46.78c2.43-8.42-9.69-11.24-12.8-3.53-5.73 14.2-8.07 29.68-13.36 44.07a113.24 113.24 0 0 1-9.68 20.72c-2 3.17-3.93 6.39-6.17 9.38-1.91 2.55-4.23 5.12-5 8.27a.08.08 0 0 0 .08.1zM659.06 631.06c8.36-7.55 18.52-12.42 27.2-19.55 10.09-8.29 18.17-18.41 25.18-29.37 6.86-10.74 15-21 20.41-32.61a63.76 63.76 0 0 0 5.69-18.5c.95-6.75 2.41-13.68-1.64-19.72a3.45 3.45 0 0 0-4.6-1.21c-6.34 3.36-6.83 9.92-7.53 16.28a53.53 53.53 0 0 1-5.71 18.93c-5.71 11.12-12.71 21.76-19.11 32.49-6.3 10.56-13.71 21.31-22.68 29.78-7 6.62-16.16 13-17.35 23.42 0 .07.09.1.13.06zM481.08 508c.37-3.88-.73-7.87-.7-11.81a63.85 63.85 0 0 1 4.11-22.76c1.27-3.42 3.9-6.74 3.64-10.43-.2-2.89-3.19-3.88-5.33-2.21-3.11 2.42-3.68 7.21-4.56 10.91a71.41 71.41 0 0 0-1.88 13.4c-.29 7 0 17.27 4.59 23 0 .06.13 0 .13-.06zM488 443.32c0-1.27-.15-.17.25-1.46a13.57 13.57 0 0 1 .83-1.91c1.2-2.44 2.68-4.71 4-7.11 3.23-6 7.06-11.64 10.8-17.36 6.8-10.41 14.86-20.86 19.3-32.57 1-2.53-.3-5.17-1.87-7.07-3.54-4.29-9.48-1.65-11.77 2.23-1.47 2.48-2.84 5-4.36 7.48-4.28 6.91-9 13.57-13.47 20.34-6.85 10.32-18.86 26.91-12.79 39.89 2.12 4.53 9.17 2.14 9.13-2.47zM380.32 288.46c-3.73-2.43-8.85-1.15-12.76-2.12a46.08 46.08 0 0 1-5.26-2.08c-3.69-1.16-7.41-.64-11.12.39-10.92 3-19.48 12-25.26 21.4-6.15 10-9.41 21.34-11.29 32.89-2.42 14.89-4.44 30-3.53 45.11.49 8.15 3 15.63 5.35 23.37a87.66 87.66 0 0 1 2.82 11c.69 4.1 2 5.76 4.47 8.85 1.13 1.41 3.35 1 4.53 0 3.29-2.89 4.6-5.31 4.3-9.86a68.81 68.81 0 0 0-2-11.3c-1.75-7.35-3.81-14.43-3.78-22.06.07-16.43 2.69-33.06 9.22-48.21 4.8-11.13 9.82-19.33 17.92-26.91q.63-.56 1.28-1.09-1.34 1 .32-.22c1.69-1.32 3.17-2.68 4.76-4.08 2.15-1.9 5-3.59 6.45-6.1 1.15-2 1.31-3.47 4.62-4.79 2.91-1.16 6.34-1.35 8.95-3.12a.63.63 0 0 0 0-1.08zM326.89 453.89c-4.27 5.49-3.77 14.74-3.55 21.33a67.13 67.13 0 0 0 4.85 23.33c2.43 5.89 5.74 11.29 8.89 16.81a192.56 192.56 0 0 1 9.57 19.91c5.29 12.37 11.8 22.93 23.21 30.53a35.72 35.72 0 0 0 16.33 5.64c6.79.74 13.4-.76 20.11 1.11 2 .57 4.47-2 3-3.9-3.67-4.81-8.7-4.75-14.36-4.43-6 .33-12 .29-17.58-2.31-12.11-5.66-19.06-17-24.22-28.75-2.63-6-5.16-12-8.32-17.71-3.08-5.57-6.62-10.91-9.38-16.66-3.57-7.45-5-15.44-6.05-23.58-.83-6.73.49-15.05-2.24-21.3a.16.16 0 0 0-.25 0z"/><path class="cls-1" d="M390.35 542.82c-4.44 3-3.32 10.18-1.77 14.6 1.8 5.13 5.48 9.52 9.55 13 9 7.72 19.91 11.92 30.4 17.07 4.14 2 9.07 6.3 13.7 6.82a4.54 4.54 0 0 0 4.4-2c1.66-2.65-.28-5.57-2.15-7.48-3.49-3.55-8.87-5.8-13.26-8-5.4-2.72-10.83-5.33-16.11-8.27s-10.41-5.84-14.24-10.42a24.09 24.09 0 0 1-3.83-6.45c-1.12-2.82-1-6.37-3.39-8.49a2.78 2.78 0 0 0-3.3-.43zM446.71 597.22c2.17 10.62 15.45 19.26 24.15 24.31 9.15 5.31 17.49-9 8.28-14.16-4.51-2.52-8.91-5.36-13.17-8.27s-8.33-6.28-13.14-8c-3.82-1.35-6.81 2.68-6.11 6.11z"/><path class="cls-1" d="M475.15 614.28c-.53 4 2.17 8.76 3.78 12.38a74.91 74.91 0 0 0 7.83 13.29c6.22 8.65 14.5 15.52 22.16 22.83 7 6.65 13.49 13.31 18.31 21.67 4.42 7.66 10.52 19.08 20.78 18.88a9.27 9.27 0 0 0 7.91-13.79c-1.58-3-4.78-5.43-6.74-8-2.35-3.13-4.24-6.58-6.36-9.86-5.52-8.56-12.92-15.61-20.8-22-7.57-6.11-14.91-12.44-22.4-18.63-3.82-3.15-7.56-6.4-11.26-9.7-3.14-2.8-5.91-7.14-9.53-9.18-1.77-1-3.44.32-3.67 2.11z"/><path class="cls-1" d="M545.94 687.94c-2 2.09-1.38 5.62-1.33 8.26s-.12 4.71.69 7.19c.74 2.27 1.71 4.48 2.61 6.69 3.79 9.32 8.05 18.47 11.83 27.77-.5-1.23.35 1 .39 1.16q.55 1.59 1.12 3.17c.87 2.4 1.76 4.79 2.55 7.22 1.51 4.63 2.82 9.32 4.17 14 3.18 11 6.1 25.27 16.54 31.58 9.79 5.91 19.52-2 20.7-11.88.69-5.74-2.1-11.17-3.93-16.48-1.67-4.86-3.27-9.74-4.83-14.64-3.3-10.4-6.74-20.84-12.58-30.14-5.53-8.8-13.25-15.37-20.71-22.45-1.77-1.68-3.43-3.55-5.26-5.16s-4.12-2.31-6.1-3.63c-.66-.44-4.79-3.77-5.86-2.64zM467.4 244.65a62.11 62.11 0 0 1 19.34 13.47c4.86 4.81 10.92 10.83 13.52 17.29 2.14 5.33 7.87 8.6 13.31 5.42a9.17 9.17 0 0 0 1.83-14.23c-13.12-13-27.35-27.41-47.33-26.93-3.05.07-3.2 3.93-.67 5z"/><path class="cls-1" d="M497.92 240c.65 3.53 3.81 6.58 6.07 9.27 3.17 3.78 6.41 7.57 8.74 12 3.9 7.33 6.07 15 11.45 21.57 4.36 5.28 12.5-2.55 7.62-7.62-5.83-6.06-8.38-14.45-14-20.74a81 81 0 0 0-10.63-9.63c-2.64-2.06-5.75-4.61-9.17-4.9a.08.08 0 0 0-.08.1zM536.34 274.69c2.51-.95 2.8-3.21 3.72-5.46a31.26 31.26 0 0 1 5.75-9c4.07-4.52 9.72-8.73 16.09-7.87 6.62.89 9.21-7.65 2.79-10.11-9.33-3.58-20 4.66-25.44 11.41a29.06 29.06 0 0 0-6.48 13c-.33 1.87-.51 9.55 3.57 8z"/><path class="cls-1" d="M556.06 254.06c2.43-2.57 1.55-7.75 2.08-11a37.64 37.64 0 0 1 5.2-13 57.43 57.43 0 0 1 8.53-10.47c3.18-3.23 6.77-7.5 10.66-9.82a9 9 0 1 0-12.29-12.29c-2.84 4.77-7.74 8.86-11.16 13.3a61.72 61.72 0 0 0-8.77 14.44c-2.3 5.72-1.82 10.48 0 16.21 1.17 3.65 2.29 10.45 5.63 12.65a.08.08 0 0 0 .09 0zM517.18 613.39c-.85-11.92-.81-23.75 3.08-35.23 2.51-7.42-10.4-10.58-11.44-3.15s-.13 14.18.79 21.46c.71 5.61 1.34 13 4.88 17.65.77 1 2.81.86 2.69-.73zM526 562.07c2.43-1.06 2.67-4.59 3.74-6.77 1.57-3.22 3.26-6 4.4-9.46s2.19-7 3.66-10.35c1.6-3.68 4.07-7.19 4.71-11.18 1-6.18-6-11.42-11-6.43-3.52 3.47-5.09 8.45-6.64 13.06a63.53 63.53 0 0 0-3.36 14.86c-.15 1.85 2.07 17.35 4.54 16.27zM604.26 732.22c-3-14.27-3.34-29.94.14-44.15a86.25 86.25 0 0 1 7.88-19.72c3.65-6.78 8.46-10.42 13.57-16.23 7.63-8.68-1.8-20.3-12-15.57-8.18 3.79-14.74 13.28-18.63 21.11-4.37 8.78-5.94 17.3-6.41 27-.82 17.19 2.38 34.39 10.44 49.65 1.52 2.87 5.64.82 5-2.12zM276.91 799c-1.12 11.06 6.18 21.91 10.5 31.46-.8-1.76.57 1.54.75 2 .77 2.11 1.49 4.25 2.29 6.35 1.67 4.38 3.65 8.67 5.5 13q5 11.69 10.68 23.07c7.21 14.51 16 28 23.73 42.27 3.9 7.2 7.42 14.6 11.35 21.8a155.08 155.08 0 0 0 13.76 20.55c8 10.4 13.13 27 27.86 30.59a6.41 6.41 0 0 0 7.15-9.3c-7.53-13.86-13.44-28.49-20.28-42.71-8.43-17.54-16.65-35.44-26.45-52.27-10.33-17.72-18.9-36.2-28.51-54.3a126 126 0 0 0-14.37-21.13c-3.43-4.17-10-7.82-12-13-2.46-6.57-11.27-5.3-12 1.62zM373.3 989c.89 12.37 11.37 24 19.07 33 10.69 12.46 22.31 24.1 33.21 36.37 25.55 28.77 50.61 60.05 82.69 81.88a214 214 0 0 0 26.35 15.33c8 3.92 20.85 11.12 29.88 7.81 4.85-1.77 5.23-7.3 1.34-10.28-3.24-2.49-7.16-3-11-4.3a90.23 90.23 0 0 1-12.2-5.35 218.67 218.67 0 0 1-22.36-13.42c-14.62-9.93-27.3-22.12-39.83-34.5-24.88-24.59-48.62-50.16-75.28-72.88-11-9.38-25.07-20-30.54-33.88-.27-.68-1.44-.67-1.38.19zM826.92 771.37c-3 5.43-3.28 14.32-3.58 20.47a152.38 152.38 0 0 0 .59 23.21 397.74 397.74 0 0 0 7.69 46.82c6.54 28.61 14.84 58.36 30.37 83.51a186.43 186.43 0 0 1 9.38 16.23c2.34 4.82 2.69 12.64 8.73 14.28 4.39 1.19 8-2.55 8.43-6.79.57-5.7-3.36-12.55-5.93-17.43-5.77-10.94-13.15-20.77-17.81-32.3a368 368 0 0 1-15.35-45.76c-4.44-17.17-8.29-34.58-11.08-52.1q-2-12.77-4-25.56c-.65-4.27-1.35-8.47-2.21-12.71-.79-3.88-1.14-8.41-3.11-11.87a1.26 1.26 0 0 0-2.16 0zM885.89 991.61c-2.93 4.32-2.94 12.85-1.75 17.81 1.27 5.29 4.3 10.91 7.36 15.38 6.84 10 15.81 18.42 25.24 25.9 9 7.15 18.18 14.14 27.33 21.11 12.3 9.37 25.8 17 38.11 26.39 6.36 4.83 12.09 10.46 18.08 15.73 5.8 5.1 12.08 10.9 19.6 13.21 4.19 1.29 7.1-4.19 4.18-7.18-6-6.19-13.13-11.41-19.28-17.55a226.26 226.26 0 0 0-18.39-17c-13.89-11.11-27.53-22.19-40.92-33.91-10.37-9.08-21.22-17.79-30.46-28.06a77.14 77.14 0 0 1-11-15.62c-1.54-2.93-3-5.86-4.5-8.8s-2.2-6-4.33-8.64c-2.55-3.17-7.35-1.63-9.26 1.19zM958.94 1092.94c-5.8 4.52-2.57 17.59-1 23.5 2.41 9.11 7.45 17.35 12.14 25.43 3.69 6.36 13.39.68 9.85-5.76-4.06-7.39-8.38-14.62-12.42-22a66 66 0 0 1-4.87-12.08c-.93-2.95-1.31-6.87-3.58-9.08a.08.08 0 0 0-.11 0zM829.94 906.94c-1.86 2.06-2.79 4.85-4.22 7.24q-2.37 4-4.7 8a53.53 53.53 0 0 0-6.91 17.8c-2.67 15.14-1.54 30.4 1 45.47a4.56 4.56 0 0 0 3.31 3.31 5 5 0 0 0 3.66-.48 4.86 4.86 0 0 0 2.18-5.36c-2.94-14.37-5.4-30-2.93-44.6.95-5.62 3.25-11 5.32-16.3 1.71-4.34 4.57-10.29 3.46-15a.08.08 0 0 0-.13 0zM809 940.93c-1.52.73-1.57 3.17-1.95 4.61a68.25 68.25 0 0 1-3 8.83 123 123 0 0 0-6.94 20.63c-1.81 8.17-7 31.56 5.37 34.64a3.51 3.51 0 0 0 4.39-3.34c.16-2.59-1.13-5.22-1.71-7.7a29.37 29.37 0 0 1-.53-8.26c.37-7.14 2.41-14 3.77-21a118.3 118.3 0 0 0 2.23-19.67c0-.55.18-9.59-1.67-8.7z"/><path class="cls-1" d="M872 928.07c2.52 1.42 7 .35 9.66-.42 4.06-1.17 7.91-3.49 11.72-5.29 7.41-3.51 14.69-4.5 22.76-4.91 6.63-.34 13.25-.52 19.88-.21a34.85 34.85 0 0 1 8.77 1.19c1.69.53 4.36 1.19 5 1.84a3.23 3.23 0 0 0 5.35-1.41c3.72-15.82-27.69-12.07-35.82-11.35-8.29.74-16.37 1.36-24.13 4.64a93.61 93.61 0 0 0-13.27 7.15c-3.14 2-8.55 5.16-9.94 8.69a.08.08 0 0 0 0 .09zM923.57 966.79c4.51 5.93 13.45 7.87 20.42 9.53a77.06 77.06 0 0 0 8.19 1.53l2.74.34c-1.53-.2-.48-.07.43.07 5 .77 10 1.8 15.06 2.19 7.8.6 15.61.41 23.4 1.11a76.43 76.43 0 0 1 10.35 1.64c3.24.74 6.48 2.07 9.84 2a3.24 3.24 0 0 0 3.09-4.05c-1.81-6.84-10.1-12.1-15.6-15.81a89.29 89.29 0 0 0-24.54-12 81.91 81.91 0 0 0-27.46-3c-7 .52-20 1.24-24.74 7.35-1.86 2.38-3.31 6.27-1.17 9.09zM961.93 1043c1.57 3.32 5.7 5.21 8.81 6.86 4.42 2.35 8.89 4.66 13.26 7.11a242.87 242.87 0 0 1 24.6 16.11c5 3.64 9.65-4.61 4.81-8.23a163.13 163.13 0 0 0-26.35-16.4c-6.21-3-18.26-9.47-25.09-5.55a.08.08 0 0 0 0 .11zM1030.92 1081c.68 1.95 2 2.67 3.67 3.86 3 2.17 6.13 4.18 9.18 6.31 2.88 2 5.8 4 8.6 6.11 2.65 2 4 3.18 7.41 2.57a3 3 0 0 0 2.22-2.85c-.08-6.05-8.36-9.28-13.17-11.27-3.11-1.29-6.26-2.5-9.48-3.49-2.61-.8-5.67-2.25-8.35-1.32a.08.08 0 0 0-.05.1zM827.22 736.79a25.29 25.29 0 0 0-.36 4.7l1.07-4c-9.13 12.16 6.93 24.55 14.37 32.56 8.3 8.94 19.08 15.44 28.71 22.83 8.83 6.77 18.21 12.47 27.6 18.36 8.92 5.6 18.52 10.17 27 16.49 6.1 4.56 13.38-5.29 8-10.43-7.33-7.07-16.14-12.18-24.44-18-4.47-3.12-8.24-7.17-12.36-10.76-4.27-3.72-8.5-7.5-12.51-11.49-8.31-8.26-12.91-19.52-21.11-27.93-7.7-7.9-20.49-22.16-32.47-14.45l6-.79c-1.06-.25-2.1-.54-3.17-.77-2.52-.54-5.9.73-6.38 3.62zM936.94 835.06c3.69 4.19 9.76 7 14.42 10 5 3.26 10 6.54 14.87 9.91 10.37 7.11 21.26 13.45 31.52 20.69 9.33 6.58 18.35 12.07 29.37 15.38a131.16 131.16 0 0 1 13.55 4.5c6.48 2.74 13 1 13.78-6.78.31-3-1.85-5.71-4.16-7.24-7.64-5.08-17.56-5.81-25.89-9.31-9.37-3.94-17.45-10.78-26.2-15.88-9.58-5.58-19.48-9.41-30-12.72-5.33-1.67-10.69-3.26-16-4.83-4.77-1.4-10.13-3.79-15.12-3.86a.08.08 0 0 0-.06.13zM1062.93 893c2.63 5.46 8.46 9.79 13.17 13.4a152.78 152.78 0 0 0 17 11.26c13.43 7.71 26 15.94 37.77 26.07 12.7 10.92 24.77 22.54 36.54 34.44 5.85 5.92 11.54 12 17.35 17.94 3.1 3.18 6.34 6.22 9.48 9.36 3.62 3.61 7 5.29 11.67 7.25 2.88 1.2 6.76-.61 8.46-2.88 2.1-2.81 2-5.82.63-8.94a30 30 0 0 0-8-10.9c-3.25-3-6.48-6.11-9.87-9-6.36-5.42-12.87-10.68-19.39-15.92-12.8-10.28-25.51-20.74-38.67-30.57a189.81 189.81 0 0 0-39.17-22.41c-6.27-2.7-12.69-5.07-18.85-8-6.52-3.12-11.82-7.67-18-11.2a.08.08 0 0 0-.11.11zM1596 97.92c-4.81 1-8.69 3.65-12.61 6.51-4.64 3.39-9.36 6.61-14.12 9.83-5.25 3.55-10.51 7.1-15.71 10.72s-10.95 6.86-16 11a158.1 158.1 0 0 0-45 62c-2.71 6.81 2.41 15.1 8.64 17.6s15.45.73 18.63-6.11c9-19.41 20.06-40.73 32.92-59.67 3.13-4.6 5.77-9.58 9.14-14 3.56-4.67 7.35-9.14 11.25-13.53 3.76-4.23 7.61-8.38 11.2-12.76 3.44-4.19 7-8.67 11.65-11.51a.08.08 0 0 0-.06-.14zM1695 144.08a.08.08 0 0 0 0-.16.08.08 0 0 0 0 .16zM1685 153.08a4.58 4.58 0 0 1 3 2c.06.08.19 0 .13-.08a4.73 4.73 0 0 0-3-2c-.1 0-.14.13 0 .15z"/><path class="cls-1" d="M1698.67 147.61c-5.33-10.14-16.28-20.18-28.23-13.77-5.4 2.9-9.24 8.83-12.09 14.05-4.24 7.77-7.09 16.29-9.87 24.66-6.22 18.74-11.78 37.75-15.44 57.16-3.84 20.33-5.68 41.05-7.75 61.62-.87 8.65-2 17.3-2.13 26-.06 3.51-.2 7-.47 10.52 0 .57-.47 3-.06.82s-.17.63-.27 1.13-.37 1.22-.49 1.84c-.22 1.13-1.08 8.4-.28 2.49-.89 6.55.6 12.92 6.71 16.49 5.37 3.14 13.41 2.51 17.7-2.28 9.05-10.11 6.52-24.7 6.07-37.22-.65-18.15-.1-36.43.07-54.59a353.79 353.79 0 0 1 4.16-53c2.66-16.59 5.76-34.22 12.36-49.76 2-4.62 5-11 9.84-13.23 6.51-3 14.37 4.49 19 8.06a.79.79 0 0 0 1.23-.95zM1672.32 323.81c-3.52 12.68-5.4 26.14-8 39.07-2.68 13.37-4.95 26.88-4.75 40.56.21 14.24 2.45 28.52 4.54 42.58.84 5.69 1.92 11.33 2.84 17 .89 5.51 1.9 11.38 6.55 15.15 5.16 4.17 11 6 17.5 3.31 5.67-2.39 10.06-8.26 9.85-14.64-.32-9.68-4.52-19.77-7.2-29-3.71-12.75-8-25.58-11-38.52-2.79-12.31-4.09-24.9-5-37.46s-.62-25.94-4-38.08a.71.71 0 0 0-1.36 0zM1664.8 453.88c-9.42 16.09-10.76 34.91-16.93 52.22-3.38 9.47-7.54 18.62-11.29 27.95a185.37 185.37 0 0 0-9.77 31.89c-8.93 43.14-5.41 89 7.61 131 3.5 11.3 7.77 22.37 11 33.77 3.73 13.31 4.48 26.7 13.7 37.77 6.53 7.84 20.81 7.25 27.46 0 7.6-8.28 7-19.16 0-27.46l-.42-.5c-5.39-6.37-15.61-6.55-22.44-2.9l-.67.36 28.52 11.6c-1.06-4.34-2.94-8.42-4-12.8-1.1-4.67-1.89-9.4-3.1-14-2.58-9.91-6.19-19.54-9.43-29.25s-6-19.71-8.29-29.78q-1.63-7.1-2.92-14.27-.55-3.1-1-6.2c-.18-1.18-.35-2.36-.53-3.55.66 4.33-.17-1.52-.22-1.92-2.36-20.41-2.36-41.09-2-61.61s.39-40.88-.41-61.35-2.23-41.15 5.59-60.78c.1-.25-.3-.4-.43-.18zM1614.72 359.72c-9.13 9.36-11 23.66-14.34 35.74-4.79 17.27-12.16 33.8-17.82 50.8a270.59 270.59 0 0 0-12.24 57.27c-2 18.86-.83 37.38 1.45 56.15 1.32 10.81 2.74 21.61 4 32.43 1.17 10.18 1.21 26.44 13.68 29.49 4.15 1 9.74-.6 11.72-4.77 3.59-7.55.65-16.83-.27-24.72-1-8.91-2.2-17.81-3.32-26.71-2.29-18.15-3.78-36-3.13-54.27 1.28-35.9 11.46-70.66 13.56-106.46.86-14.55-1.37-31.79 7.34-44.47.25-.37-.31-.79-.61-.47zM1606.93 314c-3.88 7.53-9.08 14.15-14.09 20.93a171.44 171.44 0 0 0-13.84 22.32c-8.08 15.37-15.33 31.26-22 47.3-13.19 31.94-20.91 66.08-24.22 100.44-1 10.31 15.61 10.49 16.25 0 2-33.25 9.15-66.49 18.82-98.32 5-16.5 10.66-32.89 17.21-48.84a183.15 183.15 0 0 1 11.14-22.89c4-6.8 8-13.54 10.78-20.93 0-.08-.1-.14-.14-.06zM1695 223.93c-6.82 4.59-.5 20.76 1.39 26.47 4.37 13.22 8.83 26.45 12.48 39.89 4.35 16 7.5 32.37 12.57 48.21 1.86 5.8 4.58 11.28 6.43 17.08 1.15 3.6 1.78 7.61 3.79 10.88.88 1.44 3.69 4.47 4.26 5.53a6 6 0 0 0 6.71 2.73c7.07-2.54 12-8.45 11.75-16.36-.2-7.21-3.42-13.89-6.12-20.43-6.06-14.7-10.73-29.77-17.82-44.09-6.7-13.53-15.75-26.05-23.32-39.12-2.71-4.68-5.69-9.2-8.13-14a39.08 39.08 0 0 1-3.48-8.94c-.59-2.63-.17-5.12-.38-7.76a.08.08 0 0 0-.12-.07z"/><path class="cls-1" d="M1737.77 347.06c6.21 26 18.13 50.49 31.29 73.62 6.88 12.08 13.2 24.51 19.24 37 2.62 5.43-.78-2.51.7 1.42.67 1.79 1.35 3.57 2 5.36 1.48 4 2.94 8 4.56 12 4.19 10.29 9.56 26.2 23.21 25.91 9.41-.2 15.25-9.18 12.88-18.06-1.21-4.55-4.44-8.39-6.5-12.59-.52-1.05-1-2.12-1.49-3.19-.21-.46-1.76-4.17-.44-1q-1.14-2.78-2.23-5.58c-1.47-3.78-2.85-7.59-4.39-11.34a141.48 141.48 0 0 0-19.53-33.58c-18.93-24.09-42.23-44.31-58.88-70.23a.24.24 0 0 0-.43.18zM1764 440.93c-1.81 1.09-1 3.93-.73 5.6.73 5.19 2.1 10.23 2.62 15.46a52.69 52.69 0 0 1 .06 8.24c-.07 1.18-.24 2.35-.3 3.52-.14 2.56.25-1.95 0 0-1.17 7.72-4.15 20.67-2.82 30.62 2.53 18.82 9.05 36.26 14.44 54.38 1.89 6.36 3.84 12.7 5.23 19.19.34 1.57.61 3.15.94 4.72q.53 3.32-.14-1.38.14 1.24.22 2.48c.25 4.43-.31 8.13.7 12.66 3 13.44 22.85 19.36 32.06 8.46 12.13-14.36 5.78-35.26.81-51.45-5-16.45-10.95-32.62-16.05-49-4.8-15.43-11.38-29.43-22.54-41.2a66.5 66.5 0 0 1-9.62-13c-1.57-2.75-3.95-6.13-4.71-9.19a.08.08 0 0 0-.11 0zM1849.87 237.92c-2.86 6.56.75 14.41 2.79 20.72 2.93 9.08 3.49 18.55 4.25 28 1.71 21.19 2.89 42.18 7.19 63.08 1.79 8.71 12.56 14.55 20.88 11.86 8.16-2.64 15.12-12 11.86-20.88-6.89-18.82-11-38.63-19.45-56.87-3.8-8.21-8.87-15.73-14.14-23.06-5.39-7.51-10.44-13.78-13.1-22.79 0-.12-.23-.17-.29 0zM1893.6 369.76c-9.18 18.51-9.61 40.06-14.48 59.8-2.77 11.22-5 22.46-7.32 33.78-1.15 5.59-2 11.23-3.11 16.83-1.32 6.86-4.44 14.9-3.67 21.82.9 8.1 5.23 16.32 13.94 18.31 7.59 1.73 18-.93 21.44-8.72a40.15 40.15 0 0 0 3.6-15.2q.22-4.25.33-8.51c.15-5.73.3-11.5.09-17.23-.43-12.12-1.12-24.34-2.59-36.37-2.62-21.44-8.35-42.54-7.36-64.26a.47.47 0 0 0-.87-.24zM173.85 765.53c13.14 3.65 26.37 6.88 39.36 11.06 13.22 4.25 26.84 7.75 39.68 13.11 7.3 3 16.9-3.28 18.55-10.53 1.8-7.89-2.37-16.4-10.53-18.55-14.78-3.89-29.74-5.84-45-4.17a268.73 268.73 0 0 0-42.08 8 .55.55 0 0 0 0 1.05z"/><path class="cls-1" d="M272 768.07c2.32-1.72 2.49-5.69 3.29-8.34a100.07 100.07 0 0 1 5.3-14.75c2.15-4.45 6.08-7.51 8.78-11.67s4.89-8.88 7.48-13.21c1.61-2.7 3.26-5.38 5.1-7.93.4-.55.82-1.1 1.22-1.65l-.16.21q-1.88 2.48 1.87-2.4c.92-1.28 1.81-2.59 2.7-3.89 1.62-2.38-1 1.07.19-.29.52-.61 1-1.25 1.53-1.86 1.12-1.32 2.28-2.6 3.53-3.81s3.61-2.94.66-.78c.61-.45 2.94-1.45.29-.43s-.44.28.17.17c8.27-1.44 13.66-12 11.18-19.69-2.78-8.6-10.92-13.12-19.69-11.18-9.57 2.11-16.32 10.76-21.49 18.42-1.13 1.67-2.2 3.39-3.22 5.14-.49.84-1 1.69-1.45 2.56-.32.63-2.9 6.7-1.15 2.57a117.16 117.16 0 0 0-4.38 11.6 151.22 151.22 0 0 0-4.27 16.23 37.85 37.85 0 0 0-.66 9.65c.21 2.6.95 4.94.91 7.58-.08 5.67-.69 11.26-.38 16.95.18 3.21-.14 8.75 2.61 10.81a.08.08 0 0 0 .08 0z"/><path class="cls-1" d="M314.06 732.06c8.64-9.2 13.7-21.7 21-32 7.17-10 15.55-20.94 25.62-28.19 8.57-6.17 16.89-9.14 27.07-11.7 5.8-1.46 8.73-2.07 14.81-1.81 3.12.13 6.33.73 9.41 0 .86-.19 1.57-.46 2.41-.72.26-.08 2.81-.71 1.59-.57 4.26-.49 6.68-3.53 6-7.81-2.85-16.86-23.31-14.87-35.83-12.27-12.11 2.51-24.93 7.25-34.92 14.63-12.92 9.64-21.22 22.8-26.22 37.88-2.32 7-4.22 14.16-6.15 21.28s-4.12 14-4.88 21.22a.08.08 0 0 0 .13.06zM174 785.93c-2.58-1.29-5.52-1-8.34-1.1-3.52-.1-7-.36-10.56-.46a75.68 75.68 0 0 0-19.71 1.63c-8.16 2-14.13 6.06-20.51 11.35-5.83 4.83-11.56 9.67-16.24 15.66-4.42 5.67-10.91 15.1-9.89 22.58.63 4.66 5.15 9.91 10.25 9.92 5.31 0 9.89-5.16 10.73-9.92.56-3.16.68-5.43 2.29-8.37a58.3 58.3 0 0 1 5.65-8.3 134.32 134.32 0 0 1 15.94-17c5.78-5.09 11.83-7.57 19.3-9.3 3.78-.87 7.58-1.61 11.34-2.53 3.35-.82 7.39-1.38 9.82-4a.08.08 0 0 0 0-.12z"/><path class="cls-1" d="M127.76 811.31l-1.17.81 4.7-.61h-.16a7.93 7.93 0 0 0-7.68 2c-5.7 5.66-11.84 11.7-14.59 19.5q-1.65 2.52.12.69a17.23 17.23 0 0 0-4.43 7.61c-.59 1.62-1.07 3.26-1.52 4.92a112 112 0 0 0-2.68 15.1c-2.33 18.15 1.83 35.7 11 51.41 4.37 7.5 10.14 13.77 16 20.09 2.56 2.75 4.87 5.75 7.28 8.64s2.73 3.24 5.36 6.82c10.35 14.11 20.32 28.6 32.64 41.11a14.69 14.69 0 0 0 20.77-20.77c-11-11.29-19-23.19-28.33-36-4.31-5.92-8.82-11.89-12.41-18.28s-6.53-13.4-9.7-20.07q-.53-1.1-1-2.22 1.19 2.92 0 0c-.54-1.49-1.08-3-1.55-4.48-1-3.26-2.37-7.12-2.55-10.55.26 4.88.15-.32.1-1.35-.11-2.41-.1-4.82-.1-7.24 0-3.8 0-7.6.1-11.41s.54-7.42.47-11.09q-.78-7.5-.57-3.37-.06-1.68-.07-3.36c0-1.67.12-3.35.19-5a72.26 72.26 0 0 0-.7-11.7c-.48-3.93-.39-8.23-4.51-10.31l2.8 3.64-.32-1.42c-.69-3-4.82-4.86-7.46-3z"/><path class="cls-1" d="M184.73 976.16a255.7 255.7 0 0 0 13.27 25.91c5 8.39 11.72 15.52 18.77 22.18 14.15 13.39 30.22 24.89 46.41 35.67 16 10.63 32.31 20.69 48.65 30.73 13.71 8.43 27.44 16.41 40.45 25.89 11.63 8.47 31.37 23.63 46.25 14.84 8.65-5.11 5.7-21.44-5.48-20.24a25.41 25.41 0 0 1-2.87 0c-3.08 0 1 .73-1.55-.2a25 25 0 0 0-2.81-.89c1.29.54-.79-.39-1.06-.53-.84-.43-1.68-.85-2.51-1.3-6.18-3.38-11.86-7.58-17.57-11.69a345.72 345.72 0 0 0-37.86-23.47c-32.28-17.49-63.74-35.56-92.69-58.27-8-6.31-15.84-12.89-23.87-19.21-8.41-6.62-17.07-12.52-25-19.81a.31.31 0 0 0-.49.38z"/><path class="cls-1" d="M324.93 1059c4.23 6.36 11.82 10.71 17.37 15.87 5.86 5.44 11.49 11 17.47 16.35 9.72 8.67 17.68 15.16 28.33 23.31C397 1121.35 406 1128 416 1133c5 2.48 10.32 5 15.83 6 7.39 1.34 13.21-.54 18.91-5.2 6-4.94 1.85-13.74-4.21-15.94-1.83-.66 1.54 1.16-.52-.37a18.06 18.06 0 0 0-4.7-2.24c-1.83-.67-3.72-1.17-5.56-1.79-1-.34-2-.7-3-1.07 2.75 1-1-.48-1.54-.74-2.34-1.13-4.62-2.38-6.87-3.69-9-5.28-17.56-11.39-26-17.51-9.34-6.76-19.29-11.74-29.77-16.53-7.45-3.4-15-5.93-22.6-8.78-6.45-2.4-14-6.23-21-6.14a.08.08 0 0 0-.07.12z"/><path class="cls-1" d="M377.84 1057c-.13 6.33 3.38 12.61 6.41 18a207 207 0 0 0 12.89 19.39c5.86 8.12 11.44 16.54 18.58 23.61 14.71 14.59 32.32 29.1 51.75 36.73 5.06 2 10.59 3.25 16 1.76 5.14-1.43 9.71-7 9-12.49-.52-4.2-3.72-7.35-8.21-6.25-.95.23 1.3 0 1.24 0 1.67-.44-.8-.06-1.48-.19.07 0 2.27.59 1.14.11-.49-.21-.85.07.36.21 2.28.26-1.29-.58-1.6-.67a24.59 24.59 0 0 0-3.15-.46c.41.06 2.29.65 1.06.13a36.26 36.26 0 0 0-4.38-1.14c-.84-.23-1.66-.52-2.49-.8s-2.78-1.12-.87-.28c-8.6-3.76-16.76-9-24.56-14.15q-6-4-11.71-8.26l-2.66-2-.48-.37-1.41-1.09c-.19-.15-3.27-2.53-1.72-1.32l-2.13-1.68c-6.29-5-11.56-11-17.88-16.07s-12.5-9.79-18.38-15.13-10.4-11.29-15.07-17.68a.16.16 0 0 0-.29.08zM345.55 1066.12c1.07 3.52 4.16 9.39 3.3 13-.68 2.84 3.2 3.73 4.26 1.17 3.27-7.88 4.65-16.26 6.6-24.53 1.86-7.89 3.93-15.72 5.76-23.6 1.78-7.64 2.22-15.52 3.66-23.21 1.27-6.78 6.83-18.32-3.24-21.14-2.62-.73-6.34-.1-8.13 2.15-9.07 11.37-7 29.54-8.09 43.23a128.27 128.27 0 0 0-.14 22.06c.69 8 .81 16-.68 23.87l3.69-1c-2.95-2.6-4.72-8.89-6.08-12.26-.22-.54-1.08-.34-.9.25zM296.06 1012.06c2-1.77 2.11-4.65 2.81-7.12 1.07-3.76 2.4-7.42 3.46-11.19 2.14-7.6 4.84-14.93 6.54-22.65 1.91-8.68 4-17.33 5.67-26.07 1.51-8 5-18.88 1.42-26.49-3.14-6.73-12.89-2.89-13.15 3.56-.09 2.24.76 3.3 2.07 5l-1.1-8.55c-2.74 3.62-2.45 8.44-3.09 12.8s-1.42 8.83-2.16 13.23c-1.51 9-3.19 18-4.73 27.07a167.72 167.72 0 0 0-2.26 23.2c-.12 4.3.06 14.75 4.42 17.21a.08.08 0 0 0 .09 0zM257.35 986.61c4.85-3.72 8.09-10.09 11.14-15.28a68.16 68.16 0 0 0 7.93-20.3c3.48-15.73 5-31.76 9.14-47.39 3.24-12.39-16.24-17.7-19.13-5.28a386.46 386.46 0 0 0-7.74 48.38c-.72 7.09-2 14.09-2.83 21.17-.7 5.86-2 12.89.53 18.44a.7.7 0 0 0 1 .25zM316.93 815c1.25 2 6 1.06 8 1.07 5 0 10 .7 15 .82 10.11.25 20.3-.66 30.37.58 6.78.83 12.63-6.4 12.63-12.63 0-6.69-5.78-12.83-12.63-12.63-12.12.35-24 2.86-34.75 8.51-2.17 1.14-20 12.08-18.56 14.29z"/><path class="cls-1" d="M330 829.55a45.76 45.76 0 0 1 23.55 9.32c-1.45-1.11.25.28.8.75 1.56 1.33 3.15 2.62 4.81 3.83a304.38 304.38 0 0 0 28.37 18c8.58 4.88 17.45 9.24 25.72 14.65 2.09 1.37 4.13 2.82 6.19 4.24.79.54 4.05 3 .76.4q1.28 1 2.52 2.08c4.16 3.56 7.37 7.85 12 10.88 6.82 4.45 19.36.5 20.56-8.36 1.95-14.48-7.59-27.63-18.32-36.62-9.49-7.95-19.84-14.69-30.17-21.47-12.88-8.47-27.86-16.35-43.74-13.75-12.1 2-23.37 8.09-33.35 15a.55.55 0 0 0 .28 1zM427 910.07c3.53 2.56 7.19 4.7 10.45 7.73 5.24 4.86 10.34 10 15.19 15.22 5.59 6 10.09 12 14.5 17.46 1.2 1.49 2.49 2.9 3.71 4.37.44.53 3.24 4.08 1.59 1.92a63.87 63.87 0 0 1 5 7.35c1.35 2.42 2.27 4.95 4.27 7 4.31 4.37 11.25 5.47 15.89.83 7.2-7.2 2.41-16.41-2.74-22.89-9.31-11.72-21.73-20.1-34.44-27.74a106.45 106.45 0 0 0-20.84-10.13c-3.24-1.09-9.53-3.8-12.57-1.21a.08.08 0 0 0 0 .12zM394.81 963.68c5.56 1.82 9.59 5.69 13.76 9.61 4.41 4.15 8.45 8.53 13 12.6 5.24 4.74 10.2 9.8 15.15 14.84 10.21 10.41 20.72 20.83 30.21 31.9 3.56 4.15 10.9 6 16 4.24 3.92-1.37 7.83-3.76 9.85-7.57a17.07 17.07 0 0 0-2.58-20 338.09 338.09 0 0 0-33.9-32.15c-16.32-13.73-40.88-24.3-61.64-14.78-.59.27-.36 1.11.17 1.29zM451.6 1044.81c4.18.61 7.46 1.07 11.28 3.11a50.85 50.85 0 0 1 11.47 8.44c3.59 3.46 7 7.16 10.25 10.93 1.4 1.63 2.76 3.3 4.1 5 2.21 2.74-1.26-1.74.58.77.59.8 1.17 1.62 1.77 2.42 3.18 4.26 6.75 8.26 10.08 12.41 1.9 2.37-.47-.63 1.24 1.59 1.34 1.74 2.67 3.43 4.06 5.12.92 1.13 1.84 2.27 2.75 3.4a12.15 12.15 0 0 1 1.29 1.67c3.07 4.13 5.93 8.35 8.66 12.71 1.32 2.12 2.73 4.18 4 6.36a33.11 33.11 0 0 0 3.39 5c1.83 2.25-1.44-2.22.2.36a14 14 0 0 0 15.41 6.27c5.38-1.48 10.6-7.28 10-13.16a43.79 43.79 0 0 0-6.15-19c-3.51-5.8-8.08-11.15-12.45-16.31-7.8-9.21-16.71-18.31-26.8-25a119.33 119.33 0 0 0-28.73-14.36c-7.44-2.44-20.27-6.13-26.91.22a1.23 1.23 0 0 0 .54 2zM454 674.7c11.53.28 21.14 14.53 26.69 23.08 7.34 11.3 12.8 23.45 17.8 35.94 6.24 15.6 12.23 31.2 16.07 47.6 2 8.5 3.76 17 5.8 25.53.93 3.85 1.85 7.74 2.49 11.65.72 4.43.33 9.28 3 13.1 3.49 5.07 10.94 5.61 14.31 0 3.65-6.07 2.08-15.62 1.94-22.5a130.67 130.67 0 0 0-2.32-23c-2.94-14.83-8.09-28.88-14.09-42.72-10.17-23.45-26.69-42.86-46.31-59-6.7-5.51-16.18-13.28-25.53-11.08a.71.71 0 0 0 .19 1.38z"/><path class="cls-1" d="M530.08 981c-.37-10.64-1.64-21.18-1.6-31.86s.63-21.36 1.52-32q1.65-19.7 2.9-39.41c1.32-20.94 3-43.43-2-64-1.79-7.43-7.12-19.37-16.81-14.94-2.66 1.21-2.22 5.14 0 6.48a18.4 18.4 0 0 1 2 1.52s.08.1.5.73.84 1.49 1.22 2.21a37 37 0 0 1 3.06 9.8c1.93 9.83 2.11 20 2.14 30 .06 21.91-2 43.76-1.65 65.67.2 11.33.65 22.68 1.94 33.95 1.23 10.73 2.65 21.79 6.62 31.88 0 .08.16.07.15 0zM535.8 978.66c-3.81 2.74-4.93 8.54-5.52 12.9a152.69 152.69 0 0 0-1 20.3c0 17.58 4.11 34.54 11.06 50.63 8.11 18.75 15.18 37.93 23.86 56.43a276.45 276.45 0 0 0 21.88 37.83c4 5.93 8.15 11.81 12.54 17.49 3 3.95 6.83 10 11.55 12.15a5.93 5.93 0 0 0 6.73-.87 4.56 4.56 0 0 0 1.63-3.42 3.69 3.69 0 0 0-1-2.59c.56.55.66 2.79.91 3q-.22 1.56.12-.92a4.18 4.18 0 0 0-.48-2.14c-1.1-2.6-2.42-2.72-4.2-4.55a72.93 72.93 0 0 1-5.25-6.18c-7-9-13.06-18.56-19.33-28-11.51-17.36-19.75-36.45-28-55.5-8.46-19.52-19.21-38.77-22.48-60-1.17-7.63-2.11-15.41-3-23.08-.79-6.78-2.6-16.52.57-22.92.16-.32-.19-.78-.53-.53zM1105 548.92c-3.27.53-5.85 7.28-7.77 9.71-3.58 4.53-7.47 8.88-11.2 13.29-6 7.11-11.92 14.1-15.33 22.87-2.92 7.51-5.09 15.3-8 22.8-2.23 5.7-7 11.85-8.51 16.61a3 3 0 0 0 1.36 3.35c13.15 7.88 21.73-31.58 24.31-38.8 3.56-10 10.85-18.19 16.94-26.67a58.4 58.4 0 0 0 8.2-15.68c.14-.44 2.26-7.84 0-7.48z"/><path class="cls-1" d="M1054.07 670c2.69-5.16 4.58-10.61 7.57-15.64a158.55 158.55 0 0 1 9.53-13.94 298 298 0 0 0 20.49-30.25c5.09-8.88 9.12-18.44 15.45-26.55a59 59 0 0 1 9-9.51c2.77-2.26 5.56-2.93 8.72-4.35 3.73-1.67 3.52-7.84 0-9.58-8.8-4.34-18.18 5.58-23.39 11.64-7.22 8.4-11.93 17.81-17.09 27.55-6.29 11.88-12.95 23.69-18.93 35.72-5 10.13-12.36 23.21-11.48 34.89 0 .07.11.11.15 0zM1186.3 595.91c4.51-9.25 18.69-8.15 27.12-6.92 9.33 1.37 18.42 4 26.29 9.23l-2.67-6.57c-.4 1.07-.69 2.15-1 3.25-1 3.09 2.13 5.85 5.09 5.09a16 16 0 0 0 4.48-1.77c3.1-1.86 4-6.56 1.18-9.14-8.42-7.76-24.77-8.37-35.49-7.83-9.56.49-24.38 2.58-27.27 13.69-.35 1.33 1.66 2.29 2.3 1zM1199.94 603.06c5.9 6.26 12.44 11.48 17.72 18.43 4.86 6.4 8.83 13.33 13.23 20 4.29 6.53 8 13.29 12.17 19.92 5.17 8.31 11.46 18.57 21.38 21.45 8.91 2.58 20.43-6.75 16.43-16.43-2.22-5.38-5.65-8.86-9.2-13.28 1 1.22-3.29-4.31-2.56-3.33-1.27-1.69-2.5-3.4-3.74-5.11a83.23 83.23 0 0 0-20.6-20.33 212.37 212.37 0 0 0-22.18-13.47c-6.7-3.44-14.93-7.8-22.61-8a.08.08 0 0 0-.06.13zM1250.78 685.78c-2.14 1.82 7.06 12.23 8.18 13.79 3 4.22 5.86 8.56 8.82 12.82 6.27 9 11 18.54 16.15 28.17 4.26 7.92 15.5 1 11.88-6.95-4.58-10-12.86-19.17-20.14-27.31-6.63-7.41-14.53-15.38-22.92-20.77a1.59 1.59 0 0 0-1.66 0l-.32.25zM1071.84 746.81c5.59.44 12.1-8.13 15.11-12.06 5.72-7.46 10.16-16.07 14.55-24.33 4.21-7.92 8.5-15.82 13.47-23.29a36.58 36.58 0 0 1 5.85-7.29 16 16 0 0 1 1.49-1.32c-1.9 1.47 0 0 .24 0 1.56 0-1.41.58-.11 0a18.5 18.5 0 0 0 4.41-2.72c4.88-3.94 1.85-12.07-3.57-13.54-8.7-2.36-15.85 6.49-20.34 12.64-5.28 7.23-9.28 15.34-13.23 23.35-4.32 8.77-8.08 17.72-12.07 26.64-1.74 3.89-3.16 7.87-4.63 11.86-1 2.68-2.81 5.69-2.72 8.55a1.57 1.57 0 0 0 1.53 1.53zM1121.08 750c4.72-15.19 12.14-28.9 19.81-42.77 3.7-6.69 7.95-12.8 12-19.24 2.25-3.54 5.53-8.25 5.53-12.59s-3.21-8.79-7.68-8.94c-5.15-.18-7.73 4.05-9.38 8.15-1.54 3.83-3.74 7.28-5.64 10.93-3.44 6.63-5.31 13.84-7.52 20.93-4.09 13.09-10.95 29.67-7.31 43.53a.08.08 0 0 0 .15 0z"/><path class="cls-1" d="M1137.92 500c-2.72 6.65-2.93 14.52-4.18 21.59s-2.52 13.83-3.67 20.76c-2.35 14.2-4.73 29.26-2.95 43.64 1.93 15.63 6.85 30.24 13 44.68a103.65 103.65 0 0 0 9.43 17.12c1.73 2.58 3.47 5.15 5 7.87.16.29 1.83 3.57 1.23 2.32s2.12 4.69 2.55 5.63c5.7 12.49 27.81 6.59 26.36-7.14s-10.9-23.49-17-35.38c-6.44-12.57-12.37-25.77-16.5-39.3a205.47 205.47 0 0 1-8.25-41.38c-.67-7.17-1.18-14.36-1.83-21.54-.56-6.27-.49-13.07-3-18.89 0-.07-.12 0-.14 0z"/><path class="cls-1" d="M1172.94 669.94c-2.54 2.79-1.41 8.26-1 11.69.75 5.63 2.77 11 4 16.57 2.75 12.93 2.68 26.47 4.52 39.54 1.9 13.51 4.47 26.92 7.17 40.29 1.43 7.06 2.9 14.11 4.25 21.19s2.05 14.33 4 21.16c4.14 14.54 27.39 12.11 26.86-3.64-.26-7.67-2.07-15.51-3.36-23.08q-1.65-9.7-3.48-19.36a417.72 417.72 0 0 0-9.28-40.86c-3.69-12.55-8.79-25.42-15.63-36.61-3-4.84-6.68-9.19-9.92-13.85-1.53-2.19-3.16-4.34-4.5-6.66-1.24-2.14-1.68-4.71-3.52-6.39a.08.08 0 0 0-.11 0z"/><path class="cls-1" d="M1151.06 791.06c2-2 1.85-6.62 2.63-9.28a91.45 91.45 0 0 1 5.44-13.55c3.54-7.38 6.77-15.38 11-22.37 3.79-6.2 9.19-11.4 13.45-17.28 3.7-5.1 8.69-12.83 4.23-19-1.86-2.56-6.92-2.89-7.6 1-2.36 13.49-14 22.4-18.84 34.79-3.22 8.22-6.59 16.35-9 24.86-1.17 4.15-5.76 17.35-1.48 20.79a.08.08 0 0 0 .11 0zM818.13 739.83c-6.75-1-13 5-16.65 10-3.88 5.21-9.63 14.42-8.82 21.17.21 1.72 2.6 3.46 4 1.66 3.7-4.76 4.37-11.6 7.28-17a31 31 0 0 1 5.93-8c2.63-2.45 5.67-3.43 8.59-5.31.9-.58.94-2.37-.33-2.56zM788.94 767.94c-6.3 5.33-9.79 15.67-12.5 23.29a95.43 95.43 0 0 0-5.31 28.71c-.37 9.7-.12 19.35.46 29a36.64 36.64 0 0 0 .8 7.27c.65 2.43 1.66 4.46 1.94 7 .51 4.66-.17 9.35 3.74 12.7a2.82 2.82 0 0 0 3.87 0c3.31-2.87 3.37-6.81 3.35-10.91 0-4.89 1.53-9.39 1.45-14.28-.16-9.41-1.28-18.79-1.63-28.19-.34-9.16-.59-18.46-.27-27.62a95.93 95.93 0 0 1 1.6-14.59c.78-4.11 2.44-8.18 2.65-12.35a.08.08 0 0 0-.13-.06z"/><path class="cls-1" d="M777 860.92c-4.47 1.47-7.79 9.33-9.62 13.17a72.81 72.81 0 0 0-6.23 19.09 150.83 150.83 0 0 0-2.36 20.82c-.12 3.35-.13 6.7-.07 10 .07 3.77 1.12 6.11 3 9.34.92 1.59 3.75 1.87 4.59 0 1.22-2.72 2.42-4.93 2.47-8 0-2.83 0-5.66.06-8.49.19-6.74.48-13.5 1.26-20.21.75-6.46 1.59-13.1 2.84-19.48.58-3 1.38-5.85 2.25-8.75.69-2.29 2.15-5.08 1.91-7.46a.08.08 0 0 0-.1-.08z"/><path class="cls-1" d="M779.61 933.39c-4.65-5.63-11.41-9.16-18.28-11.32s-14.09-5.12-21.28-4c-19.09 2.93-20 31.27-19.19 45.78 1.17 21.53 7.65 41.79 16 61.47 7 16.5 15.1 32.44 25.92 46.82 21.09 28 48.9 49.71 79.5 66.54a400.43 400.43 0 0 0 47.43 21.75c16.58 6.47 33.16 12.16 50.78 15a288.81 288.81 0 0 0 64 3.08 307.69 307.69 0 0 0 31.34-3.54q7.74-1.27 15.39-3c5.37-1.22 10.43-2.11 14.66-5.88 6.36-5.68-1.76-15.34-8.86-11.48a22.07 22.07 0 0 1-2.16 1.1c-4 1.92-3.92 8.57 0 10.52a21.3 21.3 0 0 0 2.16 1l5.63-13.36c-8.12-1.45-17 2.42-25 4s-16 2.73-24.13 3.51a263.56 263.56 0 0 1-52.19.12c-31.71-3.23-61-14.72-89.23-29.06-27.76-14.11-54-31.13-75.76-53.57a174 174 0 0 1-26.85-35.71c-8.45-15-14.14-31.66-19.76-47.87-6.39-18.46-10.13-37.59-4.78-56.77.16-.59 1.27-4.37.81-3.1 0 0 1.72-3.84.68-1.84a14.56 14.56 0 0 1 .89-1.61 10.65 10.65 0 0 1 6.21-3.67c7.74-1.76 18.77 1.74 25 6.43.83.63 1.61-.66 1-1.35z"/><path class="cls-1" d="M762 920.92c-9.15 2.34-10.91 18-11.12 25.54-.31 11.59 1.85 23.15 4.95 34.29 8.14 29.31 29 54.92 50.84 75.45 6.3 5.92 13.05 11.33 19.44 17.15a130.3 130.3 0 0 1 9.69 9.65c2.92 3.28 5 6 9.18 7.77 2.36 1 5-1.48 4.94-3.77-.18-6.91-6-12-10.62-16.54-5.23-5.15-10.88-9.84-16.45-14.6a323.06 323.06 0 0 1-30.85-30.52c-9.39-10.53-17.78-22-23.72-34.81-5-10.76-7.78-22.45-10-34.06a75.78 75.78 0 0 1-1.28-19.36 32.6 32.6 0 0 1 1.61-8.92c.92-2.56 2.57-4.64 3.5-7.18 0-.06 0-.11-.1-.1zM1040.69 1145.13c18.71 3.48 37.5-5.59 48.83-20.47 10.85-14.25 21.15-28.68 38.75-34.9 11-3.89 22.29-4.61 33.85-5.3a160.17 160.17 0 0 0 35.44-6.63c21.88-6.41 44.22-15.68 61.76-30.56 15.49-13.14 25.49-33.3 29.29-53.08 1.22-6.37-1.79-13-8.4-14.8-6.95-1.91-12.27 2.39-14.8 8.4-3.38 8-5.31 15.11-9 22.32a80.94 80.94 0 0 1-5.53 9.49c-.46.66-.93 1.33-1.41 2 1.17-1.55-.09.09-.3.33-1.52 1.73-3 3.44-4.68 5.06-6.24 6.1-13.24 10.13-21.49 14.84a220.36 220.36 0 0 1-28.71 14.18 233.41 233.41 0 0 1-32 9.62c-11.18 2.63-22.73 4.38-33.46 8.6-16.45 6.47-28.48 17.45-38.11 32.1-5.74 8.72-10.18 18.24-18.39 25-8.78 7.24-20.11 10.63-31.32 11.51-1.23.1-1.7 2-.31 2.3z"/><path class="cls-1" d="M831 1103.08c7-1.85 9.14-12.86 9.85-18.88 1.12-9.49.23-19 .09-28.49-.14-10.09-.23-21.41 6.08-29.82 5.16-6.88 18.39-17.4 13-26.93-2-3.57-6.54-4.42-10-2.63-4.24 2.2-5.34 7.62-8 11.32-2.84 3.94-6.05 7.62-8.69 11.7-6.13 9.49-6.53 21.53-6.32 32.49.17 8.86 2.21 17.8 3.71 26.51a88.28 88.28 0 0 1 1.48 13.93c0 3.68-1 7.12-1.32 10.72a.08.08 0 0 0 .1.08zM864.08 1071c3.82-14.08 2.61-29.21 5.23-43.53a58 58 0 0 1 7.39-20.18 28.18 28.18 0 0 1 6.77-7.79c3.74-2.87 6.44-5.53 6.33-10.58-.06-2.7-2.09-6.27-5.08-6.67-6.1-.82-9.77 1.37-13 6.5a79.59 79.59 0 0 0-5.31 10.25 78.24 78.24 0 0 0-5.84 23.86c-1.6 15.8-.9 32.83 3.35 48.2a.08.08 0 0 0 .15 0zM966.94 512.94c-6.62 5.26-14.36 7.78-21.71 11.75-7.76 4.19-14 10.8-18.78 18.17-11.87 18.36-10.5 41.83-7.18 62.44 6.72 41.75 28.43 78.43 48.54 114.89 3.44 6.24 6.61 12.64 10.49 18.63 4 6.23 11.7 15.7 20 9.47 4.63-3.5 5.44-8.68 1.71-13.25.66.81 2.36 3.27 2.06 4.87.27-1.4-.63-3.82-1.38-5.11a26.79 26.79 0 0 0-3-3.66c1.41 1.65-.87-1.28-1.15-1.71-.8-1.22-1.55-2.47-2.29-3.73-2.92-5-5.5-10.12-8.2-15.2-8.5-16-17.17-31.57-23.94-48.42-13.39-33.35-27.89-71.31-18.64-107.66 2.29-9 4.29-16.87 10.6-23.93 4.73-5.29 11-10.45 13.09-17.47 0-.08-.07-.12-.13-.08z"/><path class="cls-1" d="M967 518.92c-13.38-1.74-21.3 17-25.71 26.73-9.15 20.16-13.41 41.28-8.3 63.23s18.59 42.74 31.77 60.77c11.94 16.32 24 32.8 36.6 48.6 10 12.49 21.84 27 37.3 32.68 5.19 1.9 11.1 2.33 15.4-1.8a11.1 11.1 0 0 0 3.25-5.53 9.55 9.55 0 0 0 0-4.91c-.57-2.08-1.61-2.62-.14-.39-2.5-3.78-3.14-6.6-8.15-8.1-1.3-.39-2.65-.54-4-1 2.46.87-1.16-.74-1.91-1.21s-1.45-.94-2.17-1.43c-2.84-2 1.57 1.37-1.2-.91a131.1 131.1 0 0 1-17.37-18q-1.67-2-3.3-4.08c-.11-.14-2.37-3-.84-1.06-.82-1.05-1.62-2.11-2.44-3.16l-2.86-3.65c1.7 2.17.57.73.15.18q-2-2.64-4.06-5.26c-13.74-17.64-28.44-34.5-41-53-7.02-10.5-13.38-21.62-17.82-33.48-5.1-13.6-5.5-27.32-3.87-41.6a123 123 0 0 1 5.15-24.61c2.44-7.31 7-17.36 15.54-18.86.09 0 .06-.14 0-.15zM1002.85 767.31c.51 9.9 9.48 17 12.7 25.94 2.12 5.87 8.85 8.7 14.09 4.66s4.13-11.17-.91-14.79c-3.77-2.71-7.73-5.16-11.56-7.8-4.07-2.81-7.5-6.18-11.35-9.24-1.08-.85-3.06-.43-3 1.23zM1076.94 818.86a165.92 165.92 0 0 1 17.59 18.27c5.85 6.94 10.57 15 16.63 21.71 4.54 5 13.07 4.61 17.68 0 5-5 4.49-12.61 0-17.68-6.21-7-16.11-12.57-24.22-17.1a110.58 110.58 0 0 0-24.62-10.52c-2.93-.81-5.56 3.17-3.1 5.32zM1044.92 753c1.36 4.72 5.43 8.84 8.33 12.71s8.47 9.74 8.1 14.94c-.74 10.27 16.54 2.65 8.83-3.66-4.54-3.71-8.11-8.75-12.5-12.72-4.08-3.7-8.09-8.29-12.63-11.37a.08.08 0 0 0-.11.09zM1095.42 793.18c1.38 4.24 4 7.49 7.06 10.66 1.58 1.65 3.23 3.23 4.79 4.9.74.79 1.4 1.74 2.19 2.48 1.3 1.22.25 2.52.91-.39-1.52 6.7 4.95 13.11 11.63 10.17 5.9-2.59 7.54-12.13 1-15.32-4.09-2-7.78-4.58-12-6.4-4.64-2-9.9-3.81-13.74-7.19-.78-.69-2.22 0-1.86 1.08z"/><path class="cls-1" d="M1123.1 831.25c1.7 6.31 6.24 12.19 7.09 18.6a78.32 78.32 0 0 0 1.88 10.15c.41 1.49 1 3 1.53 4.44q1.14 3 2.56 5.86 1.23 2.73.37.78t.21.57q1.17 3 2.56 5.91c2.13 4.63-1.42-3.76.46 1.06 1.33 3.42 2.64 6.85 4 10.26 3.43 8.61 7 17.93 13.74 24.59a19.44 19.44 0 0 0 25.45 1.52c7.9-6.1 9.39-16.26 5-25-3.21-6.39-6.87-12.45-9.79-19-3.48-7.83-6.78-14.83-12.13-21.6-5.6-7.09-13.52-11.07-22.15-13.2-6.6-1.63-12.77-5-19.6-6.09a1 1 0 0 0-1.15 1.15zM1199.06 911.94c-1.15-1.14-2.94-1.47-3.5-3-.62-1.73.5-3.41 1.38-4.89 1.68-2.82 4-5.27 5.53-8.16 3.83-7.1 4-15.53 5.56-23.23 2.11-10.09-14.2-10.12-12.05 0a61.25 61.25 0 0 1 1.06 16.31c-.29 4.55-2.23 8.21-3.77 12.42-1 2.63-2.13 6.21-.44 8.81a5.09 5.09 0 0 0 6.21 1.92.08.08 0 0 0 0-.12z"/><path class="cls-1" d="M1208 895.16c.69 0 .88-.36 1.37-.72 1.82-1.35 3.15-3.84 5.08-5.32 4.16-3.17 8.54-5 11.71-9.35 2-2.71 3.12-5.74 4.48-8.78a38.06 38.06 0 0 1 2.68-4.76 15.92 15.92 0 0 0 1-1.85c.84-1.86-.94.78-1.84 1.42 6.67-4.73 9.21-13.25 3.85-20.18-5.16-6.69-14.37-6.91-20.5-1.39-7.74 7-7 16.66-7.32 26.09-.08 2.35-.15 1.09-.61 4-.35 2.22-.37 4.43-.6 6.66-.45 4.47-1.43 8.61-.59 13.11a1.41 1.41 0 0 0 1 1h.27z"/><path class="cls-1" d="M1237.08 860.13c2.92-1.94 4.19-5.68 5.65-8.75a100.12 100.12 0 0 0 4.27-11.11c2.77-8.12 4.3-18.52 9.63-25.21l-13.54-5.61c-.52 5.32-.38 9.68-2 14.66a24.35 24.35 0 0 0-1.29 9c-.12-2.48.07.59.57 1.53a8 8 0 0 0 2.8 2.86c7.6 4.42 15.56-3.23 16.81-10.38 1-5.88-.54-12.61-1.07-17.7-1-9.93-16.11-10.42-15.87 0a31.15 31.15 0 0 1-.18 6.9c-.44 2.35-1.22 4.69-1.79 7-1.1 4.49-2 9-2.78 13.55a123 123 0 0 0-1.86 12.77c-.24 3.39-1 7.2.38 10.38a.16.16 0 0 0 .21.06zM1260.67 750c6.89 7.19 7.42 18 14 25.27 5.74 6.34 16.16-1.84 11.78-9.09-2.89-4.78-7.34-8.75-11.54-12.37a33.32 33.32 0 0 0-12.28-7.23 2.06 2.06 0 0 0-2 3.42z"/><path class="cls-1" d="M1282.4 802.24c1.85-3.88 2.42-8.4 3.9-12.46 1.65-4.52 4.54-8.24 6.81-12.44 4.52-8.37 10.66-15.73 15.42-23.95 6.33-10.91-10.2-20.48-16.85-9.85a90 90 0 0 0-11.73 29.8c-1 4.85-.46 9.85-.34 14.77.11 4.53.12 9.93 2 14.13a.47.47 0 0 0 .81 0z"/><path class="cls-1" d="M1309.39 749c-.31-3.34 1-5.74 1.86-8.91a42 42 0 0 1 3.74-9.72A149.35 149.35 0 0 1 1329 710c5.31-6.62 10.66-13.09 17-18.82a59.37 59.37 0 0 1 7.84-6.26c2.82-1.87 6.42-3.08 8.78-5.5 5.33-5.46 1.44-14.91-6.21-15-8-.08-16.76 8.33-22.26 13.33a110.76 110.76 0 0 0-19.49 22.72c-5.4 8.66-9.06 17.33-10.4 27.49a43.34 43.34 0 0 0-.29 11.57c.5 3.66 2.73 6.6 4.74 9.62.2.29.77.22.73-.2zM1374.08 639c2.5-6.74 3.24-14.64 5-21.66 1.83-7.34 4.37-14.88 5-22.43.54-6.4-.4-12.73-1.63-19s-2.75-13.64-5.86-19.2c-8.09-14.43-30.73-1.29-22.22 13 2.87 4.82 7.15 8.14 9.89 13.12s3.36 10.42 4.2 15.89c1 6.76 1.85 13.52 2.61 20.32.72 6.44.66 13.87 2.85 20a.08.08 0 0 0 .15 0zM1302.92 499c.45 3.72 3.24 7 5 10.21a132.58 132.58 0 0 1 6.37 12.79c3.57 8.53 6.75 17.34 9.95 26 2.47 6.72 9 11.28 16.32 9.27 6.61-1.82 11.57-9.5 9.27-16.32-.54-1.58-1.68-3.1-1.94-4.7.64 3.87.52.36.24-.69a55.35 55.35 0 0 0-2.24-6.36 85.76 85.76 0 0 0-8.51-16.5c-4-5.78-9-11.09-16.06-12.81-6.32-1.54-12 .93-15.84 6-2.17 2.84-.37 7.26 2.34 8.91 1.05.64-.67-.6-.84-1.09a10.82 10.82 0 0 0 .84 1.55c.78 1.2 1.8 2.23 2.6 3.41-1.35-2-.09 0 .62.93s1.63 2 2.51 3-1.21-1.61.22.27c-1.43-1.88 4.41 5.72 2 2.51.66.88 1.29 1.79 1.9 2.71a59.52 59.52 0 0 1 3.13 5.28c.42.81.8 1.65 1.2 2.48 1.32 2.65-.48-1.51.41.95.64 1.78 1.1 3.67 1.79 5.42.87 2.21-.62 4.28.51-2.88a10.7 10.7 0 0 1-.46 1.67l22.17-5.85a179 179 0 0 0-21.59-21.06c-3.57-2.91-7.13-5.84-10.82-8.6-3.19-2.39-7-6-11-6.53a.08.08 0 0 0-.08.08zM1155.53 508.15c2.57-10.42 13.67-18.05 22.54-23.12 4.66-2.67 9.91-4.24 15.09-5.59 2-.52 4.2-.73 6.14-1.4-.64.22-2.61.32-1 .14 1.09-.12 5.6-.59 2-.23a197.63 197.63 0 0 1 21.39-.87q6.81.06 13.61.49 3.25.21 6.5.52l2.91.31c3 .33-1.31-.26 1.5.2 2.11.35 4.21.71 6.3 1.2 1.65.39 3.64 1.46 5.29 1.56.21 0-2.4-1.37-.41-.14.09.06 1.81 1.12 1.83 1.11s-4.26-3-.54-.39a11.24 11.24 0 0 0 4.67 2.43 11.87 11.87 0 0 0 4.15.66c5.74-.53 9.29-3.4 11.37-8.65 3.06-7.74-3.89-14.71-10.34-17.41-4.53-1.9-9.14-2.61-14-3.21-9.71-1.2-19.62-.91-29.36-.25-9.12.62-18.51 1.38-27.44 3.43-9.66 2.22-18.46 9-26.4 14.61-11.53 8.12-21 19.65-16.89 34.59a.55.55 0 0 0 1.05 0zM1121 504.15c3.75-.67 6.45-6.93 8.55-9.7l-2.15 1.65c2.14-.39 3.81-1.57 5.83-2.1-.24.06 4.15.09 1.74-.41l-6.35-4.89c3.23 4.49 8.1 7.26 13.83 5.68a12.21 12.21 0 0 0 7.9-16.45c-5.84-13.86-26.93-6-22.8 8.23l1.07-8.19c1.2-2-.74.46-1.15.9a29.49 29.49 0 0 0-2.17 2.56 15 15 0 0 0-3.25 7.83c-.07 1.38.57 2.4.66 3.66a17.88 17.88 0 0 1-.64 3.81c-.39 2.28-1.54 5-1.27 7.26a.16.16 0 0 0 .2.15zM1086 495.15c2.09.4 4.5-.78 6.45-1.5 2.86-1.06 6.1-3.5 9.24-3.14 7.6.86 7-13.13-1.48-11a34.77 34.77 0 0 1-8.08 1.26l5.11 2.12-.83-.92c-2.55-2.85-8.2-3.79-11.41-1.47-1.88 1.35-3.58 2.54-4.54 4.73-1.87 4.27-1 8.22 2.88 11 2 1.42 4.06 1.61 6.42 1.84 3.87.38 8.28-3.18 9.08-6.92l.26-1.21-3.32 4.32c2.87-1.59 5.89-2.86 8.73-4.51l-7.64-7.64c-1.32 3.07-5.34 4.83-7.54 7.27-1.39 1.53-3.35 3.47-3.44 5.62a.16.16 0 0 0 .11.15z"/><path class="cls-1" d="M1063 489.08c6.35-1.71 12-7.11 18.86-5.33l-4.7-2.74c3.95 3.68 7.78 6.14 13.48 5.37a14.42 14.42 0 0 0 12.5-14.15c0-15.4-21.64-19.5-27.58-5.55-1.74 4.07-4.31 7-7.12 10.89-2.22 3.06-5.59 7.49-5.54 11.44a.08.08 0 0 0 .1.08zM1023.85 500.37c7.28-8.23 18.63-10.25 29.07-10.49 8.63-.2 13.34-10.87 7.1-17.14l-.75-.75c-7.21-7.25-18 .3-16.24 9.46l.21 1.07 4.61-11.34c-6.37 3-11.52 7.76-16.62 12.46-4.5 4.15-8.54 9-10.58 14.87a1.93 1.93 0 0 0 3.21 1.87zM1018.43 482.52c-5.8-3.44-14.27-2.62-20.57-1.23a53.25 53.25 0 0 0-20.7 9.71c-11.94 9.55-21.38 23.05-27.74 36.85-8.36 18.11-9.28 36.84-6.14 56.31 1.45 9 3.6 17.88 5.72 26.74a53.85 53.85 0 0 0 5.24 13.67c1.95 3.54 3.38 8 6.49 10.69a3.27 3.27 0 0 0 5-.65c2.14-2.94 2.31-6.82 2.82-10.33a48.66 48.66 0 0 0 .64-12.53c-.91-8.49-3.37-16.87-4.86-25.28-2.68-15.09-3.5-30.94 2.62-45.36a105.43 105.43 0 0 1 21.59-32.6c4.5-4.5 8.56-9.38 13.73-13.15s11.15-6.07 16.12-9.81a1.78 1.78 0 0 0 0-3z"/><path class="cls-1" d="M980.16 573.24c-.93-3.55-6-3.84-7-7.5-.08-.27.05-3.53.06-4.7a26.29 26.29 0 0 1 .71-5.55c1.92-8.76 5.71-18 8.71-24.67 6.09-13.47 11.84-27 15.4-41.44 1.41-5.7 2.61-11.45 4.55-17 .81-2.33 2.14-4.59 3.42-7.41.37-.82 1.62-7 1.29-4.53-.15 1.12.55-5.55.2-3.67.62-3.32-.89-7.56-4.69-8.26-15.89-2.93-20.9 13.19-23.95 25.64-3.35 13.7-6 27.51-10.69 40.85-2.8 7.95-5.94 15.79-7.56 24.1s-2.52 19.58 1.58 27.5a22.62 22.62 0 0 0 8.8 8.81c2.14 1.09 10.5 2.85 9.19-2.18zM863.92 129c-1.5 4.53-7.18 7-11 9.31a37.16 37.16 0 0 0-9.69 8.33c-6.79 8.24-10.92 17.73-14.07 27.85-3.69 11.86-5.53 24.38-7.2 36.66s-3.66 24.82-4.48 37.31c-1.61 24.5 4.53 48.4 5 72.81.48 25.07-2.28 50.15 2.59 75 2.48 12.64 7.47 24.41 12.12 36.36 2.37 6.11 5 12.07 7 18.34a81.2 81.2 0 0 1 2.36 9.23c.62 3.32.43 6.75 1.53 10 2.15 6.28 8 8.05 13.79 5.61.92-.39 1.18-.38.08-.16 1.09-.22 2.22-.28 3.31-.48a43.35 43.35 0 0 0 4.64-1.16 75.14 75.14 0 0 0 10.51-4c6.58-3.08 12.57-7.26 18.41-11.54 11-8.09 22-18 35.79-20.83 12.44-2.52 7.05-22.93-5.28-19.13-14 4.3-25.39 14.13-36.5 23.26A150 150 0 0 1 876.3 454a45.23 45.23 0 0 1-8.19 4.19c-1.52.55-3.19.63-4.68 1.16q-.73 0-1.45.09 1.78 1-.08 0l4.31 10.6c2.22-5.26 1.27-12.35.59-17.89a127.06 127.06 0 0 0-3.73-18.43c-3-10.77-7.73-21-10.82-31.71-6.59-22.9-5-47-4.8-70.54.19-24.52-5-48.34-6.55-72.71-.79-12.16-.54-24.54-.53-36.72a319.61 319.61 0 0 1 2.12-36.52c1.46-12.68 2.42-25.74 8.56-37.22 3.32-6.2 13.63-11.62 13-19.38a.08.08 0 0 0-.15 0z"/><path class="cls-1" d="M926.34 446.06c6.61.22 13.95-3.24 19.85-5.88a98.67 98.67 0 0 0 20-12.13 135.84 135.84 0 0 0 17.73-16c4.67-5.12 11.35-11.68 13.23-18.49 1-3.51-1.23-6.35-4.33-7.62a8 8 0 0 0-5.05-.15c-3.78.89-4.09 5.24-2.07 7.83l-.72-1.71 1.81-4.38c-2.38 2.11-3.87 5.16-5.76 7.71s-4.1 5.17-6.31 7.62a162.88 162.88 0 0 1-16 15.55 161 161 0 0 1-17 12.61c-5.5 3.51-11.48 5.4-17.13 8.45-3.17 1.72-1.58 6.43 1.77 6.54zM995.12 410.2c2.16-.93 3.66-2.77 5.48-4.24 2.18-1.77 4.46-3.34 6.49-5.28a56.38 56.38 0 0 0 10.17-12.39c5.89-10.29 11.52-21.32 15.14-32.63l-5.55 5.55.61-.24c8.06-3.21 9.51-15.32 0-17.93-8.4-2.31-16.5 9.39-9 15.54l.71.59-2.33-5.61c-.79 10.66-5.65 21.54-9.74 31.34-1.95 4.66-5 8.5-7.54 12.8-1.92 3.25-5.09 8.42-4.77 12.32a.24.24 0 0 0 .35.2zM1006.08 431c4.8-19.22 22.5-31.47 36.31-44.28a182 182 0 0 0 20.93-23c6.75-8.83 13.79-18.13 17.75-28.59 2.9-7.66-3.21-17.47-10.91-19.22-8.91-2-16.1 2.72-19.22 10.91-3.5 9.21-4.94 19-9 28.13a175.09 175.09 0 0 1-15.31 28c-9.47 13.72-25.24 29.79-20.69 48a.08.08 0 0 0 .15 0z"/><path class="cls-1" d="M1026.7 297.92c-4 13.56 1.28 29.15 4.36 42.42 3.73 16.07 8 32.1 12.33 48a13.93 13.93 0 0 0 16.86 9.57c6.75-1.85 12.07-9.85 9.57-16.86-5.49-15.43-14.85-29.73-22.94-43.88-7-12.32-18.17-24.51-19.57-39.18a.31.31 0 0 0-.61-.08z"/><path class="cls-1" d="M1051 349.15c8 2.19 18.14-1.66 25.4-4.6a134.92 134.92 0 0 0 27.2-14.65c19.39-13.71 36.43-31.46 52.51-48.82 9.71-10.49-7.32-24.16-15.71-12.12-12.44 17.87-26.12 35.73-42.25 50.46a181.8 181.8 0 0 1-22.42 18 103.5 103.5 0 0 1-12.12 6.83c-4.13 2-8.38 3-12.61 4.59a.16.16 0 0 0 0 .3zM1102.2 262.34c3.68-2.55 6.36-6.29 9.29-9.63 3.6-4.09 7.3-8.12 11.12-12 3.65-3.7 8.07-6.52 11.7-10.24s7.25-7.9 10.71-12c6.66-7.92 13.77-15.52 19.14-24.42 5.49-9.09 9.4-19 14.63-28.25a12.54 12.54 0 0 0-4.42-16.86c-5.31-3.11-14.06-1.65-16.86 4.42-4.34 9.42-7.64 19.32-12.28 28.59s-10.91 17.48-16.59 26.1c-2.79 4.25-5.3 8.76-7.74 13.22s-4.13 9.56-6.71 14.1c-4.51 7.95-11.64 17.3-12.6 26.61a.39.39 0 0 0 .59.34zM950.82 331.73c4.9 7.76 19.21 5.1 26.72 3a79.32 79.32 0 0 0 13.62-5.22c5.93-2.87 11-5.82 13.49-12.16 2.11-5.34-3.27-11.65-8.66-11.37-5.72.29-9.2 3.52-14 6.09a52.74 52.74 0 0 1-10.31 4.09c-3.43 1-6.88 2-10.38 2.71-4.27.88-8 1.07-10.44 5.34a7.43 7.43 0 0 0 0 7.47zM889.28 392.35a225.94 225.94 0 0 1 9.89-25.48 131.64 131.64 0 0 0 8.07-24.73c3.92-16.59 8.53-33.71 18.18-48 8.92-13.17 19.68-25.26 29.83-37.48 10-12 21.34-24.3 28-38.62 3.78-8.13 6.55-16.65 9.8-25a92 92 0 0 1 4.42-9.64c2.59-4.9 6.32-9 4.24-15a10.43 10.43 0 0 0-9.62-7.32c-9.45-.7-14.66 10.91-17.82 18.25s-5.62 14.82-8.42 22.24c-5.35 14.19-15.16 25.83-24.64 37.45-10.89 13.35-22.11 26.61-29.2 42.45a243.72 243.72 0 0 0-16.36 50.8c-2 9.72-3.76 19.66-4.94 29.51-1.21 10.08-3.25 20-4 30.16-.12 1.55 2.17 1.73 2.61.35z"/><path class="cls-1" d="M920.54 311.32c3.7-8.66 11.74-14.21 19.34-19.22 8.4-5.54 17.09-10.86 24.63-17.59 9.8-8.75 17.26-20.38 24.27-31.37 7.9-12.39 15.09-25.21 22.85-37.68 6-9.66-9.56-18.77-15.25-8.91-7.38 12.72-14.1 25.77-21.58 38.45-6.5 11-13.42 22.91-22.53 32-7.54 7.5-15.6 14.17-22.47 22.36-4.67 5.57-12.15 13.94-10.4 21.86a.63.63 0 0 0 1.14.15zM1007.42 179.83c5.52-10 14.86-17.41 22.42-25.76 8.69-9.6 15-21.22 22.21-31.92s14.31-21.59 21.07-32.68c3.52-5.77 7-11.57 10.64-17.24 4-6.13 8.75-11.53 8.77-19.23 0-6-6.13-11.09-12.07-9.19-7.72 2.47-11.44 8.78-15.59 15.27-3.64 5.68-7.11 11.46-10.5 17.29-6.79 11.71-14 23.32-20.23 35.32S1023.7 136 1019 148.61c-3.9 10.43-11.49 19.14-14.56 30a1.65 1.65 0 0 0 3 1.26zM907.07 205c5.52-11.42 18.1-19.18 29-24.86a146.74 146.74 0 0 1 16.21-6.79c3.62-1.37 7.89-2.73 9.05-6.94a7.26 7.26 0 0 0-3.42-8.4c-6.35-3.52-13.36 3.89-18 7.45-5 3.82-10 7.67-14.76 11.71-8.32 7-17.9 16.12-18.19 27.79a.08.08 0 0 0 .15 0z"/><path class="cls-1" d="M931.38 210.1c3.69-9.88 14.21-15.42 21.9-21.83 4.14-3.45 7.91-7.42 12.26-10.6a28.7 28.7 0 0 1 7.43-4.11c3.82-1.28 6.24-1.27 9.49-4.11 5.79-5.06 1.32-16.2-6.46-15.6-8.38.64-13.07 8-17.95 14.12-3.95 4.95-7.54 10.16-11.47 15.12-5.74 7.25-17.16 16.65-16 26.9a.39.39 0 0 0 .77.1zM829.08 284c3.15-14.94 11.27-29.69 20-42.08 9.82-13.87 24.11-23.4 36.14-35.14 10.9-10.64 21.51-20.67 34.29-29A144.16 144.16 0 0 0 937 165.07a36.53 36.53 0 0 0 6.47-7.08 11.67 11.67 0 0 0 1.92-6.13 7.85 7.85 0 0 0-1.08-4q-2.73-3.71.41 1.12c-.11-5.26-6-7.11-9.74-4l-.36.06 5.26-.69c-7.37-2-11.91 6.55-16.77 10.6-5.16 4.29-10.95 7.81-16.51 11.55-14.12 9.49-24.74 22-35.8 34.8s-23.08 24.86-30.25 40.41c-5.93 12.86-12.72 27.85-11.61 42.31 0 .08.13.11.15 0zM826.07 229c4.18-5.64 6.57-13.24 10-19.44 3.54-6.5 7.38-12.83 11.4-19.05 8-12.37 16.46-24.48 25.1-36.41 8.81-12.16 18.58-24.45 30.9-33.23 12-8.52 25.3-14.84 36.91-23.88 11.09-8.63 20.19-20.48 34.48-23.85 13.18-3.11 7.46-24.24-5.61-20.34-14.36 4.29-25.09 14.42-35.27 25-5.07 5.25-9.78 10.77-15.2 15.69-5.67 5.15-11.66 9.9-17.52 14.84-23.95 20.16-40.12 47.19-55.29 74.16-4.51 8-8.81 16.15-12.62 24.52-3 6.52-7.33 14.75-7.39 22a.08.08 0 0 0 .15 0zM998 71.92a42.53 42.53 0 0 0-7.46-1.58c-2.12-.3-3.47 2.28-1.51 3.57 6.35 4.19 14.61 6.49 21.78 8.86 7.85 2.6 15.52 5.69 23.16 8.83s15.31 6.9 23.52 8.13c9.6 1.44 20.91 3 30.49.8 14.73-3.45 14.07-25.33 0-29.16-8.11-2.21-18-1.75-26.42-1.65s-16.65 2.25-25.07 3.34a103.62 103.62 0 0 1-24.44.6c-7.37-.8-14.67-2.8-22-3.39l.52 3.84c2.46-.78 5-1.36 7.46-2a.08.08 0 0 0 0-.15zM1101.92 90c-1.25 4.52 2.69 9.4 5.26 12.77 3.92 5.12 8.78 9.28 13 14.1 7.07 8.06 14.7 26.84 27.82 23.46 6.64-1.71 8.45-8.86 5.88-14.46-2.27-5-7.46-6.68-12.24-10.12a72.84 72.84 0 0 0-13.09-7.57 106.69 106.69 0 0 1-14.9-8.16c-4.37-2.86-7.36-7.34-11.64-10.07a.08.08 0 0 0-.11 0zM1502.83 504.38c-3 2.84-4.39 6.44-6 10.16-2.37 5.53-4.11 10.48-4.58 16.56-.77 10 .64 20.26 2.3 30.15 1 6.2 2.33 12.43 3.69 18.57 1.77 7.95 4.13 19.05 10.61 24.32 6.24 5.07 13.42 7.31 21.23 4 6.79-2.87 12.32-10.06 11.95-17.76-.24-4.84-1.55-7.83-3.29-12.21 1.09 2.73 1 2.6.12-.1-1.05-3.1-1.88-6.28-2.64-9.46-1.34-5.59-2.35-11.26-3.77-16.83-2-7.81-3.44-15.72-5.26-23.57a30.54 30.54 0 0 0-.87-3.55q-2.65-6.37-1.59-3.75c.29.69-2.34-5.15-3-6.38-1.88-3.59-3.47-7.38-6.53-10.16a9 9 0 0 0-12.38 0zM1547.55 627a3.6 3.6 0 0 1 0-1.77l-3.49-.95c-.58 11.82 1.17 24.06 2.33 35.82 1.33 13.48 6.17 25.92 10.38 38.67 4.3 13 8.64 26.47 15.83 38.21 5.9 9.63 13.86 18.08 18.3 28.57 4.08 9.63 19 12.46 27.26 7.15 10-6.46 11.52-16.95 7.15-27.26s-12.09-18.56-18.11-27.84a83.76 83.76 0 0 1-4.66-8.19c-.64-1.28-1.19-2.61-1.83-3.88-1-2 1 2.63-.36-.83-2.73-7-5.27-14-8.33-20.78a108.19 108.19 0 0 0-21.83-32c-4.35-4.31-9-8.12-12.78-13a110.2 110.2 0 0 1-9.85-15.6c-1.13-2.13-4.5-.18-3.24 1.89a6.18 6.18 0 0 0 2.38 2.24.55.55 0 0 0 .82-.47zM1619.53 789c-.07 13.34 9 25.08 13.13 37.3a66.69 66.69 0 0 1 3.49 19.73c.3 8 1.5 16 2.43 23.91 1 8.81 1.2 17.72 3.38 26.36 1.82 7.23 4.3 14.21 6.57 21.32a204.93 204.93 0 0 1 5.68 21.14c.46 2.23.83 4.47 1.22 6.71-.61-3.57 0 0 .16 1.61.4 4.2.37 8.4.62 12.61.62 10.32 8.66 20.29 19.8 19.8 11.37-.51 19-8.71 19.8-19.8 1.2-16.41-3.29-33.82-8.38-49.29-2.75-8.35-5.7-16.63-9.2-24.7-.28-.65-2.61-6.09-1.18-2.72-1.16-2.73-2.16-5-3.52-7.53-1.81-3.37-3.74-7-4.82-9.59-3.32-8-5.73-16.49-9.81-24.15a103.53 103.53 0 0 0-13.24-19.5c-9.38-10.74-19.3-20.2-25.24-33.45-.2-.44-.87-.2-.87.24zM1701.08 946.64c4.68 2.74 11.5 1.93 16.48.59 7.75-2.09 13.83-6.58 19.86-11.74s10.86-11.62 15.35-18q1.46-2.07 2.86-4.18c.45-.68.88-1.36 1.32-2-1.29 2 1.31-1.79 1.38-1.9 2.85-4.37 2.76-9.48 1.68-14.41-1.44-6.58-8.8-8.12-14.08-5.73a17.46 17.46 0 0 0-8.93 8.19q-.54 1.25-1 2.51.71-1.68-.27.3c-.86 1.42-1.6 2.92-2.43 4.36-3.11 5.39-6.54 10.57-10.12 15.66-3.26 4.63-6.76 9-10.3 13.37s-7.24 6.84-11.78 9.77a1.88 1.88 0 0 0 0 3.21zM1789 890.15c2.37-.91 4.31-3.5 6.25-5.13 2.65-2.23 5.44-4.16 7.77-6.74 6-6.59 10.29-14.32 15.6-21.39 7.86-10.47 30.45-28.37 20-43.12-3.92-5.52-9.91-7.17-16.1-4.22-8.09 3.85-9.37 13.9-12.79 20.56-3.33 6.49-7.08 12.76-9.55 19.65-2.83 7.92-4.12 16.33-7.23 24.14-1.52 3.83-7.11 12.2-4.11 16.17a.16.16 0 0 0 .18.07zM1879.73 696.71c-4.65-.1-8.89 7.43-11.43 10.65-4.07 5.15-8.59 10.56-11.38 16.52-3.41 7.28-5.32 14.93-8 22.47-.12.33-.78 3-1.15 3.06.25 0 1.77-4 .47-1.13-.8 1.73-1.58 3.45-2.53 5.11-.51.89-1.09 1.74-1.61 2.62-1.52 2.54.39-1.14.94-1.17-.25 0-1.39 1.46-1.58 1.7-2.47 3 3.62-2.5.51-.27-8.44 6-13.33 17.61-7.13 27.21 5.61 8.7 17.88 13.2 27.21 7.13 17.19-11.17 24.72-33.23 25.78-52.91.47-8.76-2.34-15.38-5.87-23.16-1.26-2.77-2.27-4.5-2.87-8-.47-2.74 1.1-4.95.94-7.56a2.32 2.32 0 0 0-2.27-2.27zM1719.14 797.81c.92-4.05 1.25-6.88 3.72-10.4s5.11-7.18 7.65-10.79 5-7.54 7.25-11.44c1.66-2.87 3.57-5.22 4.58-8.48a19 19 0 0 0-1.68-15.28c-5.38-10.13-17.91-9.57-25.68-3.31-4.15 3.35-5.92 8.87-6 14.08 0 .61 0 4.71.39 1-.13 1.16-.43 2.32-.67 3.45-1.16 5.59-2.35 11.06-3.09 16.73-1 7.82.54 20.63 7.17 26.07 2.06 1.69 5.64 1.34 6.33-1.67zM1704 567.92c-5.67 1-10.7 6.3-14.49 10.29a142.84 142.84 0 0 0-12.68 15.7c-8.46 11.91-14.8 25-20 38.64-6.09 16.11-7.73 33.65-8.35 50.76-.35 9.77-.18 19.56-.18 29.33 0 9.34-1.23 19.26 3.88 27.65 9.86 16.19 36.42 9.81 36.21-9.81a26.31 26.31 0 0 0-.72-6.4q-.44-3.21.17 1.51c.3-.24-.2-4-.21-4.56 0-3.12 0-6.24-.06-9.36q-.36-14.18-.49-28.36c-.12-15.1.76-30.17.66-45.26-.08-12.31.2-24.89 2.4-37a72.69 72.69 0 0 1 5.4-18.12c2.41-5.15 6.39-9.67 8.51-14.89 0-.06 0-.11-.1-.1z"/><path class="cls-1" d="M1724 596.93c-5.45-3.38-11.56 4.23-14.29 8.05-4.93 6.9-8 15.07-11.3 22.82-4.86 11.36-8.43 22.48-10 34.8a211.76 211.76 0 0 0-1.32 21.65c-.22 7.75-1.58 15.74-1.36 23.44.29 10 8.63 19.7 19.22 19.22 11.45-.51 17.92-8.49 19.22-19.22.91-7.51-1.16-16.07-2.37-23.46-1-6.09-2-12.24-3.28-18.28-2.16-10.28-4.12-20.27-4.52-30.79a87.92 87.92 0 0 1 1.36-21.52 31.49 31.49 0 0 1 8.7-16.58.08.08 0 0 0 0-.12zM1609 117.08c3.83-.93 7-4.54 10.1-6.72 3.74-2.62 7.6-5.13 11.48-7.55a179.93 179.93 0 0 1 16.57-8.81c5.31-2.6 26.57-11.32 20.81-20.13-.73-1.12-2.57-1.64-3.56-.46-6.75 8.05-16 12.65-25.2 17.5a127.31 127.31 0 0 0-16.43 10.41c-4.68 3.48-13.1 9.45-13.85 15.69 0 .05.05.09.1.08zM1695.93 82c2.09 3.08 6 4.38 9.31 5.78 4.66 2 9.8 3 14.73 4.11s9.73 2.07 14.58 3.17c5.16 1.18 10.38 3 15.69 3.18 4.58.17 6.65-6.77 2.4-8.85-8.92-4.38-20.47-4.83-30.2-6.45-4.63-.77-9.33-1.56-14-1.94-3.88-.32-8.88-.9-12.47.89a.08.08 0 0 0 0 .11zM1790.92 115c.95 6.17 6.72 11.83 9.7 17.22 3.33 6 5 12.42 6.88 19 2.28 7.8 5.2 15.76 9.55 22.65 3.08 4.87 6.89 9.27 10.42 13.82 5.64 7.27 18.9 6.36 24.74 0 6.8-7.41 6.4-17.33 0-24.74-3-3.43-6-6.77-8.94-10.22 3.23 3.79-1.42-2.34-2-3.08-1.52-2.09-3.19-4.09-4.79-6.13-2.58-3.28-5-6.52-8.14-9.26a83.68 83.68 0 0 0-19.56-12.26c-5.27-2.48-11.84-7-17.78-7.1a.08.08 0 0 0-.08.1zM1500.07 199c-2.7-4.38-15.72 2-19 3.26-9.24 3.67-18.69 8.54-25.36 16.15-9.69 11.06-13.29 25.21-13.94 39.63-.37 8.15-.43 16.31-.75 24.46-.27 6.82-1 13.61-1.14 20.43-.08 5.45-.19 10.9-.28 16.35s1.22 10.12 2.06 15.3c.72 4.42 2.49 7.73 7.68 5.94 4.66-1.61 9.05-6 11.06-10.38 5-10.86 2.78-24.31 3.81-36 1.31-14.78.64-30.64 2.84-44.88.91-5.87 2.89-12.8 6.25-18.23 2.4-3.88 5.73-7.13 8.62-10.64 3.73-4.53 6.6-9.69 10.5-14.12 2.31-2.63 5.58-4.5 7.61-7.21a.08.08 0 0 0 0-.08z"/><path class="cls-1" d="M1485.87 263.92c-3.13 6.74-5.95 13.59-9.3 20.24-3.26 6.47-6.73 12.81-9.43 19.55a170.56 170.56 0 0 0-6.8 21.84c-1.91 7.6-4.28 15.07-5.49 22.81-2.37 15.13-4.89 30.55-3.41 45.91a121.14 121.14 0 0 0 5.17 24.25c2.46 8 3.65 17 10.32 22.87 5.59 4.88 12.71 4.83 18.34 0 14.77-12.66 1.9-33.3-1.63-48-1.6-6.66-1.86-11.47-2-19.46-.12-7.31 0-14.63 0-21.95s-1.4-14.61-1.83-22a172.13 172.13 0 0 1 0-23.71c1.13-14 7.88-28.18 6.33-42.3 0-.14-.22-.24-.29-.08z"/><path class="cls-1" d="M1488.08 372.38c-8.3 17.22-11.06 38.08-12.63 57-.93 11.14-2.08 22.36-2.1 33.54a175.86 175.86 0 0 0 1.11 18.1c.78 7.69.72 17.07 7.21 22.37 6.21 5.07 16.46 5.5 20.74-2.67 3.91-7.47 1.9-13.87.38-21.63-1-5-1.75-10.11-2.4-15.21-1.4-11-2.71-22-3.91-33-2.06-18.94-8.07-37.92-5.22-57.12.26-1.76-2.23-3.27-3.17-1.34zM1046.92 808c1 3.85 4.3 7.32 7 10.12a53.24 53.24 0 0 0 11.93 9.64c3.19 1.74 6.78 2.7 10.06 4.28 1.82.88 3.51 2 5.27 3a13.54 13.54 0 0 0 3 1.48 6.4 6.4 0 0 0 3.37.15q2.52-.3-.56 0c3 .61 6.46-.84 7.2-4.09.56-2.43 1.34-4.14 0-7.43-1.13-2.68-3.7-4.86-6.18-6.31-4-2.34-8.85-3.28-13.25-4.6-5-1.48-9.56-3.59-14.38-5.43-3.94-1.5-9.41-3.13-13.33-.83a.08.08 0 0 0 0 .09zM1707.91 888.37c1.3-9.71-5.67-20.85-10.84-28.67s-10.83-15.6-16.51-23.13c-5.35-7.09-11.2-14.08-15.48-21.89-2-3.72-3.52-7.7-5.23-11.57q-.67-1.55-1.4-3.07.62 1.58-.18-.42a38.64 38.64 0 0 0-2.72-5.52c-1.82-2.9-5.22-5.32-8.81-5.06-7.11.52-10.92 6-9.84 12.92a79.66 79.66 0 0 0 2.83 10.55 143 143 0 0 0 12.93 30c5.21 9.22 10.2 18.5 15.1 27.9 2.47 4.72 5.28 9.09 8.19 13.55 3.62 5.55 7.73 11.78 13.79 14.89 8.88 4.57 17-1.32 18.18-10.43z"/></svg>