<svg id="Layer_4" data-name="Layer 4" xmlns="http://www.w3.org/2000/svg" viewBox="0 0 2000 1200"><defs><style>.cls-1{fill:#22a4e1}</style></defs><title>Artboard 1</title><path class="cls-1" d="M704.85 186.47c-5.52 1.38-7.78 8.5-9.19 13.27-2.89 9.81-3.73 20.29-4.42 30.47-1.31 19.37-.22 38.86-2 58.18-.67 7.34 10.67 7.22 11.41 0 1.76-17-1.27-34.27-4-51.07s-5.72-33.79-5.9-51c-.09-9.06-15-11.86-16.44-2.23-5.66 37.61 1.27 76.17 3.58 113.81l21.5-2.91a482 482 0 0 1-17.34-86.38c-.65-6-4.68-11.2-11.2-11.2-6.34 0-10.86 5.13-11.2 11.2-1.53 27.39-4.6 54.72-3.07 82.18h27.13c-1.27-15.6-3.39-31.11-3.72-46.79-.34-16.05 1-28.86 5.95-44h-29.32c10.14 24.18 14.07 50.25 20.23 75.59 2 8.13 10.45 13.1 18.42 12 7.57-1 15.39-8.16 14.56-16.49-1.49-14.87-3.22-27.25-4.46-41.67-1.2-13.91-2.69-27.94-4.38-41.66l-27.19 7.37c1.14 2.6-1.12-3.1.16.44.4 1.1.83 2.2 1.22 3.31.72 2 1.38 4.07 2 6.13C678.71 210 680 215 681.34 220c2.91 11.17 5.56 22.41 8.67 33.53 5.49 19.61 12.31 43.54 28.8 57 9.79 8 22.73 2.63 24-9.92.82-8.41 0-17.27 2.39-24.87l-20.87 5.51c12.07 14.37 20.06 33.35 26.39 51 6.9 19.21 13.08 38.75 21.79 57.24 4 8.55 17.48 4.1 17.34-4.7-.36-23.63-11.84-45.25-12.71-68.65h-17c2.54 23.07 9.62 45 16.27 67.09 3.75 12.46 22.16 7.29 19.42-5.35-6.8-31.29-20.87-60.42-27.17-91.86l-18.51 7.81c9.84 16.61 15.49 35.32 25.94 51.6a10.71 10.71 0 0 0 13.31 4.36c4.37-1.92 8.23-7.6 6.17-12.57-13.23-32-32.65-60.63-47.39-91.85L732 257.69c22.06 18.4 32.56 46.6 53.7 65.87 7.25 6.61 17.31 0 15.7-9.14-5.52-31.42-27.56-55.66-42.4-82.85l-12.61 12.61c13.79 6.66 23 18.88 31.38 31.27 9 13.28 17.44 27.35 29.33 38.3 7.79 7.17 19-1.79 14.37-11.09-20.62-41.53-62.58-66.28-86.08-105.61l-13.79 10.62c29.15 26.05 49.72 60.16 80.93 84.11 3 2.28 8 1.37 10.69-.75 3.26-2.59 4.08-6.12 3.45-10.12-5-31.6-36.44-50.28-51.3-76.68L754.8 218c26.17 9.3 44.69 32.41 71.56 40.64 5.69 1.74 11.59-3 11.57-8.81C837.82 221 807.25 209 796 185.87L783.87 198c23.35 11.88 40.4 31.22 58.33 49.76 8.62 8.91 22.2-4.69 13.59-13.59a406.26 406.26 0 0 0-29.7-27.89c-10.42-8.8-21.09-17.33-33.24-23.64-8.21-4.27-16 4.17-12.17 12.17 5.28 11.16 14.84 19.84 23.25 28.62 7 7.3 15.69 16.22 15.73 26.33l11.57-8.76c-12.93-4-24-12.11-34.81-19.93-11.56-8.34-23.15-16.22-36.64-21.13-8-2.93-14.25 7.08-10.57 13.75 7.48 13.55 18.43 24.89 28.4 36.6 8.91 10.47 18.11 21.84 20.5 35.75l14.14-10.87c-30.05-22.41-50-55.43-78.25-79.88-7.18-6.22-19.28 1.7-13.77 10.62 24 38.86 65 64.75 85.42 106l14.35-11.1c-23.89-22.07-33.57-57.64-64.34-72.55-8.15-3.95-17.21 4.16-12.61 12.61 14 25.74 35.13 48.85 40.24 78.55l15.7-9.14c-21.16-19.45-30.62-48.21-52.48-67.1-9.08-7.84-20.9 1.82-16.11 12.43 13.81 30.6 32 59 45.62 89.71l18.41-10.76c-10.84-16-17.19-34.42-26.86-51.07-6-10.35-20.61-3.14-18.51 7.81 6 31.45 19.06 61 27.28 91.83l19.42-5.35c-7.4-21-15.5-41.89-19-64-1.48-9.4-17.52-7.29-16.72 2.26 1 11.89 3.38 23.48 6.12 35.07 2.62 11.1 5.17 22.11 5 33.58l17.34-4.7c-16.32-37.48-23.72-78.51-44.65-114-4.57-7.74-17.18-8.49-21.56 0-5.66 11-6.35 22.46-7.64 34.49l24-9.92a48.1 48.1 0 0 1-4.61-4.5c-.62-.67-2.18-3.16-.22-.22-.56-.85-1.17-1.66-1.72-2.51a84.25 84.25 0 0 1-6.63-12.74c1.31 3.06-.23-.67-.37-1q-.66-1.71-1.28-3.44c-1-2.77-1.92-5.56-2.8-8.37-1.63-5.21-3.08-10.47-4.46-15.75-5.38-20.65-9.13-41.86-17.58-61.55-5.6-13.06-28.79-6.67-27.19 7.37 3.32 29.2 1 58.69 5 87.8l32.38-8.93c-7.55-26.45-13.06-53.33-24.76-78.4-2.53-5.43-9.7-8-15.18-7.27A15.42 15.42 0 0 0 656.62 192c-10.73 32.75-4.56 69.95.51 102.47 1 6.57 8.89 10.62 14.88 9.72s12.64-6.55 11.76-13.32c-3.53-27.29-3-54.77-1.66-82.18h-22.39c3.57 31.2 9.42 62.15 18.62 92.2 3.47 11.34 22.35 9.88 21.5-2.91-2.49-37.16-12.84-74.14-9-111.58h-16.77c1 17.28 4.38 34.23 7.83 51.16a408.8 408.8 0 0 1 7.38 50.87h11.41c-1.56-17.57-3.49-35-4-52.65a206.15 206.15 0 0 1 1-30.25c.64-5.35 1.3-15.72 7.48-18a.55.55 0 0 0-.29-1.05zM610.92-7c-.09 3.41 5.47 6.45 7.63 8.68A155.9 155.9 0 0 1 630.09 15a355.56 355.56 0 0 1 21.14 31.71c6.56 10.76 12.5 21.88 18.92 32.73C677 91.06 684.72 102 692 113.36c4.47 7 8.37 14.49 13.76 20.82a29.41 29.41 0 0 0 9.2 7.07 15.61 15.61 0 0 0 10 1.31c-.64.1-3.64.81-.67 0a15.64 15.64 0 0 0 4.62-1.92c2.75-1.66-.45.35-.84.58a14 14 0 0 0 4.67-4.67 17.33 17.33 0 0 0 2-8.06 29.72 29.72 0 0 0-3.82-14.82c-3.87-7.24-10.2-13.4-16-19.14-9.38-9.31-19.07-18.23-27.9-28.08-8.54-9.45-16.87-19.15-25.12-28.88-9.12-10.74-18.47-21.38-28.9-30.86a103.64 103.64 0 0 0-14.29-11.13c-.4-.25-7.73-4.8-7.79-2.58zM672.7-2.92c1.61 11 8.14 22.14 14 31.43a340.34 340.34 0 0 0 24.21 33.16c17.66 21.84 35.61 43.79 54.49 64.58 5.63 6.2 11.19 12.49 17.07 18.45 2.85 2.89 5.8 5.58 8.91 8.18s6.63 6.29 10.6 7.28a6.69 6.69 0 0 0 7.78-3.18c1.84-3.75-.24-7.58-2.37-10.71a104.63 104.63 0 0 0-16.92-18.78C768.58 108 747.4 88 726.83 67.11a456.39 456.39 0 0 1-31.26-34.32 180.38 180.38 0 0 1-22.3-35.94c-.17-.35-.62-.08-.57.24zM741.34-27.2c-.36-.7-.81-1.3-1.22-2q-.31-1-.63-.32l2.17 2.05c2.51 2.68 4.69 5.81 7 8.69 4.9 6.19 9.73 12.43 14.45 18.75 9 12.06 17.65 24.36 26.18 36.75 8.33 12.1 16.15 24.57 24.2 36.86q6 9.19 12.08 18.36c3.54 5.33 7.54 13.49 14.44 14.71a3.91 3.91 0 0 0 4.85-3.69c.68-7-6.07-13.08-10.15-18.07q-7.22-8.84-14.3-17.8c-9.53-12-19.09-24-28.46-36.18-8.94-11.61-18-23.13-27.39-34.38-4.72-5.67-9.5-11.29-14.43-16.78-2.47-2.75-5-5.48-7.5-8.16-.83-.87-2.26-2.55-3.72-2.39a.53.53 0 0 0-.5.66c.41 1.24 1.64 2.2 2.29 3.3a.39.39 0 0 0 .67-.39zM793.2-7.12a36.85 36.85 0 0 1-4.62-9.54 31.44 31.44 0 0 1-1-4.25c-.47-2.84-.22-2.93 2.2-1.95a119 119 0 0 1 16.53 8.31A187.44 187.44 0 0 1 836 8.1c19 17.33 35.44 37.18 52 56.77 8.37 9.91 16.51 21.54 27.55 28.63 2.44 1.56 5.46-1.53 4-4-7.55-12.09-19.19-22.15-28.85-32.61-10.53-11.41-21.08-22.83-32.18-33.7C837.86 3 814.76-16.17 786.84-25.12a.54.54 0 0 0-.68.52 33.91 33.91 0 0 0 6.64 17.72c.17.24.57 0 .4-.24zM433.34 247.2c19.14-29.54 38.48-59 59.17-87.45 4.76-6.55 9.42-13.16 14.45-19.51 5.3-6.7 11.45-13.2 16.1-20.36a46.81 46.81 0 0 0 7.1-24.54 43.2 43.2 0 0 0-1.92-13.21 27.18 27.18 0 0 0-2.39-6c-1.3-2.19-3.55-3.49-5.16-4.8-3.32-2.71-8.12-3.38-11.38 0q-1.51 1.53-.33.38a9.32 9.32 0 0 0-3.46 3.18C503.84 77 503 79.57 502 82.12c-.72 1.8-2.32 5.42-3.66 8.91-2.43 6.35-4.83 12.44-6.31 19.1-3.44 15.44-9.88 30.22-16 44.74-13.2 31.22-28.6 61.44-43.36 91.93a.39.39 0 0 0 .67.39zM493.35 303.61c19.62-14.36 29.23-38.78 37.58-60.73 4.59-12.07 8.31-24.44 12.67-36.58 4.12-11.46 9-22.54 13.41-33.9 5.06-13.17 9.85-30.67-1.25-42.17-2.92-3-7.15.19-6.53 3.8 1.95 11.34-1 24.22-3.61 35.23s-5.83 21.74-8.22 32.84c-5.12 23.72-11.15 47.83-21.88 69.72-5.66 11.54-12.78 22.7-23 30.69-.62.49.21 1.58.85 1.1zM351.07 135c14.82-28.89 41.85-49.9 66.08-70.5 9.2-7.82 15.68-13.64 25.06-20.16 4.69-3.26 9.43-6.41 14-9.87q4.41-3.36 8.64-6.92c1-.86 2-1.72 3-2.64q.67-.63 1.31-1.29 3.08-3.07-4.69 2.46c7.27-1.38 12.3-9.3 12.39-16.27s-3.47-13.93-10.13-16.6c-7-2.81-13.41-.11-18.68 4.67-5.8 5.26-5.89 13.94-2.64 20.45l-1.33-2.88V7.14c-.32 1-2 4.53-.09.61-.6 1.23-1.15 2.48-1.81 3.68-1.42 2.59-3.06 5.07-4.72 7.52-3.08 4.54-6.28 8.91-9.26 12.58-7.44 9.18-13.93 19-21.33 28.19-10.4 12.93-21.61 25.13-32.16 37.92-9.43 11.42-18.19 23.54-23.77 37.35 0 .08.1.14.14.06zM367.39 87c.29-12.32 7.85-23.85 14.56-33.7s14-18.9 21-28.29c8.31-11 16.2-22.31 25.77-32.34a145.7 145.7 0 0 1 15-13.77c5.78-4.57 10.92-9.86 16.56-14.59 3.53-3-.24-9.42-4.56-7.83-7.23 2.65-14.15 5.93-19.85 11.25-5.45 5.09-10.09 11.33-14.37 17.41-8.42 11.93-15.5 24.76-23 37.26-6.54 10.86-14.23 21-20.6 31.95-5.66 9.75-11.7 21-11.31 32.66a.39.39 0 0 0 .78 0zM41.08 593c0-.18.39-3.78.76-3.9s3 3.32 3.18 3.53c2.08 2.41 4.08 4.89 6.17 7.29a54.56 54.56 0 0 0 13.25 11.55 1.47 1.47 0 0 0 2.13-.87c3.79-9.76 1.47-19.79-1.21-29.52l-3.36 2c20.32 23.07 36.19 50.68 61.83 68.54 2.56 1.78 5.39-1.15 4.86-3.73-3.51-17.2-12-33-21.18-47.85-9.5-15.39-20.26-29.94-30.75-44.65-3-4.18-9.69-.51-7 4.1 16.66 28.82 37.37 58.81 64.62 78.57 2.93 2.13 7.6-.71 7.35-4.22-1-14-6.18-27-10.66-40.2l-7.58 5.83c14.35 9 21.28 26.93 38.12 32.44 4.33 1.42 7.16-2.88 6.62-6.62-3-21.14-16-40.18-27.12-57.89l-9.95 5.81c5.56 8 10.54 16.43 16.44 24.22 5.48 7.24 11.76 14.76 20.26 18.5 4.36 1.92 9.73-.26 9.75-5.6 0-10-2.44-19.59-4.51-29.31l-8.4 8.4c23.22 9.21 39.19 31.35 59.13 45.59 3.72 2.66 10.23 0 11-4.49.83-4.72 3.25-8.55 2.83-13.91l-7.46 7.46c8.94.58 18.93 7 26.25 12.75a86.48 86.48 0 0 1 12.4 11.73c1.82 2.11 3.17 4.55 5 6.65 1.38 1.6 3.11 2.9 4.37 4.61 3 4.09 10.51 3.19 10.34-2.8-.21-7.18-2.6-12.06-7.19-17.49a93.57 93.57 0 0 0-15.87-14.42c-10.16-7.56-22.47-14.69-35.28-16-3.9-.39-7.62 3.73-7.46 7.46s-1.86 6.37-2.39 9.92l11-4.49c-21.63-14.62-38.11-36.3-63.08-45.8-5.17-2-9.46 3.78-8.4 8.4 1.94 8.49 4.4 16.92 4.73 25.67l8.2-6.25c-7-2.76-12.54-10-17-15.82-5.18-6.77-9.75-14-14.78-20.87-4.29-5.86-14.11-.47-9.95 5.81 11 16.66 23.62 34.76 26.68 54.94l6.62-6.62c-7.42-2.36-12.8-8.92-17.84-14.51-5.46-6.05-10.91-12.16-17.93-16.46-3.68-2.25-9.08 1.52-7.58 5.83 4.29 12.27 9.37 24.44 10.84 37.46l7.35-4.22c-13.51-9-24.55-21.3-34.66-33.85a345.31 345.31 0 0 1-27.87-40.39l-7 4.1c10.35 14.17 20.94 28.18 30.4 43 9.33 14.58 18.24 30.19 22.17 47.2l4.86-3.73c-25.51-16.81-41.83-43.68-62.33-65.67a2 2 0 0 0-3.36 2c2.77 9 5.4 18.38 2.29 27.68l2.13-.87c-10.08-5.31-15.64-15-24.33-21.84a.54.54 0 0 0-.91.38c0 1.85.2 3.64.25 5.48 0 .08.14.11.15 0zM308.67 414.67c-7.19 7-10.55 17.14-13 26.65a150.27 150.27 0 0 0-4.39 38.21 231.12 231.12 0 0 0 4.1 41.07c2.13 11.65 6.12 23.68 13.26 33.24 5.36 7.16 11.7 12.78 20.11 16.16 4.88 2 9.74 1.81 14.82 1a19 19 0 0 0 7.06-2.1 14.35 14.35 0 0 0 4.85-4.85c.64-1.08 2.68-5.6 1-2.69a8.94 8.94 0 0 0-1.36-10.51c1.89 2.17 3.56 5.22.43-.25a13.38 13.38 0 0 0-4.94-5 32.47 32.47 0 0 0-5.55-2.11c-2.51-.9-4.92-1.9-7.5-2.58-2.09-.55-4.15-1.18-6.21-1.81-.25-.08-1.69-.45-1.75-.65s3.38 1.75 1.26.49c-1.1-.65-2.29-1.16-3.39-1.82s-2.13-1.43-3.21-2.14c-1.57-1 1.75 1.64-.65-.58a77.25 77.25 0 0 1-5.83-5.84c-.74-.85-1.47-1.7-2.15-2.6 1.07 1.41-1-1.54-1.31-2-1.59-2.41-3-4.91-4.4-7.46-11-20.71-12-47.14-9.45-70 1.2-10.68 3.69-21.74 8.91-31.24a.47.47 0 0 0-.74-.57z"/><path class="cls-1" d="M350.39 462.65c-3.53 5-3.2 13.41-3.31 19.19a295 295 0 0 0 1.63 33.57c1.15 12.07 2.35 24.16 4.37 36.13 1.56 9.27 4.28 18.17 9.8 25.87 3.11 4.34 9.88 1.8 8.71-3.67-1.71-8-3.09-16.39-5.55-24.66-3.25-10.94-6.5-21.85-9-33a301.66 301.66 0 0 1-5.75-32.38c-.67-5.9-2.56-14.76.33-20.35a.7.7 0 0 0-1.21-.71zM476.33 560.61C464.17 581.4 458 605.15 454 628.72c-4.15 24.2-5.06 48.83-9.09 73h11.33c-1.83-11.21-4.1-22.12-4.83-33.5-.75-11.68-.71-23.39-.36-35.09.7-23.26 1.75-46.64 3.14-69.86h-14.36c-2.11 38.41-.06 77-1.75 115.41l20.79-2.81c-3.74-26.57-1.49-53-2.25-79.73-.35-12.35-19-12.4-19.21 0-.43 23.44 1.14 46.7 7.85 69.27 2.87 9.65 17.16 10 19.89 0 8.83-32.3-1.83-66.46 5.73-99l-14.26 3.77c8.13 7.44 12 19.61 15.61 29.69 4.23 11.7 7.13 25.17 12.74 35.57 3 5.5 11.31 6.58 15.58 2 10.21-10.94 10.95-26.93 10.38-41.11s-3.33-28.59-2.13-42.82l-15.87 6.57c7.94 8.53 11.59 20.48 14.15 31.6 2.68 11.64 3.31 24.17.51 35.84-1.73 7.18 8.25 9.61 10.85 3 10.34-26.38 7.45-62.3-12.36-83.58-6-6.44-15.09-.88-15.87 6.57-1.34 12.85.76 26 1.31 38.79.26 6 .4 13.32-.29 18.51-.76 5.71-2.19 10-4.71 12.6l15.58 2c-5.89-11.1-10.38-22.41-14.86-34.13-4.59-12-9.71-23.69-18.55-33.18-4.55-4.89-12.39-2.12-14.26 3.77-10.09 31.76-2.72 65.7-9.15 98.08h19.89c-7.52-20-10.23-42.53-8.52-63.79h-19.24c-.95 28.19-4.4 57.44 1 85.36 2.31 11.85 20.9 8.94 20.79-2.81-.35-38.47-2.77-77-5.07-115.41-.55-9.17-14.86-9.25-14.35 0 1.31 23.74-1.69 47.84-2.11 71.6a353.25 353.25 0 0 0 .93 35.85c1 11.33 2.08 23.47 6.25 34.12 2.24 5.72 11.88 5.59 11.54-1.56-1.11-23.71.18-47.86 2.74-71.43 2.62-24.13 7.34-48.69 18.49-70.46a.78.78 0 0 0-1.35-.79zM180.43 954.26c-1 3.68 2.73 8.18 4.79 11a99.91 99.91 0 0 0 9.45 10.86 251.26 251.26 0 0 0 27.65 23.51c10 7.49 20 14.72 30.26 21.85 5 3.52 7.47 5.51 12.28 9.11.67.5 3.08 3 1 .81.64.69 1.36 1.33 2.06 2 4.91 4.36 11.37 5.69 17.18 2.19 4.26-2.56 7.51-8.75 5.6-13.76-2.42-6.36-6.72-10-13.73-10.27a13.83 13.83 0 0 0-2.13 0c-1.53.21 2.13.63-1-.14a97.74 97.74 0 0 1-13.07-3.92c-10.64-4.28-20.93-10.26-30.61-16.37a231 231 0 0 1-27.88-20.39 101.8 101.8 0 0 1-10.08-9.8c-2.11-2.41-4-7.26-6.78-8.66a3.5 3.5 0 0 0-5.07 2.06zM177 911.07c26.78 18.33 52.68 37.49 77.73 58.13 12 9.91 23.9 20.12 35.64 30.38q8.74 7.63 17.67 15c7 5.76 13.43 11.42 23 10.88 3.72-.21 8-4.06 6.25-8.21s-3.33-7.19-6.89-10-7.46-4.77-11.34-6.89q-10.27-5.61-20.37-11.54c-13.74-8-27.14-16.87-40.28-25.85-26.48-18.09-52.63-37.53-81.33-52a.08.08 0 0 0-.08.13zM102.8 955.12c15.28 20.15 35.7 35.45 56.73 49.13 11 7.15 22.17 14 33.2 21.11 5.46 3.51 10.91 7.06 16.28 10.72 4.43 3 9.93 8.37 15.38 9.11 1.94.26 3.53-1.43 2.56-3.33-2.45-4.77-9.11-7.77-13.55-10.39-5.14-3-10.34-6-15.57-8.84-11.46-6.33-23-12.51-34.22-19.23-22.23-13.31-44-28.23-60.46-48.55-.17-.2-.53.07-.37.28z"/><path class="cls-1" d="M242.73 1051.16c9.19 13.54 19.06 26.68 29 39.69 4.68 6.13 9.43 12.2 14.36 18.13 2.62 3.16 5.22 6.33 7.84 9.49s4.6 6.45 7.44 9.32 8.39 0 7.13-4.15c-5.65-18.41-18-33.75-24-51.94l-6.33 6.33c8.31 2.84 14.45 9.92 20 16.44 5.79 6.86 11.09 14.32 17.73 20.41 4.58 4.21 14.26.14 11.49-6.69-11.26-27.77-34.73-47.1-49.26-72.83l-7.84 10.2c21.13 6 33.38 26.44 52.44 35.92 6.29 3.13 13.64-2 11.89-9.14s-2.69-14.57-8.79-19.34l-4.73 11.41c2.76 0 5.24-.77 7.94-1.1 3.81-.46 6.37-5.84 2.17-8-2.26-1.17-4.63-1.92-6.74-3.35-4.81-3.26-11.54 2.15-9.82 7.55a146.44 146.44 0 0 1 4.34 17.14l11.89-9.14c-9.88-5.47-18.49-12-27.42-18.86s-18.47-13.33-29.5-16.47c-5.9-1.68-10.8 5-7.84 10.2 13.88 24.5 37.25 43.12 48 69.48l11.49-6.69c-15.11-11.8-25.21-31.55-44.67-37-3.48-1-7.8 2.57-6.33 6.33 7 17.92 19.5 33.23 25.69 51.48l7.13-4.15c-2.91-2.77-6.22-4.85-9.14-7.61s-5.84-5.7-8.61-8.71c-5.29-5.75-10.42-11.65-15.47-17.61-10.38-12.28-20.14-25.13-30.95-37-.24-.26-.69.08-.49.38zM409.65 1181.79c7.78 16 30.17 22.93 45.75 27.71 23.1 7.09 47.39 11.9 71.23 15.72 5.52.88 11 1.72 16.49 2.87 1 .21 7.44 1.44 5 .94-1.81-.37 1.79.47 2.35.6q3.1.71 6.21 1.34c7.64 1.53 15.6-2.19 17.77-10.09 2.24-8.15-2.78-15-10.09-17.77-2.17-.84-4.46-.88-6.75-1.21 2.8.4-2-.38-2-.39-2.86-.53-5.71-1.17-8.53-1.89-6.2-1.58-12.31-3.51-18.36-5.6-11.59-4-23-8.51-34.61-12.45l-7.72 28c30.48 4.28 59.91 13.78 90.6 16.89 5.51.56 11.19-4.05 13.1-8.81 2.24-5.57 1-11.19-3-15.66-14.68-16.62-36.8-22.9-54.65-35.12l-3.35 25.67c-1.65.26 3.4-.32 4-.35 2.11-.12 4.22-.16 6.32-.13a109.66 109.66 0 0 1 11.3.77c7 .83 16.07 3 23.82 5 17.24 4.34 34.36 9 52.16 10.44 5.17.4 10.38-3.68 12.2-8.21 2.09-5.2.91-10.41-2.76-14.59-8.56-9.75-20.61-15.22-29-24.19l-8.73 21.08c33.94.26 65.88 15.49 97.11 27.38 5.45 2.07 12-1.85 14-6.87a12 12 0 0 0-4.85-14.81c-13.63-8.71-30.08-15.51-40.3-28.51l-10.43 17.92c34.65 7.74 64.23 29.52 98.08 39.8 9.58 2.91 18.38-10.68 10.19-17.5-14.54-12.11-30.73-21.82-47.33-30.8s-33.28-17.77-50.09-26.28l-7 16.56a613.09 613.09 0 0 1 74.09 33.5c20.27 11 42.66 24.38 66.4 24.61 7.91.08 12-10 6.45-15.56-18.94-18.83-44.8-28.27-64-46.71L737 1169c14.79-3.27 31.66 3.42 45.06 9 8 3.36 15.82 7.22 23.55 11.16s15.51 8 24.32 9.05l-3.9-1.06 1 .5c8.93 4.29 16.79-9 7.81-13.36-3.44-1.65-6.32-4.86-9.61-6.86-3.72-2.26-8-3.9-12-5.73-9.12-4.2-18.34-8.23-27.77-11.69-16.86-6.18-35-10.7-53-7.11-6.27 1.25-7.85 9.72-3.67 13.91 18.77 18.8 44.39 28.74 62.84 47.83l6.45-15.56c-22-.66-42.59-13.84-61.48-23.78a718.16 718.16 0 0 0-74.2-33.58c-4.15-1.61-9.16 1.44-10.69 5.25-1.76 4.37-.11 8.7 3.71 11.32 29.65 20.31 64.18 32.71 91.76 56.24l10.19-17.5c-33.91-10.37-63.55-31-97.95-40.3-8.38-2.26-17.79 7.85-12.11 15.75 11.46 15.94 29.44 25 45.18 36l9.14-21.68c-16.43-6.67-33.27-12.68-50.25-17.79-17.37-5.23-35-10-53.16-11.41-4.78-.37-9.6 3.4-11.28 7.59-2 4.93-.72 9.47 2.55 13.49 8 9.8 19.27 16.14 27.62 25.62l9.44-22.79c-32.89-2.51-66.81-20.49-101.34-16.6-14.07 1.59-18.82 17.69-7.09 26.17 8.21 5.93 17.37 10.33 26.24 15.16 4.38 2.39 8.72 4.86 12.85 7.67q1.51 1 3 2.1c-1.52-1.13.49.4 1 .85a55.9 55.9 0 0 1 5.47 5.36l10.14-24.48c-27.84-2.65-55.13-11.68-82.88-16.2-7.73-1.26-15.62 2-17.85 10.14s2.74 15.16 10.14 17.85c12.07 4.39 23.91 9.37 36.07 13.53 12.62 4.33 28.53 10.35 41.95 7.88l-7.68-27.86q-2.36.61-4.73 1.16l-2.62.59-1.57.34.36-.08q2.73-.56-2.46.27c-.41.08-.82.26-1.23.35-1.62.36 2.1-.27.37-.05l-3.33.42c-2.52.31-5 .51-7.57.61q-16.82.7-33.64.22c-22-.65-45.09-3.86-65.8-11.6-8.19-3.06-17.39-7.36-22.1-15.12a1.56 1.56 0 0 0-2.7 1.58zM922.87 1107.08c9.48 22.3 31.31 33.54 47.8 49.85 4.77 4.72 12.3-3 7.31-7.31a319.52 319.52 0 0 1-35.06-35.92q-7.86-9.4-15.16-19.26c-5-6.75-10.7-13.59-14.41-21.16l-15.3 8.95c5.92 9.16 14.39 16.8 22.39 24.11 8.56 7.81 17.46 15.22 26.63 22.3a344.21 344.21 0 0 0 56.8 35.72c6.42 3.2 14.38 1.71 18.17-4.76s1.22-14.18-4.76-18.17c-21.34-14.22-38.93-33.71-56.43-52.24l-13.08 17c12.26 5.8 23.35 15.05 33.45 24 10.7 9.45 20.29 19.84 30 30.24l2.1-16.3c-8.91 6.61-20.43 11.33-27.62 20-9.53 11.46-5.71 25.23 1.22 37l10.07-13.1a193.54 193.54 0 0 1-44.1-24.13c-3.72-2.76-6.92 2.86-4.54 5.89a126.2 126.2 0 0 0 41.78 34.53c7.87 4.06 16.6-4.17 12.2-12.2-2.25-4.09-4.6-8.51-4.18-12.83-.15 1.51.23-.8.36-1.14-.47 1.21 0 0 .34-.55.59-1 .8-1.25 2.67-2.85.6-.52-.36.21.81-.62.85-.6 1.72-1.16 2.61-1.71 1.9-1.18 3.89-2.21 5.88-3.23 4.39-2.27 8.79-4.5 13-7.1 6.22-3.83 6.23-11 2.1-16.3-18.43-23.47-42.25-42.3-67.26-58.17-8.76-5.56-21.17 5.87-14.77 14.77 16.34 22.75 36.7 41.26 57.3 60l16.09-20.86c-19.79-8.7-38.41-19.73-56.27-31.86-8.64-5.86-17.05-12.05-25.16-18.63-8.49-6.88-16.5-14.85-25.67-20.83-8.46-5.52-18 7-10.74 13.92 6.11 5.86 11 13.12 16.4 19.62 5.62 6.74 11.39 13.36 17.38 19.76 11.78 12.6 24.34 24.44 38.5 34.33l4-9.45c-20.81-8-41.43-21.43-52.56-41.36-.1-.18-.35 0-.27.16zM726.68 909.54c16.81 12.52 30.22 28.91 43 45.36s26 32.85 38.52 49.55a3.63 3.63 0 0 0 6.7-1.81c1.2-11.65-4.06-23.41-9-33.64-5.5-11.32-12.24-22-18.13-33.07l-8.3 4.85c5.52 8.78 10.51 17.84 16.26 26.51 6 9.1 12.56 17.9 19.17 26.59s13.23 16.91 19.95 25.28q5 6.17 10 12.23c3.55 4.22 6.49 8.88 10 13.15 6.47 7.86 19.75 1.25 19.6-8.12-.28-17.65-11.76-34.72-21.91-48.33s-21.85-26.74-29.47-42.22l-15.19 15.19c18.2 9.25 32.77 24.37 46.66 39 14.36 15.13 28.34 30.6 44.08 44.34 4.82 4.21 11 5.79 17 3.22 5.35-2.26 10-8.11 9.58-14.25-.84-11.52-7.41-21.63-14.12-30.68-6.13-8.26-11.95-16.46-17.46-25.14l-15.82 20.67c8.48 2 16.28 7.46 23.39 13.09 4.44 3.52 8.8 7.22 13.52 10.36 3.24 2.16 6.65 4.15 10.69 4.15 2.73 0 5.52-.94 8.11-1.71a9.66 9.66 0 0 0 6.6-11.63c-.64-2.76-1-5.56-2.43-8.06-1.95-3.33-5.42-5.36-8.54-7.44-4.42-3-9-5.67-13.56-8.45-8.92-5.46-17.82-10.92-26.95-16-10.51-5.87-24.15 3.87-20.66 15.88 2.89 9.94 9.44 18.52 15.18 27 2.65 3.9 5.27 7.82 7.54 12 .48.88.95 1.76 1.39 2.66s1.24 3.06.48.93c.78 2.18 1.28 4.44 2.07 6.61l22.9-17.61c-17.7-9.81-31.63-24.61-46.93-39.22-15.69-15-32.12-28.84-51.5-38.8-10.17-5.22-20.06 5.17-15.19 15.19 7.2 14.81 18.07 27.42 27.75 40.61a166.54 166.54 0 0 1 13.34 20.5c3.56 6.75 5 13.57 6.91 21.21l19.19-11.17c-3.91-3.41-8.2-6.34-11.92-9.95q-5.31-5.16-10.51-10.43c-7.47-7.57-14.62-15.45-21.61-23.46-6.79-7.77-13.31-15.74-19.83-23.74s-13.62-16.21-19.5-24.8c-3.46-5.05-11.43-.58-8.3 4.85 5.78 10.06 12.29 19.67 17.86 29.85 5.25 9.58 11.19 20.73 10.41 32l5.41-3.1c-8.48-6.31-15.33-14.64-22.19-22.64-7-8.19-13.62-16.74-20.43-25.11-12.88-15.79-26.49-31.42-43.17-43.33-.66-.47-1.27.61-.63 1.08zM863 945.08c13.2 1 25.54 8.07 36.48 15 13 8.24 24.8 17.82 36.31 28 9.9 8.72 19.87 17.58 28.68 27.42 5.5 6.14 10.81 12.51 16.55 18.43 6.58 6.77 15.17 15.16 25.44 12 9.11-2.76 11.28-13.32 5.33-20.19-4.55-5.25-11.67-5-17.52-7.83a110.14 110.14 0 0 1-16.9-10.56c-8.47-6.13-17.28-11.68-26-17.41-19.25-12.61-38-26.56-58.86-36.56-9.21-4.38-19.18-8.38-29.51-8.46-.1 0-.1.15 0 .16zM1231 1216.93c-12.8-6.72-26.17-12.13-39.67-17.28l-.34 2.53c37.77 3.85 75.8-4.78 113.56-.94v-8.5c-20.58-.78-41.21-.77-61.8-1l-30.33-.4c-10-.13-20.51.39-30.44-1.17l-1.89 14c12.2 1.12 24.53 1.21 36.78 1.53 11.74.31 24.27-.12 35.82 2.14 10.36 2 18.09-9.81 10.45-17.94-10.26-10.91-25.82-13.73-37.36-22.72l-4.9 18.57c12-4.25 24-.6 36.39 2 14.34 3 31.91 6.25 43.5-4.89 6.6-6.35 1.85-19.42-7.79-18.8a67.2 67.2 0 0 0-11.16 1.38c-2.49.58.27.13-2.11.33a51.75 51.75 0 0 1-5.59.14c-6.33-.14-11-1-17.24-2-13.82-2.17-28.39-4.55-41.91.42-9.54 3.51-10.38 14.44-2.65 20.31 11.72 8.9 26.06 13.18 37.81 22.13l5.42-20c-12.5.86-25.17.32-37.71.85s-25.21 1.17-37.74 2.35c-10.19 1-8.41 15.58 1.89 14 9.63-1.51 19.77-1 29.5-1.16l31.27-.41c20.59-.27 41.22-.26 61.8-1 5.47-.21 5.45-8.84 0-8.5-37.87 2.35-75.61 6.17-113.56 6.86a1.3 1.3 0 0 0-.34 2.53 212.87 212.87 0 0 1 40.28 14.93c.09 0 .17-.09.08-.13zM1209 1108.92c-6.12-.9-11.53-1.7-16.93-4.92-6.92-4.13-12.31 7.86-4.33 10.28 26.86 8.17 54.66 11.87 82.63 13.55 13.92.84 27.87 1.19 41.81 1.67s28.29.33 42.28 1.84v-24.67c-24.79-2.66-50.17-.49-75.06-1s-48.14-2.35-72-8.75l-3.86 28.54c36.79-.56 73.44.23 110.22 1.48 11 .38 18.86-15.63 9.58-23.12-32.37-26.14-76.9-25.71-114.28-40.62l-3.24 23.93c36.6 0 72.18 11.82 108.48 15.32 12.33 1.19 15-19.08 2.93-21.64-26.64-5.64-52.27-14.88-78.6-21.69l-5.15 18.68c29.92 4.24 59.27 11.22 88.72 17.89l2.41-17.8c-23.64 2.57-47.62-3-70.18-9.59a505.36 505.36 0 0 1-67.82-25.57l3.39 12.93q.77-1.79 1.53-3.59a4 4 0 0 1-.95 1.33c1.35-.72 2.71-1.42 4-2.18 5.94-3.41 3.65-13.88-3.63-13.39-6.87.46-14.18.9-17.31 8.3-1.81 4.3-1.72 10.63 3.39 12.93 23.51 10.57 47.65 20 72.45 27 24 6.85 50 12.65 75.08 9.92 4.48-.49 8.33-3.07 8.9-7.86.51-4.26-2-8.93-6.49-9.94-29.39-6.65-58.69-13.89-88.38-19.09-12.09-2.12-17.32 15.1-5.15 18.68 26.09 7.67 51.39 18 77.89 24.26l2.93-21.64c-36.47-4.33-71.69-15.32-108.48-17.65-11.75-.74-17 17.56-6.15 22.7 18.1 8.55 37.66 12.76 56.89 17.9a269 269 0 0 1 27.82 8.7c1.08.42 2.17.84 3.24 1.3-1.6-.68.67.33 1.21.58 2 .93 4 1.92 6 3s3.76 2.13 5.57 3.32c.89.58 1.74 1.19 2.62 1.79 2.34 1.6-1.17-1 1.19.94l9.58-23.12c-36.65-1.71-73.53-4-110.22-3.46-16.21.25-20 24.23-3.86 28.54 25.36 6.8 51.76 8.79 77.94 9.07 25.46.27 51.55.13 76.87-2.66 6.62-.73 12.33-5.15 12.33-12.33 0-6.1-5.67-13.07-12.33-12.33-13.4 1.47-27 1.88-40.43 2.72-13.93.87-27.85 1.48-41.81 1.63-27.31.28-54.88-1.1-81.5-7.58l1.34 10.28c5.47-3 10.79-3.91 16.91-4.64.08 0 .12-.14 0-.15z"/><path class="cls-1" d="M1088.72 967.47c26.61 12.88 48.21 33.93 73.87 48.46 3.91 2.21 8.45-3.21 4.93-6.38-25.67-23.13-56.77-39-86.84-55.57-4.27-2.35-9.59 3.75-5.45 7.06 33.9 27.15 61.78 61 96 87.69 2.92 2.28 9.31 1.34 8.65-3.58-2.48-18.52-14.83-34.3-27.37-47.44-13.23-13.86-28.5-24.69-43.65-36.24-2-1.54-4.94-.2-6.17 1.62-5.83 8.63-5.08 19.51-4.28 29.4l7.5-5.71c-18.27-7.62-25.35-26.31-34.34-42.27l-5.9 7.67c5.8 1.06 11.81 4.47 14.25 10.16 3 6.94-2 13.29-8.11 16l3 5.14c6.92-4.49 13.88-9.09 20.06-14.57 2.29-2-.77-6.11-3.31-4.29-6.52 4.65-13.39 8.87-19.75 13.73-3 2.28-.1 7.44 3 5.14 6.87-5.08 12.16-11.67 10.49-20.66s-7.79-15.66-15.61-20.23a5.28 5.28 0 0 0-7.67 5.9c5.26 19.69 20.2 41 39.31 49.07 3.72 1.57 9.29-.12 8.91-5.12-.6-8-3.53-17.3.21-24.85l-6.17 1.62c14.59 9 28.25 21 40.17 33.3s22.87 26.6 25.44 43.94l7.45-5.73c-34.26-26-62-59.48-95.81-86.08l-5.45 7.06c29.55 15.92 60.33 31.14 85.63 53.55l4-6.79c-27.33-10.53-49-31.84-76.58-42-.58-.21-1 .73-.42 1zM1242.89 996.89c-6.2 5.89-13.51 10.59-21.89 12.63-7.91 1.92-15.93 1.13-23.94.33l2.5 4.35c10.48-21 37.93-22.57 58.36-19.92a67.62 67.62 0 0 1 15 3.79c2.31.85 4.6 1.76 6.88 2.69 1.73.7-1.88-.84-.28-.11l1.26.56c1.06.5 2.13 1 3.19 1.5 14.63 7.1 31.34 14.15 47.46 16.87a161.61 161.61 0 0 0 62.38-1.57c8.09-1.75 14.84-10.76 14.47-19-.36-8.09-5.78-17.51-14.47-19-14.67-2.53-29.24-2.47-44.07-2.4-6.49 0-13 0-19.45-.56-1.55-.13-3.09-.34-4.64-.46s-1.24-.14.63.11l-1.84-.27c-3.37-.54-6.74-1.12-10.1-1.77-13.61-2.63-27.19-5.25-41-6.79-9.86-1.1-21.12-2.94-30.8 0-6.86 2.09-13.73 9.3-13 17.06q.71-1.07.08.51-.24 1.28-.38 2.57a20.92 20.92 0 0 0-.15 5c.8 8 10.42 13.58 16.8 7 2.19-2.27-2.19.23.15-.45l-12.53-3.31c4.34 4.46 9.18 6.19 15.3 6.29h2.78c3.3-.09-3-.64-.74-.18s4.38.79 6.57 1.15c1.44.23 11.56 1.73 7.2 1 12.9 2.05 25.46 5.61 38.27 8.12a225.34 225.34 0 0 0 42 4.54c6.8 0 13.6-.14 20.39-.08a174.213 174.213 0 0 1 15.52.71c.76.07 6.28.79 2.52.26V980c-4.56 1.13-9.15 1.92-13.76 2.83-3.05.6 3-.26 0 0-.85.08-1.69.19-2.54.27q-3.69.36-7.39.49-5.89.21-11.78-.14c-1.78-.1-3.56-.25-5.34-.43-1-.1-2-.23-3-.33-2.85-.28 4.65.78-.24 0-4.69-.79-9.39-1.22-14.1-1.76l-3.05-.37c.71.09 3.58.51 0 0l-6.46-.94c-8.92-1.26-17.91-2.66-26.93-2.7a136.39 136.39 0 0 0-15.78.9c-6 .67-11.79.87-18.05 1.56-12.07 1.33-24 3.64-35.26 8.34s-20.89 12.57-25.4 24.29c-.69 1.79 1.06 3.65 2.79 3.66 17.94.06 34.51-4 46-18.52.12-.15-.07-.36-.22-.22zM1526.84 1040.73c-11.81 8.09-24.51 11.66-38.7 9.69l-.71 5.28c30.94.29 58.77 15.16 89.09 18.92 6.58.82 6.76-8.75 1.46-10.78-40.44-15.48-77.14-45.54-122.4-44.54-5.69.13-8.53 8.37-3 11.2 36.18 18.64 76.61 32.66 117.32 36.29 4.89.44 8.27-7.06 4.23-10.2-22.93-17.83-49.54-30.55-71.44-49.72l-5.79 10c19.65 3.2 38.44 9.94 57.2 16.38 18.22 6.25 37.42 13.52 56.95 12.58 5.14-.25 6.75-8.14 1.27-9.36-18.94-4.21-37.5-8.73-55.9-15s-37-12.94-56.35-16.11c-5.28-.86-10.73 5.62-5.79 10 21.95 19.23 48.47 31.9 71.41 49.76l4.23-10.2c-38.48-3.45-77.08-17.08-111.25-34.71l-3 11.2c43.64-.94 80.21 28.48 119.49 43.1l1.46-10.78c-29.72-3.41-58.94-14.53-89.09-13.32-3.51.14-3.4 5 0 5.37 7.44.73 15-1.86 21.85-4.42a68.26 68.26 0 0 0 17.94-10.05c.28-.22-.09-.69-.38-.49zM1723.08 1191v-2a.08.08 0 0 0-.16 0v2a.08.08 0 0 0 .16 0z"/><path class="cls-1" d="M1723.08 1191c10.78-28 23.5-55.29 39.2-80.86a309 309 0 0 1 26.51-37.24q7-8.31 14.74-15.94a77.62 77.62 0 0 1 18.14-13.07l-7.31-7.31c-3 6.18-5.19 12.57-8.59 18.6a173 173 0 0 1-11 17c-8.3 11.36-17.27 22.2-25.89 33.32-16.2 20.9-26.75 46.08-47.33 63.28l22.64 13.18c4.31-11.28 7-23.32 10.49-34.91 3.59-12.08 7.22-24.14 10.71-36.25 6.84-23.76 12.72-47.65 17.47-71.92 1.42-7.24-1.43-14.64-8.6-17.53-6.22-2.5-15.51-.77-18.55 6.08-8 18.06-14.29 36.7-20.23 55.53-2.76 8.76-5.47 17.55-8.36 26.27-1.54 4.65-3.14 9.27-4.83 13.87q-1.27 3.44-2.61 6.86-.67 1.71-1.37 3.41l-.38.91 31.93 13.46c2.66-6.68 5.13-13.44 7.83-20.11 1.31-3.22 2.62-6.44 4-9.64-.77 1.82 1.31-3 1.26-2.91q1.13-2.63 2.28-5.25c5.83-13.31 12.07-26.43 17.86-39.76l-29.63-3.87a13.23 13.23 0 0 1 .43 1.91c-.06-.77-.25-3.46-.13-1.2.09 1.67.18 3.33.17 5 0 3.3-.42 6.54-.67 9.83-.18 2.36.46-2.68 0-.3-.2 1.11-.35 2.24-.54 3.35q-.48 2.75-1.05 5.48c-.83 4-1.79 7.95-2.83 11.88a377.36 377.36 0 0 1-14.05 41.64l29.41 8.11c4.78-21 10.4-41.68 17.1-62.11 3.36-10.25 7-20.41 11-30.42 3.66-9.2 7.08-19 11.71-27.91l-19.13 2.46c-2.39-2.77 1 2.27.39.87-.72-1.74.4 1.51.4 1.49.2.71.36 1.43.51 2.15s.3 1.52.4 2.27c-.28-2 0 0 0 .39.08 2.13.25 4.25.26 6.38 0 7.91-.77 15.79-1.4 23.67-.86 10.57-1.83 21-3.15 31.54-1.76 14-3.49 28.13-3.25 42.26.23 13.5 2.57 28 15.83 34.9 10.39 5.38 20.6.13 27-8.5 5.13-7 7.7-15.39 11.11-21.93l-20.24-2.65c2.17 8.82 2.56 17.84 2 28a66.66 66.66 0 0 1-1.78 13.64c-.55 2.37-1.3 4.64-2.08 6.94-.7 2.06.26-.37-.28.71s-1.1 2.08-1.73 3.08l21.69 2.83c-12.7-58-6.49-117.86-12.5-176.54-.6-5.85-4.58-10.89-10.89-10.89a11 11 0 0 0-10.89 10.89c-.38 24.82-3.45 49.53-6.65 74.12h22.06c3.57-34.15 14.29-66.93 23.68-99.78 3.77-13.18-16.58-18.74-20.49-5.65-10.35 34.65-22.21 69.17-25.25 105.43-.5 5.94 5.43 11 11 11 6.54 0 10.33-5.09 11-11 2.9-24.65 5.23-49.32 6.38-74.12h-21.78c4.36 61-1.58 122.63 11.4 182.85 2.25 10.45 16.51 11 21.69 2.83 6.46-10.16 8-23.19 8.37-35s-.53-24-3.66-35.33c-2.39-8.66-16-11.46-20.24-2.65-2.94 6.05-5.89 12.18-9.75 17.72-.23.33-1.44 1.71-.16.24-.44.5-1 1-1.38 1.51-.25.32-1.71 1.9.28 0a5.47 5.47 0 0 1-1.48.88 16.13 16.13 0 0 1 3-.87c.11 0 3.19.22.8.09 1.55.08.82 1.41.3 0 .5 1.35.06-.22-.8-.92-1.39-1.12 1.55 2.67 0-.22-1.22-2.2.52 2.49-.06-.23-.24-1.14-.63-2.25-.87-3.4-.11-.55-.18-1.12-.3-1.67-.49-2.26.13 1.65 0 .06a148.85 148.85 0 0 1-.29-17.54c1-22.71 4.42-45.44 6.62-68.06 1.58-16.33 3.75-35.65-7.59-49.11-5-5.92-15.65-4-19.13 2.46-5 9.43-10.42 18.35-14.74 28.19q-7.21 16.44-13.38 33.32c-7.58 20.73-14 41.89-20 63.12a15.24 15.24 0 0 0 8.83 18c6.44 2.59 15.86.77 19-6.24a310.79 310.79 0 0 0 17.08-47.13c4.53-16.65 7.43-33.64 5-50.83-.89-6.2-7.88-10.86-13.48-11.61-6.22-.84-13 2-16.15 7.74a617.79 617.79 0 0 0-38.9 84.75c-3.13 8.6 3.51 19.51 12.2 21.49 10 2.28 18-3.05 21.49-12.2 13.66-35.48 19.36-73.39 33-108.86l-28.65-7.9c-3.5 24.42-9.9 48.45-16.48 72.19-3.28 11.83-6.69 23.62-10.07 35.42s-7.61 23.95-9.59 36.16c-1 6 .65 12 6.22 15.3 4.77 2.79 12.74 2.52 16.41-2.12 17.57-22.16 27.17-49.56 43.09-72.9 8.16-12 16.87-23.6 24.29-36.07 7-11.69 15.16-25.8 16.28-39.65.36-4.51-6.17-7.19-9.12-3.78-5 5.76-9.71 11.55-14.95 17.09s-10.35 11.61-15.13 17.74a319.65 319.65 0 0 0-25.05 37.57c-15.11 26.35-27.13 54.4-37.13 83 0 .1.12.13.15 0zM1738.75 1006.1c-1.44.23-3.06.89-4.5.2l.48 1.84c12.81-20.52 30.65-37.31 48.23-53.74 8.73-8.16 17.76-16 26.82-23.83 9.84-8.46 21-16.05 28.67-26.55 3.24-4.41 2.26-10.69 0-15.19a13.12 13.12 0 0 0-5.4-5.4c-4.49-2.46-10.75-3-15.19 0-10.65 7.32-18.7 18.39-27 28.17-8.56 10-16.78 20.32-24.55 31-14.42 19.77-25.44 41.61-34 64.52a1.36 1.36 0 0 0 .94 1.66c2.49.66 3.6-.13 6-.86a.94.94 0 0 0-.5-1.81z"/><path class="cls-1" d="M1744 976c14.5-16.63 26.47-35.29 38.69-53.6 6.06-9.08 12.13-18.17 18.55-27 6-8.29 15.34-17.85 16.39-28.44.29-3-3.24-5.42-5.93-4.52-9.89 3.29-16.3 15.21-21.07 23.79-5.43 9.78-10.43 19.8-15.4 29.82-10 20.12-20.25 40-33.57 58.16-1 1.35 1.23 3.07 2.33 1.8zM1818.17 1002c17.48 2.68 31.55-18.12 39.91-30.42a280.93 280.93 0 0 0 32.59-65.73 117.2 117.2 0 0 0 6.23-26.86c.38-3.74-5.77-5.49-7.28-2-7 16.27-13.68 32.64-20.57 49-8.47 20-16.87 41.64-31 58.52-4.64 5.56-11.2 12.19-19.09 11.38-3.47-.36-4.32 5.6-.83 6.14zM1650.6 597.24c3.58 7.37 9.07 14.21 13.55 21.08 5.13 7.87 10.18 15.78 15.24 23.69 4.7 7.35 9.29 14.78 14 22.15 4.56 7.19 8.73 15.13 16.16 19.68a10.8 10.8 0 0 0 12.88-1.66c3.53-3.53 3.69-8.56 1.66-12.88-3.33-7.08-10.35-12.12-15.91-17.43q-9.84-9.39-19.38-19.06c-6.44-6.52-12.88-13-19.38-19.49-5.68-5.64-11.45-12.28-18.14-16.72-.42-.28-.83.25-.64.64zM1690.49 589.88c18.61 12.16 26.82 34.06 34.59 53.85 3.74 9.53 7.43 19.18 12.35 28.19 3.89 7.13 10.65 17.95 19.39 19.6 4.06.77 8.62-3.56 5.86-7.63-2.46-3.62-6.29-6.48-9.25-9.72A87.88 87.88 0 0 1 1745 663c-5.7-8.72-10.39-18.06-15.3-27.23-9.49-17.75-20-37.46-38.14-47.63a1 1 0 0 0-1 1.75zM1739.18 594.06c16.26 21.75 27 46 36.54 71.21 4.62 12.18 9 24.45 13.7 36.59 2.56 6.61 5.24 13.34 8.39 19.69a66.28 66.28 0 0 0 5 8.77c2.52 3.56 4.42 5.35 8.36 7.15s10.22.75 11-4.48c.6-4 1.06-6.69-.34-10.69a100.51 100.51 0 0 0-4.5-10.23c-2.92-6.1-6.3-12.05-9.62-17.94-6.71-11.91-13.38-23.86-20.27-35.67-13.5-23.12-28-46.25-45-67-1.5-1.83-4.75.63-3.31 2.56zM1809.78 682.22c10.76 11.13 18.76 25.8 26.5 39.07 4.23 7.25 8.34 14.6 12 22.13 1.33 2.71 2.42 5.52 3.71 8.24.41.86 1.08 2 1.4 2.67 0 .09 1 2.46.63 1.48a3.09 3.09 0 0 0 5.57.73c2.71-4.05-1.25-10.46-3.17-14-4.28-7.85-9.17-15.38-14.13-22.81-5.43-8.14-11.06-16.17-16.9-24-4.09-5.5-8.22-11.22-13.22-15.95a1.72 1.72 0 0 0-2.43 2.43z"/><path class="cls-1" d="M1799.72 631.35c4.35 23.13 15.38 44.13 26 64.87 5.4 10.54 10.85 21.11 15.24 32.13q3.14 7.89 5.76 16c1.83 5.63 2.67 12.24 6.22 17.06 2.32 3.15 7.35 3 8.57-1.12 1.66-5.65-.14-11.63-1.78-17.14a119.79 119.79 0 0 0-6.51-16.57c-5.11-10.88-11.5-21.17-17.85-31.36-12.81-20.52-26.49-41-33.1-64.54a1.33 1.33 0 0 0-2.56.71zM1747.36 661c-.42 9.72 4.28 19.33 8.7 27.71 5.72 10.84 12.58 21 19.33 31.26a340.38 340.38 0 0 1 17.91 30.79c4 7.67 7.95 15.36 12.15 22.91 3.94 7.1 8.15 15 15.12 19.5 3.67 2.38 8.09-1.54 7.12-5.47-1.87-7.54-7.17-14-11.43-20.35-4.47-6.67-8.75-13.46-13-20.25-6.39-10.12-13-19.79-20.26-29.3s-14.39-18.87-20.76-28.85c-5.24-8.22-11.34-17.88-11.54-28a1.64 1.64 0 0 0-3.28 0z"/><path class="cls-1" d="M1756 736c14.81 15.76 26.22 34.59 40.55 50.82 7.49 8.48 15.59 16.84 25.14 23 7.2 4.66 15.4 8 23.95 5.22 2.74-.89 1.57-4.63-1.16-4.22-8.26 1.24-16.86-3.32-23.39-7.87-9.2-6.41-17.12-14.68-24.58-23-13.3-14.85-24.4-31.89-38.41-46.07-1.35-1.36-3.41.71-2.1 2.1z"/><path class="cls-1" d="M1674 704c21.11 18.1 45 32.4 68.43 47.29 10.34 6.58 20 14.11 30.3 20.74 9.83 6.33 20.3 11.81 32.27 11.71 3.56 0 3.47-5.19 0-5.47-11.49-.94-22.42-7.09-32-13.13-9.93-6.27-19.47-13.06-29.55-19.09-23-13.78-46.57-27.06-67.47-44-1.38-1.12-3.38.8-2 2z"/><path class="cls-1" d="M1618.21 666.35c18.66 12.9 36.61 26.81 55.8 38.94 18.54 11.72 38.49 22.46 60.45 25.67 2.53.37 3.68-3.45 1.08-3.92-43.81-7.9-79.85-39.29-115.75-63.39-1.68-1.13-3.22 1.56-1.58 2.7zM1707.67 598.33c13.26 14.28 30.93 24 48.26 32.5 2.41 1.18 4.51-2.27 2.13-3.64-16.78-9.69-34.14-17.18-47.74-31.5-1.67-1.76-4.29.89-2.65 2.65zM1231.78 228.22c29.66 29.76 59.89 58.85 88.32 89.81 14.21 15.48 27.9 31.37 40.77 48 12.14 15.68 23.91 31.81 33.24 49.34 4.87 9.15 9.38 18.68 15.65 27 3.94 5.21 7.83 9.74 14 12.41.48.21 5.4 2.27 1.5.62a17.35 17.35 0 0 0 4.58 1.51c3.86.52 6.49-.75 9.44-3.08 4.82-3.8 3.56-11.48 0-15.47a11.38 11.38 0 0 0-9.35-3.39 9.13 9.13 0 0 0-3.68 1.41q-1.21.84-2.35 1.8-3.29 4.24-.15.23l17.18 13.25c4.6-10.89-2.81-19.14-9.72-26.8a233.46 233.46 0 0 1-15.72-20.09c-11.9-16.39-25.63-31.44-39.59-46.1-28.5-29.91-59.4-57.3-90-85-17.4-15.76-34.67-31.65-51.68-47.84a1.72 1.72 0 0 0-2.43 2.43zM1291.5 242.5a42.51 42.51 0 0 0-5.15-4.2c-1.54-1-3.39 1.34-2 2.58 26.13 23.18 48.18 50.56 68.81 78.63 10.09 13.73 20.09 27.52 30.52 41 5.15 6.66 10.36 13.28 15.75 19.75 5.73 6.89 11.69 14.36 19.66 18.75 4.6 2.54 9.77.15 11.42-4.64a8.74 8.74 0 0 0-.06-6.37c-.68-1.61-2-2.33-2.86-3.68a5.38 5.38 0 0 0-9.71 1.27 8.78 8.78 0 0 0-.55 2.69q-.5 4.19 3.62-3.47l8.78 3.57c-4.64-7.79-11.88-13.83-18.28-20.13q-8.94-8.81-17.46-18c-11.56-12.49-22.71-25.34-34-38.09-23-26-46-52-73.34-73.55l-1.6 2.74a33.34 33.34 0 0 1 5.56 2.31c.68.33 1.48-.53.85-1.1zM1310.5 235.5c20.18 19.21 44.11 33.86 64.61 52.7 18.91 17.38 32 41.15 53.26 55.88 1.16.8 2.6-1 1.51-2-19.91-16.84-34.14-39.06-53.61-56.33-20.63-18.3-44.51-32.53-64.78-51.29-.66-.61-1.65.37-1 1zM1366.77 245.83c25.92 10.49 47.1 29 66.95 48.27 19 18.43 37.22 39.16 60.1 52.92 2.66 1.6 4.69-2.27 2.37-4-22.22-17-42.28-36.1-63-54.84-19.71-17.83-40.81-34.59-66-44-1-.39-1.46 1.25-.46 1.66z"/><path class="cls-1" d="M1394.61 255.67c17.95 13 35.08 27.07 52.71 40.48 19.28 14.67 38.94 29.69 60.74 40.46 2.14 1.06 4-2.05 1.89-3.24-40.75-22.72-76.3-52.65-114.55-79.06-.83-.58-1.59.77-.79 1.35zM1394.19 241.47c.5.78 2.06 1 2.85 1.31 2.7 1 5.41 1.88 8.12 2.81q14.24 4.87 28.49 9.7c24.16 8.25 48.32 16.51 72.24 25.43 8.71 3.25 17.62 6.23 26.16 9.89 2.16.92 4-2 1.89-3.24-6.4-3.82-13.59-6.43-20.57-8.94-11.12-4-22.37-7.69-33.61-11.36-22.7-7.43-45.5-14.56-68.28-21.72a2105 2105 0 0 1-11.26-3.56c-1.16-.37-2.31-.76-3.46-1.13-.67-.21-1.42-.83-1-.13-.67-1-2.28-.08-1.62.95z"/><path class="cls-1" d="M1321.25 224.1c-2.73-.79-4.82-.45-5.59 2.52a1.08 1.08 0 0 0 .74 1.29c54.46 20.71 114.32 4.42 170.25.56 16.06-1.11 32.26-1.44 48.36-1.57 4.25 0 5.5-6.85 1-7.67-27.76-5.12-56.24.31-83.75 4.8-29 4.75-58.4 10-87.94 9.48a157.08 157.08 0 0 1-47.39-7.63l.74 1.29 3.07-1.27a.94.94 0 0 0 .5-1.81zM1188.65 189.61c9.83 4.46 20.36-1.15 28.28-7 11.81-8.72 21.63-20 30.75-31.44 7.54-9.45 14.47-19.33 21.72-29 14.59-19.44 29.09-39 42.89-59q12-17.39 23.31-35.23c3.74-5.9 7.25-11.94 11.06-17.79 4.19-6.43 10.43-13.38 12-21 2.42-11.72-6.22-22.84-18.62-21.18-11.08 1.49-19.36 15.12-12.4 25.23l.89 1.29-1.53-5.6a13 13 0 0 1 .15 2.11c.23 7.87 8.08 11.72 14.81 8.5a12.5 12.5 0 0 0 1.84-1h-11.27l1.2.8-3.43-26.65c-5.08 5.71-6.9 12.5-9.7 19.43-2.13 5.26-4.37 9.75-7.08 15.21q-7.87 15.89-16.31 31.49c-11.2 20.78-22.93 41.25-34.63 61.74-13.3 23.29-24.52 48.38-41.59 69.27-7.24 8.86-18.84 22.05-31.8 18.49-.74-.2-1.29.95-.54 1.29zM1269.72 217.72c19-16.34 34.41-36.54 48-57.49 14.67-22.62 27.51-46.4 39.51-70.52 5.95-12 13.69-25.27 15.14-38.71.31-2.86-3.91-4.48-5.73-2.38-4.88 5.63-7.83 12.59-10.84 19.36-3.3 7.42-6.42 14.92-9.64 22.38-6.73 15.6-13.82 31-21.58 46.16-14.81 28.83-32.54 57.4-56.28 79.76-1 .91.46 2.28 1.44 1.44zM1340.44 198.44c35-33.18 37.46-84.64 51-128.11 1.9-6.09 3.92-12.17 6.29-18.1 2-5 6.66-11.73 6.25-17.23a3 3 0 0 0-4.47-2.56c-4.35 1.93-6.8 7.92-8.79 12a121 121 0 0 0-6.27 15.69c-3.54 10.79-5.78 22.05-8 33.18-4.57 22.94-8.23 46.42-17.1 68.21a105.11 105.11 0 0 1-21.78 34.09 2 2 0 0 0 2.87 2.87zM1392.66 208.66c19.88-20.44 31.54-47.94 40.53-74.57 4.83-14.31 9.1-28.87 13-43.47 3.64-13.7 7.12-27.5 8.58-41.62.38-3.71-5.36-5.09-7-1.89-6.24 12.28-9.31 25.66-12.39 39-3.28 14.26-6.09 28.6-9.81 42.76-7.18 27.37-16.63 55.32-36.22 76.45-2 2.21 1.2 5.49 3.31 3.31z"/><path class="cls-1" d="M1301.7 211c.81-33 10.82-65 22-95.75S1349 54.14 1356.44 22c2.2-9.46 4.07-19 6.35-28.44 1-4.05 2-8.15 2.59-12.27a34.19 34.19 0 0 0 .54-5c0-.86-.42-5.16-.25-2.78l-1.85 4.49-9.82-1.36a8.88 8.88 0 0 1 .58 1.56c1 2.83 5.28 4.92 7.57 2a23.74 23.74 0 0 0 2.65-3.56 6.36 6.36 0 0 0-3.74-9.19c-6.31-2-9.54 5.72-11.35 10.07a75.75 75.75 0 0 0-3.25 10.61c-1 5-1.73 10.15-2.31 15.23-2 17.45-4.22 34.54-8.56 51.6-8.6 33.78-20.46 66.69-28.39 100.64-4.25 18.17-7.13 36.7-7 55.4a.7.7 0 0 0 1.41 0zM1292.17 67c.12-25.34 14.16-48.17 27.41-68.82 13.08-20.38 29.21-40.86 35.45-64.62.7-2.67-3.12-3.62-4.07-1.12-9.18 24.29-23.96 45.63-37.23 67.75-12.16 20.22-24.3 42.55-23.9 66.81a1.17 1.17 0 0 0 2.34 0zM783.07 91A86.2 86.2 0 0 1 777 79c-.9-2-1.78-4.08-2.79-6.07-.68-1.35-3.25-4.61-2.69-6.23 1.33-3.85-6.41-3.78-4.28.56 5.3 10.83 10.79 21.53 15.11 32.81 4.53 11.82 8.29 23.92 11.79 36.08 3.34 11.62 6.48 23.29 9.6 35 2.81 10.52 5 28.21 17.14 31.67a8.27 8.27 0 0 0 9.12-3.72c3.68-6.41 1.38-12.69-1.12-19-2.08-5.24-4.38-10.38-6.55-15.58-4.95-11.89-9.66-23.87-14.71-35.71s-10.39-23.56-16.51-34.88c-5.67-10.48-11.77-21-20.23-29.47l-1.66 4c2.85-.19 6.42 9.45 7.51 11.67a80 80 0 0 0 6.2 10.87c.06.08.19 0 .13-.08zM407.66 283.66C437 257 463.87 227.62 490 197.81c9.72-11.1 19.15-22.42 29.13-33.28 8.7-9.46 17.53-19.14 24.31-30.11 6.19-10 12.36-23.35 4.06-33.91-2.43-3.1-6.35.43-5.88 3.42 1.4 8.87-5.06 19.55-9.52 26.66a282.4 282.4 0 0 1-21.22 28.64c-20.87 25.44-40 52.21-61.55 77.11-13.74 15.87-28 31.3-43 46-.87.85.44 2.13 1.33 1.33zM1837.45 1139.12c4.6-31.22-1.59-63.05-.87-94.42.37-16.21 2-32.25 7.19-47.69 2.44-7.33 5.66-14.43 7.81-21.85 2.47-8.51.66-15.23-4.66-22.09-2.37-3.06-6.91-1.45-8.71 1.12-2.22 3.18-4.84 6.48-5.87 10.26s-1 7.67-1.37 11.43c-.78 7.19-2.27 14.26-3.25 21.42-2.15 15.65-1.89 31.69-.52 47.4 1.34 15.43 3.44 30.74 5.41 46.09 2.06 16 3.19 32 3.92 48.2 0 .5.84.67.92.12zM1779 1233.08c8.22-1.84 16.39-6.88 23.95-10.53 8.13-3.92 16.13-8.09 24.12-12.28 16.3-8.57 32.45-17.41 48.77-25.93 8-4.2 16.1-8.35 24.29-12.23q5.94-2.82 11.93-5.53 3-1.35 6-2.67c.32-.14 3.22-1.29.83-.36.5-.19 1-.4 1.5-.58 10.72-3.79 21.58-7.08 32-11.78 6.66-3 13.52-6.67 17.64-12.95 3.8-5.8 3.26-12.65.78-18.83-1.91-4.77-8-6-11-1.44-.63 1-.85.56.6-.3-.11.06-.75.59-.86.54s-3.61 1.68-.56.4a41.27 41.27 0 0 0-4.29 1.68c-1.24.69-5.18 4.09-3 2.34-1.5 1.23-3 2.39-4.49 3.66-.43.37-3 2.53-1.31 1.2a70.67 70.67 0 0 1-6.74 4.5c-8.65 5.18-18 8.92-26.86 13.71-14.33 7.75-27.94 17.22-41.48 26.23-14.57 9.7-29 19.69-43.46 29.48-8.25 5.57-16.58 11-24.93 16.47-7.58 4.93-16.68 9.11-23.44 15.07-.06.05 0 .15.08.13zM1928.25 1083c-.24-3.43 2.29-7.65 3.77-10.57 2.58-5.12 5.54-10.06 8.59-14.92 6.37-10.15 12.95-20.36 20.41-29.74 9.51-12 19.89-23.2 29.3-35.25 8.93-11.44 19.8-24.3 20.31-39.52.21-6.16-7.39-6.87-10.48-2.84-4.72 6.15-8.18 13.6-11.69 20.5a209.36 209.36 0 0 1-11.62 19.77c-8.48 12.94-17.61 25.44-25.87 38.53-6.22 9.86-11.86 20.18-17.21 30.53a138.6 138.6 0 0 0-6.6 14.27c-1.1 2.89-2.6 6.48-1.37 9.57.47 1.2 2.56 1.2 2.46-.33zM1946.43 1010.61c-4.61-26.78 4.87-54.45 10.85-80.26a298.85 298.85 0 0 0 6.2-40.79c.76-8.4 1.07-16.77 1.1-25.21 0-7.9.23-16.71-2.65-24.15a3.08 3.08 0 0 0-5.88 0c-3 7.68-3 16.95-3.3 25.12-.33 8.74-.63 17.43-.7 26.18a287.66 287.66 0 0 1-3.18 41.41c-3.85 25.42-11 52.85-5.31 78.49.42 1.89 3.18 1.06 2.86-.79z"/><path class="cls-1" d="M1948.88 897c2.16-26.91 9.74-52.89 16.55-78.9 3.29-12.58 6.39-25.23 8.55-38.06 2-12.12 4.77-27-.34-38.59-1.16-2.64-4.77-1.45-5.57.73-2.16 5.9-2.25 12.54-2.77 18.77-.54 6.49-1 13-1.73 19.47-1.56 13.4-4.16 26.67-6.85 39.88-5.16 25.37-10.88 50.71-11.58 76.69-.07 2.44 3.56 2.38 3.75 0zM1941 811.56c7.43-24.56 16.37-48.62 24.86-72.82 4.13-11.77 8.2-23.58 11.79-35.53 1.89-6.29 3.33-12.75 4.71-19.17 1.25-5.79 2.36-11.91 1.32-17.79-.45-2.53-3.94-2.55-5.14-.67-3.18 5-4.53 11.06-6 16.74-1.55 6.07-3.34 12.08-4.86 18.15-3.1 12.39-6.51 24.7-10.09 37-7.08 24.28-14.63 48.44-20.68 73a2.11 2.11 0 0 0 4.07 1.12zM1918.28 723.75c16.79-28.9 24.33-61.81 31.52-94.12 3.62-16.24 7.11-32.53 11.63-48.54 2.26-8 4.63-16 7.29-23.86 1.3-3.85 2.76-7.63 4-11.48 1.15-3.45 3.18-7 2.88-10.74-.15-1.89-2.18-3.46-4-2.29-5.73 3.67-8.62 13-11 19.12a190.57 190.57 0 0 0-7.47 23.71c-3.95 16.18-6.77 32.6-9.65 49-5.86 33.34-11.89 67.47-27.85 97.72a1.49 1.49 0 0 0 2.56 1.5z"/><path class="cls-1" d="M1946.14 577c16.32-8.05 25.55-27.62 32.25-43.49a292.49 292.49 0 0 0 18.84-66.93c1.55-9.59 3.1-19.81 2.11-29.53-.24-2.39-4.16-3.45-4.6-.62-6.15 39.26-11.48 81.28-31.94 116.2-4.69 8-10.55 16-18.94 20.47-2.59 1.37-.31 5.19 2.29 3.91zM1959.56 499.71c9.7-31.15 20.29-62 30.1-93.11 8.41-26.69 17.6-53.58 24.13-80.81a158.75 158.75 0 0 0 3.46-21.56c.64-6.56 1.27-13.8-.85-20.16-1-3-6.13-3.66-6.78 0-1.32 7.47-1.26 15.12-2.6 22.62-1.5 8.39-3.6 16.71-5.72 25-4.07 15.79-9.23 31.27-13.19 47.09-10.05 40.18-22.4 79.71-33.66 119.56-.93 3.3 4.11 4.67 5.12 1.41zM1895.91 222.55c4.6-2.94 7.91-8.15 11.07-12.48 4.27-5.85 8.28-11.89 12.48-17.79 13.32-18.7 26.82-37.29 39.42-56.48 15.6-23.8 30.72-47.8 46.19-71.7 6.39-9.86 18.32-23 15-35.62s-18.74-14.6-26.71-5.37c-4 4.59-6.27 9.64-8.89 15-10.93 22.46-22.34 44.64-32.94 67.26-10.86 23.17-22 46.24-33 69.31-4.18 8.72-8.21 17.53-12.72 26.08-3.24 6.14-6.58 14.42-12.08 18.94-1.58 1.3.47 3.91 2.18 2.82zM1823.75 155.21c11.51-30.17 36.52-52.87 60.11-73.78 11.73-10.4 23.93-20.27 35.4-31s21.1-22.37 31.11-34.16c6.08-7.16 12.32-14.22 18.78-21 5.46-5.76 13.31-11.58 16.14-19.1 1.12-3-1.7-5.35-4.29-5.64-7.69-.84-15.22 5.86-20.57 10.68-6.47 5.83-11.71 12.9-16.78 19.93-9.34 12.94-17.81 26.47-28.23 38.6-21.47 25-46.45 46.64-67.46 72-10.7 12.93-20.19 27-25.71 43-.33 1 1.15 1.34 1.51.42zM813.35 580.39c-2.54-1.68-5.63-2.14-7-5.3L804 577c19.09 9.67 33.92 25.29 47.69 41.32 6.82 7.95 13.41 16.09 20.18 24.08s14.32 15.7 21.33 23.68c6.81 7.76 20.34-2.49 14.42-11.13-5.34-7.8-13.08-14.21-19.93-20.69-6.69-6.33-13.59-12.34-20.61-18.26-14.5-12.22-29.39-23.95-44.5-35.4-9.64-7.31-22 6.67-16.11 16.11 18.51 29.75 46.59 52.47 71.67 76.43a12.7 12.7 0 0 0 16.62 1c4.57-3.64 7-11.1 3.26-16.33-15.67-22.17-36.44-40.17-55.67-59.11L831.68 617c9.78 3 17.93 9.75 25.65 16.23 9.05 7.59 17.93 15.54 28 21.77 7.49 4.63 19.8-3.27 16.07-12.35-4.84-11.79-12.6-21.5-21.08-30.9-7.22-8-15.15-16.09-18.51-26.59l-8.69 11.4c15.55.51 30.8 11.5 43.14 20.13 14.17 9.91 27.59 20.65 42.78 29 9 5 15.82-7.64 7.89-13.49-14.78-10.9-28.49-23-43.83-33.18-15.13-10-31.56-19-50-20.49-5.94-.47-10.11 6.12-8.69 11.4 3.25 12 10.54 21.87 18.3 31.39 6.85 8.4 14.37 16.61 17.57 27.12l16.07-12.35c-20.4-12.39-35.64-32.53-58.87-40.26-10.73-3.57-18 10.79-10.67 18.33 17.42 18 36.47 34.64 49.32 56.38L896 655.25c-22.46-24-50.85-42.67-69.24-70.42l-16.11 16.11c14.3 10.33 28.38 20.94 42.11 32 6.9 5.58 13.76 11.22 20.61 16.87 7.05 5.81 13.81 12.91 21.61 17.67l9.27-15.86c-19.25-8.79-33.86-27-48.63-41.58s-30.74-28.54-50.43-36.13c-1.44-.55-2.52 1.28-1.88 2.45 2.29 4.21 5.35 3.8 9.46 5.3.78.29 1.18-.87.54-1.29zM888.76 849.4c1.41.84 2.54 2.86 3.53 4.13 2.2 2.81 4.51 5.53 6.78 8.28 5.38 6.52 10.68 13.09 16.11 19.56 7.16 8.52 14.66 16.76 22 25.15 9.33 10.68 18.48 21.68 28.57 31.66 4 4 11.68-1.4 8.1-6.25-8.56-11.57-19.87-20.79-28.41-32.35-2.1-2.84-6.79-.33-4.86 2.84 7.4 12.13 18 22 24.36 34.72l8.1-6.25c-18.33-18.12-37.44-35.49-55.41-54-6-6.21-12-12.53-18-18.77-2.82-2.93-6.56-8.08-10.53-9.59-.51-.19-.8.59-.36.86z"/><path class="cls-1" d="M860.39 777.35c12.52 21.34 28 40.71 42 61.06a295.65 295.65 0 0 1 19.13 31.19c6 11.48 10.2 23.45 13.78 35.85.62 2.16 3.7 1.23 3.31-.91-4.35-24.24-18.88-46.48-32.9-66.22-14.64-20.61-30.93-40.08-44.15-61.68a.7.7 0 0 0-1.21.71zM827.64 864.63c-6.4 19 8.21 39 19.92 52.51 16.79 19.37 37.64 35.79 59.52 49 9 5.46 18.92 10.83 29.39 12.72a2 2 0 0 0 1-3.77c-18.65-7.18-36.33-18.29-52.37-30-18.74-13.73-38-30.2-49.51-50.73-4.9-8.74-8.4-19-5.28-29 .54-1.74-2.14-2.45-2.71-.75z"/><path class="cls-1" d="M854.92 801c-2.14 18.83.72 38 4.66 56.41 2.05 9.61 4.53 19.12 7.21 28.57s6 19 7.21 28.73l8.59-2.33c-23.22-46.86-49.24-94.74-86.41-132.17-5.73-5.77-15.38 1.61-11.26 8.69 11.36 19.51 20.75 40.14 31.79 59.84 5.56 9.93 11.72 19.41 17.87 29s12.77 19.2 21.13 26.85c4.77 4.36 11.93 5.16 17.12 1 5.43-4.32 6.1-10.71 3.36-16.82-20.62-46-58.41-79.31-82.87-122.47l-22.77 17.57c19.31 15.5 33.58 36.37 49.17 55.36 16.13 19.64 34.4 40.5 59.08 49.15 10.54 3.7 21.06-5.92 21.22-16.16.2-12.36-5.32-24.26-12-34.36-7.33-11-16.07-21.15-25-30.93-19.16-21.09-37.36-43-55.44-65L793 767c-2.4-1 .53.3 1 .51 1.06.52 2.09 1.09 3.12 1.67q3.07 1.76 6 3.74c1.18.8 2.33 1.63 3.49 2.45.54.38 1.71 1.29.53.36 1.89 1.49 3.69 3.1 5.46 4.72a227.57 227.57 0 0 1 20.82 22c6.38 7.62 12.71 15.29 19.25 22.77 7 8.06 14.51 16.41 24.25 21.12 7.57 3.66 17.75 2.32 22-5.78 4.38-8.3 1.57-16.79-5.78-22-4.75-3.39-9.84-4.42-15.47-5.25-7.33-1.08-14.6 4.29-12.4 12.4 1.44 5.29 2.53 10.36 5.84 14.87L896.4 821a76.07 76.07 0 0 0-7.39-6.64c-1.14-.85-2.31-1.65-3.46-2.49-.32-.23-3.37-2.6-1.74-1.3s-1.42-1.18-1.72-1.42q-1.41-1.16-2.79-2.35-3.07-2.63-6-5.37c-7.48-6.88-14.32-14.43-21.38-21.73-14.51-15-28.89-29.89-47.32-40.15-12.58-7-29 7.49-20.53 20.53 9.06 13.95 20.46 26.49 31.09 39.24 7.46 8.95 14.76 18 22.5 26.68 3.8 4.28 7.57 8.57 11.22 13q1.31 1.58 2.6 3.18c.67.83 2.57 3.29.87 1.06 1.91 2.5 3.75 5.05 5.48 7.68 1.43 2.16 2.8 4.37 4.07 6.63.61 1.09 1.2 2.18 1.76 3.3.46.9 2.32 5.86.79 1.49a56.13 56.13 0 0 1 2 6.31c.82 3.68.77.25.05-.37.47.41.07 3.29 0 3.9L887.71 856c-.45-.18-5-1.74-2.57-1s-2-1-2.52-1.2a85.137 85.137 0 0 1-6.6-3.67c-2.56-1.58-5-3.31-7.45-5.07-2.74-2 1.95 1.67-.92-.74-1-.86-2.07-1.71-3.09-2.59-9.24-7.95-17.35-17-25.23-26.27-15.26-18-29.54-37.61-48.29-52.19-5.71-4.44-12.92-6-19-1.13a14.53 14.53 0 0 0-3.73 18.7c25.34 43.1 63.48 76 85.38 121l20.48-15.8c-7.93-6.8-15.7-13.64-22.67-21.45-7.29-8.18-13.3-17.69-19.24-26.87-12-18.51-23-37.59-34.95-56.12L786 790.36c18.83 17.73 34.64 38.44 49.06 59.83A644 644 0 0 1 874.63 917c2.68 5.26 10.95.52 8-4.65-9.42-16.32-14.51-36-19.29-54.14a236.78 236.78 0 0 1-8.26-57.21.08.08 0 0 0-.16 0zM232.88 642.55c-2.61.36-4.87 1.45-7.56 1.3a1.58 1.58 0 0 0-1.35 2.36c10.65 18.1 24.45 36.6 41.53 49.06 2.66 1.94 5.64-1.74 4.26-4.26-12.4-22.67-27-46.26-47.59-62.45-3.21-2.53-8.71.66-6.13 4.73 12.22 19.34 26.22 37.4 38.8 56.5 6.56 10 12.46 20.21 18 30.73 5.1 9.62 10.75 19.24 14.6 29.45 1.35 3.59 7.51 3.47 7.21-1a86.85 86.85 0 0 0-8.3-32.75C281 705.39 274.1 695.31 267 685.53c-14-19.33-29.79-37.22-44.25-56.18l-5.34 5.34c20.07 15.43 33.73 38.3 46.95 59.46l4.26-4.26c-17.57-11.68-29.48-29.22-42.2-45.59l-.69 2.62c2.82-.62 4.89-2.4 7.5-3.52.53-.23.11-.92-.36-.86zM196.94 953.06C211 964 224.8 974.92 238.35 986.47c13.21 11.26 26.73 22 41.77 30.75a2.72 2.72 0 0 0 4-1.61c3.91-17.92-8.49-34.38-20.06-46.69-13.17-14-28.74-25.11-43.88-36.83-3.95-3.05-9.06 1.68-5.59 5.59 10.4 11.73 21.88 22.4 32.65 33.77s20.51 23.07 30.1 35.25c1.48 1.88 4.88-.16 4-2.36-5.5-14.58-15.83-27-26.54-38.1-11.26-11.68-23.18-22.71-34.66-34.16l-4.79 6.21c14.23 9.68 28.19 20.13 40.54 32.14 11.23 10.93 25.39 26.66 23 43.73l4-1.61c-16.1-7.78-30.27-18.91-44.21-30-13.13-10.42-26.46-22.23-41.59-29.67-.07 0-.17.06-.09.12zM276.88 1085.2c16.43 12.38 30.12 27.15 45 41.2a1.9 1.9 0 0 0 2.67 0c3.71-4.49 3.14-8.38 1.65-13.74-.36-1.31-2.62-1.11-2.46.33.45 3.94 1.05 7.54-1.86 10.74h2.67c-14-14.56-30.1-28.54-47.44-38.94-.27-.16-.47.23-.24.4zM551.28 458.53c-8-4.12-13.85-10.52-19.22-17.55l-1.29 1c15.93 13.69 30.05 29.27 46.68 42.2 15.16 11.79 33.43 23.75 53.3 24.19 4.08.09 6.41-4.5 4.53-7.9-15.46-28.07-41.94-49-65.28-70.26-7-6.39-16.29 3.18-10.31 10.31 24.69 29.38 55.36 57.14 90.81 72.71 7.46 3.27 16.3-3.67 11.73-11.73-8.83-15.56-21.67-28.83-35.17-40.4s-28.5-22.31-44.53-30.51c-9.78-5-17 8.14-8.45 14.46 36 26.59 73.12 52.81 113.15 73 7.66 3.86 18.41-4.49 12.74-12.74-21.83-31.78-56.15-51.14-85.08-75.55l-11.66 15.11c18.43 11.37 34.78 28.28 56.42 33.42 7.86 1.87 16.78-7.22 11.39-14.81-11.5-16.2-26.44-29-41-42.34-13.91-12.66-27.8-25.81-35.93-43.07l-12.87 12.83c21 9.58 39.18 24 58.38 36.56 9.07 5.93 18.9 10.4 28 16.15 4.06 2.55 8.18 5.38 13.19 5.25 6.91-.17 11.63-5.93 11.46-12.62l-17.14 7.1c4.37 3.85 9 7.32 13.64 10.81 6.48 4.86 16.26-4.85 11.33-11.33-3.52-4.63-7-9.26-10.78-13.68-2.57-3-7.56-3.57-11-2.08-3.95 1.74-5.7 5-6.17 9.17v-1l2.61-4.48-.39.42 4.5-2.62c1-.38 6.61 2.08 4.26.27a16.91 16.91 0 0 0-2.17-1.13c-1.68-.92-3.31-1.93-5-2.85-4.05-2.21-8.39-3.87-12.52-5.95a231.15 231.15 0 0 1-24.4-14.47c-15.76-10.5-31.21-21.64-48.42-29.7-8.74-4.09-16.83 4.13-12.83 12.83 16.47 35.84 54 54.41 75.76 86.11L665 458.83c-19.7-5-35.11-20.25-52.07-30.59-9.11-5.55-20.21 8-11.66 15.11 27.52 23 61.78 41.39 82.6 71.34L696.64 502c-40.5-20.16-77.85-44.37-114.1-71.38L574.09 445a211.77 211.77 0 0 1 41 28c12.4 10.71 24.27 22.7 32.35 37.08l11.73-11.73c-34.53-15.32-64.28-40.07-89.16-68.22L559.7 440.5c23.22 20.08 50.26 38.61 66.52 65.26l4.53-7.9c-19.77.45-36.88-8.39-52.65-19.63-16.12-11.48-30.91-24.84-46.17-37.42a.82.82 0 0 0-1.16 1.16c5.62 7 11.77 13.48 20 17.5.63.31 1.18-.62.55-.94zM1578.92 935.13c16.83 8.86 30.87 21.5 46.13 32.66 1.19.87 2.34-.56 2.18-1.68-2.55-18.51-20.68-33.52-34.46-44.28-16.05-12.54-33.5-22.52-51.71-31.52a3 3 0 0 0-3 5.18c13.9 9.87 26.25 21.18 38.92 32.54 12.29 11 25.23 21.44 40.41 28.2 2.56 1.14 5.23.27 6.17-2.51 4.66-13.83-13.67-28.11-22.49-35.67-7.22-6.19-14.77-12-22.22-17.89-5.29-4.19-11-8.34-15.38-13.53l-5.29 6.85c11.89 6.14 22.73 14.16 34.49 20.58 10.48 5.72 23 11.92 35.25 9.36A4.45 4.45 0 0 0 1631 918c-5.39-16-18.37-27.34-30.73-38.13-11.66-10.19-25.66-21.25-28.33-37.46l-5.55 5.55c8.27 3 15.7 8.4 22.79 13.5 8.54 6.14 16.82 12.63 25.49 18.59 13.83 9.5 32.23 20.94 49.66 14.88 3.11-1.08 4-4 2.8-6.88-4.63-10.7-12.74-20.53-21.73-27.87-8.77-7.16-20.1-13.38-31.65-9.68-5.75 1.84-3.41 10.37 2.49 9 9.33-2.1 18.71 4.22 25.3 10.11 7.2 6.44 13.54 14.26 17.49 23.12l2.8-6.88c-16.36 5.89-34.34-7.85-46.88-16.76-14.72-10.46-29-23.62-46.17-29.87-3.56-1.29-6.06 2.49-5.55 5.55 5.68 34.12 48.64 44.2 59.23 75.54l3.09-5.44c-10.81 2.27-23.12-5.33-32.07-10.44-10.42-6-20.24-13-30.92-18.51a4.38 4.38 0 0 0-5.29 6.85c3.94 4.67 9 8.44 13.78 12.22 6.78 5.38 13.66 10.63 20.33 16.15 6.4 5.3 12.78 10.79 18.19 17.12 2.77 3.25 7.34 8.54 5.88 13.2l5.16-2.93c-31-13.07-50.6-42.17-79.54-58.24l-2.31 5.48c17.61 6.4 34.53 17.42 49.51 28.5 14.45 10.68 31.11 24.53 36.1 42.61l2.18-1.68c-15.44-10.48-29.78-23.86-47.51-30.38-.17-.06-.28.2-.12.29zM1159 891.63c11.79.83 23.47 4.26 34.82 7.36 13.63 3.73 27.14 7.9 40.73 11.76a370.86 370.86 0 0 0 40.91 9.11c15.79 2.62 34.95 3.47 48.3 13l6.87-16.28c-4-1.3-8.25-1.8-12.29-2.95-4.35-1.23-8.66-2.67-12.91-4.2a236.36 236.36 0 0 1-25.71-11.23c-16.65-8.32-32.56-18-48.64-27.29l-7.48 17.75c16.67 4 33.43 7.52 50 11.71 8.29 2.09 16.54 4.32 24.7 6.85s15.81 5.28 24.65 4.75a5.07 5.07 0 0 0 3.54-8.54c-5.92-6.87-13.5-9.79-21.85-12.65s-16.82-5.38-25.33-7.75c-16.78-4.67-33.74-8.67-50.58-13.1-10.7-2.81-16.9 12-7.48 17.75 16.55 10.14 33.37 19.92 50.85 28.38a272.63 272.63 0 0 0 28.21 11.94c8.47 3 18.87 6.47 27.95 6.08 11.61-.49 11.3-16.78 0-17.82-8.42-.77-16.74-2.26-25.16-3.19-8.79-1-17.63-1.42-26.45-2-14.2-1-28-3.52-41.82-6.65s-27.54-6.53-41.38-9.45c-11.26-2.38-22.88-4.73-34.45-4.61a.63.63 0 0 0 0 1.25zM1210.76 799.4c17.6 8.28 35.54 15.83 53.38 23.57 19.66 8.53 40.06 16.55 58.48 27.59l3.86-6.6c-8.05-4.81-17.09-8.18-25.34-12.76q-12.92-7.18-25.27-15.35a354.25 354.25 0 0 1-46.46-36.31l-2.74 4.71c24.49 8.92 46.83 22.09 68.58 36.29 8.24 5.38 15.91 11.8 24.45 16.68 7.68 4.39 16.54 6.73 24.55 1.93 2.35-1.41.83-5.51-1.93-4.57-9.12 3.12-18.37-2.68-25.72-7.58-8.32-5.55-16.52-11.15-25.07-16.36-20.19-12.29-41.17-23.59-63.37-31.82-2.68-1-4.71 2.86-2.74 4.71a401.43 401.43 0 0 0 46.43 37.47q12.53 8.69 25.7 16.4c8.23 4.8 16.95 10.53 26 13.6 4.67 1.59 6.66-5.78 2-7.37-20.09-6.87-39.7-15.41-59.47-23.14-18.33-7.17-36.76-14.13-54.86-21.85-.54-.23-1 .55-.47.81zM1310.5 757.5c14.79 12.64 27.51 27.52 42.38 40.1 11.94 10.11 29.48 24.88 46.41 20.46 1.16-.3 1-2.27-.29-2.15-18 1.67-35-12.24-47.83-23-13.71-11.58-25.81-25-39.67-36.35-.69-.57-1.69.4-1 1zM1312.28 697.72c16.35 16.77 35.09 32.18 48.86 51.26 10 13.88 16.17 34.13 31.61 43.25a2.6 2.6 0 0 0 3.78-2.91l-1.35-4.92c-.79-2.89-4.79-1.6-4.37 1.2l.76 5.08 3.78-2.91c-14.88-11.4-21.16-29.12-32.78-43.29-14.51-17.71-32.5-32.29-48.86-48.2a1 1 0 0 0-1.44 1.44z"/><path class="cls-1" d="M544.83 486.4c-7.29 2.88-14.84 5.63-22.74 4-3.33-.67-4.77 4.31-1.42 5.14 11.08 2.75 23.27 2.07 34.61 1.82q8.75-.19 17.49-.78c3.07-.21 6.06-.66 9.1-.26s5.76 1.42 8.82 1.1c10.61-1.11 11.1-16.57 0-16.9a290.82 290.82 0 0 1-38.87-4.21c-13.06-2.16-26.41-4.29-39.06-8.26-6.8-2.14-14.4 2.52-16.24 9.22-2 7.24 2.45 13.93 9.22 16.24 32.21 11 62.13 28 94.92 37.44a15 15 0 0 0 18.2-10.33c2.21-8-2.71-15.71-10.33-18.2-1.09-.36-2.18-.73-3.25-1.14-1.39-.53 1.27.69-1.06-.5s-4.51-2.26-6.7-3.52a148.78 148.78 0 0 1-14.09-9.36c-3.64-2.69-6.8-5.25-11.1-8.79-4-3.34-8.06-6.73-12.11-10.07L545.73 494c20.12 6.35 39.17 19.36 60.89 23.56 7.88 1.53 16.06-2.22 18.31-10.39s-2.74-15.75-10.39-18.31c-1.35-.45-2.69-.91-4-1.44 2.38 1-1.88-.93-1.9-.94-2.8-1.37-5.53-2.9-8.2-4.5-5.41-3.24-10.64-6.81-15.72-10.55-10.06-7.43-19.74-15.59-30.48-22l-10 23.6c27.55 8.32 47.78 35.63 72.79 50.29 12.43 7.29 23.81-9 14.85-19.25-12.75-14.57-26.47-27.7-40.9-40.58s-28.77-25.41-41.2-40.05l-13.45 17.44c27.66 12.76 45.86 40.41 75.18 50.37 11.91 4 20.86-12.46 12.12-20.83-8.3-7.95-17-15.5-24.61-24.12a114 114 0 0 1-10.44-13.3 67.24 67.24 0 0 1-4-6.9q-.49-1.07 0 .24-.36-.9-.67-1.82c-.17-.58-1-4.38-.57-1.42l-10.73 10.73c.18 0 2.55.2.85 0s.63.18 1 .28c1.46.42 2.88.87 4.31 1.39 3 1.09-1.93-.93 1.06.44l1.89.89c1.65.8 3.27 1.64 4.88 2.51 7.12 3.85 14 8.07 20.84 12.44 12.11 7.77 33.31 18.92 44.11 2.9l-3.78 3.78.53-.32c11.58-7 1-25.3-10.65-18.21l-.53.32 5.32-1.44c-1.17 0-5.18.06-2.59.24 2 .14 0-.16-.42-.16 2.72 0 1.11.08-.6-.47-2.61-.83-5.28-1.49-7.85-2.45-1.58-.59-3.13-1.22-4.71-1.8-.83-.31-1.66-.64-2.48-1-1.87-.74 2.66 1.2-.65-.27s-6.85-3-10.16-4.77c-12.57-6.63-25.74-15.15-40.35-15.78-5.35-.23-11.33 5.12-10.73 10.73 1.48 13.85 10.25 25.25 18.81 35.71 8.16 10 16.9 19.45 25.31 29.21l12.12-20.83c-25.44-10.17-45.14-33.6-70.57-45.5-11.52-5.38-21.74 7.58-13.45 17.44 12.18 14.49 26.35 27 40.38 39.69 13.52 12.17 28.07 24.85 38.17 40.1l19.24-14.9c-12.61-9.87-25-19.94-37.71-29.9-13.45-10.56-27.11-19.72-43.07-26-5.9-2.34-13.06 2.08-15.24 7.48-2.54 6.33-.08 12.26 5.28 16.13 21 15.13 40.39 35.73 65.43 45.87l7.91-28.7c-21.43-5.17-39.41-16.86-60.87-23.64-6.26-2-13.61 1.31-16.85 6.86-3.12 5.33-2.71 13.92 2.33 18.08 18.75 15.47 37.71 33.69 61.53 40.82l7.87-28.53c-32.92-8.57-63.17-24.81-95.77-34.37l-3.49 25.9c13.58.11 27.09 2.67 40.61 3.81a197.29 197.29 0 0 0 40.83-.39l-2.25-16.59c-3 .62-5.33 2.36-8.14 3.53a32 32 0 0 1-8.25 1.71q-8.83 1.17-17.71 1.89c-11.15.93-22.66.44-33.68 2.45l1.42 5.14a103.13 103.13 0 0 0 23.22-8c.62-.31.18-1.4-.48-1.14zM467.5 276.56c7.43-1.2 13.21-8.22 18.24-13.32 5.32-5.39 10.44-11 15.41-16.68 9.74-11.19 18.6-23.15 27.34-35.13 8.34-11.42 16.44-23 24.6-34.56q3-4.27 6.06-8.52c1.4-1.94 3.09-2.57.1-.27a12 12 0 0 0 1.39-1.74c4.24-5.22 8.57-10.34 12.64-15.7 8.07-10.63 18.65-27.94 10.87-41.24a19 19 0 0 0-33 0c-1.74 3-3 7.16-2.58 10.71.37 2.85-.06-1.22.38-1.77-.41.52-.68 2.72-.82 3.4q-1 2.81.56-1-.53 1.18-1.12 2.33c-4.65 9.15-11.49 16.84-17.12 25.36-7.57 11.45-14.53 23.34-21.68 35.06q-12.45 20.39-25.8 40.16c-4.57 6.75-9.16 13.48-14.1 20-4.69 6.17-12.45 12.67-13.64 20.61s4.29 13.61 12.31 12.31zM632.92-18.87c22.29 15.78 41.76 35.19 58.83 56.45s31.57 44.7 46.92 67.35q6.23 9.19 12.65 18.25c5.45 7.64 9.9 17.81 19.58 20.52 14.86 4.15 25.17-18.27 10.74-25.48a35.25 35.25 0 0 0-4.15-1.83q1.47.87-.83-.24a25.23 25.23 0 0 0-7.67-1.9c-4.77-.33-8.69 4.28-8.75 8.75 0 2.85.8 5.14 1.57 7.79v-6.32a10.16 10.16 0 0 1-.65 2.09h26.89c-1.66-8.3-10.19-13-16-18.41q-7.28-6.85-14.38-13.89c-9.78-9.65-19.41-19.46-29.11-29.19-19.39-19.49-38.56-39.4-59.37-57.46a274.87 274.87 0 0 0-36.11-26.75c-.17-.11-.32.16-.16.27zM728.25-5.72c23 14.28 40.5 36.25 54.81 58.9 6.7 10.6 13.65 21.11 20 31.91 6 10.24 11 21.06 16.92 31.38a155.47 155.47 0 0 0 12.4 18.61c5.42 6.94 11.13 13.57 20.53 14.19 12 .78 19.25-16.37 10.08-24.33-3.35-2.91-7.22-5.59-11.61-6.59-4.56-1-9.95 1.37-11.05 6.28a18.24 18.24 0 0 0-.51 4.7l.38 2.85q.5 2.14-.12.09l1.68-6.22a6.35 6.35 0 0 1-1.16 1.78h24.61c-2.38-3.82-5.37-5.75-9.13-7.86-1.09-.61-2.16-1.27-3.2-2-.53-.35-1.05-.72-1.57-1.09-1.74-1.24 1.27 1.11-.42-.35a112.16 112.16 0 0 1-12.8-13.16c-7.56-9-14.28-18.69-21.88-27.66-8.06-9.5-16.73-18.57-25.11-27.79-8.93-9.82-17.56-19.9-27-29.21-10.44-10.25-21.51-19.84-34.32-27a1.49 1.49 0 0 0-1.5 2.56zM1327.12 191.2c5.34-3 10-8.06 14.6-12.13q7.64-6.83 15-14c10.3-10 20.52-20.08 30.23-30.69 9.42-10.29 18.51-20.88 27.11-31.87q6.75-8.62 13.38-17.34c2.69-3.52 4.09-4.79 6.1-7.58 3.46-4.79 5.9-11.72 3.53-17.48-3-7.36-9-11.48-17.23-9.78q13 .5 3.72-.5l-3.72.5a15.82 15.82 0 0 0-9 5.69c-3.07 3.63-4.19 7.44-5.68 11.81a143.52 143.52 0 0 1-7.76 17.52q-9.56 19.3-20.72 37.76a426.92 426.92 0 0 1-23.72 35.8c-4.3 5.72-8.76 11.33-13.33 16.83-4.13 5-9.33 9.67-12.78 15.12a.24.24 0 0 0 .32.32zM1422 226.41a20 20 0 0 0-2.34 5.71 1.34 1.34 0 0 0 2.58.71c11.76-32.59 28.55-63.36 47.87-92.05 9.76-14.49 19.92-28.71 30.12-42.9 7.72-10.74 14.66-21.95 22.19-32.82a148.81 148.81 0 0 1 12.8-15.69c4.42-4.83 8.92-10 14.09-14.07 4.49-3.5.41-10.17-4.31-10.4-29.89-1.44-40.74 35.1-52.53 56.1-17.64 31.48-35.67 62.79-51.13 95.43a391.27 391.27 0 0 0-21.69 55.67l2.58.71a17 17 0 0 1 1.78-5.24 1.17 1.17 0 0 0-2-1.18zM1930.28 265.35c3.51-25.56 6.59-51.19 11.06-76.6 2.17-12.36 4.67-24.67 7.73-36.85q2.4-9.59 5.28-19.05c1.77-5.78 4.78-11.83 5.31-17.85.25-2.81-3.62-3.36-4.95-1.34-3.27 5-4.42 12-6 17.64q-2.65 9.53-4.8 19.18c-2.82 12.58-5.08 25.28-7 38-3.83 25.4-6.33 51-9.23 76.5-.17 1.47 2.41 1.84 2.61.35zM1785.83 689.83c4.6-4.8 5.24-11.41 6.41-17.66 1.65-8.89 3-17.8 3.86-26.81 1.73-17.53 1.66-35.21 3.29-52.75 1.53-16.42 5.68-32.25 10.14-48.08 2.36-8.39 4.78-16.77 6.79-25.25 2.22-9.37 6.94-21.91 3.8-31.2-2.32-6.84-7.54-11.82-14.86-12.8-6.75-.91-14.5 2.21-17.81 8.53-3.21 6.13-3.22 11.59-3.35 18.16 0 1.84-.14 3.65-.33 5.48q-.21 1.83-.44 3.65.29-2.25-.16 1c-1.29 8-2.74 16-4.23 24-3.24 17.39-6.13 34.85-6.43 52.57s1.44 35.25 3.59 52.79c1 8.47 2.55 16.88 3.87 25.31 1.18 7.5 4.21 14.57 3.86 22.23a1.18 1.18 0 0 0 2 .83zM1810 746c7-5.73 10.5-16.14 13.62-24.3 5-13.15 9-26.7 13.5-40 8.2-24.25 16.7-48.46 26.08-72.28a155.14 155.14 0 0 1 10.24-21.27c1.9-3.26 3.85-6.53 5.6-9.87a32.08 32.08 0 0 0 3.07-6.67 19.6 19.6 0 0 0 .41-3.82c0-.41.21-2.58 0-.73.73-5.23-2-9.51-7.53-9.89-17.91-1.23-25.45 19.88-29.4 33.94-4 14.37-6.12 29.15-9.09 43.75-5.13 25.25-8.25 51.07-14.85 76a189.42 189.42 0 0 1-6.23 20c-1.77 4.58-3.84 9.67-7.48 13.11-1.42 1.33.65 3.28 2.1 2.1zM1791.31 1175c-.34-5.09-2.62-10.16-3.46-15.24a95 95 0 0 1-.92-19.8c.6-13.35 3.19-26.32 6.38-39.27q2.38-9.69 5.58-19.16 1.49-4.4 3.15-8.74.87-2.28 1.8-4.53l.78-1.9c.09-.22 1.11-2.62.6-1.45a111.31 111.31 0 0 1 8-15.58c.8-1.26 1.63-2.49 2.49-3.71.34-.48 2.68-3.66 1.85-2.58 2.14-2.79 4.41-5.48 6.63-8.21 1.27-1.56 2.53-3.12 3.77-4.7.72-.92 1.43-1.84 2.14-2.76l.91-1.18.14-.18c2.75-3.55 5.89-7.16 8-11.15 3.42-6.31 4.09-12.46 2.94-19.44a21.29 21.29 0 0 0-1.51-5.26 14 14 0 0 0-3-4.63c-.37-.37-4.53-3.77-1.69-1.38a10.18 10.18 0 0 0-11.74-1.51c3.49-1.71-3.11 1.5-3.94 2.15a36 36 0 0 0-3.92 3.81 38.53 38.53 0 0 0-8.14 13.18c-.36.89-.68 1.82-1 2.71.1-.27 1.06-2.27.22-.54s-1.46 3.19-2.28 4.75c-1.65 3.13-3.49 6.16-5.28 9.21-7.1 12-13 24.17-16.56 37.73a205.63 205.63 0 0 0-4.57 81.9 154.07 154.07 0 0 0 4.78 21.42c1.55 5.21 3.36 12.4 7.38 16.27a.32.32 0 0 0 .53-.22zM1859.64 1195.37a14.29 14.29 0 0 0 4.22 6.67 1.59 1.59 0 0 0 2.46-.32c16.07-23.75 25.4-51 33.79-78.16 8.5-27.56 16.7-55 28.6-81.3a203.21 203.21 0 0 1 11-21c2-3.38 4-6.76 6.12-10.11 2.34-3.77 4.5-6.74 3.72-11.36-.37-2.16-2.6-3.25-4.52-3.44-6.68-.68-13.18 7.77-17.05 12.36a106.27 106.27 0 0 0-12.15 18c-7 13-11.78 27-15.38 41.25-7.23 28.62-10.47 58.12-18.23 86.62-4.34 15.92-9.89 31.55-18.56 45.65l2.46-.32a11.48 11.48 0 0 1-3.72-5.21c-.62-1.67-3.27-1-2.71.75zM1913.64 1149.34c9-2.92 16.13-11.48 22.1-18.4 8.69-10.08 16.65-20.75 24.48-31.51 7.6-10.43 15.34-20.61 23.46-30.64 6.25-7.72 12.46-15.49 18.24-23.57 5.52-7.7 11.77-16.09 14.61-25.24 1.14-3.67-3.54-5.92-6.14-3.57-7.13 6.46-12.59 15.38-18.26 23.09s-11.13 15.29-16.65 23c-7.05 9.82-13.84 19.69-20.36 29.87-6.77 10.56-13.57 21.13-21.07 31.2-5.43 7.28-12.77 17.87-21.72 21.13-2.89 1.05-1.71 5.64 1.29 4.67zM1994.58 1115.7c14.47-8.65 23.71-23 30.19-38.2 6.58-15.44 12.07-33.51 11.16-50.5-.24-4.45-7-7.24-9.17-2.48-6.62 14.26-8.17 30.69-12.06 45.8-3.82 14.84-9.88 31.23-23.26 40-3.34 2.19-.33 7.48 3.15 5.4z"/><path class="cls-1" d="M1979.18 1100.4c-8-38.1-6.47-77.19-5.64-115.89.42-19.35.78-38.72.1-58.07a191.48 191.48 0 0 0-3.17-28.8c-1.74-9.21-4.65-20-10.08-27.79-2.71-3.87-10.52-4.33-11.42 1.49-1.46 9.45-.47 19.67.55 29.13s2.27 19.17 3.64 28.73c2.76 19.28 4.39 38.72 6.06 58.12 3.31 38.3 6.87 76.76 15.59 114.28.66 2.85 5 1.64 4.37-1.2zM1922.39 915.93c9.52-25.3 16.15-51 21.11-77.53 2.4-12.81 5.44-25.64 7.26-38.54 1.05-7.44 2.19-14.83 2.32-22.36.11-6.4.37-14.94-3.55-20.33-2.45-3.38-6.48-4.86-10.37-2.72-6.41 3.52-9.19 11.3-11.66 17.75a86.06 86.06 0 0 0-4.49 19c-2 13.94-2.06 28.09-2.57 42.15-1 26.77-.56 54.16-4.85 80.67a3.52 3.52 0 0 0 6.78 1.87z"/><path class="cls-1" d="M1937.63 824.54a567 567 0 0 0 28-79.74c7.38-26.93 15.13-55.69 14.28-83.79-.17-5.64-7.89-6.56-9.67-1.31-8.79 26-10.15 54.36-15 81.28-5 27.65-11.95 54.57-22.91 80.49-1.5 3.55 3.66 6.68 5.26 3.08zM1897.76 795.76c13.72-17.15 19.08-39.36 21.7-60.74 2.69-22 3.31-45.61-2.47-67.12-1.25-4.67-7.84-3.45-8.13 1.1-1.34 20.77 1.23 41.6.23 62.42-1 20.1-4.05 42.5-16.85 58.82-3.06 3.9 2.37 9.47 5.52 5.52zM1211 1007c2.18-.27 4.75 1.62 6.58 2.61a92.17 92.17 0 0 1 9.73 6.2c8 5.74 15.59 12.15 23.07 18.58 14.74 12.66 29 26 44.07 38.27 5.51 4.51 11.11 9 17.6 12 5.88 2.72 17.1 5.57 22.09-.43a7.6 7.6 0 0 0 1.14-8.8c-2.44-4.59-9.47-7.08-13.93-9.34a166.6 166.6 0 0 1-16.34-9.54c-9.12-6-18-12.44-27.17-18.33-15.72-10-30.88-21.07-47.43-29.73-5.61-2.94-13.34-7.63-19.93-5.28-1.92.68-1.81 4.12.52 3.84zM1241.15 1010.47a5.79 5.79 0 0 1-4.74-4.07l-.86 1.12c21.85-1.58 42.56 15.44 58.62 28.09 9.57 7.54 18.78 15.66 28.76 22.66 8.61 6 19.1 13.33 30.07 12.35 4.85-.43 7.42-5.83 4-9.6-7.24-7.92-18.06-13-27.29-18.29-11.09-6.4-22.17-12.86-33.42-19-18.09-9.87-39.64-21.57-61-18a.9.9 0 0 0-.53 1.31 7.54 7.54 0 0 0 6.07 4.44.55.55 0 0 0 .29-1.05zM1346.33 1016.15c17.16 10.86 35.12 20.37 52.79 30.35 8.6 4.85 17.16 9.78 25.56 15 8.75 5.4 17.22 12.24 26.66 16.37 3.26 1.43 6.71-2.27 4-5.15-6.69-7-16.09-11.74-24.54-16.32-9.22-5-18.62-9.66-28.06-14.24-18.57-9-37.18-17.91-55.05-28.27a1.33 1.33 0 0 0-1.34 2.29z"/><path class="cls-1" d="M1284 1062c12.53 13 27.42 23.14 42.81 32.39 15.72 9.45 31.61 18.61 47.32 28.1 1.95 1.18 3.44-1.67 1.73-3-14.16-10.79-30.39-18.6-45.78-27.46-15.8-9.03-31.15-19.03-44.08-32.03a1.41 1.41 0 0 0-2 2zM1219.84 1114.16c32.29 30.91 78.46 37.13 118.62 52.8 2.13.83 3.66-2.76 1.57-3.71-39.28-17.84-85-20.81-117.87-51.41-1.54-1.44-3.85.85-2.32 2.32zM1002.49 1229.88c16.35 9.67 19.28-17.35 20-27.39 1.85-24.92-.16-50.36-1.88-75.24-.59-8.59-.93-16.82-.68-25.4l-1.19 4.39a10 10 0 0 0 .93-7.14l-17 4.69c4 17.79 11.73 34.21 18.68 51 3.37 8.15 6.64 16.35 9.46 24.71a88.12 88.12 0 0 1 3.57 13.43c.55 3.22.81 9.18 1.77 13.75l30.29-8.35c-4.49-15.78-10.71-30.94-16.8-46.15s-12.59-30.72-16.2-46.66l-25.44 14.85c10.27 13.08 21.09 28.37 30.89 42.88 5.1 7.55 10.24 15.08 15.57 22.47 5.73 7.95 11.29 16.07 18.43 22.81 5.13 4.85 13.74 6.59 20 2.58 5.91-3.81 10-11.53 7.57-18.6-7.83-23.2-23.7-41.68-36-62.46a15.13 15.13 0 0 0-20.35-5.34c-7.58 4.43-8.59 13-5.34 20.35 5.26 11.91 13.17 21.85 19.75 33 5.09 8.59 18.24 4.76 18.49-5a54.89 54.89 0 0 0-3.32-20.93c-1.39-3.76-2.9-7.49-4.5-11.17-1.24-2.85-2.51-5.45-3.24-7.31l-27.18 11.46c5.25 9.8 11.36 19.08 17 28.63 2.81 4.72 5.51 9.52 7.92 14.46q.93 1.91 1.81 3.85c1.25 2.78-1.21-3.37.63 1.53 1 2.55 1.8 5.12 2.54 7.74l30.11-12.69c-5.67-8-12.19-15.21-18.4-22.83-6-7.43-10.55-13.28-16.07-20.52-11.72-15.37-22.69-31.27-34.73-46.41-4.14-5.2-13.12-5.51-18.48-2.38a15.69 15.69 0 0 0-7 17.22 313.68 313.68 0 0 0 15.13 47c6.15 15.19 12.43 30.33 17 46.1 2.28 7.89 11.18 13.6 19.32 11 8.49-2.75 12.81-10.7 11-19.32-2-9.29-7.49-18.49-11.21-27.24-3.56-8.39-7.53-16.59-11.66-24.72-8.34-16.42-16.94-32.75-24.78-49.4-1.85-3.93-7.33-5.24-11-3.61-4.21 1.85-6 6-5.11 10.41.3 1.52 1.11 2 1.62 3.2 1.37 3.17-1.11-2-1.12-2.14a5 5 0 0 0 .54 1.29c.52 1.29 1.05 2.58 1.57 3.88a70.73 70.73 0 0 1 3.23 11.29c2.31 10.46 4.52 21 6.12 31.55a329.81 329.81 0 0 1 3.87 36.77c.36 9.65.59 19.78-1.64 29.25-1.67 7.09-5.47 13.4-13.34 9.24a1 1 0 0 0-1 1.75zM925 1178.53a40.92 40.92 0 0 0-5.79 0c-.38 0-.83.33-.78.78 1.3 12.17 4.24 24.43 7.55 36.2l4.79-3.69c-10.49-7.6-21.33-14.67-31.67-22.5q-8.21-6.22-16.24-12.67c-4.14-3.32-8.23-7.69-13.37-9.35a1.82 1.82 0 0 0-2 2.64c2.65 5 8.25 8.49 12.54 12q7.92 6.53 16 12.85c10.12 7.9 20.38 16.16 31.48 22.63 2.26 1.32 5.88-.93 4.79-3.69-2.59-6.58-4.87-13.26-7-20-1-3.2-1.92-6.48-3.07-9.63-.19-.52-1.64-3.3-1.55-3.63.33-1.21 3.65-1 4.4-1a.47.47 0 0 0 0-.94zM869.63 1155.92c-6.27-3.52-12.66-6.77-19.22-9.72-6.09-2.74-12.34-5.8-18.94-6.93-1.86-.32-3.35 2.3-1.38 3.28 5.74 2.88 12 4.48 18 6.75 6.9 2.6 13.65 5.55 20.28 8.78 1.43.7 2.68-1.36 1.26-2.16zM638.28 1104.28c-2.19 1.74-5.16.13-3.91 4.64 1.13 4.08 8.5 7 11.94 8.89 11.58 6.42 24.05 10.91 36.58 15.05s25.51 7.87 38.11 12.14c6.06 2.06 12 4.29 17.93 6.81a95 95 0 0 0 9.63 3.65 22.2 22.2 0 0 0 11.51.1l-5.59-13.25c-2.62 1.32-5.89 1.64-8.73 2.29-4.27 1-4.37 7.83 0 8.74 3.49.73 7 1.37 10.47 2.22 6.4 1.57 11-5 8.19-10.65-5.62-11.31-21.19-13.49-32.52-15.68-11.82-2.28-23.77-3.83-35.67-5.61a270.29 270.29 0 0 1-35.14-7.24 128.54 128.54 0 0 1-16.72-6c-.78-.35-7.51-3-7.54-3.18.09.58 2.72-1.36 2.86-1.52a1 1 0 0 0-1.44-1.44z"/><path class="cls-1" d="M653.16 1130.73a51.8 51.8 0 0 1-9.75-5.77l-.62 1.07c16.46 5.83 33.88 9 50.69 13.67 8.41 2.34 16.76 4.92 24.91 8.06s15.77 7 23.79 10.25c2.86 1.15 5.4-3.3 3-5.22-13.33-10.86-32.29-14.46-48.74-17.91-17.7-3.71-35.57-6.78-53.35-10.09-.68-.13-1.17.8-.49 1.17 3.38 1.88 6.67 3.75 10.21 5.3.36.16.68-.36.32-.54zM578.46 1155.32c12.94 18.65 35.42 28.48 55.92 36.37 23.21 8.93 47.81 15 70.07 26.26 1.25.63 2.36-1.26 1.1-1.89-20.86-10.37-43.76-16.2-65.6-24.11s-46.57-17.58-60.41-37.26c-.46-.65-1.54 0-1.08.63z"/><path class="cls-1" d="M523.5 1121.5c1.75-2.21 12.82 5.1 14.4 6 8.71 5 17.1 10.61 25.35 16.34 14.53 10.09 29.09 21.51 40.91 34.75l12.12-12.12c-4-3.72-9.47-6-14.23-8.69-4.44-2.48-9-4.7-13.67-6.76-9.55-4.24-19.34-7.9-29-12-9.2-3.89-18.34-8.14-26.72-13.61a70.07 70.07 0 0 1-11.47-9 43 43 0 0 1-5.23-6.1l.07 1a7.38 7.38 0 0 0-1-3.74 11.32 11.32 0 0 0-3.74-3.4c-5.13-3.49-11.67 2.27-10.16 7.81l1.78-6.73c-1.88 1.47-2.37 4.58-1.78 6.73a9.6 9.6 0 0 0 2.26 4.57 5.56 5.56 0 0 0 2.39 1.53q1.79.7 0 .09c1.82 1.76 3.39 3.78 5.22 5.54a125.08 125.08 0 0 0 12 10.29c8.39 6.22 17.72 11 27.2 15.35 9.67 4.43 19.51 8.43 29 13.15 4.55 2.25 9 4.64 13.38 7.27 4.84 2.94 8.6 7.07 13.28 10.12 9.25 6 18.39-9.55 8.65-14.8-13.11-7.06-26.2-14.11-39.22-21.35-14.19-7.9-28.38-17.78-43.85-23-2.1-.72-7.83-3.1-9.14.07-.26.64.75 1.22 1.18.68zM51.23 1065c.36-18.81-7.64-36.6-16.34-52.88-4.82-9-9.95-17.86-15-26.76-4.71-8.44-8.69-17.54-13.89-25.71-3.56-5.64-11.48-.74-8.79 5.14 3.66 8 9.83 15.22 15 22.34 5.85 8.07 11.75 16.08 17.08 24.51 10.27 16.21 19.74 33.92 21.45 53.37a.23.23 0 0 0 .47 0zM97.55 1025c-.93-21.43-11.41-40.52-22.89-58.09-12.21-18.68-26.32-36.5-35.79-56.81a117.6 117.6 0 0 1-6.26-16.62c-1.68-5.75-2.63-11.64-4.74-17.26a3 3 0 0 0-5.73 0c-3.08 9.74.25 20.71 4.26 29.74C30.89 916 37 925.32 43.55 934.19c13.4 18.22 28.95 34.94 40.32 54.59C90.35 1000 95.19 1012 96.45 1025c.07.69 1.12.71 1.09 0zM182.28 864.65c-5.63-13.58-13.65-25.84-21.93-37.92a533.108 533.108 0 0 1-24.06-38.47c-.8-1.42-3.35-.46-2.71 1.14 5.36 13.6 14.72 25.6 23.08 37.52 8.68 12.34 17.24 24.82 23.19 38.75.58 1.37 3 .37 2.43-1zM173.33 642.67c-24.42-26.58-51.81-50.53-71.46-81.09l-4.3 3.32c15.86 13.44 30.26 28.49 44.14 43.94 6.91 7.69 13.48 15.68 20.09 23.64 6.88 8.29 12.67 17.27 19.5 25.6l14.77-14.77c-6.67-8-14.94-14.91-22.79-21.73s-16-13.49-24.2-20c-16.3-13-33.56-25.45-48.57-40-7.41-7.17-21.63-.08-18.07 10.52 4 12 10.47 22.81 17.6 33.2 3.59 5.22 7.59 10.2 11.06 15.5a71.5 71.5 0 0 1 4 7.37c.71 1.43 1.35 3 2.19 4.38l2.34 3q1.67 2.14.62.74c4.87 6.31 12.71 9.71 20.23 5.31 7.34-4.29 8.8-13 5.31-20.23-15.7-32.43-44.42-58.87-73.91-78.69-10.39-7-23.16 4.53-20.32 15.62C56.74 578.65 71 594.85 83 611.45c5.64 7.77 10.09 16 14.74 24.42a137.86 137.86 0 0 0 8.26 13.35 64.19 64.19 0 0 0 14.4 14.39c9.69 7.38 26.89-2.5 25.42-14.59-2.3-18.92-9.81-35.23-20.17-51.08-9.14-14-19.73-27.21-26.54-42.59L79.44 575c6.28 3.6 9.11 6.09 14.52 11a164.64 164.64 0 0 1 15.39 16c9.23 11 17.31 23.23 27.18 33.63 5 5.27 13.28 6.48 19.77 3.74 6.07-2.56 11.85-9.48 11.13-16.54-4.72-46.22-44.2-76.12-62-116.77L91 531.28c-.83-.1-3.52-.85-1.37-.16l2.57.8c.53.17 2.71 1.26.61.19s.21.13.63.36a97.8 97.8 0 0 1 9.11 5.4q1.37.94 2.72 1.92c.31.22 2.69 2 1 .7s.68.55 1 .79q1.09.88 2.17 1.78c3.32 2.77 6.51 5.68 9.64 8.65 11 10.49 21.12 21.93 32.11 32.47 7.23 6.93 20 7.73 27.06 0 7.42-8.08 7-19 0-27.06-15-17.31-30.28-34.6-46.36-50.95l-27.65 27.65c15.64 15.68 31.79 31 48.07 45.95 6.66 6.12 16.43 7 23.7 1.41a18 18 0 0 0 4.65-23.28c-12.24-20.55-31.93-35.11-48.77-51.73-7.29-7.19-20.47-7.82-27.65 0s-7.73 19.92 0 27.65c16.24 16.24 30.8 34.05 46.95 50.36l27.06-27.06c-12.61-10.59-24.19-22.34-37-32.76-13.59-11.09-28.24-22.24-45.79-25.95-11.73-2.48-24.86 7.74-20.59 20.59 6.9 20.73 20.41 38.2 32.65 56a254.46 254.46 0 0 1 16.42 26.38c1.22 2.34 2.33 4.73 3.44 7.13-1-2.14-.64-1.57.06.27.41 1.08.8 2.16 1.17 3.25.72 2.14 1.35 4.31 1.86 6.51.14.59 1 3.35.79 3.92l-.27-2.19q.16 1.3.25 2.61l30.9-12.8c-10-10.89-21-21.28-31.85-31.31-11.44-10.56-23-20.44-36.3-28.57a14.38 14.38 0 0 0-16 1.13c-4.08 3.25-7.34 9.83-5.16 15.13C79.25 582 88.33 595.88 97 610.25c2.1 3.48 4.2 7 6.11 10.57.94 1.78 1.83 3.6 2.7 5.41.25.53 2.59 6 1.4 3a86.21 86.21 0 0 1 3.63 11.16c.46 1.9.83 3.81 1.15 5.74-.65-4 0 2.09 0 2.88l28.84-11.94a111 111 0 0 1-9-9.71c-.23-.27-2.78-3.39-1.61-1.92 1 1.25-.91-1.23-1.08-1.46-1.42-1.93-2.79-3.9-4.16-5.87-5.72-8.3-11.37-16.59-17.59-24.53C101.89 586.53 95.44 579 91 573c-2.8-3.79-5.51-7.67-7.92-11.72-1.14-1.92-2.15-3.9-3.2-5.87-.31-.58-.91-2-.33-.56-.53-1.27-1-2.59-1.38-3.9L57.9 566.57a214.37 214.37 0 0 1 35.6 30 159.44 159.44 0 0 1 15 17.68 89 89 0 0 1 6 9.52c1 1.84 1.87 3.71 2.8 5.58q1.08 2.46.37.7.57 1.38 1.09 2.77l27-11.4a44.19 44.19 0 0 0-6.7-8.69c-2.22-2.07-4.65-4-6.79-6.12-4.21-4.22-7.86-9.29-11.6-13.93-7.18-8.91-13.83-18.38-18.48-28.89l-17 13.1c16.38 13.11 32.5 26.55 48.81 39.7 7.93 6.37 15.8 12.82 23.48 19.49 8.16 7.09 15.65 14.9 23.78 22 4.25 3.71 10.59 4.18 14.77 0 3.81-3.81 4.23-11 0-14.77-7.78-6.91-16.09-13-23.68-20.15-7.95-7.48-16-14.9-23.9-22.39-15.11-14.26-30.74-28-47.61-40.16-2.16-1.55-5.39 1.58-3.74 3.74 22.07 29 50.3 52.86 75.52 79 .42.44 1.07-.22.66-.66zM294.25 629.21c4.52 16.27 17.9 29.08 30.32 39.73 13.72 11.75 28.65 22 42.83 33.14 2 1.55 5.45.21 4.57-2.66-7.74-25.3-31.28-44.13-50.08-61.3-1.18-1.08-2.92.63-1.77 1.77 9 8.89 18.15 17.71 26.41 27.34 8.47 9.86 16.79 20.9 20.17 33.65l4-3.09c-14.19-9.82-28.91-18.7-42.42-29.49-13-10.42-27.49-23-32.54-39.51a.78.78 0 0 0-1.51.42zM297.17 603.17c2.17-2.57 5.15-1 7.36.64 1 .73 1.9-.9.95-1.62-2.86-2.18-7.39-3.89-8.7.75-.06.21.24.41.39.23zM332.42 544.17a144.53 144.53 0 0 1-21.47-49.92c-1.91-8.63-3.45-17.28-4.65-26q-.47-3.39-1-6.78c-.18-1.23-1.61-5.71-1.06-6.74q-.37 4.07.44 1 .44-1.25.83-2.52a21 21 0 0 0-.51-12.72l-33.88 14.28c18.27 26.47 28.62 56.77 42.06 85.72 4.12 8.87 16.34 11.55 24.61 8.06s15.14-14.14 11.41-23.25c-3.27-8-3.89-16.6-7.81-24.39-4.42-8.78-16.16-11.68-24.68-8.09-8.12 3.43-15.27 14.22-11.44 23.32 3.31 7.87 4.54 16.42 7.93 24.34l34-19.89c-14.55-30.13-25.27-62.27-47-88.3-5.9-7.08-17.62-6.64-24.34-1.45-7.54 5.82-9 15.56-4.77 23.91a21.48 21.48 0 0 0 8.5 9l2.49 1.17q2.64 1.49-.23-.8c.95.2 3.13 4.74 3.71 5.62q1.83 2.82 3.62 5.66c4.78 7.57 9 15.44 13.18 23.34 8.53 16.07 16.11 32.49 27.16 47.07 1.24 1.64 4 .13 2.83-1.66zM314.58 124.51c2.8.75 5.76-1.21 7.95-2.72 4.44-3.07 8.31-6.94 12.28-10.57a394.53 394.53 0 0 0 32.31-33.55c5.13-5.92 10.14-11.93 15.13-18 1-1.26 2-2.51 3-3.8-1.65 2.1.29-.34.53-.63.93-1.16 1.85-2.34 2.78-3.5q2.95-3.7 5.93-7.38C406.25 30.07 420.48 17.71 434.75 6c11.3-9.25 21.2-16.57 33.33-25.7q10.11-7.6 20.12-15.32c7.95-6.16 10.87-8.24 18.1-13.88 7.87-6.14 6.92-20.49 0-26.85a19.39 19.39 0 0 0-26.85 0l-1.22 1.13c-4.48 4.16-7.08 12.31-4.81 18.21l.43 1.12v-8.22a54.36 54.36 0 0 0-2.43 7.84c-1.3 6.19 2.79 12.63 9.57 12.56a42.45 42.45 0 0 0 5.76-.53c.57-.08 4.89-.66 2-.31l-10.93-4.53.41.32c7.28 5.67 14.25 6.76 22.68 2.93l1.55-.71-23-29.81c-17.61 18.43-37.64 34.34-56.53 51.44-16.13 14.61-32.56 30-44.72 48.21-15.64 23.39-28.36 48.59-42.66 72.78-3.61 6.11-7.24 12.27-11.83 17.72-1.47 1.74-5.49 7.48-8.31 7.06-1.93-.29-2.83 2.48-.83 3zM330.23 184.23c-3.47 3.87-6.88 7.87-10.7 11.4l1.93 1.93c13-14.28 25.07-29.3 38.15-43.5 12.64-13.72 25.87-26.92 38.3-40.83s24.58-28 36.16-42.55c6.2-7.79 12.56-15.6 17.84-24.06a57.52 57.52 0 0 0 7-15C460.2 27 462 21.76 461.52 17c-.53-5.06-5.07-10.24-10.78-8.21-9.33 3.31-17 11.93-22.73 19.38-6.13 7.91-11.21 16.61-16.49 25.1q-14.79 23.8-29.94 47.36c-10.07 15.7-19.58 31.75-29.83 47.37-10.54 16.14-22.16 31.61-32.44 47.9-.81 1.29 1.13 2.86 2.14 1.65 3.35-4 6.92-7.82 10.31-11.79.91-1.06-.6-2.6-1.55-1.55zM360.22 227.09c26.89-19.26 48.57-44 70.61-68.36 11-12.14 21.87-24.33 33.56-35.8 6.41-6.28 12.89-12.5 19-19.05 5.78-6.19 14.85-15.1 13.86-24.26-.45-4.17-2.86-7.76-7.32-8.29-3.71-.44-8.67 1.84-9.26 6-.37 2.65-2.14 5.11-3.27 7.53a4.18 4.18 0 0 0 5.67 5.67c1.58-.74 3.95-2.62 5.74-2.52l-2.24-16.57c-8.78 3.1-13.7 13.1-18.83 20.32-4.75 6.69-9.86 13.12-14.9 19.6-9.84 12.79-19.41 25.82-28.84 38.9-19.14 26.49-39.7 53.11-66.2 72.65-2.47 1.82-.11 6 2.44 4.18zM755.57 352.61A73.5 73.5 0 0 0 752.5 401a199 199 0 0 0 8 22.12c3.23 8 5.85 16.09 8.91 24.1l5.54-3.23c-15.06-11.93-24.52-29.33-32.27-46.55-8-17.73-15.34-36-22.42-54.09-.52-1.33-2.61-.83-2.19.6 7.78 26.58 15.8 53.15 24.62 79.41 1.17 3.48 7.28 4.35 8 0 .8-5.13-1.2-7.3-3.32-11.67-1.1-2.27-5.29-1.28-4.95 1.34.39 3 1.44 5.18.31 8.13h8c-10.67-25.73-19.9-52-30.38-77.82l-2.07.87c4.5 8.77 7.53 18.43 11 27.65 3.48 9.38 7 18.76 10.88 28 7.46 17.59 16.18 35.52 30.23 48.83a3.34 3.34 0 0 0 5.54-3.23C771.74 430.49 763 417 758 402.36a70.86 70.86 0 0 1 .43-49c.67-1.82-2.15-2.52-2.86-.79z"/><path class="cls-1" d="M744.06 365.55c11.11 21 15.37 46.63 30.61 65.28 1.63 2 5.07.33 5-2.07a68.84 68.84 0 0 0-2.7-18.3 2 2 0 0 0-3.92 1.08 64 64 0 0 1 .76 17.22l5-2.07a134.84 134.84 0 0 1-18.16-30.56c-4.63-10.69-8.9-21.54-14.69-31.68a1.09 1.09 0 0 0-1.89 1.1zM750 345.59c15.86 27.82 32.57 55.13 51.48 81 2.11 2.88 8 2.41 7.6-2.06-1.49-15.77-14.25-27.77-22-40.75-1.61-2.7-5.55-.33-4.18 2.44 6.53 13.24 15.87 24.42 18.15 39.39l6.81-4c-22-23.1-39.08-50.29-55.86-77.24a1.17 1.17 0 0 0-2 1.18z"/><path class="cls-1" d="M748.68 341.54c14.1 8.8 24.66 21.51 34.36 34.79 9 12.26 17 25.92 27.82 36.69a3 3 0 0 0 5-2.94c-3.07-12-10.05-22.2-17.36-32-1.35-1.8-4.39-.17-3.1 1.81 6.38 9.87 12.48 20.07 14.64 31.78l5-2.94c-11.57-11.49-21.37-23.91-31.53-36.62-9.8-12.26-20.56-23.78-34.29-31.67a.63.63 0 0 0-.63 1.08zM786.19 345.47c10.85 14.37 18.35 31.92 32.16 43.86 1 .9 3 .38 2.93-1.22-.57-9-4.36-16.32-9.07-23.83a1.41 1.41 0 0 0-2.43 1.42c3.94 7.08 7.55 14.2 8.07 22.41l2.93-1.22C807 375 798.93 358.33 787.66 344.34c-.66-.82-2.12.29-1.47 1.14zM798.19 321.47c18.65 26.39 36.47 54.48 63.59 73.06a2 2 0 0 0 2.92-1.67c-.07-3.84-2-5.77-4.28-8.69-1.24-1.62-4-.17-2.83 1.66 1.53 2.39 3.12 4.06 3.24 7l2.92-1.67c-27-17.72-45.07-45.13-63.93-70.66-.7-1-2.32 0-1.62.95zM838.26 339.43c13.09 18.11 29 33.85 43.8 50.51 1.14 1.28 3-.62 1.88-1.88-14.93-16.32-31-31.7-44.2-49.49-.65-.87-2.14 0-1.48.87zM1218.25 517.21c9.06 23.19 30.56 37.57 42.82 58.7 1.27 2.19 4.09.59 3.79-1.6-3.4-24.46-25.49-41.69-39.35-60.46a2.67 2.67 0 0 0-4.61 2.69c13.36 29.84 36.69 54.29 57.73 78.83 2.44 2.85 6.29-.3 5.74-3.34-2.86-15.93-13.66-29.75-24.13-41.54-11.24-12.65-23.9-23.91-36.59-35.07a3.41 3.41 0 0 0-5.65 3.29c3.73 17.45 12.54 33.67 21.65 48.84 9.5 15.82 20.19 30.88 30.47 46.2a3.59 3.59 0 0 0 6.53-2.75c-3.12-18.35-16.12-33.94-29.57-46-13.83-12.44-29.9-23-47.33-29.58-2.44-.93-5 1.89-4.25 4.25 5.2 15.72 16.28 29.18 27.26 41.27 11.79 13 24.73 24.82 37.7 36.59 2.85 2.59 6.71 0 6.12-3.56-4.12-24.8-28.37-37.21-43-55.27l-4.9 4.9c20.65 20.89 38.43 46.56 65 60.56a3.33 3.33 0 0 0 4.8-2c9.33-23.82-9-50.52-22.84-68.55l-5.08 3.92c17.32 14.9 29.83 34.25 44.44 51.61 1.67 2 4.61.65 5.34-1.41 5.06-14.18-2.55-29.82-10.08-41.62a168.85 168.85 0 0 0-30.48-35.36 3.14 3.14 0 0 0-4.44 4.44c20.36 24.46 38.89 53 66.2 70.31 3.22 2 5.8-2.81 2.92-5-25.55-19.33-44.41-45.32-64.68-69.75l-4.44 4.44a165.39 165.39 0 0 1 28 31.88c7.21 10.84 15.64 25.61 10.85 39l5.34-1.41c-14.59-17.38-27.08-36.75-44.39-51.66-2.57-2.21-7.46.82-5.08 3.92 12.79 16.63 30.77 41.52 22.12 63.55l4.8-2c-26-13.75-43.23-39.22-63.34-59.82-3.2-3.27-7.62 1.5-4.9 4.9 13.68 17.16 36.8 29 40.8 52.31l6.12-3.56c-12.27-11-24.51-22.11-35.8-34.16-11-11.7-22.58-24.85-27.67-40.36l-4.25 4.25c16.22 6.22 31.33 16.28 44.17 27.9 12.63 11.43 24.64 25.7 27.67 42.95l6.53-2.75c-10.07-14.82-20.53-29.38-29.91-44.66-9.26-15.08-18.15-31.1-21.86-48.57l-5.65 3.29c11.93 10.51 23.83 21.12 34.55 32.89 10.48 11.5 21.52 25 24.32 40.77l5.74-3.34c-20.84-24.36-44.35-47.16-58-76.67l-4.61 2.69c13.83 18.26 35.94 35.11 40 58.87l3.79-1.6c-12.87-20.74-34.88-34.61-45-57.21-.36-.8-1.75-.22-1.43.6zM1295.08 248.7c-4.54-.83-9.12-.09-13.66-.84a1.3 1.3 0 0 0-1.58 1.58c8.38 27.68 28.34 51.06 46.73 72.69 9.51 11.19 19.52 21.94 29.11 33.06 9 10.48 18.37 20.46 29.47 28.8a80.27 80.27 0 0 0 18.94 10.75c6.48 2.54 16.75 6.12 23.12 2a4.48 4.48 0 0 0 1.57-6c-2.87-5.45-10.32-7.65-15.63-10.12-5.56-2.58-11.15-5.09-16.56-8-11.3-6-21.21-14-30.64-22.6-21-19.14-41.8-38.86-59.34-61.28a186 186 0 0 1-24.41-40.37l-.77 1.89a34 34 0 0 1 13.49-1c.39.05.57-.53.17-.6zM1253.44 286.56c-2.41-2-4.2-2.46-6.73-.44a.74.74 0 0 0-.2.74c10.69 30.87 33 57 55.44 80.1 21.8 22.41 45 44.5 69.75 63.7 11.63 9 28.58 21.36 44.16 15.5 2.67-1 3.53-5.76 0-6.33-13.14-2.11-25.54-9.59-36.51-16.78-11.42-7.48-22.25-16-33-24.37-25.81-20.14-50.44-42.21-71.1-67.7a219.84 219.84 0 0 1-15.82-22.08c-2.3-3.68-4.46-7.45-6.44-11.32q-1.27-2.49-2.44-5-.57-1.25-1.12-2.52l-1-2.33q2.43-2.4 4.21-.17c.56.43 1.3-.53.76-1z"/><path class="cls-1" d="M1324.26 373.43c15.11 24.79 34.31 46.89 55.28 66.89 10.89 10.39 22.29 20.23 34.09 29.57 10.86 8.61 22.11 18.29 34.63 24.39 1.42.69 3.14-1.15 1.8-2.33-10.09-8.9-22-15.92-32.71-24.07-12.08-9.2-23.76-18.92-34.94-29.2-21.41-19.69-41.08-41.49-56.66-66.12-.59-.93-2.06-.08-1.48.87zM915.06 393.06c7.75-8 12-18.93 15.29-29.36 4.16-13 6.91-26.45 9.7-39.82a271.11 271.11 0 0 1 10.44-38.37c3.17-8.67 6.61-17.25 9.62-26 1.59-4.59 3.07-9.22 4.31-13.91 1.06-4 2.54-8.44 2.22-12.62a1.65 1.65 0 0 0-3.22-.44c-1.68 4.28-2 9.3-3.13 13.79-1 4.12-2.27 8.2-3.58 12.25-2.83 8.78-6.08 17.41-9.06 26.13a259.44 259.44 0 0 0-9.27 36.7c-2.39 12.77-4.62 25.61-8 38.17-3.13 11.7-7.1 24.25-15.46 33.34-.07.07 0 .18.11.11zM781 332.93a15.2 15.2 0 0 0-6-2.42c-.08 0-.2 0-.19.14 5.09 46.56 18 91.81 30.14 136.89.4 1.47 3 1.71 3.23 0 7.32-54.18-44.62-91.47-53.81-141.68L753 327c35.51 23.14 50.56 73 93.63 85.45a1 1 0 0 0 1.08-.44c9.33-14.75 7.05-33 3.22-49.18-4.22-17.77-11.75-34.94-14.2-53.1l-1.49 1.15c13.86 8.67 25.8 20.5 36.61 32.66s20.83 25.42 28.38 39.95c.52 1 1.94.12 1.48-.87-6.85-14.93-17.57-28.31-28.43-40.51s-23-24.21-37-33c-.84-.52-1.6.34-1.49 1.15 2 14.82 7.57 29 11.63 43.32 4.26 15.06 8.56 32.07 4.12 47.58-.65 2.27-2.06 8.43-4.59 9.08-1 .26-3.75-1.24-4.7-1.62a61.94 61.94 0 0 1-6.49-3 86.36 86.36 0 0 1-18-13.12c-10.85-10.05-19.87-21.87-29.14-33.33-10-12.35-20.35-24.92-33.67-33.83-.76-.51-1.53.33-1.4 1.08 8.57 50.15 58.43 87 52.35 140.73l3.29-.45c-6.68-22.73-13.47-45.42-19.39-68.36-2.91-11.27-5.61-22.6-8-34q-1.79-8.66-3.28-17.37-.77-4.53-1.44-9.08a19.34 19.34 0 0 1-.52-3.62c.28-4.83 2.75-2.75 5.32-1.16.09.05.16-.08.08-.13zM908.93 857c3.94 6.56 7 13.63 11 20.14 2.92 4.73 6.59 10 12.21 11.6 1.14.32 2.55-.84 2.07-2.07-9.71-24.74-32-42.49-38.87-68.66l-4.06 2.36c21.13 20.32 32.65 48.27 53.3 69 1.92 1.93 6.29.66 5.89-2.44-4-31.42-29.65-54.63-37.72-84.74l-5.33 4.09c26.91 12.94 39.1 42.49 61.77 60.57 4 3.19 9.62-2 5.76-5.76-25.5-24.66-47.32-52.82-61.91-85.31l-6.08 4.69c16.4 18 30 38.45 45 57.63 3 3.84 8.15-.48 7.42-4.32-5.1-27.06-27.46-45.84-39.78-69.44l-6.1 6.1c17.58 8.79 30.66 25.29 43.1 40 11.91 14.08 23.69 30.62 40.78 38.76 8.34 4 15.69-8.13 7.33-12.55-34.2-18.06-51.89-56.58-86.72-73.91a4.49 4.49 0 0 0-6.1 6.1c11.83 23 32.92 41.38 38.91 67.3l7.42-4.32c-15.76-18.53-29.48-38.71-45.76-56.82-3.17-3.52-7.73 1-6.08 4.69 14.56 32.93 36.66 62.55 62.84 87.16l5.76-5.76c-23.45-18.15-36.41-47.76-63.87-61.07-2.78-1.35-6.18.88-5.33 4.09 8 30 31.46 53.13 37.93 83.73l5.77-3.36C928.09 864.67 916 837 894.7 817a2.45 2.45 0 0 0-4.06 2.36c7.19 26.13 28.76 44.76 40.48 68.66l1.9-2.47c-6.17-1.2-10.47-8-13.71-12.77-3.51-5.21-6.58-10.7-10.25-15.8-.06-.08-.19 0-.13.08zM1960.53 489c-.43 7.57-1.78 17-6.31 23.33l2.64.71c.36-9.25-.27-18.34.8-27.6a185.26 185.26 0 0 1 5.3-26.83 287.52 287.52 0 0 1 19.56-51.38c6.85-14 13.7-28.67 23.08-41.15 7.1-9.46 20.63-26.55 7.32-36.76-2.49-1.91-7.35-.58-8.6 2.26-2.37 5.37-3.62 10.95-6 16.36-2.55 5.85-5.9 11.34-8.86 17-7.63 14.55-13.36 30.46-19.18 45.8-6.32 16.66-11.64 33.78-14.78 51.34a188.62 188.62 0 0 0-2.87 25.11c-.37 8.51-.66 17.93 1.43 26.24a1.43 1.43 0 0 0 2.73 0c1.87-8.2 4.43-15.92 4.66-24.42 0-.61-.9-.6-.94 0z"/><path class="cls-1" d="M1916.39 588.65c-4.67 6.27-8.31 13.16-12.15 20l1.69.71c12.74-36.58 27-72.81 42.26-108.42 14.34-33.51 29.17-66.66 42.27-100.69 3.57-9.28 7.07-18.58 10.77-27.81s7.9-18.53 10.37-28.11c1.12-4.36-4.73-8.39-8-4.64-11.44 13.26-17.2 31.32-22.76 47.62-5.72 16.75-10.54 33.78-16.5 50.45-12.93 36.16-26.76 72-39.42 108.26-7.28 20.84-14.09 41.82-20.8 62.85a.93.93 0 0 0 1.69.71c3.71-6.86 7.21-13.82 11.77-20.17.53-.74-.68-1.42-1.21-.71zM1928.43 524.61c-4.59-16.08.41-32.55 3.69-48.37 3.53-17 6.85-34.08 10.48-51.08 6.46-30.26 12.71-60.52 18-91 2.22-12.88 4.8-26 5.17-39.14.09-3.15-4.48-3.63-5.37-.73-3.44 11.26-4.93 23.24-6.65 34.86-2 13.58-4.06 27.16-6.39 40.7-6 35.16-12.79 70.22-19.21 105.3-3 16.5-7.7 33.7-2.55 50.27a1.49 1.49 0 0 0 2.86-.79zM1885.83 510.77c-7.5-25.5.39-54.43 7.41-79.16 7.35-25.89 16.31-51.15 22.56-77.36a347.41 347.41 0 0 1 17-52.76c.86-2.08-2.3-3.07-3.43-1.44-9.31 13.41-12.71 30.74-16.22 46.42-3.09 13.82-6.1 27.59-10.12 41.18-8 26.89-17.05 53.72-20.7 81.63-1.82 13.89-2.37 28.42 1.83 41.95a.86.86 0 0 0 1.66-.46zM1883.75 388.79c-3.95-25.31 5-51.88 13.74-75.29 4.74-12.64 10.27-24.93 15.92-37.18 5.31-11.5 10.39-23.14 16.27-34.36 4.39-8.37 8.95-16.68 13.69-24.85 4.65-8 11.53-16.69 12.26-26.12.45-5.78-7.55-8.71-11.34-4.7-5.8 6.16-7.84 15.81-10.88 23.57s-6.46 15.64-9.59 23.5c-5.13 12.87-9.85 25.9-14.91 38.79-9.95 25.35-20.31 51.15-25.41 78-2.44 12.84-3.65 26.11-1.27 39 .18 1 1.66.56 1.51-.42zM1243 715.07c2.14-1 4.09-1.17 5.78-3.14l-15.69-2c2 2.87 3.86 5.51 6.95 7.35 3.72 2.22 3.45 1.37 7.22 3.54 4.47 2.58 8.9 5.35 13.23 8.15 9.89 6.39 19.23 13 29.9 18.11a255 255 0 0 0 38.6 14.87c6.08 1.77 12.23 3.33 18.41 4.73 8 1.81 18.56 5.42 26.33 2.26 7.46-3 14.14-9.21 13.74-18.05-.36-8.06-5.52-16.08-13.74-18.05q1.83.93-.27-.18c-5.1-2.77-13.2-1.69-15.89 4.17a15.49 15.49 0 0 1-1 2l8.31-6.39-1.06.36 18.21 4.81c-7-6.47-15.28-7-24.14-8.9-6.5-1.37-13-2.92-19.35-4.71-6.1-1.7-12.16-3.58-18.15-5.66q-4.74-1.65-9.41-3.5c-.38-.15-4.7-2-2.84-1.15 1.39.61-3-1.38-3.69-1.68-10.36-4.78-19.79-11.28-30.18-16-12.75-5.8-32.12-10-41.14 3.8-4.4 6.73 1.5 14.61 8.63 15 1.56.09-1.86-.25.31.1.24 0 .74.22 1 .11zM1264.57 641.74c29 20.23 60.52 36.49 91 54.43 14.4 8.49 28.54 17.18 41.77 27.42 5.6 4.34 11.07 8.92 17 12.75s12.75 8 19.84 7c4.41-.61 6.07-7.52 2.7-10.24-6.92-5.58-12.79-12.57-19.61-18.36a3.21 3.21 0 0 0-4.53 4.53c4.79 5.91 10.94 12.69 13.9 19.79l7.54-7.54c-2.95-1.11-6.18-.86-9.22-1.71a55 55 0 0 1-9.76-4c-6.48-3.25-12.44-7.26-18.53-11.18-13.55-8.73-28-16.26-42.23-23.81-30.14-16-60.63-31.48-89-50.52-.92-.62-1.77.86-.87 1.48zM1304.5 609.5c22.6 17.93 43.69 37.63 65.63 56.34 10.12 8.63 20.36 17.11 30.49 25.73 6.78 5.76 18.35 15.83 27.52 9.39a2.3 2.3 0 0 0-.54-4.14c-4.91-1.42-9.88-2.48-14.39-5-5-2.81-9.46-6.45-14-9.92-10.52-8.06-21.33-15.66-31.67-24-20.67-16.59-40.84-33.81-62.2-49.51-.64-.47-1.48.61-.85 1.1zM1393.9 598.1c22.5 21.55 44.92 43.29 69.29 62.75a383.59 383.59 0 0 0 36.33 25.93c12.83 8 26.39 15.81 41 19.95a1.8 1.8 0 0 0 1.38-3.28c-13.4-7.4-27.35-13.69-40.46-21.65a384.55 384.55 0 0 1-37-25.78c-23.93-18.69-46.09-39.49-68.33-60.13-1.47-1.36-3.67.81-2.21 2.21z"/></svg>