<svg id="Layer_3" data-name="Layer 3" xmlns="http://www.w3.org/2000/svg" viewBox="0 0 2000 1200"><defs><style>.cls-1{fill:#ffe810}</style></defs><title>2</title><path class="cls-1" d="M295 1201.82c-2-3.44-2.41-6.14-6-8.47l-2.05 4.87c11.6 4.83 23.31 9.42 35 14 11.31 4.46 24.23 10.62 36.41 11.51 4.28.31 8.57-3 10.09-6.79 1.79-4.46.6-8.41-2.28-12.06-17.6-22.22-44.22-41.49-72.88-44.76-5.52-.63-11.28 4.14-13.19 8.87-2.26 5.61-1 11.26 3 15.76 10 11.33 23.21 20.57 35 30s23.49 19.18 34.92 29.18l11.18-27c-30.72.28-60.13-8.37-90.92-11.56v27.07c10.6.83 22.42 4.92 33.7 7.64 12.84 3.1 25.74 4.77 38.82 2.22 7.55-1.47 11.57-11.81 7.36-18.1C342.84 1208.81 328 1198 315 1185l-10.92 18.76c25 8.31 48.75 19.81 74.05 27.2 7.56 2.21 15-5.23 12.78-12.78-5.49-18.92-23.32-30.53-39.87-39.1-16-8.31-34-14.05-48.82-24.59l-7.55 17.9c33.48 7.27 60.88 30.62 94 39.3 8 2.09 16.22-5.42 13.67-13.67-4.78-15.42-18.45-26.78-30.58-36.54-13.14-10.58-26.06-18.77-37.9-30.19l-11.11 19.09c13.88 3.06 25.67 11.55 37.6 19.14 12.91 8.21 26.37 15.64 41.88 17 4.61.41 9.3-3.33 10.92-7.34 1.87-4.66.8-9.3-2.47-13.05-27.24-31.18-62.38-54.34-93.65-81.13l-7.78 19c23.93 2.4 47 16.45 66.9 29.8 21.65 14.54 42.48 31.3 66.35 42.12 12.89 5.84 24.45-8.41 15.08-19.54-32.85-39-81.56-59.42-116.72-95.86l-8.47 20.44c8 1 18.36 4.72 26.16 8.73 9.78 5 19 11.1 28.15 17.17 17.54 11.63 35.72 24.2 56.7 28.55 11 2.29 19.63-8.57 14.38-18.7-10-19.35-31.4-30.81-50.13-40.3-18.93-9.59-39.43-17.16-56.66-29.75l-2.81 21.34c6.87-2.5 11.06-2.56 18.93-2.06a150.45 150.45 0 0 1 22.65 3.63c16.27 3.52 32.39 8.28 49.08 9.29 11.66.71 16.2-16.72 6-22-13.68-7.13-28.89-12.19-42.24-18.19a157.66 157.66 0 0 1-20.81-11 45.22 45.22 0 0 1-7.49-5.61 50.22 50.22 0 0 1-3.66-3.65c-.49-.55-1-1.11-1.45-1.69 1.21 1.56-.74-1.19-.77-1.25l-4 15.39a26.3 26.3 0 0 1 3.92-2.4c-2.5 1.31-.33.14.4 0 1-.25 2-.56 3-.77.32-.07 3.23-.56 1.72-.35s1.58-.13 1.93-.15c2.09-.15 4.19-.18 6.28-.15 10.16.17 17.51 1.46 27.6 3.65 17.39 3.78 34.38 9.76 51.91 12.81 12.21 2.13 19-12.79 8.45-20-23.77-16.31-52.41-25.33-74.18-44.56v15.36c1.46-1.36-2 1.45-.45.35 1.42-1 .81-.27-.4 0 1.36-.36 2.69-.73 4.06-1.05-2.85.67 1.71-.1 2.86-.13 1.88-.05 3.76 0 5.64.1a90.13 90.13 0 0 1 11 1.22c4.66.76 9.29 1.7 13.9 2.73 15.47 3.47 30.66 8.06 45.76 12.88 5.47 1.75 11.6-2.05 13.08-7.43 1.67-6.06-2.08-10.93-7.43-13.08-27.47-11-55.48-20.62-82.59-32.56l-7 16.67c32.4 4.37 65 7.32 97.18 13.5 9.65 1.85 15.88-10.82 6.87-16.29-13.62-8.27-28.7-13.93-43.07-20.72-12.88-6.08-28.52-13.16-36.27-25.79l-4.94 12.13c21-4.68 42.73-3.71 64.07-3.51 6.86.07 10.94-9 5.74-13.86-12.46-11.46-29.8-16.86-44.83-23.61-8.1-3.64-16.21-7.44-23.66-12.31a45.26 45.26 0 0 1-8.38-6.83 17.49 17.49 0 0 1-4-6.49l-9.72 9.72c34 7.58 64.45 25.52 98.08 34.29 10.27 2.68 13.44-11.55 4.25-15.41-22.56-9.5-44.7-20.13-68-27.71-10.06-3.27-14.37 12.56-4.36 15.82 23.31 7.58 45.51 17.93 68.13 27.31l4.25-15.41c-33.67-8.57-64.2-26.4-98.13-34.11-5.68-1.29-11.53 3.71-9.72 9.72 5.16 17.08 23.86 26.24 38.79 33.25 8.64 4.05 17.46 7.71 26.11 11.75 3.84 1.8 7.67 3.67 11.35 5.78a39.47 39.47 0 0 1 8.26 5.75l5.74-13.86c-22.87-.32-46-1.11-68.46 3.81-5.19 1.13-7.59 7.76-4.94 12.13 8.83 14.54 24.49 23.79 39.22 31.38 14.94 7.7 31 13.5 45.38 22.18l6.87-16.29c-32.16-6-64.83-8.42-97.07-13.9-4.47-.76-9 .8-10.76 5.28-1.58 3.92-.42 9.39 3.73 11.39 28.18 13.58 57.24 25.38 86.15 37.31l5.65-20.51c-16.59-5.38-33.3-10.51-50.38-14.13-15.67-3.32-39.64-9.18-53 3.13-4.14 3.82-4.25 11.57 0 15.36 23.26 20.75 53 30.8 78.48 48.14l8.45-20c-18.79-3.2-37-9.51-55.72-13.4-10.58-2.2-21.46-4.13-32.31-4.11-8.74 0-18.68 1.26-25.9 6.62-4.75 3.53-7.57 9.79-4 15.39 9.09 14.41 24.39 23.46 39.39 30.66 15.38 7.39 29.4 12.06 44.51 19.77l6-22c-7.58-.4-13.52-1.61-21.66-3.35-8.56-1.84-17.07-3.9-25.64-5.67-15.89-3.27-33.85-6.43-49.58-.74-10 3.6-11 15.33-2.79 21.38 16.47 12.09 36 19.55 54.16 28.65 4.81 2.41 9.58 4.91 14.24 7.59 2.26 1.3 4.5 2.64 6.7 4.05 1.46.94 3.8 2.68 4.69 3.39a81.39 81.39 0 0 1 10 9.38c.77.86 1.49 1.75 2.22 2.63l1.05 1.34-.29-.38a54.59 54.59 0 0 1 3.81 6l14.38-18.7c-10.74-2.05-17.68-5.22-27-10.39-9.53-5.26-18.6-11.31-27.79-17.15-19.49-12.4-39.69-23.52-63-26.31-4.57-.55-9.37 3.45-10.94 7.36a12.11 12.11 0 0 0 2.48 13.08c35.05 36.42 83.63 57.12 116.05 96.47l15.08-19.54c-24.78-11.58-47.07-27.56-70.32-41.8-23.43-14.35-47.69-28-75.49-30.82-9.42-1-14.85 12.9-7.84 18.93 31.28 26.92 66 50.25 92.44 82.34l8.45-20.39c-3.87-.38-10.78-2.6-15.17-4.74-6.53-3.19-12.72-7-18.89-10.86-12.32-7.61-25-15.59-39.35-18.69-10.67-2.3-19.77 10.81-11.11 19.09 11 10.48 24.23 19.18 35.86 28.32a191.58 191.58 0 0 1 18.09 15.72c1.26 1.27 2.49 2.57 3.67 3.92.5.57 1 1.15 1.47 1.73 2.23 2.72-.58-.84.55.73a41.45 41.45 0 0 1 2.49 3.78c.31.55.57 1.12.88 1.66 1.4 2.51-.67-2 .2.62l13.67-13.67c-33.21-7.89-61.32-29.11-94.7-36.76-11.26-2.58-16.36 11.48-7.55 17.9 13.66 10 30.22 15.73 45.18 23.4 7.2 3.69 15.9 8.56 21.32 13a50.9 50.9 0 0 1 8.36 8.29c-1.06-1.39.56.91.75 1.19.54.84 1 1.7 1.5 2.56.21.38 1.25 2.94.55 1.08.34.91.62 1.84.88 2.78l12.74-12.72c-25.34-7.4-48.81-19.92-73.61-28.8-11.06-4-18.16 11.13-10.92 18.76 11.18 11.77 24.5 21.46 32.71 35.74l10.64-18.54c-22.7 2.82-43.62-8.88-65.64-12.25-7.22-1.11-14.55 1.83-16.65 9.45-1.8 6.55 2.22 15.35 9.45 16.65 31.49 5.64 62.35 15.46 94.52 16.59 13.64.48 20.93-17.66 11.18-27-11.7-11.18-25.07-20.64-38-30.3-12.73-9.51-23.94-19.42-36.74-29.14l-7.3 26.84c1.32 0 2.63.11 4 .22-2.88-.24 1.06.19 1.67.32a70.81 70.81 0 0 1 8.37 2.25 81.62 81.62 0 0 1 15.76 7.29 118.53 118.53 0 0 1 27.51 21.44l7.81-18.85c-5.64-.24-11.27.9-17.07.94a123.61 123.61 0 0 1-18.2-1.16 191.13 191.13 0 0 1-34.72-8.38c-2.88-1-4.66 3.4-2.05 4.87s3 3.86 4.6 6.23 5.58.27 4-2.37zM294.73 852c1-.14.24 0-.26-.6a20.34 20.34 0 0 0-2.16-1.77c-2.09-1.75-4.13-3.56-6.19-5.33-6.17-5.3-12.33-10.62-18.42-16-10.85-9.6-22.65-19-32-30.15l-3.7 6.35c17.43 6.7 32.31 18.4 46.84 29.85a416.31 416.31 0 0 0 45.26 31.3c8 4.76 16-3.06 14.55-11.19-3-17.45-18.1-34.27-29.82-47.19-12.32-13.59-25.93-25.94-38.39-39.39l-15.64 20.27c24.82 10.69 42.06 31.47 66.26 43.87 7.1 3.64 15.48 2.36 20.46-4.09a15.92 15.92 0 0 0-1.24-20.83c-4.12-4.29-9.76-7.54-14.57-11s-7.49-5.48-11.42-8.81-8-7-11.8-10.74c-1.94-1.92-3.82-3.9-5.63-5.93-.89-1-1.74-2-2.61-3-1.9-2.23.41.67-1.44-1.87l-20.88 20.88a206.24 206.24 0 0 1 28.32 15.62q6.69 4.33 13.1 9.09c.63.47 2.92 2.29 1.22.93q1.52 1.23 3 2.47c2.1 1.75 4.15 3.54 6.16 5.39 6 5.58 14.95 6.37 21.54 1.28a16.43 16.43 0 0 0 4.22-21.16c-5.21-9-12.88-16.21-20.26-23.42a176.36 176.36 0 0 1-9.33-9.81c-1.15-1.31 1.06 1.66-.55-.68-.65-.94-1.29-1.87-1.88-2.84s-1.09-2-1.65-2.93c-1.59-2.76.62 2-.52-1.32l-10.57 18.62c1.3-.4 2.6-.77 3.93-1.05 2.56-.55-3-.08 1.6-.2a64.27 64.27 0 0 1 7.28.25c2.94.25-3.43-.64 1.69.2q1.63.27 3.26.58c2.73.51 5.44 1.1 8.16 1.68 4.82 1 9.66 2 14.51 2.88a62.2 62.2 0 0 0 21.14.37c9.35-1.4 12.39-12.13 11.28-19.86-1.65-11.46-8.1-21.29-13.05-31.52l-9.23 22.68c-3.75.51.47.24 1 .24 1.05 0 2.1.08 3.16.14 1.8.1 2.31.39.24 0 1.23.24 2.45.46 3.67.75 2.24.54 4.42 1.26 6.6 2 1.49.51 2.36.91.39.06 1.17.5 2.34 1 3.49 1.61 8.54 4.16 16.4 9.57 24.18 15 16.94 11.78 33.79 23.13 54.84 25.34 5 .53 10-2.74 12.94-6.5 3.44-4.45 3.81-9 3-14.37-1.49-9.36-6.49-17.69-11.38-25.64-2.18-3.55-4.14-7.19-6-10.9-1-2 .56 2.16 0 0-.26-1.08-.72-2.13-1-3.21-.22-.87-.42-1.75-.55-2.63.54 3.61.22-.79.22-1.33l-19.71 15a66.58 66.58 0 0 1 10.07 2.13c1.54.47 3.07 1 4.58 1.59q1.15.43 2.28.89-1.47-.62 0 0a160.22 160.22 0 0 1 18.47 10c11.76 7.3 22.49 16.43 34.38 23.44 7.09 4.18 15.23 2.36 21.15-2.73-1.59 1.37-1.9.93 0 .2 2.21-.84-3.14 1.12-.93.48q2-.48-1.8.13l4.55-.61s-4 .05-1.15.27c.19 0 3.93.13 1.34-.06s1.37.39 1.46.39c-1 0-1.79-1.09-.09-.07 1 .57 1.89 1.15 2.81 1.76.75.5 1.48 1 2.22 1.55 2 1.44-2.61-2.23.7.54 1.56 1.31 3.11 2.62 4.62 4 2.89 2.61 5.68 5.33 8.49 8 10.12 9.71 25.79 2.33 26.6-11 1-16.14.3-32.38.81-48.55.27-8.44.64-16.87 1.3-25.29q.44-5.63 1.07-11.25.2-1.72.41-3.44c0 .38-.28 2 0 0q.49-3.41 1.08-6.8a184 184 0 0 1 5.57-23.38q1.8-5.76 4-11.37c.74-1.83.11-.27 0 .08.46-1.06.94-2.12 1.44-3.16q1.29-2.75 2.71-5.45a162.25 162.25 0 0 1 13-20.68c.51-.7 3-3.86 1.24-1.68 1.2-1.5 2.4-3 3.62-4.47q3.94-4.73 8.1-9.26c12-13.07 25.24-24.83 37.3-37.79 5.5-5.91 7.53-15.62 2.94-22.77-3.5-5.45-7.94-10-14.38-11.77-4-1.11-7.47-.71-11.43-.57a16.32 16.32 0 0 0-16 14.09c-1.15 8.59 4 14.73 11.64 17.83 1.3.53 5.83 2.89.75.13q3.9 2.26-4-4.22-1.66-4.27-1-1l4.83-18.28c-23.09 23.85-48 48.15-63.73 77.7-17 31.85-21.25 67.55-21.68 103.16-.24 19.4-.39 38.76-.83 58.16l26.6-11c-8.29-7.37-16.73-15.6-26.79-20.52l1 1a27.77 27.77 0 0 0-4.16-3.07 30.11 30.11 0 0 0-3.15-1.65c-4.21-1.92-8.06-3.34-12.74-3.62a30.39 30.39 0 0 0-19.57 5.87h17.62c-11.87-7.92-24.54-15.39-37.07-22.23-13.12-7.16-27.24-13.33-42.07-15.77-10.13-1.67-19.31 4.1-19.71 15-.39 10.7 3.56 20.62 8.64 29.84 2 3.67 4.16 7.27 6 11 0 0 1.86 3.78.94 1.82s.67 1.83.68 1.87c.29.85.55 1.72.78 2.59.18.7.78 5 .35 1L452.93 766c-4-.42 3.62.86-.31-.06-1-.23-1.94-.41-2.9-.65a60.65 60.65 0 0 1-6.32-2c-.79-.29-4.19-2.07-.64-.22-.92-.48-1.89-.87-2.83-1.33-2.1-1-4.15-2.14-6.18-3.29-8.46-4.82-16.41-10.47-24.56-15.77-17.66-11.49-36.41-20.45-58-19.15-12.61.76-18 12.32-13.33 23.23 1.77 4.13 3.84 8.12 5.62 12.25-.8-1.87 1.2 3.36 1.37 4q.49 1.6.84 3.23.56 2.92.16.79L362 750.81a85.36 85.36 0 0 1-15.91.37c1.68.14-.11 0-.79-.14l-4.09-.73c-2.74-.5-5.47-1-8.21-1.52-12.17-2.13-24.21-3.22-36.33-.16-7.85 2-12.82 10.88-10.57 18.62 3.24 11.15 10.05 20.29 17.7 28.83 3.21 3.59 6.57 7 9.77 10.65 1 1.07 1.87 2.17 2.81 3.25 2 2.29-.56-.94.5.55 1.46 2.05 2.94 4.09 4.28 6.22L347 796.88c-17.79-15.25-38.32-27.06-59.61-36.67-6.28-2.83-13.35-2.76-18.5 2.39-4.47 4.47-6.3 13.07-2.39 18.5a158.29 158.29 0 0 0 25.46 27.36q6.65 5.73 13.44 11.32c5 4.08 10.08 9.17 15.7 12.25l12.22-29c-1.49-.43-3-.88-4.44-1.39q-1.47-.51-2.91-1.07 1.43.52 0-.11c-2.86-1.42-5.63-3-8.36-4.65-5.77-3.48-11.32-7.29-16.88-11.08-11.5-7.82-22.86-15.24-35.95-20.17-12.43-4.68-21.26 13-12.56 21.57 12.51 12.3 26 23.61 38.4 36a190.63 190.63 0 0 1 16.95 18.74c5.1 6.64 9 14.33 13 21.24l11.19-14.55c-18-3.25-33.57-15.32-48.53-25.24-15.46-10.23-31.23-20.13-49.23-25.13-3.63-1-6.4 3.68-3.69 6.34 11.35 11.13 24.61 20.7 37.14 30.44 6.36 4.95 12.7 10 19.26 14.65 1.58 1.12 6.3 5.88 8.55 5.37 1.31-.3.71-2.13-.54-2zM140.75 486c-7.24-11.06-22.28-18.16-35.28-18.22-4.77 0-7.47 7.46-2.6 9.6 9.34 4.1 20.53 6.17 29.46-.11a21.27 21.27 0 0 0 8.09-22.69c-2.37-9.3-10.72-15.67-19.8-17.67-8.82-1.95-20.08-2.14-28.16 2.52-13.86 8-8.74 25.13-.87 35.44 9 11.84 24.62 22.43 40.19 18.8 13.89-3.23 25.35-19.68 18.33-33.33-5.8-11.27-20.37-17-32-19.46-11.89-2.48-27.77-3.37-37.39 5.58-12.82 11.94-2.51 30.08 6 41 7 9 16.37 17.69 28.05 19.8a31.85 31.85 0 0 0 26.79-7.43c12.93-11 17.57-33.45 3.22-45.34a31.51 31.51 0 0 0-13.89-6.44 7.78 7.78 0 0 0-8.47 3.45 26 26 0 0 0-2.89 21.72c.84 3 4.07 5.94 7.39 5.62 15.83-1.53 22-17.68 23.73-31.51 1.56-12.72.72-30.19-9.35-39.58-2-1.88-5.32-3.2-8.08-2.14C121.87 410 113.1 418.32 106 428c-6.17 8.4-11.43 18.83-11.71 29.45-.31 11.63 7.64 20 19.1 20.9 14.3 1.13 29.43-6.54 40.85-14.37 16-10.94 32.24-26.48 34.75-46.59.95-7.62-8.51-10.93-14.11-8.1-10.55 5.34-19.66 13-30.06 18.6l12.93 12.93c11-15.23 16.61-33.59 22.54-51.21l-17.34-2.35c1.08 21-7 41.36-5.92 62.47.57 11 16.87 14.13 19.83 2.68 8-31 12.25-63.09 15.17-94.95h-21.59c-2.65 25.21-4.22 50.51-5.84 75.81h25c-3.8-29.95-4.15-61.43-13.51-90.34-2.36-7.29-13.36-12.19-19-5-2 2.48-4.32 4.57-6.25 7.07l14.16-1.84c1.21.83 1.59 1.65.53.3-.87-1.11.34-.11.65.9-.09-.29-.53-.56-.55-.87s-1.44-2.77-.51-.84c1.14 2.37-2-5.82-.61-1.5a82.43 82.43 0 0 1-3.12-12.6c-.09-.53-.16-1.06-.24-1.6 0 .19.24 2 .09.52-.12-1.13-.25-2.25-.35-3.38-.25-2.72-.44-5.45-.57-8.17-.25-5.16-.33-10.32-.31-15.48.08-20.64.39-41.76 5-61.94 3.45-15 8.62-29.66 17.42-42.43l-17.32 2.23a7.49 7.49 0 0 1 1.29 1.2c1.17 1.6-1.16-2.35 0 .06.3.61.67 1.24 1 1.83 1.26 2.14-.24-.82.08.14a68.08 68.08 0 0 1 2.73 10.93c.08.51.44 3.47.17 1.09q.18 1.6.32 3.2c.2 2.23.35 4.47.46 6.71.25 4.94.32 9.88.3 14.83-.05 16.72-2 33.59-1.11 50.29.84 16.2 25.17 16.42 25.34 0 .45-40.91-.42-82 7.67-122.33a229.37 229.37 0 0 1 7.3-28.9c1.31-3.82 3.58-7.55 5.43-11.16 2.39-4.65 4-8.83 6.49-14.28 8-17.62 17-34.8 25.21-52.35 5.14-11 10.2-22.15 14.27-33.59 1.78-5 3.43-10 4.91-15.14.82-2.81 1.75-5.67 2.31-8.55 1.21-6.26 0-10.94-2.49-16.58-3.66-8.32-13.8-9.9-21.54-8.77-5.6.82-10.54 6.26-12.57 11.08-.58 1.37-3.76 8-.27 1.31-4.64 8.87-2.57 21.2 6.87 26.19 8.81 4.66 21.23 2.61 26.19-6.87 1.4-2.68 2-5.45 3.05-8.21l-13.27 13.34h.21L233.92 5l-1.29-2.7V-7.83c-8.23 37.75-25.32 72.56-38.8 108.55a130.92 130.92 0 0 0-4.61 13.2c-1.25 4.9-2 9.95-3.23 14.85-2.46 9.61-5.41 19-7.39 28.74a428.14 428.14 0 0 0-7.49 62.37c-1.21 22.86-1.3 45.83-.69 68.71h25.34c-1.6-17.86-.11-36-.91-53.92a186.67 186.67 0 0 0-3.42-30.58c-1.6-7.51-4.45-16.39-10.7-21.38-5.72-4.57-13.07-4.18-17.32 2.23-16.86 25.47-24.9 56.64-26.31 86.92-1 21.09-2.38 42.22.67 63.21 1.54 10.62 5.09 23 15.4 28.35 5.66 2.93 12.67 1.47 16.05-4.21a33.69 33.69 0 0 1 3.9-5.21l-19-5c8.25 28.52 5.9 58.57 10.91 87.61 1 6 8.11 9.79 13.71 8.95a12.53 12.53 0 0 0 10.83-12.27c.48-25.28.92-50.56 2.44-75.81.35-5.82-5.21-10.79-10.79-10.79-6.24 0-10.31 5-10.79 10.79a723.79 723.79 0 0 1-13.06 89.58l19.83 2.68c-2.05-20.88 3.81-41.56 3.39-62.47-.21-10.36-14-11.47-17.34-2.35-6 16.13-12 32.12-21.84 46.36-5.61 8.09 5.16 17.31 12.93 12.93 10.28-5.8 19.43-13.39 30-18.73l-14.11-8.1c-.45 3.62-3.93 9.54-6.94 13.37A92.49 92.49 0 0 1 148 445.6a90.19 90.19 0 0 1-16.34 10.4 49.52 49.52 0 0 1-6.7 2.65c-1.44.47-2.89.9-4.36 1.26-.6.15-3.63.73-2.41.57-1.11.15-2.2.14-3.31.2a13.58 13.58 0 0 1-1.49-.06c.06 0 1.63.31.65.1-.72-.16-1.42-.34-2.12-.55 3.27 1-1.71-.77.1 0 1.56.65-.21-.18-.07-.18-.32 0 .2.63.56.79-.56-.25-1.17-2.94-.32-.22-.19-.62-.38-1.21-.52-1.85-.21-1 .1.93.09.9a16.81 16.81 0 0 1-.1-1.81c0-.75.05-1.49.11-2.24.07-1-.09.58-.1.63.07-.45.14-.93.25-1.38.47-2 1-3.85 1.66-5.76.17-.5.37-1 .57-1.49-.06.16-.47 1.08-.07.17s.94-2 1.45-3c1-1.93 2.08-3.81 3.25-5.63a51.25 51.25 0 0 1 9.17-10.88 27 27 0 0 1 4.64-3.71c.9-.6 1.83-1.17 2.78-1.69.52-.29 3.52-1.64 2.25-1.14l-8.08-2.14c.42.39 1.83 2.15 1 .92a19.51 19.51 0 0 1 1.53 2.66 12.77 12.77 0 0 1 .85 2.4c.36 1.18.66 2.38.92 3.59a56.28 56.28 0 0 1 .67 15.67 48.45 48.45 0 0 1-3.09 13.07c-1.1 2.39-1.69 3.49-3.17 4.74a3.61 3.61 0 0 1-1.39.9c-1.12.49.94-.53-.16 0a6.61 6.61 0 0 1-1.79.36l9.42 5.35c-1.36-4.08-1.3-6.45 1.07-10.07l-8.47 3.45a35.51 35.51 0 0 1 4.49 1.34 14.48 14.48 0 0 1 3.18 1.93 7.23 7.23 0 0 1 2.06 2.37c.11.15 1.12 2.21.47.67.27.64.43 1.33.65 2a24.24 24.24 0 0 1 .21 5.77 16.65 16.65 0 0 1-2.76 7.21 18.77 18.77 0 0 1-11.76 8.69c-5.11 1.19-12.15-1.5-17.45-5.94a59.86 59.86 0 0 1-15.24-19.65c-1-2.19.39 1.18-.42-.95-.24-.62-.46-1.26-.65-1.9s-.71-4-.57-2.14a21.74 21.74 0 0 1 0-2.59c.07-1.72 0 1.68 0 0 0-.52.93-2.42 0-.42.29-.62 1.89-2.76.49-1.14a18.28 18.28 0 0 1 1.73-1.71c-.86.76 0 0 1.06-.56 2-1.11-.31-.19 2-.85 1-.3 2.06-.6 3.12-.82.51-.11 3.21-.48 1.5-.28a50.22 50.22 0 0 1 7.94-.22 54.4 54.4 0 0 1 26.5 8.34c1.49 1 0-.23 1.45 1.12.71.64 1.38 1.3 2 2 1.17 1.21-.13-.51 1 1.33.24.4.46.8.68 1.21.58 1.07-.59-1.3.16.48a7.65 7.65 0 0 1 .32 1.29c0-.13-.27-1.65-.07-.47a6.46 6.46 0 0 1 0 1.35c-.08 1.58.39-1.52 0 .05-.6 2.48-.76 3-2.76 5.54A14.08 14.08 0 0 1 131 480a13.19 13.19 0 0 1-5.73 1.22c-4.27 0-8.82-1.8-13.14-4.54a43.12 43.12 0 0 1-11.21-10.53 37.94 37.94 0 0 1-2.16-3.42c-.32-.58-1.51-3.14-1.26-2.51a14.34 14.34 0 0 1-1.26-5.49 12.51 12.51 0 0 1 .08-1.54c-.22 1.69.15-.43.31-.75 0 0 .6-1 .66-1 1-1.12 2.77-2 5.29-2.58 6.8-1.61 16.81-1.25 22.39 3.44a9.71 9.71 0 0 1 1.94 13.48c-4 5.71-13.31 4.56-20 2.14l-1.37 10.12c12-.78 24 .39 32.09 10.38 1.45 1.79 4.45-.54 3.19-2.46zM1036.31 87c-1.49 12.63 1.4 25 3.47 37.43 2.11 12.66 2.37 25.66 2.69 38.48.66 26.73-.19 53.57-1.12 80.29-.93 26.89-3.3 53.7-4.38 80.57-1.13 28.06-1.9 56.14-2.5 84.22-.67 31.39-.8 62.77-.92 94.17h38.9c-.37-15.16-.53-30.35.23-45.5q.57-11.2 1.91-22.32c-.59 4.8.22-1.27.38-2.22.31-1.89.64-3.78 1-5.67q1.07-5.48 2.53-10.86h-38.2q1.2 7.15 2.23 14.32.21 1.44.4 2.87-.42-3.14 0 .46c.3 2.56.63 5.11.93 7.67q1.59 13.45 2.62 27c1.43 18.37 2.19 36.78 2.58 55.2.78 37.14 0 74.3.05 111.44 0 10.38 9.12 20.33 19.85 19.85 11-.49 19.55-8.72 19.85-19.85a80.5 80.5 0 0 0-2.12-19.78c-1.2-5.52-1.49-12.36-4.72-17.09l1.75 6.47a541.6 541.6 0 0 1 42.1-160.61l-24-6.5a124.11 124.11 0 0 1-.12 16.57q-.29 4.08-.74 8.16-.15 1.39-.32 2.77-.24 2.35-.15.9c.32-2.27-.6 4.58-.69 5.43-.17 1.67-.37 3.33-.58 5 .32-2.5-.22 1.5-.28 1.93q-.66 4.36-1.46 8.7-1.76 9.53-4.21 18.91-2.36 9-5.39 17.81-1.56 4.5-3.31 8.94c0 .1-1.81 4.37-.7 1.77q-.84 2-1.73 3.91a156.13 156.13 0 0 1-8.33 15.86c-1.36 2.25-2.81 4.44-4.23 6.65-.69 1.07-1.39 2.14-2.11 3.19-.35.51-3.53 4.8-1.35 2h21c-.76-.6-1.39-1.44-2.14-2-1.31-1 1.31 1.2 1 1.23a6.72 6.72 0 0 1-.71-1.18c-1.52-3 .49 2-.35-.52-.39-1.19-.8-2.34-1.1-3.56s-.53-2.57-.8-3.86c-.59-2.75.12 2-.14-.88s-.5-5.74-.61-8.62c-.38-9.93.34-19.86 0-29.79-1.38-35.66-1.72-71.34-1.83-107s0-71.27-1.65-106.91-4.25-71-5.69-106.47a200 200 0 0 1 .67-29.16c1-9.22 1.65-18.93 2.61-28.73a316.22 316.22 0 0 1 10.92-56.75H1059c5.16 30.59.53 63.7.58 95.27h30.77c-.34-14.69-1.58-29.35-1.84-44-.13-7.18 0-14.36.54-21.52a85.75 85.75 0 0 1 3.7-19.09h-26.4c7.85 47.72 5.31 97 6.22 145.14.93 49.82 5.17 99.52 6 149.34.88 50.3-3.32 100.42-6.38 150.59s-6.18 100.63-12.25 150.65c-1.64 13.52-3.34 27-4.37 40.53-1.05 13.85-1.69 27.74-3.05 41.56-2.78 28.2-4.17 56.34-2.56 84.66l17.11-4.64c-1.93-3.27-4.54-6.07-6.42-9.37-5.68-10-21.08-1-15.38 9 1.88 3.29 4.18 6.3 5.94 9.65 4.3 8.17 17.18 4.25 17.11-4.64-.2-25.34 1.59-50.76 4.24-75.95 2.59-24.69 8.55-48.84 11.81-73.44 6.63-50 10.68-100.12 14.08-150.39s8.25-101 8.38-151.55c.13-50.06-4-99.87-6-149.85-2.14-55.1-.74-110.11-7.64-164.95-.85-6.76-4.55-12.58-11.87-13.45-7-.84-12.69 3.22-15 9.81-10.3 29.13-6.27 61.48-6.73 91.75-.12 8.05 7.16 15.75 15.39 15.39s15.36-6.76 15.39-15.39c.11-34.4 3.15-69-3.13-103-2.71-14.67-24.59-13.18-28.22 0-4.8 17.45-9 34.94-11.48 52.88-1.34 9.54-2.73 19.23-3.1 28.88-.32 8.6 1.06 17.31 1.62 25.89 1.2 18.38 1.47 36.86 2.47 55.26 1 18.05 2.06 36.1 3 54.16 1.85 37 2 73.82 2 110.8 0 36.67.42 73.34.9 110 .16 12.21-.9 24.41-.57 36.61.35 13 1.87 29.31 12.27 38.57 5.7 5.08 15.49 6.32 21 0 17.67-20.1 27.65-46.22 34-71.91a287.39 287.39 0 0 0 7-41.65c1.15-11.88.37-24.09-.62-36-.53-6.37-4.49-11.86-11.17-12.65-6.84-.81-11.64 3.11-14.13 9.23a712.71 712.71 0 0 0-27.21 82.26 548.82 548.82 0 0 0-16.83 88.32l3.75-9.06c-4.83 4.72-6.72 12.62-9 18.9a64 64 0 0 0-3.76 20.56h39.69c0-76.63 3-153.62-10.34-229.46-1.43-8.15-11.06-14.91-19.11-14.55-8.65.39-16.85 5.86-19.11 14.55-8.19 31.49-7.79 64.83-6.75 97.11.33 10.16 8.71 19.93 19.45 19.45 10.5-.47 19.49-8.55 19.45-19.45-.22-55.5-1.2-111-.93-166.49.27-54.56 0-109.19-7.81-163.28-2.09-14.39-4.28-29-7.83-43.08s-10-27.57-10.19-42.3c-.07-6.19-8.69-5.84-9.37 0zM997.08 743c.47-23.1-.86-46.12-1.92-69.18-.63-13.73-.94-27.46-2.33-41.14-2.46-24.29-6.07-49.33-4.17-73.76A69.81 69.81 0 0 1 991.3 543c.31-1 .78-2.09.61-1.73.59-1.27 1.23-2.44 1.75-3.76s-.61.59.51-1.12c.27-.41.29-.38-.1-.1 5.21-3.77 2.37-13.41-4.7-11.14-10.1 3.25-11.36 14.18-11.81 23.33-.61 12.5.71 25.3 2.05 37.72 2.71 25.09 7.26 49.93 10.23 75 3.22 27.21 6.27 54.43 7.07 81.84a.08.08 0 0 0 .16 0zM1660.89-19.11c-9.86 8-14.81 20-20.69 31-7.62 14.14-16.25 27.72-24.81 41.3-16.5 26.17-31.69 52.6-44.26 80.91-12 27-21.22 55.21-29 83.75-8.74 32.19-15.83 64.93-20.16 98a852.74 852.74 0 0 0-6.79 111.37c0 10.37 9.12 20.31 19.83 19.83s19.72-8.71 19.83-19.83c.08-8.48-4.21-14.42-6.7-22.17a94.73 94.73 0 0 0-6.08-15.34c-4.47-8.25-16.7-5.85-19.28 2.52-1.59 5.18-1.81 10.52-3.17 15.72-1.69 6.45-4.46 12.48-4.45 19.27h39.66c-.79-64.32 4.73-128.82 11.27-192.75 2.88-28.12 6.95-56.14 13.72-83.61 7.3-29.59 19-56.75 33.77-83.36 8.58-15.48 17.47-30.79 25.43-46.6 6.65-13.2 11.12-29.34 22-39.77.15-.14-.07-.35-.22-.22z"/><path class="cls-1" d="M1534.92 285c-10.34 31.16-30.85 57.82-36.72 90.62a192.84 192.84 0 0 0-2.51 52c.83 8.81 1.59 18.49 4.05 26.92a267.68 267.68 0 0 0 9 25.72c2 5 5.87 8.85 11.62 8.85a12.24 12.24 0 0 0 11.62-8.85c5.42-21.72 9.52-45.4 21-64.9l-20.93-5.67c2.54 25.16-6.71 49.68-4 74.9.61 5.71 5.48 10.94 11.77 9 12.72-4 20.62-14.44 26.79-25.68 5.08-9.26 9.59-21.64 18.4-27.64l-12.67-5.27c3.68 12.79-.41 27.89-6.61 39.27l15.07 2c-2.65-8.95-.12-21.68-5.5-31.05-6.65-11.59-21.66-9.17-30.73-2.35a72.73 72.73 0 0 0-12.82 12.83c-1.71 2.13-3.37 4.3-5 6.49l-2.09 2.79s-.79 1-.29.39c.31-.41-1.5 1.93-1.81 2.34-8.57 11.41-14.13 24.74-20 37.67-6.33 14-12.79 29-24.47 39.44l11.11 2.93c-4.93-15-.66-31.26-3.58-46.66-.52-2.75-3.41-4.44-6-4.56-11.06-.53-20.62 7-28.07 14.32-8.09 8-14.7 17.25-22 25.93-2.08 2.47-2.46 7.26 1.14 8.86 24 10.65 50.83 14.52 73.75 27.6 3.1 1.77 6.17 0 7.39-3 4.61-11.21 8.55-22.67 12.67-34.06h-9.94a86.91 86.91 0 0 1-1.11 39.14l10.21 2.82c2.15-14.35 5.24-29.08 12.86-41.64 7.38-12.16 18.92-20.42 32-25.58l-6.33-8.23c-15.55 22.69-40.08 37.31-56.76 59.09-16.86 22-22.37 53.68-6.42 77.94 3.86 5.87 9.24 11.38 16.22 13.28 8.58 2.34 16.4-1.63 22.91-6.93h-9.83c11.62 10.12 15.91 24.9 20.12 39.19 4.43 15 9.07 30.31 20 42.07 4.67 5 15.38 3 16.52-4.36 4.6-29.89-.5-59.94-10.55-88.21-2-5.55-6.94-9.42-13-8.51-5.4.81-10.81 5.69-10.3 11.66 1.89 21.95 7.45 44.69 19.17 63.56 4.46 7.18 16.71 8.49 20.84 0 7.24-14.9 9.26-31.82 10.41-48.16a274.72 274.72 0 0 0-.32-46.46c-1-10.22-12.94-16.8-21.06-8.72-10.11 10.05-18.62 22-30 30.8a46.88 46.88 0 0 1-18.82 8.87c-7.83 1.71-15.93 1.81-23.82 3.21-1.66.29-3.32.64-5 1-1.34.31.43 0 .61 0-.58.06-1.17.12-1.75.15-1.71.07-3.42 0-5.13.05-4.22 0-8.31.65-11.91 3-10.46 6.82-13.52 24.07-13.92 35.47-.59 16.64 3.87 33.83 9.94 49.2l12.71-12.71c-14.79-4.57-31-12-46.53-6.2a45.2 45.2 0 0 0-20.82 16.62c-4.94 7-7.85 15.15-12.7 22.2-3.36 4.89 0 12.55 5.62 13.82 17.47 3.94 35.22 6.46 52.66 10.51 6.21 1.44 13 3 17.58 5.32 5.07 2.57 10 5.51 14.89 8.34 10 5.75 20.93 12.71 32.65 14 11.41 1.22 21.48-6.62 29.79-13.4 10.29-8.39 19.3-18.79 30.55-25a10.55 10.55 0 0 0 4.33-13.2c-2.27-5.16-7.11-7-12.47-6.12-19 3-37.25 9.82-54.79 17.52-16.53 7.25-35.86 15.78-47.74 29.84-5.5 6.51-8.76 14.38-11 22.53-1.77 6.46-3.33 14.12-5.88 19.5-3.29 6.93-6 9.76-13.46 11-7.7 1.31-16.11-.24-23.62-2.33s-13.7-4.65-17.7-11.31c-4.37-7.28-6.43-15.85-9.34-23.77-3.6-9.8-17.68-6-15.67 4.32 4.86 25 11 50.41 20.62 74l13.14-5.54a135.85 135.85 0 0 0-8-12.71c-4.38-6.48-16-2.67-13.29 5.6 7.84 24.21 17.17 48 30 70.06a8 8 0 0 0 10.82 2.84c4.06-2.38 4.53-6.88 2.84-10.82-7.37-17.2-16.16-34-36.78-36.09-8-.8-9.81 9.23-5.87 14.18 19.81 24.88 49.43 38.63 71.79 60.76 5.1 5 16.56 1.77 15.56-6.45-1.15-9.45-4.29-17.8-8.22-26.43-3.27-7.19-7.23-14.65-8-22.62l-14.39 8.26c15.89 7.42 28.67 19.36 40.68 31.9 5.75 6 14 2.15 16.76-4.43 4.27-10.22 2.22-20.94 1.88-31.6-.14-4.37-.14-8.55 2.4-12.31s6.37-6.09 10.33-8c8.6-4.24 18.87-5.69 28.19-8.12 11.17-2.92 21.74-7.15 30.41-15 7.6-6.87 1.17-18.44-7.86-19a124.16 124.16 0 0 0-68.74 16.56 190.25 190.25 0 0 0-28.29 20.37c-4 3.39-8.44 6.82-11.94 10.74q-1.87 1.54-.67.79 2.25-1.33-2.66 2.13c-1.07 1-2.06 2.14-3.06 3.2q-3.06 3.23-6.07 6.51l25.18 14.66c-1.37 3.37.76-1.67 1-2.25q.84-1.78 1.75-3.52c1.46-2.8 3-5.55 4.69-8.24s3.29-5.14 5-7.64q1.45-2.07 3-4.1s2.83-3.64 1.23-1.63a275.82 275.82 0 0 1 28.37-30.4q7.46-7 15.31-13.48 4.16-3.47 8.41-6.82c.12-.09 3.67-2.84 1.79-1.41q2.38-1.83 4.8-3.61 14.87-11 30.75-20.53l-20.31-20.31c-3 4 1.7-2-1.42 1.88-.64.8-1.29 1.59-1.95 2.38q-2.72 3.24-5.63 6.31c-3.72 3.93-7.65 7.65-11.72 11.2a232.62 232.62 0 0 1-23.91 18.06c-17.87 12.14-36.55 23.08-53.95 35.91-10.2 7.53-8.42 21.29 3.38 25.88 14.37 5.59 31 6.1 46.19 4.37 16.35-1.86 32.65-5.8 47-14.13 5.81-3.37 9.12-12.52 4.82-18.39-10.28-14-23.57-25.35-37.5-35.64-13.47-10-28.4-19.27-44.58-24-7.26-2.14-16.17 3.9-15.6 11.88.7 9.61 3.55 18.67 6.49 27.78 1.47 4.55 3 9.1 4.29 13.7.69 2.46 1.28 5 1.79 7.46.25 1.21.49 2.43.68 3.66.6 3.81-.09-2.11.17 1.65a63.51 63.51 0 0 1 .07 6.84c-.11 3.21.71-1.83-.2 1.18-.2.67-.35 1.37-.53 2-.86 3.07 1.11-1.71-.4 1.08a19.76 19.76 0 0 1-1.65 2.68c1.47-1.91-1 .79-1.09.9-.84 1.06-1 .61.38.11-2.44.88-9.24.21-13.51 1.32-6 1.57-10.92 7-13.7 12.38-5.34 10.29-5.23 22.31-5.51 33.61-.13 5.4 0 10.76.07 16.15 0 2.52.25 4.7-.64 7 .3-.75-.53 1.37-.44 1.06q.78-.1-1 1 1.85-1.34.31-.32l-.74.4q2-.74.15-.08c-1 .23-1.87.56-2.83.78-.68.15-1.37.28-2.06.39 2.25-.36-1.45.11-1.54.12a99.33 99.33 0 0 1-14.85-.2c-8.42-.64-14-1.6-22.65-3a266.92 266.92 0 0 1-32.47-6.92c-9.68-2.84-19.29-6.58-25.21-13.49L1342.9 974c21.3-.8 42.65.56 63.28 6.19 9.41 2.57 19.37 5.63 27.46 11.22a115.5 115.5 0 0 1 22.72 21.25l12-29.08c-1.68-.14-3.35-.3-5-.39-6.86-.34-16.05 5.68-17 13a42.68 42.68 0 0 0-.65 4.62q-.69 2.71.23.72 1.88-3.48-1.5 3.81c-1.14 4.14-.84 9.05-1.08 13.34q-.51 9.19-1.49 18.35-.27 2.54-.58 5.07c-.06.46-.8 6.11-.19 1.69q-.71 5.14-1.54 10.25-1.61 9.88-3.69 19.67-4.12 19.47-10 38.5-2.87 9.23-6.19 18.31-1.69 4.62-3.51 9.18c-.5 1.25-1 2.49-1.52 3.74s-.41 1 .3-.69q-.62 1.46-1.26 2.91L1447 1150c-.44-2.27-.84-4.55-1.2-6.83-.91-5.63.34 3.61-.28-2.09-.44-4.09-.85-8.19-1.16-12.29-.62-8.28-1.27-16.57-2.05-24.84-1.61-17.15-3.81-34.49-10.3-50.57-4.54-11.26-16.78-15.32-26.38-7-8 7-13.73 16-17.83 25.66a96.35 96.35 0 0 0-5.22 15.12c-.26 1.1-1.54 7.1-.83 4.49.49-1.79-.56 1.6-.64 2-.64 2.61-1.19 5.25-1.71 7.89-3.71 19.1-4.54 38.81-9.78 57.6l27.41 3.71c-.83-35.83 8.23-70.66 13.17-105.91l-26.54-3.59c.2 34.4-.43 71.81-14.29 103.26l20.49-2.64c-14.07-16.82-31.39-34-54.58-35.08-8.86-.43-15.32 10.63-10.38 18.09 18.63 28.14 40.19 54.77 65.51 77.17 6.4 5.66 16.86 1.91 17-7 .24-13.4-5.69-25.71-8.47-38.59l-17.25 7.27c13.34 27.28 7.69 59.69 11.79 88.9.64 4.53 6.18 7.31 10.25 6.69a9.42 9.42 0 0 0 8.1-9.18c1-18.46-1.62-37-2.56-55.43-.84-16.51-2.09-36.55 5.61-51.31H1399c21 37.19 21.33 82.1 41.45 119.81 3.43 6.43 15.77 5.84 16.85-2.2 2.76-20.55.63-40.8-1.38-61.31-1.94-19.82-3.61-40.1 1.81-59.52H1440c5.73 15.46 5.42 31.92 6.41 48.15.72 11.81 17.92 11.92 18.44 0 .66-15.13-1.37-30.17-2.29-45.25-.86-14.2-1.19-29.42 4.52-42.78l-10.41 4.24c-2.45-.94 3.71 2.46 1.83 1a26.54 26.54 0 0 1 4 4c-1.14-1.37.93 1.35 1.12 1.64.5.76 1 1.54 1.43 2.34a57.87 57.87 0 0 1 3 6.06c3.31 7.72 6 19.15 7.78 28.54 3.63 19.25 4.63 38.7 8.15 58.15l17.8-4.91c-3.72-20.47-11.25-40-17.57-59.76-6-18.9-11.8-38.53-10.19-58.57l-6.81 8.94c34.31-8.78 70.13-8.22 105.27-9.33 12.49-.39 12.52-19.06 0-19.43-24-.7-47.56-6.42-70.7-12.6l-2.82 20.85c13.35.27 26.57 2.33 39.91 2.52 7.39.11 11.73-6.93 10.38-13.62-2.38-11.78-8.5-22.46-13.42-33.31-3.51-7.74-7.69-18.89-4.06-26.1 1.54-3.05 3.8-4.76 7-6.78 4.27-2.65 8.81-4.82 13.21-7.24 9-5 17.48-11.51 28.05-9.37 5.83 1.18 11.9-1.68 13.55-7.69 1.49-5.43-1.83-12.37-7.69-13.55-7.68-1.55-15.43-1.77-23 .68-6.85 2.23-13 5.94-19.24 9.49-10.59 6-22.6 10.86-29.56 21.45-17.31 26.34 9.12 52.92 14.32 78.16l10.38-13.62c-13.29-.14-26.62-3.17-39.91-2.23-5.25.37-9.78 3.75-10.43 9.21-.6 5.05 2.38 10.39 7.6 11.65 25 6 50.54 11.42 76.34 11.55v-19.43c-36.72 2-74.35 1.67-110.2 10.87-4.19 1.08-6.48 4.88-6.81 8.94-3.41 42.82 21 82.12 28.5 123.24.9 4.91 6.85 7.68 11.35 6.45 5.16-1.42 7.34-6.43 6.45-11.35-1.58-8.67-2.32-16.87-3.56-26.92-1.48-12-3.07-24-5.54-35.91-4-19.36-10.71-43.94-31.14-51.76-3.38-1.29-8.94.79-10.41 4.24-13.5 31.59-3.31 64.45-4.75 97.34h18.44c-1.08-17.77-.8-36.13-7.07-53.05-3-8.19-15.18-9.3-17.78 0-5.55 19.89-4.72 40.56-2.81 60.91 1.86 19.75 5 40.11 2.38 59.93l16.85-2.2c-20.08-37.64-20.37-82.43-41.43-119.83-3.3-5.86-12.71-6.15-15.94 0-9.17 17.47-9.18 38.47-8.38 57.7.81 19.39 3.69 38.93 2.58 58.35l18.35-2.48c-2.12-15.34-1.39-31-2.35-46.38-1-16.4-3.92-32.22-11.16-47.08-4.88-10-19.39-2.71-17.25 7.27 2.4 11.21 7.51 21.9 6.74 33.58l17-7c-22.85-22.27-42.27-48-58.85-75.21l-10.27 18.02a24.37 24.37 0 0 1 8.56 2.75 43.55 43.55 0 0 1 9.79 7c6.58 6 12.09 12.93 17.78 19.73 5 6 17.25 4.7 20.49-2.64 16.13-36.58 18.69-76.93 18.78-116.43a13.48 13.48 0 0 0-11.71-13.27c-6-.71-13.83 3-14.82 9.68-5.57 37.58-15.6 74.85-15 113.09.24 15.71 23 19 27.41 3.71 5.08-17.64 6.22-36.16 9.59-54.14.87-4.63 1.93-9.21 3.06-13.79-.72 2.9.55-1.61 1.1-3.12.37-1 .69-2.07 1.06-3.1.44-1.22.91-2.43 1.37-3.64-.75 1.94-.26.55.27-.58a88.59 88.59 0 0 1 6.43-11.29c1.56-2.37-1.06.94.19-.26.72-.69 1.31-1.53 2-2.26.83-.88 1.69-1.73 2.58-2.55.63-.58 3.53-2.9.57-.64l-23.18-9.43a112.65 112.65 0 0 1 3.19 11.71c.49 2.27.87 4.56 1.25 6.86.56 3.36 0-1.16.32 2.53.76 8.2 1.2 16.39 1.38 24.63.39 17.56.93 34.89 4 52.23 2.65 14.93 27 18.35 33.42 4.37a416.61 416.61 0 0 0 26.35-77q4.59-19.38 7.36-39.12c1.06-7.57 2-15.15 2.72-22.76.83-9.14 1.87-17.21-2.27-25.85l2.55 9.44q-.39-4-.87-8l-13 17c1.62-.34 3.24-.6 4.87-.88 6.53-1.13 11.39-8.11 12.2-14.16 1-7.17-2.43-12.87-8.13-17a138.85 138.85 0 0 0-32.23-17c-10.45-3.95-20.72-8.28-31.65-11-22.89-5.69-46.76-6.87-70.23-5.32-9.35.62-14 11.18-7.55 18.24 7.43 8.21 18.09 12.68 28.27 16.42 10.41 3.82 21.35 6.23 32.22 8.27 18.82 3.54 39.09 8.08 58.21 4.64 13.11-2.36 20.88-12.36 22.29-25.32 1.29-11.88-.23-24 1.17-35.92a37 37 0 0 1 1.31-6.24c0 .09 1.5-3.51.69-1.93 0 0 2.09-3.06.89-1.64.66-.79 4-4.58-.78-.15l-.93.08q1.23-.1 2.46-.11a68.32 68.32 0 0 0 9.64-.66c11.44-1.95 20.12-13.43 22.24-24.37 2.43-12.52-.39-25.2-3.77-37.27-1.62-5.77-3.44-11.47-5-17.25-.72-2.64-1.4-5.3-1.94-8q-.32-1.6-.57-3.21c.48 3.08 0-1.12-.05-1.72l-15.6 11.88c1.38.44 2.73.94 4.09 1.44 3.38 1.23-1.17-.56.79.32q1.11.5 2.2 1c3.33 1.59 6.57 3.35 9.75 5.21A188.83 188.83 0 0 1 1523 870c4.5 3.49 11.25 9.34 16.24 14.18 2.59 2.52 5.12 5.11 7.53 7.81 1.15 1.3 2.25 2.63 3.36 4 1.28 1.53-1.23-1.71-.13-.17.49.68 1 1.36 1.46 2l4.82-18.39c-1.44.79-2.91 1.5-4.37 2.24s-1.54.7-.3.18q-1.22.5-2.46 1c-3 1.12-6.08 2.08-9.18 2.92s-6.54 1.6-9.86 2.2a61.71 61.71 0 0 1-8.73 1.18 118.26 118.26 0 0 1-20.93.06q-1.38-.13-2.75-.29 2.24.3-.27-.08c-1.29-.26-2.58-.47-3.86-.76a61.42 61.42 0 0 1-9.39-2.92l3.38 25.88c37.75-27.24 81.62-46.8 109.92-85.22 3.85-5.22 2-13.69-2.32-18a15.15 15.15 0 0 0-18-2.32 381.86 381.86 0 0 0-68.39 51.4c-21.27 19.9-40.71 42.67-51.83 69.85-2.48 6.07 1.66 13.94 6.92 17 5.62 3.28 13.74 2.52 18.26-2.36 8.36-9 12.88-14.45 21.62-23.08a158.18 158.18 0 0 1 21.86-18.48c17.4-11.76 35.4-17.62 56.73-17.83l-7.86-19c-7 6.51-17.06 8.9-26.62 11.37-10.81 2.79-22.21 5.56-31.59 11.88-10.95 7.38-17.44 17.95-18 31.22-.44 10.4 3.35 21-.61 31l16.76-4.43c-13.27-13.39-27.82-26.47-45.21-34.23-5.76-2.57-15.34.25-14.39 8.26 1.15 9.68 4.5 18.23 8.67 27 3.78 7.95 7.58 15.66 8.81 24.49l15.23-8.87c-22.77-21.77-52.71-35.08-72.94-59.62l-5.87 14.18c13.09 1.08 18.58 17.35 23.12 27.46l13.66-8c-12.53-20.75-21.77-43.05-29.61-65.94l-13.29 5.6a117.44 117.44 0 0 1 8.18 12.63c3.78 7.17 15.58 2.25 13.14-5.54-7.72-24.6-14.46-49.08-18.82-74.54l-15.67 4.32c5.34 15.6 9 32.25 23.56 42 8 5.31 18.17 8.46 27.52 10.11 9.18 1.62 19.14 2.19 28-1.12 18.26-6.79 23.6-25.4 29.39-42.14.23-.68 2-5.22 1.28-3.55a46.9 46.9 0 0 1 2.41-4.67 30.16 30.16 0 0 1 7.08-8.88c6.59-6.13 15.15-10.56 23-14.84 19.53-10.64 40.61-19.65 62.54-23.85l-8.09-19.3c-10.14 6-18.43 14.88-26.94 22.9a120.49 120.49 0 0 1-12.24 10.61 37.94 37.94 0 0 1-6 3.64c1.2-.55-.83.28-1.22.4s-.85.22-1.28.31c-1.35.27 2 .07-.31-.07-1.77-.11 1 .34-.9-.06q-1.44-.3-2.85-.7a52.64 52.64 0 0 1-6.28-2.28c-5.39-2.32-10.58-5.15-15.75-7.92-10.33-5.52-20.3-10.52-31.65-13.62-18.8-5.13-38.09-8.14-57-12.82l5.62 13.82c7.15-9.94 10.92-25.41 23.77-29.67 10.5-3.48 24.13 4 34.54 7.48 7.11 2.37 15.42-5.41 12.71-12.71-4.54-12.23-8-25.27-8.28-38.38a48.41 48.41 0 0 1 2.75-17.41c1.1-3.21 1.15-2.25 2.21-5.1.66-1.8-1.14 1.05 0 0 1.27-1.25-.78.59-.92.66 1.33-.7-1.08.42-1.25.47 1.84-.6 0 .3-.89 0a8.87 8.87 0 0 0 2.06 0c1.54 0 3.08.12 4.62.08 5.93-.12 11.72-1.7 17.61-2.22 7.91-.7 16-1.14 23.66-3.27a66.6 66.6 0 0 0 21.47-10.61c12.91-9.49 22.73-22 34.25-33l-21.06-8.72a315.13 315.13 0 0 1 .76 43.58 181 181 0 0 1-2.17 21.1c-.62 3.51-1.36 7-2.31 10.44-.46 1.66-1 3.28-1.54 4.91-.07.22-.87 2.35-.35 1.05s-.63 1.35-.63 1.35h20.84c-9.55-15.17-14.67-34.27-16.25-51.38l-23.38 3.14c9.15 25.23 16.44 52.21 14 79.27l16.87-7c-10.51-10-14.57-24.92-19.57-38.23-5.79-15.39-12.72-29.78-26.06-40-2.48-1.89-6.36-.83-8.42 1.09-3.43 3.18-7.64 5.89-12.27 3.63s-7.51-7.59-9.61-12a53.54 53.54 0 0 1-3.7-34c5.14-23.47 24.8-39.71 41.59-55.27 10-9.31 19.85-18.9 27.55-30.29 2.58-3.83-1.79-10.05-6.33-8.23-15.07 6.06-28.29 15.11-37.22 28.91s-12.6 30.26-14.89 46.3c-.93 6.54 8.53 9.62 10.21 2.82a99 99 0 0 0 .83-44.7c-1.15-5.33-8.37-4.45-9.94 0-4 11.42-7.89 22.9-12.43 34.13l7.39-3c-23-12.94-49.33-17.56-73.14-28.65l1.14 8.86c6.54-7.5 12.55-15.45 19.51-22.59 5.81-6 13.55-13.81 22.57-13.22l-6-4.56c2.67 15.6-2 31.45 2.74 46.89 1.54 5 7.31 6.21 11.11 2.93 19.48-16.82 26.79-43.38 39-65.17a147.78 147.78 0 0 1 17.13-23.87c3.14-3.66 6.53-7.51 10.59-10.17a13 13 0 0 1 5-2.3 4.38 4.38 0 0 1 2.42.52c-.21-.09-.36-.46-.5-.62.31.37.31 1 .23.29.13 1.22.75 2.51 1 3.75a63 63 0 0 1 .78 7.54c.36 5.43.29 11.19 1.75 16.47 1.87 6.77 11.54 8.17 15.07 2 8.65-15.21 13.74-34.94 9.12-52.21-1.39-5.21-8-8.27-12.75-5.19-10.44 6.82-16.47 17.61-22.32 28.27-4.85 8.83-10.17 19.32-19.05 22.11l11.77 9c-2.71-25.19 9.16-49.62 7.87-74.9a11.33 11.33 0 0 0-20.93-5.67c-13.79 20.93-19.09 45.84-24.87 69.83H1532c-13.08-31.47-22.32-63.89-20.55-98.28 1.63-31.64 17.85-59.74 23.59-90.51a.08.08 0 0 0-.15 0z"/><path class="cls-1" d="M1600.83 992.4c-6.84 2.06-17.27 3.5-24 .88-4.11-1.59-5.95 5.08-1.83 6.63 9.53 3.58 20.29 1.28 29.81-1.48 5.27-1.53 10.52-3.17 15.71-5 2.23-.77 4.48-1.45 6.72-2.18 1.26-.4 2.52-.9 3.79-1.25l1.25-.27q2.77-.61-.66.12l-8.21-2.22.43.23c9.15 5 20.55 1.43 24.67-8.31 3.71-8.79-.84-21.6-11.27-23.47-15.15-2.72-31.69.4-47 1.5-14.79 1.06-29.56 1.95-44.4 1.88v39.07c10.19 0 20.41 0 30.56 1 1.11.1 2.21.23 3.32.34 5.31.56-2.54-.52.46.06 4.91.95 9.63 1.68 14.6.69a44.42 44.42 0 0 0 6.65-2.17 30.74 30.74 0 0 0 4.82-2c-2.93 1.71 7.13-5.13 2.35-1.92 4-2.71 6.57-7.63 5.1-12.53a29.32 29.32 0 0 0-9-14c-7.43-6.56-16.35-7.1-25.81-8a291.55 291.55 0 0 0-33.05-.66c-10.21.23-20 8.82-19.54 19.54.47 10.47 8.59 19.68 19.54 19.54 14.83-.19 29.65-1.19 44.4-2.67 7-.71 14.08-1.57 21.11-2.38 8.45-1 17.81-1 25.84-3.87l-21.39-12.14.08.44v-8.65q1.34-2.76.41-1.19-.65.94 0 .15c1.15-1.05-1.27 1.5-1.49 1.75a66.37 66.37 0 0 1-4.95 5.22 72 72 0 0 1-10.55 8.34 67.43 67.43 0 0 1-24.35 9.73l3.34 5.75c3-3.66 8.22-3 12.5-3.38a46.12 46.12 0 0 0 10.37-2c.76-.25.44-1.44-.33-1.21zM1919.35 1142.39c-12.14-8.83-15.14-22.21-15.79-36.61-.71-15.63 2.41-31.76 5.41-47.06 1.35-6.9 2.67-13.76 3.59-20.73 1.54-11.66 1.44-27 1.43-40.86s0-27.64 1.18-41.37c.14-1.6.29-3.19.46-4.78 0-.46.84-6.46.21-2.05.44-3.07.92-6.12 1.42-9.18 1.29-7.93 2.52-15.87 3.48-23.85 1.9-15.73 2-32.23-3.51-47.3-2.15-5.9-4-11.68-5.79-17.65 1.59 5.3.35 2.55.13.72s-.48-3.89-.74-5.84c-.74-5.51-2-10.24-6.3-14.35-10.84-10.29-28-5.47-32.43 8.56-1.31 4.11-.84 6.95-.18 11.07.25 1.58.29 4.48-.14-1.64.13 1.87.43 3.75.66 5.6a84.29 84.29 0 0 0 5.32 20.6c1.08 2.83 2.19 5.67 3 8.58.49 1.71.87 3.41 1.19 5.16-.69-3.72 0 .27.05 1.25a118.48 118.48 0 0 1-.53 21.48q-.29 2.8-.66 5.6c.5-3.79-.07.31-.21 1.25-.51 3.4-1 6.81-1.52 10.22-1.19 8.18-2.37 16.38-3 24.62a286.24 286.24 0 0 0 .18 43.29 332.63 332.63 0 0 0 5.83 44.3c.58 2.73 1.05 5.47 1.49 8.22.23 1.46.45 2.91.66 4.37q.21 1.39.41 2.78c.08.55.61 4.78.25 1.69 2 16.94 4.47 33.74 8.57 50.31 3.16 12.75 10.05 33 25.51 34.89.77.1.84-1 .35-1.31z"/><path class="cls-1" d="M1893.63 979c-.63-5-2.64-9.75-4.51-14.35-3-7.38-6.33-14.63-9.6-21.9-7.37-16.4-14-33.44-16.76-51.31-.25-1.66.17 1.44 0-.15q-.11-.9-.21-1.8c-.11-1-.2-2.06-.28-3.09-.14-2-.21-3.95-.18-5.92 0-.94.07-1.87.12-2.81 0-.39.09-.78.09-1.17 0-2.62-.49 2.26-.15.91.8-3.12-.82.11-.55.38a13.25 13.25 0 0 1 1.27-2.15l-5.47 5.47c1.11-.81 3.59-1.61-2.48.93 3-1.24 5.45-2.13 7.8-4.61 3.51-3.7 5.89-8.47 5.68-13.7-.61-15.53-18.32-22.29-29.67-12.29-5 4.37-6.79 12.33-5 18.59a21.13 21.13 0 0 0 2.24 4.82l2.53 3.28-3.4-5.55c-.09.27.28.92.32 1.2a60.52 60.52 0 0 0 2.62 9.94c3.15 9 7.84 17.54 12.77 25.71 10.23 16.94 21.44 33.28 31.66 50.24 3.66 6.08 8.07 12.55 9.9 19.49.17.66 1.32.55 1.23-.17zM1886.25 889c2.53-21.3-4.68-41.94-6.94-62.91-2.44-22.59-.43-45.82 2.05-68.32 2.29-20.78 2.9-41.8 4.25-62.66s3.13-41.91 4.12-62.9c.46-9.73.72-19.46.56-29.2-.19-12.15.91-27.79-9.71-36a18 18 0 0 0-20.7-1.46c-8.72 5.28-10.36 15.07-9.74 24.33s.7 18.54.57 27.81c-.29 20.52-1.52 41-2.69 61.5-1.14 20.14-2.42 40.28-.75 60.42 2.19 26.46 7.18 53.38 15.58 78.62 7.78 23.39 20.79 45.46 20.9 70.77 0 1.65 2.32 1.56 2.5 0z"/><path class="cls-1" d="M1887.31 855c.59-35.75 2.43-71.46 3.78-107.18.67-17.73 1.64-35.44 2-53.18a183.55 183.55 0 0 0-6.52-52.63c-1.1-4.07-7.39-3.26-7.37 1 0 8.89 0 17.8.52 26.67.52 9 1.5 17.89 2.54 26.89 2 17.34 3.31 34.77 3.79 52.22 1 35.4 0 70.81.58 106.21a.31.31 0 0 0 .63 0zM1806.94 256.94c-8.81 9.44-12.05 23.65-14.07 36a342.78 342.78 0 0 0-4.51 48c-.77 35.75 1.51 72.4 8.34 107.5 4.81 24.72 13.48 48.5 23.58 71.49 3.29 7.49 14.52 11.37 22 8.95a20.09 20.09 0 0 0 14.3-18.78c.15-8.58-.11-17.15-.27-25.72-.08-3.94 0-7.95-.22-11.88-.33-5.13-1.84-9.6-3.17-14.49-2-7.24-2.92-14.78-3.85-22.2-1-8.25-2.35-16.53-2.92-24.82-1.13-16.57-2.21-33.06-2.1-49.69s.92-33.2.28-49.72c-.55-14.15-22.72-9.86-18.26 2.47 1.56 4.32 4.3 5.93 6.84 9.37 2.89 3.9 8.36 2.44 8.88-2.41.3-2.8-.38-2.3 1.27-4.74l-17.32-4.69c-.67 16.51.23 33.2.54 49.72s-.33 33.12-1.2 49.69c-.42 8-1.41 15.89-2.19 23.83-.76 7.78-1.38 15.55-3.16 23.19-1.15 4.93-2.71 9.29-2.86 14.49-.11 4 .11 7.93.17 11.88.12 8.58.16 17.15.61 25.72l36.28-9.83c-4.76-9-9.11-18.26-13.22-27.62-.95-2.16-1.91-4.31-2.85-6.47-1.43-3.27-.58-1.35-.28-.63-.57-1.37-1.13-2.74-1.69-4.12q-2.82-7-5.39-14.08c-6.88-19-13.55-38.08-19.16-57.51-8.23-28.46-14.43-58.08-14.81-87.8-.2-15.53 2.82-31.41 10.56-45 0-.08-.06-.16-.12-.09zM1862.84 389c-2 24.3-.21 48.78 1.9 73 1.11 12.76 2.17 25.48 3.9 38.17.78 5.77 1.82 11.5 2.66 17.26.15 1 .25 2.09.36 3.14l.22 2q1.66-3.42.72-1.8c-3.57 3-2.05 10.9-.89 14.51 4.75 14.79 26.52 12.11 27.07-3.66s1.19-31.68 3-47.44c.91-7.7 1.66-14.42 2.71-21.84s3.68-17.46-.47-24.75l-10.54 10.54 1.14.73-3.09-4c10.6 26.24 13.09 54.28 15.62 82.18 1.32 14.51 3 29 6.13 43.24 1.5 6.74 3.34 13.37 5.44 20 1 3.29 2 6.6 3.15 9.86 2.88 8.38 6.06 12.44 14.45 15.9 7.9 3.26 18.25-3.52 20-11.38s-2.41-18.44-11.38-20l-.63-.11 6.36 3.71-1-1.08 3.4 5.84a59.3 59.3 0 0 0-5.55-13c-4.28-7-16.35-6.29-18.28 2.39-.49 2.2-.92 4.21-1.21 6.47l-.23 1.92q-.56 3.63.2.41l8.62-6.63-.37.11 20 20c1.62-6.86.34-11.81-3.38-17.64-1.87-2.92-3.68-5.89-5.25-9a138.2 138.2 0 0 1-7.27-17c-4.86-13.18-9-26.66-12.83-40.16-3.76-13.18-7.11-26.46-10.57-39.72-1.72-6.61-3.69-13.14-5.66-19.68q-1.47-4.9-3.15-9.73c-.56-1.61-1.13-3.22-1.7-4.82-.24-.67-1.34-5.1-1.75-3.35 1.69-7.09-5.29-11.27-11.32-8.7-7.47 3.18-10.8 13.7-13 20.89a161.66 161.66 0 0 0-5.41 25.83 428.3 428.3 0 0 0-3.88 50.08l27.07-3.66c-1.37-4-3.43-9.86-7.87-11.53-1.91-.72 1 2.51 0-.26-.48-1.28-1.31-2.47-1.85-3.73-2.14-5-3.81-10.3-5.57-15.45-4-11.83-7.88-23.87-10.77-36a319.18 319.18 0 0 1-9-72 .16.16 0 0 0-.31 0zM1780.7 210.92c-.78 2.11-3.62 10.07-6.5 7.32-.87-.83-1.56-3.22-2-4.32a105.41 105.41 0 0 1-3.87-11.13 121.07 121.07 0 0 1-4.59-22.69 181.23 181.23 0 0 1-.69-25.86 223.82 223.82 0 0 1 2.64-26.47 356.82 356.82 0 0 1 14.28-55.83c3-8.88 6-17.69 9.47-26.4 1.61-4-1.6 3.6.14-.34l1.48-3.38c.82-1.86 1.64-3.72 2.49-5.57q3-6.5 6.34-12.82A198.27 198.27 0 0 1 1814.7-.15c2.31-3.17-2.88 3.54-.42.55.76-.92 1.5-1.86 2.27-2.77q2.09-2.48 4.31-4.84a98.69 98.69 0 0 1 9-8.42L1816-9.92a17.15 17.15 0 0 0 5.19-.7c12.31-3 17.89-18.06 11.67-28.69-6.51-11.13-21.41-12.36-30.68-4-13.72 12.44-24.35 28.5-32.63 45-9.71 19.29-17.46 40.19-21.75 61.39-8.23 40.68-9.11 86.53 4.69 126.17 3.18 9.14 7.16 18 12.85 25.86 1.86 2.57 4.84 8.15 8.35 8.11a4.84 4.84 0 0 0 3.89-2c1-1.5 1.34-4 2.06-5.78.6-1.45 1.18-2.82 1.65-4.33.12-.39-.47-.54-.6-.17z"/><path class="cls-1" d="M1751.13 212.92c-12.69-26-8.95-57.52-6.9-85.4 1.07-14.65 1.77-29.28 2.48-43.94.42-8.61.94-17.22 2-25.79.48-4.07 1.07-8.14 1.78-12.19.75-4.27 2.12-8.64 1.88-13l-1.46 3.52c-.72.62-.8.06.44.24a9.5 9.5 0 0 0 2.54-.29c2.69-.42 3.13-4.7.77-5.85-4.15-2-8.81-4.95-12 .62-3.45 6.08-3.29 15.57-3.64 22.36-.79 15.29.15 30.59.92 45.85 1.28 25.47-1.77 51 .7 76.43 1.26 13 4 26 10.25 37.58.1.18.36 0 .27-.16zM1825.74 179.43c12.09-19.51 18-42.5 22.45-64.79 4.61-22.94 8.87-46.31 10.81-69.64.19-2.26-3.58-2.8-4-.54-4.09 22.75-5.07 46-9.28 68.72-4.15 22.44-9.64 45.64-21.5 65.39a.86.86 0 0 0 1.48.87zM633.76 699c.14.41-.2 1.24.34 0a16.21 16.21 0 0 0 .76-2.65 27.53 27.53 0 0 1 2.85-5.62A126.47 126.47 0 0 1 648.42 676a481 481 0 0 1 33.13-35.64c9.53-9.45 19.23-18.83 29.53-27.44.77-.65 1.57-1.27 2.34-1.92 1.78-1.5-1.84 1.19.3-.22 3.17-2.09 6.3-4.27 9.47-6.36 8.73-5.75 17.48-11.48 25.83-17.77 10-7.54 20.08-15.76 28.05-25.5a89.75 89.75 0 0 0 10.65-15.7c2.61-5.11 5.09-10 3.44-15.93a29.84 29.84 0 0 0-4.19-8.32c-3.72-5.44-13.24-8.65-18.16-2.34-1.09 1.4-2.4 2.52-3.58 3.82a16.66 16.66 0 0 0-4.19 8c.59-2.54-1.65 9.63-.3 3.45-.25 1.13-.52 2.24-.84 3.35-.12.41-1.36 4.09-.17 1.12a50.15 50.15 0 0 1-4.14 7.62c-5.18 8.3-12.2 15.33-20.28 22.73-11.88 10.89-25.59 19.9-36.9 31.38a508.24 508.24 0 0 0-58.24 70.52c-3.86 5.69-7.74 11.58-10.36 18a24.44 24.44 0 0 0-2 7.08c-.23 2.69.85 3.46 1.66 5 1.24 2.3 5.16.73 4.28-1.81zM713.07 573c11.31-25.21 21-51.07 31.8-76.5 5.27-12.43 10.5-25.93 18.31-37 3.83-5.43 7.81-10.55 11.4-16.17 3.25-5.09 6.74-12.58 4.06-18.49a4.08 4.08 0 0 0-3.64-2.09c-6.47.57-11.15 7.39-13.57 12.9a127.62 127.62 0 0 0-6.28 18.56c-3.63 13.46-9.53 26.51-14.37 39.59-9.7 26.24-18.32 52.85-27.86 79.14 0 .08.11.14.14.06zM1061 426.22c-6.07.51-9.55-5.67-11.68-10.45-3.28-7.35-5-15.46-6.37-23.35a284.38 284.38 0 0 1-4.08-43.46c0-2.15-3.16-3.22-4.23-1.15-9.69 18.8-12.18 39-13.85 59.85-1.71 21.28-2.4 43.14-9.92 63.36h7.21c-4.24-22.61-4.47-46.13-3-69 1.46-22.61 4.6-46 13.35-67.09l-7.8-1.06c3.72 35.86-1.84 71.83-2.11 107.72h9c.13-32.61-1.37-65.41 6.43-97.36h-8.67c6.79 43.54.84 87.76 1.41 131.54l8.72-1.18c-7.3-46.21-5-94.72 5.43-140.27l-8.6-1.16c2.05 27 .07 54.06-.21 81.06h10c.63-78.44 7-156.59 10.75-234.9h-11.51c0 38.4 1.6 77.77-7.79 115.33l12.23 1.66c-3.34-35.57-4.87-71.21-3.48-106.92q1-26.4 3.85-52.69c1.93-17.88 5.35-35.5 7.6-53.31l-10.15 4.2c6.6 5.72 11.64 13 18.35 18.56 4.34 3.62 10.32-2.08 6.3-6.3-6.07-6.37-10.29-14.19-16.24-20.67-3-3.26-8.9-1.63-9.93 2.62-4.2 17.24-6 35.4-7.84 53q-2.84 26.72-3.77 53.61a815 815 0 0 0 2.87 107.87c.64 6.57 10.43 9 12.23 1.66 9.6-38.93 7.48-78.93 7.29-118.64 0-7.43-11.19-7.38-11.51 0-3.3 78.27-10 156.51-9.23 234.9.06 6.42 10 6.44 10 0-.19-27 1-54.07-1-81.06-.35-4.66-7.43-6.27-8.6-1.16-10.81 47.19-13.07 97.09-5.55 145 .79 5 8.78 3.72 8.72-1.18-.55-44.66 5.27-89.51-1.62-133.93-.7-4.49-7.67-4.07-8.67 0-8 32.66-7 66.38-6.75 99.75 0 5.78 9 5.79 9 0-.1-35.91 4.88-71.86 1.08-107.72-.49-4.58-6.07-5.25-7.8-1.06-9 21.7-12 45.94-13.48 69.2-1.47 23.58-1.1 47.77 3.57 71 .78 3.9 6.07 3.18 7.21 0 6.91-19.34 7.74-40.22 9-60.53 1.32-20.69 2.46-43.33 11.47-62.38l-4.23-1.15a277.09 277.09 0 0 0 6.64 48.43c2.09 8.84 6.88 31.95 20 30.39 1-.12 1-1.65 0-1.56zM1099.11 100.89q-2.81-3.63-5.35-7.45c-1.33-2-4-5-4.18-7.49a2.6 2.6 0 0 0-4.81-1.3c-4.3 7.29-5.44 16.94-8.38 24.88l10.31 1.39c-.27-16.67-.87-33.31-.94-50 0-8.2-.18-16.41-.75-24.6s-.91-17.14-3.75-24.84l-9.37 5.45c1.93 1.58 2.85 3.71 4.08 5.83 1.71 2.94 6.7 1.77 6.55-1.77-.16-3.93-.26-7.18-1.83-10.84C1078.48 5 1070 7.71 1070.25 13c.38 8.12 2.26 16.16 2.89 24.29.66 8.5.88 17 1 25.56.23 16.37-.64 33.32 2.25 49.49.9 5.05 9.14 5 10.12 0 1.6-8.14 3.94-18.09 3.07-26.36l-3.88 2.23c2.79 1.23 5.08 4.89 7.18 7.07q2.91 3 6 5.86c.15.14.34-.07.22-.22z"/></svg>