<svg id="Layer_1" data-name="Layer 1" xmlns="http://www.w3.org/2000/svg" viewBox="0 0 3800 1541.7"><defs><style>.cls-1{fill:#ff9d08}</style></defs><title>Artboard 1</title><path class="cls-1" d="M275.6 479.7c5.5-3.6 8.8-8.6 12.2-14.1 3.8-6.1 8.9-10.6 13.9-15.6a45.31 45.31 0 0 0 12.9-38.3c-.9-6.6-3.8-12.2-7.5-17.7a62.51 62.51 0 0 1-5.1-8.2c-1.9-4-2.6-8.5-3.6-12.8-3-13-10.5-25.3-21.9-32.6-12.1-7.8-24.6-5.3-37.8-2.7-15.3 3-29.6 8.2-43.9 14.2a69.67 69.67 0 0 0-22 14.35 31.53 31.53 0 0 0-6 5.75 23.79 23.79 0 0 0-3.43 6.54c-2.28 4.81-1.88 9.61-.57 15 .56 2.23 1.23 4.42 1.73 6.65a24.41 24.41 0 0 1 .47 3.55c.3 6.3-4.4 11.4-6.4 17.1-2.5 6.6-2.3 13.9-.7 20.7a44.49 44.49 0 0 0 3.2 9.3 21.43 21.43 0 0 0 2.79 4.23 9 9 0 0 0-1.59 4.07 2 2 0 0 0 1.4 1.9 15.84 15.84 0 0 0 4.47.26c1.18 3 1.06 6.73 1.33 9.94a19.22 19.22 0 0 0 3.2 8.5c6.3 10.2 17.2 17.1 28.4 20.8a53.52 53.52 0 0 0 32.89.21c.06.65.14 1.3.25 2-.9.88-.36 2.31.63 3 1.16 4.54 3.12 9 4.73 13.23 3.8 10 5.2 20.7 7.3 31.1 2.5 12.3 5 24.6 7.8 36.9 2.7 12.1 5.4 24.4 6.2 36.8.8 12.2.1 24.4 0 36.6-.2 12.6-.1 25.2-.2 37.8-.1 25.1-.3 50.3.3 75.4.6 24.6 1.4 49.2-.9 73.7-2.3 24.8-4.5 49.4-4.6 74.4-.3 50.5 6.5 100.1 14.1 149.9 4.2 27.3 7.9 54.7 12.9 81.9s14.8 53.1 21.8 79.7c1.2 4.7 8.5 2.7 7.2-2-6.2-23.3-14.7-46-19.9-69.5-5.2-23.8-8.1-48.2-11.9-72.3-7.8-49.8-15.9-99.5-17-150a663.37 663.37 0 0 1 2.5-74.6 657.19 657.19 0 0 0 2.9-72.9q-1.65-73.95-1-147.8a204.62 204.62 0 0 0-3.1-39.9c-2.5-13.1-5.9-25.9-8.7-39s-4.8-26.6-8.1-39.7c-1.73-6.79-6.31-14.14-7.85-21.47 2.08-2.07 3.09-4.58 2.27-6.73 5.1-3.31 9.3-8 15-10.3 6.38-2.68 13.18-3.48 18.98-7.28zm-78.88-117.57c2.63.61 4.73 2.43 5.68 6.17a1.55 1.55 0 0 0 2.17 1.34c2.15 9.17 26.88 16.2 28.43-.84a2.67 2.67 0 0 0-1.9-2.5c-.8-.2-1.6-.5-2.4-.7-3.2-1-4.5 3.9-1.4 5h.07c-1.75 4.32-8.23 3.69-12.07 2.08-1.2-.5-5.1-2.1-5.2-3.7 0-1.2 2.2-2.1 3.2-2.5 5.6-2.4 12.2-3 18.2-3.5 4.9-.4 9.9-.8 14.7.2 3 .6 6.6 1.2 8.7 3.6 2.5 2.8 2.4 7.2 2.5 10.7.3 8.7-1.7 14.1-8.2 20.2-7.2 6.7-15.3 5.7-24.5 5.3-10.4-.4-20.7-1.8-28.3-9.6-6.5-6.6-12.7-18.9-5.5-27.3a13.6 13.6 0 0 1 5.82-3.95zm6.06-1.24a63.79 63.79 0 0 1 8.14 0 12.63 12.63 0 0 0-5.41 4.21c-.08.12-.15.23-.22.35a12 12 0 0 0-2.51-4.56zm-34 90.35a24.75 24.75 0 0 1-3.45-5.94c-2.6-7.1-3.7-15.2-1.3-22.5a42.45 42.45 0 0 1 2.74-6c5.81 22.2 32.61 33.2 53.73 34.4 10.77.65 22.72.44 33.72-1.84a47.48 47.48 0 0 0-1.32 10.24c-.1 3.4.8 6.8-.8 9.9-1.8 3.5-5.8 5.8-9.4 6.9-5.9 1.9-11.5-.6-16.9-3a145 145 0 0 1-15.7-8c-5.5-3.3-8.4-9-13.4-12.8-3.5-2.7-7.3-3.5-11.6-3.7-4.49-.24-11.32.03-16.35 2.34zm58.52 44.86a49.54 49.54 0 0 1-32.7-5 45.31 45.31 0 0 1-13.1-9.9 29.8 29.8 0 0 1-4.6-6.4c-1.9-3.8-1.8-8.3-2.3-12.5a12.69 12.69 0 0 0-.82-3.16 16.14 16.14 0 0 0 2.82-2.64c.8-.7-.4-2-1.3-1.2a14.51 14.51 0 0 1-2.4 2 27 27 0 0 0-1.57-2.51c6-2.26 15.38-1.64 19.17-.26 5.7 2.1 8.6 8.4 12.9 12.3 3.7 3.4 8.6 5.7 13.1 7.9 8.8 4.5 18.9 10.2 28.9 6.4 4.8-1.8 9.7-5 12-9.8 2.6-5.5 1-12.6 2.3-18.5a49.09 49.09 0 0 1 1.46-5.21l.64-.19c12.8-4.2 21.6-13.6 26.5-26a43.9 43.9 0 0 0 3-21.5c-.4-3.9-6.5-4-6.2 0a47.21 47.21 0 0 1-.7 12.77 3.07 3.07 0 0 0-2 .43c-11 6.7-20.3 15.8-25.4 27.8-.28.66-.54 1.32-.79 2a108.11 108.11 0 0 1-18.51 2.31c-12.4.7-24.8.6-36.6-3.9-9.3-3.5-20.3-9.4-25.6-18.2a30.93 30.93 0 0 1-3.9-12.6c-.7-5.9-1-11.3-2.5-17.2-.8-3.1-1.9-6.7-1.1-9.9.7-3 3-5.6 4.9-7.8a58.53 58.53 0 0 1 13.6-11.7l.79-.46c.59-.23 1.19-.44 1.79-.63-7.7 7.42-5.2 19-.07 27.18 6.6 10.4 16.8 15.2 28.8 16.4 11.2 1.1 23.7 2.8 33.1-4.6 3.9-3 7.8-6.6 9.9-11.1 1.9-4.2 2-8.8 2-13.3-.1-10-2.9-16.9-13.2-19.5-7.5-1.8-15.3-1.2-22.8-.3-2.49.31-5.65.61-8.81 1.21-6.08-.63-13.13-1.74-19.36-.62-.25-.08-.49-.18-.75-.24a219.39 219.39 0 0 1 22.93-8.55c6-1.9 12.1-3.4 18.2-4.7 6.3-1.3 13.2-3.2 19.6-3.1 11.8.2 21.4 8.6 27.3 18.2 6.7 10.8 6.5 23.8 13.5 34.4 3.1 4.7 6.5 9.1 8.1 14.6 2.1 7.5 1.2 16-1.4 23.3-4 11.2-14.4 17.2-21.1 26.4-3.1 4.3-5.2 9.5-9.1 13.2-5.1 4.8-11.4 6.2-17.8 8.2a39 39 0 0 0-13.3 7.5c-5.42 4.37-10.72 7.27-17.52 8.67zm37.11-56a55.13 55.13 0 0 1 17.53-19A35.37 35.37 0 0 1 271.3 436a33.24 33.24 0 0 1-6.89 4.13zM2526.6 389.7c11.1-7.8 15.5-20.4 16.4-33.5.6-9.1 0-18.2.4-27.2.4-9.8 1-19.7-.9-29.4a2.88 2.88 0 0 0-2-2c-5.1-.9-11.1.7-15.7-1.9-2.9-1.6-5.9-5.7-9.4-5.4-4.83.42-7.45 5-8.79 9.64-2.57-3.21-4.86-6.63-8.41-9-1.7-1.1-3.5.4-3.6 2.1-.4 3.9-.6 6.6-4.8 6.9-2.9.2-5.5.5-8.1 2-6.3 3.8-4.4 12.5-2.7 18.3a157.79 157.79 0 0 0 10 26.9 101.87 101.87 0 0 0 9.1 15.2c1.07 1.42 2.16 2.83 3.22 4.26-3.5 7.68-5.29 16.48.38 23.74 6.3 8.16 17.8 4.36 24.9-.64zm-21.7-10.5a18.52 18.52 0 0 1 .86-5.93 33.29 33.29 0 0 1 1.54 3.13c.2 1.3 2.2.5 1.8-.7a40.81 40.81 0 0 0-2.32-5.27c2.62-6.17 7.32-12 9.92-17.63 4.9-10.5 3.8-19.9-6.1-26.8-1.8-1.3-4.5 0-5 2-.3 1-.5 2-.8 2.9-.88 3.43 3.15 5.26 5.37 3.68 6.54 7.89-1.33 18.23-6 26.42-.5.87-1 1.77-1.48 2.69-3.29-5-6.92-9.77-9.52-15.09-4.6-9.1-7.7-18.9-10.3-28.8-.9-3.4-2.8-9.3-.7-12.6 1.9-3 5.8-2.5 8.8-2.7 4.58-.29 6.49-3.14 7.47-6.79 2.78 3.06 4.73 6.87 7.73 9.79 1.3 1.2 4.1.9 4.4-1.2.4-2.7.9-5.8 2.5-8 2.6-3.6 4.1-1.1 6.9 1 5.69 4.13 11 2.88 17.28 3.64 1.14 7.23.79 14.54.42 21.86-.4 7.6-.5 15.2-.5 22.8-.1 13.1-1.6 27.5-12.8 36.1-7.27 5.5-19.07 8.4-19.47-4.5zM2557.2 654.6c1.4-34 8.5-66.7 15.3-99.9 1.3-6.3 1.9-13.2 4.1-19.3.9-2.4 1.8-2.2 4.4-2.5 5.3-.6 10.5-1 15.2-3.8 4.3-2.5 8.5-5.7 12.6-8.6 8-5.7 17.7-11.5 22.2-20.7 5-10.1-.6-18.2-7.2-25.9-3.1-3.7-6.5-8.9-11.3-10.4-4.6-1.4-8.4 1.5-11.3 4.8-9.1 10.6-11.1 24.7-16.8 37.1-.87 1.88-1.75 3.75-2.61 5.62-2.15-9.06-6.3-18.1-8-26.72-1.3-6.3-3.3-12.9-8.8-17-4.1-3-5.9-1.7-10.7-1.9s-8.9-3.6-14-3.8a2.77 2.77 0 0 0-2.7 2.1c-4.6 17.7 8.5 31.3 18.8 44 4.64 5.72 10.78 14.18 18.1 18.85a8.8 8.8 0 0 0-3.3 2.85c-1.7 2.5-2.3 5.9-2.9 8.9-1.7 8-3.2 16-4.9 23.9-6.5 31.3-12.4 62.2-13.7 94.2-1.2 31.8-.4 63.6-2.8 95.4-2.3 31.5-2.3 63.1-2.1 94.7.2 32.2.6 64.5-1.1 96.7-1.28 24.29-3.08 48.53-5 72.75-5.16-20.7-9.59-41.6-13.1-62.75-9.8-59.2-10.2-119.1-5.9-178.8 2.1-29.3 4.9-58.6 6.3-87.9 1.4-29.7 1.4-59.6.3-89.3-1.3-33-3.9-66-7.6-98.9-3.7-32.3-12.5-65.3-5.6-97.8.4-1.7-1.9-2.4-2.3-.8-6.6 28.1-1 56.1 2.6 84.1 3.8 29.8 6.1 59.8 7.5 89.8 1.4 29.8 1.7 59.7.7 89.5-1 30-3.8 59.8-6.4 89.7-5.1 59.5-7.5 119 0 178.5 4.58 36.26 12.17 72 21.68 107.31l-.08 1c-2.9 36.1-7.1 72.1-9.2 108.2s-3.3 72.3-7.8 108.3c-.6 5 7.1 4.9 7.8 0 4.3-33.3 5.9-66.9 7.9-100.4 1.93-32.3 4.42-64.5 7.1-96.7q5.81 19.91 12.29 39.6c20.3 61.9 44.9 122.2 69.7 182.4 1.7 4 8.3 2.3 6.6-1.8-31-79.7-64.2-159.17-86.83-241.64 2.24-27.48 4.31-55 6-82.46 2.1-33.5 2.1-67 1.9-100.6s-.5-67.1 1.9-100.6c2.35-33.11 1.65-66.21 3.05-99.31zm33.6-147.7c2.8-6.2 4.7-12.7 7-19.1a68.65 68.65 0 0 1 4.3-9.6c1.5-2.6 3.8-7.2 6.7-8.4 4.1-1.7 9.2 6.7 11.5 9.5 3.3 4 7.4 8.7 6.1 14.2-1.1 5.2-5.5 9.2-9.4 12.5a78.09 78.09 0 0 1-11.9 7.7c-4.6 2.6-8.6 6.3-13.2 8.8-2.38 1.32-5.38 1.69-8.41 2 1.75-6.16 4.72-11.8 7.31-17.6zm-31-2.6c-8-10.6-19.31-22.55-17-36.86 3.14.81 5.76 2.77 9.11 3.26 3 .4 6.7-.7 9.4.7 5.6 2.9 6.5 11.5 7.5 16.9 2.06 10.95 9.54 23 8.45 34.46-.08.28-.14.57-.22.85-7.14-4.76-13.04-13.75-17.24-19.31zM2956.83 256.71a19.42 19.42 0 0 0 5.57-16.91c-.9-5.2-3.6-12.6-9.7-13.5-5.3-.8-10.1 3.4-13.5 6.8-2.7 2.7-4.9 6.3-8.2 8.4-3.6 2.4-5.6 2.1-9.2.9-3.2-1.1-6.7-.9-9.9-2.1-3.6-1.4-5.6-4.5-8.2-7.2-3.1-3.3-7.7-7.1-12.6-7.1s-7.2 4.6-7.7 9c-.7 7 2.7 14 5.5 20.2a135.16 135.16 0 0 0 14.4 25c2.4 3.2 4.6 6.4 7.3 9.4 2.08 2.29 4.76 4.58 6.64 7.24-.65 2.59-1 5.29-.14 7.76 0 .1.08.2.13.3-1.46 6.14-2.76 12.26-3.93 18.5-3 15.5-6 30.9-9.7 46.2-7.3 30.1-16.9 59.7-26.1 89.2s-18 59.4-24 89.8a843.07 843.07 0 0 0-12.6 93.5c-2.7 32.7-6.8 65.1-11.5 97.6-4.5 31.7-8.2 63.5-12.3 95.3-8.4 64.2-18.4 128.1-26.5 192.3-9 71.9-15.8 144.2-14.7 216.7.1 5 7.8 5 7.7 0-1.2-129.9 20.7-258.1 38-386.5 4.3-32 7.8-64.1 12.2-96.1 4.4-31.8 9.3-63.6 12.4-95.6s5.4-64.2 10.7-96c5.2-30.8 12.9-61 21.9-91 10-33.3 21.1-66.3 29.7-100 4.3-17.1 7.8-34.4 11.2-51.7 1.35-6.81 2.71-13.57 4.3-20.3 21-3.3 54.76-33.12 32.83-50.09zm-36.44 27.07c-.1 0 0-.14 0 0zm5.33 15.94a27.8 27.8 0 0 0 .68-9c-.06-.45-.14-.89-.24-1.33 1.67-6.26 2.16-12.07-5.76-12.57a3.54 3.54 0 0 0-3.5 3.5 40.59 40.59 0 0 0 1.8 8.4c.15.52.26 1 .36 1.51-.3 1.06-.61 2.13-.86 3.19l-.16.55c-1.61-2.29-3.58-4.41-5.24-6.35a147.68 147.68 0 0 1-12.1-17.2c-3.5-5.6-6-11.7-8.6-17.8-2.2-5.2-7.1-15-3.5-20.5 2.8-4.4 9.2 1.6 11.5 4 3.5 3.6 6.1 7.3 11 9 2.7.9 5.6.9 8.4 1.8 1.7.5 3.2 1.6 5 1.8 5.2.7 10.3-3.2 13.6-6.8 2.8-3.1 8.8-11.4 13.8-10.3 3.5.8 5 7.6 5.2 10.5.4 5.1-2.3 9.5-6.3 12.6-1.6 1.2-2 3.6 0 4.8 20.66 12.38-7.65 36.14-25.08 40.2zM608.1 218.5c-7-3.9-14.9-3.4-22.3-6-8.31-2.92-9.44-11.51-9.12-19.3a13.9 13.9 0 0 0 2-4.5 2.88 2.88 0 0 0-1.18-3c.73-3 2.23-5.6 5.48-6.35 4.7-1.1 8.5-.4 12.6-3.6a7.94 7.94 0 0 1 .83-.57c.74.75 1.47 1.51 2.17 2.27 1.5 1.6 4.4-.6 3.1-2.4-.22-.31-.46-.61-.7-.92a11.89 11.89 0 0 1 1.71.23 3 3 0 0 0 1.18 3.59c.31.2.62.39.93.57a9.57 9.57 0 0 0 4.5 3.33 8.15 8.15 0 0 0 1.37 1.59c0 .26-.07.53-.09.79-4.26 2.84-6.15 8.59-4.2 14.82a16 16 0 0 0 11.2 10.9 17.41 17.41 0 0 0 8.14-.06 13.39 13.39 0 0 0 3 .26 14.44 14.44 0 0 0 6.1-1.5c3-1.3 3.7-3 6-5.1 2.3-2.3-.6-5.5-3.3-4.3s-5.3 2.5-8.1 3.6c-.54.22-1.07.47-1.58.74a8.06 8.06 0 0 1-4.42-1.44c-4.5-2.9-6.6-9.1-6.9-14.2a25 25 0 0 1 0-2.65 11.92 11.92 0 0 1 3.45 0c.91.18 1.38-.67 1.27-1.43q.78.6 1.53 1.23c1.6 1.4 3.7-.7 2.3-2.1-.73-.69-1.49-1.35-2.27-2a.35.35 0 0 0 0-.1 9.22 9.22 0 0 0-2.87-4c1.94-1.73 4.43-1.84 5.77 2 2 6.1-3.3 11-4.9 16.3-1.2 3.8 4 5.4 6 2.5 2.6-3.5 4.4-9.9 4.9-14.2.5-4.1-.3-8.2-3.3-11.2-4.18-4.18-8.49-3.28-11.82-.34a8.92 8.92 0 0 0-2.42-2.64c-.14-.4-.28-.81-.46-1.22-.6-1.4-2.6-1.6-3.8-1-.31.15-.61.32-.91.49a5.75 5.75 0 0 0-4.23 3 16.27 16.27 0 0 0-7.82-1 79.15 79.15 0 0 0-8-6.71c-5.1-3.8-10.1-7.5-16.1-9.6-3.5-1.3-5.1 4.5-1.6 5.6a63.37 63.37 0 0 1 21.06 12.43 12.22 12.22 0 0 1-2.76 1c-3.5.6-7 .2-10.3 1.7-4.8 2.1-7 6.6-7.9 11.6-.32 1.65-.57 3.41-.75 5.24-2.4 3.14-4.87 6.32-5.15 10.26-.4 6 3.8 11.4 8.1 15.1 8.5 7.3 23 11.7 33.9 8a3.1 3.1 0 0 0 .66-5.71zm11-40.81a5.25 5.25 0 0 1 2.11 1.88q-1.12-.85-2.28-1.64zm-1.28 3.65c.63.4 1.25.81 1.86 1.24a15.18 15.18 0 0 0-2.12-.24c.06-.34.14-.67.22-1zm-.59 23.6a12.12 12.12 0 0 1-6.39-6c-1.62-3.47-1.59-6.89-.26-9.47a25.33 25.33 0 0 0 6.61 15.47zM3146.2 140.3c-5.37 1.1-12 6.68-18.24 9.1a14.62 14.62 0 0 0-2.21-7.16 24 24 0 0 0 1.25-2.45c1.1-2.5.3-5.6-2.6-6.4a15 15 0 0 0-8.48.2 46 46 0 0 0 3.78-4.7l-.82-.48.12-.22a4.17 4.17 0 0 0-4.4-6.12 95 95 0 0 0 7.9-12 4.17 4.17 0 0 0-3.5-6.2c-10.5-.2-24.5 10.6-29.3 19.5a27 27 0 0 0-3 12.81 11 11 0 0 0-1.89 0 4 4 0 0 0-1.45.35c-1.31-1.77-2.56-3.68-3.85-5.48-.37-2.3-.82-4.59-1.41-6.87l-.51.14c-.1-.28-.19-.56-.29-.84-1.7-4.4-8.5-2.8-7.3 2-3.45 1.7-5.63 4.48-7.51 7.75-1 1.78-1.9 4.12-3.2 5.89 1-10.74 5.19-21 8-31.49 1.2-4.3-4.1-7.1-7.3-4.2-8.1 7.3-14.7 21.3-15.8 32.1a14 14 0 0 0 2 9.36 34.6 34.6 0 0 0 6.34 14.78c-3.52.49-7 .66-10.12.86-1.64.08-3.27.13-4.9.16a68.6 68.6 0 0 0-19.3-.46c-5.2.7-5.6 8.3 0 8.4h.1v.3c.71-.09 1.43-.17 2.17-.24 5 .16 10.58.51 16.33.6a42.83 42.83 0 0 1 15.8 5.54c1 .6 1.88 1.19 2.76 1.75-1.48 1-2.94 2-4.36 3-3.8 2.8-1.7 9.3 3.4 8a98.41 98.41 0 0 0 13.49-4.39q.39.8.73 1.63a27.44 27.44 0 0 1-3.47 2.75c-2.88.92-5.81 1.71-8.65 2.92-4.9 2.1-3.2 9.7 2.3 8.3l.37-.11.23.81c.44-.19.9-.36 1.35-.53-.58 3.49 4.48 6.59 7.36 3.63l.62-.67.48.37c.83-1.19 1.62-2.41 2.39-3.64 1.33-1.62 2.62-3.28 3.88-5 .51-.26 1-.51 1.53-.8a4.38 4.38 0 0 0 2.1-4q1.43-1.88 2.92-3.7c2.53 3.16 3.72 8 4.23 13a18.7 18.7 0 0 0-1.84 8.19 10.5 10.5 0 0 0 2 6c0 .82-.06 1.61-.09 2.35l-.06.29v1.49c-.2 4.6 7.2 5.7 8.2 1.1.08-.37.14-.81.21-1.3l1.79.13q.21.77.39 1.55c-2.75 6.42-6.2 12.58-8.39 19.21-3.3 10.1-3.1 21-1.8 31.5 2.6 20.9 8.2 41.3 14.2 61.3 6.2 20.8 13.7 41.5 17.8 62.8 4.1 21 4 42.7 1.3 63.8-5.5 42.2-20.8 82.4-33.5 122.8-13.1 41.8-26.2 83.9-32.2 127.4-6 43.8-5.7 88.1-7.3 132.1-1.7 45.5-2.7 91-4.4 136.5-3.5 90.7-10.5 181.3-11 272.1-.3 50.4.5 101.1 5.6 151.3 5 49.6 16.7 98 27 146.6 1.1 5.4 9.4 3.1 8.3-2.3-9.4-44.2-18.9-88.5-24.8-133.3-5.9-44.5-7-89.3-7.4-134.1-.8-89.9 5.4-179.5 9.5-269.3 2.1-45.4 2.8-90.9 4.5-136.4 1.7-43.9 1.8-88.1 5.2-132 3.5-44.7 14.1-87.7 27.1-130.4 12.4-40.5 27.5-80.6 36.7-122 4.8-21.5 7.8-43.5 7-65.5-.8-23.7-7-46.1-13.8-68.6-7-22.9-14.4-45.7-18.9-69.3-2.4-12.5-5-26-2.1-38.6a68.28 68.28 0 0 1 4.92-13.46c2.49 1.22 6.6-.23 6.38-3.64-.15-2.08-.3-5.73-.27-10.09q.35-1 .68-1.91a4.7 4.7 0 0 0-.54-3.54c.35-8.34 1.49-17.81 4.41-23.84a26.18 26.18 0 0 0 5.94 7.29c3.4 2.8 7.6.1 7-4.1-.48-3.28-1.91-6.1-3.25-9 .51.11 1 .22 1.54.36a14.39 14.39 0 0 1 1.31.6l.08-.19.62.19c4.5 1.5 7.4-5.4 3.2-7.6-5.91-3.11-10.67-3.46-14.51-1.93-.54-1.07-1.09-2.11-1.67-3.11h.48a37.54 37.54 0 0 0 39.3-23.1c1.5-3.29-.9-7.09-4.9-6.19zm-89.11 27.41c.75-.17 1.49-.36 2.22-.56.46.4.93.8 1.4 1.18a22.49 22.49 0 0 0 .73 2.4c-1.44-.95-2.86-2.03-4.35-3.02zm4.23-10.24a32.26 32.26 0 0 1-2.22-2.94c1.27.71 2.53 1.44 3.73 2.22q-.73.39-1.51.72zm5.93-15.16c.82-1.5 1.57-3.09 2.42-4.56a60.59 60.59 0 0 0 1.71 6.24q-2.04-.88-4.12-1.68zm6 22.1a17.37 17.37 0 0 0-2.27-3 25.24 25.24 0 0 0 2-1.8 4 4 0 0 0 .65-.9c-.11 1.9-.25 3.81-.38 5.71zm.65-9.6c0-.1-.1-.2-.16-.3l.17.08zM3082 174q.35-.38.68-.78v.09zm7-11.5l-1.68.38q-.45-1.17-.88-2.35 1.28.56 2.57 1.09c.07.29.06.59.05.88zm2.95 23.18a25.59 25.59 0 0 0-2.24-4.67l1.18-.17a10.75 10.75 0 0 1 1.13 4.55zm10.69-66.08a62.83 62.83 0 0 1 6-4.56c-1.74 2.49-3.54 5-5.31 7.44a18.66 18.66 0 0 0-1.45-2.2zm-3.83 5.7a14.78 14.78 0 0 1 1.23 1.89c-1 1.48-2 3-2.86 4.51a65.23 65.23 0 0 1 1.69-6.4zm.08 76.3a4.09 4.09 0 0 0-3.75-.8l-.55.22v-.09c.59-1.08 1.26-2.16 1.75-3.13a48.11 48.11 0 0 0 3.23-7.72A4 4 0 0 0 3101 187a22.42 22.42 0 0 0-.12-2.95 25.29 25.29 0 0 0-.68-9 4.45 4.45 0 0 0-1.57-2.34q-.32-1.46-.61-2.93c1-.11 2.06-.2 3.1-.26q2.5 3.61 4.68 7.53.33.59.64 1.19c-4.11 5.76-6.36 14.54-7.49 23.36zm26.11-41.2c-6.4 2.06-13.1.87-19.77.53q-1.62-2.05-3.38-4c.36-1 .74-1.91 1.15-2.84a29.81 29.81 0 0 0 3.27-2.79 34.28 34.28 0 0 1 0 5.59c-.8 2 3.6 1.9 3.9-.9a41.16 41.16 0 0 0-.07-8.72c.61-.65 1.22-1.29 1.84-1.91a10 10 0 0 1 2.22-.2 22.9 22.9 0 0 0-2.4 7.93c-.2 1.5 1 3 2.2 3.8 7.32 4.58 13.7 2.08 20-1.36a27.15 27.15 0 0 1-8.96 4.87zM1087.5 476.1l.1-.06a1.23 1.23 0 0 0-.9.33l.5-.09zM667.4 1287.5c-18.2-39-30.3-80.6-41.4-122.1-22.8-85.4-39.2-172.1-58.2-258.4-9.5-43-20.8-85.6-29.8-128.7-9.1-43.5-16.9-87.2-25.1-130.9-8.2-43.3-17.2-86.3-27.3-129.2-5-21.4-11.2-42.6-14.7-64.2-3.4-20.8-6.7-41.3-13-61.5a264.1 264.1 0 0 0-21.7-51.8c-9.4-16.9-21.8-31.5-34.5-45.9a510.92 510.92 0 0 0-39.8-40.8c-1.87-1.66-3.79-3.36-5.67-5.13a4.48 4.48 0 0 0 3-2.57 13.52 13.52 0 0 0 .1-9.7c-.91-2.88-2.56-5.36-2.61-8.17q2.81.81 5.61 1.67c3.8 1.2 6.5-4.8 2.8-6.5l-.68-.32.08-.18-1.62-.48a21.72 21.72 0 0 0-4.11-1.19q-2.66-.74-5.33-1.43c5.93-10.06 7.51-21.9 3.09-33 .86-5.54-1-12.08-4.83-15.23-1.9-1.6-5.4-1.3-6 1.6-.24 1.17-.45 2.35-.65 3.53-1.76-2.82-4.31-4.65-8.85-4a3.51 3.51 0 0 0-2.5 2.5c-.59 1.43-1.13 2.89-1.68 4.34a3 3 0 0 0-2 1.66c-.22.47-.42.94-.61 1.42-2.71-7.16-5.8-14.58-14.79-13.62a3.72 3.72 0 0 0-3.6 3.6 110 110 0 0 0 1.04 13.2c-4.27-6-8.29-12.21-12.69-18.12-2.14-2.82-5.81-1.76-6.45 1.17-1.72-3.87-3.5-7.7-5.45-11.47-1.7-3.3-6.4-1.5-6.6 1.8-.3 6.2 2.5 12.2 4.7 17.8 1.51 3.86 4.63 10.07 4.27 15-3.46-4.61-6.62-9.48-10.87-13.43-2.4-2.3-7.2-.1-5.9 3.5a146.72 146.72 0 0 1 4.6 14.2c.27 1 .61 2.29.92 3.64l-.32-.24c-2.4-1.8-5.1.7-5.3 3.1-.5 5.6 1.2 9.9 4.9 14.1a3.69 3.69 0 0 0 3.1 1 25.27 25.27 0 0 1-3.6 4.23c-4.1 4.4-8.6 8.5-11.2 14.1-1.1 2.4.2 5.2 3 5.3a21.46 21.46 0 0 0 5.35-.51 11.24 11.24 0 0 0 6.55.91 14.27 14.27 0 0 0 7.7-4.22c1.79 2 5.73 1.85 6.5-1.38.09-.37.17-.75.25-1.12h.15v-.71q.23-1 .45-2.09l2.08.15A53.81 53.81 0 0 0 297 247.3a3.63 3.63 0 0 0 2.6 3.4c3.42 1 7.29.06 11-1.48-.22.92-.41 1.82-.58 2.68-.7 3.8 4.8 6.8 6.7 2.8.12-.25.23-.51.35-.76l.15.06.13-.69a54.52 54.52 0 0 0 3-8.78l.77-.35a27 27 0 0 0 3.08 9c1.8 3.1 6.9 1.8 6.8-1.9 0-2.4-.4-4.7 2.4-5.3 2.6-.5 4.7 2.7 5.8 4.5 1.8 2.9 3.1 6.1 5.9 8.3 2.4 2 6.2.8 6.3-2.6a15.1 15.1 0 0 0-.11-2.11c4.49 4.18 9.25 8 13.21 11.81C379.6 280.3 393.6 296 407 312a209.46 209.46 0 0 1 31.3 49.2 308.87 308.87 0 0 1 18.7 56.2c5.1 21.7 6.8 43.9 12.3 65.5q16.5 64.5 29.3 130c8.7 44 16.5 88.1 25.1 132.1s19 87.5 29.4 131.1c10.3 43.3 18.8 87 27.9 130.6q13.65 65.7 30 130.7c10.6 42.4 21.8 85.3 38 126 14.6 36.9 33.9 71.6 55.2 105 5.5 8.7 11.3 17.2 17 25.8 2.5 3.7 8.6.2 6-3.5-22-33.1-43-67.1-59.8-103.2zm-387.32-1056a18.37 18.37 0 0 1 5.76-3.84c0 .13.08.26.13.38-1.97 1.14-3.89 2.36-5.89 3.42zm6.56-23.5l-.12-.18a32.72 32.72 0 0 0-.67-9.47c.79 1 1.6 2 2.45 3a48.86 48.86 0 0 0-1.66 6.65zm27.49 14.1c.1.65.19 1.3.27 2a8.16 8.16 0 0 1-2.8 1.62 10.42 10.42 0 0 1-3.36.28 20.6 20.6 0 0 1 1.21-2.35 4 4 0 0 0 2.55-1.37c.71-.07 1.42-.12 2.13-.16zm-13.73 3.36q-1.42-.08-2.81-.24l.22-1.12c1.18-.22 2.33-.42 3.42-.59q-.44.98-.83 1.98zm-1-8.81c.59-2.5 1.26-5 2.07-7.41.82 2.19 1.51 4.43 2.24 6.67q-2.2.34-4.35.77zm4.42-19.14a3 3 0 0 0 .42-1.63 62.45 62.45 0 0 0-1.07-10.24c2.18 3.18 4.4 6.32 6.72 9.39a69.89 69.89 0 0 0 .66 7c-.39 2.37-.65 4.81-1.08 7.17a44.52 44.52 0 0 0-4.93-10.95 4.12 4.12 0 0 0-.76-.72zm10.34 42c-.14.26-.29.51-.43.78-3 1.63-6.54 3.51-9.5 3.9a74.31 74.31 0 0 1 1.71-11 28.54 28.54 0 0 0 7.39-.47 9.33 9.33 0 0 0 1.52-.44 50.12 50.12 0 0 1-.73 7.29zm25.27-58.68a11.07 11.07 0 0 1 .78 1.33l-.07.08a16.62 16.62 0 0 0-2.41 4.65q-.11-.64-.23-1.27c.65-1.51 1.27-3.11 1.89-4.73zM328.3 213.6a22.54 22.54 0 0 0 1.41-2.59c-.17 1.16-.32 2.33-.45 3.49a11.44 11.44 0 0 0-1.46-.31 3.19 3.19 0 0 0 .5-.59zm-10.9-4.5v2.88q-.32-1.17-.61-2.34v-.24c.42-2.51.52-5.55 1.23-8.28a4.08 4.08 0 0 0 .47-.27 28.76 28.76 0 0 1 1.89 5.74 2.7 2.7 0 0 0-2.98 2.51zm3.3-18.1a3.34 3.34 0 0 0-1-.69c-.43-4.25-1.05-8.48-1.36-12.75 4.28 3 5.55 12 7.71 16.14a3.15 3.15 0 0 0 .53.73c-.25 1.61-.51 3.23-.82 4.82a25 25 0 0 0-5.06-8.25zm6.09 43.19a4 4 0 0 0-3.91-1.94 2.88 2.88 0 0 0 .23-1.15q0-3-.07-5.92c.3-.42.61-.86.93-1.28a29.85 29.85 0 0 0 2.53 4.1c1.3 1.7 4.3 2.3 5.5 0a24.6 24.6 0 0 0 1.25-3.13l.15.13a25.66 25.66 0 0 1 2.49 2.63c0 .43 0 .86.06 1.29l-.66.49a58.1 58.1 0 0 1-8.5 4.78zm7.81 4.71a12 12 0 0 0-1.79-.11c1.64-.84 3.25-1.73 4.82-2.71a32.15 32.15 0 0 0 2.32 4.72v.21a11.39 11.39 0 0 0-5.35-2.11zm6.1-32.9c-.51 2.48-1.25 4.94-2 7.4a36.15 36.15 0 0 0-2.8-4.4 3.78 3.78 0 0 0-5-.92A60.85 60.85 0 0 0 333 198a21.33 21.33 0 0 0 3.67 6.44 3.06 3.06 0 0 0 4.2.58c-.04.3-.1.64-.17.98zm5.47 12.29l-1.52-.32c1-3.36 2.13-6.74 2.84-10.17.79-3.9 1.38-7.83 1.91-11.76a9.18 9.18 0 0 0 1.86-.73c1.51 8.02-.52 16.05-5.09 22.98zM3729.3 370.8a5 5 0 0 0-3.42-4.05c.44-1 .85-1.94 1.22-2.95 1.6-4.5-5.3-7.3-7.6-3.2-2 3.55-3.85 7.3-6.5 10.33 3.43-7.71 5.2-16.68 6.6-23.83l.2-.48h-.14c.49-4.69-5.72-6.25-7.82-2.15v.17c-.05.11-.12.21-.16.33-1 2.47-2.32 5.28-3.65 8.27.06-.72.11-1.44.15-2.17.2-4-4.6-5.1-7.2-3-.37.3-.7.63-1 1a3.45 3.45 0 0 0-2.66 1.25c-6 7.18-8.87 17.12-14 25 .21-1 .4-1.95.58-2.92.11-.63.22-1.26.31-1.9a4.23 4.23 0 0 0-2.55-4.54c1.37-5.67 3.07-11.42 3.35-17.26.3-5.6-7.8-5.2-8.5 0l-.08.6h-.22c-.26 4.73-1.78 9.91-3.18 15.19a19.26 19.26 0 0 1-2.56 4.47c-.29-.71-.56-1.42-.81-2.15.75-5.48 1.39-11 1.85-16.51.27-3-3.64-3.43-5.12-1.4a11.41 11.41 0 0 0-.88-1.41c-2.2-2.9-8.4-2.6-7.9 2.1.28 2.52.56 5.07.91 7.61-2.25 4.89-8.2 10.26-10.73 12.8-6.61.32-13.85 1.37-18.18 7-.9 1.1-.6 2.9 0 4.1a27.35 27.35 0 0 0 2.93 4.29 27 27 0 0 0-2.43 3.91 4.2 4.2 0 0 0 3.6 6.3c7.25.38 15-1.69 21.81-4.31-.18.42-.39.84-.58 1.26-7.15.23-13.09 3.82-11.53 13 .9 5.7 4.1 9.9 9.6 11.9a16.39 16.39 0 0 0 1.64.53c-8.91 1.55-17.2 7-23.64 13.27-3.2 3.1.2 7.6 4 6.9 6.72-1.23 14.06-2.46 21-4.68a3.77 3.77 0 0 0 4.83.58c2.6-1.5 4.8-3.8 7.5-5.3s3.5-.8 5 1.8c2.4 4.2 4.3 8.9 8.9 11.2a4.44 4.44 0 0 0 5.8-1.5 26.37 26.37 0 0 0 3.13-5.86c.21 1.21.41 2.43.57 3.66 1.9 14.1 3.5 28.3 4.7 42.4 2.6 28.7 3.6 57.5 3.6 86.4 0 14.5-.1 28.9-.2 43.4-.1 14.2.5 28.6-.1 42.8-1.2 27.7-8.3 54.7-16.2 81.2a497.33 497.33 0 0 1-31 79.1c-11.6 23.4-24.3 46.3-34.1 70.6-20.7 51.2-24.3 107.6-27.2 162.1-3.5 65.8-4 131.8-4 197.6 0 6.4 9.9 6.4 9.9 0 0-59.3-.7-118.6 2.1-177.9 2.6-54.8 4.4-111.8 22.2-164.2 8.7-25.8 21.6-49.8 33.9-74a546.49 546.49 0 0 0 31.7-74.8c8.6-25.9 16.2-52.5 19.8-79.6 3.7-28.2 1.9-57.2 2-85.5.1-32.2-.2-64.4-2.7-96.6-1.2-15.9-2.9-31.8-4.9-47.6-1-7.5-1.8-14.9-3.7-22.2l-.13-.5a113 113 0 0 0 7.41-11.39 3.66 3.66 0 0 0 3.22-1.11 26.15 26.15 0 0 0 2-2.4 4.56 4.56 0 0 0 2-1.5c2.27-3.18 4.19-6.61 6.23-9.94 2.61-3.44 5.23-6.87 7.77-10.36a3.45 3.45 0 0 0 .68-2.52 16.33 16.33 0 0 0 2.58-10.73zm-73.36 38.39a9.14 9.14 0 0 1-1.24-.69c-2-1.3-4.5-6.2-2.3-8.1.88-.82 2.84-.68 4.65-.34a38.16 38.16 0 0 0-1.11 9.13zm3.18-29.61a21 21 0 0 0-6 .62 40.09 40.09 0 0 0-5 1.66q1.52-1.47 3-3c2.68 0 5.36.11 8 .37zm1.61-11.08c.12.41.25.83.38 1.24l-.1.57-1.63-.16c.45-.54.9-1.09 1.36-1.66zm.67 53.6c-.16-.5-.31-1-.5-1.49a5.56 5.56 0 0 0-1-1.73 28.62 28.62 0 0 1 4.73 1.15 31.86 31.86 0 0 1-3.23 2.06zm4.06-10.77c.72-2.74 1.27-5.52 1.74-8.32l2.62 1c.47 3.16.82 6.38 1.38 9.54a23.44 23.44 0 0 0-5.74-2.23zm13.75 4.14a80.51 80.51 0 0 1-1.35-8 13.29 13.29 0 0 0 1.39-.56 26.13 26.13 0 0 0 3.76.5c-1.17 2.73-2.47 5.4-3.79 8.05zm4 15.78l-.3-.45.59-.29c-.04.23-.14.49-.24.73zM3681.9 391a29.83 29.83 0 0 1-3.47 5.92c.22-1.8.52-3.59.89-5.37l.08-.05a31 31 0 0 0 4.2-3.54c-.6.97-1.16 1.99-1.7 3.04zm6-8.3q.37-.54.72-1.08c0 .12.09.24.15.36-.31.23-.59.47-.87.72zm16.24 16.69l-.3.42a3.52 3.52 0 0 0-.73 0 15.79 15.79 0 0 0-3.78.88 4.12 4.12 0 0 0-.73 0c1.66-1.51 3.7-3.54 5.74-3.89a22.76 22.76 0 0 0-.21 2.59zm4.12-13.59c-.59 1-1.13 2.11-1.61 3.18-3.41-.65-6.9.53-9.94 2.72-.51.36-1 .73-1.45 1.1a38.91 38.91 0 0 0 .35-8.3 4.12 4.12 0 0 0-.21-1 12.12 12.12 0 0 0 1.14-1c.94 2.19 3.76 3.54 6 2.07a22.61 22.61 0 0 0 3.46-2.84c.17.22.34.43.54.64a3.55 3.55 0 0 0 2.15 1.08 16.94 16.94 0 0 0-.44 2.35z"/><path class="cls-1" d="M719.2 1126.7c-8.9-32.5-14.5-66.1-20.4-99.2a446.3 446.3 0 0 1-6.5-50.3c-1.1-16.7-.2-33.4 1.2-50.1 3-35.2 8.3-70.2 13.1-105.2 4.6-34.2 8.4-68.4 9.2-102.9a863.44 863.44 0 0 0-3.7-103c-3.2-34.4-6.7-68.9-11.1-103.2-2.1-16.8-4.5-33.7-8.4-50.2-3.8-16.1-9.7-31.5-13.1-47.7-6.3-30.5-10.4-63.1-24.1-91.3-6.7-13.8-15.6-27.1-24.3-39.7a198 198 0 0 0-13.9-17.8c-3.8-4.3-8.9-8.7-10.6-14.4a5.33 5.33 0 0 1 1.32-5.59c9.52.17 19.68 1.91 28.88-1.51 8.6-3.2 15.7-9.4 23.1-14.8a43.25 43.25 0 0 0 14.8-18c6.3-14.8 10.3-32.1 5.7-47.9a66.42 66.42 0 0 0-11.2-22.2c-4.9-6.3-12.1-13.1-19.4-16.5-7.5-3.5-16.5-5.4-24.8-4-10.3 1.8-19.7 6.1-29.8 8.6-8.58 2.1-18.14 1.3-26.36 4.78a18.88 18.88 0 0 0-1.94.12c-10.52 1.23-16.2 8.84-17 18.38l-.33.42a3.53 3.53 0 0 0 .39 4.84c.8 9.81 3.11 18.34.61 28.26-1.5 6-3 12.5-.7 18.6 2.7 7.1 9.1 12.1 13.4 18.3 4.8 7 9.2 13.2 16.9 17.1 7.29 3.73 14.88 5 22.81 5.38a8.25 8.25 0 0 0-.91 2.82c-.7 4.9 2.8 9.8 5.6 13.4 4.3 5.5 9.1 10.5 13.4 16a354.75 354.75 0 0 1 26.6 41c8.2 14.3 12.7 30.3 16.4 46.2 3.9 16.6 7 33.3 10.4 50 3.5 17.1 9.7 33.5 13.6 50.5 7.9 35.1 10.4 71.2 14 106.9s7.2 71.4 7.8 107.3a792.22 792.22 0 0 1-5.7 107.8c-4.3 36.1-10.2 71.9-14.5 108-2.1 17.8-4 35.7-4.9 53.6-.9 17.3.4 34.7 2.6 51.9 4.5 34.1 11.4 68.3 18.6 101.9 3.6 16.7 7.7 33.3 13.8 49.3a268.31 268.31 0 0 0 20 40.6c4.1 7 8.5 13.8 12.9 20.5 2.6 4 9 .3 6.4-3.7-17.07-26.2-31.67-53-39.87-83.3zM557.3 142.3a14.21 14.21 0 0 1 3.67-2.53 63.83 63.83 0 0 0-7 8.11 13.23 13.23 0 0 1 3.33-5.58zm25.4 95c-7.8-3.7-11.9-9.8-16.7-16.6-3.7-5.3-9-9.6-12-15.4-2.8-5.5-1.6-11.4-.2-17.1 2-8.5 1.8-15.7.4-24.3-.27-1.66-.56-3.39-.77-5.13a3.47 3.47 0 0 0 .77-.67c4-4.5 7.3-9.8 11.8-13.8a20.54 20.54 0 0 1 10.43-4.78c2.08 1.55 3.2 4.15 2.47 8.08.2 1.2 1.6 1.6 1.8.6 1-3.76.34-6.85-1.34-9.13 2.1-.26 4.26-.43 6.44-.67 15.2-1.7 28.9-8.8 44-10.1 14.5-1.2 28.6 7.6 36.7 19.2 8.4 12 12.7 26.6 9.4 41-1.6 6.9-2.9 13.9-5.5 20.5-3.2 8.2-8.5 13.4-15.4 18.7-6.3 4.8-12.7 10.3-20.3 13-4.52 1.6-9.34 1.86-14.2 1.74-3.51-2.47-8.94-2.55-13-.57-8.66-.21-16.78-.75-24.8-4.57zM1210.8 1165.3c-1.6-56.2-.1-112.4.8-168.6.9-58.1 1.4-116.3-1.4-174.3-1.4-28.7-3.7-57.3-5.1-85.9-1.4-28.3-1.8-56.5-4.2-84.7-2.6-31.2-5.6-62.6-10.3-93.5a201.44 201.44 0 0 0-11-43.2c-2.44-6.31-5.52-12.37-8.56-18.43q.45-1.36.79-2.74a33.4 33.4 0 0 0 2 3c2.1 2.7 6.4 2.7 7.5-1a28.29 28.29 0 0 0 .28-13.06l1.72 1.86c2.1 2.2 4.3 4.8 7.1 6.1a4 4 0 0 0 4.1 0c3.5-2.7 5.8-5.7 5.4-10.3a12.56 12.56 0 0 0-.26-1.76 4 4 0 0 0 3.56-1c9.21-9.4-2.25-16.64-11.43-17.9l-.28-.12a5.38 5.38 0 0 1-.69-1.88 22.46 22.46 0 0 0 2.7 1.31c6.6 2.9 14.5 3.8 21.7 3.4 6.1-.4 13.1-1.7 15.6-8 .9-2.2-1-5.2-3.2-5.7a71.5 71.5 0 0 0-8.5-1.18 5.78 5.78 0 0 0-2.7-2.52 31.83 31.83 0 0 0-10.08-2.18l1.44-.52c3.87-.49 7.88-1.51 11.83-2.1l-.18-.64.38-.06c5.6-.8 3.2-9.4-2.4-8.6-.54.08-1.13.2-1.75.34a27.51 27.51 0 0 0 2.55-4.54c1-2.2.5-5.9-2.6-6.4a28 28 0 0 0-5.36-.21c-.85-2.46-4.18-4-6.54-2.49A53.29 53.29 0 0 0 1199 421a4 4 0 0 0-2.49.89l-.28-.28c-.44.49-1 1.2-1.61 2l-1.61 1.53c.23-.92.44-1.84.62-2.77.6-3.2-2.8-6.8-6-4.6a60.1 60.1 0 0 0-7.48 6c.07-1 .14-2 .18-3.06a3.81 3.81 0 0 0-2.37-3.58l.4-2.51a88 88 0 0 0 1.67-13.36c.15-2.11.23-4.23.2-6.36h-.23c-.41-4.79-8-4.83-7.87.2a91.71 91.71 0 0 1-1.09 14.37 4.28 4.28 0 0 0-2.91 1.73c-.34.46-.65.94-1 1.43a64.75 64.75 0 0 0-4.25-9.63c-1.8-3.4-7-1.7-7.1 1.9 0 1.57 0 3.14.12 4.71a9.75 9.75 0 0 0-1.32-.91 3.88 3.88 0 0 0-1.18-.44 12.57 12.57 0 0 0-2.12-2 4 4 0 0 0-5.5 1.4c-.51 1.07-1 2.16-1.42 3.26q-1.84-2.11-3.85-4.13l-.59-.6c-3.1-3.1-8.9 1-6.3 4.8 1.45 2.11 2.81 4.3 4.13 6.51a4.39 4.39 0 0 0-2.71 0l-1.6-1.23-.12-.2-.06.06-.34-.26c-1.9-1.5-4.9.3-3.6 2.7a47.47 47.47 0 0 0 2.74 4.47v.45a43.36 43.36 0 0 0 .59 10q0 .81.09 1.63c-3.62.09-7.34 1.5-10.67 3-5.46-1-10.9-2.15-16.48-2.15-3.1 0-5.4 3.6-3.6 6.3 2.7 4.1 6.3 6.6 10.6 8.7 3.75 1.79 7.77 3.29 10 6.78-3.29 1.75-6.56 3.55-9.8 5.32-5.7 3.1-11.4 6.1-17.1 9.1-2.1 1.1-4.3 2.2-6.5 3.2a14 14 0 0 0-1.6.64 1.72 1.72 0 0 1 .54.08l-.93.16c-.46.27-.6.22-.5.09l-1.3.23c-2.7.5-3.6 3.9-2.4 6 1.67 3.11 5.11 2.25 8 1 3.41-.55 7-1 10.64-1.56a4.68 4.68 0 0 0 1.78 1.24 32 32 0 0 0-3.51 12.88c-.1 2.5 2 4 4.2 4.2 5.14.54 9.86-1.67 14.2-5a11.24 11.24 0 0 0 6.2 4.57c4.86 1.53 9.87 0 14.32-2.6a4.44 4.44 0 0 0 5.28-1.5c.58-.82 1.18-1.73 1.82-2.66 3.23-2.29 7.32-5.59 9.78-2.74 2.7 3.2 3.3 7.9 5.9 11.3a4.92 4.92 0 0 0 4.08 2c1.25 2.54 2.48 5.09 3.62 7.68a177.86 177.86 0 0 1 11.7 39.1c5.3 27.8 7.5 56.6 10.2 84.7 2.8 28.5 4 57 5 85.6s3.2 57.1 4.9 85.6c6.9 115.4-1 231 1 346.5 1 57.1 6.1 114.3 34.6 165 2.5 4.5 9.4.5 6.9-4-25.51-45.28-31.41-97.38-32.81-148.58zm-92.62-681.95c-.3.28-.58.57-.88.85-2.15 2-4.79 4.57-7.73 6a33.76 33.76 0 0 1 3.08-6 42.93 42.93 0 0 0 5.62-1.1zm4.43-35.84a37.23 37.23 0 0 0 8.27.73l1.71.14a40.94 40.94 0 0 1-.76 4.6l-1.81.95c-1.72-2.93-4.43-4.84-7.41-6.41zm2.1 42.74v-.55c3.52-3.54 6.74-7.26 9.69-10a24.51 24.51 0 0 0 1.21 9.87c-3.88 2.43-8.86 4.36-10.9.69zm10.22-16a4.07 4.07 0 0 0-1.57-1.44l2.42-3.74c-.29 1.63-.6 3.38-.85 5.15zm38.67-3.12a3.07 3.07 0 0 0-.4.27l-.11-.54a5.84 5.84 0 0 0 .63.21zm15.81 1.19c1.09 2.79 2.88 6.35 2.46 8.9-4.35-3.93-8.41-10.67-13.86-11.12a4.17 4.17 0 0 0 1.21-2.18 50 50 0 0 1 6.71-.85 17.4 17.4 0 0 0 2.71 2.32 5.12 5.12 0 0 0 0 .61 12.62 12.62 0 0 0 .77 2.29zm-43-11.47c1.39 1.29 2.84 2.5 4.34 3.66-1.57-.44-3.14-.87-4.7-1.27.07-.83.2-1.63.34-2.41zm-5.4-23.57a12.29 12.29 0 0 0 2.24-2.45c.56.43 1.13.84 1.71 1.24-.52 1.73-1.06 3.47-1.6 5.21a12.64 12.64 0 0 0-2.33-3.07q-.03-.48-.03-.95zm11 40a19.85 19.85 0 0 0-9 6.2 31.22 31.22 0 0 1 .4-7.32 3.14 3.14 0 0 0 .57 0 72.49 72.49 0 0 0 9-1.46 3.88 3.88 0 0 0 .16 1c.13.42.26.83.4 1.25a13.51 13.51 0 0 0-1.54.35zm13.6-22.7a5.06 5.06 0 0 0-1.5.32 64.3 64.3 0 0 0-14.79-5.79c.82-2.83 1.67-5.67 2.51-8.51a20.72 20.72 0 0 1 5.21 6.62l.27.66.09.2c1.5 4 8 2.4 6.5-1.8a139.23 139.23 0 0 0-4.24-10.8 16.18 16.18 0 0 0 .95-3.51 6.19 6.19 0 0 0 .77-.07 4 4 0 0 0 3.31 2.08 37.7 37.7 0 0 0-.19 2.61c-.08 3.73 4.29 4.77 6.53 2.69a44.88 44.88 0 0 0 1.57 12.61 4.09 4.09 0 0 0 7.4 1c1.55-2.58 3.1-5.19 4.58-7.85a19.93 19.93 0 0 0 3.84-2.24 4.19 4.19 0 0 0 .47.56l-.49.43c-2 1.93-3.36 3.81-3.44 5.92-.08.1-.18.18-.26.28a11.84 11.84 0 0 0-2.79 6.34 50.9 50.9 0 0 0-16.31-1.73zM938.7 1006.4c-6.9-32.3-12.9-64.8-17.3-97.6-4.6-34.3-7.9-68.8-11.5-103.2-3.4-33.1-7.9-65.9-12-98.9a835.72 835.72 0 0 1-6.3-101.2c-.2-33.6-.4-67.2.7-100.8 1.1-34.2 3.2-68.4 3.7-102.6.5-37.2-1.4-74.2-7.7-111-6.3-37-16-73.2-25.4-109.5a3.78 3.78 0 0 0-2.6-2.6 12.82 12.82 0 0 0-3.38-.43 18.19 18.19 0 0 1 1.28-1.37c.4-.2.3-.1-.1.2a4.26 4.26 0 0 0 6 0c4.5-4.3 3.8-10 4.5-15.7q.34-3 .87-6c2.58-5.43 2.56-11.63 4.83-17.25l-.28-.08c1.59-4.74-5.63-6.4-7.42-2a27.14 27.14 0 0 0-1.45 5 16.07 16.07 0 0 0-4.55-5.66c-1.9-1.5-4.8-1.6-6.1.8-4 7.17-2.86 15.62-5.66 23.06a18.43 18.43 0 0 1-1.89-5c0-3.21.11-6.41.25-9.62h-.2v-.3a3.18 3.18 0 0 0-.47-1.53v-6.57c0-3.2-5-3.2-5 0v6.14a3.21 3.21 0 0 0-3.87 1.85q-.25.57-.48 1.16a3.69 3.69 0 0 1-6.14 1c-1.79-3-7.28-2.08-7.19 1.94v.83a15.75 15.75 0 0 0-1.88 1.7 5.71 5.71 0 0 1-1.34-2.13c-1.7-3.7-7.2-1-6.4 2.7 2.7 12.1 3 24.5 7.9 36 1.1 2.5 4.9 2.1 6.1 0a32.89 32.89 0 0 0 3.41-8.64 3.54 3.54 0 0 0 2.51-.64 19.31 19.31 0 0 0 5.59 8.17 16.35 16.35 0 0 0 1.86 1.39 15.54 15.54 0 0 0 3.34 2.61 4.18 4.18 0 0 0 5.24-1h.06c2.28-.63 4.12-2.79 6.31-3.35 8.45 31.32 16.75 62.76 22.69 94.75a565.94 565.94 0 0 1 9.4 102.3c.1 33.5-1.8 67-3.3 100.5-1.5 34.3-1.7 68.6-1.6 102.9 0 33.3.3 66.4 3.9 99.5 3.6 33.6 8.8 67 12.4 100.6 7.2 66.9 13.4 133.7 26.4 199.8a1573.46 1573.46 0 0 0 58 214.3c1.6 4.6 9 2.7 7.4-2a1755.82 1755.82 0 0 1-53.14-192.53zm-92.34-825.91a17.15 17.15 0 0 1-2-6.22 2.19 2.19 0 0 0 2.04-2.27v-4.68a9.22 9.22 0 0 0 .89.38c5.3 1.8 7.9-1.9 9.5-6.5s1.46-9.74 2.4-14.52a50.68 50.68 0 0 1 2.05 8.55l-.06.27a71.42 71.42 0 0 0-1.1 7.9 37.74 37.74 0 0 1-.36 5.39c-5.85-1.26-9.94 5.93-13.36 11.7z"/></svg>