<svg id="Layer_1" data-name="Layer 1" xmlns="http://www.w3.org/2000/svg" viewBox="0 0 3800 1541.7"><defs><style>.cls-1{fill:#df87a9}</style></defs><title>Artboard 1</title><g id="tall_vines" data-name="tall vines"><path class="cls-1" d="M1528.8 1423.5c.6-12.8 4.1-24.8 6.8-37.3 1.7-7.7 2.7-18.6 8.9-24.2 2-1.8-1-4.8-3-3-6.5 6.2-7.5 16.9-8.8 25.2-2.2 13.1-5.4 25.9-5.5 39.3 0 1 1.5 1 1.6 0z"/><path class="cls-1" d="M1533.5 1329.6c-4.1 2.9-7.8 5.6-12.7 6.9a17 17 0 0 0-8.7 5.2c-5.9 6.1-10.6 13.5-15.5 20.5-4 5.7-7 11.4-7.3 18.4a57.91 57.91 0 0 0 4.6 25c6.8 16.3 20.8 29.7 33.4 41.5 13.3 12.5 27.5 24.2 39.3 38.2 6.7 7.9 11.9 16.6 17.4 25.4 2.7 4.4 6.3 8.4 8.4 13.2 1.7 4.1 2.8 8.1 6 11.4a3.29 3.29 0 0 0 5-.6c6.9-10.5 13.4-21.3 18.2-32.9 4.6-11.2 8.1-22.7 13.2-33.6 5.3-11.2 13.2-20.1 19.6-30.6 2.7-4.5 5.1-9.3 6.1-14.5a25 25 0 0 0 .3-7.2c-.3-3.8.5-6.3 1.6-9.9 1.8-5.8-.1-10.3-1.3-16-1.3-6.4.3-12.5-1.6-18.9-1.6-5.4-4.1-10.5-5.9-15.9-2.1-6.2-3.8-12.4-5.8-18.6-3.2-9.7-7.2-21.7-15.9-28-7.6-5.5-19-3.8-27.8-3.1-11.6.9-20.1 7.7-29.9 13.4-13.3 7.7-28.3 7.7-43.2 7.6-5.5 0-5.5 8.5 0 8.5 11.8 0 23.9.2 35.2-3.4 9.4-2.9 16.8-8.8 25.3-13.4s18.7-5.4 28.2-4.9c11.4.6 15.8 12.7 19.2 22 4 11 7.2 22.2 11.5 33 2.3 5.7 2.8 10.4 2.7 16.6-.2 5.9 3.7 11.9 2.6 17.6-.5 2.6-2 5-2.4 7.7a28.3 28.3 0 0 0 .2 6.5c.6 6.3-2.2 12.1-5.4 17.4-5.8 9.5-13.1 17.6-18 27.6-5.3 10.8-9.1 22.2-13.2 33.5-4.7 13-11.6 24.9-19.1 36.5l5-.6c-2.7-2.7-3.5-6.6-5.1-10-1.7-3.8-4.3-7-6.6-10.4-5-7.1-8.9-14.8-14.2-21.7-10-13.3-22.2-24.6-34.5-35.7s-25.1-22.5-35.1-36c-9.3-12.6-17.8-31.9-10.1-47.3a147.12 147.12 0 0 1 14.6-22.8c1.6-2.1 3.6-4.8 5.9-6.3 1.9-1.2 4.3-1.4 6.4-2.3 4-1.5 7.2-4.4 10.5-7 1-1.1-.2-2.7-1.1-2z"/><path class="cls-1" d="M1545.2 1333.5c1.4 13.5 11.5 24.1 18.2 35.4a127.62 127.62 0 0 1 10.1 21.9c2.4 7 4.1 13.9 7.3 20.6 2.1 4.4 2 8.4 2.1 13.1a54.15 54.15 0 0 0 1.5 10.6 214.88 214.88 0 0 0 6.4 23.5c1.4 4.1 3 7.9 3.3 12.3.3 4 .1 8 .4 12 .8 9.2 2.8 18.3 3 27.6.1 3.2 5.1 3.2 5 0-.2-9.3-2.2-18.3-3-27.6-.7-7.8-.2-14.9-2.9-22.4a208.23 208.23 0 0 1-7-23.3 68.91 68.91 0 0 1-2.2-12.7c-.1-3.9.1-7.7-1.1-11.4s-3.3-6.8-4.6-10.4c-1.3-3.8-2.2-7.7-3.6-11.5a113.67 113.67 0 0 0-9.2-19.7c-7.2-12.3-19.9-23.7-22.4-38.2.1-.8-1.3-.6-1.3.2zm4.5 114c.2-8.9-.7-18 2-26.7 2.2-7.2 5.6-13.6 5.2-21.3-.1-2.4-4-2.4-3.8 0 .8 8.5-3.4 15.5-5 23.6s-.2 16.3.1 24.4c.1.9 1.5.9 1.5 0zm11.9-92.3c6.9-7.6 23.3-.1 31.3 2.3 6.8 2.1 11.6 6.4 16.2 11.7 3.3 3.9 6.5 7.8 11.9 8.2 2.5.2 2.5-3.7 0-3.9-4.4-.2-7.1-4.3-9.8-7.3a56.28 56.28 0 0 0-7.1-6.7c-4.6-3.4-9.7-4.7-15.1-6.2-7.9-2.2-22.1-7.3-28.6.4-.8 1 .4 2.4 1.2 1.5zm29.4 45.7c13.2-1.3 24 7.4 31.3 17.6 1.5 2 4.9 0 3.4-2-8.2-10.8-20.3-20.3-34.7-18.4-1.8.2-1.8 3 0 2.8zm2079.9-105.7c2.5-10.3 1.6-21.2-5.9-29.3-8.5-9-21.5-11.8-33.3-13-15-1.6-31.2-.7-45.3 4.9s-26 15.1-39.2 22.3a89.63 89.63 0 0 1-22.8 8.5c-5.4 1.3-11.3 3.4-12.8 9.4a2.73 2.73 0 0 0 1.9 3.3c-2.5-.7-1-1.5-.9.2a18.42 18.42 0 0 0 .9 2.5c.4 1 .7 2 1.1 2.9a57.66 57.66 0 0 0 7.5 14.6c6.5 9.1 12.7 18.4 20.9 26.1a100.22 100.22 0 0 0 57.4 26.3c10.3 1 21.6.5 31.2-3.6 9.3-4 16.8-11 22.6-19.2 9.3-13 13.2-29.3 17.2-44.5 2.3-8.7 10.2-37.6-7.6-35.2-4.5.6-2.8 7 1 7.4 5.5.6-1.8 26.1-2.7 29.4-3.7 13.4-7 27.2-15.1 38.8-5.3 7.7-12.7 14.4-21.8 17.3-8.8 2.8-18.7 2.9-27.8 1.8a94.12 94.12 0 0 1-53.1-26 105.55 105.55 0 0 1-10.6-12.6c-3.4-4.6-7.3-8.9-10.3-13.8-2.5-4-3.5-7.3-4.9-10.9-.8-1.9-1.5-5.8-3.8-6.4.6 1.1 1.2 2.2 1.9 3.3 1.4-6.1 13.4-6.5 18.2-8.2a116.48 116.48 0 0 0 21.6-10.5c14.2-8.6 27.5-18.4 44.1-21.7 15.7-3.1 34.2-2.9 49.3 2.8 14.3 5.3 20.6 17.6 17.8 32.4-.3 1.9 2.8 2.8 3.3.7z"/><path class="cls-1" d="M3641.7 1294.1c4.3-2.3 7.8-5.2 12.3-7.2-.7-.5-1.4-1.1-2.1-1.6-1.8 8-11.3 12.3-18 15.4a276.83 276.83 0 0 1-27.8 11 125 125 0 0 1-34.7 6.9c-12.5.5-24.4-1.8-36.6-4.2-3.1-.6-4.4 3.9-1.3 4.8 26 7.4 53.1 5.1 78.2-4.5 9.5-3.6 19.3-7.4 28.2-12.5 6.5-3.7 13.9-8.6 14.9-16.5.2-1.4-1.6-1.7-2.4-1-3.8 3-6.2 6.8-10.6 9.3-.3 0-.2.2-.1.1z"/><path class="cls-1" d="M3525.6 1290.4c8.1-5.2 13.6 6.4 19.1 10.4 4.5 3.3 15.4 7.2 15.5 13.7 0 2.9 4.7 2.9 4.5 0-.6-9.4-12.5-12.2-18.9-16.8-6.2-4.5-12.6-14.8-20.9-8.3-.7.4.1 1.4.7 1z"/><path class="cls-1" d="M3561.6 1314.3c-2.7 8.6-4.4 18-12.5 23.3-2.2 1.4 0 4.9 2 3.4 8.8-6.4 10.2-16.2 12.1-26.2a.84.84 0 0 0-1.6-.5zm-3.2-31c7.5-4.9 15.6 3 21.5 7.3 6.8 5 14.4 9.4 22.5 11.8 3.2.9 4.6-4.1 1.4-5-10.2-2.7-18.3-7.6-27.1-13.2-5.7-3.7-13-7.2-19.2-2.5-.9.7-.1 2.3.9 1.6z"/><path class="cls-1" d="M3598.8 1303.3c19.5 9.9 1.5 31.9-9.1 41.3-2.6 2.3 1.1 5.9 3.8 3.8 13-10.6 30.1-38.9 6.4-47.6-1.5-.6-2.5 1.8-1.1 2.5zm28.6-9.7c1.9-4.7 2.8-8.8-1.3-12.5a50.59 50.59 0 0 0-20.2-10.7c-.4 1.5-.8 2.9-1.2 4.4a104.47 104.47 0 0 1 27.3 11.1c2.9 1.7 7.4 3.5 8.9 6.7 1.2 2.5.6 5.6 0 8.1-2.9 11.5-10.9 21.6-17.6 31.1-2.1 3 2.8 5.9 5 2.9 7.5-10.7 17.7-23.5 18.4-37 .4-7.2-3.6-10.8-9.4-14.3a105.39 105.39 0 0 0-31.4-13c-2.8-.7-4.1 3.7-1.2 4.4a48.69 48.69 0 0 1 16.7 7.6c1.6 1.1 3.7 2.3 4.4 4.2s-.2 4.9-.4 6.7c-.2 1.2 1.6 1.3 2 .3zM1423.5 858.9c-10.4-15.4-28.8-11.2-41.4-.7-14.9 12.5-15.2 37-14.1 54.8a153 153 0 0 0 4.7 29.3c2.9 10.7 10.2 19.5 16.8 28.2 3.5 4.6 7.1 9 10.9 13.4 4.1 4.8 6.7 10 9.4 15.6 2.1 4.4 4.6 8.5 6.4 13 1.7 4.2 3 8.9 5.8 12.5 5.1 6.6 12.3 4.8 17.8-.3 3.2-2.9 5.5-6.6 8.7-9.6a69.54 69.54 0 0 1 14.2-9.9c8.7-4.9 16-10.3 22.1-18.3 6.2-8.2 10.6-17.6 14-27.2 4.1-11.7 3.9-23 5.4-35 .7-5.7 2.6-11.1 3.1-16.9a62.14 62.14 0 0 0-1.5-19.2c-2-9-4.9-18.4-10.8-25.7-6.3-7.8-15.7-12.7-25.1-15.8-15.5-5.2-31.6-3.9-47.5-2-7.1.9-33.5 2.5-31.9 14.7.8 5.9 10.1 6 9.4 0 .1.4-1.3 1.1.5.1a28 28 0 0 1 5.7-2.2 116.33 116.33 0 0 1 16.6-3.4c9.7-1.5 19.8-2.8 29.6-2 17.9 1.4 36.1 9.4 42.5 27.2 3.2 9 5.4 18.6 4.6 28.3-.4 4.9-2 9.6-2.7 14.5-.8 5.6-.8 11.2-1.2 16.8-1.2 17.8-9.5 37.6-22.2 50.3-6.2 6.2-14.1 9.8-21.1 14.9a52.59 52.59 0 0 0-9.3 8.3c-2.5 2.9-4.5 6.1-7.3 8.7-3.9 3.7-7.5 3.5-10.3-1.4-2-3.6-3.1-7.6-4.7-11.3-1.5-3.5-3.6-6.8-5.3-10.2-2-4.2-3.8-8.5-6.4-12.3-5.6-8.5-13.1-15.8-19.1-24s-10.9-15.5-13-25.5c-4-19.4-6.4-40.9-.7-60.2 2.9-9.7 9.7-16.8 18.7-21.1 9.6-4.6 19.7-3.7 26.1 5.5.8 1.7 3.8 0 2.6-1.9z"/><path class="cls-1" d="M1415.3 857.4c5.6 4.5 4.8 9.4 5.6 15.8.9 6.6 3.6 12.7 5.8 18.9a129.77 129.77 0 0 1 7.8 42.3 119.53 119.53 0 0 0 1.6 18.9 58.18 58.18 0 0 1 1.5 11.1c-.1 3.9-1.1 7.5-1.9 11.3-1.5 6.6-1.5 13.3-3.1 19.8a70.32 70.32 0 0 1-7.7 18.6c-2.3 3.8 4 7.4 5.9 3.5a85 85 0 0 0 6.4-19c1.7-7.1 1.8-14.4 3.3-21.5 1.4-6.9 2.4-12.9 1.2-20-.7-4.3-2-8.4-2.4-12.8-.4-3.9-.1-7.8-.3-11.6a127.88 127.88 0 0 0-10.2-43.9c-2.9-7.1-5.3-13.7-6.3-21.3-.6-4.9-2.1-8.1-6.1-11.3-.7-.7-1.9.5-1.1 1.2z"/><path class="cls-1" d="M1389.9 928.8c.2-21.2 13.7-40.6 27.2-55.8 1.4-1.6-.9-3.9-2.3-2.3-13.8 15.9-27.1 36.3-26.8 58.2a1 1 0 0 0 1.9-.1zm32.7-44.3c7.5-8.1 18.2 7.2 24 11.3 3.8 2.7 8.1 4.8 12 7.3 4.4 2.7 10.5 6.2 12.2 11.4.9 2.7 5.3 1.5 4.3-1.2-4.3-11.6-19.6-14.7-28.5-21.6-6.2-4.8-17.6-17.9-25.3-8.4a.89.89 0 0 0 1.3 1.2zm-11.5 71.3c.2-6.1 2.8-10.5 5-16.1 1-2.7 1.1-5.8 2.7-8.2s4-4.2 5.4-6.7-2.3-4.6-3.8-2.2c-3.2 5.4-4.5 11.5-7.2 17.2s-5.7 11.5-8.8 17.1c1.5.6 3.1 1.3 4.6 1.9a101.6 101.6 0 0 1 6.6-16c1.9-3.8 5.4-13.1 10-14.4 3.3-.9 1.8-6.2-1.4-5.1-5.9 1.9-9.4 9.8-12 14.8-3.1 6.2-6.2 12.7-8.1 19.4-.8 2.7 3.2 4.5 4.6 1.9 3-5.7 5.8-11.5 8.5-17.3s4-11.8 7-17.3c-1.3-.6-2.7-1.1-4-1.7-1.2 3-3.9 4.9-5.2 7.9-1.2 2.8-1.3 5.9-2.3 8.7-2 5.5-4 10.2-3.9 16.2 0 1.4 2.3 1.4 2.3-.1zm3.4 39.5c2.4-6.4 3.2-14.1 8.3-19.2-1-.1-2.1-.3-3.1-.4 1.8 4.2-3.3 11.9-6.8 13.9l3.6 2.7c2.5-6.5 4.6-13 8.1-19.2-1.7-.5-3.4-.9-5.2-1.4a17.68 17.68 0 0 1-3.2 8.6l5.5 1.5c.1-2.4 1.8-4.4 3-6.5 2-3.5-3.5-6.7-5.4-3.1-1.7 3.2-3.6 5.9-3.5 9.6.1 2.9 4 4.1 5.5 1.5a22.93 22.93 0 0 0 3.6-11.6c.1-2.7-3.9-3.8-5.2-1.4a126.56 126.56 0 0 0-8 20.7c-.6 1.9 1.8 4 3.6 2.7 5.5-3.8 11-13.5 7.8-20.1a2 2 0 0 0-3.1-.4c-5.3 5.9-6.2 13.8-8.6 21.1-.7 2.1 2.4 2.9 3.1 1zm26.9-33.1a24.18 24.18 0 0 0 2.9 8.7c1.4 2.5 5.1.3 3.8-2.2-.7-1.3-1.3-2.7-1.9-4.1-1.3 1-2.5 2-3.8 2.9 2.7 2.9 4.7 6.3 7.2 9.4 2 2.5 5.5-.7 4.2-3.2a50.43 50.43 0 0 1-4.8-11.8c-1.4 1.1-2.8 2.1-4.2 3.2 3 1.6 4.9 4.4 4.2 7.9-.7 3.7 5 5.2 5.6 1.6a12.9 12.9 0 0 0-7-14.3 2.89 2.89 0 0 0-4.2 3.2c1.1 4.6 3.3 8.8 5.6 13 1.4-1.1 2.8-2.2 4.2-3.2-2.6-3-4.6-6.5-7.5-9.1-2-1.8-5.2.4-3.8 2.9.7 1.3 1.5 2.6 2.3 3.9 1.3-.7 2.5-1.5 3.8-2.2a21.67 21.67 0 0 1-3.6-7.3c-.4-2.2-3.3-1.2-3 .7zm.3-29.1c5.5 6.2 11.4 12.4 14.8 20.1 1 2.4 5.2.7 4.2-1.8-2.8-6.9-9.5-10.6-12.9-17.1-1.6.9-3.1 1.8-4.7 2.7 3.1 5.8 7.9 9.8 13.1 13.6 2.4 1.7 5.7-1.7 4.1-4.1-2.8-3.9-5.3-7.7-9.3-10.5-1.6-1.2-4.1.1-4.6 1.9-.2.7-.4 1.4-.6 2-1.1 4 5.3 5.7 6.1 1.7.1-.7.3-1.4.4-2.1-1.5.6-3 1.2-4.6 1.9 3.1 2.1 5.1 5.2 7.3 8.2l4.1-4.1c-4.5-3.1-8.7-6.4-11.4-11.3-1.7-3-6.4-.3-4.7 2.7 3.5 6.2 10.2 9.7 13.3 16.1 1.3-.8 2.7-1.6 4-2.3-4-7.6-10.4-14-16.2-20.3-1.5-1.6-3.9 1-2.4 2.7z"/><path class="cls-1" d="M1417.6 952.8c.7-5 6-8.6 8.2-12.9 1.3-2.7-2.6-5-4.1-2.4-1.3 2.4-2.6 4.8-3.8 7.1a2.52 2.52 0 0 0 4 3c2.8-2.5 5.1-5.3 5.7-9.2a2.68 2.68 0 1 0-5.3-.7c-.3 2.7-2.1 4.6-4 6.3 1.3 1 2.6 2 4 3 1.2-2.4 2.4-4.8 3.6-7.3-1.4-.6-2.9-1.2-4.3-1.8-1.8 5.3-6.9 8.8-7.2 14.7-.2 2.4 3 2.3 3.2.2zM1389 921c4.9-.1 9-3.8 12.4-6.9 4.3-4.1 7.9-8.9 12.2-13 1.9-1.9-.9-4.5-2.9-2.9-6.8 5.6-10.8 13.7-16.4 20.3a2.49 2.49 0 0 0 3 3.9c8.8-4.1 8.3-16.2 16.6-20.2-1.4-.6-2.8-1.1-4.2-1.7.1.7.3 1.4.4 2.1.7 3.7 6.8 2.1 5.7-1.6-.2-.7-.4-1.3-.6-2a2.87 2.87 0 0 0-4.2-1.7c-8.5 4.7-8 16.4-16.2 20.8l3.4 3.4c5.2-6.8 9.2-14.4 15.3-20.5l-2.9-2.9c-3 3.6-5.9 7.4-9 11s-7.5 9-12.6 9.4c-1.6.2-1.6 2.6 0 2.5zm46.8-21c3.4 3.8 6.7 7.4 11.2 9.8.5-1.2 1-2.4 1.5-3.7-4.7-.8-9.7-1.4-14.3-.1-1.7.5-2.6 2.9-1.1 4.2 2.3 1.9 4.7 3.6 6.6 6l4-4a37.05 37.05 0 0 0-4.2-3.7c-2.6-2-5.7 1.8-4.3 4.3 2.1 3.8 5.1 6.7 8.2 9.6 3.3 3.1 8.2-1.9 4.9-4.9a72.19 72.19 0 0 1-8.2-8.4c-1.3 1.6-2.5 3.3-3.8 4.9a13 13 0 0 1 3.3 2.3 2.83 2.83 0 0 0 4-4 39.68 39.68 0 0 0-7.6-5.9c-.2 1.5-.4 3.1-.6 4.6 4.1-1.5 8.2-.8 12.5-.8 2.4 0 2.6-3.2.5-3.9-4.3-1.6-7.3-5.3-10.5-8.4-1.3-1.7-3.5.5-2.1 2.1zm-43.1-.5c5-5.2 6-13.1 11.5-17.9 1.5-1.3-.4-3.4-2-2.6-3.5 1.6-6.6 3.9-10.1 5.6.8 1.1 1.7 2.2 2.5 3.3a19.27 19.27 0 0 1 10.1-4.7c3-.4 1.8-5.2-1.3-4.6a21.85 21.85 0 0 0-11.8 6.4 2.1 2.1 0 0 0 2.5 3.3c3.3-1.9 6.3-4.4 9.7-6.3-.7-.9-1.4-1.8-2-2.6-5.2 5.3-5.7 13.2-10.5 18.9-.8.8.5 2.1 1.4 1.2zM1970.6 1343.6c-1.6 4.7-12.5.9-16.7 2.1-4.9 1.3-9 5.5-12 9.4-2.4 3.1-4.7 6.8-4.7 10.9 0 2.3.9 4.4 1.4 6.6 1 4.3 0 7.9-1.3 11.9-1.4 4.6-2.8 9.4-.5 14 2.5 4.9 6.9 6.3 11.6 8.1 5.7 2.3 10 7.8 15 11.4s9.3 5.8 15.5 6.2c10.3.7 21.5 2.5 31.6-.3 5-1.4 8.7-4.2 12.5-7.7a116.59 116.59 0 0 0 13.8-14.3c3.9-5.1 7.2-10.7 8.3-17.1.5-3 .6-6 .8-8.9a62.25 62.25 0 0 1 2.4-12c3-11.1-2.9-22-10.5-30.1-8.5-9.1-20.6-13.3-32.7-9.6-7.6 2.4-14.9 5.6-22.5 8.1a96.31 96.31 0 0 1-23.9 4.6c-4.7.3-4.8 7.3 0 7.4 11.1.3 21.8-3 32.1-6.9 9.4-3.5 19.9-9.6 30.1-6.2 9.2 3.1 16.5 11.9 19.9 20.8 2.2 5.9-.2 10.4-1.3 16.1-1.1 5.4-.5 10.9-1.6 16.2-2.3 11-12 20.4-19.8 27.9-7.5 7.2-16 7.7-26 7.4-4.4-.1-8.8-.3-13.1-.5-5.7-.3-10.1-2.6-14.7-5.8-3.7-2.6-6.6-6.3-10.4-8.7-5.2-3.2-12.8-2.9-14.3-10.3-1.1-5.3 2.5-10.7 3-15.9.6-5.5-3.2-10.7-1.4-16a27.13 27.13 0 0 1 11-13.5c5.6-3.3 12.2-.5 18.2-2.4.2-.1.3-.2.3-.4.1-.8.1-1.7.2-2.5 0-.1-.2-.1-.3 0z"/><path class="cls-1" d="M1990.7 1364.4c-.5 1.9-5.1 1.5-7 2a14 14 0 0 0-5.8 3c-3.6 3.2-4.7 8.6-3.7 13.2 2 9.4 13 12.1 21.3 10.4s20-12 16.5-21.4c-3.8-10.4-16.1-18.5-27.2-16.3-3.9.8-3.1 7.5 1 7 7.1-.8 15.4 3.2 19 9.5 1.1 1.9 1.6 2.9.9 5a20.82 20.82 0 0 1-2.8 4.8 13 13 0 0 1-8.4 5.7c-5.2 1.2-13 .5-14.8-5.6-2.7-9.1 6.3-10.6 12.4-13.2a1.36 1.36 0 0 0 .7-1.3 7 7 0 0 1 .1-2.5c.1-1.2-1.9-1.4-2.2-.3z"/><path class="cls-1" d="M1991.7 1356.3c-10.3.6-23.5 7.2-27.4 17.3-4.1 10.6 6.5 16.9 14.8 20.3 10.7 4.4 23 1.5 29.2-8.7 5.2-8.6 4.2-20.8-4.9-26.5-15.3-9.5-42.2 9-36.6 26.9 2.7 8.7 12.5 11.5 20.7 9.9 9.3-1.8 16.5-9.7 19.4-18.5 3.8-11.5-2.7-23.9-15.2-25.3-12.8-1.4-22.2 10.1-22.9 21.9-.4 6.4 9.6 6.4 10 0 .3-5.6 4.4-11.9 10.5-12.2 6.7-.4 10.2 5.9 8.6 11.8-1.3 5-5.1 10.2-10.1 12.2-3.1 1.2-8.3 1.8-10.8-1.1-3.2-3.7.2-9.1 3-11.8 3.7-3.7 9.3-7 14.7-6.8 5.8.2 8.4 5.7 7.3 11a13.36 13.36 0 0 1-15.4 10.3c-4.9-.8-17.1-5-14.4-11.7 3.2-7.8 12.9-12.1 20.3-14.3 2.4-.7 2.1-4.9-.8-4.7zM2623.7 1063.7c-11.7 1.2-24.8 4.8-31.8 15-7.5 10.9-3.3 22.7 2.3 33.3 3.2 6 6.3 12 6.4 18.9.1 6.7.1 13.3 3.9 19.1 6.2 9.7 22.1 15.1 33.2 13.5a11.93 11.93 0 0 0 5.9-2.5c4.1-3.1 6.3-4.8 11.5-2.4 7.2 3.5 15 6.8 23 7.7 14 1.6 29-7.5 38.6-17.1s16.8-24.1 15.7-37.8c-.6-7.8-4.5-14.8-6-22.5-1.5-8.1-2.4-15.6-7.4-22.4a40.27 40.27 0 0 0-20.1-14.3c-8.4-2.9-17.3-5.8-26.3-6.3s-15.6 5.2-24 6.9c-10.6 2.1-21.4 3.5-32 5.5-4.9.9-2.8 8.3 2 7.4 14.4-2.7 30.6-2.8 43.8-9.6 6.7-3.4 12.9-2.6 20-.8 6.8 1.7 14.3 3.6 20.4 7.1a29.42 29.42 0 0 1 13.9 16.7c2.1 6.9 2.5 14 5 20.9s4.2 12.9 2.8 20.3a51.67 51.67 0 0 1-6.5 17c-6.4 10.4-16.9 18.4-28.3 22.8-8.3 3.2-16.8.9-24.7-2.1-5-1.9-11-6.3-16.7-5.1a11.41 11.41 0 0 0-5.4 2.9c-2.8 2.3-4.9 3.8-8.7 3.8a43 43 0 0 1-18.2-4.6 20 20 0 0 1-11.3-16c-.7-5.5.1-10.8-1.5-16.2-3.4-11.2-13.8-21.3-11.5-33.8 2.8-14.9 18.9-20.5 32-22.7 1.6-.5 1.3-2.7 0-2.6z"/><path class="cls-1" d="M2668.1 1094.3c-3 3.3-4.7 0-7.8-1s-6.5-.5-9.6-.4c-4.6.1-10.1-.2-13.9 3.1-9.9 8.6 3.1 19.7 11.5 21.9s23.5-.1 26.3-10.1c1.2-4.2 1.3-10.4-.9-14.3-2.8-5-8.7-5.4-13.9-4.8-4.1.4-4.2 6.3 0 6.5s8.5-1.3 9.5 4c.7 3.4.8 7.7-1.7 10.3-5.9 6.2-17.3 5.5-24 1.2-4-2.6-8.5-8.2-3-12.1 3.4-2.4 9.3-2.1 13.3-2.4 2.6-.2 5.2-.3 7.6.8.9.4 1.8 1.3 2.9 1.5 2.5.5 3.9-1.2 5.2-3.1.4-.9-.9-1.9-1.5-1.1zm-36.8-11a4.82 4.82 0 0 0-.1-3.9 3.25 3.25 0 0 0-3.2-1.7 2.54 2.54 0 0 0-2.5 2.5 21 21 0 0 0 1.3 5.5c1.2 3.1 5.8 2.8 6-.8.1-2.4.2-4.8.2-7.2 0-3.8-6-4.8-6.8-.9-.7 3.7.1 7.6 3.2 10a3.57 3.57 0 0 0 3.4.9 3.51 3.51 0 0 0 2.5-2.5c.3-1.5.5-3 .9-4.4a3.71 3.71 0 0 0-3-4.6c-2.3-.3-3.9 1.4-4.2 3.6-.1 1.2-.3 2.4-.5 3.5 1.7-.7 3.5-1.4 5.2-2.1a7 7 0 0 1-.6-.9 3.46 3.46 0 0 1-.2-1.8l-6.8-.9c.2 2.4.4 4.8.5 7.2l5.7-1.5a17.2 17.2 0 0 1-2-3.8 30.7 30.7 0 0 0-1.7 3.1 3.36 3.36 0 0 0 1.5-.9c-.3.2-.7.4-1 .6a7.84 7.84 0 0 0-1.4-.5c.1 0 .1.1.1.2l.1.9a1.75 1.75 0 0 0 3.4.4zm-9.8 41c-.3.7-.5 1.3-.8 2 1.4-.2 2.8-.4 4.2-.5a14.51 14.51 0 0 1-2.3-6.7c-.3-2.1-3.1-2.4-4.4-1.2-3.2 2.9-4.6 6.6-6.5 10.4 2.1.6 4.1 1.1 6.2 1.7a13.28 13.28 0 0 1 .9-4.4 7.22 7.22 0 0 1 .9-2c.2-.3 1.1-.9.5-.8-1.2-.9-2.3-1.8-3.5-2.6.5 1.2.8 1.6-.4 2.4a3.69 3.69 0 0 0-.7 5.8c1 1.1 1.3 1.5.2 2.2-4.2 2.6-.3 9.4 3.9 6.7 5.4-3.5 5.5-9.6 1.2-14.1-.2 1.9-.5 3.9-.7 5.8 4.2-2.9 5.3-6.9 3.2-11.5-.7-1.6-2.6-1.9-4.1-1.7-6.1.9-8.3 9.1-8 14.3.2 3.9 5.1 4.3 6.5.9 1.2-3 2-6.8 4.2-9.2l-4.4-1.2a19.54 19.54 0 0 0 3.5 7.6 2.35 2.35 0 0 0 4.2-.5c.2-.7.5-1.3.7-2 .9-3-3.5-4.1-4.5-1.4zm44.8 6.6a5 5 0 0 1-.2 1.2c-.7 3.3 4.1 4.6 5 1.4a22.17 22.17 0 0 0 .5-4.5c.1-3.4-5.4-4.3-6-.8-.9 4.4 1.2 8 4.7 10.6 2.9 2.2 5.9-1.9 4.6-4.6-1.1-2.3-2.2-4.7-3.3-7.1-1.5-3.3-6.7-1.6-6.6 1.8 0 1.3.1 2.6.1 4 .1 4.6 7.2 4.7 7.2 0 0-2.7.1-5.3.1-8 .1-4.8-7.5-4.8-7.4 0 0 2.7.1 5.3.1 8h7.2c-.1-1.3-.1-2.6-.2-4l-6.6 1.8 3.6 6.9 4.6-4.6a4.24 4.24 0 0 1-2-4c-2 .3-4 .5-6 .8.2 1.2.2 2.4.5 3.6 1.7-.5 3.4-.9 5-1.4a5 5 0 0 1-.2-1.2 2.35 2.35 0 0 0-4.7.1zm22-37.4c-.7.8-1.3 1.6-2 2.4a2.28 2.28 0 0 0 2.7 3.6c1.5-.7 2.7-1.6 4.1-2.4 2.7-1.6.9-6.5-2.2-5.2-4 1.5-8.7 2.7-11.8 5.9a3.75 3.75 0 0 0 .7 5.8 9.41 9.41 0 0 0 5.7 1.5 4 4 0 0 0 0-7.9l-3.7-.3v8.3c.9-.1.9-.2 1.7.3-.5-2-1-3.9-1.5-5.9-.2.2-.8.2-1.3.2a4.4 4.4 0 0 0-4.3 4.3c0 2.6 2 4.1 4.3 4.3 3.7.4 6.7-1.5 8.7-4.5a4.36 4.36 0 0 0-1.5-5.9 9.33 9.33 0 0 0-7.1-1c-4.7 1-3.5 8.2 1.1 8.2 1.2 0 2.5 0 3.7-.1-.4-2.6-.7-5.2-1.1-7.8a1 1 0 0 1-.9 0c.4 1.7.9 3.3 1.3 5 1.8-2.6 5.6-3.4 8.2-5.1l-3.9-3.9a9.9 9.9 0 0 1-2.5 2.5l3.1 3.1c.5-.9 1-1.9 1.6-2.8 1-2.1-1.7-4.4-3.1-2.6z"/><path class="cls-1" d="M2627.3 1088.2a6.61 6.61 0 0 1-1.5-3.4 5 5 0 0 1 .2-3.2 2.32 2.32 0 0 0-3.4-2.6 10.79 10.79 0 0 0-2.8 2.4c-.7.9-1.2 2-1.9 2.9-1.2 1.7.1 4.1 1.9 4.6a3.19 3.19 0 0 0 4-3 6 6 0 0 1 1.6-3.3c-1.3-.5-2.6-1.1-4-1.6a12.08 12.08 0 0 0 1 5 5.54 5.54 0 0 0 1.2 1.9c.4.4.8.3 1.3.6s.7.7 1.1 1c.9.8 2.2-.4 1.3-1.3zM1467.7 1140.4c-9.6 8.8-20.6 17.1-25.5 29.6-4.3 11-2 21.4 5.3 30.5 9.1 11.3 21.2 19.9 26.2 34.1 3 8.3 2.3 18.7 8 25.9 2.6 3.3 5.9 4.5 9.2 1.2 3.6-3.7 4.2-10 6.5-14.4 3.6-6.9 8.2-13.2 12.4-19.7 4.4-6.8 8.6-13.7 13.3-20.2 6.8-9.4 15.9-17.5 19.9-28.7a30 30 0 0 0-6.2-30.4c-8.9-9.4-22.1-11-34.4-11.4-7.5-.3-15.4-.5-22.8 1.1-7.8 1.7-14.6 5.9-22.8 5.3-5.3-.4-5.2 7.8 0 8.3 6.8.6 12.8-1.7 19.1-3.9 6.5-2.3 12.9-2.8 19.7-2.9 11.6-.1 25.7-.4 34.9 8 9.7 8.9 7.8 22.2 1.2 32.3-3.3 5.1-7.3 9.7-11.1 14.5-4.3 5.6-8.1 11.6-11.9 17.6-4.6 7.2-9.5 14.2-13.9 21.5a70.46 70.46 0 0 0-5.4 10.6c-1.1 2.8-1.3 7.1-4.2 8.7h3.2c-3.5-1.7-4.4-7-5.3-10.4-1.1-4.3-1.7-8.7-3-13-3.3-11.3-11.6-21.1-19.8-29.2-8.6-8.6-17.6-17.5-14-30.8s14.6-22.3 23.5-31.9a1.56 1.56 0 1 0-2.1-2.3z"/><path class="cls-1" d="M1488.3 1249.5c-.7 1-1.4 2.1-2.1 3.1 1.1.5 2.3.9 3.4 1.4-1.2-5.7 1.8-10.2 2.9-15.6s1.1-11.1 2.1-16.6c2.2-11.4 2.7-23.3 2.5-34.9a59 59 0 0 0-4.7-22.3c-2.1-5.1-4.8-13.1-10.7-14.9-5-1.5-7.1 6.3-2.1 7.8 1.3.4 2.8 4.2 3.5 5.5a63.93 63.93 0 0 1 4.1 10.2c2.7 8.2 2.3 16.8 2 25.3-.2 5.2-.1 10.5-.7 15.7-.6 5-1.7 10-2.2 15-.2 3 .1 6-.4 8.9-.4 2.2-1.2 4.3-1.7 6.4-.9 4-.9 7.6 1 11.3a2.43 2.43 0 0 0 3.7.5 8.62 8.62 0 0 0 2.1-6.7c.1-2-2.5-2-2.7-.1zM3190 1233.2c-4-5-10.3-4.7-16.1-4.7s-12.2-1.5-17.6 1.7c-6.6 3.9-10.2 13-11.6 20.2-1.6 8.2-.6 16.7 1.4 24.7a72.65 72.65 0 0 0 9 22.4c4.3 6.8 9.4 12.9 13.4 19.8a39.1 39.1 0 0 1 4.7 10.9c1 4.2-.5 8.3.4 12.5.8 3.5 2.5 6.7 3.2 10.3.6 3 .7 6.1 1.9 8.9a8.67 8.67 0 0 0 13.6 3.4c2.3-1.8 3.9-4.4 6-6.5q3.75-3.75 7.8-7.2c10.4-9.2 21.5-17.9 30.4-28.7 8.7-10.7 14.7-23.2 14.5-37.3-.3-17-10.1-31.2-22.8-41.7-7.7-6.4-18.9-9.6-28.4-12-7.5-1.9-25.3-6-27.3 5.8-1 6 7.2 8.4 9.2 2.5-.3 1-.1.1.6-.1a17.52 17.52 0 0 1 4-.4 53.85 53.85 0 0 1 11.9 2c7.2 1.8 15.1 4 21.6 7.8 9.7 5.8 18.7 17.5 21.4 28.5 2.8 11.4-.2 23.2-6.4 33-6 9.6-14.5 17.5-22.9 25-4.2 3.8-8.4 7.5-12.6 11.3-2 1.8-3.9 3.7-5.8 5.6-1.7 1.7-3.4 5.2-5.5 6.3-3.7 2.1-4-8.6-4.9-11.3-1.1-3.4-2.8-6.4-2.6-10.1.1-3.4.5-6.3-.4-9.7-3.2-12.3-12.5-21.8-19.1-32.2-8.2-12.8-13.7-31.9-8.8-46.9 1.3-4 3.5-9.3 7.1-11.8 2.7-1.9 6.1-1.7 9.2-1.8 5.7-.2 15.4-3.2 19.8 1.2 1.1 1.5 2.7-.2 1.7-1.4z"/><path class="cls-1" d="M3191.8 1366.1c-.5-12.7 6.9-23.6 8.8-35.9.9-5.8 1.3-11.3 3.1-17s2.1-11.5 1.6-17.6a145 145 0 0 0-8-36.1c-3.8-10.6-5.8-23.5-13.8-31.9-4.3-4.6-10.6 2.1-6.8 6.8 3.4 4.2 5.1 9.5 6.6 14.6 1.7 5.6 3.9 10.9 5.7 16.4 3.7 11.2 6.9 23.9 7.5 35.7.3 5.6-1.7 10.4-2.5 15.8s-.1 10.8-1.4 16.2c-2.6 10.9-7.4 21.4-6.2 32.8.4 3.6 5.6 3.7 5.4.2z"/><path class="cls-1" d="M3166.5 1292.8c-6.4-7 1.1-21.7 4.4-28.6 2.4-5 5.1-9.8 7.1-15 1.6-4.2 3.9-8.5 3-13.1-.9-4.2-8.2-3.4-7.7 1 .6 5.1-2.3 11.7-4.4 16.3a155.48 155.48 0 0 0-6.1 15.2c-2.5 7.9-6 20.2 1 26.9a1.91 1.91 0 0 0 2.7-2.7zm27-41.5a11.82 11.82 0 0 1-1.6-2.9l-2.7 2.7a63.43 63.43 0 0 1 20.6 16.5 93.06 93.06 0 0 1 8.7 11.9c2 3.2 5.2 7.7 5.5 11.7.4 7.4 11.4 3.3 7.7-2.1-2.6-3.9-4.4-8.4-7-12.4a104.25 104.25 0 0 0-10.1-12.9c-6-6.6-14.7-15-24-16.2-1.8-.2-3.6 1.8-1.9 3.3a13.08 13.08 0 0 1 2.3 2.4c1.2 1.3 3.4-.5 2.5-2zM2806.2 1204.8c-27.5-2.8-31.1 31.4-37.8 50.4a102.37 102.37 0 0 1-8.5 18.4c-3.7 6-8.4 11.2-12.6 16.9a55.61 55.61 0 0 0-7.2 13.9c-1.5 4-3.6 9-2.4 13.3a3.66 3.66 0 0 0 3.4 2.6c4.5.2 8.4-1.3 12.6-2.7a52.69 52.69 0 0 1 15.3-2.5c4.8-.2 9.5-.3 14.2-1.5 5.1-1.3 10.1-3.4 15.1-5.2 9.2-3.3 17.6-8.3 27.1-10.5 9-2.1 17.8-4.5 25.3-10.2 23.3-17.7 30.9-63.9.2-78.6-8.7-4.2-18.2-4.7-27.7-5.2-5.4-.3-10.3-2.2-15.6-3.1-5.5-1-11-.2-16.5 0-6.6.2-6.7 10.4 0 10.3 4.2 0 8.6-.8 12.8-.4 3.9.4 7.7 1.9 11.5 2.7 7.4 1.5 15.1.6 22.5 2.1 15.2 3.1 23.7 15.1 23.4 30.3-.2 13.1-6.4 27.5-17.3 35.3-6.8 4.8-14.8 6.4-22.7 8.5-8.4 2.2-15.8 6.8-23.7 10-9.6 3.9-18.3 7-28.7 7.5a65.74 65.74 0 0 0-13.3 2c-4.8 1.3-9.4 4.2-14.6 4 1.1.9 2.2 1.7 3.4 2.6-.9-3.3 1.9-8.6 3.1-11.6 2-5.2 5.1-9.6 8.5-13.9a108.23 108.23 0 0 0 17-28.7c7.1-18.5 7.8-51.9 33.1-54.3a1.2 1.2 0 1 0 .1-2.4z"/><path class="cls-1" d="M2776.9 1298.6c-2.3-3.4 4.1-5.6 6.4-7.2 3.9-2.9 7.2-6.5 10.7-9.9 6.7-6.5 13.5-12.6 19.1-20.1 10.4-13.7 20.9-31.7 17.3-49.5-.5-2.6-3.5-3.1-5.5-2.2-6.7 3-11.2 8.6-15.7 14.2a59.67 59.67 0 0 1-19.2 16.1c1.9 1.5 3.8 2.9 5.7 4.4 2.1-5.6 10.3-9.6 15-13 2.1-1.6 4.9-4.1 7.6-4.5 3.3-.5 2.9 3 2.9 5.7-.1 6.3-1.5 12.4-.5 18.7a32.36 32.36 0 0 0 3.6 11c1.6 2.9 4.9 4.8 4.5 8.4 2-1.2 4.1-2.3 6.1-3.5-4.2-2.9-4.2-9.4-8.8-12.3-5.5-3.5-11.9-.7-16.5 2.9-5.7 4.5-11 12.4-18.7 13.4-4.2.5-7.8-2.4-12-2.7-4.4-.2-8.5 1.3-12.4 3.2-3.7 1.8-1.9 7.9 2.1 7.7s7.9-.4 11.7.6c4.2 1.2 5.7 3.4 7 7.5 2.5 7.7 8.2 13 12.5 19.7 2.8 4.3 9.4.5 6.9-4-2.6-4.7-6.4-8.4-9.2-12.9-2.4-3.8-2.7-8.5-5.3-12.1-5.2-7.2-15.6-7.3-23.6-6.9.7 2.6 1.4 5.2 2.1 7.7 4.7-2.3 8.1-2.2 12.8-.5a17.5 17.5 0 0 0 9.6.8c6.3-1.4 11.7-5.6 16.2-9.9 2.9-2.8 9.7-11.2 13.7-6.1 3 3.9 3.5 8.2 7.9 11.1 2.8 1.9 5.8-.7 6.1-3.5.5-4.4-1.5-7.1-4.1-10.4-3.3-4.2-4.7-10.1-4.5-15.3.2-7.2 3.6-18.3-2.6-24-5.9-5.5-14.3.2-19.4 4-6.5 5-15.1 9.3-18 17.4-1.2 3.4 2.9 5.8 5.7 4.4a61.85 61.85 0 0 0 18.9-15.2c4.7-5.7 8.9-12.2 15.9-15.3-1.8-.7-3.6-1.5-5.5-2.2 1.9 9.3-.9 18.3-4.9 26.7a112.31 112.31 0 0 1-13.6 22c-5.3 6.5-11.2 12.6-16.7 18.9a56.33 56.33 0 0 1-8.8 8.8c-2.4 1.7-4.5 3.1-5.8 5.8a1.06 1.06 0 0 0 .2 1.3c.7.7 1.3 1.5 2 2.2.4.4 1.7-.5 1.1-1.4zM1300 1148.1c-9.9 9-22.6-21.5-26.4-27.5-4.8-7.4-12.9-13-21.3-15.7-10.9-3.5-21.5-.9-31.5 3.8-4.9 2.3-9.8 4.9-15 6.5-4.3 1.4-13.4 3.4-16.9-1-3.7-4.8 8.1-14 11.2-16.8 5.8-5.3 15.1-11.4 11.6-20.4-1.6-4.3-2.8-7.3-1.2-12.1 2.2-6.6 6.4-2.6 11-1.5s8.7-1.1 10.9-5.3c1.5-2.8.5-5.4 1.1-8.3.8-3.5 5.4-6.5 8.3-8.2a13.39 13.39 0 0 1 8.3-1.8c3.2.3 5.8 2.2 8.9 2.5a10.7 10.7 0 0 0 7.7-2.3c2.1-1.6 3.2-3.9 6-4.3-1.7-.9-3.3-1.9-5-2.8 3 13.2-.8 26.6-2.6 39.7-1.6 12-.8 23 4.4 34 5.3 11.3 13.9 19.7 20.7 30a65.47 65.47 0 0 1 6.1 11.4 9.18 9.18 0 0 1 .9 2.8c0 1.4.8.4-.8.7-2.2.4-4.9-.3-7.2-.4-5.7-.2-5.7 8.8 0 8.9 4.7.1 10.6 1.4 14.4-2.1 3.5-3.2 2.4-8.2 1-12.2-4.3-11.7-12.9-20.4-20.2-30.3-8.9-12.1-13.2-24.9-11.6-39.9s6-29.6 2.6-44.7c-.5-2.3-2.9-3.1-5-2.8a11.46 11.46 0 0 0-6.2 3.1c-2.6 2.5-3.5 3.6-7.3 2.3-5.6-1.9-11.4-2.5-16.9 0-5.1 2.3-11.4 6.8-13.8 12-1.2 2.6-.5 5.1-1 7.8-.7 3.6-2.5 2.3-4.9 1.3-11.4-4.5-18.3 3.6-18.9 14.8a19 19 0 0 0 .8 7.1c1.2 3.3 3 4.7 0 7.9-2.7 2.9-5.9 5.5-8.9 8.2-5.6 5.2-14.5 12.8-13.4 21.4 1.3 11.1 16.7 11.9 25 9.9 12.2-3.1 22.6-12.2 35.5-12.5a32.21 32.21 0 0 1 27.2 14.5c5.4 8.5 21.8 42.5 35.1 25.4 2.1-2.2-.5-5-2.7-3.1z"/><path class="cls-1" d="M1298.6 1162.8c-4.7-.1-7.5 2.4-8.1 7-.3 2.5 2.9 3 4.4 1.8a10.66 10.66 0 0 0 3.7-8.8c.1-4.1-5.5-3.8-5.9-.1-.2 1.3-.3 2.6-.4 3.9h6.6c.1-1.3 0-2.5 0-3.8l-6.9.9c.9 2.8 2.3 5.5 5.3 6.3 2.1.6 4.4-.8 6.4-.1 2.9 1 4.9-2 4.5-4.5l.3-.3c-1.1.6-2.1 1.2-3.2 1.8 4.9-.5 7-4.4 6.4-9.1-.7-5.3-3.8-10.3-9-12.1-5-1.7-7.3 6.5-2.2 7.9 1.8.5 2.4 2.1 3 3.7.2.4.4 1.2.6 1.7v.7c-.1.6 0 .6.6.1.7-.3.8-.4.1-.3a3.25 3.25 0 0 0-1.4.4 4.64 4.64 0 0 0-1.6 1.8c-1.1 1.8-1 3.6-.6 5.6l4.5-4.5a9.78 9.78 0 0 0-4.5-.1c-2.2.4-1.8.9-2.4-.8-1.2-3.5-7.4-3.2-6.9.9.2 1.3.3 2.5.4 3.8.4 4.2 7 4.3 6.6 0-.1-1.4-.2-2.6-.3-3.8-1.9.2-3.9.5-5.8.7a4.54 4.54 0 0 1-1.5 4.4c1.5.6 2.9 1.2 4.4 1.8 0-2 1-2.9 3-3.1 2.2-.3 2.4-3.8-.1-3.8zM3236 1345c-3.6 2.8-7.9 4.2-11.5 7a30.09 30.09 0 0 0-6.3 7 33.47 33.47 0 0 0-5.8 20.6c.3 16.7 8.9 31.6 17 45.6 8.9 15.3 17.7 30.7 24.1 47.2 3.1 8.1 4 16.4 6.3 24.7 2.1 7.6 7.5 14.4 6.8 22.5-.4 4.5 5.8 4.5 7.2 1 6.6-16.4 14.6-32.2 22.8-47.9 4.4-8.4 8.7-16.8 13.3-25.1 3.6-6.7 7.8-13 10.6-20.1s3.3-14.9 3.3-22.5c0-7.2.4-15.3-1.4-22.4-3.3-12.6-16.6-25-29.1-28.3-8.4-2.2-17.1.5-25.6-.9-10.7-1.8-21.3-3.8-31.9-6-6.3-1.3-9 8.4-2.7 9.7 15.6 3.2 31.6 7.4 47.6 6.4 7.9-.5 13.5 1.2 19.9 5.8 5.3 3.8 10.3 8.8 12.3 15.1s1.4 14 1.5 20.5c.1 7.5-.5 14.9-3.5 21.8s-7 13.1-10.4 19.7c-3.9 7.6-7.7 15.2-11.5 22.9-8 16.1-15.7 32.4-22.2 49.2 2.4.3 4.8.7 7.2 1 .5-7.3-2.9-13.1-5.6-19.7-3.1-7.5-3.4-15.8-5.8-23.5-4.8-15.4-12.8-29.9-20.7-43.9s-17.7-27.9-21.6-43.8c-2.1-8.4-2.3-17.8 1.9-25.6a26.75 26.75 0 0 1 8.6-9.7 77 77 0 0 0 8-5.7c1.8-1.6-.9-4-2.8-2.6z"/><path class="cls-1" d="M3268.8 1457.4c1-14.4-5.6-26.3-9-39.8a32.42 32.42 0 0 1 1-19c2.4-6.4 5.6-12.2 4.9-19.2-.6-5.5-9.3-5.4-8.6 0 .9 6.9-3 12.8-4.7 19.3a39.09 39.09 0 0 0-.2 18c3.1 14.2 12.8 25.9 13.9 40.8a1.35 1.35 0 0 0 2.7-.1zM231.5 1143.6c7.8 5.1 8.7 14.5 13.8 21.7.3.4 3 2.9 2.9 3 .1-.8-3.6.7-3.7.8-3.3 1-6.7 1.6-9.9 2.9a3.8 3.8 0 1 0 2.9 7c4.3-1.8 24.4-5.6 16.1-14.5-1.7-1.8-3.6-2.5-5.1-4.7-1.6-2.4-2.9-5-4.4-7.5-2.8-4.7-6.2-8.9-11.1-11.4a1.55 1.55 0 0 0-1.5 2.7zm6.3-21.5c6.6-15.5 2.2-30-7.5-43.1-8.6-11.7-20.6-16.3-35-15.7-15.2.6-30.1 5.2-44.9 8-19.8 3.7-41.1 6.7-61.1 3.5-7.3-1.1-25.6-7.6-27.1 4.5-.7 5.5 2.4 11.3 4.7 16 2.9 5.9 5.8 11.8 9 17.5 4.8 8.4 10.4 16.3 15.7 24.5 5.1 7.9 8.5 16.5 13.3 24.6s11.8 14.8 17.9 21.8c5.8 6.7 11.7 13.3 18.6 18.8 7.2 5.8 15.4 10.5 24.6 12.5 9 1.9 16.2-.6 24.1-4.9 9.2-5 25.9-16.3 16.5-28-3.7-4.6-11.3 1.4-8.1 6.3.6.9.4.3.4.6a5.64 5.64 0 0 1-1.1 2 27.54 27.54 0 0 1-5.3 4.9 91.55 91.55 0 0 1-11.7 7.8c-12.8 6.7-28-3.6-37.4-12.1a204.48 204.48 0 0 1-15.1-15.8c-5.5-6.1-11.8-12-16.1-19-3.9-6.5-6.8-13.5-10.9-19.9-4.5-6.9-9.3-13.5-13.8-20.4-3.9-5.9-7.2-12-10.5-18.2-2.2-4.2-4.8-8.4-6.4-12.9-.4-1.1-1.9-4.4-1.1-5.5.5-.7 4.3-.3 5.4-.2 4.8.4 9.5 1.7 14.3 2.4 30.9 4.1 61.2-4.3 91.1-10.4 13-2.6 29.1-4.9 40.3 4.1 13.5 10.8 19.8 29.1 15.5 45.7-.4.9 1.3 1.7 1.7.6z"/><path class="cls-1" d="M236.1 1090.3c6.8 1.3 6 11.6 6 16.8 0 5.4-.7 11.5 1.8 16.5 1.7 3.5 7.3.3 5.2-3.1-4.9-8 1.3-31.4-12.7-32.2a1 1 0 0 0-.3 2zm-54 40.1c2.4 1.1 4.9 2.2 7.2 3.5.5-.8 1-1.7 1.5-2.5-9.4-5.3-21.7-5.4-32-7.9-5.7-1.4-11.3-3.2-17-4.7-6.4-1.7-12.9-3.3-19-5.9a3.75 3.75 0 1 0-2.9 6.9 322.2 322.2 0 0 0 34.4 11.4c11.3 3.2 23.3 4.8 34.4 8.9 5.2 1.9 7.5-6.4 2.3-8.3-11.1-3.9-23.1-5.4-34.5-8.4-11.7-3.1-23.1-6.9-34.6-10.8-.7 2.4-1.3 4.8-2 7.2 11.9 3.6 24.3 6.5 36.5 9 5.5 1.1 11.2 1.8 16.8 2.6s11.2 2.3 16.9 2.8c1.6.1 2-2.6.4-2.9a56.39 56.39 0 0 1-7.8-2.1.67.67 0 0 0-.6 1.2z"/><path class="cls-1" d="M235.3 1105.8c3.2 9.8 3.2 23.8-2.1 33-2.6 4.5 5.3 7.5 6.3 2.7 2.5-12 3.4-24.8-1.5-36.4-.7-1.7-3.3-1.1-2.7.7zm-62.9-22.9c-.4-.9-.9-1.8-1.3-2.7-1 .6-1.9 1.1-2.9 1.7 5.4 8.1 16.8 16 17 26.3 1.7-.5 3.4-.9 5.1-1.4-3.6-6.3-10.4-9.9-13.9-16.3-1.9-3.5-6.6-.9-6.1 2.6 1.6 9.5 10.2 14.6 13.5 23.1l4.3-4.3c-4.1-1.6-6.5-6.6-8.7-10.2-1.4 1.8-2.8 3.7-4.2 5.5 2.7.7 2.7 8.3 2.7 10.5.1 3.2.3 8-1 10.8-2.1 4.6-9.2 7.9-13.6 10.5a222.27 222.27 0 0 1-20.5 10.8c2 1.2 4 2.3 6.1 3.5.2-4 8.1-6.1 11-7.5 4.6-2.2 9.3-4.9 11.5-9.7s-5-9-7.1-4.2c-4.6 10.3-22.9 7.6-23.5 21.4-.1 3.3 3.5 4.6 6.1 3.5a194.12 194.12 0 0 0 24.9-13.7c5.2-3.4 11.4-7.4 12.9-13.8 1.8-7.8 2.9-26.6-7.5-29.2-3-.8-6 2.6-4.2 5.5 3.4 5.4 6.9 11 13.2 13.2 2.3.8 5.4-1.9 4.3-4.3-3.5-8.3-12.2-14-13.9-23-2 .9-4 1.7-6.1 2.6 3.8 6.4 10.7 9.7 14.8 15.7a2.75 2.75 0 0 0 5-2.1c-1.7-11.4-13-18.7-19.5-27.3-1.3-1.6-3.9-.2-2.9 1.7.5.9 1 1.7 1.5 2.6 1.3 1.6 3.9 0 3-1.8zm-49 17c4 1.2 8.7 3.1 10 7.4l3-3c-6.1-1-10.8-7.8-14.5-12.2l-4.5 4.5c3.6 2.8 11.8 8 11.1 13.3 1.5-1.1 2.9-2.2 4.4-3.4l-5.4-.9a3.73 3.73 0 0 0-4.4 2.5 12.78 12.78 0 0 0-.6 4.3v3c-.1.8-.2.8-.2-.1v7a23.31 23.31 0 0 0 6.9-3.8c2.7-2.1.2-6.1-2.6-6.3-5.9-.4-13.5-.6-17 5-2.2 3.5 3.2 7.8 5.8 4.5 2.4-3.1 7.7-2.3 11.2-2.1-.9-2.1-1.7-4.2-2.6-6.3a9 9 0 0 1-3.6 1.9c-3.1 1.1-3.8 6.3 0 7 3.5.6 6.9.2 8.5-3.4 1.4-2.9.2-6.1 1.2-9.1-1.1.9-2.3 1.7-3.4 2.6 1.8.2 3.6.5 5.4.7 2 .3 3.3-1.8 3.5-3.5.8-8-8.7-14.2-14.2-18.3-3-2.2-6.1 2.4-3.9 5 4.7 5.2 11 11.8 18.4 12.5a2.41 2.41 0 0 0 2.3-3c-2.1-5.9-7.8-8.7-13.6-10-2.6-.3-3.7 3.4-1.2 4.2zM919.2 1071.8c-5 2.1-10.4 2.1-15.3 4.1a28.08 28.08 0 0 0-11.4 9.4c-5.9 8-9 19-9 28.8 0 20.9 13.6 39.8 27.2 54.5 8.2 8.8 14.4 18.9 22 28.1a111.07 111.07 0 0 1 17.8 29.5c4.7 11.5 10.4 22.7 14.4 34.5 1.8 5.3 3.4 10.6 5.4 15.8 1.6 4 3.6 12 8.1 13.5 7.4 2.5 13.6-5.7 16.9-11 1.9-3 3.5-6.3 5.5-9.3 3.1-4.6 7.5-8.4 11.1-12.6 7.2-8.4 15.6-16.7 19.8-27 2.2-5.3 3.6-10.9 5.6-16.3 2.2-6.1 5.2-12 7.6-18 9-22.4 11.2-46.7 9.5-70.8-1.4-20-10.1-40-24.5-54.2-7.5-7.4-16.5-13.2-26.7-16-12.6-3.5-25.1-1.9-37.6.8-7 1.5-14.1 3.5-21.2 3.3-5.7-.2-11.3-1-16.7 1.1-8.6 3.3-18.4 14.1-11.3 23 3 3.8 10-.3 8.3-4.8-.7-1.7 5.1-6.3 6.9-7 5-2.2 11.5-.2 16.8-.5 12.8-.9 25.1-6.1 38-6.3 20.4-.4 37.6 12.3 47.6 29.5a74 74 0 0 1 10.1 29.5c1.2 11.9.6 24.1 0 36-.6 12.9-4.8 25.4-9.6 37.3-2.2 5.4-4.8 10.7-6.6 16.3-2 6.1-3.5 12.6-6.6 18.2-3.3 5.9-8.4 10.6-12.5 15.8-4.4 5.6-9.5 10.5-13.8 16.1-2.5 3.3-4.3 7-6.4 10.6-1.2 2-4.5 8.6-7.6 8.1l2.6 2c-4.2-7.2-6.7-15-9.4-22.9a249.54 249.54 0 0 0-9.8-23.9c-6.8-14.8-11.9-30.1-22.9-42.4-5.8-6.5-10.5-13.8-15.8-20.7-4.6-5.9-10-11-14.8-16.6-10-11.9-20.1-26.9-20.4-43a47.83 47.83 0 0 1 6.4-24.8 23.09 23.09 0 0 1 12.4-10.2c4-1.3 8-2.2 11.8-4 1.5-.9.1-4.3-1.9-3.5z"/><path class="cls-1" d="M953.6 1085.1c-2.5-3.4-3.5-7.6-6.7-10.5-2.6-2.3-6.7.6-4.9 3.7 10.3 17.6 23.1 34.1 28.1 54.2 2.3 9.4 3.7 19.1 5.2 28.7 1 6.7 1.6 14.7 6.9 19.6 3 2.8 7.2.6 7.6-3.1.8-8.8-2.5-17.2-5.6-25.3-3.5-9.1-6.5-18.3-10.5-27.2-4.1-9.2-8.1-18.7-12.7-27.7s-10-17.3-15.1-25.9c-2.8 1.7-5.7 3.3-8.5 5 7 10 11.6 21.2 16.2 32.5 4.8 11.7 10.1 23.2 14.4 35.1a337.51 337.51 0 0 1 10.2 37q1.2 5.1 2.1 10.2c.6 3.4.1 6.6.2 9.9.1 6 3.7 11.5 3.3 17.4H994c-.3-24-7.3-47-12.7-70.2-2.3-9.7-6.1-18.7-8.9-28.3-1.9-6.5-4.4-15.8-12.1-17.4a5.06 5.06 0 0 0-5.1 1.4c-6.1 7.1-9.5 15.7-13.3 24.1-4.1 9.2-7.9 18.2-9 28.3-.6 5.3 7.6 7.2 10 2.7a166.07 166.07 0 0 0 12.1-30.4 120.58 120.58 0 0 1 4.6-14.4c2.3-5.1 3.3-10.4 5.4-15.5-1.7 1.3-3.4 2.6-5.2 3.9 7.3-.9 12.2 6.5 17.3 10.5a31.86 31.86 0 0 0 9.2 5.1c3.3 1.3 7.2 2.2 9.1 5.4 1.5-2.7 3.1-5.4 4.6-8.1-5.3-.3-10.1-4.2-15.1-5.7-5.5-1.6-10.9-3.6-16.7-4.3-2.4-.3-4.4 1.9-5.2 3.9-2.9 8.2.9 15.1 5.6 21.7 2.9 4.1 4.6 7.6 5.1 12.8.5 4.8 1.1 9.1 3.7 13.2 4.1 6.4-3.9 14.5-6.8 20.2-4 7.8-5.9 16.6-10.9 24 3.2 1.4 6.5 2.7 9.7 4.1 1.5-10.4 4.5-21.3 10.7-30-3.2-1.4-6.5-2.7-9.7-4.1-3.1 9.3-3.4 19.6-9.4 27.7 3.1 1.8 6.1 3.6 9.2 5.4a119.79 119.79 0 0 0 9.7-18.4c2-4.6 2.5-11.7 6.1-15.4-1.7.5-3.4.9-5.1 1.4 6.5 2.4 10.8 9.4 14.4 14.9l6-7.8c-3.5-1.2-6-4.7-8.9-6.9-3.3-2.6-9.2-1.3-9 3.7.2 6.1 3.4 12.1 9.8 13.4 6.6 1.3 9.5-8.9 2.8-10.2-1.7-.3-2-1.6-2.1-3.2-3 1.2-6 2.5-9 3.7 4.4 3.6 8 7.8 13.5 9.7 4.3 1.5 8.4-4 6-7.8-5.3-8.2-11.2-16.3-20.7-19.8a5.11 5.11 0 0 0-5.1 1.4c-4.4 4.5-5.2 10.3-7.2 16a98.78 98.78 0 0 1-10.3 19.9c-3.8 5.9 5.2 10.7 9.2 5.4 6.6-8.9 7.1-20.1 10.4-30.2 2-6.1-6.4-8.7-9.7-4.1-6.6 9.4-10.2 21.2-11.8 32.5-.8 5.8 6.2 9.4 9.7 4.1 5-7.3 6.9-16.1 10.9-23.9 3.6-7.1 9.6-13.9 9.7-22.3 0-4.6-2.8-7.2-4.3-11.2-1.8-4.9-1-10.3-2.8-15.2-2.6-6.9-12-13.8-9.2-21.7-1.7 1.3-3.4 2.6-5.2 3.9 5.4.6 11.8 2.9 16.8 5s9.5 4.8 15.1 5c4.1.2 6.7-4.7 4.6-8.1-5.1-8.4-14.9-8.3-21.9-14.2-6.7-5.7-13.3-13.4-23.1-12.1a5.83 5.83 0 0 0-5.2 3.9c-1.9 4.7-2.9 9.7-5 14.4a93.07 93.07 0 0 0-4.6 13.8 152.44 152.44 0 0 1-11.5 29.6c3.3.9 6.6 1.8 10 2.7 1-8.7 4.7-16.5 8.1-24.3 3.1-7.1 5.9-14.7 11-20.7-1.7.5-3.4.9-5.1 1.4 3.6.7 5 11.3 6.3 14.9a264.93 264.93 0 0 1 8.7 28.8c5 20.5 10.9 40.7 11.2 62 .1 6.6 9.8 6.5 10.2 0 .4-6.2-3.2-11.4-3.3-17.4-.1-3.4.4-6.7-.1-10.1s-1.2-6.6-1.9-9.9a319.2 319.2 0 0 0-10.9-39.7c-4.4-12.5-10-24.5-15.1-36.7-4.8-11.5-9.4-23.1-16.7-33.2-3.6-5.1-11.9-.5-8.5 5 4.9 8 10.1 15.9 14.5 24.2s8.2 17.2 12.2 25.8 7 17.3 10.4 26c3.2 8 7.1 16.3 6.4 25.1 2.5-1 5-2.1 7.6-3.1-4.4-4.1-4.3-13-5.4-18.5-2-10.3-3.4-20.9-6.8-31-6.2-18.3-18-34.1-28.8-49.8l-4.2 4.2c3 2.3 5.6 5.1 8.9 7.1 1.1.4 2.4-.7 1.7-1.6zM1163.9 1406.3c-5.7-1.3-10.7-5-16.8-3.5s-10.6 6.4-14.5 10.9c-8.2 9.5-11.4 21.9-6.5 33.8a58.83 58.83 0 0 0 10.2 16.3c4.7 5.3 11.1 6.6 17.2 9.7 13.6 6.8 24.9 18.2 34.8 29.6a4.08 4.08 0 0 0 5 .6c5.7-3.4 7.6-9.7 9.6-15.7 2.6-7.6 8-11.8 13.6-17.1 11-10.5 19.1-27.2 16.5-42.7-2.2-13.3-11.4-28.3-25.5-30.9-7.6-1.4-14.6 1-21.4 4-3.2 1.4-7 3-9.6 5.4-2.8 2.6-3.9 6.4-5.5 9.8 1.1-.8 2.1-1.6 3.2-2.4-1.2.4.2.7-1.1-.1a7.11 7.11 0 0 1-1.5-1.5c-1.7-1.8-3.2-3.9-4.8-5.8-3.3-3.9-7-6.8-12.3-7-6.9-.3-6.9 10.4 0 10.7 3 .1 5.9 5.3 7.6 7.4 2.6 3.1 5.6 6.1 9.7 6.9a9.51 9.51 0 0 0 7-1.3c2.6-2 2.6-5.8 4.5-8.2 1.4-2 5.3-3.3 7.5-4.3a37.51 37.51 0 0 1 9-3.3c12.6-2.4 20.6 10.1 23.4 20.6 3.5 13.2-4.2 28.1-13.5 37-4.9 4.7-9.9 9-12.9 15.2-2.3 4.9-2.7 13.2-7.6 16.2l5 .6a149.64 149.64 0 0 0-27.1-24.4 76.77 76.77 0 0 0-14.7-7.8c-6.5-2.5-10.7-5.1-14.6-11-3.2-4.8-6.3-9.5-7.2-15.3a25.85 25.85 0 0 1 3.4-17.6c2.8-4.5 6.8-9.6 11.3-12.5 6.1-3.9 11.6.1 17.8 1.1 2 .4 3-2.9.8-3.4z"/><path class="cls-1" d="M1170.4 1430.2a186.75 186.75 0 0 1 9.2 21.6c2.4 7 5.6 16 4.6 23.6-.7 5.1 6.9 5.9 6.9.9 0-9.6-4.3-18.4-7.4-27.3-2.7-7.7-5.7-14.9-10.8-21.4-3.1-4-8.1 1.1-6.5 5 4.6 10.7 4.3 22.6 7.9 33.6 1.7 5.3 10.2 3 8.4-2.3-3.9-11.6-3.3-24.5-9.2-35.5l-6.5 5c5.2 4.7 7.4 12.6 9.8 19 2.9 7.7 7 15.5 7.3 23.9l6.9-.9c-1.9-8.5-3.1-16.7-6.2-25a207.45 207.45 0 0 0-10.3-22.5c-1.5-2.7-5.4-.4-4.1 2.3zM2942.3 1375.9c.7-.8 1.4-1.5 2.2-2.3a2.42 2.42 0 0 0-.5-3.8c-17.6-10.4-22.9 19.5-21.5 31 1.5 11.9 8.7 21.3 17.2 29.3a50.49 50.49 0 0 0 16 10.5c6.2 2.6 12.8 4.1 19 6.7 7.6 3.1 13.6 8.5 20 13.5 2.9 2.3 6.1 4.2 9.1 6.4s5.7 4.9 9 6.8c2.2 1.3 4.7.4 6.2-1.6 4.1-5.7 4.9-12.9 5.7-19.7a203.09 203.09 0 0 1 4.8-23.2c3.4-13.8 10.7-28.1 9.8-42.5s-11.6-23.3-25-26.5c-6.4-1.5-13.1-1.6-19 1.6-4.8 2.5-8.4 7.7-13.6 9.4-4.5 1.5-10.1.6-14.7-.1s-9.1-1.1-13.6-2c-8.8-1.7-16.4-5.2-25.5-2.9a5.49 5.49 0 0 0-3.9 3.9c-.2.8-.3 1.7-.5 2.5-1.2 6.8 9 9.8 10.5 2.9.2-.8.4-1.6.6-2.5l-3.9 3.9c6.9-1.5 13 1.7 19.7 2.9a168 168 0 0 0 22.3 2.9c6.3.3 12.4-.3 17.8-3.9 4-2.7 7.4-7.2 12.2-8.5 5.1-1.4 11.5.6 16.1 2.8 5.5 2.7 9.3 6.7 10 13 1.5 12.4-5.1 25.3-7.9 37.1-1.9 7.8-3.9 15.7-4.9 23.6-.9 7-.8 14.8-4.9 20.8 2.1-.5 4.1-1.1 6.2-1.6a68.92 68.92 0 0 1-8.2-6c-3-2.2-6.2-4.1-9.2-6.3-6.1-4.6-11.7-9.6-18.7-12.9-6-2.8-12.4-4.4-18.6-6.5a48.24 48.24 0 0 1-19.1-11.6c-9-8.6-15.1-18.5-14.1-31.3.6-7.1 2.6-21.4 12.7-17.6-.5-1.2-1-2.4-1.4-3.5-.6.9-1.2 1.7-1.7 2.6-1.4 2.1 1.6 4.4 3.3 2.7z"/><path class="cls-1" d="M2986.4 1389c-1.2-2.1-2.4-4.2-3.5-6.4-1.8-3.4-6.7-1-6 2.5 2 8.8 6.3 16.7 7.8 25.6 1.4 8.7 3 16.9 6.7 24.9 1.8 3.9 7.3 1.6 7.5-2 .6-9-4.1-17.4-7.6-25.3-1.9-4.2-3.4-8.5-5.8-12.4a87 87 0 0 0-9.2-11.8c-1.7-1.9-4.7-1.6-6.5 0a14.46 14.46 0 0 0-2.2 2.1c-3.5 3.5 1.3 10.2 5.4 7 1.1-.8 2.2-1.7 3.3-2.6h-6.5c6.4 5.9 10 12.9 13.6 20.7 3.2 7 7.9 14.3 7.6 22.3 2.5-.7 5-1.4 7.5-2-3.9-7.8-5-16.1-6.7-24.5s-5.9-15.6-8.5-23.6c-1 1.4-2.1 2.8-3.1 4.1a8 8 0 0 1 5.2 2.3c.5.5 1.4-.2 1-.9zM131.2 1309c-4.3-4.5-11.4-3.1-16.7-1.4a44.86 44.86 0 0 0-17.7 10.5 60.55 60.55 0 0 0-17.8 51.3c2.5 20.3 14.7 36.5 29.6 49.7a233.84 233.84 0 0 0 25.3 19.2 49.16 49.16 0 0 1 10.7 9.1c2.6 3.1 5.2 6.2 9.2 7.3 6.9 1.9 16.3.8 23.1-.9 4.8-1.2 9.2-3.4 13.7-5.2s9-3.3 13.4-5.3c8-3.7 14.4-9.4 20.1-16 6.8-7.9 13.4-16 19.5-24.5a140.64 140.64 0 0 0 15.2-27c2-4.7 3.5-9.6 5.4-14.4 1.9-4.6 4.2-9.2 5.1-14.2 1.4-7.9-1.9-18.1-5.8-24.9-4.5-7.7-11.6-14.5-18.6-20-17.5-13.5-40-12.2-60.4-7.4a36.15 36.15 0 0 1-9.8 1.3 31.34 31.34 0 0 0-8.1.7c-5.4 1.4-9.6 4.2-15.3 4.3-11.7.2-23.2-3.5-34.7.2-1.8.6-3.8 2.1-4.1 4.1-.2 1.1-.3 2.2-.5 3.3-1.1 7.3 10.2 10.5 11.2 3.1.2-1.1.3-2.2.5-3.3l-4.1 4.1c8.4-2.7 17.3-.6 25.9 0a49.19 49.19 0 0 0 12.7-.5c4-.8 7.4-3.2 11.4-4.1 4.4-1.1 9-.1 13.5-1 4.2-.9 8.3-2.1 12.6-2.9 7.8-1.4 16-2.1 23.8-.9a41.68 41.68 0 0 1 21.8 10.5c5.7 5.1 11.7 10.6 14.6 17.8a43.52 43.52 0 0 1 2.8 11.3c.4 3.7-1.6 7.6-3 10.9-3.4 8.5-6 17.3-10.1 25.5-7.9 15.9-19.2 30.1-30.8 43.5a48.66 48.66 0 0 1-17 12.8c-7.7 3.5-16.1 7.7-24.3 9.7-5 1.2-14.7 3.1-19.1 0-3-2.1-4.8-5.8-7.5-8.3-3-2.8-6.8-4.9-10.3-7.2-15.3-10.2-31.4-22-41.3-37.9-10.5-16.8-12.3-38-3.5-56 3.6-7.3 9.3-14.4 16.1-18.9 4.4-2.9 15-9.4 20-5 2.4 1.8 5.2-1 3.3-3z"/><path class="cls-1" d="M185.9 1321.8a14.86 14.86 0 0 0-8.3-1c-.9.1-1.3 1.1-1.4 1.9-1.2 12.3 4.1 24.3 6 36.3 2.2 13.5-3.3 25.4-4.5 38.6-.4 4.5 5.9 4.6 7.3 1 5.4-14.3 6.1-29.6 3.6-44.6-1.8-10.9-3.6-24-11-32.7-2.7-3.2-7.2-.3-7.5 3.1-.4 4.6 1.7 9.7 2.8 14a161.29 161.29 0 0 1 3.6 21.9c1.9 17.4.7 34.9.7 52.3 0 5.9 9.1 5.9 9.2 0 .2-19 7.4-44.6-6.3-60.7-8.1-9.5-18.1-5.8-27.2.1-8.9 5.9-17.7 12.8-24.7 20.9-3.4 3.9 1.2 11.2 5.9 7.7 11.7-8.7 19.8-22.1 32.6-29.3 6.6-3.8 11.8-4.3 17.6.8 2.9 2.5 5.6 5.2 8.9 7.3 3.6 2.3 7.6 4.1 11.1 6.6l1.2-9c-4 1.3-8.2.3-12.3 1a25.31 25.31 0 0 0-9.9 4.4 44.41 44.41 0 0 0-13.8 14.8c-3.1 5.7-2.9 12.3-5.6 18.1-2.7 6-9 9.2-14 12.9s-.4 12.2 5 8.6c12.5-8.4 23.1-17.3 38.9-17.3 6.4 0 6.4-9.9 0-9.9a50.9 50.9 0 0 0-23.3 5.2c-7.4 3.7-13.9 8.9-20.7 13.5 1.7 2.9 3.3 5.7 5 8.6 4.7-3.5 10-6.5 13.8-11 4.2-4.9 5.8-10.7 7.1-16.8 1.5-7 5.4-12.3 10.9-16.8 2.8-2.3 6-4.3 9.6-4.6 4.1-.4 7.8.2 11.8-1a5 5 0 0 0 1.2-9c-3.8-2.6-8-4.4-11.8-7-3.5-2.4-6.3-5.6-9.7-8.1-6.5-4.8-13.7-4.8-21.1-1.8-15.8 6.5-24.3 21.9-37.6 31.8 2 2.6 4 5.1 5.9 7.7a107.36 107.36 0 0 1 20-17.5 53 53 0 0 1 10.2-6.1c4.7-1.9 7.6.8 9.9 4.9 4 7.3 3.8 16.9 3.5 25-.3 8.8-1.4 17.6-1.5 26.4h9.2c0-17.4 1.1-34.9-.9-52.3a191.51 191.51 0 0 0-3.6-22.5c-1-4.2-3.4-9.1-3-13.4-2.5 1-5 2.1-7.5 3.1 6.2 7.2 7.7 19.5 9.4 28.6a77.5 77.5 0 0 1-2.9 40.5c2.4.3 4.9.7 7.3 1 .9-12.5 5.4-24.2 3.4-36.9-2-12.9-7.5-24.9-8.4-38-.5.6-.9 1.2-1.4 1.9a21.85 21.85 0 0 1 7.1-1.4 1 1 0 0 0 .2-1.8zM981.8 1363.7c-18.4-2.5-31.2 14.9-31.4 32-.1 11.2 5.8 21.2 12 30.1 7.3 10.4 8.4 21.7 10.8 33.9a4.71 4.71 0 0 0 4.5 3.4c12.2-.4 21.4-13 27.9-21.9 7.6-10.3 13.2-21.5 22.5-30.5 10.2-9.8 23.5-21.4 22.5-37.1s-15.7-28.3-30.2-31.8c-8.5-2.1-18.8-2.7-27.3-.3-8.8 2.5-11.9 10-18.3 15.5l7.5 7.5c-.2 0-.4-.1-.6-.1-.8-1.1-1.6-2.1-2.4-3.2 2.9 9.3-1 20.9-5.1 29.3-2.6 5.4 3.8 10.7 8.4 6.5 5.7-5.1 8.7-13.4 10.5-20.6s3-15.5-.2-22.6c-1.7-3.7-7.4-3.3-9.2 0-5.4 9.8-9.1 22.9-7.6 34.1.9 6.8 11.2 3.9 10.3-2.8-1.1-8 2.7-18.9 6.5-25.9h-9.2c2 4.4 0 11.3-1.2 15.6-1.4 5.1-3.4 11-7.5 14.6 2.8 2.2 5.6 4.3 8.4 6.5 4.2-8.6 7.2-18.2 7.4-27.8.1-3.7 0-9.9-3.2-12.4-4.1-3.2-9.4-2-12.8 1.4-4.9 4.9 2.4 11.9 7.5 7.5 4.2-3.6 7-10.2 12.2-12.4 5.8-2.4 13.8-1.8 19.8-.9 11.6 1.7 27.4 11.6 26.2 25.1-1.1 12.5-13.1 21.1-21.2 29.3-7.3 7.4-12 16.1-17.7 24.6a122.05 122.05 0 0 1-11.6 15.2c-3 3.2-7.4 8-12.2 8.2 1.5 1.1 3 2.3 4.5 3.4-2-9.2-3.1-18.7-7.1-27.4-4.4-9.4-12.3-16.6-15.5-26.7-4.6-14.6 4.4-34.4 21.5-33.7 3.1.2 3.9-5.2.6-5.6zM1673.2 980.7a9.49 9.49 0 0 0 1.2 8.8c1 1.6 3.8 2 4.7 0 3.8-8.4-.4-14.3-9.5-14-7.8.2-17.6 2.9-23.7 7.9-10.7 8.8-17.2 24.3-18.1 37.9-1 14.9 7.5 28.4 12.1 42 2.5 7.5 4.7 15.8.6 23s-10.7 13-13.4 21.1c-.8 2.3.9 5.7 3.4 6.1 9.7 1.4 17.7-4.9 24.8-10.7a184.35 184.35 0 0 1 25.5-17.3 61.56 61.56 0 0 1 16.4-6.7c6-1.3 12.3-1 18.5-1.3 11.5-.6 24.1-2.7 32.8-10.9 7.7-7.2 10.9-17.8 12.1-27.9 1-8.4 1.3-18.3-5.1-24.9-6.6-6.9-17.3-6.1-26-6.7a77.66 77.66 0 0 0-16.7.1c-5 .7-8.4 3.4-12.7 5.9a8.78 8.78 0 0 1-2.1 1.2q-1.2.15-.3.3c-1.4-.9-1.6-.7-.7.7-.2-1.8.7-3.9.9-5.7.6-5.4-1.7-10.9-4.7-15.3-6.8-9.8-17.8-14.5-29.5-14.7-7.3-.1-7.3 11.2 0 11.3 8.9.1 17.4 3.8 21.6 12 3.4 6.8-2.6 14.9 4.8 20.2 8.4 6.1 14.5-.8 22-4.3 3.3-1.5 7.7-1.2 11.3-1.1 5.5.1 10.9.6 16.4.9 8 .5 10.9 4.6 10.9 12.5 0 8.6-1.7 18.6-7.1 25.5-6.7 8.6-19.1 10-29.3 10.5-11 .5-21.2 1.2-31.4 5.9a134.1 134.1 0 0 0-27.3 16.7c-6.2 4.9-14.9 15.2-23.6 14.1 1.6 2.1 3.2 4.2 4.7 6.2 1.9-5.8 6.5-10.3 9.9-15.3s5.7-10.4 5.7-16.7c.1-12.7-6.5-24.6-11.2-36-2.2-5.4-4.5-11-4.8-16.9a46.2 46.2 0 0 1 3.4-19.1c3.5-9.4 9-17.7 18.6-21.4 3.9-1.5 8.1-2.9 12.3-3 4.5-.1 5.3 1.4 3.7 5.6 1.5-.4 3-.8 4.6-1.2-.2-1.4-.5-2.8-.7-4.2.4-2.8-4.1-4.1-5-1.1z"/><path class="cls-1" d="M1657.5 1069.9c.3 1.2.6 2.4.8 3.6a2.27 2.27 0 0 0 2.7 1.5c5.7-1.1 9.7-8.7 12.6-13.1 5.5-8.4 12.6-15.3 19.1-22.9 2.9-3.4-1.8-8.2-4.9-4.9-8.7 9-16.8 18.7-25.7 27.5-3.5 3.5 1.9 8.9 5.4 5.4 6.7-6.5 11.7-14.3 16.2-22.5-2.4-1.4-4.7-2.8-7.1-4.1-2.8 5.4-6.9 9.8-10.4 14.8 2.7.7 5.3 1.4 8 2.2 0-2.4 3.3-5.8 4.7-7.6 1.8-2.4 3.8-4.7 5.8-6.9-2.3-1.8-4.6-3.5-6.8-5.3-2.3 4.1-4 8.6-6.1 12.8-1.8 3.5-4.2 9.5-8.3 11 1.7 2.2 3.4 4.4 5 6.5 4.1-5.7 9-10.9 13-16.8 2.6-3.9 4.8-12 9.9-13l-5.8-5.8a70.77 70.77 0 0 0-2.5 7.8c-1.6 5.8 7.5 8.3 9.1 2.5a78.33 78.33 0 0 1 2.5-7.8c1.3-3.6-2.6-6.4-5.8-5.8-7.1 1.4-9.6 7.4-12.7 13.1-4.2 7.7-10.4 14-15.4 21.2-2.2 3.1 1.5 7.9 5 6.5 11.3-4.2 14.4-18.5 19.6-28 2.3-4.2-3.4-9-6.8-5.3-4.7 5.1-13 13.2-12.9 20.7 0 4.4 5.7 5.6 8 2.2 3.4-5 7.5-9.5 10.1-15 2.3-4.7-4.6-8.9-7.1-4.1-4 7.7-8.4 15-14.5 21.2l5.4 5.4c8.7-9 16.6-18.8 25.2-28l-4.9-4.9c-5.5 6.9-11.7 13.9-16.3 21.5-2.6 4.3-6.3 14-11.6 15.3l2.7 1.5c-.3-1.2-.7-2.4-1-3.6-.9-2.5-4.8-1.4-4.2 1.2zM1932.7 752.2c-16.2-3.5-26.3 12-30.2 25.6a50.3 50.3 0 0 0-1.5 22.8c1.6 8.5 7.6 15.4 14.4 20.3 8.3 5.9 18.4 8.2 28.1 10.6 10.4 2.5 19.4 5.7 28.1 12.1 9.9 7.2 18.2 16.4 26.5 25.3a246.72 246.72 0 0 0 26.8 25.3c10.7 8.4 21.1 17 28.7 28.4 5.9 8.8 12.2 20.8 22.2 25.4 5.2 2.4 9.9-2.4 7.6-7.6-4.4-9.8-10.6-18.5-15.6-28-5.4-10.4-8.2-22.1-11.7-33.3-3.2-10.2-5-21.9-11.7-30.5-3.1-4-7-7.1-10.2-10.9-3.1-3.6-5.3-8.1-7.3-12.3-4.4-9.1-6.2-18.1-7-28.1-.9-10.7-1.4-21.8-5.6-31.8-3.4-8.1-10.3-16-19.1-18.3-9-2.3-16.5 2.5-20.7 10.2-.7 1.3-1.5 3.7-2.9 4.3-1.8.8-4.7-1.4-6.4-2.1-5.4-2.3-11.4-2.1-17.1-3.3a15.89 15.89 0 0 1-5.9-2c-1.8-1.2-3.2-3-5.2-4.1-4.4-2.6-8.9-1.9-13.3.2-3.6 1.7-3.5 6.7-1.2 9.2 5.9 6.5 13.7 10.3 20.7 15.4 7.8 5.7 13.3 14 19.2 21.5 6.3 8.1 13.9 15.2 19.9 23.6 5.6 7.9 10 16.5 17.5 22.8 5.6 4.7 13.6-3.1 8.1-8.1-7.2-6.5-11.3-15.3-17.1-22.9-6.3-8.3-13.7-15.6-20.1-23.8-5.7-7.4-11.1-15.2-18.5-21-7-5.5-15.3-9.2-21.3-15.9-.4 3.1-.8 6.2-1.2 9.2 2.2-1 4.5 2.4 6.3 3.6 3.8 2.6 8.5 3.4 13 4s8.8.8 12.9 2.5 8.2 3.5 12.8 2.2c3.7-1 6.2-3.5 8.2-6.6s3-7.7 7.1-8.2c8.5-1.1 13.9 10.8 15.6 17.2 2.6 9.8 2.5 20.1 3.7 30.1 1.1 9.3 4.1 17.8 8.2 26.3 4 8.3 9.2 14.2 15.5 20.8 7.5 7.8 9.1 19.5 12.2 29.5 3.7 11.6 6.7 23.6 12.2 34.5 5.1 10 11.7 19.1 16.4 29.4l7.6-7.6c-7.8-3.6-12.7-13-17.2-19.8a113.46 113.46 0 0 0-20.2-23c-9-7.7-18.6-14.6-27.2-22.9-8-7.8-15.3-16.2-23.3-23.9-7.6-7.4-16-14.8-25.6-19.7-8.1-4.1-16.9-5.9-25.6-7.9-15.2-3.4-33-10.1-33.8-28.2-.5-12.3 5.4-38 22.5-35.1 3.8.9 5.5-4.6 1.7-5.4zM524.9 1215.5c-5-2.5-6.9-9.1-10.2-13.3-3.2-4-7.9-6.7-12.4-8.8a66.53 66.53 0 0 0-17.3-5.8c-7.1-1.2-14 .2-21.1 1-7.7.9-15.1-1.1-22.8-.8-7.1.3-12.6 3.4-18.5 7-13.2 8-28.1 5.5-42.7 7.6-8.3 1.2-16.5 3.4-24.7 5-7.8 1.4-15.4 3.6-22 8.1-2.2 1.5-3.2 5-.9 7 3.6 3.1 7.6 3.8 12.2 4 5.9.2 10.9 1 16 4.4 10.1 6.8 15.5 19 24.6 27a263.27 263.27 0 0 0 27.4 20.8c9.2 6.1 19.5 11.4 30.5 13.3 9.4 1.7 19.3.7 28.7-1 3.9-.7 7.6-1.8 10-5.1 2.5-3.6 3.3-8.6 3.7-12.8.1-1.1.5-3.9-.2-4.7-.3-.3 0-.3-1 1.7-1.6 3.1-1.3 1.2-.2 1.6 1.7.6 5.4-.6 7.3-.9a54.74 54.74 0 0 0 9.8-1.9 50.77 50.77 0 0 0 26.6-18.6c8.7-11.6 23.4-42.8-1-45.6-5.6-.6-6.7 8.5-1.3 9.8 6.8 1.6 3.8 8.7 2 13.6-2.9 8-6.9 15.6-13.1 21.5-7.2 7-16.4 9.9-26.1 11.1-6.2.8-14.1 1.3-13 9.5a21.77 21.77 0 0 1-.5 7c-1 4.2-3.3 4.1-7.4 4.7-8.7 1.3-17.5 2.1-26.2-.1-9.6-2.5-18.2-7.5-26.4-13-8.3-5.7-16.9-11.7-24.3-18.6-8.7-8.1-14.3-19.4-24.1-26.3a34.41 34.41 0 0 0-14.4-5.9c-3.8-.6-10.3 1-13.4-1.6-.3 2.3-.6 4.7-.9 7 7.6-5.3 16.3-6.5 25.1-8.5s17.3-4.3 26.3-4.8 18-.4 26.6-3c7.6-2.3 13.4-8.2 20.9-10.5 8.7-2.6 18.5.8 27.5-.4 9.3-1.2 17.4-2.7 26.6.1 6.4 1.9 14.5 4.8 19 10 4.2 4.8 6.2 11.7 12.4 14.5 3.3 1.3 6.3-3.6 2.9-5.3z"/><path class="cls-1" d="M479.6 1257c.8 5.1 7.7 9.1 8.8 2 .8-5.6-5.9-10.6-9.8-13.4a76.66 76.66 0 0 0-16.6-9.1 84.21 84.21 0 0 0-18.4-5.3c-6.5-1-13.1-.2-19.3-2.3-.7 2.6-1.4 5.1-2.1 7.7 5.2 1.6 10.7.8 15.9 2.4s9.9 4.1 14.9 5.9c4.5 1.6 8.5 3.2 12 6.4 2.9 2.7 5.8 4.5 9.9 4.2 3.8-.3 6.6-5.1 3.3-8-10.9-9.9-24.1-15.1-37.7-20-7-2.5-13.8-5-21.1-6.2-6.6-1-14.1-.1-20.3-2.6-.9 3.1-1.7 6.2-2.6 9.3 5.2 1.7 10.5 1.9 15.9 3 5 1 9.6 2.9 14.7 3.7 10.2 1.6 18.9 6.2 27.7 11.3 5.4 3.1 10.3-5.3 4.9-8.4-9-5.2-18.2-10.1-28.5-12-5.3-1-10.3-2.5-15.6-3.8-5.6-1.3-11.2-1.3-16.7-3.1-6-2-8.2 7.1-2.6 9.3s11.6 1.6 17.4 2.2c7.3.7 14.1 2.9 21 5.4 13.1 4.7 26.2 9.1 36.7 18.6 1.1-2.7 2.2-5.4 3.3-8-3.3.4-5.7-3.4-8.4-5.1-4-2.4-8.5-3.6-12.9-5.1s-8.7-3.7-13.3-5c-5.3-1.5-10.8-.6-16-1.9-5-1.3-7 6.2-2.1 7.7 8.1 2.3 16.5.9 24.6 2.6a79.53 79.53 0 0 1 18.6 6.1 80.51 80.51 0 0 1 11.4 6.6 27.05 27.05 0 0 1 5.2 4.3c2.3 2.5 1.6 6.1-.5.3-.3-1.4-1.8-.9-1.7.3z"/><path class="cls-1" d="M419 1233.2c7.1 2.7 13.8 5.5 19.1 11 1.1-1.4 2.2-2.9 3.3-4.3-9.5-6-18.8-15.3-30.5-15.9-2.9-.2-4.3 3.7-2.3 5.6 11.1 10.6 28.1 8.6 40.3 17v-6.5c-3.5 2-10.1-1.5-13.3-2.9-4.3-1.9-8.4-4.1-12.7-5.8-.7 2.6-1.4 5.1-2.1 7.7 3.7 1.2 9.1 1.8 11 5.6 1.5-2 3.1-4 4.6-6-11.9-2.8-23-7.7-34.4-11.9-.7 2.7-1.5 5.4-2.2 8.1 13.1 4.3 27.6 8.6 38.2 17.7 1.4-2.4 2.8-4.8 4.2-7.1-13.8-2-23.7-13.3-37-17.2-3.9-1.1-6.3 3.1-4.9 6.3 4.2 9.2 15.7 11 23 16.8 1.7-2.3 3.5-4.5 5.2-6.8a312.5 312.5 0 0 0-30.9-13.3c-.8 2.8-1.5 5.6-2.3 8.4 7.9 2.5 14.6 7.2 21.6 11.3 1.1-2.7 2.2-5.3 3.4-8-2.6-1-5.7-1.7-6.9-4.4-1.6 2.1-3.3 4.3-4.9 6.4a70.07 70.07 0 0 1 25.4 16.8c1.8-2.3 3.5-4.6 5.3-6.9-3.1-2.3-6.3-5.4-7.8-9.1-2.1 1.7-4.3 3.3-6.4 5a49.84 49.84 0 0 1 15.4 10.2l6.2-6.2a14.77 14.77 0 0 1-5.5-8.5c-1.4 1.9-2.8 3.7-4.3 5.6 2.1 0 3.4 2.9 4.7 4.3a14.76 14.76 0 0 0 5.9 4 4.51 4.51 0 0 0 5-2c3.7-6.7.3-15.9-8.3-15.4a4.49 4.49 0 0 0-3.1 7.6 36.89 36.89 0 0 0 12.4 9.1c1.6.7 4.2.6 5.5 1.7 2 1.6 2.7 5.5 3.6 7.8a4.57 4.57 0 1 0 8.4-3.5c-2.1-5-3.7-11-9.3-13.1-2.3-.9-4.4-.8-6.7-2.1a30 30 0 0 1-7.6-6.2c-1 2.5-2.1 5-3.1 7.6 1.5-.1 1.3.8.7 2.1 1.7-.7 3.3-1.4 5-2-2.3-.8-3.6-4-5.4-5.6a10.91 10.91 0 0 0-7.6-3 4.5 4.5 0 0 0-4.3 5.6 22.45 22.45 0 0 0 7.8 12.4c4.3 3.5 10.3-2.1 6.2-6.2a57 57 0 0 0-17.2-11.5c-3.1-1.3-8 1-6.4 5 2.4 6.1 6.6 10.5 11.8 14.3 4.1 3 8.7-3.4 5.3-6.9a78 78 0 0 0-29.2-19.1c-4-1.5-6.2 3.3-4.9 6.4 2.1 4.9 7.4 6.7 12.1 8.4s7.5-5.5 3.4-8c-7.7-4.6-15.1-9.5-23.7-12.2-5.4-1.7-7.5 6.5-2.3 8.4a303.78 303.78 0 0 1 28.8 12.3c4.1 2 9.3-3.5 5.2-6.8-3.5-2.8-7.5-4.8-11.5-6.9-3.8-2-8.3-4.1-10.2-8.1-1.6 2.1-3.2 4.2-4.9 6.3 13.3 3.9 22.9 15.1 37 17.1 3.7.5 7.8-4 4.2-7.1-11.8-10.2-27.4-15-42-19.8-5.2-1.7-7.2 6.3-2.2 8.1 11.4 4.1 22.6 9 34.5 11.8a4.12 4.12 0 0 0 4.6-6c-3-6.1-10-7.4-16-9.2-5-1.5-6.9 6-2.1 7.7 8.9 3.3 22.3 13 31.9 7.5a3.83 3.83 0 0 0 0-6.5c-11.9-7.9-28.3-6.1-39.5-15.2-.8 1.9-1.5 3.7-2.3 5.6 10.3 0 19.2 9.5 27.8 14.1 2.6 1.4 5.8-2.2 3.3-4.3-6.3-5.6-14-8.5-22-11-2.5-.8-3.4 2.9-1.1 3.8zM2532.1 1421.5c-10.1-.7-20.8-1.4-28.4 6.6-8.9 9.4-10.6 23.3-5.6 34.8 1.4 3.1 3.2 6.4 3.2 9.9 0 2.8-1.3 5.2-2.1 7.7-1.8 5.4-.1 10.5 3.2 14.9a28.25 28.25 0 0 0 16.5 10.2c7 1.4 14.2 3.5 21.3 4.4a16.38 16.38 0 0 0 8.5-.9c2.8-1.1 4.5-3.6 7.2-4.8 5-2.3 12.4 2 17.8 2 13.4.1 17.3-11.2 22.3-21.2 2.8-5.7 6.2-11.1 8.2-17.1 2.1-6.6 1.3-12.8.4-19.5-.8-6.4.9-13.2-3.1-18.9-3.7-5.3-9.5-7.6-15.2-10.1-13-5.9-21.6-21.5-37.6-19.1-13.4 2-23.1 14.3-31 24.2 3 1.2 6 2.5 8.9 3.7.6-5.7-3.2-9.8-8.9-9.9-3 0-4.8 2.4-5.1 5.1l-.3 2.7c-.7 5.7 7.8 6 9.5 1.3l.9-2.7-6.3 3.6c2.1.3.1-2.3-.2-.2-.5 4.4 6.2 7.1 8.9 3.7 5.8-7.1 12-15.5 20.5-19.7 10.9-5.3 18.6 4.7 26.5 10.8 4 3.1 8.2 4.9 12.8 6.9a27.28 27.28 0 0 1 6.1 3.2c3 2.2 3.2 4.8 3.2 8.2 0 5.3 1.3 10.4 1.6 15.7.3 5.6-1.7 10.6-4.2 15.5-2.2 4.4-4.5 8.8-6.4 13.4-1.6 3.8-3.2 8.3-7.3 10.2-4.6 2.1-9.7-.1-14.4-.9s-9.1-.9-13.1 1.9c-1.7 1.2-3.2 3.1-5.2 3.8-2.9 1.1-6.5-.3-9.3-.9-5.7-1.3-12-1.7-17.6-3.5-4.6-1.4-11.4-6-11.7-11.5-.2-4.1 2.7-8.1 2.7-12.4-.1-5.3-2.8-9.8-4.8-14.5-2.9-6.5-2.3-13.7.8-20.1 5.4-11.4 15.6-12.3 26.9-13.1 2.2.1 2.2-3.2-.1-3.4z"/><path class="cls-1" d="M2541.8 1460.7a6.72 6.72 0 0 0 2.8-2.2 2.48 2.48 0 0 0-.5-3.8c-6.2-4.4-12.6 3.6-10.8 9.8 3 10.1 15.5.1 19.3-4.1a4 4 0 0 0-3.9-6.7c-5.4 1.1-10.3 3.7-11.4 9.5a4.27 4.27 0 0 0 7.1 4.1c5.4-4.8 9.2-14.3.4-17.6-6.2-2.3-13.6 1-15.4 7.5-.8 3 2.1 6.5 5.3 5.3a17.29 17.29 0 0 0 8.3-5.7c2.4-3 .9-7.2-3.1-7.5-3.6-.2-5.9 1.4-8 4.2-1.5 2.1-.1 6.1 2.6 6.5 9.3 1.3 16.4-6.1 21.5-13 1.8-2.5-.2-5.8-2.7-6.6-6.1-2-13.9-2.3-19.7.6-3 1.5-3 6.4 0 7.9 6 2.9 12.3 2.7 18.7 3.6-1.5-1.9-3-3.9-4.4-5.8-.4 1.6-2.5 1.9-3.9 2.5-4.5 1.9-4.4 9.2 1.2 9.1a19.42 19.42 0 0 0 6.3-1.1c1.5-.5 4.3-2.2 5.9-1.4l2.4-8.7a9.47 9.47 0 0 0-2.9.2 4.71 4.71 0 0 0-3.4 4.5 6.68 6.68 0 0 0 2.2 4.4c2.6 2.7 8.5.8 8-3.3a8.7 8.7 0 0 0-2.1-4.8c-1.7-2.2-4.9-1.4-6.6 0-4.6 3.6 1.3 9 2.4 12.5 1.8 5.8 9.7 3.3 8.9-2.4a9.74 9.74 0 0 0-1.5-4c-.4-.7-1.8-1.8-1.9-2.6-.5 1.1-.9 2.2-1.4 3.3l.1-.1h-6.6c-.4-.9-.6-1.1-.5-.6 2.6-1.5 5.2-3 7.8-4.6l-.8-.8c.5 1.1.9 2.2 1.4 3.3v-.3c-1.1 1.5-2.3 3-3.4 4.5.1 0 .2.1.4.1 4.6.4 6.4-6.7 2.4-8.7-6.4-3.1-10.6 1.1-16.9 1.3.4 3 .8 6.1 1.2 9.1 4.7-2 8.9-3.6 10.3-9 .8-3.2-1.5-5.5-4.4-5.8-4.7-.6-9.8-.2-14.1-2.2v7.9c3.5-1.7 9.1-.9 12.7.2l-2.7-6.6c-2.7 3.8-7.4 9.6-12.6 8.9 1.3 2.2 2.5 4.4 3.8 6.6.1 0 .2.1.4.1-1-2.5-2.1-5-3.1-7.5a9.72 9.72 0 0 1-4.5 3.5l5.3 5.3c.4-1.6 3.4-3 4.6-1.3-.1-1.1-.3-2.2-.4-3.3a11.15 11.15 0 0 1-3.6 6.5c2.4 1.4 4.7 2.7 7.1 4.1.5-2.8 2.9-3.4 5.4-4.1-1.3-2.2-2.6-4.4-3.9-6.7-2.2 2.7-5.5 6.9-9.3 6.8.8.3 1.7.7 2.5 1-1.2-1.6.3-4.2 2.1-3.5-.5-1.2-1-2.4-1.4-3.6a6.74 6.74 0 0 0-1.3 3.4 1.65 1.65 0 0 0 2.3 1.9zm-180.8-21.1c-6.9-.2-14.1 0-20.9-1.9-4.4-1.3-14.4-5.3-13.3-11.3.7-3.8 5.9-6.5 9-8 4.5-2.2 9.3-2.7 14-4.2 8.4-2.6 9.2-9.5 7.1-17-1-3.6-2.9-8.1-1.5-11.8s6.6-2.9 9.6-4.5c8.1-4.3 4-18.8 12.8-21 3.4-.8 7 .7 10.4.3 2.4-.2 4.6-1.2 7-1.6 6.9-1.3 9.8 3.8 12.3 9.3 5.1 11.3 7 23.4 7.3 35.8.2 9.1 1.6 24.5-6.9 30.6-4 2.9-9.1 3.9-13.7 5-5.4 1.2-10.8 2.7-16.2 3.6-6.3 1-13.4 1.5-19.6.1-3.5-.8-6.8-2.5-10.4-3.1-2.7-.5-5.7.6-7.6-1.6-4-4.7-10.5 2.1-6.7 6.7 4.5 5.5 11.3 3.6 17.4 5.7 6.9 2.4 13.9 2.8 21.1 2.2 6.7-.5 13.1-2.2 19.7-3.7 5.4-1.2 10.8-2.3 15.9-4.5 12.2-5.3 14.8-16.1 15.6-28.3.9-14.6 0-30.2-4.9-44.1-4-11.2-10.3-24.8-24.6-21.8-3.8.8-6.8 1.8-10.8 1.4-3.6-.3-6.8-.3-10.1 1.3-5.1 2.5-7.3 7.4-8.6 12.7-.5 2.2-.6 5.8-2.2 7.5s-4.2 1.4-6.1 2c-5.1 1.5-7.9 5.5-8.5 10.7s1.2 9.8 2.6 14.6c.4 1.6 1.3 3.9.2 5.4-1.6 2.1-5.8 2.2-8.3 2.9-8.4 2.4-24 9.4-21.4 20.6 1.5 6.3 8.5 10.3 14.1 12.3 8.4 2.9 17.5 1.9 26.2 1.5 2.4-.3 2.4-3.8 0-3.8zm112.1-46.8c-1.5-1.9-1.6-2.3-.7-4.4a17.6 17.6 0 0 1 3.2-4 30.42 30.42 0 0 1 7.5-5.4c5.9-3 12.7-4.3 19.2-4.9 15.1-1.3 29.3 1.6 43.4 7 8 3.1 15.9 6.4 23.7 10.1 6.8 3.2 13.1 7.3 20.2 9.8 8.7 3.2 17.8 5.2 26.8 7.5 8.8 2.3 17.5 4.8 26.4 6.8 20.6 4.6 41.8 4.2 62.5 7.6 3.6.6 5.2-5 1.5-5.5-19.2-3-38.8-2.6-57.9-6.1-9.9-1.8-19.6-4.6-29.4-7-9.3-2.3-18.8-4.4-27.9-7.5-8.2-2.8-15.5-7.6-23.4-10.9s-15.9-6.8-24-9.7c-14.3-5.1-28.7-7.1-43.8-5-12.5 1.7-25.7 6.6-31.7 18.6a1.08 1.08 0 0 0 .2 1.4l2.2 2.8c.9 1.2 2.8-.2 2-1.2zm35-88.2c-8.7.1-15 9.6-18.8 16.4-2.9 5.3-3.3 11.9-6.9 16.8-2.5 3.3-5.7 6.8-4.2 11.3a3.94 3.94 0 0 0 3.6 2.8c12.6.6 23.1-6.5 35.1-8.3 8.5-1.2 18.4 0 24.1-7.8 7-9.6.7-20.1-7.8-25.9a30.29 30.29 0 0 0-15.1-5.1c-6.4-.5-12.5-3.9-19-3.3-6.2.6-6.3 10.3 0 9.8 4.7-.4 8.9 2.4 13.5 2.9 5 .6 9.3 0 13.9 2.4 3.3 1.7 7.6 4.6 8.7 8.5s-1.3 7.4-4.9 8.7c-6.1 2.2-13.1 1.2-19.4 3.1-9.5 2.9-18.8 7.9-29 7.5 1.2.9 2.4 1.8 3.6 2.8-.9-2.2 3.5-6.4 4.4-8.4 2-4.3 2.1-9.3 3.7-13.7 2.2-6.1 7.1-16.2 14.5-16.8 2.2-.4 2.3-3.8 0-3.7zm109.4 24.2c-4 3.5-9.5 6-11.9 11s-2.2 12.4.8 17.3c3.2 5.3 9.4 8.1 13.7 12.4 5.8 5.8 11.3 14 18.7 18 4.8 2.6 9.1.4 11.2-4.2 1-2.2 1.5-4.7 2.5-6.9 1.5-3.1 4.1-5.5 6.5-7.9 5-5 9.1-10.1 10-17.3a23.45 23.45 0 0 0-6.5-19.5c-6.2-6.5-14.1-6.7-22.5-6.4-9.6.3-18.8-4.6-28.3-2.7-5.4 1.1-4.2 9.9 1.3 9.7 8.2-.4 15.8 3 23.9 3.1 7.1.1 14.6-2.1 19.8 4.2 11 13.4-7.7 22.6-12.3 33.3-.7 1.7-2.4 4.9-2.4 6.8a2.38 2.38 0 0 1-.6 1.1c1.9-.3 2.1-.8.6-1.3-.5-.9-3.3-2.7-4.2-3.4-6-5.4-11.5-11.6-18.2-16.2-5.7-3.9-10.5-6.9-9.9-14.6.5-6.5 6.5-9.3 10.8-13.4 2.1-2-.9-4.9-3-3.1zM1055.2 925.9c3.2-10.2-10.1-9.8-16.6-8.5-9.1 1.9-20.2 12.2-15.9 22.3 4 9.3 16.9 12.4 25.5 15.4 14.7 5.2 31 8.9 41.6 21.2 5.6 6.6 9.5 14.5 14.9 21.3 5 6.2 8.7 13.3 15.5 17.8 3.4 2.2 7.4-1.4 6.5-5-3.8-15.3-11.3-30.6-11.8-46.5-.2-8 2.4-15.2 4.3-22.8 1.7-6.7 2.5-13.7 4-20.5 1.3-5.7 1.4-11.5-1.9-16.6a23.44 23.44 0 0 0-14-9.8c-12.1-2.9-21.4 3.2-28.2 12.7-3.2 4.4-5.3 7.4-11.1 7.8-4.1.3-9.2.7-13.1-.6-3.7-1.2-6.1-3-10.2-2.5-6.2.7-6.3 10.6 0 9.8 3.7-.4 7.4 2.3 11.2 2.8a61.8 61.8 0 0 0 13.6.1c5.6-.6 10.3-2.7 13.9-7.1s6.2-10.4 11.7-12.9c6.4-2.9 15.9-.8 19 6 1.6 3.5.3 7.3-.5 10.8-1 4.2-1.6 8.5-2.3 12.8-1.4 8.4-4.6 16.3-5.3 24.9-1.5 18.6 7.8 36.5 12.3 54.1 2.2-1.7 4.4-3.3 6.5-5-5.9-3.8-9.5-10.9-13.8-16.3-4.7-5.9-8.3-12.7-13-18.6-9.5-12-23.7-17.5-37.8-21.9-6.1-1.9-12.2-3.7-18.2-5.9-4.1-1.5-10.9-3.7-13-7.9-2.5-5.1 3.8-11.7 8-13.8 3.3-1.6 17-5.5 15.5 1.8a1.39 1.39 0 0 0 2.7.6zM1883.6 1227.7a9.87 9.87 0 0 1 5.4-7.9c1.7-1 5.8-2.9 7.9-2.1 1.3.6 2.5 2.6 3.4 3.7a21.3 21.3 0 0 0 4.7 4.3c1.8 1.1 4 1.4 5.7 2.6 2 1.3 2.9 3.7 4.8 5.1 3.7 2.9 9.1 3.1 13.6 3.4 5.3.4 10.5 1.1 15.8.3s10.3-2.6 15.6-3.5c4-.7 10.7-1.9 8.8 4.4-1.4 4.9-7.3 6.6-11.6 8.1a3.84 3.84 0 0 0-1.7 6.3c2 2 6.9 4.9 7.6 7.8 1.2 5-7.8 2.9-10.4 2.7-2.3-.2-3.8 2-4 4a16 16 0 0 0 .3 4.4c.2 1.3 1.4 3.8 1 5-.8 2.5-8.4-.1-10.8-.1a4.17 4.17 0 0 0-4 3.1c-1.3 3.3.1 9.4-2.3 12 1.4-.4 2.8-.7 4.2-1.1-3.4-.5-7.2-.8-10.4 1-3.4 1.9-3.5 6.7-4.4 10.2 1.8-1 3.6-2 5.4-3.1-7.9-2.3-13.6-9.6-17.8-16.2a80.11 80.11 0 0 1-10.3-22.9c-2.4-9.1-4.9-18.4-11.9-25.2-1.4-1.3-7.6-4.6-7.4-6.6.2-2.3 6.8-5.5 8.4-7.1 3-2.9 1.2-7.2-2.3-8.6-4.7-1.8-9.6-2.9-13.7-5.9-.4 3.1-.8 6.3-1.2 9.4 1.2-.5.5-1.7.4-.2-.1 1.3.1 2.6-.1 4h9.9c-3.9-23.3-38.5-3.4-49.9 1.5-4 1.7-8.4 3.4-12.8 3.4-5 0-10-2.6-14.6-4.3-8.6-3.2-17-6.4-26.3-6-8.8.3-17.4 2.7-25.9 4.4-8.7 1.7-17.6 3.8-25.9 7.2-16.1 6.6-25.9 20.9-36.7 33.8-4.2 4.9 2.9 12.1 7.2 7.2 8.6-10.1 16.4-22 28.1-28.9 6.7-3.9 14.6-5.9 22-7.7 7.8-1.9 15.8-3.6 23.7-4.9a45.93 45.93 0 0 1 23.8 2.2c7.6 2.6 15.5 7 23.7 7.3 11.5.4 21.8-6.4 32-10.9 4.3-1.8 20.3-9.5 21.6-1.5.8 5 9 4.8 9.9 0 1.9-9.8-2.5-20.8-14.1-15.9-3.9 1.7-2.7 6.9 0 8.9 4.8 3.5 10.7 4.8 16.2 6.9-.8-2.9-1.5-5.7-2.3-8.6-3.3 3.3-7.8 5.1-10.1 9.4a11.23 11.23 0 0 0 1.5 12.5c3.5 4.1 8.2 6 11.2 10.7 3.1 4.9 4.5 10.6 6 16.2a86 86 0 0 0 12.8 26.8c5.6 7.8 12.8 15.6 22.4 18.2a4.52 4.52 0 0 0 5.4-3.1c.6-2.5 1.2-4.9 1.8-7.4l-3 3c4.7-1.9 8.9.5 11.6-4.9 2.1-4.1.6-8.7 2.1-12.9-1.3 1-2.7 2-4 3.1 6-.1 12.4 3.4 17-2.4 3.9-4.9.1-9.9.5-15.2l-4 4c7 .5 16 1.1 18.2-7.6 1.8-7.2-5.7-12-10.1-16.2-.6 2.1-1.1 4.2-1.7 6.3 5.4-2 11.4-4.1 14.7-9.1 2.9-4.3 3.9-11.5-.1-15.5-3.8-3.8-10.1-3-14.9-2.1-7.6 1.4-14.7 4.7-22.5 4.4-3.9-.1-7.9-.4-11.7-.7-2.2-.2-4.5-.5-6.3-1.9-1.3-1-2-2.6-3.2-3.7-2.3-2.1-5.2-2.4-7.9-3.8s-4.3-4.2-6.6-6.2c-3.9-3.3-8.7-1.9-12.8.4-5 2.7-8.1 6.9-7.5 12.7a1.51 1.51 0 0 0 2.9-.4zM710.1 1271.6c3.1-19-26.4-20.1-38.7-18.4-8.4 1.2-14.6 5.9-19.5 12.6-7.6 10.2-13.8 22.3-18.6 34.1-5.2 12.8-3.8 25.7-1.9 39 2.3 15.4.4 31 3.1 46.3 2.6 14.6.4 29.4.7 44.1.1 6.5.5 13.1-.3 19.6s-4.7 13.1-2 19.6c4.7 11.6 16.3 7.4 25.5 5.3 14.6-3.4 29-7.6 43.6-10.8 7.4-1.6 15-2.9 22.4-5 6.3-1.8 11.6-5.5 17.3-8.4 13.5-6.9 27.7-12 41.8-17.4 5.7-2.2 10.8-5.5 16.4-8 6.5-2.9 13.1-5.4 19-9.5 10.5-7.1 16.5-16.4 21.5-27.9 2.5-5.7 5.1-11.3 6.5-17.4.8-3.3.7-6.8 1.5-10.2s2.7-6.6 2.8-10.3c.3-5.9-2.7-12.3-4-18.1a51.07 51.07 0 0 0-7.4-17.5c-8.5-12.1-18.6-21.4-30.4-30.1-6.3-4.6-12.5-9.5-19.1-13.6s-13.7-7.1-20.6-10.7c-7.1-3.7-14.1-8-21.9-10.1a72.16 72.16 0 0 0-20.7-2.1c-15.4.3-30.5 3.9-45.9 4.3-6.4.1-6.4 10 0 10 22.7-.3 48.2-9.4 70 .2 5.7 2.5 10.9 5.8 16.5 8.5 5.9 2.9 11.7 5.5 17.3 9a264 264 0 0 1 28.6 20.8c8.1 6.7 16.5 15.6 21 25.3 2.6 5.8 3.1 12.2 5.1 18.2 1 2.9 1.8 4.8 1.1 7.8-.6 2.7-1.9 5.1-2.3 7.9-.9 6.3-1.7 11.8-4 17.8-2.2 5.7-4.3 11.8-7.5 17.1-5.8 9.6-15.2 15.5-25.2 19.9-5.3 2.4-10.4 4.9-15.6 7.7-5.5 3-11.6 4.5-17.4 6.8-11.5 4.7-23.5 9.6-34.3 15.7-5.7 3.2-10.6 5.7-17 7.2-6.8 1.6-13.7 3.1-20.5 4.6-13.1 3-25.9 7-39 9.9-4.1.9-8.8 3.1-13 3-8.2-.3-3.5-10.4-2.6-15.1 2.2-12 .6-24.3 1-36.4.2-6 .6-12 .5-18-.1-6.7-1.4-13.1-2.3-19.7-1.7-13.3-.3-26.6-2.2-39.9-1-6.6-2.1-13.2-2.1-19.9 0-7.7 2-14.5 5.1-21.5 2.8-6.2 5.9-12.3 9.3-18.2 2.8-4.9 5.5-10 9.5-14.1 6.5-6.6 15.5-7 24.3-6.9 7.9.1 21.9 1.4 20.8 12.3-.3 2.2 3.5 2.8 3.8.6z"/><path class="cls-1" d="M651.6 1455.3a49.11 49.11 0 0 0 20.7-8.9c6-4.2 12.2-8.2 18.1-12.7 12.3-9.4 19.3-23.5 26.5-36.8 7.9-14.6 16.1-28.2 27-40.7 10.5-12 14.3-26.9 20.2-41.3 1.6-4 3.9-8 4.5-12.4.7-5 0-9.2 3-13.6 4.1-6.1 10.8-9.8 14.9-16 2.3-3.4-3.1-7.8-5.8-4.5-3.9 4.8-8.8 8.6-12.8 13.4-4.5 5.3-5.9 10.6-6.2 17.5-.2 4.6-2.1 8.3-3.8 12.5-1.6 3.9-2.6 8-4.1 12-2.8 7.6-5.7 15.9-10.2 22.6-3.8 5.6-8.6 10.4-12.6 15.8a159 159 0 0 0-12.3 20.1c-7.4 13.7-13.5 29.2-23.5 41.3-5.6 6.7-13.2 11.3-20.1 16.5-7.5 5.7-14.8 10.9-24.3 12.7-1.7.3-.9 2.8.8 2.5z"/><path class="cls-1" d="M663.7 1313.6c6.3-5.8 14.9-8.2 23.1-10.4 8.5-2.3 17.1-4.3 25.8-6.2s17.7-4.6 26.8-5.3c4-.3 8 .1 12-.6s7.7-1.8 11.7-2.3c3.7-.5 2.2-6.2-1.6-5.6-4.3.7-8.5 2.1-12.8 2.8-4 .6-8.1.4-12.2 1.1-4.5.8-8.7 2.6-13 3.8-5.1 1.5-10.3 2.7-15.4 4-8.8 2.2-17.5 4.6-26.2 7.4-6.9 2.3-14 5-19.3 10.2a.78.78 0 0 0 1.1 1.1zm-.1 37c15.9-3.2 30.6-10.4 45.1-17.4 12.3-5.9 26.9-9.1 37.4-18.3 2.6-2.3-1.2-6.1-3.8-3.8-10 8.8-24 12.3-35.8 18.3-14 7.2-28.3 14.5-43.8 18-2 .5-1.1 3.6.9 3.2zm2.6 38.5c8.5-.8 15.5-5.4 23-8.9 9.4-4.3 19.3-7.5 28.9-11.6 2.2-.9.3-4.2-1.9-3.2-8.3 3.9-16.8 7.2-25.1 10.9s-15.9 9.6-25 10.6c-1.2.2-1.3 2.3.1 2.2zm-13.3 26.7c3.1 4.5 7 4 11.4 1.7 8.3-4.1 16.4-7.4 25.9-6.5 2.5.2 2.5-3.7 0-3.9a40.67 40.67 0 0 0-17.6 2.7c-3.6 1.4-14 8.6-17.1 4.5-1.1-1.5-3.7-.1-2.6 1.5zm44.6 23.2c0-1.7.1-3.4.1-5.2a1.35 1.35 0 1 0-2.7 0c-.2 6.3-2.1 13.5 3.2 18.3 1.6 1.4 3.9-.9 2.3-2.3-4.5-3.9-2.7-10.8-2.8-16h-2.7c0 1.7.1 3.4.1 5.2a1.25 1.25 0 1 0 2.5 0zm25.1-32.8c1 6 3.2 11.7 2.5 17.8-.2 1.4 2.1 1.5 2.2 0 .4-6.4-2.2-12.1-3.5-18.2-.1-.8-1.4-.4-1.2.4zm17-32.7c2.7 12.8 6.7 25.3 5.7 38.5-.2 2.5 3.7 2.5 3.9 0 1.1-13.5-3.4-26.5-6.3-39.5-.5-2.1-3.8-1.2-3.3 1zm15.6-17.4c4.8 4.9 7.6 12.3 9.9 18.7 2.2 6.1 4.3 12.8 4.3 19.3a1.8 1.8 0 0 0 3.6 0c-.1-7.3-2.5-14.7-5.1-21.5-2.5-6.6-5.5-13.6-10.7-18.5-1.3-1.4-3.3.6-2 2zm14.4-19.1c.5 8.9 9.8 16.2 15.2 22.4 1.6 1.8 4.4-.9 2.7-2.7-2.6-2.8-5.3-5.5-7.8-8.4-2.7-3.1-6.5-7-7-11.2-.1-2.1-3.2-2.1-3.1-.1zm9.2-10.6c6 7 13.5 12.2 17.6 20.7 1.2 2.5 4.9.3 3.7-2.2-4.3-9-12-14.1-18.5-21.3-1.7-1.9-4.4.9-2.8 2.8z"/><path class="cls-1" d="M682.8 1307.5c.7-2.6 11-3.3 13.9-3.9 5.8-1.2 11.6-2.3 17.5-3.1a2.44 2.44 0 1 0-.7-4.8 239 239 0 0 0-32.3 7.2c-.5.2-1.2.7-1.3 1.3-.1.8-.2 1.6-.4 2.5-.2 1.9 2.7 2.9 3.3.8zm1 15.9c6 1.1 9.3-2.7 14.3-5.6 7.1-4.1 15-6.2 22.6-8.9 2.5-.8 1.4-4.8-1.1-3.9-5.8 2.1-11.7 4-17.3 6.5a47.56 47.56 0 0 0-8.2 4.6c-3.1 2.2-5.3 5.1-9.6 4.5-1.7-.2-2.5 2.5-.7 2.8zm10.9-43c3-8.5 21.8-4.5 28.6-4.3 2.7.1 2.8-4.3 0-4.3-8.6 0-28-3.4-31.5 7.7a1.52 1.52 0 0 0 2.9.9zm82.5 22.4c8.5-.4 16.4 6.5 22.3 11.9 2.2 2 5.6-1.3 3.3-3.3-6.6-5.8-16.6-14.2-26.1-12.1-1.9.4-1.5 3.6.5 3.5zM1313.8 1294.9c2.2-2.6 3.5-5.2 0-7.6-2.8-1.9-6.6-.8-9.5.3-8.9 3.5-14.5 10-17.5 18.9-9.9 29.2 26.8 42.5 43.8 57.5 11.8 10.4 19.7 24.4 30 36.1 1.7 1.9 5 .8 5.6-1.5 1.2-4.4.6-8.8 1.2-13.2a75.75 75.75 0 0 1 3.1-11.3c2.8-8.3 6.7-14.8 11.4-22 7.2-11.2 10.3-26.7 10.5-39.9s-3.9-26.7-17.9-31c-5.8-1.8-13.1-1.3-17.7 2.9-3.1 2.9-4.3 9.2-8.4 10.8 1.1.1 2.2.3 3.3.4-5-2.5-7.9-7.1-12.6-9.7-4.1-2.3-8.6-2.1-13-3.4-7.9-2.4-12.4-.5-17.3 6.2-2.9 3.9 3.7 9 6.7 5.2 1.1-1.5 2.5-3.7 4.5-4 2.2-.3 4.7 1.6 6.8 2 3.8.8 6.7.1 10 3 2.6 2.3 4.7 4.7 7.7 6.5 4.9 3 9.1 1.8 12.7-2.6 2.4-3 3.5-8.1 7.5-9.5 6.4-2.3 14.1 2.3 17 8 2.6 5 2.7 11.6 2.5 17.1-.3 12.9-3.7 26.6-11 37.3a76.42 76.42 0 0 0-9.6 20.7 89.21 89.21 0 0 0-2.9 11.3c-.8 4.4.1 9-1.1 13.3 1.9-.5 3.8-1 5.6-1.5-8.9-9.9-16.1-21.2-25.3-30.8-9.4-9.8-21.6-15.9-32.4-23.9-5.7-4.2-11.7-9.2-15-15.7-3.5-6.7-2.7-14.2.3-21a21.9 21.9 0 0 1 8.4-9.9 25.89 25.89 0 0 1 5.9-3.2c2-.7 6.3-1.6 3.8 1.8-.9 1.9 1.7 3.9 2.9 2.4z"/></g></svg>