<svg id="Layer_1" data-name="Layer 1" xmlns="http://www.w3.org/2000/svg" viewBox="0 0 3800 1541.7"><defs><style>.cls-1{fill:#3cb33b}</style></defs><title>Artboard 1</title><path class="cls-1" d="M1687.4 865.1c-2.1-6.2-6.6-10.7-8.7-16.8-1.7-5-4.3-7.3-8.3-10.3-2.4-1.9-2.2-2.7-3-5.3a28.23 28.23 0 0 0-4-7.7c-3.3-4.7-8-7.9-11.4-12.6-3.1-4.3-6.5-7-10.7-10.2-2.9-2.2-3.8-4-4.3-7.6-.4-2.5-.9-4.7-2.7-6.6-1.6-1.7-5.2-2.5-5.9-4.9-.7-2.2.4-5-.3-7.4-.9-3.1-2.6-5.9-3.5-9s-1.5-6-2.6-8.9c-2.3-6-6-9.59-10.34-13.71a9.8 9.8 0 0 0-.46-5.09 36.91 36.91 0 0 0-2.9-6.4c-2.2-3.6-5.1-6.5-9.1-7.9-8.8-3-16.9.4-23.5 6.3-6.3 5.6-12.4 10.9-10.8 20 .3 1.7 1.3 3.7 1.2 5.4-.1 2-1.6 3.8-2.3 5.6-2.1 5.4-1.7 11.3-1.5 17a31.49 31.49 0 0 1-2.3 13.6c-2.2 5.9-1.8 11.1-1.5 17.3.2 6-3 10.2-3.9 15.9a17.91 17.91 0 0 0 .5 6.5 21.72 21.72 0 0 1 .4 8.8c-.8 4.8-1.8 9.5-.8 14.3s4.6 7.8 6.9 12c2.4 4.4.8 9.3.1 14-.7 4.5.8 8.3 3.1 12.1 5.3 8.6 14.1 16.8 24.1 19.4 5.6 1.5 14.6 2.1 16.3-5 .4-1.2-1.8-1.7-2.4-.2-3.2 8-17.7-1.6-21.4-4.5a46.14 46.14 0 0 1-9.6-10.6c-1.2-1.9-2.8-4.2-3.4-6.4s.2-4.5.6-6.7c.6-3.7 1.1-7.6.2-11.3-1.1-4-4-6.6-6.1-10-2.5-4.2-1.9-8.7-1.1-13.2.8-4.8 1.3-8.6.1-13.3-1.3-5.4 1.5-8.6 2.8-13.6 1.4-5.3 0-10.6.2-15.9.2-4.5 2.5-8.1 3.6-12.4 1.2-4.5.6-9.1.5-13.6a34.77 34.77 0 0 1 2.9-14.9 12.28 12.28 0 0 0 .5-7.8c-.9-4.2-1.7-7.2 1.4-10.6a60 60 0 0 1 10.2-9.3c8-5.3 19.8-1.5 20.7 9 .1 1.4-.7 2.8-.3 4.2.5 1.7 2.1 2.7 3.4 3.8a25.19 25.19 0 0 1 8.2 13.2 82.76 82.76 0 0 0 3.9 11.9c1.8 4.1.1 8.7 2.5 12.5a10.36 10.36 0 0 0 3.5 3.4c2.4 1.5 3.2 1.9 3.8 4.7.8 3.7 1.6 6.9 4.4 9.8s6.7 4.5 9.4 7.5c3.1 3.5 5.3 7.2 8.8 10.5s6.8 7.1 8.1 11.9c1 3.5 2.1 5.8 5.2 8 1.6 1.2 3.4 2 4.6 3.6 1.4 2 1.7 4.8 2.6 7.1 2.1 5.1 6.1 8.7 7.7 14.1 1.1 3.8 1.7 7.6 3.4 11.2 2.3 4.9 4.4 8.4 4.2 14.1-.1 4.3 0 10.9-2.1 14.9-1.8 3.5-7.6 4.1-10.7 6.3-7.9 5.7-13 13.7-23 16.1a48.18 48.18 0 0 1-17.28.51c-.14-.17-.27-.35-.42-.51a1 1 0 0 0-1.58.23 124.21 124.21 0 0 1-17.22-4.23c-5.6-1.7-10.2-5-15.5-7.3-4.9-2.2-10.1-3-13.8-7.1-3.5-3.8-9.1 1.8-5.6 5.6 3.6 4 7.9 5.7 12.8 7.4 5.6 2 10.4 5.5 15.9 7.6a94.14 94.14 0 0 0 28 6.21 76.26 76.26 0 0 1 4.36 12.39 187.31 187.31 0 0 1 5.2 25.6c2.2 16.7 2.3 33.6 2.2 50.4-.2 17.4.6 34.8-1.8 52-2.3 16.8-4.7 33.6-6.7 50.5-1.2 10.3-2.1 20.8-4.1 31-1.8 9.4-4.2 18.7-5.1 28.3-.5 5.1 7.6 5.1 8 0 .7-9.2 3-18.1 4.6-27.2 1.5-8.7 2.2-17.5 3.1-26.2 1.9-18.2 3.8-36.4 6-54.6 2.1-17.6 1-35.1.8-52.8-.2-17.3-.7-34.7-3.6-51.8a201.45 201.45 0 0 0-6.6-27.6 76.93 76.93 0 0 0-3.84-9.88 69.88 69.88 0 0 0 7.94-.22c10.2-.9 18.4-5.7 25.6-12.7 4.2-4 6.9-6.4 12.2-8.6a12.74 12.74 0 0 0 7.6-8.1c3.1-9.6 3.5-21.8-1.3-30.7-2.46-4.7-3.36-9.5-4.96-14.5zM1819.3 847.3c-2.5-5.4-3.8-9.7-3.6-15.7.4-10.6-4.9-19.8-7.3-30s-4.9-19.8-9.3-29.5c-2.4-5.3-5-10.6-5.1-16.4a58.87 58.87 0 0 0-2.3-15.6c-1.2-4.5-3.9-9-4.4-13.6-.6-5.3.5-10.7.1-16.1-.7-8.5-3.4-16.2-10.3-21.6-5.7-4.4-13.2-8.8-20.7-7.5-8.8 1.5-11.4 9.1-14 16.5-1.4 3.9-3.8 7.3-4.9 11.3-1.3 4.7-1.2 9.7-2.5 14.5-1.3 5-3 9.9-3.8 15.1-1 5.9-1.3 11.9-2.4 17.7-.8 4.4-2.7 5.7-5.7 8.6-3.2 3.1-4.6 6.2-4.3 10.7.1 2.2.7 4.3.3 6.6-.3 2-1.3 3.9-1.6 6-.7 3.9.7 7 2.3 10.4 2.2 4.5 1.4 9.7 1.4 14.6 0 2.5.2 5 0 7.5-.2 2.7-1.3 5.2-1.7 7.8a11.39 11.39 0 0 0 3.2 9.9c1.8 1.9 3.4 3 2.5 6-.7 2.2-1.9 4.3-2.6 6.4-3 9.4.3 17.7 6.3 25.1 6.9 8.6 13.6 17.2 21.9 24.6 5.6 5 13.1 11.9 21.3 11 1.8-.3 1.9-3.3-.1-3.1-7.4.5-13.8-6.4-18.8-11.1-6.5-6.2-11.8-13.3-17.3-20.4s-11.3-14.3-8.4-23.9c1.6-5.3 5.7-10.6 1.8-15.8-2.6-3.4-5.1-4.7-3.8-9.7a47 47 0 0 0 1.4-11.8c0-4.4.4-9 0-13.4-.3-3.3-1.8-5.6-3-8.5-1.7-4.1.6-7.5 1.1-11.5.6-4.3-1.6-8.5 1.5-12.2 1.7-2 4-3.2 5.6-5.4 2.2-3.1 2.7-6.8 3.3-10.5 1.5-9.3 2.9-18.2 5.4-27.3a78.38 78.38 0 0 0 2.4-11.9c.5-4.4 2.1-7.5 4-11.5 3.2-6.7 4.2-17.5 14.3-15.3 7.5 1.6 15.2 7.7 17.5 15 2.5 8.2.2 16.4 1.2 24.7.5 3.8 2.4 7.1 3.5 10.8 1.5 4.9 2.9 9.9 2.9 15.1 0 8.7 3.3 15.7 6.8 23.6 4 9 5.8 18.3 8.2 27.9 1.3 5 3.2 9.6 4.9 14.5 1.7 5.2 1.6 9.9 1.6 15.2 0 9.3 6.4 16.1 7.9 24.9 1.6 9.5-3.9 19.1-10.5 25.5-5.4 5.3-15.8 12.5-22.8 5.9-3.6-3.5-9.1 2-5.5 5.5 12.9 12.9 31.7-1.9 39.7-13.2 5-7.1 8.1-16.5 6.5-25.2a45.69 45.69 0 0 0-4.1-11.2z"/><path class="cls-1" d="M1584.6 780.1c-.4-.1-.8-.2-1.1-.3h.1c-.5-.2-.6-.3-.4-.2s.09 0 0-.06l-.07-.14c-1.3-1.5-3.8.5-2.8 2.1v.07c.1.1.5.7.3.5s.1.1.1.2a2.24 2.24 0 0 0 .7.74c.5.67 1 1.33 1.6 2a1.6 1.6 0 0 0 2.3 0 1.57 1.57 0 0 0 .2-1.62 2 2 0 0 0-.93-3.29zM1598.5 828.3a17.11 17.11 0 0 1 1.61-3 32.38 32.38 0 0 0 3.91.75 16.43 16.43 0 0 1 .08 1.83v1.6c0 .3-.2 1.1.1.4s0 .06 0 .1v.3c0 2.1 2.9 2.4 3.6.5a13.82 13.82 0 0 0-.2-7 2.43 2.43 0 0 0-.72-1.06l1.12.06c3 0 3.7-4.5.7-5.3a12.64 12.64 0 0 0-9.5 1.3 10 10 0 0 0-1.73 1.34 2.73 2.73 0 0 0-1 .86 16.8 16.8 0 0 0-2.28 4.09c-.19.43-.36.87-.52 1.31h.08c-.61 2.68 3.67 4.62 4.75 1.92zM1608.9 868.9a5.39 5.39 0 0 1 4.64-2.86c-.39 1.24-1 2.4-1.24 3.66a1.69 1.69 0 0 0 3.3.7c.6-2 1.8-3.6 2.2-5.7a2 2 0 0 0-1.4-2.4 9.85 9.85 0 0 0-1.78-.49c.72-2.07-1.26-4.75-3.62-3.91a19.87 19.87 0 0 1-2.37.78v-.52c2.5-1.07 4.93-2.87 6-4.91a26.92 26.92 0 0 0 6.21-1.85c4.1-1.7 2.4-8.3-1.9-6.8-2.9 1.1-5.3 2-8.4 1.8-2.77-.22-3.92 2.59-3.18 4.72-.36.24-.72.52-.92.68a12.47 12.47 0 0 1-2.7 1c-2.2.4-2.9 3.1-2 4.9a3.8 3.8 0 0 1-.1 3.3 3.3 3.3 0 0 0 2.3 4c.31.08.6.13.9.18-.17.33-.34.67-.5 1-1.34 3.12 2.76 5.72 4.56 2.72zM1746.7 808.4c-.1 4.3 3 7 7.1 7.2a3.8 3.8 0 0 0 .63 0 5 5 0 0 0 1.21.74c1.39 2.21 3.65 3.48 6.36 2.61 1.3-.4 2.4-2.2 1.4-3.5a9.24 9.24 0 0 0-2.53-2.17 6.08 6.08 0 0 0-.57-4.63c-2.1-3.7-7.4-4.7-11.2-3.4a3.33 3.33 0 0 0-2.4 3.15zM1758.2 742.8a2.83 2.83 0 0 0 2.6-2.8c0-1.3 0-2.7.1-4a2.8 2.8 0 0 0-5.6 0c0 1.3 0 2.7.1 4a2.8 2.8 0 0 0 2.8 2.8zM1767.3 787.1c.6-.4 1.3-.7 1.9-1.1a2.4 2.4 0 0 0 1.13-2.21h.07c1.1.2 2.5-.7 2-2a5.49 5.49 0 0 0-1.2-2.1 8.62 8.62 0 0 0-1.9-1.1 1.71 1.71 0 0 0-2.12.29c-1.6-1.37-3.88.92-2.28 2.21l.51.42a12 12 0 0 0-1.31 3.18 2.17 2.17 0 0 0 3.2 2.41zM1753.9 758.5a6.82 6.82 0 0 0-4.4 4.9 2.62 2.62 0 0 0 2.1 3.2 2.54 2.54 0 0 0 2.56-1.35 2.26 2.26 0 0 0 .74.65 2.38 2.38 0 0 0 3.3-.7 2.66 2.66 0 0 0 .1-2.3 13.18 13.18 0 0 0-1.8-3.3 2.43 2.43 0 0 0-2.6-1.1zM1774.41 896.67a16.32 16.32 0 0 0-3.21-5.47c-1.8-1.8-4.2.5-3.3 2.5 4 9.2 7.2 18.1 9 28a289 289 0 0 1 3.5 29.3c1.5 20.1-1.7 40.6-3.1 60.7-2.8 42.1-13.3 83.7-13.6 125.9-.1 11.3.4 22.5 0 33.7-.2 5.2-.1 10.4 1.7 15.4 1.7 4.7 4.5 8.9 7 13.2s9.5.4 6.9-4c-2.3-3.9-5.1-7.8-6.6-12.1-1.7-4.9-1.2-10.1-1-15.1.3-10.4-.3-20.8-.2-31.1 0-21 3-42.1 5.4-62.9s5.6-41.2 6.8-62.1c1.1-20.4 4.2-41.2 2.4-61.6-1.53-17.6-3.1-38.2-11.69-54.33zM1992.5 678.3c-.7-11-6.6-25.8-20.4-20.1-1.8.7-3.4 1.8-5.1 2.6-2.4 1.1-4.9 1-7.4 1.3-4.2.4-8.1 1.5-11.3 4.4-2.8 2.6-4.3 6.1-7.4 8.5a112.55 112.55 0 0 1-10.6 7.5c-5.5 3.5-12.1 6.5-15.3 12.5-1.5 2.9-1.5 5.8-1.8 9-.3 2.3-.3 3.6-2.8 4.3-1.9.6-4 .4-6 1-7.3 2.5-9 10-8.8 16.8.1 3.5.4 6.7-1.3 10s-4.4 6-6.5 9a22.36 22.36 0 0 0-4.4 12.2c-.2 5.6.9 10.3-2 15.5-4.1 7.4-10.4 13.6-11.4 22.4-1.2 9.5.9 18 7.6 24.9a36.3 36.3 0 0 0 12.17 8.34c-1.7 3-2.24 6.79-2.67 10.16-.8 6-1.6 11.7-2.9 17.6-3.4 15.2-6.7 30.1-11.6 44.9-7.3 21.9-9.2 44.4-11.6 67.1a99.7 99.7 0 0 1-2.2 13.3 21.28 21.28 0 0 1-1.8 5c-.8 1.5-1.4 1 .2 1.2-5.9-.8-8.4 8.2-2.5 9 16.7 2.4 16.3-28.7 17-39a260.52 260.52 0 0 1 5-34.3c3.3-16 9.7-31.2 13.2-47.2 2-9.3 4.4-18.6 5.9-28 .56-3.54.1-9.78 1.81-13.66 7.66 2 15.62-.11 23.19-2 8.5-2.2 17.3-4.6 24.9-9.2 6.6-4 16.1-9.3 19.5-16.5 1.5-3.1 1.4-6.3 1.4-9.7a49.17 49.17 0 0 1 2.3-14.3c1.2-4.3 2.8-8.6 3.6-13 .4-2.4 0-4.8.4-7.2.4-2.6 1.9-4.6 3.3-6.7 4.3-6.5 7.5-12.8 8.3-20.6.4-4.8.4-9.5 1.2-14.2.8-5 2.1-10 3.2-14.9 2.1-9.14 4.3-18.54 3.6-27.94zm-16.6 45.2c-.9 7.3-.2 14.4-3.8 21.1-3.5 6.4-8.6 11.5-8.8 19.1-.2 9.3-4.7 17.8-5.8 27.1-.4 3.4.6 7.8-.6 11.1-1.3 3.8-6.3 6.3-9.4 8.4a78.27 78.27 0 0 1-23.5 11.2c-8.5 2.4-18.2 6.1-26.8 2.5a3.9 3.9 0 0 0-3.28.29c-12-5.35-20.08-19.89-14.71-32.49 2.6-6.1 7.5-10.9 10.4-16.9a22.7 22.7 0 0 0 2.4-9.6c.1-4.3-1-8.8.9-12.8 2.6-5.5 7.8-9.3 10-15.1a22.66 22.66 0 0 0 1.3-8.9c-.1-2.7-.8-6.2.4-8.7 1.7-3.7 5.6-2.8 8.9-3.6a10.4 10.4 0 0 0 6.7-5.4c2.7-5.4.2-10.9 5.4-15.2 4.7-3.9 10.4-6.8 15.5-10.2 3-2 6.2-4 8.6-6.7s3.9-6.6 7.6-7.7 7.5-.3 11.2-1.4c2.8-.9 6.3-4.1 9.3-3.9 4.2.3 5.1 7.3 5.5 10.5 1.89 15.9-5.41 31.7-7.41 47.3zM2626.8 783.7c-.2-11.4.1-22.5-11.1-28.9-2.3-1.3-4.2-1.5-5.7-3.8-1.2-1.8-2-3.7-3.6-5.2-2.2-2-5.3-2.8-8-3.8-3.3-1.3-6.5-2.7-10-3a40.88 40.88 0 0 1-10.4-2.1 36 36 0 0 0-7.8-2.1 12.86 12.86 0 0 0-6.48 1 13.65 13.65 0 0 0-10.62-.62c-3.1 1.3-5 4.6-6.2 7.6-1.45 3.56-1.08 6.26 0 9.39-3.74 2.68-7.61 6.25-8 10.81-.2 2.5 1 4.7.9 7.2-.1 3-2.1 5.4-3.4 8-3.2 6.4-1.2 13.1-3.7 19.5-2 5.2-.3 10.3-1.8 15.5-3.4 12.2 3.4 24 11.5 32.9 4.1 4.5 8.4 9 14.2 11.3a44 44 0 0 0 12.31 2.67 13.28 13.28 0 0 0-.91 3.23c-1 5.7-.7 11.7-1.1 17.6-1.2 15.5-5.6 30.2-11.5 44.5s-13.4 27.6-19.3 41.8c-5.8 14-9 28.9-11.9 43.8-.9 5 6.7 7.1 7.6 2.1 2.5-14 5.3-28.1 10.5-41.4 5.3-13.7 12.6-26.5 18.1-40.1 5.3-13 10-26.3 11.6-40.4a134.63 134.63 0 0 0 .7-20.1c-.19-3.79-.45-7.43.46-10.82h3.14a26.16 26.16 0 0 0 7.4-.6c2.4-.8 4.2-2.2 6.7-2.7 5.7-1.1 10.3-2 13.7-7.2 3-4.6 3.7-10.2 6.8-14.8 3.4-4.9 7.1-9.4 9.1-15.1 2-5.9.1-12.2 3.1-17.7 3.2-6.06 3.8-11.56 3.7-18.46zm-10.8 12.6c-2.4 5-3.7 8.5-3.6 14.1.2 10.6-8.2 16.5-11.8 25.6-1.4 3.6-2.1 9.1-5.5 11.3-1.9 1.2-4.6 1.1-6.7 1.6-2.5.5-4.4 1.8-6.7 2.6-3.5 1.3-9.6.6-13.6.1-5.9-.7-10.7-2.3-15.1-6.4a59.1 59.1 0 0 1-9.8-11.4c-2.7-4.5-6.2-10.6-5-15.9.6-2.8 1.7-5.5 1.7-8.5 0-2.6-.8-4.9-.1-7.5.6-2.2 1.7-4.1 2.1-6.4.6-3.4-.4-7 .4-10.4 1.1-4.6 4.6-8.2 5.2-13 .4-2.8-.9-5-.8-7.6.1-3.3 4-6 6.5-7.8a3.79 3.79 0 0 0 1.3-4.9c-1.6-3.3-2.8-8.1.9-10.8a5.26 5.26 0 0 1 2.77-.89 24.46 24.46 0 0 0-2.37 3.29c-3.4 5.5 4.8 9.9 8.5 5 3-4 5-3.7 9.3-2.2a62.85 62.85 0 0 0 14.2 2.9c3.1.4 9.8 2.1 12.2 4.3s3.1 5.9 6.4 7.8 6.9 2.6 9 6.1c2.5 4 1.8 9.4 2 13.9.2 5.1.9 10.3-1.4 15.1zM2139.3 683.1c-16.1 2-26.7 19.6-28.7 34.2q-.4 3.14-.52 6.28c-1.47-3.81-3.26-7.38-6.08-9.58a71.25 71.25 0 0 0-2.49-3.3c-4.9-6-11.4-12.3-19-6.5s-8.7 14.6-5.8 23 6.9 16.1 15.5 19.4c4.1 1.6 8.6 2.4 12.8 3.6 2.2.64 4.54 1.27 6.79.88a12.26 12.26 0 0 0 3.34 2.73 4.78 4.78 0 0 0 6.17 1.69 28.63 28.63 0 0 0 7.63-6 15.18 15.18 0 0 0 2.47-2.63l1.92-2.65c1.73-2.16 3.55-4.32 5.21-6.58.54-.63 1.08-1.25 1.66-1.87 6.1-6.3 12.5-12.5 16.5-20.4 3.2-6.5 5.1-14.1 2-21-3.3-7.27-11.3-12.27-19.4-11.27zm-14.6 42.8c-.3-2.7 3-5.2 5.2-6.6a15.41 15.41 0 0 1 5-2.4c1.07-.29 1.73 0 1.8-.16.45 1.7-.55 4.42-1 5.86a28.35 28.35 0 0 1-5.1 10.1l-.24.31a60.467 60.467 0 0 0-3.06 3.69 32 32 0 0 0-2 3 39.85 39.85 0 0 1-4.37 4.75c-1.2.84-2.47 1.59-3.65 2.45 2.52-4.68 1.35-11.71.86-17 2.93 1.3 6.96.02 6.56-4zm-20 3.56c-.37-.59-.73-1.17-1.08-1.76a42.7 42.7 0 0 1-2.59-5.22 82.72 82.72 0 0 1 3.65 6.98zm-3.38 12c-5.1-1.2-9.7-2.2-13-6.6a34.84 34.84 0 0 1-5.9-13.7c-.7-4.3 3.1-14.6 8.4-10.7a30.17 30.17 0 0 1 3.85 3.42c-1.63 2.18-1.94 5.76-1 8.78 2.56 7.6 8.55 13.57 12.74 20.32-1.68-.52-3.41-.98-5.11-1.48zm44.68-25.38a9.36 9.36 0 0 0-3.89-7.18c-6.5-4.52-17.69.5-23.31 7.6a32.88 32.88 0 0 1 5.81-14.1c5.6-7.6 20.2-18.1 26.4-5 2.85 6.05-.63 12.94-5.01 18.68z"/><path class="cls-1" d="M1950 710.7c-4.2.1-4.2 6.5 0 6.5s4.2-6.5 0-6.5zM1900 795h-.95a9 9 0 0 0-6.85-3.27 2.67 2.67 0 0 0-2.6 2c-1 3.3 1.5 5.3 4.5 5.5a2.79 2.79 0 0 0 2.17-.91l.63.51v-.05a2.09 2.09 0 0 0 3.35-1.71 1.06 1.06 0 0 0-.25-2.07zM1945.7 726a2.14 2.14 0 0 0-1.21-.52l-1-.78a2.44 2.44 0 0 0-3.6 1.5 3.34 3.34 0 0 0 .9 3.4 4.88 4.88 0 0 0 3.3 1.1 2.63 2.63 0 0 0 2.6-3 2.33 2.33 0 0 0-.99-1.7zM1936.32 784.93a2.51 2.51 0 0 0-.54-1.72 2.16 2.16 0 0 0-1-.71 2.31 2.31 0 0 0-3 1.11 2.58 2.58 0 0 0-.28 1.32c0 .35-.08.74-.08 1.07a2.15 2.15 0 0 0 .34 1.35c.12 1.32.19 2.63.26 3.95a1.82 1.82 0 0 0 .4 1.1 1.8 1.8 0 0 0 1.52.7 1.7 1.7 0 0 0 1.66-1 1.92 1.92 0 0 0 .22-.84c.07-1.32.14-2.63.26-3.95a2.15 2.15 0 0 0 .34-1.35c-.02-.29-.08-.67-.1-1.03zM1924.5 750.2a2.14 2.14 0 0 0-1.9 1.5 16.06 16.06 0 0 0-.8 3.8 9.15 9.15 0 0 0-.1 1.7c-.1.7-.4 1.3-.5 2a3.16 3.16 0 0 0 3 3.9c2.1 0 3.2-1.9 3-3.9a30 30 0 0 1-.8-3.2v-.21a1.46 1.46 0 0 0 1.41-1.29c.29-2.3-.61-4.7-3.31-4.3zM2058.8 728.4c-6 0-11.5 3.9-15.5 8.1s-8 9.6-9.2 15.4c-1.33 6.18.53 12.37 2.55 18.26a4 4 0 0 1-1.75 2.24c-3.4 1.91-8.24.47-12.45-1.18a3.74 3.74 0 0 0 3.75-3.92c0-.75-.06-1.5-.12-2.24.3-11 8.58-22.25 2.42-33-6.9-12.1-23.4-10.1-31.7-.9-10.7 11.7-4.5 28.3 5.7 38.2a32 32 0 0 0 8.65 5.88c3.78 4.54 8.5 8.63 13.45 9.7-2.43 2.65 0 8.44 4.7 7.62 7.7-1.4 15.9-4.8 23-8.1a45.42 45.42 0 0 0 17.2-13.5c7-9.1 9.9-23.3 3.6-33.5-3-4.96-8.3-9.06-14.3-9.06zm-12.8 30.23c.05-.28.12-.56.2-.83.65-2.69.61-.74-.2.83zm-28.3 10.67a30 30 0 0 1-3.2-1.47 57.86 57.86 0 0 1-3.6-6.43c-3.3-6.9-5.6-14.8-5.1-22.6a23.47 23.47 0 0 1 .5-3.7 6.42 6.42 0 0 1 .39-.91c.37-.22.75-.43 1.14-.62 1.62 1.19 3.56 5.7 4 7a90.26 90.26 0 0 1 2.8 11.4c1.1 5 3.2 9.7 3.3 14.9h.08v.4a4.08 4.08 0 0 0 1 2.52zm4.2-22.4c-1-4.68-2.16-9.73-4.65-13.92a9.19 9.19 0 0 1 .85.42c5.1 2.84 4.9 8.41 3.8 13.5zm36.1 23.3a44.13 44.13 0 0 1-14.8 8.3c-3.25 1.14-6.47 2.47-9.74 3.56a1.87 1.87 0 0 0-.17-.94 17.48 17.48 0 0 0 4.61-1.22 10.17 10.17 0 0 0 3.12-2 4.49 4.49 0 0 0 5.48-1.8c1.7-2.8 2.9-5.8 4.7-8.6s4.3-5 5.2-8.2c1.4-5.3-3-11.2-8.4-11.5a7.86 7.86 0 0 0-3 .41 33.09 33.09 0 0 1 3.17-4.21c2.5-2.9 6.4-7 10.6-6.9 4.5.1 7.5 5.3 8.4 9.2 2.03 9-2.47 18-9.17 23.9zM2564 796v-.45a2.51 2.51 0 0 0 .27-2.55 2.65 2.65 0 0 0-2.4-1.6 2.48 2.48 0 0 0-2.2 1.3 2.69 2.69 0 0 0 .17 2.87v.43a2 2 0 0 0 2 2 2 2 0 0 0 2.16-2zM2564 827.7c-2.9.1-2.9 4.5 0 4.5s2.9-4.5 0-4.5zM2745.1 783.8c-.3-1.7-.6-1.9-.2-3.4s1.4-2.8 1.5-4.5c.3-2.6-1-5.1-.9-7.7a31.27 31.27 0 0 0-.5-8.1c0-.07-.26-.85-.48-1 .45-.42 1.44-1.1 1.68-1.34a8.57 8.57 0 0 0 1.8-6c-.3-5.1-3-10-4.3-14.9-.7-2.5-1-3.8-.4-6.3a8 8 0 0 0 0-5.3c-2.1-6.1-8.4-10-8.8-16.7-.2-2.9.1-5.2-1.1-7.9-1-2.3-2.8-3.8-4.3-5.7-3.5-4.4-3.5-11.2-6.3-16.2-2.5-4.5-5.6-9.3-9.5-12.7-1.7-1.5-3.4-2-5.3-3.2-2.2-1.3-2.7-4-4.7-5.6-5-3.93-10.09-1-15.24.34-5.89-.39-12.23 3.73-12.06 10.16.1 3 1.3 4.9-.1 7.8-.9 1.9-2.3 3.5-3.2 5.3a13.17 13.17 0 0 0-1.4 5.5c0 1.3.4 2.7.4 4-.1 2-.9 2.6-1.7 4.1a9.25 9.25 0 0 0-1.2 6.3c.6 2.7 2 3.6.5 6.6-2.2 4.4-5.3 7.5-6.3 12.5-.7 3.3-1.2 5.6-3.1 8.5a22.21 22.21 0 0 0-3.1 5.9c-.9 3 0 5.8-.4 8.7-.4 2.6-1.7 4.8-1.5 7.5.1 2 .6 2.4-.5 4.4-.6 1-1.5 1.9-2.2 2.9a10.87 10.87 0 0 0-1.9 6.3 12 12 0 0 0 1.4 4.9c1.3 3 .8 4.3-1.4 6.5a34.06 34.06 0 0 0-4.6 4.7c-1.5 2.2-1.9 4.6-3.1 6.9s-3 3.9-4.2 6c-1.6 2.7-1.2 4.5-1.7 7.3-.4 2.5-2.8 4.9-3.9 7.1a15.86 15.86 0 0 0-2.1 7.1c0 2 1 3.4 1.5 5.2.8 2.8-.8 4.6-1.6 7.1-1.8 5.5 1.6 8.7 2.9 13.8 1.1 4.3.1 8.2 4 11.3a16.39 16.39 0 0 0 5.6 2.4 18 18 0 0 1 6.9 3.8c3.7 3.2 7 6.3 11.7 7.9 2 .68 4.17 1.17 6.27 1.67a4.05 4.05 0 0 0-.44 1.7 2.26 2.26 0 0 0 0 .51c.19 3.39-1.2 6.18-2 9.37a35.61 35.61 0 0 0-.8 8 121.21 121.21 0 0 1-2.1 20.8 295.59 295.59 0 0 1-11.1 40.5c-4.7 13.3-10 26.5-15.3 39.5-3.6 8.7-11.6 17.6-11.4 27.3.1 3.2 3.8 5.8 6.7 3.9 8.4-5.6 12.1-16 15.4-25.1 5.1-13.9 10.1-28 14.7-42.1 4.4-13.6 8.6-27.4 11.5-41.4a82.44 82.44 0 0 0 1.7-21c-.29-6.61 2.05-12.74 1.91-19.23 1 .38 2.1.75 3.19 1a73.19 73.19 0 0 0 7.9 1.5 50.14 50.14 0 0 1 9.3 2.9c8.5 3.1 18.7-.8 25.3-6.6 3.8-3.3 4.9-7.9 6.9-12.3 2.2-5 5.8-9.2 8.5-13.9a34.82 34.82 0 0 0 4.7-14.7c.6-5.9 2.7-11.3 3.4-17.1a102.63 102.63 0 0 0 .2-19.2 58.37 58.37 0 0 0-1.03-8.28zm-6.4-30.4c-1.1 1.6-2.2 2.5-2.5 4.6-.3 1.9.2 3.1.7 4.9.7 2.2.2 4.1.2 6.5 0 2.6 1.1 4.7.3 7.4-.6 2.1-1.4 3.7-1.2 6.1.5 5.1 1.6 10 1.7 15.2.1 5.9.4 11.8-1.2 17.6a84.19 84.19 0 0 0-2.4 13.3c-.5 5.2-2.6 9.3-5.4 13.7-2.3 3.6-4.8 7.1-6.5 11-1.8 4.2-2.6 8.7-6.4 11.5-3.1 2.3-7.4 4.5-11.2 5-4.9.6-10-3-14.8-3.8a81.46 81.46 0 0 1-14.5-3.8c-5.1-1.8-11-2-15.5-5.2-3.2-2.3-5.8-5.4-9.2-7.5a18.31 18.31 0 0 0-5-2.1c-2.7-.8-3.9-1-4.3-4.1a25.31 25.31 0 0 0-1.1-6c-.7-1.9-2.2-3.8-2.6-5.9-.6-3.7 2.8-7.2 2.3-11.2-.2-1.5-1-2.6-1.4-4.1-.8-2.9.8-5.5 2.3-8a26.46 26.46 0 0 0 2.4-4c1-2.7.2-5.2 1.7-7.8 1.1-1.9 2.7-3.4 3.8-5.4s1.4-4.3 2.6-6.1c2-3.2 5.6-4.9 7.4-8.4a10.38 10.38 0 0 0-.1-9.1c-1.2-2.9-1.5-3.8.4-6.7 1.1-1.7 2.6-3.2 3.1-5.3s-.4-4.1 0-6.2 1.4-4.1 1.5-6.3c.3-4.1-.3-6.4 2.1-10 1.3-2 2.7-3.9 3.3-6.2 1.4-4.8 1.6-8.6 4.6-12.9s5-7.1 3.3-12.3c-.5-1.4-1.4-.8-.9-3.1.2-.9 1.4-2.4 1.8-3.2a12.48 12.48 0 0 0 .8-5.4c-.2-3-.2-4.6 1.4-7.3 1.1-1.9 2.4-3.5 3-5.6 1.27-4.09-2.28-10.25 1.4-13a4.32 4.32 0 0 0 4.7 2.07 17.72 17.72 0 0 0 3.11-1 3.48 3.48 0 0 1-.81 2.85c-.6.2.2.8.7.5 2.25-1.12 3.36-2.74 3.51-4.39h.09c2.7-.2 2.8 1.8 4.2 3.5 2.4 3 6.3 3.4 8.9 6.3a47.36 47.36 0 0 1 7 10.2c1.9 3.8 2 8.1 3.8 11.9 1.6 3.6 6 6.3 6.3 10.3.4 5.2.6 8.6 3.4 13.3a48.82 48.82 0 0 0 4.6 6.6c1.3 1.5 1 1.2.9 2.6-.1 1.7-.8 3.2-.7 5a26.61 26.61 0 0 0 1.2 5.6c1.1 3.8 2.8 7.4 3.7 11.2.5 1.97.5 1.27-.5 2.67zM2575 807.13a1.38 1.38 0 0 0-2-.06 2.69 2.69 0 0 0-1.89 1.73 3.16 3.16 0 0 0 1.11 3.75 2.09 2.09 0 0 0 .45.47 2.06 2.06 0 0 0 .44.28 2.16 2.16 0 0 0 2.36-.44l.12-.11a2.12 2.12 0 0 0 .17-.23 3 3 0 0 0 1.13-3.29 3.3 3.3 0 0 0-1.89-2.1zm1.06 4.61z"/><path class="cls-1" d="M2708.8 783.7a6.25 6.25 0 0 0-4.6-.9 5.62 5.62 0 0 0-3.5 3.7 2.74 2.74 0 0 0-.16.9 2.65 2.65 0 0 0-1.54 2.4c.2 1.6 1.5 3.1 3 3a9.73 9.73 0 0 0 4.33-1.29 3.7 3.7 0 0 0 3.07-2.61v-.37c0-.13.32-.48.45-.73a3.09 3.09 0 0 0-1.05-4.1zM2679.5 821.3a2.31 2.31 0 0 0-1.5.7 1.6 1.6 0 0 0-.2.1 2 2 0 0 0-1 1.82 1.78 1.78 0 0 0 .49 1.37 9.35 9.35 0 0 0 .6 1.32l.07-.09a2.48 2.48 0 0 0 2.33 1.09 2.36 2.36 0 0 0 2-1.7 5.26 5.26 0 0 0 .4-1.8 2.84 2.84 0 0 0-3.19-2.81zM2651.9 817.7a5.43 5.43 0 0 0-2.2 0c-.9.1-1.5 1-1.8 1.8-.1.3-.2.5-.3.8s.2-.4.1-.1c-.1.1-.1.3-.2.4a2.8 2.8 0 0 0 0 2.8 3.15 3.15 0 0 0 1.7 1.3 2.87 2.87 0 0 0 2.2-.3h.2a2.43 2.43 0 0 0 2.6-1.8 4.68 4.68 0 0 0-.4-3.5 3.31 3.31 0 0 0-1.9-1.4zm-.7 5h-.2a.22.22 0 0 1 .2 0zm-1.6-1v.1s-.1-.7 0-.1zM2700 744.2q.45-.15-.3.3a4.74 4.74 0 0 0-1 1 4.92 4.92 0 0 0-.6 1.7 9.16 9.16 0 0 0 .2 3.7 3.36 3.36 0 0 0 3 2.54 2.78 2.78 0 0 0 0 1.26 2.85 2.85 0 0 0 3.4 2l1.8-.3a2.91 2.91 0 0 0 2.1-2.8 16 16 0 0 0-3.3-8.7c-1.2-1.6-3.7-2.5-5.3-.7zM2689 780.4c-1.1-.2-3.7-1.1-3.4-2.7a3.91 3.91 0 0 0-3.17-4.63c-.63-2.09-4.49-2.33-4.93.23a10.91 10.91 0 0 0-.18 1.42c-2.7.94-2.62 4.75-.42 6.18a24.83 24.83 0 0 1 3 2.5 3.7 3.7 0 0 0 .33.26 10 10 0 0 0 7.77 4.14c4.1 0 5.3-6.6 1-7.4zM2695.8 705l1 1a1.61 1.61 0 0 1 .4.7 2.79 2.79 0 0 0 3.4 1.9 2.72 2.72 0 0 0 2-3.3 8.6 8.6 0 0 0-1.49-3.1 3.41 3.41 0 0 0-1.61-3l-1.8-1.2c-2.7-1.8-6 1.7-4.4 4.4a12.29 12.29 0 0 0 2.5 2.6zM2703.2 833.7a13.55 13.55 0 0 0-2 .2c-.1 0-1.8.6-1.7.8.6-.3.7-.3.1 0a2.33 2.33 0 0 0-1.2.8 1 1 0 0 0-.4.5 7.86 7.86 0 0 0-1.5 2.7 3.78 3.78 0 0 0 1.89 4.34 1.74 1.74 0 0 0 2.61.66 4.07 4.07 0 0 0 3.83-1.08h.87a3 3 0 0 0 3-3 5.64 5.64 0 0 0-5.5-5.92zM2696.9 723.9c2.1 1.3 4.5-1.8 2.6-3.4-2-1.8-3.8-4.1-6.5-4.7a2.84 2.84 0 0 0-3.4 1.9 4.15 4.15 0 0 0 .3 3.6 5 5 0 0 0 4.1 2 2.82 2.82 0 0 0 1.52-.36c.48.32.9.64 1.38.96zM1291.9 831.9a2.78 2.78 0 0 0 0-3.8c-.7-.6-1.4-1.3-2.1-1.9a2.63 2.63 0 0 0-3.6 0 2.53 2.53 0 0 0 0 3.6c.6.7 1.3 1.4 1.9 2.1a2.78 2.78 0 0 0 3.8 0zM1490.5 1025.3c-3.8-6.8-9.1-13.2-14.3-18.9s-11.8-9.2-17.2-14.4c-3.6-3.4-6.7-6.4-12-4.8a39 39 0 0 0-12.7 6.8c-4.6 3.8-4.5 9.4-3.1 14.8.9 3.4 2 6.6 1.5 10.2-.6 4-2.3 7.7-3.1 11.6a26.9 26.9 0 0 0-.5 9.8c.8 4.8 2 8.5.3 13.3-1.5 4.1-4.1 7.7-5.4 11.8s-.4 6.7.5 10.5c1.1 4.3-.3 8.8 1.2 13.1a18.28 18.28 0 0 0 5.5 7.9c5.8 4.8 24.6 8.6 27.8-1a1.73 1.73 0 0 0-.4-1.7l-1.4-1.4c-1.4-1.1-3.3.4-2.5 1.8 1.9 3.4-11.9 1.4-13.2 1.1-7.5-1.9-10.6-7.1-10.4-14.7.1-3.5-.9-6.1-1.5-9.5-.7-3.8 1.5-6.9 3.2-10.2 2.9-5.9 4.8-11.5 3.5-18-.8-3.9-1.4-7.2-.5-11.1.7-3.3 2-6.4 2.8-9.7 1.6-6.7-.6-11.5-1.5-18-.8-5.7 4.3-7.8 8.9-9.8 1.6-.7 3.5-1.8 5.2-1 2.5 1.1 5 4.9 7.1 6.6 10.8 8.7 21.2 17.9 27.4 30.6 3.4 7.1 6.5 14.5 9.8 21.6s6.7 15.5 4.5 23.5c-1.9 7.1-9.2 8.8-15.2 11.5-3.4 1.6-6.3 2.6-10 2.5-2.5-.1-4.8-.2-7.1.9-12.6 6.3-3.3 21.6 1.3 29.7a75.49 75.49 0 0 1 8.4 22.5c1.2 5.9 1.3 11.9 1.9 17.8 1.3 12.1 5.7 22.1 17.7 26.6 4.1 1.5 6.9-5.1 3-7-5.8-2.9-9.7-6.7-11.4-13.1-1.5-5.7-1.4-11.7-2-17.5-1.5-15-7.3-27-14.5-39.9-1.6-2.8-4.2-7.7-1.9-10.8 1.8-2.4 6.9-1 9.7-1.6 3.7-.7 6.9-2.6 10.3-4.2 3.1-1.5 6.4-2.7 9.2-4.6 13.6-9.2 7.9-27.6 2.2-39.8-3.7-7.9-6.8-16.3-11.1-23.8z"/><path class="cls-1" d="M1357.7 1123.3c-1.6-8.8-4.3-17.4-6.2-26.1-3.8-17.8-5.9-35.9-9-53.8s-6.2-35.7-10.3-53.3-9.3-34.9-13.9-52.3c-2.1-7.7-4.5-15.3-8.6-22.3a84.32 84.32 0 0 0-7.3-10.4q-.9-1.07-1.81-2.14a31.19 31.19 0 0 0 3.51-1.46c6.8-3.3 14.3-7 19.7-12.4 10.7-10.5 12.2-28 6.7-41.3-5.7-14-5.2-29.6-16.4-40.8a279.89 279.89 0 0 0-23.5-21.4 100.25 100.25 0 0 0-11.6-8.7c-4.1-2.4-8-4.3-11.2-7.9-6.1-6.7-11.2-14.9-18.9-20.1a26.69 26.69 0 0 0-5.25-2.59 1.65 1.65 0 0 0 0-.31c.4-4.8-3.5-6.9-7.8-6.6a10.72 10.72 0 0 0-3.87 1c-2.21-5.09-10.61-2.78-8.53 2.56a13.65 13.65 0 0 0 3.11 4.81c0 .23-.08.45-.11.69-.4 3.4 1 7 0 10.3s-3.4 6.2-4.2 9.7c-.6 3.2.1 6.2.9 9.3 1.2 4.6 1.4 9.4 2.2 14 .8 4.4 3.6 8.5 3.1 13-.4 3.9-2 7.5-1.9 11.5 0 3.4 1.1 6.6 2.3 9.8a41.58 41.58 0 0 1 2.4 13.1 104.07 104.07 0 0 0 1.2 13.6c.7 4.3-.1 8.6-.1 13a19 19 0 0 0 2.3 9.4c2.1 3.4 5.7 5.3 7.9 8.5 4.2 6.2 6.5 12 14.4 14.3 3.6 1 7.4 1.2 11 2.3 4.4 1.3 8.6 3.1 13.1 3.9a40.89 40.89 0 0 0 13.25.29 48.25 48.25 0 0 1 4.55 4.81 70.91 70.91 0 0 1 11.8 22c5.5 17 9.5 34.7 13.8 52 8.9 36.3 13.2 73.3 19.7 110 1.8 10.1 4.7 19.9 6.6 29.9 1.3 7.2-.2 16.3 4.4 22.5 2.5 3.5 8.4.3 5.9-3.5-3.45-5.16-2.25-12.86-3.35-18.86zm-119-378.75l-.87-.27a3.11 3.11 0 0 1 .88.27zm48.6 153.95c-7.8-.2-14.5-4-22-5.4-3.1-.6-6.5-.7-9.3-2.2-3.6-1.9-5.2-5.3-7.1-8.6a27 27 0 0 0-5.4-6.7c-3.5-3.1-5-5.8-5-10.6 0-3.1.5-6.2.4-9.3-.1-4-1.2-7.9-1.4-11.9-.4-7.5-.7-13.5-3.2-20.6a20.29 20.29 0 0 1-.8-12.2c.7-3.1 1.5-6.1 1.1-9.3-.5-4-2.6-7.5-3.3-11.4-.8-4.4-.9-8.8-2-13.1-1-3.9-1.7-6.7-.1-10.5 1.3-3 3-5.6 3.1-9 .11-1.91-.47-4.23-.63-6.44q1 .49 2.13.94c5.3 2.1 9.7 3.4 13.8 7.4 5.2 5.1 9.3 11 14.2 16.3 4.4 4.8 10.4 7 15.6 10.7a175.61 175.61 0 0 1 20.2 16.3c5.1 4.8 11.9 10.2 15.4 16.3 3.1 5.5 3.9 12 5.3 18 1.5 6.7 4.9 12.5 6.8 19 2 6.8.5 14-1.9 20.5-2.6 7-8.1 11-14.4 14.6-4.64 2.65-8.88 5-13.66 6.28-1.23-1.09-2.37-2.3-2.54-3.68-.5-3.1-5.5-3.1-5.1.1a10.85 10.85 0 0 0 1.63 4.48c-.6.02-1.21.03-1.83.02z"/><path class="cls-1" d="M1255.22 790.38a1.17 1.17 0 0 0-.12-1 4.43 4.43 0 0 0-1.2-1.5 7.78 7.78 0 0 0-1.23-.75 2.38 2.38 0 0 0-1.77-1.15h-.6a2.22 2.22 0 0 0-2.1 2.8c.22.82.46 1.58.73 2.33a3.08 3.08 0 0 0 .57 2.87 3.43 3.43 0 0 0 4.4.9 3.57 3.57 0 0 0 1.6-3.8 3 3 0 0 0-.28-.7zM1286.4 882.9c-.14-.46-.28-1-.46-1.51a2.64 2.64 0 0 0 .46-2.09 4.42 4.42 0 0 0-.6-1.6 2.09 2.09 0 0 0-3.58 0 4.42 4.42 0 0 0-.6 1.6 2.45 2.45 0 0 0 1 2.62 1.38 1.38 0 0 0 .46.48c.6.3 1.4.2 1.8.5.9.6.8 2.1.6 3a.51.51 0 0 0 1 .2 5 5 0 0 0-.08-3.2zM1262.5 820.1a6.37 6.37 0 0 1-.7-.2c-.2-.1-.2-.2-.3-.3a2 2 0 0 0-3.8 1 8 8 0 0 0 .38 3.21 2.47 2.47 0 0 0 .85 1.89 8.32 8.32 0 0 0 .47.7 2.69 2.69 0 0 0 2.5 1.2 2.23 2.23 0 0 0 2-1.8 2.73 2.73 0 0 0 .8-2 3.12 3.12 0 0 0-.79-1.94 1.7 1.7 0 0 0-1.41-1.76zm-2.81 6.11l.34.15a1.19 1.19 0 0 1-.34-.15zM1476 1064.1a1.9 1.9 0 0 0 0 3.8 1.9 1.9 0 0 0 0-3.8zM1459.8 1051.39c.84.73 1.69 1.45 2.6 2.21a2.26 2.26 0 0 0 3.2-3.2c-.74-.81-1.43-1.64-2.15-2.5a2.33 2.33 0 0 0-.35-1c-.3-.4-.6-.7-.9-1.1a3 3 0 0 0-4.4 0 3.14 3.14 0 0 0 0 4.4 5.76 5.76 0 0 0 2 1.19zM1456.34 1074.52a2.61 2.61 0 0 0-1.24-1 2.75 2.75 0 0 0-1.8-.1 2.89 2.89 0 0 0-2 2.6 3.61 3.61 0 0 0 .3 1.8 3 3 0 0 0 3.5 2h.1a.6.6 0 0 0 .4-.1c.3-.1.5-.2.8-.3a2.13 2.13 0 0 0 1-1.26 3.75 3.75 0 0 0 .14-2.54 1.47 1.47 0 0 0-1.2-1.1zm-1.84 2.28a.11.11 0 0 1 0-.08.12.12 0 0 1 0 .08zM2851.9 742.6a42 42 0 0 0-6.1-7.8c-2.3-2.5-3.9-5.2-6-7.9a12.48 12.48 0 0 0-10.6-5.4c-4.3.1-8.7-1.4-12.8-2.9s-8.3-3.1-12.4-.6c-1.3.8-2 2.7-3.2 3.4-.2.1-3.8-.4-4.9-.4-4.15-.2-5.56 4-4.25 7-.69 2.4-.1 5 .88 7.48-2.11 1.34-3.42 3.66-4.23 6.53-.7 2.4-.9 4.5-2.3 6.6-1.6 2.6-3.8 4.6-4.9 7.5a15.53 15.53 0 0 0-.8 8.8c.7 3.6 3.1 6.4 1.1 10-1.5 2.6-3.7 4.7-4.7 7.6-1.2 3.7-.2 7.4-2.7 10.7-4.3 5.7-7 10.5-7.3 17.8a16.63 16.63 0 0 1-.07 2.7c-.52.87-1.55 1.73-2.13 2.6-1.7 2.5-2.9 5.3-2.1 8.4.6 2.6 2.7 4.4 3.6 6.8 1.2 3.4.4 7.1 1.9 10.5 3 6.6 9.3 8.7 15 12.2 2.8 1.7 4.2 4.7 7 6.5a25.21 25.21 0 0 0 9.66 3.54c-.82 2.3-1.91 4.56-2.66 6.86-1.1 3.3-2.2 6.5-3.2 9.8-2 6.4-3.2 12.9-5.1 19.4-3.8 13.4-9.5 25.8-14.8 38.7-5.2 12.7-9.7 25.9-13.7 39-2 6.3-3.7 12.7-5.9 18.9-1.6 4.3-2.2 10.4-5.4 13.9-4.1 4.5 2.1 10.6 6.6 6.6 3.7-3.3 4.9-8.6 6.2-13.2 1.8-6.3 4-12.4 5.7-18.7 4.1-14.4 8.9-28.5 13.9-42.6s10.2-27.4 13.4-42c1.5-6.8 2.7-13.7 4.5-20.5.9-3.6 1.8-7.2 2.8-10.8.44-1.68.94-3.19 1.27-4.71 5.77 1 11.41 1.47 16.57-1.41 6.9 2.74 15.63-.68 16.37-7.82 5.14-2 7.14-8.55 5.19-14.86-.3-.9-1.3-2.1-1.4-3.1-.7.4-.7.4-.1-.1a17.06 17.06 0 0 1 1.4-1.1 11.63 11.63 0 0 0 3.5-6.4c1.1-5.3-.8-10.7-2.6-15.6-.9-2.5-1.6-4.2-.6-6.7a38.83 38.83 0 0 0 2.8-8.1c.6-3.5 1.2-6.8 2-10.3a19.94 19.94 0 0 0 .4-6.9c-.2-2.1-1.2-4.3 0-6.1 1.5-2.2 3.5-3.6 4.6-6.2 2.24-5.35.39-10.25-.28-15.55 3.36-2.83 3.38-7.66.88-12.06zm-10.1 26c-2.2 2.9-4.6 4.2-4.8 8.2-.1 2.1.5 4.2.7 6.3.3 2.7-.5 4.7-1.1 7.3-.7 2.9-.6 5.8-1.3 8.7a37.55 37.55 0 0 1-2.5 6.3c-1.6 4.1-.8 7.6.7 11.6 1.4 3.7 4.4 9.8 1.5 13.3-2.7 3.2-5.3 5.1-3.6 9.8.5 1.5 3.6 8 1 7.5-2.9-.6-6.7 2-5.4 5.4 1.1 2.9-2.2 4.6-4.5 2.7-1.3-1-3.5-1.9-5.1-.7-3.7 2.9-7.1 2.7-11.6 2.1-3.3-.5-7.1-.8-10.1-2.3-2.8-1.4-3.9-4.1-6.3-5.9-2.7-2.1-5.9-3.2-8.8-4.9-4.9-2.8-5.7-5.9-6.3-11.1a16.76 16.76 0 0 0-3.1-8.1c-2-3.1.3-4 1.9-6.5 1.5-2.2 1.2-4.6 1.3-7.2a18.19 18.19 0 0 1 3.5-10.6c2-2.8 4.4-5.1 5.2-8.5.8-3.7.2-6.5 2.4-9.8 1.9-2.8 4-5.3 4.3-8.8.3-3.3-1.3-5.8-2-8.9-1-4.3.9-7 3.3-10.3a20 20 0 0 0 3.3-6.7c.5-1.9.4-6.2 2.9-6.3a3.5 3.5 0 0 0 3-5.2c-.85-1.64-2.24-3.41-2.67-5.11 2.42.15 4.83.3 7.18-.59a9.75 9.75 0 0 0 3.4-2.3c.67-.74 1.24-1.06 1.25-1.17 1.17.19 2.68 1.32 3.65 1.67a38.71 38.71 0 0 0 5.6 1.5c2.9.7 5.9 1.7 9 1.6 1.9-.1 2.5-.7 4.1.6 1 .8 1.9 2.7 2.6 3.8a50.26 50.26 0 0 0 4.3 4.9 32.89 32.89 0 0 1 4.2 4.9 25.78 25.78 0 0 0 1.36 2.28 4.54 4.54 0 0 0-2.66 4.12c.19 5.2 3.69 11.8.19 16.4z"/><path class="cls-1" d="M2794.9 821.3c-1.5.9-2.5 3.2-1.3 4.8.07.1.15.19.22.29a2.75 2.75 0 0 0 .68 3.31 8.92 8.92 0 0 0 2.41 1.37 1.43 1.43 0 0 0 1.79 2.13 5.18 5.18 0 0 0 2.3-2.1c.09-.17.17-.42.26-.61a5.6 5.6 0 0 0-6.38-9.17zm1.61 4.8zM2802.9 801.6l-.76-.38q-.31-.37-.64-.72a3 3 0 0 0-3-.8 3.16 3.16 0 0 0-2.1 2.1 5.05 5.05 0 0 0-.4 2.52 3 3 0 0 0-.6 2.38 4.72 4.72 0 0 0 2.5 3.7c1.7.9 3.5.4 5.2-.3a2.91 2.91 0 0 0 1.4-2.4 6.86 6.86 0 0 0-.09-2 3.54 3.54 0 0 0 .19-.68 3.37 3.37 0 0 0-1.7-3.42zm-.71 1.74v.11c-.01 0 0-.06 0-.11zM2970.4 884.6a10.44 10.44 0 0 0 6.2-4.5c1.7-2.3 2.6-5.1 4.4-7.4 1.9-2.5 4.3-4.5 5.8-7.4a17.45 17.45 0 0 0 1.8-8.4c0-1.4-.4-2.8-.1-4.2.4-2.1 2.1-3.9 2.7-6a18.06 18.06 0 0 0 0-10.3c-1-3.5-3.3-7.2-2.7-10.9s2.7-6.8 3-10.6c.23-3-.87-5.6-1.46-8.36 5.42-3.09 10-7.8 10.06-14.44a21.86 21.86 0 0 0-3.1-10.9c-1.4-2.6-2.2-4-1.9-7 .2-1.64.52-3.15.66-4.73 3.22-2.25 5.81-5.21 6.14-9.37.3-4.5-2.2-8.5-3.8-12.5-2.5-6.3-1.5-13.2-4.3-19.5a15.32 15.32 0 0 0-1.25-2.31 12.74 12.74 0 0 0 .75-2.09 11.82 11.82 0 0 0-1.7-7.3c-1.1-1.9-3.1-3.6-3.7-5.7-.8-2.6.5-5.7.8-8.3.7-4.8 0-10.7-3.5-14.3-1.3-1.3-3-2-4.4-3.1-1.9-1.5-3.5-3.5-5.6-4.9a9.58 9.58 0 0 0-5.9-1.8 8.47 8.47 0 0 0-3.2.9l-.2.1a34.94 34.94 0 0 0-12.1-10c-5.5-2.6-11.1-2.6-17.1-2.8-6.9-.3-19.6-1.7-19.4 8.7a5 5 0 0 0 .25 1.37 10.37 10.37 0 0 0-2.25 1.33 19.57 19.57 0 0 0-6.9 13.4c-.2 1.9.4 4.5-.7 6.2-.7 1.1-2.1 1.8-3.1 2.5a14.68 14.68 0 0 0-4.8 5.4c-1.89 3.87-2.49 10.25 0 14.05-.5 2-2.12 4.76-2.54 6.25a73.46 73.46 0 0 0-1.9 8.4c-.9 5.5-.8 10.9-3.1 16.1-1.7 3.9-3.7 7.7-4.3 12a18.42 18.42 0 0 0 .4 7.4c.7 2.5 2.8 4.9 3 7.4.3 3.9-4.6 9.2-5.9 12.9-1.6 4.8-2.2 9.9-.5 14.7 1 2.8 2.2 4.8 1.2 7.8-.7 2.3-2.2 4.3-2.8 6.7a14.25 14.25 0 0 0-.1 6.5c.44 1.92 1.53 3.72 2.08 5.62a13.86 13.86 0 0 0-4.78 11c.18 6.45 4.73 9.68 9.09 13.36-.34 1.92-1.26 3.76-1.19 5.84.2 3.1 1.9 5.9 3.7 8.3a50.09 50.09 0 0 0 7 6.8c2.3 1.9 3.7 4.2 5.6 6.3 4.43 4.88 9.91 4.62 15.8 5.18.6 4-1.52 9.17-2.6 12.32-1.6 4.5-3.7 8.9-5.5 13.4-6.3 16-9.8 33.6-13.8 50.3-4.4 18.2-8.7 36.4-12.4 54.8-3.2 15.6-5.5 31.7-9.8 47.1-1.8 6.4-8.3 24.6 2.2 27 5.49 1.24 8.15-5.91 4.39-8.74a16.31 16.31 0 0 0-.09-2.66 53.84 53.84 0 0 1 1.2-7c.8-3.8 1.9-7.4 2.7-11.2 3.6-18.2 6.6-36.5 10.1-54.6 3.6-18.4 7.5-36.7 11.5-55 3.2-14.3 5.8-29 11-42.8 2.07-5.35 6.41-15.45 4.62-22.45 6.73 1.16 13.34 3.59 20.28 2.95a21.39 21.39 0 0 0 8.6-2.5c2.7-1.5 5.1-4.6 8.2-5.1s5.94 1.58 9.24.78zm-5.2-9.6a13.18 13.18 0 0 0-8.1.6c-2.5 1-4.4 2.8-6.6 4.3a16.34 16.34 0 0 1-11 2.4c-6.8-.7-13.3-3.2-20.2-3.5-3.4-.2-6.1-.1-8.5-2.7-2-2.1-3.4-4.5-5.7-6.3-2.8-2.3-6.4-4.8-7.8-8.2-1.1-2.7.9-5.2.8-8-.2-3.8-3.5-5.3-6.2-7.5-3.2-2.6-4.7-8-.1-10a4 4 0 0 0 2-3.5 18.94 18.94 0 0 0-1.7-7c-1.3-3.3-1-5.3.4-8.4 2.1-4.9 3-8.7 1-13.8-2.5-6.5-1.1-11.7 2.4-17.6 2.5-4.4 4.4-8.3 2.7-13.4-.9-2.7-2.6-5-2.9-7.9s.9-5.8 2-8.4c1.9-4.4 3.8-8.4 4.3-13.2.6-6.1.9-12.8 3.4-18.5 1.65-3.56 3.29-7.19.5-9.91-.39-4.14-.4-7.48 3.4-10.59 2.5-2 4.8-4 5.2-7.5.6-4.3-1.4-7.7.6-11.9 1-2.2 2.5-4.5 5-5.2a5.35 5.35 0 0 0 3.46.18c1.24.36 2.48.91 3.72 1.22 2.7 2 3.8-1.9 1.3-2.7-.79-.26-1.55-.53-2.29-.79a4.53 4.53 0 0 0 .35-1.48c.54-.13 1.13-.15 1.64-.24a41.74 41.74 0 0 1 5 .1c3.4.2 6.9.1 10.3.5a21.22 21.22 0 0 1 13.2 7c3 3.2 5.2 7.9 10.5 6.3a11.85 11.85 0 0 0 2.65-1.32c.49.37 1.16.78 1.35.92.8.7 1.5 1.4 2.2 2.1 2.7 2.4 5.5 3 5.8 6.9.5 4.6-2 9-1.1 13.6.73 3.77 4.5 6.69 5.34 10.16a7.56 7.56 0 0 0-.24 7c1.1 2.4 2.6 4.3 3.2 7s.5 5.6.9 8.4c.6 4 2.5 7.4 4 11.1s1 5-2.7 7.1c-1.3.8-2.5 2.5-2.3 4 .3 3.5-1.2 6.9-.9 10.4s2.3 6.1 3.8 9.2c3.3 6.9-.5 10.5-6.7 13.3a4.39 4.39 0 0 0-2.3 4c.1 2.9 1.2 5.4 1.7 8.2.5 3.3-1.1 6.1-2 9.1-2.1 6.7 1 11.7 2.6 18.1 1 3.9-1 6-2.2 9.5-1 2.7-.7 5.1-.6 7.9.2 6.1-5.5 10-8.1 15.2a13.18 13.18 0 0 1-1.8 3.3c-1.58 1.55-2.58.85-4.68.45zM2814.8 748a16.8 16.8 0 0 1-3.8 1.2 11.49 11.49 0 0 0-4.6 2.5c-1.9 1.5-.9 5.4 1.5 5.8.4.1.8.1 1.1.2 2.2.29 4.47-.91 4.66-3.29l.64-.41a15 15 0 0 0 3.3-2.3c2-1.9-.5-4.9-2.8-3.7zM2814.91 774.89a5.26 5.26 0 0 0-1.21-1 5.19 5.19 0 0 0-2.7-.7 3.58 3.58 0 0 0-3.7 2.4c-.9 2.6.3 4.9 2.4 6.5a2.43 2.43 0 0 0 1.43.41c.15.23.3.46.47.69 1.1 1.4 3.2.7 4-.5a6.07 6.07 0 0 0 .88-2.37 3.25 3.25 0 0 0 .62-3.53 3.11 3.11 0 0 0-2.19-1.9zM2816.58 812.8v-.3a2.17 2.17 0 0 0-1.1-2.08 2.7 2.7 0 0 0-1.48-.42 2.83 2.83 0 0 0-1.24.26h-.07l-.16.09a2.18 2.18 0 0 0-1.21 2.13v.48c-.17 1-.34 2-.42 3a2.57 2.57 0 0 0 .5 1.81v.19c.1 3.2 5.1 3.2 5.1 0v-.24a2.63 2.63 0 0 0 .5-1.76 30.13 30.13 0 0 0-.42-3.16z"/><path class="cls-1" d="M2950.14 786.1a2.18 2.18 0 0 0-.1-.76 3 3 0 0 0-.85-1.53 3.32 3.32 0 0 0-5.88-1.8 3.06 3.06 0 0 0-.67 1.78 5.06 5.06 0 0 0-1.13 4.72 2.79 2.79 0 0 0 2.7 2 6.61 6.61 0 0 0 5.1-2.3 2.77 2.77 0 0 0 .83-2.11zm-1.25-2.6l.11.14-.25-.21c.1.07.19.14.14.07zM2975.3 786c0-1.8-.1-3.6-.2-5.4a2.81 2.81 0 0 0-.91-2.19 3.08 3.08 0 0 0-4.37 0 2.81 2.81 0 0 0-.91 2.19c-.1 1.8-.2 3.6-.2 5.4a3.3 3.3 0 0 0 6.6 0zM2955.9 718a4.72 4.72 0 0 0-2.3 2.7c-.1.4-.2.7-.3 1.1 0 .2-.1.5-.1.7s-.1.5-.1.8v-.1c-.1.4-.1.8-.2 1.2a.91.91 0 0 1 0 .19 3.36 3.36 0 0 1-.77-.09c-1.9-.2-3.5 1.8-3.5 3.5a3.61 3.61 0 0 0 3.5 3.5c3.3.1 6.2-1.7 6.7-5.2a16 16 0 0 0 0-3.1v-.92c.21-.25.42-.51.6-.78a2.56 2.56 0 0 0-3.5-3.5zm-3.11 7.08c-.22.19-.14.12 0 0zm6-3c0-.16.1-.13 0 0zM3470.6 806a32.48 32.48 0 0 0-2.7-10.6c-1.6-3.9-3.6-7.8-3.4-12.1.3-4.9 1.6-9.5 1.1-14.5s-2.3-9.5-4.5-14c-2.4-4.9-3.4-10-4.7-15.2-1.3-4.9-3.4-9.4-3.9-14.5a59.74 59.74 0 0 0-3.4-13.7c-1.7-4.9-2.3-9.4-3.1-14.5-.8-5.4-2.6-10.4-4.1-15.6-.9-2.9-5.4-4.9-7.6-2a16.09 16.09 0 0 0-1.61 2.69c-2.44-3.89-5.25-7.58-7.69-11.49-3.3-5.2-8.1-9.2-14.2-10.5-8-1.7-14.9 1.5-22.5 3.3-5.5 1.2-11.4.8-15.5 5.5a4.43 4.43 0 0 0 .24 6.2 5.23 5.23 0 0 0 .25 5.16 23.15 23.15 0 0 0-.68 4.34 29.2 29.2 0 0 1-1.5 6.5 14.06 14.06 0 0 0 0 9.9c.6 1.3 1.6 2.4 2.2 3.6 1.3 2.6 0 4.3-1.2 6.7a14.6 14.6 0 0 0-1.7 8.9c.7 4.2 2.9 7.1 1.7 11.4a55.2 55.2 0 0 0-2.4 12.1c-.2 4.2 1.9 8.3 1.2 12.3-.7 3.8-2.1 7-1.7 11 .4 4.3 3 8.4 2.8 12.8-.2 4.1-2.9 8.6-4 12.6s-1.9 8.3-1.3 12.5c.7 4.7 3.7 7.7 5.1 12s-.1 9.4.5 13.9c1.2 9.1 7.9 14.3 12.3 21.7s8.7 13.9 16.7 18a52.9 52.9 0 0 0 7.52 3.13c.29 8.14.56 16.65-.62 24.67s-2.2 15.5-2.2 23.5c0 16.7.9 33.4 1 50.2 0 15.43.15 30.86.26 46.3-.19 1.8-.37 3.6-.56 5.4-1.8 16.6-4.8 33.3-5.5 50v.06c-.09 5.76 8.88 5.76 9.18 0v-.2c.22-4 1.8-7.83 2.69-11.6.9-4 1.5-8 2-12a203.06 203.06 0 0 0 1.6-25.8v-12.85c.94-10.2 1.84-20.42 2.76-30.67.55-2.26 1.35-4.48 2.07-6.69a37.36 37.36 0 0 0 1.9-12.4c-.08-8-.5-15.85-.64-23.78.18-3.38.33-6.75.44-10.12.39-12.55 1.68-25.46 1.67-38.17a10.26 10.26 0 0 1 .43 1c.4.3 1.3.3 1.2-.4-.29-2.82-1.35-5.48-1.81-8.24q-.08-1.53-.19-3.06v-.19a3.07 3.07 0 0 0-.07-.38c7.89 2.46 16.25 4.85 24.61 3.28a28.07 28.07 0 0 0 17.4-11.3c4.4-6.6 3.4-14 4.2-21.5 1.1-9.7 2.4-18.1.4-27.8-1.05-4.99-.25-9.79-.45-14.79zm-94.29-129.74a2.07 2.07 0 0 1 .19.12 6.34 6.34 0 0 0-.6.37v-.05a.63.63 0 0 0 0-.15 2.06 2.06 0 0 1 .08-.23zm43.07 200.38l.59.17a2.22 2.22 0 0 0-.44.57zm43.82-38.54c-.4 3.9-1.1 7.7-1.4 11.6s.2 8.1-.7 12c-1.5 6.1-7.7 10.7-13.6 12-7.7 1.7-15.8-1.3-23.1-3.4-7-2-14.3-3.2-20.8-6.7-7.4-4.1-10-10.8-14.5-17.5-2.1-3.1-4.9-5.7-6.9-9-2.4-3.9-2.9-7.9-2.7-12.4.1-3.5.3-7-.8-10.4-1.4-4.2-4.4-7.3-4.4-11.9 0-7.3 4.2-14.3 4.9-21.6.3-3.5-.5-6.6-1.5-9.9-1.2-4.4-.5-7.4.8-11.7a14.57 14.57 0 0 0 0-9 26.71 26.71 0 0 1 .2-14.3c1-3.5 2.4-6.6 1.5-10.3s-3.3-6.4-1.9-10.3c1.1-3.2 3-5.7 2.7-9.3-.3-3.3-2.6-4.8-3.8-7.6-1.7-4 1.5-8.4 1.5-12.5a13.18 13.18 0 0 0-.22-2 4.49 4.49 0 0 0 2.62-.59 5 5 0 0 0 2.05-2.38 2.13 2.13 0 0 1 1.65 1.68c2.1 2.5.5 3-5 1.4.2-.3-.1-.1 0 .1 2.1 3.2 5.5 2.6 8 0a.78.78 0 0 0 .2-.8 11.89 11.89 0 0 0-4-6l.09-.7c.2-2-2.3-2.9-3.7-2.1a5.31 5.31 0 0 0-1.51 1.19 7 7 0 0 0-.69.1l-.07-.13a5.32 5.32 0 0 0 .87-.66c2.6-2.5 8.2-2.7 11.5-3.5 5.9-1.4 11.8-4.5 18-3.2 5.4 1.1 7.9 4.8 10.5 9.2 3 5 7.3 9 9.2 14.6a4.37 4.37 0 0 0 7.3 1.9c.16-.16.29-.33.43-.49.09.33.18.66.27 1 1 4.1.9 8.3 1.8 12.5.8 3.4 2.1 6.6 3.2 9.9 1.4 4 1.7 7.8 2.4 12 .5 3.5 1.9 6.6 3 9.9 1.3 3.9 1.9 7.9 3.1 11.9 2.2 7.6 7.2 13.9 6.9 22.2-.2 7.1-2.1 12.9.4 19.9 1.1 3 2.6 5.9 3.6 9 1.2 3.9.9 7.6.7 11.6a45 45 0 0 0 1.4 11.6 38.4 38.4 0 0 1 .51 13.08zM2955.1 828.6a4 4 0 0 0-1.7-3 3.63 3.63 0 0 0-3.5 0 10.38 10.38 0 0 0-1.7 1.2 4.37 4.37 0 0 0-1.5 2 1.91 1.91 0 0 0-.9 2.23c0 .11.08.22.11.33a4.76 4.76 0 0 0 .26 1.15c.05.43.08.86.13 1.32a1.76 1.76 0 0 0 2 1.65 2.69 2.69 0 0 0 1.79.15 6.14 6.14 0 0 0 3.8-2.5 7 7 0 0 0 1.1-2.1 5.9 5.9 0 0 0 .2-1.4c.01-.33-.19-2.03-.09-1.03zM2925.8 720.67a5 5 0 0 0 3 3.93c2 .8 4.5.5 5.6-1.5a8.1 8.1 0 0 0 .7-6.1 3.17 3.17 0 0 0-.74-1.42c1.83-.26 1.72-3.19-.36-3.28-3.1-.2-7.3-1.1-9.3 2a4.9 4.9 0 0 0 1.1 6.37zm2.47-3.94c.12-.1.18-.12.22-.12zm.23-.43a1.13 1.13 0 0 1 .8-.5l.26-.07a3.09 3.09 0 0 0-.44.59l-.53.25c-.04-.09-.18-.18-.09-.27zM2936 861.9a17.6 17.6 0 0 1-9.28-3.27 2.66 2.66 0 0 0-2.37-1.71l-.15-.11a3 3 0 0 0-5 2.1c-.3 2.9 2.2 4.3 4.7 4.4a3.39 3.39 0 0 0 .55 0 32.67 32.67 0 0 0 3.85 1.84 19.77 19.77 0 0 0 7.6 1.1c2.8-.25 2.9-4.25.1-4.35zM2924.2 822.1c1.1-1.1 1.4-3.5 0-4.6-.23-.18-.46-.34-.68-.5a2.5 2.5 0 0 0-1.21-1.76c-.1.1.1-.7.1-.7a2.59 2.59 0 0 0-1.8-3.1 2.73 2.73 0 0 0-3 1.9 8 8 0 0 0-.24 2c-1.94.86-1.81 3.81-.16 4.82a15.91 15.91 0 0 1 2.4 2 3.39 3.39 0 0 0 4.59-.06zM2929.8 747.4a3.22 3.22 0 0 0-1.18 2 2.6 2.6 0 0 0-.52 3.48 5.38 5.38 0 0 0 2.83 2.17l.07.13a2.2 2.2 0 0 0 2.9.6 4.93 4.93 0 0 0 .85-.64l.09-.18a3.79 3.79 0 0 0 1.17-2.42 3 3 0 0 0-.27-2.5c-.4-.6-.7-1.2-1.1-1.8a3.35 3.35 0 0 0-4.84-.84z"/><path class="cls-1" d="M3434.8 831.9c-2.21-.86-4.31 2-3.33 4v.36a3.11 3.11 0 0 0 .1 3.69l.1.1c.1 3 4.3 3 4.68.09a5 5 0 0 0 2-4.29c-.25-2.05-1.75-3.15-3.55-3.95zM3397.4 810.4a7.7 7.7 0 0 0-2.4-4.4c-2.2-1.8-6-.2-5 2.9.4 1.3.8 2.5 1.2 3.8a2.7 2.7 0 0 0 2.18 2.12c0 .09.07.19.12.28.4.6 1 1 1.4 1.6a1.42 1.42 0 0 0 2.6-1.1c0-.2-.1-.37-.15-.54.53-1.46.22-3.13.05-4.66zm-5.29.57c-.35-.13-.15-.15 0 0zM3178.1 710.4a66.5 66.5 0 0 0-4.5-15.2c-2.2-5.4-2.9-11.4-6.3-16.3-5.5-8.1-15.1-11.7-21.3-19-4.3-5.1-3.9-10.8-5.8-16.8-1.7-5-5.1-9.1-8.7-12.8a56.5 56.5 0 0 0-14.1-10.7c-5.4-2.8-11.2-4.8-16-8.6-4.6-3.7-7.9-8.8-12.5-12.5s-9.1-4-14.6-5.4c-5.9-1.5-10-6.5-15.3-9.4-5-2.7-11.1-3.7-15.4-7.6-3-2.65-7.18.46-6.5 3.53a10.12 10.12 0 0 0-4.2-.23c-6.7 1-10.3 10-9.9 16 .2 4 2.6 6.8 4.4 10.2 2.7 4.7 2.9 10.4 5.4 15.3 2.9 5.5 7.1 10 8.9 16 2 6.4 1.7 13.3 2.5 19.9a44 44 0 0 0 4.5 15.1c2.3 4.5 5.6 8.8 6.6 13.9 1.2 5.9.5 12.5.9 18.5.5 6.5 1.6 12.4.3 18.8-2 9.8.8 19 7.2 26.7 2.2 2.6 3.6 3.8 4.1 7.2.3 2 .4 3.9 1.4 5.8 2 3.8 5.8 6.7 9.6 8.7 8.2 4.3 18 5.9 25.7 11 4 2.7 6.9 6.7 11.3 8.8a20.08 20.08 0 0 0 10.8 1.7 33.36 33.36 0 0 0 5.43-1.09q-.06 2.51-.09 5c-2.17 6.33-1.52 13.91-1.34 20.37.2 8.5-.8 16.9-1.7 25.4-1.9 19.3-3.8 38.6-6.1 57.8-2.2 18.5-5.2 36.9-7.8 55.3-1.5 10.7-6.9 23.8-2.7 34.5 1.3 3.2 4.9 4.4 7.6 2 4.5-4 5.9-10.3 6.9-16 1.3-7.6 2.7-15.1 4.3-22.6 4.1-19.1 6.1-38.2 7.6-57.6.8-9.7 2.1-19.3 3.2-28.9 1.1-9.2.8-18.5.5-27.8-.61-17.3.3-34.67-.26-51.92a59.41 59.41 0 0 0 21.56-22.58c4.5-8.6 2.3-18.5 7.1-26.9 2.3-4.1 5-7.8 6.5-12.3a33 33 0 0 0 .8-15.28zm-8.7 16.9c-2.2 4.2-5.2 8-6.8 12.6-2.7 7.7-.9 15.8-5.2 23.2a53.35 53.35 0 0 1-15.63 16.72 4.64 4.64 0 0 0-9.27.18c-.1 1.72-.17 3.45-.25 5.18-3.54 1.4-7.29 2.11-10.85 1.22-4.3-1.1-7-4.4-10.3-7.2-3.7-3.1-7.9-4.8-12.4-6.6-7-2.8-16.8-4.9-22-10.8-3.1-3.4-1.6-7.9-4-11.7-2.7-4.4-6.5-7.5-8.6-12.4-2.5-5.6-1.7-10.2-.6-15.9.8-4.8 0-9.2-.4-14-.9-9.8.8-20.7-3.5-29.8-2.3-4.8-5.5-9.1-7.3-14.1-2.2-6.4-2-13.2-2.7-19.8a40.65 40.65 0 0 0-4.9-16.2c-2.8-5.1-6.7-9.4-8.3-15.2a39.85 39.85 0 0 0-5.7-12.8c-2.8-4.2-3.2-9.8.2-14 3.7-4.6 8.8-.6 12.5 2 3.1 2.2 5.9 4.2 9.7 4.5 1.08.19 1.67-1 1.48-2a53 53 0 0 1 6.72 4.22c3.4 2.5 6.8 4.9 11 5.9 5.3 1.3 9.2 1.4 13.5 5.4 3.3 3.1 6 6.8 9.4 9.8a49.35 49.35 0 0 0 12.8 7.8c8.7 4.1 17.1 9.2 22.7 17.3 2.7 3.8 3.1 8 4 12.4a26.15 26.15 0 0 0 5.7 11.4c5.8 7 14.8 10.4 20.3 17.6 3.1 4 3.7 9.2 5.6 13.7 2.1 5.1 4.2 10 5.1 15.5s.6 10.78-2 15.88zM3430.3 761.7a35.51 35.51 0 0 0-2.3-3.1c-1.4-1.8-4.6-.7-5 1.3a7.07 7.07 0 0 0-.2 2.5c.1.5.2.9.3 1.4.2 1 .4 1.9.6 2.9.5 2.2 3.9 2.2 4.5 0l.16-.58a2 2 0 0 0 1.74-1.52 2.43 2.43 0 0 0 .2-2.9zm.1 1.9a.74.74 0 0 0 0-.14c.1-.46.1-.36 0 .14zM3406.4 723.5c1.6-.5 1.5-3.3-.4-3.1-.6 0-1.1.1-1.7.1a2.15 2.15 0 0 0-1.32.58c-.13-1.15-.3-2.28-.48-3.38-.3-1.9-3.1-3-4.7-1.9-2.1 1.6-3.3 3.4-3.1 6.1a3.13 3.13 0 0 0 2.93 3 3 3 0 0 0 2.57 1.59 9.22 9.22 0 0 1 1.37-.06 11 11 0 0 1 .16 1.67v1.19c-.1 2.5 3.9 3.1 4.3.6 0-.2.05-.4.08-.6v-.09a14.64 14.64 0 0 0-.13-5.26v-.34zM3399.3 758.2a3.59 3.59 0 0 0-5 0 3.78 3.78 0 0 0-.51.72 10.17 10.17 0 0 0-1 1.18 3.31 3.31 0 0 0 0 3.8 9.55 9.55 0 0 0 4.5 3.9c1.7.7 3.7.2 4.3-1.7a7.38 7.38 0 0 0 .2-4.2 6.67 6.67 0 0 0-2.49-3.7zM3419.5 838.5a16.86 16.86 0 0 0-6.47-3.57 3.82 3.82 0 0 0-.33-.53c-1.9-2.4-5.5-1.7-5.8 1.6a1.93 1.93 0 0 0 0 .49 4.71 4.71 0 0 0-.3 3.51 2.94 2.94 0 0 0 4.9 1.3 6.5 6.5 0 0 0 1.09-1.37l.31.07a11.18 11.18 0 0 1 4 1.8c1.9 1.4 4.2-1.7 2.6-3.3zM3423.89 794.67a2.74 2.74 0 0 0-2.66-.23c-3.39-4.39-5.29-10.85-7.83-15.24-1-2.2-4.2-.4-3 1.7 3 5.35 5.11 11.45 8.73 16.5a5.79 5.79 0 0 0 .17 3.2 3.24 3.24 0 0 0 3.8 2.2c.3-.05.59-.12.86-.19l.34.29c2.92 2.23 5.72-2.13 4-4.68a3.59 3.59 0 0 0-4.41-3.55z"/><path class="cls-1" d="M3117.4 718.4c-1.4-1.2-2.7-2.8-4.8-2.4a5 5 0 0 0-1.42.5l-.28-.1c-2.3-.8-4.6 1.3-4.6 3.5 0 2.47 2.24 3.86 4.51 3.51l.29.09c.29.09.63.43.7.5a2.9 2.9 0 0 0 4.19-2.13c1.53-.17 2.77-2.22 1.39-3.44zm-6.51 5zM3058.76 622.24l-.35-.18c-1.06-.8-1.24-2.51-1.15-3.72a1.52 1.52 0 1 0-2.9-.9 8.6 8.6 0 0 0-.3 4.2v.19a2.72 2.72 0 0 0 2.45 4.71 9 9 0 0 0 1.6-.3c1.67-.63 2.47-3.08.65-4zM3139.7 689.8a2.72 2.72 0 0 0-2.1.9 3.09 3.09 0 0 0-.8 2.9c.1.5.3.9.4 1.4 0 .11.1.21.15.31.06.34.08.68.15 1a1.94 1.94 0 0 0 2 1.5c1.3.1 2.3-.5 2.4-1.4.09-.44.11-1 .24-1.41h.06a7.36 7.36 0 0 0 .4-1.4 2.92 2.92 0 0 0-.8-2.9 3.33 3.33 0 0 0-2.1-.9zM3111.3 650.2c-1.5-.1-3.1 1.7-2.5 3.2.5 1.3 1 2.7 1.4 4.1.84 2.76 4.38 2.46 5.45.6a24.67 24.67 0 0 1 1.75 5.1c.2 1.9 3.5 1.5 3.3-.4-.6-5.4-3.2-12.2-9.4-12.6zM3081 675a1.74 1.74 0 0 0 0-1.05 10.64 10.64 0 0 0-5.3-6.1c-2.3-1.1-4.9 1.2-3.5 3.5.9 1.6 1.4 3.4 2.4 5a2.82 2.82 0 0 0 3.92.78 7.49 7.49 0 0 1 .08.82c-.2 1.9 2.9 1.9 2.9-.1a8.65 8.65 0 0 0-.5-2.85zM3110.7 895.4a170.87 170.87 0 0 0-2.2-20.2c-.9-6.1-1.3-12.2-3.3-18.1-6.3-18.5-26-40.6-47.7-36.4-4.8.9-3.5 8.2 1.1 8.3 5 0 9.1-.1 13.8 1.8a39.1 39.1 0 0 1 12 8.1 51.62 51.62 0 0 1 14.4 24.7c1.2 5.1 1.6 10.4 2.4 15.5a135.68 135.68 0 0 1 1.8 19.1c.09 12.23-5.3 22.68-8.85 34-6.46 1.67-12.12 5.55-18.85 6.36-1.6.18-3.34.37-5.12.51a18.26 18.26 0 0 0-1.38-3.11 1.69 1.69 0 0 0-2.9 0 6.38 6.38 0 0 0-1.4 2.7c0 .2.2.5.4.5.58 0 .92-.06 1.19-.1v.23a28 28 0 0 1-8.43-.92c-4.5-1.4-9.2-6.6-11.4-10.8-1.5-3.1-.3-4.1.7-6.8a20.82 20.82 0 0 0 1.1-9.9c-.4-3.6-1.6-7.2-1.6-10.9 0-3.3 1.1-6.5 1.8-9.7 1.8-7.5 1.1-14.8 4.5-21.9 2.4-5 5-9.7 4.5-15.5-.42-4.49-3-12 .52-15.58a1.17 1.17 0 0 0 1.88.28c.8-.8 1.5-1.6 2.2-2.4a1.62 1.62 0 0 0-1.6-2.7c-4.2.7-6.8 3.7-8 7.8-1.4 4.9.4 9.4 0 14.3-.5 6.3-5.6 11.8-7.5 17.8a37.44 37.44 0 0 0-1.3 8.8 57.1 57.1 0 0 1-2.3 10.9c-1.7 6.4-.7 11.7.1 18.2a17.49 17.49 0 0 1-1.6 10.1 9.92 9.92 0 0 0-1.1 5.6c1 8.4 10.8 18.1 19 19.6a51.37 51.37 0 0 0 9.11.72 64.82 64.82 0 0 1-1.38 12.3c-1-3.47-7-3.08-7.13 1.18-.28 12.87-3.21 25.47-3 38.31 0 .83 0 1.66.08 2.49.3 4.4 7.1 4.5 6.9 0a51.87 51.87 0 0 1 0-4.83c.64-10.38 5.83-20.44 7.65-30.57 1-5.54 2.15-12.58 1.7-19 1.68-.11 3.35-.26 5-.45 7.7-.9 14.1-5.5 21.6-6.8a3.78 3.78 0 0 0 2.6-2.6c2-6.8 5-13.3 7.2-20.1a58.79 58.79 0 0 0 2.81-20.82zM2586.3 769.4a9.82 9.82 0 0 0-6.84-3.27 8.68 8.68 0 0 0-1.86-2.13c-1.7-1.4-4.8-.6-4.7 1.9 0 .6.1 1.2.1 1.8a2.69 2.69 0 0 0 1.4 2.38c.38 1.49 1.87 2.19 3.2 2.72 1.66.66 2.84-.74 3.07-2.21a5.45 5.45 0 0 1 2.63 1.61 2.05 2.05 0 0 0 3-2.8zM2550.7 809.1a42.63 42.63 0 0 1-2.46 4.61 2.24 2.24 0 0 0-.44 4c1.82 1.08 3.77-1 3.26-2.66a48.54 48.54 0 0 1 2-4.54c.84-1.61-1.56-3.01-2.36-1.41zM3103.9 717.6c-2.8 0-2.8 4.4 0 4.4a2.2 2.2 0 0 0 0-4.4zM2589.5 799.4c-.1 0-.1.1-.2.1a3.35 3.35 0 0 0-1.31 1.61l-.29.29a6.46 6.46 0 0 0-.8.9c-.5.6-1 1.3-1.5 2-1.2 1.6.8 4 2.6 3.4 0 0 .7-.2.4-.2h.12a3.12 3.12 0 0 0 .58 0c.5-.1 1.8-.4 1.8-.7a3.13 3.13 0 0 0 2.9-3c.1-.6.1-1.2.2-1.8.2-2.3-2.7-3.7-4.5-2.6zM3252.2 898.2c1.6-7.3 2.8-12.5.2-19.8-2.5-7-5.4-14.1-10.2-19.8s-11-10.7-16.7-15.7c-.25-.22-.5-.42-.75-.61-.11-.72-.26-1.49-.35-2.19a1.21 1.21 0 0 0-.7-.7c-9.8-3.3-18.1 0-23.2 9a62.14 62.14 0 0 0-3.4 7.4c-1.2 3-1.9 4.3-4.2 6.4-3.2 3-6.5 5.8-9.1 9.4a28 28 0 0 0-5 14.2c-.3 3.4-.1 6.8-1.3 10-1.1 3-2.9 5.7-4 8.7-2.4 6.7.5 12.5.7 19.3.1 5.4-2.1 10.6-1 16.1 1 4.8 4.3 8.5 7.7 11.9a130.36 130.36 0 0 0 17.1 14.4c12.2 8.3 26.1 4.2 38.2-2.2 8.9-4.7 11-14.3 14.5-23.1 2.5-6.4 4.2-12.9 3.3-19.9-1-7.7-3.5-14.9-1.8-22.8zm-5.5 30.7c-.8 5.4-3.3 10.5-5.3 15.6-1.3 3.3-2.3 7.5-4.7 10.3s-7.1 4.4-10.5 5.8c-6 2.4-12.8 4.6-19.2 2.4s-12.3-8-17.2-12.5c-3.4-3.1-8.1-6.6-9.5-11.1-1.2-3.9.3-8.4.8-12.3.7-5.8-2.1-11.3-1.6-17 .4-4.9 4-9 5.2-13.7 1.4-5.3.1-10.9 1.8-16.1 2.6-8.3 11.3-11.4 14.7-18.8 1.2-2.7.7-5.8 1.5-8.6a21.12 21.12 0 0 1 4.2-7.8 10.66 10.66 0 0 1 1.95-1.64 2.8 2.8 0 0 0 2.25 2.44c4.2.7 6.9.7 9.9 3.8 4.1 4.2 8.9 7.3 13.2 11.2 4.8 4.4 7.5 10.5 9.9 16.5 2.2 5.6 3.3 9.9 1.8 15.7-1.3 5.3-2.1 10.2-1.5 15.7.8 6.7 3.3 13.3 2.3 20.1z"/><path class="cls-1" d="M3204.3 881.1a8.83 8.83 0 0 0-4.1 6.1 2.87 2.87 0 0 0 2.8 3.6 3 3 0 0 0 2.53-1.48 1.66 1.66 0 0 0 2-1 7.45 7.45 0 0 0-.5-6.5 2 2 0 0 0-2.73-.72zM1093.7 831.7c-3.8-4-9-6.7-12.3-11.2-4.3-5.8-4.2-13.5-4.6-20.4-.4-6.5-.8-12.9-1.7-19.4-1.8-13-6-24.4-14.6-34.5a127 127 0 0 0-27.1-24.1c-10.1-6.4-19.8-5-27.1 4.6a3.1 3.1 0 0 0-.49 3.06 18.67 18.67 0 0 0-4.31 7.74c-1.5 5.4.3 9.6 1.5 14.9 1.6 7-3.4 11.6-6.5 17.4-5 9.4-6.8 19.7-7.4 30.3-.4 6.1-.1 12.2-2.3 17.9-2.2 5.5-5.5 10.4-7.8 15.8-4.5 10.8-6.7 23.8-7.8 35.4-.7 6.9-1.5 13-3.8 19.6-1.9 5.3-4.2 10.6-3.5 16.4.5 4.4 2.6 8.3 4.9 12 2.8 4.4 5.2 9.2 8.3 13.4 6.3 8.7 15.3 15.8 24.6 21 10.1 5.7 20.1 6.8 31.6 5.1 1.12-.17 2.24-.35 3.35-.54-.64 2.61-.22 5.53.25 8.14 1.1 6.2 2.5 12.3 3.5 18.6 1.3 8.1 4.7 15.5 6.2 23.5 1.5 8.3 2.1 16.6 3.8 24.9 6.8 32.5 4.4 66.1 10.2 98.8 1.7 9.8 4.1 19.6 5.8 29.4 1 6 1.3 12.4 6 16.9s12-2.9 7.2-7.2c-2.4-2.1-2.8-5.5-3.3-8.4-.8-4-1.7-7.9-2.6-11.9-2.3-10.2-4.6-20.5-6.4-30.8-3.3-19.3-3.9-38.9-6-58.3a197 197 0 0 0-4.5-26.6c-2.3-9.6-3.8-19.3-6.2-28.9-1.2-4.7-3.1-9.2-4.4-13.9a136.22 136.22 0 0 1-2.7-13.9q-.9-5.1-2.1-10.2c-.68-3-2.36-8.11-.42-10.9 3.37-.59 6.74-1.16 10.22-1.5 4.9-.5 9.8-.9 14.4-2.8 10.2-4.2 14.1-15.4 21.8-22.5 3.2-3 6.1-6 7.8-10 1.6-3.8 1.9-7.9 2.6-11.9 1.7-10.6 5-21 6.7-31.6 1.7-10.2 1.9-20.6-2.2-30.3a45 45 0 0 0-8.6-13.1zm.3 57.9c-1.9 8.1-2.4 16.8-4.8 24.8-1 3.4-3.1 5.8-5.6 8.2a77.23 77.23 0 0 0-10.2 11.9c-3 4.3-5.9 8.5-10.9 10.4-4.2 1.6-8.9 1.8-13.4 2.3-10.5 1-21 4.9-31.6 3.2-9.7-1.6-19-8.2-26.2-14.5s-11.5-14.1-16.5-22.1c-2.6-4.1-4.8-8.4-3.9-13.4 1-5.3 3.6-10.2 5-15.3 1.4-4.9 1.7-9.9 2.1-14.9a159.17 159.17 0 0 1 3-17.9 80.15 80.15 0 0 1 4.2-15.8c1.9-4.8 4.8-9.1 6.9-13.8 4.3-9.6 3.2-20 4.3-30.3a59.09 59.09 0 0 1 4.7-18c2.1-4.5 5.5-8.5 7.1-13.2 1.7-4.9.2-9.1-1.3-13.9-1.67-5.1-1.33-10.5 2-14.66a3.35 3.35 0 0 0 3.83-1 17.83 17.83 0 0 1 4.65-4.23 16.77 16.77 0 0 1 8.65.23 15.09 15.09 0 0 1 1.92.75 49.25 49.25 0 0 1 7.1 5.19c1.59 1.49 3.12 3.05 4.68 4.46.09.18.33-.05.22-.32a119.1 119.1 0 0 1 15.78 15.52c14.1 17.4 10.5 39 14.3 59.5a30.31 30.31 0 0 0 5.5 12.9c2.9 3.7 6.9 6.1 10.4 9.2a36.51 36.51 0 0 1 12.3 26c.37 9.66-2.03 19.26-4.23 28.76zM3195.5 969.7c2 3-.5 8-1.2 11.2-.8 3.7-1.2 7.5-2 11.3-.18.85-.39 1.7-.58 2.56-1.39-3.49-7-4.41-7.72 0-3.5 23.3-12.8 45.8-12.2 69.6.1 5.2 8.1 5.2 8.1 0 0-4.2 2.5-7.7 4-11.5 1.6-4.1 2.8-8.3 4-12.5 2.6-9.3 4.5-18.7 6.5-28.1s3.8-18.9 5.2-28.5c.8-5.5 2.4-11.5-1.4-16.2-1.3-1.46-3.8.54-2.7 2.14zM3196.5 919.1c-5 .7-8.3 4.5-8.8 9.5-.3 2.7 3.4 3.8 5.1 2.1a1.74 1.74 0 0 1 1.2-.6c2-.2 3.5-1.6 3.2-3.7a3.32 3.32 0 0 0-1.9-2.54 5.61 5.61 0 0 1 2.2-1.36c2.1-.7 1.2-3.7-1-3.4zM3214.7 929.8c.2 3.7 3.1 12.9-2.8 13a2 2 0 0 0 0 4c9.6.3 8.7-10.3 9.2-17 .3-4.1-6.6-4.1-6.4 0zM881.2 865.1c-1-5.7-3.3-11.2-4.7-16.9a86.19 86.19 0 0 0-6.2-17.9c-6.2-12.9-11.7-26-17-39.2-4.9-12.1-11.1-23.5-17.4-34.8-6.7-11.9-13.5-24-21.4-35.1-3.8-5.3-6.4-11-9.6-16.6a23.11 23.11 0 0 0-4.1-5.6c-2.6-2.4-2.8-2.2-3.7-5.7-2.2-8.2-6.7-16.8-16.4-16.3-9.5.5-17.4 8.7-19.2 17.6-1.2 6.1-.9 11.7-3.8 17.4-2.6 5.1-3.4 9.6-4.1 15.3-.8 6.6-2.1 12.6-2 19.3.1 7.1.1 14.2.1 21.3 0 13.6 1.9 28.2-.7 41.6-1.3 6.7-4.5 12.8-6.7 19.2a71.87 71.87 0 0 0-3.6 15.9c-.7 6.6-.8 13.5-.9 20.2a26 26 0 0 0 1.4 9.2c1.1 3 3 5.8 3.9 9 1.8 6.6-.6 13.9 2.1 20.2 1.8 4 5.6 7 8.6 10.1a50.2 50.2 0 0 0 4 3.61c-2.69.91-4.55 4.44-1.87 7 7.5 7.3 15.8 13.6 25.9 17a44.75 44.75 0 0 0 16.2 2.6c6.3-.1 11.9-.6 18.1.7l.88.2a2 2 0 0 0-.52 1.79h-.06c3.2 7.8 7.1 15.3 9.9 23.2 2.9 8.1 5.4 16.3 7.6 24.6 4.2 16 7.3 32.2 11.2 48.2 4.4 18.3 9.6 36.3 13.6 54.7 1.3 5.8 1.4 11.4 2.1 17.3.6 4.9 1.4 10.8 5.5 14.2a4.94 4.94 0 1 0 6-7.8c-2.9-2.1-2.7-11.2-3-14.3-.6-6.6-2.3-12.9-3.9-19.3-4.5-17.6-9.8-34.9-14.3-52.5-4-15.8-7.4-31.7-12.1-47.2-4.3-14.25-9.37-30.12-18.54-42.12A39.26 39.26 0 0 0 833 946.3a50.91 50.91 0 0 0 16.3-4.2c10-4.4 13.2-13.4 20.5-20.7 6.7-6.7 14.8-12.6 15.5-22.9.4-5.5-1.6-10.8-2.7-16.1-1.1-5.7-.3-11.6-1.4-17.3zm-6.7 40.1c-2.8 4.1-7 7.1-10.5 10.5s-5.9 7.6-8.8 11.4c-6.9 8.9-19.4 12.3-30.2 10-5.6-1.2-10.9-2.7-16.6-2.5s-11 .9-16.5-.3c-8.74-1.87-16-6.07-22.56-11.53a37.52 37.52 0 0 0 15.56 2.93c1.9-.3 1.9-3.4-.2-3.5-10.6-.2-18.9-4.6-26-12.3-3.1-3.4-6.9-6.5-7.7-11.1-1-5.5.3-11.1-1-16.6-1.2-5.3-4.8-9.6-5.1-15.2-.3-5.1.4-10.3.6-15.4.3-10.6 3.3-20 7.4-29.7 4.4-10.2 5.3-20.5 5.2-31.5-.1-12.1 0-24.1 0-36.2 0-5.9-.6-12 .5-17.8 1-5.4 1-11.3 2.6-16.5 1.3-4.5 4.4-8.1 5.3-12.8 1.1-5.7.4-11.8 3.7-16.8 2.4-3.6 7.2-7 11.7-6.6 5 .4 6.6 6.2 7.8 10.2s1.3 6.4 4.7 9.4c4.2 3.7 6.2 9.3 8.8 14.1 2.8 5 6.3 9.5 9.4 14.3 3.3 5.2 6.3 10.5 9.4 15.8 6.2 10.5 12.1 21.3 17.7 32.2 5.4 10.5 9 21.8 13.7 32.6 4.8 11.2 11.4 22.1 14.5 34 1.3 5 2.4 10 4 14.9 1.7 5.5 1.8 10.4 2 16.1.4 9.3 6.5 19.4.6 27.9z"/><path class="cls-1" d="M1023.67 866.3a10.47 10.47 0 0 0 1.63-.5 2.67 2.67 0 0 0 1.9-2.5c-.41-5.2-5.49-6.63-9.26-4.53l.06-.17c1.2-3.1-3.5-4.3-4.6-1.4-1.17 2.9-.62 5.17.83 6.75-.88 5.14 4 10.64 8.77 12a3.75 3.75 0 0 0 4.5-2.5c.3-.9.5-1.7.8-2.6.93-3.08-2.16-4.99-4.63-4.55zm-1.95 1.08a5.75 5.75 0 0 1-.81-.82 11.83 11.83 0 0 0 2.43-.2 3.16 3.16 0 0 0-1.62 1.02zM1063.6 889c-2.4 4.3-3.9 10.4-9.5 11.2a2.6 2.6 0 0 0-2.29 2.32 25.29 25.29 0 0 0-4.71 7.38c-.6 1.4-.5 3.3 1.1 4.1 3.6 1.6 7.4 1.5 9.9-1.9a8.83 8.83 0 0 0 1.39-6.49c5.07-2.38 7.27-7.75 10.21-13 2.2-4.01-3.9-7.51-6.1-3.61zM1012.7 902.5c-1.9 0-4.1.3-5.9-.3a6.09 6.09 0 0 1-1-.4 40 40 0 0 0-4-3.2 2.28 2.28 0 0 0-2.31-.36v-1.44c0-2.2-3.5-2.2-3.5 0-.1 3.4-.3 7.1 1.4 10.1 1.7 3.3 5.1 4.8 8.4 6a2.28 2.28 0 0 0 2.5-1 7.68 7.68 0 0 0 .93-2.89 27.71 27.71 0 0 0 3.47.09c4.21-.1 4.21-6.6.01-6.6zm-8.95 5a8 8 0 0 1-1.84-1.12 13.46 13.46 0 0 0 1.84 1.16zM1024.7 801.6c.6 2.4-.4 3.2-2.1 4.8s-.54 4.07 1.33 4.52v.08a5.17 5.17 0 0 1-.6 1.3 3.22 3.22 0 0 1-2.1 1.5c-2.2.6-1.7 4.2.5 4 4.05-.38 8.1-5.38 6.88-9 2.18-2.21 2.86-5.47 2.22-8.89-.73-4.01-7.13-2.31-6.13 1.69zM866.8 852.3a2.87 2.87 0 0 0-3 .58 2.21 2.21 0 0 0-2.56 3.52c.7.7 1.5 1.4 2.2 2.1 1.1 1 3.3 1.1 4-.5.2-.6.5-1.2.7-1.8a3 3 0 0 0 .3-2.1 2.62 2.62 0 0 0-1.64-1.8zM780.5 830.5c.3-3.8-1.9-6.8-5.1-8.7-1.6-.9-3.1-1.6-4.9-.6a3.35 3.35 0 0 0-1.16 1 2.14 2.14 0 0 0-1.76 1.09c-1.44-.74-3.45 1-2.38 2.4 3.4 4.4 7.8 8.7 13.8 6.7a2.14 2.14 0 0 0 1.5-1.89zm-8.5-2.86a2.47 2.47 0 0 0 1.76-1.77h.06a5.83 5.83 0 0 1 1.5 1.1 4.12 4.12 0 0 1 1.14 2 6.43 6.43 0 0 1-4.46-1.33zM861.2 856.4zM862 878.9c-.1-2.9-4.4-2.9-4.5-.1v.64a12 12 0 0 0-10.9 2.56c-1.5 1.2-1 4 .6 4.8.6.3 1.2.6 1.9.9a3.31 3.31 0 0 0 4.79-3.4 4.93 4.93 0 0 1 4.41 1.2c1.8 1.8 4.2-.2 3.9-2.3a30.24 30.24 0 0 1-.2-4.3zM807.8 766.5l-.53-.82a5.74 5.74 0 0 0-1.62-2.32v-.06c-.13-.11-.25-.22-.39-.32-2.1-1.5-4.3 1.3-3.3 3.3a24.63 24.63 0 0 0 1.7 2.7 2.71 2.71 0 0 0 .39.48v.12c0 1.4-.1 2.7-.1 4.1a1.8 1.8 0 1 0 3.6.1c.12-1.51.34-3.17.32-4.77a2.12 2.12 0 0 0-.07-2.51zM487.2 892.3c-5.2-8.9-3.1-19.4-8.4-28.5-4.8-8.3-12.1-14.8-17-23-2.3-3.7-3.2-8.1-5.9-11.6s-6.5-5.4-10.3-7.3c-7.5-3.8-13.9-10.9-22.4-12.3-7.6-1.3-16.9 3.4-21.4 9.6-2.1 2.9-1.9 6.2-2.3 9.5-.6 5.1-2.3 10-2.6 15.1-.3 4.6 1.5 8.4 2.3 12.7.9 4.7-1.2 9.6-1.9 14.3-.8 5-.8 9.9-2.2 14.8-1.4 5.2-3.1 10.1-3.7 15.5-1.1 9.3-2.5 18.5-3.7 27.8-2.1 16.7.1 37.3 18.4 44.1 2 .7 4.2.9 6.2 1.8 2.9 1.3 3.5 3.7 5.2 6 1.8 2.6 4.2 4.9 7.5 5.2 1.8.1 3.5-.4 5.4 0a9.23 9.23 0 0 1 1.11.29 14.64 14.64 0 0 0 7.18 2.41c4.1.3 8.1-.5 12.2-.6 2.76-.1 5.49-.27 8.22-.51a67.69 67.69 0 0 1 1.08 7.91 107.35 107.35 0 0 0 2.3 12.6c3.5 14.4 6.7 28.8 9 43.4 2.2 14.3 5 28.6 8.3 42.7 2.95 12.78 6 26 10 38.46a4.46 4.46 0 0 0 .88 4.14c.6.7 1.2 1.5 1.8 2.2 2.8 3.5 8.7-.3 7.4-4.3-4.8-14.7-10-29.2-13.8-44.3s-6.9-30.1-9.7-45.2c-2.8-14.9-7-29.3-10.4-44-1-4.25-1-9.5-2.19-14.11 1.26-.15 2.52-.31 3.79-.49 8.7-1.2 19.1-.6 26.9-5.3a24.57 24.57 0 0 0 10.6-14.8c4.2-15.1-2.1-30.1-5.4-44.6-2.27-10.3-7.17-20.6-12.47-29.6zm8.4 76.6c-3.9 6.9-10.6 7.5-17.8 8.2-5.3.5-10.6 1.4-16 2-.85.09-1.7.14-2.55.2-.12-.1-.22-.2-.35-.3a2 2 0 0 0-2.46.46c-3 .13-6.06.19-9.14.44-3.8.3-8.5 1.3-11.8-1s-5.3-6.9-8-10c-3-3.5-9.4 1.3-6.5 5 1.84 2.4 3.47 4.94 5.26 7.24a5.12 5.12 0 0 1-2.56-.94c-2.7-2.2-3.1-6.3-5.4-8.9-2.1-2.4-5.1-3.3-8-4.4-14.5-5.2-16.3-20.8-15-34.1.7-6.9 2.2-13.7 3-20.6.6-5.2.7-10.4 1.9-15.5 1-4.2 2.6-8.2 3.5-12.5s.8-8.4 1.5-12.6c.7-3.9 2.1-7.8 2.2-11.8.1-3.3-.9-6.3-1.7-9.4-1.3-4.7-.6-9 .4-13.6.8-3.6.6-8.2 1.7-11.6 1-3 5-5.2 7.7-6.5 7.6-3.4 13.8 2.8 19.7 6.8a106.23 106.23 0 0 0 9.4 5.1c4.2 2.3 5.8 5.1 7.7 9.3 3.1 7.1 8.2 12.8 13 18.8a75 75 0 0 1 6.9 9.8c2.4 4.3 2.9 8.6 3.3 13.4.8 9.3 6.3 15.4 9.8 23.7 1.7 4.1 3.5 8.3 5 12.5 1.8 4.8 2.3 9.9 3.6 14.8 1.6 6 3.9 11.6 4.5 17.9.6 6.1.3 12.7-2.8 18.1zM784.8 882.5c-.5.1-1.1.1-1.6.2a2.37 2.37 0 0 0-2.13 2.22 8 8 0 0 1-1.17-1.12c-1.5-1.4-3.7.7-2.3 2.1s3.8 3.6 6.1 3a2.38 2.38 0 0 0 1.63-1.62 2.35 2.35 0 0 0 1.87-2 2.47 2.47 0 0 0-2.4-2.78zM837.2 829.3a7.52 7.52 0 0 1-2.61 1.72 2.46 2.46 0 0 0-1.89-.42l-2 .3c-3.93.56-3.57 5.83 0 5.87.7 0 1.3.1 2 .1a2.61 2.61 0 0 0 2.45-1.12 11.18 11.18 0 0 0 5-3.48c1.75-2.07-.95-4.87-2.95-2.97zM788.3 774.8c.1.7.1 1.3.2 2a2.54 2.54 0 0 0 .7 1.6c-.37-.13-.73-.27-1.1-.4-2.2-.9-3.1 2.7-.9 3.6l5.1 2.1a1.94 1.94 0 0 0 2.4-1.4c.5-3.2-.7-5.9-2.3-8.6-1.1-1.7-4.3-1.2-4.1 1.1z"/><path class="cls-1" d="M445.3 905.8a3 3 0 0 0-1.4.52 2 2 0 0 0-.3.08 3.07 3.07 0 0 0-1 .6 2.13 2.13 0 0 0-2 1.7 2.3 2.3 0 0 0 1.29 2c0 .06.08.13.13.19s.18.36.27.54.3.6.4.6c-.2-.7-.2-.6.2.3.2.3.4.5.6.8a3.23 3.23 0 0 0 3.5.7 3.3 3.3 0 0 0 2-2.9 10.87 10.87 0 0 1 .1-1.8 3.34 3.34 0 0 0-3.79-3.33zm-3.69 3.35v.24a.91.91 0 0 1 0-.19zm.09-1.45c-.18.23-.36.42 0 0zM473.3 942.5a3.43 3.43 0 0 1-2.6 4.3 12.23 12.23 0 0 1-6 .3c-5.2-1.7-6.8 7.5-1 7.5a22 22 0 0 0 5.7-.5 13.86 13.86 0 0 0 5.2-3.1 9.24 9.24 0 0 0 3.4-9.9c-.8-3-5.4-1.7-4.7 1.4zM684.1 1061.8c-2.1-7.7.1-15.4-3-23.1-2.8-7-5-14.2-8.4-20.9-3.7-7.2-9.6-11.7-16.1-16.3-5.8-4.1-10.2-10.3-16.5-13.7a23.63 23.63 0 0 0-19.3-1c-6.3 2.7-8.6 8.7-8.9 15.1a4.07 4.07 0 0 0 .86 2.85c-.33.38-.66.75-1 1.15-4.1 5.6-4.5 13.1-4.4 19.8.1 9.1.6 17.7-.9 26.8-1.4 8.2-1.7 16.1-2.4 24.3-.5 5.9-3.8 11-4.3 17a39.54 39.54 0 0 0 2.2 16.3c1.7 4.8 4.3 9.5 8.4 12.6 4.7 3.6 11.6 4.5 17.3 5.3a39.29 39.29 0 0 0 13.23-.15c-1.13 11.91 4 23.74 5.17 35.57 0 1 .06 1.92.1 2.88h.1c.2 4.5 7.1 4.5 6.9 0-.25-7.23-.15-14.5 0-21.75a3.84 3.84 0 0 0 .31-1.65c-.1-3.7-.1-7.4-.1-11.2 0-4.09-5.44-4.68-7-1.79q-.22-1.83-.41-3.68c.42-.19.84-.4 1.26-.62 3-1.6 5.2-5 8.4-6s6.7 0 10-.8c10.3-2.7 20-13.8 24.6-22.9 2.4-4.9 3.8-10.1 2.4-15.5-1.72-6.71-6.72-12.01-8.52-18.61zm-.7 30.1c-3.5 7.5-12.1 18.6-21 19.9-5.6.8-9.4-.4-14.2 3.5-2.4 2-4.3 3.9-7.3 4.9a25.11 25.11 0 0 1-10.9.7c-4.5-.4-11.1-1.1-15-3.6-4.1-2.7-6.3-7.9-7.5-12.5a30.31 30.31 0 0 1-.9-12.7c.8-4.8 3.3-9.1 3.7-14 .4-3.7.1-7.5.3-11.2.3-4.6 1.1-9.1 1.7-13.6a117.73 117.73 0 0 0 .6-22.2c-.4-7.1-1.5-16.2 2.8-22.3a22 22 0 0 1 2.41-2.79 4.36 4.36 0 0 0 2.61-2.4 44.12 44.12 0 0 0 6.68-6.51 2 2 0 0 0 0-2.75 15.75 15.75 0 0 1 1.63-.15c6-.1 9.2 2.9 13.3 6.9s8.8 7 13.4 10.4a33.06 33.06 0 0 1 11.1 14c2.3 5.3 4.1 10.8 6.3 16.1 3 7.2.7 14.9 2.7 22.4 2.37 9.1 12.17 18 7.57 27.9zM432.2 877.2c-1.39-1.55-3.83-.17-3.88 1.58a3.1 3.1 0 0 0-1.52 6 8.08 8.08 0 0 0 7.6-1.7 2.53 2.53 0 0 0 0-3.6c-.7-.78-1.4-1.48-2.2-2.28zM424.6 941.8a1.47 1.47 0 0 1-1.4-.5c-2.06-2-5.87.39-4.19 3.19.12.21.25.4.38.59-1-.56-2-1.34-2.78-1.69a1.82 1.82 0 1 0-1.9 3.1c1.6.9 2.9 2.2 4.5 3a6.37 6.37 0 0 0 5.4-.1 1.85 1.85 0 0 0 1-1.44c2.83-.95 2.86-6.23-1.01-6.15zM3556 1035a4.6 4.6 0 0 0-3.3-3.3c-8.18-2.2-16.64-1.34-23 3.41a17.93 17.93 0 0 0-7.1.09 4 4 0 0 0-2.31 1.37 23.94 23.94 0 0 0-1-8.47c-.8-2.4-3.8-4-6.1-2.5-8.4 5.7-20.2-2.9-27-7.8-3-2.1-5.9 1.4-5.4 4.2 1.7 11.46 17.73 34.19 31.57 33 2.76 6.39 9.44 8 16.13 7.64 7-.4 16.7-.9 22.6-5 7.51-5.24 6.71-14.84 4.91-22.64zm-35.26 16.08c-.06-.1-.11-.21-.16-.32l.17-.18c-.01.17-.01.33-.01.5zm1.63-6.7c-.28.61-.53 1.23-.74 1.86a2.37 2.37 0 0 0-1.85-.84v-.71c0-.76.07-1.52.12-2.28a3.93 3.93 0 0 0 2.47 1.97zm-31-14c6.46 3.76 13.79 6.46 20.65 4.88.08 4.64-1.14 9.41-.87 14.07-7.41-.48-15.46-10.33-19.83-18.93zm51.08 20.9c-1 .25-2 .47-3 .67a13.92 13.92 0 0 0 .47-6.87 12.84 12.84 0 0 0-1.63-4.3 17 17 0 0 1 9.31-.7c.94 5.03.82 9.78-5.2 11.22zM3280 789.2c-.55 0-1.1-.09-1.64-.15a22.86 22.86 0 0 0-.86-3.25c-1.5-4.3-4.5-7.8-8.9-9.1-2.86-.87-5.89-.77-8.89-.82 4.55-10.32 8.8-21.67 2.39-32a4.63 4.63 0 0 0-3.8-2.2c-6.8.6-10.8 5.8-13.5 11.6-1.8 3.82-2.94 8.64-4.83 12.81a5.38 5.38 0 0 0-1.57-2.24l-.2-.58a80 80 0 0 0-4.1-10.6c-3.8-7.5-10.7-10.9-18.8-7.9a4.17 4.17 0 0 0-2.9 3.9c-.8 8.53 4.89 15.3 11.83 20.45-2.72 1.23-5.49 2.37-8.23 3.65a36.32 36.32 0 0 0-15.1 12.3c-1.7 2.4 0 6.3 2.8 7 7.1 1.5 13.8.3 20.9 0 8.1-.3 14.5 3.3 21.6 6.6s15.5 6.9 23.3 5.7c5.72-.92 8.44-4.8 9.07-9.46.51 0 1 0 1.53.06 3.5-.17 3.5-5.57-.1-5.77zm-29.8-26.6c1-2.57 2.87-8.62 5.77-11.11 2.37 8-2.64 17.12-6 24.42-1.47-.92-2.93-1.83-4.38-2.68a81.36 81.36 0 0 0 4.61-10.63zm-21.3-.4c.17.5.34 1 .51 1.56-4.43-3.26-8.14-7.2-9-11.9 5.01-.03 6.79 5.25 8.49 10.34zm39.7 33.2c-2 .9-5.5-.3-7.5-.8-8-2.1-14.9-6.7-22.6-9.6a35.11 35.11 0 0 0-14.7-2.2c-2.52.13-5 .42-7.54.6 5.4-3.31 11.82-5.29 17.48-8.33l1.38.73a10.1 10.1 0 0 0 2.58 1.9 5.15 5.15 0 0 0 2.17.52c9.7 5.17 19.52 12.15 30.19 15.22a2.21 2.21 0 0 1-1.46 1.96zM3014.3 1071.4c-5.6-3.9 2.6-6.9 4.6-10.6 2.8-5.2.4-12.3-4.6-15.2s-12.23-1.37-17.49.62a1.67 1.67 0 0 0-.81-.12 13.46 13.46 0 0 1-5.58-.57c-.21-.27-.42-.54-.62-.83-1.9-3-3-6.5-4.4-9.7-3-7-7.4-12.1-15.1-13.9-2.4-.6-5.1 1.6-4.2 4.2 2.51 7.73 8.87 17.38 16.93 22.12a18.93 18.93 0 0 0 5 6.38c4.1 3.2 7.5.5 11.8-.8 2.6-.8 5.9-1.7 8.6-1.4 2.9.3 5.2 3 3.5 5.9-1.1 1.8-3.5 2.9-4.9 4.5a9.67 9.67 0 0 0-2.6 6.1c-.2 5.4 3.6 8.4 7.7 10.9 1.9 1.1 5.9 3.4 3 5.3s-9.1.6-12.2.2c-5.3-.7-10.6-1.8-15.9-2.9-3.4-.7-7.5-1.9-11-1.5-5 .6-5.1 8.7 0 8 3.5-.5 7.3.8 10.7 1.5 5.5 1.1 11.1 2.2 16.7 2.8 7.3.8 20.7 1.1 20.5-9.4-.13-6.3-5.13-8.5-9.63-11.6zM1431.79 949.51a93.08 93.08 0 0 0 16.11 3.69 15.18 15.18 0 0 0 7.6-.8c.49-.2.94-.41 1.37-.62a14.18 14.18 0 0 0 1.63-.28 6.4 6.4 0 0 0 3.23-1.69 8.61 8.61 0 0 1 2.47 0c.91.06 1.47-1 1.42-1.91 9.72.22 21.64-5 26.48-13.39 5.1-8.8-2.9-15.2-11-16.8a29.62 29.62 0 0 0-17 1.75 43.53 43.53 0 0 0-3-10.65c-1.5-3.4-4.7-9.2-8.7-10.2s-10.1 2.2-12.8 5c-5.91 6.08-3.37 15.33-6.6 22.11-6.34-7.2-14.11-16.37-24.1-15.31-11.3 1.1-11.3 11-6.1 18.8a50.48 50.48 0 0 0 10.53 11.5 4 4 0 0 0 .47 2c2.4 4.5 5.9 8 11.3 8a28.83 28.83 0 0 0 6.69-1.2zm-8.53-8.32c3.25-1.25 6.92-.82 10.64-.89a32.61 32.61 0 0 0 12.7-2.8 87.72 87.72 0 0 0 11.16-6.44 80 80 0 0 1-1.37 13.56c-6.73 1.06-13.61-3.88-20.48-3.42-2.9.2-5.6 1.2-8.4 1.8h-.2a40.91 40.91 0 0 1-4.05-1.81zm48.14-16.09c2.9-.4 14-.5 14.4 3.9.4 3.4-6.2 6.8-8.6 8a27.38 27.38 0 0 1-13 3.11 89.36 89.36 0 0 0 .6-13 25.36 25.36 0 0 1 6.6-2.01zm-30.5-7.4c1-6.8 3.13-10.72 9.52-12.24 4.78 4 6.35 11 7 17.18-2.29 1.25-4.57 2.63-6.9 4.06a35.9 35.9 0 0 1-14.37 5.56c3.34-4.16 4-9.32 4.75-14.56zm-29.2 14.5c-3.1-3.6-12.3-14.9-2.7-15.9 8.76-1 16.28 10.26 21.47 16.31-5.39.05-10.15.75-14.28 4a38.12 38.12 0 0 1-4.49-4.41zM773.4 1034.1c-6.2 4.6-7.2 14.7-7.4 21.7v4q-2.69-3.86-5.38-7.75c-4.1-5.9-9.2-11.5-15.9-14.4a18.5 18.5 0 0 0-19.4 2.6c-4.3 3.6-2.1 10.6.2 15 .16.3.33.58.5.88a3.12 3.12 0 0 0 1.58 2.54c6.36 9.26 16.94 15.18 25.62 22 9.9 7.8 21.4 19 35.1 17.1 2.5-.1 2-4.1-.3-3.9-11.7 1.4-22.1-8.9-30.3-15.7-6.12-5.08-12.94-9.46-18.77-14.94 5.07 1.93 10.07 4.05 14.27 7.34a4.2 4.2 0 0 0 4.85.25c2 2 3.9 3.92 6 5.75a4.21 4.21 0 0 0 5.44.14 14.14 14.14 0 0 0 3.36 4.16 3.45 3.45 0 0 0 5-4.73l.09-.07a4.43 4.43 0 0 1-.44-.42l-.78-1c-1.58-2.55-2.66-7.13-3.12-12.17.11-.36.21-.72.34-1.07a33 33 0 0 1 2.66-5.42 33.55 33.55 0 0 0-.56 7.82c.8 6.5 3.3 12.6 4.3 19 .5 3.6 5.1 3.1 6.8.9 4.4-5.8 5.6-14.3 6.4-21.3.8-7.7.9-17.1-3.3-24-3.46-5.51-11.26-8.51-16.86-4.31zm8.1 5.7c6.3 2.5 5.5 14.5 5.1 19.7a69.46 69.46 0 0 1-1.51 10.74 34.26 34.26 0 0 1-1.49-10.24c.3-5.9 1.8-10.8-.9-16.3-1.4-2.8-5-2.1-6.6 0l-1.48 2c1.27-4.52 3.51-7.25 6.88-5.9zm-52.7 5.5c1.2-2.7 6.8-3.7 9.6-3.3a18.24 18.24 0 0 1 8.9 4.1c5.21 4.08 8.54 9.77 12.11 15.21a58.22 58.22 0 0 0-7-5.71c-7.2-4.9-14.2-3.8-22.5-4h-.17c-1.12-2.25-1.74-4.54-.94-6.3zM627 864.65a27.57 27.57 0 0 0 7.33-10.75c4.4-12.7-4.6-25.8-15.9-31.3-4.9-2.4-11.6-4.2-16.5-.8-4 2.8-4.94 7.88-7.66 11.71-9-.18-20.1-2.73-24.74 7.29-5.8 12.7 7.5 24.3 17.3 30 8.34 4.86 39.25 7.53 40.17-6.15zm-48.3-22.35c4.1-2.7 11.3-.4 15.9-.4 7.1 0 7.6-7.2 11-11.8 4.7-6.4 16.5 5.1 19 9.2 3.3 5.4 2.9 11.3-.8 16.4-5.28 7.19-19.92 14.46-27 6.88 2.47-2.44 5.07-4.79 7.73-7.08 3-2.5 7.5-7 11.6-7.3 5.3-.4 5.5-8.5 0-8.4s-10.7 4-14.9 7.3A124.4 124.4 0 0 0 588 859a4.56 4.56 0 0 0-1.17 2.39q-1.38-1.08-2.73-2.29c-3.6-3.3-12.2-12.3-5.4-16.8zM981 1077.9a20.29 20.29 0 0 0-7.1-4.1c-3.8-1.3-5.6-2.2-6-6.4-.4-4 0-8.4-3.1-11.4a6.17 6.17 0 0 0-5.1-2c-1.6.3-3.4 1.7-4.8 2.5-1.79.89-3.59 1.71-5.44 2.47a23.93 23.93 0 0 1-6.36-6.07c-1.7-2.4-3.1-3.1-6.1-3.6a20 20 0 0 0-13.1 2.3c-3.8 2.2-6.7 6.3-6.8 10.7-.1 5 3.6 9 6.5 12.6 4 5 6.6 9.9 2.2 15.6-3.4 4.4-7.4 7.9-9.6 13.1-3 7.3-1.7 16.7 7 19.1 14.4 3.9 24.4-10.8 37.5-12.9a1.39 1.39 0 0 0 .68-.25 27.09 27.09 0 0 0 26.72 1.45c4-1.9 8.8-5 9.3-9.9.5-4.2-2.5-7.5-5.1-10.4-3.8-4.2-7.1-9.1-11.3-12.8zm4.7 26.2a20.49 20.49 0 0 1-23-2.7c-3.34-3-8.21 1.63-5.24 4.92-5.77 1.25-10.71 4.29-16 7.18-4.9 2.7-14.1 7.1-19.1 2.3-4.6-4.4.4-12.1 3.4-15.8 3.5-4.2 7.8-7.8 8.6-13.5s-1.7-10.2-5.1-14.4c-4-5.1-9.7-12.1-.4-15.6 2.1-.8 6.4-1.6 8.5-.3a31.18 31.18 0 0 1 1.8 2.7 21.59 21.59 0 0 0 3.7 3.7c2.1 1.7 4.3 3.6 7 3.4 3.15-.24 7.09-2.64 10.22-4.5 1.26 1.93.74 5 1 7.2a12.43 12.43 0 0 0 2.7 7.4c2.4 2.8 5.7 3.3 8.9 4.7 4 1.8 6.4 5.5 9.1 8.8 2.2 2.8 4.8 5.2 7 8 2.62 3.4.32 4.7-3.08 6.5zM1274.7 1170.7c-6.16 6.87-17.29 4.51-25.39 1.32 3.88.13 8.24.07 11.8-1.7a78.83 78.83 0 0 0 7.89-2.52c4.34-1.64 2.63-8.55-1.53-7.43a22.6 22.6 0 0 0-.27-5.67c-1.5-8.3-6.4-22.4-16.3-23.2a3.63 3.63 0 0 0-3.4 2.6c-2.25 6.4-3.53 13.1-6 19.39a48.83 48.83 0 0 0-8.13-4c-4-1.3-8-.8-12 .4a3.24 3.24 0 0 0-2.2 3.8c2.9 11.3 16.1 18.6 26.2 22.4 9.6 3.6 24.5 6.7 32-2.5 1.43-2.09-1.07-4.69-2.67-2.89zm-48.45-15.6c5.74-.22 9.49 3.17 15.25 5.8 1.6.7 3.8.6 4.7-1.2 3.23-6.46 4.73-13.43 6.83-20.29 3.72 3 6.11 12 6.87 15.29.6 2.5 1.2 6.1-.8 8.2a4.56 4.56 0 0 1-.59.5 36.81 36.81 0 0 1-8.41 1.26l-1.4-.07v.1c-3.43-.07-4.34 3.73-2.77 5.88-6.93-3.07-16.13-8.16-19.68-15.47z"/><path class="cls-1" d="M646.24 1079.34a2.15 2.15 0 0 0-.74-1.24c-1.5-1.3-2.8-3.1-4.9-2.7a6.49 6.49 0 0 0-4.3 2.9 3.07 3.07 0 0 0 0 3.2c.15.27.31.53.48.78-.07.64-.14 1.28-.18 1.92a4 4 0 0 0 5 3.8c2-.7 4.1-.9 6-1.9a3.64 3.64 0 0 0-1.36-6.76zM634.58 1047.16c.21.34.42.69.62 1a2.59 2.59 0 0 0 2.82 1.26 10.14 10.14 0 0 0 1.68.54c4.1.9 5.8-5.2 1.7-6.3-1.95-.57-3.42-1.61-3.85-3.42a4.94 4.94 0 0 1 0-1.38h-.1c.2-3.8-5.8-3.8-6 0a8.17 8.17 0 0 0 .06 1.51 10.25 10.25 0 0 0 3.07 6.79zM637.7 1089.8a5.51 5.51 0 0 1-4.6-2.3c-1.4-1.8-4.5.6-3.1 2.4a10 10 0 0 0 7.7 4.1c2.7.1 2.7-4.2 0-4.2z"/></svg>