<svg id="Layer_1" data-name="Layer 1" xmlns="http://www.w3.org/2000/svg" viewBox="0 0 3800 1541.7"><defs><style>.cls-1{fill:#fab33b}</style></defs><title>Artboard 1</title><g id="goldenrods"><path class="cls-1" d="M969.8 1226.9c.1-24.7-.7-49.5-.2-74.2.4-24.2 2.7-48.4 3.4-72.6a361.57 361.57 0 0 1 2.7-37.6c1.6-11.6 3.2-23.2 4.1-34.9 2-24.4 6-48.5 10.6-72.5a422.93 422.93 0 0 0 7.1-71c.5-24.1.7-48.3-.6-72.4-.6-11.4-1.5-22.5-4.1-33.6-2.3-9.5.9-18.9-3.4-28.2-5.4-11.7-18.8-14.3-25.5-2.5-4.2 7.4-6.3 24.9 6.5 24.6 7-.2 12.3-5.5 13.5-12.1 1.3-7.5-1.5-14.8-.8-22.2h-6.9c.4 4.7-2 8.6-2.9 13.2-.9 4.4 5.9 6.3 6.8 1.9 1-5.2 3.5-9.6 3.1-15a3.45 3.45 0 0 0-6.9 0c-.5 5.7 1.2 11.4 1.3 17.1 0 2.7-.1 5.9-2 8-1.2 1.4-4.5 3.3-6.5 2.4-2.8-1.3-2-6.8-1.4-9.2.8-3.5 2.7-8.5 6.4-9.9 6.4-2.4 10.3 7.4 11.3 12s0 9 .1 13.6c.1 5.2 2.1 9.8 3 14.8 2 10.4 2.2 21.4 2.6 31.9.4 10.7.5 21.3.6 32 0 21.1.1 42.2-1.4 63.2-1.6 21.2-6.1 41.9-9.6 62.9-3.5 20.8-5.3 41.5-7.5 62.4-1.1 10.4-2.8 20.8-4 31.2-1.2 10.6-1.2 21.2-1.5 31.8-.6 24.2-2.7 48.3-2.9 72.5s.7 48.2.8 72.2c.1 2.8 4.2 2.8 4.2.2z"/><path class="cls-1" d="M991.3 734.7c-1.2 7.2-2.8 16.6-8 22-4.5 4.7-15.7 7.1-14-2.7a1.46 1.46 0 0 0-2.8-.8c-1.3 3.8-5 8.4-9.6 7-2.5-.7-3.9-3-5-5.2-2.1-4.1-3.2-8.7-4.3-13.1-2.7-10.7-.6-22.3 7.8-30.3a24.06 24.06 0 0 1 16.5-6.2c7.9.1 9.7 6.3 11.3 12.8s5.3 12.2 6.4 18.6c1.2 7.2-3.7 13.8-4.9 20.7a1.77 1.77 0 0 0 3.2 1.4c2.7-3.8 3.8-8.2 2.1-12.6a2 2 0 0 0-2.2-1.3c-5.2 1.3-2.3 5.1-4.6 8.8-3.5 5.5-11.4 8.7-17.1 11.4-4 1.9-8.2 3.2-12.6 1.7-3.7-1.3-6.1-4.3-8.8-6.9-5.2-5-13.2-4.9-15.8-12.5-1.9-5.6-1.7-11.7-3.5-17.4a36.17 36.17 0 0 1-.2-21.6 18.59 18.59 0 0 1 9.4-11.8c6-3.4 12.7-6.8 19.6-7.6 7.6-.9 16.4 1.9 22.3 6.7 5 4 7.6 10.2 10.3 15.9 1.2 2.6 5.1.3 3.8-2.2-2.8-5.8-5.5-12-10.4-16.3a37.16 37.16 0 0 0-18.9-8.3c-8-1.1-15.3 1.3-22.4 4.7-5.5 2.6-11.6 5.4-15.1 10.8s-5 13.1-5 19.5a37.8 37.8 0 0 0 2.2 11.5 75.26 75.26 0 0 1 2.2 11.5c1.1 6.8 3.5 12.8 10.1 15.8 2.1.9 4.4 1.4 6.3 2.7a33.35 33.35 0 0 1 4.7 4.5 20.74 20.74 0 0 0 9.5 5.5c8.5 2 17.2-4 24.1-8.1a27.36 27.36 0 0 0 8.3-7.2 10.55 10.55 0 0 0 2.1-4.4c.1-1.1-.7-2.8.3-3.1a25.3 25.3 0 0 1-2.2-1.3c1.5 3.7.5 6.8-1.7 9.9 1.1.5 2.2.9 3.2 1.4 1.3-6.9 5.7-13.3 5.2-20.5-.5-7-4.8-13.3-6.5-20-1.3-5-2.4-10.7-6.9-13.8s-10.5-2.4-15.4-1.1c-11 3-18.2 12.3-20.7 23.2-2.2 9.4.7 20.2 4.7 28.8 1.8 4 4.7 8.1 9.5 8.4 5.8.3 9.8-4.5 11.5-9.6-.9-.3-1.9-.5-2.8-.8-1.5 9.1 5.4 12.5 13.2 8.7 9.6-4.7 11.6-17.6 12.6-27.1 0-.5-1-.7-1-.1z"/><path class="cls-1" d="M987.7 749.5c-3.3 18.5-20.5 26.3-37.9 25.2-2.6-.2-2.6 4.3 0 4.1 18.6-1.4 37.1-8 40.1-28.8.1-1.3-2-1.9-2.2-.5z"/><path class="cls-1" d="M983.1 767.8c.2-3.8.8-7.6.1-11.4a1.08 1.08 0 0 0-1.8-.5c-2.6 2.3-3.6 5.2-4.7 8.3a28 28 0 0 1-8.7 12.2c-3 2.5-6.1 6.4-9.5 8.2-5.3 2.8-12-2.6-16.4-5.3-8.5-5.1-21-7.9-24.2-18.4-1.1-3.5-1.8-7-3.5-10.2-2-3.6-5.4-6.2-7.3-9.8-4.4-8.8-1.9-21.3.4-30.3 2.2-8.8 5.9-15.9 13.6-21.1 3.4-2.3 6.6-5.5 10.3-7.4 4.8-2.4 10.9-.6 15.8.7 10.5 2.7 19.7 7.3 27.4 15.1a63.62 63.62 0 0 1 10.9 14.8c2.8 5.3 3.4 10.6 3.2 16.5a69.78 69.78 0 0 1-2 15.8c-1 3.9-1.8 8.1.4 11.8a3.71 3.71 0 0 0 4.2 1.7c10.8-3.4 14-19.3 15.7-28.9.7-4 .4-7.8.5-11.8.2-4.8 2.6-8.7 3.4-13.3 1.4-7.8-2-15.6-5.1-22.6-3.3-7.3-6-15.3-10.9-21.7a45.62 45.62 0 0 0-17.9-14.4c-7.2-3.1-15.1-4.5-22.9-5.1a109.86 109.86 0 0 0-11.5-.2 53.31 53.31 0 0 0-11.9 2.3c-4.4 1.2-8.3-1.4-12.6-2.1a28.58 28.58 0 0 0-10.1.2c-6.6 1.5-11.3 6.1-15.2 11.3-10.1 13.5-21.3 29.3-23.3 46.5a31.09 31.09 0 0 0 .5 10.1c1 4.4 3.6 8.2 4.5 12.6 1.9 8.7-1.9 17.5.2 26.3a63.18 63.18 0 0 0 24.1 36.6c12.8 9.3 30.3 16.8 46.4 14 8.6-1.5 14.9-6.9 20.3-13.5a75 75 0 0 1 8.5-9.3c3.2-2.8 6.1-5.5 7.4-9.7 1.7-5.6-7.1-8-8.7-2.4-.8 2.7-3.4 4.4-5.4 6.2a65.08 65.08 0 0 0-6.9 7.9c-4.2 5.4-8.6 10.8-15.6 12.5-11.9 3-25.6-2.7-35.7-8.7a55 55 0 0 1-24.4-28.9c-2.9-7.5-2.8-14.1-2.1-22a38.56 38.56 0 0 0-.1-9.6c-.7-4.1-2.8-7.6-4.1-11.5-4.7-14.3 5.3-29.6 12.8-41 3.6-5.5 7.1-12 12.1-16.4s11.1-4.5 17.1-2.6c3.2 1 6.3 2 9.6 1.5s6.3-2.2 9.7-2.5a82.91 82.91 0 0 1 20.5.8c14.2 2.2 26.7 9.4 32.7 23 3.2 7.2 7.2 14.5 9.4 22.1 1.2 4.3 1.5 8-.1 12.2-1.2 3.5-2.3 6.6-2.5 10.3s.3 7.6-.4 11.4a73.31 73.31 0 0 1-1.9 8.1c-1.2 4.4-3.3 13.2-8.4 14.8 1.4.6 2.8 1.1 4.2 1.7-1.9-3.3 1.6-10.2 2.1-13.8a68.55 68.55 0 0 0 0-18.1c-1.4-11.3-9.2-21.6-17.2-29.3-8.3-8-18.3-12.8-29.3-15.7-5-1.3-10.8-2.7-16-1.8-5.5 1-9.2 4.9-13.6 7.9-8.4 5.9-14.3 12-17.5 22-3.3 10.3-5 21.5-3.3 32.3a24.77 24.77 0 0 0 5.7 12.5c3.7 4.4 5.1 8.3 6.8 13.7 1.3 4.3 3.3 8.1 6.9 11 5.2 4.1 11.8 6.4 17.6 9.6 10 5.5 20.3 12.8 29.9 2.9 4-4.1 8.7-7.9 11.7-12.8s2.7-11.3 6-16.1h-1.9c1.5 3.4 1.2 7 1.3 10.5 0 .7.6.7.7.3zm78.9 645.1c.7-24.2-2.7-48.3-2.3-72.5.2-12.2.7-24.4-.1-36.6a205.71 205.71 0 0 1 .1-35.1c2.5-23.6 9-46.4 15.3-69.3s12.7-45.8 18.3-68.9c2.9-11.9 6.1-23.8 8.7-35.8 2.4-11.1 3.7-22.4.6-33.5a3.7 3.7 0 0 0-5.3-2.2c-4.9 2.4-9 7.4-14.3 8.8-4.4 1.2-9.9.5-14.1-.9-5-1.6-8.6-6.4-11.6-10.5a67.87 67.87 0 0 1-8.1-14.7c-7.3-18.4-10.5-44.1 6-58.8 9.2-8.1 22.3-10.4 34.2-10.6 6.3-.1 12.5.4 18.8.4a41.93 41.93 0 0 1 19.4 3.9c9.9 4.7 18.8 9.4 23.2 20.1a51.09 51.09 0 0 1 2.2 29.2c-2.6 11.6-8.9 24.5-21 27.9-6.9 1.9-14.3 2.3-21.5 3.2-7.9 1-15.9 2.2-23.7 3.7-5.2 1-3 9 2.2 8 8.7-1.7 17.5-2.9 26.3-4.1 7.2-1 14.7-1.4 21.6-3.9 12.4-4.6 17.8-15.7 22.1-27.4 4-10.9 3.9-24 .7-35-3.5-11.7-10.8-19.6-21.5-25.2-6.3-3.2-12.9-7-20-8-7.5-1.1-15.5-.4-23-.6-14.1-.4-28.7 1.3-40.8 9.3-21.7 14.4-21.4 43.4-14.1 65.6a79 79 0 0 0 9.9 20.2c3.7 5.2 8 11.1 14 13.6a35.47 35.47 0 0 0 18.2 2.2c7.5-1.1 12.1-7 18.6-10.2-1.8-.7-3.6-1.4-5.3-2.2 3.1 10.7 1.5 21.6-1 32.2s-5.2 20.9-7.6 31.4c-5.5 23.1-11.8 46.1-18.1 69-5.9 21.6-11.3 43.3-13.9 65.6-2.8 23.5.6 46.6.4 70.1-.2 27.3 3.1 54.2 4 81.5a1.25 1.25 0 0 0 2.5.1z"/><path class="cls-1" d="M1065.9 1009.5c-2.3 1.6-4.9 2.9-6.1 5.5a21.37 21.37 0 0 0-1.4 11.7c1.8 10.2 12.7 12.3 17.2 20.5 1.2-1.5 2.4-3.1 3.6-4.6-2.5-.9-5.5-1.2-7.8-2.5s-3.5-4-4.4-6.5a44.79 44.79 0 0 1-2.9-12c-.7-9.1 1.7-19.5 8-26.3 3.1-3.3-1.9-8.4-5-5-8.1 8.8-11.3 22-9.7 33.7a46.85 46.85 0 0 0 5 15.9c3.4 6.2 8.8 6.9 15.1 8.7 2.6.7 5-2.3 3.6-4.6-3.6-5.9-10.4-8-15-12.9a14.6 14.6 0 0 1-3.2-13.3c.7-3 2.6-4 4.9-5.9 1.4-1.1-.4-3.4-1.9-2.4zm30.8-21.5c7.6-.5 16.4 4.8 22.5 8.8 8.6 5.6 10.9 13.2 10.5 23-.2 3.9 6.3 3.8 6 0-.9-11-3-19.8-12.9-25.9-7.2-4.4-17.7-9.6-26.4-8.2-1.3.2-1 2.4.3 2.3zm.3 24.8a17.54 17.54 0 0 0-7.9.2c-2.2.6-5.4 2.1-6.5 4.3-1 2 1.1 4.9 2.6 6.1 2.3 1.8 5.3-.3 6.5-2.5 1.4-2.5-2.2-5.7-4.2-3.2a17.85 17.85 0 0 0-3 6.2c-.9 3.2 3.8 5.2 5.4 2.3.5-1 .3-1.2 1.3-1.5 1.9-.6 1.7-3.7-.5-3.7a8.74 8.74 0 0 0-4.8 1.1c1.4 1.1 2.9 2.2 4.3 3.3a12.46 12.46 0 0 1 1.5-4.6c-1.5-.9-3-1.8-4.6-2.7-.2.5-.3.8-.9 1a12.26 12.26 0 0 0 1.9.2 5.49 5.49 0 0 1-1.8-2.2v2.3a8.59 8.59 0 0 1 4.2-4 12.61 12.61 0 0 1 6.1-.5c1.4.2 1.7-2 .4-2.1zm161 418.1c-3.7-31.6-1.3-63.6 2.8-95 4-31 8.1-62.1 14.9-92.6a387 387 0 0 0 7.7-46.6c1.4-15.4 2.2-30.9 5.8-46 1.5-6.4 3.3-12.8 4.2-19.3 1-8.1.5-16.2.3-24.3-.3-14.8 1.4-29.7-.3-44.4-.5-4.3-1.5-8.4-2.1-12.7s-.6-8.5-1.1-12.7c-.9-7.7-2.5-14.8-2.5-22.6 0-8.2.7-16.5.1-24.7-.6-7.8-2.7-15.3-3.2-23.1-.4-6.2-9.9-6.2-9.7 0a13.41 13.41 0 0 0 .1 2c.2 6.1 9.3 6.1 9.5 0a13.41 13.41 0 0 1 .1-2h-9.7c-.1 6.5 1.6 12.8 2.6 19.2 1.2 7.7.4 15.6.3 23.3a115.33 115.33 0 0 0 .7 18.6c.5 3.7 1.6 7.4 2 11.1.5 4.2.6 8.5 1.2 12.7 1 7.4 2.4 14.4 2.6 21.8s-.2 14.9-.3 22.3.2 14.9.3 22.4a95.93 95.93 0 0 1-3 24.4c-7.3 29.8-6.4 60.6-12.5 90.7-3.2 15.5-6.5 30.8-8.5 46.5-1.9 15.4-4.2 30.8-6 46.3-4.1 35.1-6.5 70.2-.8 105.3.5 2.5 4.8 1.9 4.5-.6z"/><path class="cls-1" d="M1281.4 959.8c-.1-.9-.1-1.8-.2-2.6a2.11 2.11 0 0 0-2.1-2.1c-2.9.2-3.3 1.7-5.5 3.2-1.5 1-.5 1-1.7-.7-.9-1.1-1.4-2.2-2.6-3-2.7-1.8-5.9-1.6-8.9-.6a53 53 0 0 1-12.5 3 68.93 68.93 0 0 0-12 2.4c-4.2 1.4-8.6 3.4-13.1 3.1-5-.4-7.9-4.1-11.1-7.5a102.33 102.33 0 0 0-9.7-8.9c-6.5-5.5-13.5-11-18-18.4a39 39 0 0 1-4.6-10.2c-1-4.2-.4-8.5-.7-12.8a40.63 40.63 0 0 0-2-9.8c-1.1-3.5-3.9-8.3-3.3-12.1.4-2.4 2.5-4.6 3.7-6.6a66.45 66.45 0 0 0 5.1-11.2c1.7-4.3 3.7-7.9 8-10 3.4-1.7 7-2.7 10-5.2 3.5-2.9 3.4-7 5.6-10.7s8.1-5.9 11.8-7.8a39.39 39.39 0 0 0 10.2-7c2.8-2.8 4.6-6.4 7.6-9 3.8-3.2 9.3-4.9 13.9-6.5a73 73 0 0 1 15.4-3.4c10-1 19.5.6 29 3.6 8 2.5 12.6 7.3 18.7 13 3.1 2.9 6.3 5.8 9.2 9 3.6 3.9 6.1 8.8 8.9 13.3 4.5 7.2 8.1 15.3 13.4 21.9 2.2 2.7 4.6 5.1 5.4 8.7.9 4.3.2 9.1.2 13.5a67.65 67.65 0 0 1-1.2 14.9c-1.2 5.3-3.7 10.2-6.1 15-4.4 8.7-9.7 18.1-17.3 24.5-3.9 3.3-8.4 5.5-12.5 8.5-3.3 2.4-6 6.2-10 7-6.3 1.3-3.5 10.5 2.6 9.5 4.2-.6 6.7-2.6 9.8-5.3 3.9-3.3 8.6-5.6 12.7-8.6 8.2-5.7 14.2-13.8 19.3-22.3s10.2-18.2 12-28a101.35 101.35 0 0 0 .8-29.1c-1-8.2-7.1-12.6-11-19.4-5.4-9.2-10.4-19-17-27.4a93.78 93.78 0 0 0-10.4-10.5c-3.9-3.6-7.7-7.5-11.9-10.7-6.4-5-15.2-7.1-23.1-8.5a78.89 78.89 0 0 0-32.1 1c-9.3 2.2-20.6 5.6-26.9 13.2-3 3.6-5.5 7.2-9.5 9.8-4.6 2.9-9.8 4.8-14.1 8a18.33 18.33 0 0 0-4.7 4.5c-1.3 2-1.5 4.5-2.4 6.7-2.3 5.1-8.5 5.4-12.8 8.3-7.9 5.2-8.7 14.7-13.3 22.3-1.6 2.7-3.8 5.2-4.7 8.3-1.1 3.9-.1 7.9 1.1 11.6 1.4 4.2 3.1 8.2 3.6 12.6.5 4.6-.1 9.2.7 13.9 1.5 8.2 6.3 16 11.9 22.1 7.3 8 16.5 14.2 23.9 22.1 3.5 3.7 7.2 7 12.3 8.1 5.4 1.2 10.6-.1 15.7-1.9a78.18 78.18 0 0 1 15.9-3.7 35.39 35.39 0 0 0 7.9-1.4c2.1-.8 5.1-3.4 7.3-2.2 1.1.6 1.7 2.5 2.8 3.3a5.69 5.69 0 0 0 4 1.1c4.1-.5 4-4.9 7.1-6.3-1-.3-1.9-.5-2.9-.8.4.8.7 1.6 1.1 2.4.9 1.2 3.5.4 3.3-1.2z"/><path class="cls-1" d="M1207.1 892.8c-5.9 4.3-10.1 9.6-7.3 17.1s10.2 12.8 16.6 17.1c12.1 8.3 25.7 22.5 41.4 22.3v-8.8c-14.4.8-28.8-9.7-37.9-20.1-4.7-5.4-10.2-11.8-12.8-18.6-3.1-7.9-.8-17.8-.7-26.1 0-6-9.2-6-9.3 0-.2 9.6-2.3 20.1 1.3 29.2 3.2 8 9.3 15.5 15 21.9 10.6 11.9 27.8 23.8 44.4 22.3 5.5-.5 5.7-9.1 0-8.8-11.9.8-23.4-9.6-32.7-15.7-9.9-6.4-30.9-17-16.5-30.1 1-.7-.3-2.6-1.5-1.7zm37-54.4c-7.2-1.9-10.8 4.3-13 10.2-3.6 10-6.6 20-4.7 30.7 1.1 6.2 3.6 12.7 6 18.5 2 4.8 5.6 8.7 9.4 12.2a43 43 0 0 0 12.8 8.4c5.4 2.3 11 4 15 8.6l5.1-6.6c-17.6-10.7-40.8-27.1-35-51.1.2-.8.7-3.7 1.7-4 1.4-.5 4.7 3 5.3 3.7 2.4 2.9 3.4 7.1 4.7 10.5 2.8 7 6.6 15.6 15.3 15.8 2.7 0 5.6-3 4.5-5.9-4.7-11.3-13.4-23.2-24-29.5-2.1-1.2-8.8-3.9-6.4-7.1 2-2.7 7.6-2.8 10.5-2.9a50.14 50.14 0 0 1 26.6 5.8c6.3 3.4 12.4 8.2 19.5 9.7 5.8 1.2 8.7.6 11.7 6.5 7.9 15.8-7.9 26.7-21.7 29.2-5.2.9-4.1 10 1.3 9.3 15-1.9 31-11.8 32.2-28.3.6-7.6-2.6-16.4-8.2-21.6-4.9-4.6-11.7-3.1-17.4-6-7.9-4-15.2-9.4-23.8-12a63.1 63.1 0 0 0-15-2.1c-9.4-.4-25.2 1.2-25.5 13.8-.2 7.7 8 11.5 13.6 14.9 3.5 2.1 5.8 5.3 8.4 8.4 3.6 4.3 7.3 9.1 9.4 14.3 1.5-2 3-3.9 4.5-5.9-3.6 0-5.8-7.3-6.8-10-1.6-4.2-3-8.7-5.8-12.3-3.2-4.2-8.8-8.5-14.4-7.4-5.1 1-7.7 5.9-8.9 10.6-6.8 28.1 17.7 48.6 39.5 60.7 4.3 2.4 8.3-3.1 5.1-6.6-6-6.7-14.6-7.7-22.1-11.9a46.68 46.68 0 0 1-10.1-8.1c-3.8-3.9-5.1-8.2-7.1-13.1-2.2-5.4-4.5-10.4-4.9-16.2-.4-5.3.7-10.2 2-15.2s2.4-16.6 9.9-15.4a1.36 1.36 0 1 0 .8-2.6zm47.7 99.1a13.76 13.76 0 0 1-4.5-.8c-2.1-.7-3.2 2-2 3.4 3.3 3.8 9.9 5.6 14.9 5.1 5.4-.5 8.8-4 12.8-7.2 5.2-4.1 11.9-5.1 17.4-8.7s8.2-9.5 12.6-14.4c4-4.4-2.9-10.8-6.3-6.3-3.2 4.1-5.3 9.3-9.1 12.8-4 3.8-9.7 4.9-14.4 7.7-3.7 2.2-6.2 5.8-9.8 8.2-5.6 3.8-10.4.6-16.1-.6v3.9a34.19 34.19 0 0 1 4.5-.4 1.35 1.35 0 0 0 0-2.7zm62.4 277.2a19.32 19.32 0 0 1-3.6 7.5c.6.5 1.3 1 1.9 1.5 6-7.8 7.6-17.8 10.5-26.9 3.1-9.8 6.2-19.5 8.7-29.5a339.53 339.53 0 0 0 8.7-57.6 56.21 56.21 0 0 0-.1-12.3c-.7-4.5-2.9-8.6-3.2-13.1-.6-9.4 1.8-18.7.1-28.2-1.5-8.8-5-16.7-5.5-25.7-.5-9.7-3.4-18.8-5.8-28.2s-3-18.3-9.1-26.4c-6.7-8.9-11.5-17.9-8.9-29.4l-4.8 3.6c1.3.1 2.8 1.7 4.1 2a9.06 9.06 0 0 0 5.4-.2c3.8-1.3 6-4.9 8.5-7.8-1.6.4-3.2.8-4.8 1.3 2.7.8 5.3 2.7 8.1 3 2.6.3 6.2-1.2 8.2 1.1 2.7 2.9-.1 9.8-.9 13a62.4 62.4 0 0 1-7.5 16.4c-3.3 5.1-7.1 9.7-8.2 15.8s8.4 8.9 9.5 2.6c1.3-7.4 7.7-13.4 11-20a67.65 67.65 0 0 0 6.4-19.5c1-5.9.4-11.9-4.2-16.1-2.7-2.5-5.6-3-9.2-3.2a17.28 17.28 0 0 1-5.2-.6c-1.8-.6-3.5-1.4-5.3-2a4.76 4.76 0 0 0-4.8 1.3c-.9 1.1-3.1 5.2-4.5 5.3-.7 0-2.4-1.4-3-1.6a21.69 21.69 0 0 0-3.5-.7c-2-.2-4.3 1.7-4.8 3.6a40.85 40.85 0 0 0 2.6 26c3.5 7.7 10.5 13.1 12.5 21.5 2.2 9.1 4.4 18.3 6.5 27.4 2 8.2 1.4 16.7 3.7 24.8 1.3 4.5 2.9 8.9 3.8 13.4 1.1 5.2.7 10.3.4 15.6a67.67 67.67 0 0 0 0 13.5c.5 4.3 2.4 8 3.4 12.2s.5 8.7.3 13c-.2 4.9-.2 9.7-.6 14.6a281.48 281.48 0 0 1-4.3 30.4c-2.2 11-4.8 21.8-7.7 32.5-3.1 11.3-5.3 22.8-8.8 33.9-.5 1.6 1.8 2.1 2.4.7a36.58 36.58 0 0 0 2.7-8.3.56.56 0 1 0-1.1-.2z"/><path class="cls-1" d="M1367.6 1060.2c5-3.8 7.9-9.4 12.5-13.6-1.4-.8-2.8-1.6-4.1-2.4-1.7 5.2-2.3 10.6-5.5 15.2 2.1.6 4.2 1.1 6.3 1.7a5.58 5.58 0 0 1 .6-3.1 3.54 3.54 0 0 0-5.5-4.3c-4 3.3-2.9 9.6-3 14.1-.1 5 8 5 7.8 0-.1-2.2-1.6-7.5.2-9.2-2-1.1-3.9-2.3-5.9-3.4a12.71 12.71 0 0 0-1 5.8 3.4 3.4 0 0 0 6.3 1.7c3.1-4.9 3.5-11.7 4.4-17.3a2.47 2.47 0 0 0-4.5-1.9c-3.5 4.7-6.1 10.2-10.5 14.1-1.4 1.3.4 3.7 1.9 2.6zm-54.1-4.4c-1.4 23.5-.8 47.2-.9 70.7h6.4c0-9.6-.2-19.2.4-28.8.5-8.2 2.6-16.1 3.5-24.3.5-5.2.5-11.6-3.1-15.9-2.4-2.8-6.1-2.6-8.5-5-2.1-2.1-3.1-5.9-4.4-8.6s-3.3-5.7-3.3-8.7c0-3.9 3.5-7.2 6.3-9.6 3.1-2.7 11.4-8.3 14.2-2.3 2.8 6.2-5.6 20.8-13 19.6-5.2-.9-7.4 7-2.2 8 19 3.3 35-34.8 12.8-37.8-11.2-1.5-26.4 11.9-25.4 23.3.5 6.1 4.7 13 7.7 18.2a13.37 13.37 0 0 0 5.4 5.4c1.2.6 2.9.8 4 1.5 2.1 1.3 2.5 3.8 2.7 6 .8 8.5-2.3 17.2-3 25.6-.9 11.2-.4 22.4-.4 33.6 0 4.1 6.4 4.1 6.4 0-.1-23.5.5-47.2-.9-70.7-.4-3.1-4.5-3.1-4.7-.2z"/><path class="cls-1" d="M1316.8 1036.8c-2.1-2.4-2.3-4.8-2.1-7.7a2.46 2.46 0 0 0-1.8-2.4c-4.6-.7-11.5 2.8-11.4 8.3.1 3.7 4 7 7.5 6.8 6.7-.4 13.4-10.7 9.6-16.7-4.9-7.9-14-1.1-15.3 5.5-1.2 6.3 1.9 16.1 10.1 13.5 6.6-2.1 16.4-14.4 10.6-21.2-4.6-5.5-13.9-2-17.7 2.6-5.1 6-3.4 19.1 6 19.6 7.3.4 14.9-7.7 14.2-14.8-.5-4.9-5.9-9.8-10.7-6.8-5.3 3.3-9.5 10.9-7.5 17.2 1.8 5.7 8.7 8.9 13.9 5.6 4.7-3 7.5-9.9 6.8-15.3-.2-1.9-1.2-3.8-3.2-4.3-9.2-2.1-15.9 8-13.7 16.4a9.7 9.7 0 0 0 9.1 7.4c4.6.1 8-3.6 10.4-7.1 2.7-3.9 5.2-9.4 4.1-14.2a9.12 9.12 0 0 0-9.9-6.8c-8.7.8-18.3 12.8-12.5 21.1 6.6 9.5 18.7-1.2 16-10.3-3.3-11.2-19-13.6-27.3-7-8.6 6.9-8.9 21.9 1.3 27.5 9.4 5.2 23-.5 25.7-10.9 3.6-13.5-11.7-21.1-22-13.4-9.3 7-10.4 21.9 3.3 24 2.2.3 4-.2 5.2-2.1.4-.7.9-1.3 1.3-2 3.3-4.9-4.7-9.6-7.9-4.6-.4.7-.9 1.3-1.3 2 1.7-.7 3.5-1.4 5.2-2.1-2.4-.4-4-.4-3.8-2.9.2-2.2 2.6-4.5 4.4-5.5 5.6-3.2 9.2 2.8 5.1 7.2-3.2 3.4-10.5 4.9-13-.1-2.7-5.4 1.8-11.6 7.4-11.7 2.5 0 7.6 1.6 7.9 4.6 0 .3-.8 3.1-.1 2.1.3-.4.4-1.7.7-2.3a9.79 9.79 0 0 1 2.6-3.1c.5-.4 2.9-1.8 3.1-1.6 1.2 1-2.2 6.5-2.8 7.3-.9 1.3-2.5 3.5-3.1 3.1-1.4-1.1 0-6.8 2.3-6.3l-3.1-3.1c.2 1.4-1.3 6.9-2.8 6.9-3.8 0 2.4-8 3.5-8.7-1.1.1-2.2.3-3.3.4.6.2.7.3.2 1.4a8.62 8.62 0 0 1-2.6 3.4c-2.3 1.8-3.8 1.5-3.8-2a5.62 5.62 0 0 1 4.6-5.2 3.86 3.86 0 0 1 2.1-.1c-1-.5.1-1.2-.4-.2-.3.7-.5 1.3-.8 2-1.2 2.5-3.1 4.3-5 6.2-.3.3-.9.8-1.3.7.4.1.7.3.3-.2-1.3-1.4-.9-6 .4-7.3 2.1-2.2.7 1.8.1 2.9-.5.8-1.8 3-3 3-.3 0-.8-.6-.9-1a2 2 0 0 0 1.8-1.6 7 7 0 0 1 3.4-1.2c-1-.6-2-1.1-3-1.7.8 3.5 2.1 6.7 4.8 9.1a1.57 1.57 0 0 0 2.1-2.3zm-188.6 307.1c-.7-8.9 3.4-17.5 4.9-26.2 1.8-10.2 2.6-20.5 3.9-30.7 2.7-21 7.2-41.9 8.3-63.1.6-10.8 1.3-21 3.6-31.6a151.26 151.26 0 0 0 3.4-25.2c.2-5.8-3.4-9.6-9.4-8.6-5.6.9-9.7 6.4-11.7 11.4-2.2 5.5-.3 12.8 6.8 12.9 6.9.1 11.3-8.1 13-13.7a4.34 4.34 0 0 0-1.1-4.2c-7.6-7.6-17.1 4.1-14.2 12.1a4.5 4.5 0 0 0 4.3 3.2c7.3-.1 11-7.2 8.7-13.8a4.55 4.55 0 0 0-7.5-2 14.55 14.55 0 0 0-5.2 11.2c0 2.7 2.1 4.2 4.6 4.6 8.3 1.1 14.2-6.7 12.6-14.5a4.65 4.65 0 0 0-5.7-3.2c-4 1.2-7 4.4-7.1 8.7-.1 3.9 2.7 9.1 7 9.3 6 .3 10.6-5.7 12.6-10.6 2.1-5.1 3-11.9.1-16.9-3.6-6.3-10.7-5.7-16.5-3.2 2.1.6 4.2 1.1 6.3 1.7-2.5-3.8-.7-8.9-4.4-12.4a9.34 9.34 0 0 0-6.8-2.4c-3.6.3-5.5 4-7.1 6.9-2 3.6-3.6 7.3-5.9 10.7a41.48 41.48 0 0 0-3.8 6.4c-2.4 5.3-2.4 11.1 3.2 14.3a4.67 4.67 0 0 0 5.6-.7c1.3-1.4 5.6 0 7.3-.1a16.67 16.67 0 0 0 6.9-2c3.9-2.3 6.1-6.4 9.7-8.9-1.2.2-2.4.3-3.6.5a9.19 9.19 0 0 0 10.1-1.7c3.6-3.4 1.9-8.8.8-13-1.1-4-2.7-7.7-6.5-9.8-3.4-1.8-7.1-1.1-10.7-1-6 .2-6.1 9.4 0 9.4 1.9 0 5.2-.8 6.8.4 2 1.5 2.4 7.6 2.6 9.7.5-1.1.9-2.2 1.4-3.3-1.2 1.4-2.6-.2-4.4.3a8.94 8.94 0 0 0-3.1 1.9c-2.3 1.9-3.9 4.5-6.2 6.4-5.4 4.3-12.3-1-17.6 4.6 1.9-.2 3.7-.5 5.6-.7-1.2-.7 3.1-6.6 4-8 3.1-4.5 4.8-10 8.2-14.3-1.1.5-2.2.9-3.3 1.4 1.1 0 .9 2.2 1.2 4.1a14.8 14.8 0 0 0 2.1 6.1c1.5 2.3 3.9 2.7 6.3 1.7 4-1.8 4.7.4 4.3 4.3-.3 2.5-1.9 8.7-5.2 9.1 1.1.5 2.2.9 3.3 1.4-.3-.3-1.5-1-.7-1.3-1.9-1.1-3.8-2.1-5.7-3.2.5 2.5-1.9 3.2-3.8 2.9l4.6 4.6c0-2.2.8-3.3 2.4-4.8-2.5-.7-5-1.3-7.5-2 .2.6 1 2.5-.1 2.5 1.4 1.1 2.8 2.2 4.3 3.2-.4-1.2 0-.9 0-2 .1-.3.2-.5.3-.8.7-.8.5-1.1-.7-.8-.4-1.4-.7-2.8-1.1-4.2-.6 2.3-2 6-4.2 7.3-.3.2-.2.4.1.5a4.14 4.14 0 0 1 .3-1.6 16.84 16.84 0 0 1 2.1-3.7 30.69 30.69 0 0 1 2.5-2.6 2.09 2.09 0 0 1 1.7-.4q-1.2-1.8-.9-.3c0 2.8-.4 5.7-.6 8.5-.6 9.7-3.4 18.9-4.5 28.5-1.1 9.4-.7 18.9-1.4 28.3-1.4 19.9-5.2 39.5-6.7 59.4-.8 10-1 20.1-2.8 30-1.4 7.6-4.1 15.2-3 23.1.2 1.8 3 1.9 2.9 0z"/><path class="cls-1" d="M1137.9 1172.3c-.7-4.2-4-8.1-1.5-12.2 1.7-2.8 2.5-4.8 1.5-8.1a3 3 0 0 0-5.5-.7c-2.2 3.6-1.1 8.2 3.2 9.4 4.5 1.2 8.5-2.1 9.6-6.3 3-11.8-12.5-10.6-18.2-5.3-3.7 3.5 2.1 9.3 5.6 5.6 1-1.1 4.3-3.3 5.9-2.5.1.1 0-.9 0 .3a3 3 0 0 1-.7 1.5c-.1.3-.6.1-.7.2.2-.3.1 1.2.8-.6-1.8.2-3.7.5-5.5.7 1.1 2-1.9 6.2-1.8 8.7.1 3.7 2.4 6.8 3.1 10.4.4 2.9 4.7 1.7 4.2-1.1zm-240.3 0c-3.5-11.3-.1-23.2 1.4-34.6 1.8-13.6 2.3-27.4 2.6-41.1.3-13.3.4-26.7.9-40 .5-13.9 1-27.8 0-41.7-2.5.3-5.1.7-7.6 1 5.2 26.5-.1 53.5-2.3 80-1.1 13.5-1.7 27-2.9 40.4-1 11.5-3.5 23.5-.4 34.9.8 2.9 5 4.4 7.1 1.9 8.4-9.9 7.9-24.7 6.7-36.9-.7-7-1.9-14-2.4-21.1-.8-10.3-.8-20.6-.6-30.9.2-12.9 1-25.8 1.2-38.7.2-10.2-.1-23-7.6-30.9-4.1-4.3-10.6-7.2-15.2-2.1s-2.7 13.2 3 16.4a4.84 4.84 0 0 0 5.7-.7c5.3-4.7 3-9.9-1.8-13.9-2.4-2-5.6-1.8-7.3.9.8-1.3-1.6 1.2-1.9 1.7a5.32 5.32 0 0 0-1 4.7 4.77 4.77 0 0 0 3.3 3.3 9.85 9.85 0 0 0 5.1-.3c-1.8-2.3-3.5-4.6-5.3-6.8-4.6 9.3 5.9 15.2 12.8 18.8 4 2.1 7 2.3 10.2-1.3 2.6-2.8 3.8-6.6 4.4-10.2 1-6.4.4-15.5-6-19.1a8.93 8.93 0 0 0-10.5 1.4c-4.4 4.7-3.7 10.3.3 14.9 2.1 2.5 5.6 1.3 7.2-.9 4.2-5.8-.4-13.1-6.8-14.5a7.55 7.55 0 0 0-8.7 3.8c-2.2 3.8-1 7.4 1.5 10.6 2.2 2.8 6.8 1 7.7-2 2.6-9.6-9.2-16-15.2-7.7a10.65 10.65 0 0 0 .1 12.7c2.5 3.5 7.7 6.6 11.8 4 7.5-4.9 3.4-17.3-4.5-19.2a9.2 9.2 0 0 0-10.3 4.5c-2.3 4.2-.8 8.8 2 12.3 3.8 4.5 10.2-2 6.5-6.5-2.5-3 2.8.4.8 1.5 1.2-.2 2.4-.3 3.5-.5a4.42 4.42 0 0 1-2.8-2.2c.2.2-.4-2.8-.8-1.5 2.6-.7 5.1-1.4 7.7-2a9 9 0 0 1 1-.9c-.9.7-1.8 1.4-2.8 2.1a1.09 1.09 0 0 1 1.4.2c.7.6.6.7-.1.5l7.2-.9c-2.3-2.7-.6-1.8-.3-.9a16.06 16.06 0 0 1 1 5.3c0 3-.4 7.9-3.4 9.6h4.7c-2.3-1.2-4.6-2.3-6.8-3.7-1.1-.7-5-3.6-5-3.6a4.71 4.71 0 0 0-5.3-6.8c-.1.1-.1.2-.2.3l3.3 3.3a.37.37 0 0 0-.1-.3c-.2 1.2-.3 2.4-.5 3.6a29.06 29.06 0 0 0 2.5-2.5l-7.3.9c.5.4.9.8 1.4 1.2.6.7.7.5.4-.5 1.9-.2 3.8-.5 5.7-.7-1-.6-.4-1.5-.9-1.9-1.6-.2-1.9-.1-1 .2a9.87 9.87 0 0 1 5.1 5.9c2 4.6 2.3 9.9 2.5 14.9.4 11.5-.7 23.1-.8 34.6-.2 18.6 0 36.7 2.5 55.2 1.5 10.9 4.5 28-3.3 37.2 2.4.6 4.8 1.3 7.1 1.9-3.2-11.3-.2-24 .7-35.5 1.1-13.7 1.6-27.5 2.8-41.2 2.3-26.1 6.6-52.4 1.3-78.5-.9-4.3-8-3.4-7.6 1 2.1 27.7 1.1 55.8 1.1 83.7a369.59 369.59 0 0 1-1.9 40.7c-1.3 11.2-4.2 23.2.1 34.1 1 2.5 4.6 1.6 3.9-.9z"/><path class="cls-1" d="M1167.9 1379.9c0 .7-.1 1.4-.1 2.1h1.8c.4-9.1 3.8-17.6 5.3-26.5 1.4-8.4 2.5-16.9 3.5-25.3 2.1-18.4 6.2-36.5 9.5-54.7 3.1-17.1 3.9-34.3 5.1-51.6.7-9.2 1.3-18.3 1.2-27.5-.1-9-1.4-17.6-2.4-26.5-3.9-34.3 3.7-69.2.3-103.6-.8-8.5-2-17-3.2-25.4-1.2-8.6-3.5-17-5.1-25.5-3.2-17.1-6.3-34-11.2-50.7-4.9-16.9-10.5-33.6-14.6-50.7-4.1-17.3-6.5-34.9-10.1-52.3-3.5-17.2-8.4-34.1-10.8-51.4a409.16 409.16 0 0 1-4.1-55.3c0-11 2.6-26.3-7.3-34.2-10.5-8.3-25.6-3.9-36.5-10.9-4.9-3.2-8.9-8.7-12.5-13.3-3.5-4.4-8.4-10.2-9.1-16.1-.6-5.5 3.4-12.2 5.8-16.9a51.62 51.62 0 0 1 10.6-14.4c5.5-5.3 11.3-7.2 18.7-8.8 6.8-1.5 13.6-3.3 20.4-4.9 3.4-.8 6.9-2.1 10.3-1.3 3.9.9 7.6 3.8 10.5 6.4 5.5 5 10.5 11 15.3 16.7 11.1 13.1 17.6 29.7 12.2 46.7-4.3 13.3-15.4 21.8-29.4 22.1-2.2 0-11.3.3-11.7-3.1-.6-4.5-7.8-4.6-7.2 0 1.4 10.5 14.9 10.8 23.1 9.9a36.63 36.63 0 0 0 30-22.1c6.7-15.9 4.8-32.8-4-47.5-4.3-7.2-10.1-13.3-15.7-19.5-4.9-5.4-9.8-11.1-16.5-14.5-7.1-3.6-13.1-1.8-20.5-.2-7.6 1.6-15 3.6-22.5 5.3-13 3.1-22.9 12.4-29 24.1-2.9 5.6-6 11.6-7.3 17.8-1.2 5.7 1 11 3.9 15.9 6.2 10.4 15.6 23.1 27.3 27.2 10.7 3.7 30.7.3 33.6 14.8 1.6 8.3.5 17.6.5 26a246.74 246.74 0 0 0 1.9 29.7c1.2 9.3 1.8 18.7 3.3 28s3.7 18.3 5.9 27.4c4.5 18.9 7.8 38 11.5 57 3.6 18.6 9.2 36.6 14.7 54.6a487.42 487.42 0 0 1 13.2 54.9c3.4 18.9 7.8 37.5 9.7 56.6s.9 38.7.3 57.8c-.3 9.2-.6 18.4-.5 27.6s1.5 18.2 2.6 27.4c2.3 19.7-.2 39.5-1.1 59.3s-4.6 39.1-8.3 58.6c-3.6 19.2-4.6 38.6-7.6 57.8-1.3 8.5-4.3 16.6-4.3 25.3a.9.9 0 0 0 1.8 0v-2.1c.5-1.4-1.2-1.3-1.2-.2z"/><path class="cls-1" d="M1127 676.7c-6.5-1.5-17.1-8.4-23.4-2.9-6.7 5.9.3 13.7 6.1 16.2 6.1 2.6 16.7 5.2 22.7 1 8.2-5.6-.3-19.9-4.8-25.3-6.9-8.2-25.8-6.9-25.6 6.1.1 4.7 7.1 4.7 7.3 0 .2-4.4 7.8-4.9 10.7-3.4 3.3 1.7 5.3 6.2 7.1 9.3 1.9 3.4 4.8 8.5-.6 10-2.7.7-6 .2-8.6-.3-3.3-.6-18.2-5.8-10.4-10.8 4.9-3.1 13.9 1.8 19.2 2.4a1.17 1.17 0 0 0 .3-2.3zm-117.4 514.2v3a.15.15 0 0 0 .3 0v-3a.15.15 0 0 0-.3 0z"/><path class="cls-1" d="M1011.1 1193.9c.1-5.9-.2-11.8.3-17.6.5-6.5 2.5-12.6 3.6-19 1-5.8.8-11.7 1.9-17.5a164.66 164.66 0 0 0 2.8-17.1c.3-3.5-5.3-5.1-6.8-1.9a74 74 0 0 0-6.6 20.6c-1 6.8-3.7 13.5-3.6 20.4.1 4.4 6.5 5.4 7.7 1 4.5-16 7.3-32.3 7.2-49 0-5.2-.5-12.3-4.9-15.9-5.7-4.5-11 2.8-9.7 8.2a4.29 4.29 0 0 0 4.1 3.1c6.2-.3 10.3-5.6 10.1-11.7-.3-7.2-6.9-11.8-13-6.9s-4.1 12.7 3.3 14.5c6.8 1.7 12-3.7 10.4-10.4-1.3-5.7-9.2-3.1-8.5 2.3 1.1 8.5 9.9 10.3 14.7 3.4s.8-14.4-7.6-14.4c1.3 2.3 2.6 4.5 3.9 6.8a12.52 12.52 0 0 0-4.5-15.7 9.77 9.77 0 0 0-8.9-1.2c-1.6.6-2.6 1.7-4 2.5-1.9 1.2-.1.5-1.9.6-2.5.1-4-1.2-6.5.2a13.19 13.19 0 0 0-5.7 8.3c-1.3 7.2 5.3 12.5 12 11.8 5.7-.6 5.9-9.4 0-9-2 .1-2.4.1-2.7-1.7-.3-2-.6-.6.8-.5 1.9.1 3.3.8 5.3.2s3.3-2.6 5.1-3.3c1.5-.5 4.1 1.4 3.2 3.4-1.4 3 .2 6.8 3.9 6.8 3 0 .2 0 .9-.9.1-.2-.6 1.2-.6 1.3-.1.4-.6.5-.5.7-.1-.2 2.4.5 2.1.8 0 0-.5-2.3-.5-2.2-2.8.8-5.7 1.6-8.5 2.3 1-.5 1-.6.2-.4a2 2 0 0 1-1.2-.8c.1 1.1.3 2.2.4 3.3.4-1.6.8-2 2.4-2.4-1.1-.1-2.2-.3-3.3-.4 1.4.9 1.2 4.5-.7 4.6 1.4 1 2.7 2.1 4.1 3.1-.1.3-.2.6-.3 1-1.4-.4-2.7-.7-4.1-1.1 5 4.6 2.3 15.8 2.1 21.8a160.32 160.32 0 0 1-6.1 35.1c2.6.3 5.2.7 7.7 1-.2-6 2.3-11.8 3-17.7a63.83 63.83 0 0 1 5.6-19.6c-2.3-.6-4.6-1.2-6.8-1.9-.3 5.7-1.2 11.4-1.8 17.1-.7 6.3-.1 12.7-.9 19-.8 5.5-1.9 11-2 16.6-.1 6.2.7 12.3 1 18.5-.2 1.6 2.3 1.6 2.4-.1zm-63.9 206.5c-13.1-13.6-20.6-30.6-29.6-46.9-9.2-16.8-20.4-32.4-30-49-4.9-8.5-9.1-17-11.4-26.6-2.2-9.3-3.1-18.8-4-28.2-.9-9-2.4-17.9-3.3-26.9-1-10-.7-20-1.1-30-.7-19.9-6.3-38.9-11.2-58a179.06 179.06 0 0 0-21.1-49.3c-4.5-7.2-10.7-13.1-15.1-20.3a90.53 90.53 0 0 1-9.8-23.9c-4.8-18.2-4.2-36.8.7-54.9 5.3-19.4 13.9-37.8 19.5-57.1 4.2-14.6 9.6-31.7 7.4-47.1-.7-4.9-2.5-9.8-6.9-12.6s-9.9-4.3-14.9-5.1c-3.9-.6-9.4-.8-11.8 3-3 4.5 3.5 10.1 7.2 11.9 6 3.1 13 3.5 19.5 4.8 4.3.8 5.7 3.8 8.9 6.4a16.76 16.76 0 0 0 8.3 3.3c6.3 1 14.2 1.1 20.4-.9 5.5-1.8 8.1-6.4 11.3-10.9 3.9-5.6 9.2-10.3 12.4-16.4a30.45 30.45 0 0 0 3.1-20.5c-2.7-13.1-15-20.5-23.2-30-4.9-5.6-8-12.7-14-17.4a27 27 0 0 0-11.5-5c-4.4-.7-9.3-.3-13.4-2-3.1-1.3-5.5-3.9-8.7-5.1a15.46 15.46 0 0 0-10.6.2c-3.3 1.1-6.5 2.4-9.9 3.3a26 26 0 0 0-7.6 2.9c-4.8 3.1-5.9 9-7.8 13.9-2.7 7-5.8 14.3-5.8 21.9 0 16.6 16.3 21.9 28.7 28.2 7.3 3.8 14.4 7.9 22.8 8.6 3.8.3 5-5.3 1.9-7-5.9-3.3-10.8-8.2-17.1-10.9-7-3-14.1-5.3-20.4-9.8-1.4 2.3-2.7 4.6-4.1 7 13.7 9.4 31.4 19.5 48.7 17.9 5.3-.5 5.6-8.6 0-8.5h-5.1c-5.5 0-5.5 8.5 0 8.5h5.1v-8.5c-15.9 1.5-31.9-7.7-44.6-16.3-4.3-2.9-8.3 4-4.1 7 6.1 4.2 12.8 6.5 19.6 9.2s11.8 7.7 18.2 10.9c.6-2.3 1.3-4.7 1.9-7-6.5-.4-12.2-3.5-17.9-6.3-4.8-2.4-9.8-4.4-14.5-6.9-5.1-2.7-10.4-6.2-11.8-12.2-1.4-5.5.6-11.4 2.4-16.6 1.5-4.3 3.1-8.7 4.9-13 1.9-4.5 4.7-5.2 9.2-6.3 4.3-1.1 9.7-4.5 14.2-3.7 2.3.4 4.1 2.2 6 3.4a22.3 22.3 0 0 0 8.7 3.2c6.1 1 12.5.4 17.8 4.3 4.6 3.4 7.3 8.7 10.6 13.2 5.6 7.5 13.2 12.9 19.1 20 7 8.4 7.5 19.2 1.9 28.6-2.2 3.7-5.1 6.9-7.7 10.4s-4.8 9.3-8.9 11.4c-4.4 2.3-11.5 2-16.4 1.6-3.2-.2-6.4-.6-8.9-2.8-1.8-1.6-3-3.7-5.1-5-4.1-2.7-9.9-2.5-14.6-3.4-6.2-1.3-12-2.5-14.8-8.9v2.7c2.1-4.5 13.7.1 16.9 1.5 6.7 2.9 7.8 9.1 7.8 16 0 8.9-2.1 17.8-4.2 26.4-2.5 10.6-5.7 21-9.2 31.2-6.8 19.7-15.4 38.6-17.4 59.6a107.55 107.55 0 0 0 8.8 53.1c3.5 8 8.4 14.4 13.9 21 6.3 7.6 10.7 16.4 14.9 25.3 4.7 9.8 9 19.5 11.7 30s5.7 20.7 8 31.2a185.47 185.47 0 0 1 3.8 34.1c.2 10.2.5 20.4 2.1 30.5 3 19.2 2.8 39.3 9.7 57.7 3.9 10.4 10.3 19.9 16.2 29.3 6.2 9.7 12.7 19.3 18.7 29.2 11.4 18.6 19.6 39.1 35.5 54.4.8.7 1.8-.4 1.1-1z"/><path class="cls-1" d="M824.7 836.5c-.7-3.9-5-6.6-4.5-10.7.4-3.1-4.5-3.6-5.3-.7-1.3 4.7 1.6 7.8 6.1 8.6 3.4.6 10.1-.8 12.5 2.2s6.7-1.3 4.3-4.3-6.6-3.2-10-3.4a54.41 54.41 0 0 1-5.7-.3c-1.4-.2-2.1-.1-1.9-1.5-1.8-.2-3.5-.5-5.3-.7a8.34 8.34 0 0 0 2.2 6.2c2 1.9 4.6 2.2 5.6 5.1a1 1 0 1 0 2-.5zm36.5 15.7a9 9 0 0 0 0-5.4 12.54 12.54 0 0 0-3.1-4.5c-1-1.2-3.5-.7-3.7 1-.1.9-.4 1.8-.5 2.8v2.8c-.1 3.6 5.6 3.6 5.5 0a17 17 0 0 0-.8-5.5c-1.1.8-2.2 1.7-3.3 2.5a5.17 5.17 0 0 1 2.8 5.6c-.2 1.9 2.6 2.7 3.1.7zm526.2 21.8a7.23 7.23 0 0 0 6.1-.3 1.42 1.42 0 0 0 .8-1.4c-.4-3.8-2.5-8.4-7.2-7.7-5.2.8-5.6 6.8-4.9 10.9 1.8-.7 3.5-1.5 5.3-2.2-2.9-4.5-8.3-4.8-11.6-.6-4 5-1.6 10.8 3.1 14.2 2.9 2 6.6-1.9 4.8-4.8-3.8-5.9-10.8-7-15.6-1.6s-3.3 12.6 1.8 17c9.9 8.7 29.5 4.3 38.6-3.7a16.11 16.11 0 0 0 5.3-8.9c.9-4.6-1.3-7.4-2.5-11.7s-1.1-8.3-3.8-12.1a31.68 31.68 0 0 0-9.7-8.5c-16.5-9.5-36-4.1-48 10.2-6.5 7.7-5.5 16.6 1.1 23.9a53.15 53.15 0 0 0 12.4 10.3c5.6 3.3 11.2 2.1 17.1 3.9l-2.7-2.7c1.3 6.1.6 12.2.4 18.4a78.89 78.89 0 0 0 1.2 16.1c2 11.9 1.7 24.1 1.7 36.2v77.9c0 5 7.8 5 7.8 0v-79.7c0-11.6.1-23.1-1.7-34.5a88.61 88.61 0 0 1-1.1-18.6c.3-6 .5-11.9-.7-17.8a4.06 4.06 0 0 0-2.7-2.7c-3.8-1.2-7.7-.6-11.4-1.6-4.2-1.1-7.6-4.5-10.7-7.3-6.5-6-9.4-11.3-2.2-18.2 5.5-5.3 12.9-10.2 20.8-10.6 6.8-.4 14.1 2.5 19.2 6.9a13.73 13.73 0 0 1 4.9 8.7c.7 3.5 2.3 6.2 3.3 9.5 1.9 6.8-7.4 10.4-12.3 12s-10.3 2.7-15.4 1c-2.5-.8-5.8-2.6-6-5.6s3.1-6 5.3-2.8l4.8-4.8c-2.8-1.8-1.4-6.2.5-4s5.7-.2 4.9-2.8c-.3-1-1.4-4.2.2-4.9 1.9-.8 2.8 2.6 3.1 3.6.2-.6.5-1.2.7-1.8-1.3.2-2.5.5-3.8.7-2-.1-2.6 2-1.2 2.5zm909.5 397.7c-10.4.7-6-11.3-3.4-16.8 4.5-9.7 10.6-18.5 15.4-28.1 10-19.9 19.3-40.4 27.9-61 4.5-10.9 7.4-22.6 12.3-33.3 2-4.4 4.3-8.6 5.7-13.2 1.6-5.3 2.4-10.7 4.1-16 3.2-10 2.1-19.9 2.9-30.2.6-8 3.3-15.4 4.5-23.2 1.3-8.5-6.5-11-13.3-12.9-2.9-.9-4.7-3.1-8.9-3.8-6.2-1-10.3 3.1-16 4.3l4.7 1.2c-5-6.3-1.7-14.8-1.2-21.6a4.81 4.81 0 0 0-3.6-4.7 22.93 22.93 0 0 0-9.4.3c-3.3.6-5.4 1.2-5.2-3.3.2-6.1 7-11.6 9.9-16.7 1.6-2.8 2.9-6.2 5.3-8.3 3-2.6 6.1-.5 9.3.7 3.6 1.3 6.5 1.4 10.3 1.4s7 2.3 10.5 3.7 6.8 1 10.2 1.8 6.2 4.9 7.6 7.8c3.1 6.3.5 12-2.3 17.9-1.6 3.3-4.7 11.4-9 11.8-3.7.3-12.4-5.9-12.5-9.7-.2-6.3-10-6.3-9.8 0 .4 11.4 18.6 24.3 29 17.5 5.7-3.7 9.1-10.9 11.8-16.9 3-6.9 5.6-13.5 3.2-21-2.2-7-8-15.3-15.6-16.9-1.8-.4-3.7-.1-5.5-.4-2.4-.3-4.4-1.4-6.6-2.4-4.1-2-7.6-3.1-12.2-2.9-8.1.3-14.3-6.5-22.5-1.6-6.3 3.8-8.6 11.4-12.7 17-5.3 7.2-11.1 15.2-6.7 24.5 1.8 3.7 4.8 6.2 9 6.4 3.7.3 7.5-1.9 11.2-1.2-1.2-1.6-2.4-3.1-3.6-4.7-.4 5.5-2.1 9.7-1.1 15.3.8 4.8 2.1 9.3 5.3 13.2a4.6 4.6 0 0 0 4.7 1.2 34.41 34.41 0 0 0 7.6-2.7c2.1-1 3.5-2.1 5.8-1 1.6.8 2.5 1.9 4.3 2.5 1.5.5 3.1.9 4.6 1.3.3.1 4 1.9 4.3 1.7.9-.5-1-.9-.3-1.6-.1.2-.1 1.4-.2 1.7a78.25 78.25 0 0 0-2.2 9.3 135.46 135.46 0 0 0-2.3 14.2c-.5 5.4 0 10.8-.2 16.2a51.07 51.07 0 0 1-2.7 14c-1.7 5.5-2.2 11.4-4.2 16.9-1.7 4.7-4.3 9.1-6 13.8-2 5.4-3.5 11.1-5.4 16.6-3.9 11-8.3 21.7-12.9 32.4-8.8 20.3-17.8 40.4-27.3 60.4-3.2 6.8-8.1 15.5-6.8 23.3.9 5.7 4.5 8.4 10.1 6.2.3-.1.3-.5.1-.4z"/><path class="cls-1" d="M2349.8 1003a19.8 19.8 0 0 0-5.8 6.4 2.36 2.36 0 0 0 3.2 3.2c5.8-3.2 4.8-14-2.7-13.9a6.33 6.33 0 0 0-5.9 5.8c-.3 3.7 2.4 6 5.9 6.4a3.33 3.33 0 0 0 3.2-2.4c.8-5.1-2.1-8.6-6.7-10.4-.7 2.4-1.3 4.8-2 7.2l1.9.3c5.5 1 6.6-7.1 1-7.5-.6 0-1.3-.1-1.9-.1-4.2-.3-5 6.3-1 7.3 1.4.4 2.3.8 2.2 2.4l3.3-3.3c-.6 0-.3.1.3.5.1.1 0 0 0-.1a.22.22 0 0 1 .2-.2c1.3.6 1.1 3.4-.1 4.2l3.2 3.2a13.51 13.51 0 0 1 4.4-5.4c1.7-1.7-.7-5-2.7-3.6zm-164 277.9v3c0 .1.2.1.2 0v-3c-.1-.1-.2-.1-.2 0zm9.9 30c3.4-34 9.8-67.6 13.4-101.5 1.9-17.2 1.9-34.4 2-51.6a190.28 190.28 0 0 0-1.2-25c-1-7.2-1.2-14.8-2.8-21.9a47.56 47.56 0 0 1-1.4-13 37.57 37.57 0 0 0-1.3-10.6c-1.6-6.4-3.6-12.9-7.7-18.1a4.09 4.09 0 0 0-4.3-1.1c-10 3-12.4 13.7-17.3 21.7l7-.9c-2.4-2.4-1-8.2-1.3-11.4a26.82 26.82 0 0 0-3-10.8c-3.6-6.1-10.5-4.8-16.3-3.6l-2.6.6c.2 0-5.8-.1-4.8-.7 0 0-1.5 4.2-.3 3.8.4-.1 1.2-1.4 1.4-1.8 1.3-2.4.8-5.4.4-8-.4-3.5-2.3-5.4-5.5-6.9a13.29 13.29 0 0 0-5.5-1.5c-1.2-.1-4.7.7-5.2-.4v4.5c3.9-6.8 11.8-9.7 16-16.3 4.6-7.2 5.2-16.4 4.7-24.8l-8.6 1.2c1.5 4.7 2.5 9.5 3.9 14.3a4.34 4.34 0 0 0 5.4 3c8.6-2.7 8.1-14.9 10.5-21.9-1.4 1.1-2.8 2.1-4.2 3.2-1.2-.1-.7-.7-.5.4a10.4 10.4 0 0 0 .6 1.6c.5 1.4.8 2.9 1.3 4.4.9 2.7 1.9 4.9 4.2 6.7 6.6 5 11.2-.2 17.8-1.6-1.4-.4-2.8-.7-4.2-1.1 2.2 2.7 2.5 6.5 3.9 9.7s3.5 5.3 5.9 7.7c5.1 5 3.6 12.2 11 15.2l-3-3c5.3 12.8-10.3 23.8-18.1 31.8-3.9 4 2.1 9.9 6.1 6.1 9.4-9 23.8-20.5 21.8-35.2a15 15 0 0 0-1.4-5c-.9-1.8-1.9-1.8-3-3-1.6-1.8-1.3-5-2.4-7.1a18.26 18.26 0 0 0-3.1-4.2c-2.8-3.1-5.3-5.1-6.7-9.3-1.2-3.6-2.3-6.7-4.8-9.7a4.34 4.34 0 0 0-4.2-1.1c-2.9.6-5.9 3.2-8.6 3.5s-2.9-3-3.5-5c-1.4-4.8-3.2-9.9-9-10.3a4.5 4.5 0 0 0-4.2 3.2c-1 2.8-2.2 15.1-4.5 15.8l5.4 3c-1.4-4.7-2.3-9.6-3.8-14.3-1.4-4.5-8.9-4-8.6 1.2.4 7.4.3 16.2-5 22-4.4 4.8-10.4 7.6-13.9 13.3-3.3 5.5 1.7 10.3 7.2 10.7 1.1.1 2.2-.1 3.3-.1 1.8 0 2.8 1 4.4 1.2-1-.1-.6-2.4-.6-.1a15.19 15.19 0 0 0 .3 2.1c.2 1.5.3 1.4.5-.3-2.8 4.1-2.3 7.4 2.1 10.3 5.9 3.8 11.4 1.2 17.8.4 1-.1 2.1-.4 2.8.1 1.5 1.1 1.8 5.8 1.9 7.4.5 5.9-.9 11.9 3.8 16.6a4.51 4.51 0 0 0 7-.9c3.2-5.2 5.4-15.7 11.9-17.6-1.4-.4-2.9-.8-4.3-1.1 8.3 10.4 4.8 25 7.8 36.8 1.7 6.6 1.8 13.7 2.8 20.5a190.65 190.65 0 0 1 1.5 25c.1 16.3.3 32.5-1 48.8s-3.5 32.6-5.4 48.9c-2.2 18.4-3.9 37-2.1 55.5-.2.7 1.3.7 1.4-.4z"/><path class="cls-1" d="M2210.8 1310.9c-.6-5.6 1.9-10.7 4.3-15.6 2.3-4.7 4.5-9.2 6.4-14 4.4-11.1 9.6-21.4 12.8-33 3.3-11.8 8.2-23.1 11.8-34.8a274.34 274.34 0 0 0 8.9-37.9c1.9-12.2 3.7-24.4 5.7-36.6a107.54 107.54 0 0 0 1.8-17.9c0-6.4-1-13 0-19.4.9-5.8 2.9-11.2 3.1-17.1.2-6.9-.5-13.1 1.1-20a95.94 95.94 0 0 0 2.4-20.7c.1-6 .9-16.1-3.7-20.8-3.5-3.5-7-1.2-10 1.6-5 4.6-8.9 10.3-14.3 14.4 2.1.6 4.2 1.1 6.3 1.7-4.8-7.1-4.5-17-7.4-25-1.3-3.6-3.9-6.2-6.8-8.5-3.5-2.7-7.7-4.7-8.4-9.4-1.1 1.9-2.2 3.8-3.2 5.7 4.1-.8 8.7.2 12.5-2.1 4.2-2.5 5-7.7 4.2-12.2-1.8-10.5-12.9-13.1-17-22l-6.3 6.3c2.8 1.6 6.2 4.6 9.3 5.2s6.1-.7 8.7-1.9c-1.2.2-2.4.3-3.5.5 3.4.8 5.4 4.5 8.8 5.6 4.2 1.4 7.8-.6 10.4-3.8-2.6-1.1-5.2-2.2-7.8-3.2-.3 5.2.7 10.5 5.7 13a10 10 0 0 0 7 .8c2.3-.6 4.4-2.7 6.8-2.7-1.5-1.1-2.9-2.2-4.4-3.3.6 4.4-1.3 8.5 3.1 11.6 3.4 2.5 7.9 1.7 11.7 2.9l-3.2-3.2c1.9 5.2-5 8.7-6.4 13.7-1.6 5.7 4.5 8.5 8.6 10.9 2.2 1.3 9.5 4.4 7.4 7.8-.8 1.3-4 2.1-5.4 2.3-.3.1-2 0-2.2.1 1.4-1.5.1 3.5 1.4.1 2-5.4-6.6-7.7-8.6-2.4-5.4 14.1 15.4 12.6 21.6 5.7 4.1-4.6 3-11.3-1-15.5s-10.7-5.7-14.5-10.1c.4 1.5.8 2.9 1.2 4.4.7-3.2 3.4-5.1 5.2-7.7a11.75 11.75 0 0 0 2.2-9.4c-.9-4.3-3.1-5.7-7.2-6.3-1.1-.2-4.5 0-5.1-1s.1-5.1-.1-6.5c-.3-1.9-2.6-3.4-4.4-3.3-3 0-4.8 1.2-7.4 2.2-3.4 1.3-3.1-1.2-2.9-4.3.2-3.8-5.3-6.3-7.8-3.2-1.7 2-1.3 1.5-3.3-.1a21.67 21.67 0 0 0-4.7-3.2c-2.2-1-3.6-.8-5.9-.3s-1.9.7-4.1-.6c-1.6-.8-3-1.8-4.6-2.7-4.3-2.4-8.1 2.3-6.3 6.3 3 6.6 9.7 9.4 14 14.8 1.4 1.8 3.2 6 1.3 6.9-2.4 1.1-6.8.4-9.5.9s-3.6 3.4-3.2 5.7c.7 4.4 3.3 7.7 6.7 10.5 3.1 2.5 7.3 4.5 8.8 8.3 3.4 8.6 2.8 18.4 8.1 26.3 1.3 1.9 4.2 3.3 6.3 1.7 7-5.3 12-12.5 18.7-18.1l-4.5 1.2c-2.3-.6-1.1-1.7-.9.4.1 1.2.5 2.4.6 3.6.3 3.2.3 6.4.3 9.6a79.51 79.51 0 0 1-1.9 17.5 52.65 52.65 0 0 0-1.9 13.7c0 6 .5 11.4-.9 17.3-1.2 5.2-2.3 10.2-2.3 15.5 0 5.7.8 11.3.5 17-.5 11.5-3.3 22.7-4.8 34-1.4 10.7-2.5 21.2-4.8 31.8-4.6 21.4-12.1 41.9-17.5 63-1.5 5.8-4 11.1-6.2 16.7-2 5.1-3.3 10.4-5.1 15.5-2.9 8.1-8.2 16.3-6.3 25.3.3 1.1 2.1.9 2-.2z"/><path class="cls-1" d="M2252.9 1006.8a7 7 0 0 1-.8-1c0 .1-.2-.6-.1-.3v-.1c.9-1.7-1-3.9-2.8-2.8a3.13 3.13 0 0 0-1.1.9c-.2.2-.7 1.1-.9 1.1.1 0 .2-.3 0-.1a2.41 2.41 0 0 0-.6.8 5.23 5.23 0 0 0-.6 1.6 3 3 0 0 0 2.5 3.8 3 3 0 0 0 3.4-3v-.4c0-.7-.1.9 0-.3a4.87 4.87 0 0 0-.1-1.7v1.4c.1-.6.3-1.2.4-1.9h-4a7 7 0 0 0 2.8 4.1 1.42 1.42 0 0 0 1.9-2.1zm-597-15.1l2.5-1.9c-1.1-.4-2.2-.9-3.3-1.3 5.5 19.6 8.8 40 12.1 60 3.4 20.4 3.1 41.9 1.7 62.6-.7 10.2-2.6 20.3-2.9 30.6-.2 9.7-2 19-2.8 28.7-.4 4.8-.1 9.6-.6 14.3a89.41 89.41 0 0 1-3.1 15.4c-2.6 9.7-5.4 19.3-8 29-2.9 11-5.9 22.1-9.7 32.9-3.4 9.8-8.2 19-9.2 29.4h7.9c-.2-6.7 4.4-12.3 6.1-18.6 2-7.6 4-15.1 6.4-22.6 5-15.9 8.9-32.2 13-48.3 2-7.9 5-15.5 6.2-23.6 1.1-7.1 2-14.2 3.2-21.2 1.3-7.6.8-15.3 2.1-22.8 1.3-8 2.5-15.7 2.6-23.8.1-8.5-.1-17-.2-25.6-.1-8.3.2-16.6-1-24.8-2.2-14.9-6.6-31.1-13.4-44.6-3.5-6.8-8.4-12.4-12.3-18.9-3.1-5.1-3.7-11.6-7.9-16.1-3.8-4.1-9.3-5.4-14.5-7-7.5-2.3-11.2-7.5-15.3-14a68.43 68.43 0 0 1-5-9.2c-1.3-3-2.5-6.2-4.8-8.6-4.1-4.3-11.5-4.5-12.7-11.3-1.1-6 2.4-13.9 6.7-18a158.45 158.45 0 0 0 12.2-12.4 25.18 25.18 0 0 1 11.9-8.1c7.6-2.5 15.5-5.6 23.6-5.7 7.3-.1 14.3 2.4 21.5 3.3 6.5.8 11.7 1.5 16.8 6 10.3 8.8 21.5 22.6 21.9 36.8.4 13.1-10.8 22.4-16.3 33.2-3 5.9-4.2 12.7-10.4 16.2-5.7 3.3-13.2 4.8-19.6 3.2s-12.3-4.8-18.4-7.4c-5.6-2.4-12.7-4.5-15.4-10.4-2.5-5.2-2.9-11.6-3.8-17.2-.7-4.8-1.1-10.8 1-15.3 2.5-5.4 11.4-7.8 16.3-10.3 6.8-3.5 13.2-5.6 21-5.5 5.5.1 11.3 1.1 14.7 5.8 2.9 3.9 3.5 9.3 2.9 14-1.3 9.8-10.1 24.3-21.6 19.1-3.6-1.6-11.3-6.4-10.7-11.2-1.4 1.1-2.9 2.2-4.3 3.3l2.7-.3c5.6-.7 5.7-9.7 0-9l-2.7.3c-1.8.2-4 1.2-4.3 3.3-1.7 12.1 12 23.2 23.3 23.8 13.6.8 23.6-13.7 26-25.8 2.3-11.6-1.4-24.7-12.8-29.8-6.6-3-14.6-2.9-21.6-1.9-8.4 1.2-15.4 5.3-22.9 9-6.4 3.2-12.4 6.2-14.9 13.3-2 5.9-1.8 12.5-.9 18.6 1 6.4 1.7 13.2 4.3 19.2 3.1 7 9 10.4 15.7 13.3 14.2 6.2 27.7 14 43.5 8.7 6.9-2.3 12.9-6.1 16.3-12.7 3.6-6.9 6.3-13.6 10.8-20 4-5.8 8.2-11.6 10-18.5 2-7.3 1-15-1.7-22.1a75.56 75.56 0 0 0-13.1-21.3c-4.9-5.8-10.9-12.1-18.1-14.9-6.6-2.6-14.3-2.5-21.2-4-8.4-1.8-16.5-2.4-25-.4-7.5 1.8-16.1 4-22.8 7.9-5.7 3.4-9.1 9-13.7 13.6s-9.4 7.8-12.2 13.7c-3.1 6.5-5.2 14.7-2.5 21.7a16.5 16.5 0 0 0 6.5 8c3.1 2 6.6 2.6 8.7 5.9s3.1 6.9 4.9 10.2a91.38 91.38 0 0 0 7.4 11.3c4.9 6.5 10 9.4 17.8 11.7 3 .9 6.5 1.7 8.7 4.2 2.4 2.7 3.2 7 4.6 10.2 3.2 7.7 9.6 14 13.6 21.4 4.4 8.3 6.9 17.3 9.4 26.3 2.7 9.4 4.8 18.7 4.8 28.5.1 10.5.3 21 .4 31.4 0 4.9 0 9.8-.3 14.6-.4 5.2-1.7 10.3-2.4 15.5a115 115 0 0 0-.7 11.8 109.73 109.73 0 0 1-2 14c-1.5 8.5-1.9 17.2-4.5 25.5-3 9.6-5.3 19.4-7.8 29.1-4.8 18.6-10.3 37-15.2 55.6-1.9 7.2-6.6 13-6.3 20.7.2 5.1 7.4 5 7.9 0 .9-9.6 5.7-18.4 8.8-27.4 3.3-9.6 6-19.4 8.7-29.2 5-18.6 12.5-37.9 12.5-57.3 0-10.2 2.3-20.1 2.8-30.3s1.3-20.3 2.3-30.5c1-10.5.7-21 .8-31.5.1-10.1-.1-20.1-1.7-30-1.7-11.3-4.5-22.5-6.8-33.7-2.4-11.5-5.1-22.9-8.6-34.1a2.23 2.23 0 0 0-3.7-1c-.8.7-1.6 1.3-2.5 2-2 1.4.6 4.8 2.6 3.3z"/><path class="cls-1" d="M1785.6 866.8c.2-8 .6-16.4-5.8-22.2-5.3-4.9-13.6-8-20.7-8.2-4.1-.1-7.9 1.3-11.9 2.2-4.7 1-9 0-13.8-.1-8.5-.2-12.9 4.5-15.9 12-5.2 13.1-25 19.8-19.2 36.6 1.6 4.6 3.7 8.1 3.5 13.1s-1.1 10.2.3 15.2c2.1 7.4 8.1 13.6 13.6 18.7 12.7 11.6 26.3 20 43.8 21.5 8.3.7 17.7 1.4 25.1-3.1 1.7-1 3.2-2.5 5.1-3.3 3-1.4 5.6-1.1 8.8-.6 4.5.8 8.9 1.9 13.5.7 6.7-1.8 13.2-7.4 17.4-12.8 5.7-7.2 4.6-15.4 4.1-24.1a22.78 22.78 0 0 1 2.6-12.8 31.49 31.49 0 0 0 3.9-13.4c.2-7.9-2.4-17.8-7.1-24.3-5.3-7.3-14.9-8.2-22.8-11.1-4.9-1.8-9.6-4.3-14.4-6.2-5.2-2.1-10.3-2.9-15.9-3.5-9.2-1-17.7-5.5-26.9-6.2-9.4-.7-16.5 3.9-21.4 11.7-3.4 5.3 5 10.1 8.4 4.9 8.3-12.7 22.9-3 34.4-1 3.8.7 7.8.7 11.6 1.6a68.4 68.4 0 0 1 12.4 4.6 194.28 194.28 0 0 0 19.3 7.1c2.8.9 5.6 1.8 7.4 4.4s3.1 6.9 4 10.1a23.8 23.8 0 0 1 .8 10.6c-.6 3.7-2.9 6.8-4.3 10.2-3.1 7.6-1.1 15.1-1.1 23 0 6.9-4.3 11.4-9.7 15.3-2.5 1.8-4.8 3.1-7.9 3.1-3.9 0-7.8-1.5-11.7-1.6a18.88 18.88 0 0 0-9.9 2.4c-3.6 2-6.3 4.8-10.5 5.5a57.06 57.06 0 0 1-41.2-9.2 106.79 106.79 0 0 1-15.9-13.3c-5.7-5.9-8.3-11.2-7.8-19.5.2-3.8.5-7.5-.3-11.2-.8-3.4-2.8-6.4-3.8-9.8-1.8-6.7 4.1-11.5 8.5-15.6a39.92 39.92 0 0 0 10.8-15.5c1.8-4.7 4-6.7 9.2-6.5 3.9.2 7.7.9 11.6.3 4.1-.6 7.8-2.7 11.8-3.3 3.8-.5 7.9.5 11.5 1.7 4.1 1.4 8.3 3.7 10.5 7.6 2.4 4.3 2.2 9.7 2.4 14.5a1.81 1.81 0 0 0 3.6-.2z"/><path class="cls-1" d="M1757.4 887.8c.2-4.9 2.3-10.1-1.8-14-3.4-3.2-10-4.8-14.3-2.7-5.2 2.5-6.3 8.8-6.4 14-.1 3.9.3 7.3-1.2 11.1-1.2 2.9-2.5 5.8-2 9 1 5.9 7.9 10.8 12.1 14.3 2.8 2.3 5.7 4.4 9.3 5.3 2.2.5 4.6.3 6.9.9s4.3 1.7 6.4 2.4c8.2 3 17.1 4.9 25.8 3 5.3-1.1 10-4.5 14.2-7.8 4.7-3.7 8.7-8.2 6.2-14.4s-9.3-11.5-16.1-11.6c1.4 1.1 2.8 2.2 4.2 3.2-1.2-4.9-4.3-9-5.6-13.7-1.1-3.9-1.3-6.9-4.5-9.9-3.7-3.4-9.4-2.2-14-3-2.3-.4-4.6-1-6.9-1.4-9.7-1.6-28-2.3-26.4 12.4.6 5.5 9.1 5.8 8.9 0-.3-7.3 13.2-4.2 17.6-3.3l4.1.9a44.29 44.29 0 0 0 5.1.6c1 .1 4.7 0 5.5.5 2 1.2 1.9 6 2.8 8 1.8 3.7 3.7 7.2 4.8 11.2a4.38 4.38 0 0 0 4.2 3.2c3.4 0 10 4.5 7.6 8.1-2.2 3.3-7.2 6.3-10.7 8-6.2 3-13.7 2-20.2.3-3.3-.9-6.3-2.2-9.6-3.3-3.7-1.2-7.8-.6-11.3-2.2s-6.4-4.7-9.1-7.3c-1.5-1.4-4.2-3.2-4.9-5.3-.7-2.4 1.2-5.2 1.9-7.4a22.65 22.65 0 0 0 .7-8.2c-.3-5.1-1.1-13.8 6.2-13.7 8.2.1 8.8 6.4 9.1 12.9a.72.72 0 0 0 1.4-.1z"/><path class="cls-1" d="M1764.1 903.6c1.6-2.5 4.1-5.6 1.6-8.5a11.18 11.18 0 0 0-2.1-1.7 3 3 0 0 0-3.3.1 9 9 0 0 0-4.3 4.3c-1 2.2-.3 4.2 1.2 5.9a6.18 6.18 0 0 0 4 2.2 7.41 7.41 0 0 0 7.1-3.7c2-3.6-.2-7.1-3.9-8.1a3.26 3.26 0 0 0-3.9 2.2 27.59 27.59 0 0 0-.8 2.7c-1.3 4 5.4 5.8 6.3 1.7.2-.9.4-1.8.6-2.8-1.3.7-2.6 1.5-3.9 2.2.2 0 .6.2.9.2-.3-.2-.3-.3-.2-.2 0-.1-.2-.4-.2-.6 0 .2 0 .1.1-.3 0 .1-.1.3-.1.4.2-.1.3-.5-.1.1s.4-.4-.1.1l-.5.5c.6-.5-1 .6-.3.2-.1.1-.8.2-.2.1h-.7c.4 0-.1-.1-.2-.2a10.37 10.37 0 0 1-1.2-1.7c.1.6.2 1.3.3 1.9a5.27 5.27 0 0 1 2.9-4c-.5.1-1 .1-1.5.2 1 .4 2 .7 1.7 1.8a16.16 16.16 0 0 1-1.7 3.5 1.46 1.46 0 0 0 2.5 1.5zm-9.2 38.2c-.2 19.6 4.7 40 .6 59.4-2 9.4-4.6 18.5-5.9 28.1-1.4 10.4-2.7 20.7-5.3 31-2.2 9.1-4.2 18.2-7.5 27-3.5 9.2-7.9 18.2-11.5 27.4-3.7 9.4-6.5 19-10 28.4s-7.4 18.8-11.3 28.2c-4.1 10-7.9 20-12 29.9-3.8 9-8.1 18.7-8.3 28.7-.1 4.4 7 5.6 7.8 1.1 3.6-18.1 11.6-35.1 18.4-52.1 3.7-9.4 7.6-18.7 11.2-28.2 3.7-9.7 6.5-19.7 10.1-29.5 3.4-9.3 7.5-18.4 11.3-27.6 3.6-8.7 5.9-17.7 8-26.9 4.5-19.6 6.2-39.7 10.4-59.4 4.6-21.9-1.3-43.5-2.3-65.5a1.85 1.85 0 0 0-3.7 0zm113.9 16.7c7-4.4 1.9-17.3.6-23.6-3.2-14.9-11.6-29.2-18.1-42.9-3.5-7.4-7.8-14.5-10.8-22.1a32.77 32.77 0 0 1-2.5-10.7c-.1-1.9 0-8.1 2.4-8.7 3.7-1 9.7 7.1 11.1 9.6 3.3 5.7 3.8 12.6 6 18.7 2.4 6.5 6.4 12.5 10.1 18.3 3.6 5.6 7.1 11.3 11.2 16.6s9.4 7.5 15.7 9.5c3.2 1 6 2.1 8.3 4.6 1.7 1.9 3 3.9 5.2 5.2 10.1 6.1 21.7-3 32.1-1.1 5.1.9 9.5 6.1 12.4 10.1.9 1.3 2.5 3.4 2.1 5.1-.5 2.7-4.7 4.2-7 4.9-13 4-28.7-.4-41.3-4a124.89 124.89 0 0 1-24.1-10.3c-3.3-1.8-6.8-3.3-8.6-6.9-1.6-3.2-2.5-6.4-4.6-9.3-3.6-4.8-11.6-.5-8.2 4.8 3.8 5.9 4.5 12.2 10.7 16.4 6.6 4.6 14.5 7.9 21.9 11 13.6 5.5 29.6 9.5 44.4 9.2 10.3-.2 29.1-4.7 26-18.8-1.2-5.5-5.4-10.1-9.3-13.9-4.4-4.3-9.5-7.5-15.8-7.6-6-.1-11.9 2-17.8 2.9-3 .5-6.7 1.2-9.2-.9-2.6-2.3-4.2-5.1-7.3-6.9-6.8-4-14.6-3.5-19.5-10.5-4.7-6.6-9.2-13.4-13.4-20.2-4.3-7-6.5-13.6-8.7-21.5-1.9-6.6-4.9-12.4-10-17.1-3.6-3.3-8.4-6.9-13.5-6.2-6.2.8-8.7 7.1-9.4 12.6-1.2 9 2.1 17.8 6.3 25.6 4.9 9.2 9.8 18.5 14.5 27.8 4.6 9 10 17.9 13 27.6 1.3 4.2 6.7 16.6 2.8 19.9-1.6 1.2.5 3.9 2.3 2.8z"/><path class="cls-1" d="M1851.2 862.5c-4.9-4.6-3.3-15.9-2.5-21.8a23.19 23.19 0 0 1 10.5-16.4c6-3.8 10.4 7.8 12.4 12 2.9 5.9 5.2 12.7 10.4 17.1 3.1 2.6 8.7 4.4 10.5 8.3 1.4 2.9 1.2 6.5 2.4 9.5 3.2 7.5 9.1 11.8 17 13.1 3.6.6 7.3.7 10.9 1.2 5 .7 8.8 2.9 13.1 5.4 3.7 2.2 7.7 4.2 12 4.4a14.19 14.19 0 0 0 5.7-.9c2.3-.8 4.9-2.8 7.4-2.6 8.6.7 7.1 15.9 7.2 21.5.2 6.3 1.8 18.4-5.9 21.1-5.5 1.9-3.1 10.8 2.4 8.8 9.1-3.2 12-11.5 12.5-20.4.4-7.9.4-17.1-1.4-24.8-2.3-9.8-10.6-17.3-20.9-13.2-2.1.8-4.1 2.1-6.4 2.2-3.1.2-6.1-1.8-8.6-3.2-4.9-2.8-9.3-5.3-15-6.1-9.9-1.4-20.7-.2-24.1-12.1-.9-3.4-.9-6.5-3.1-9.5-3.4-4.6-9.5-5.9-13.1-10.3-6.3-7.7-13.9-38-29-27.3a30.08 30.08 0 0 0-12.2 21.4c-.7 7.2-1.6 19.9 4.6 25.2 2.3 1.7 5-.9 3.2-2.6z"/><path class="cls-1" d="M1886.2 829.6c-6.2-1.4 2.9-13.1 4.9-14.4 5.5-3.7 12.9-2.8 18.9-1.2 11.2 3 22.7 8.8 33 14.2 4.7 2.5 9.3 5.4 12.7 9.5 4.2 5.1 5.4 11.8 6.4 18.2a81.15 81.15 0 0 1 .3 20.3c-.5 4.3-.9 10.5-4.4 13.5 1.8-.2 3.6-.5 5.3-.7-1.1-.6-2.2-1.3-3.3-1.9-4.8-2.8-9 4.5-4.4 7.5 1.1.7 2.1 1.4 3.2 2a4.54 4.54 0 0 0 5.3-.7c8.2-6.7 7.7-23.7 7.1-33.1-.8-13.4-3.5-27-14.6-35.7-9.6-7.5-22.3-11.7-33.5-16.1-10.6-4.1-25.5-8.4-35.3-.1-4.1 3.5-12.8 20.6-2 21.1a1.22 1.22 0 0 0 .4-2.4z"/><path class="cls-1" d="M1932.6 844.8a10.41 10.41 0 0 1-2.1-4.8c-.5-3.3-6-2.5-5.9.8.1 2.2-1.7 3.8-2.6 5.7-.8 1.6-.6 4 1.3 4.9 4.5 2.1 9.4 1.5 10.8-4a3.85 3.85 0 0 0-1.7-4.2c-8-4.5-17.1 3.2-17.3 11.6-.1 4 6.6 5.2 7.3 1 .4-2.4 3.1-7.8 6.3-6.2-.6-1.4-1.1-2.8-1.7-4.2-.3 1.5.8 0 .8 0s-1.8-.6-1.7-.6c.7 1.8 1.4 3.5 2.1 5.3 1.6-3.4 3.6-6.2 2.3-10.1-1.8.8-3.6 1.5-5.5 2.3a22.32 22.32 0 0 0 4.2 5c1.8 1.4 5-.5 3.4-2.5zm-37.8 65.1c-8.2-.3-12.5 9-15.1 15.4-3.6 8.9-5.4 18.3-8.9 27.2-6.3 16.2-13.9 31.8-19.5 48.2a217.89 217.89 0 0 0-7.2 25.1c-1.8 8.8-2.5 17.7-4 26.6-1.4 8.4-2.9 16.8-3.6 25.4s-.2 17.3-.1 25.9a152.81 152.81 0 0 1-2.3 26.2 82.5 82.5 0 0 0 .3 23.8c1.2 8.5 3.2 16.8 4.2 25.3s1.9 17 3.3 25.5c3 18 7.1 35.9 8.7 54.1 3.5 39.2 6.2 78.2 15.6 116.5 1.4 5.9 10.4 3.4 9.1-2.5-7.6-32.6-11.7-65.8-14.1-99.2a441.79 441.79 0 0 0-6.3-49.9c-3-16.4-5-32.9-7.5-49.4-1.2-8.1-3.1-16.1-4.1-24.3-1-8.5-.2-16.2 1.1-24.7 2.6-16.3-.1-32.8 1.3-49.2.8-8.3 2.3-16.5 3.6-24.8s1.8-16.6 3.5-24.7c3.3-16.3 8.9-32.4 15-47.9 5-12.8 10.1-25.2 13.2-38.6a104.86 104.86 0 0 1 4.6-15.7c1.6-3.9 4.2-10 9-10.5 2.6-.3 2.7-3.7.2-3.8zm484.6 365.4c1.5-7.1 6.3-13.4 9.4-19.9 2.7-5.8 4.7-12 6.9-18 4.9-14.1 11.3-27.4 14.4-42.1 6.8-32.1 14.4-64 20.5-96.2 3-16 5.6-32.1 8.1-48.2 2.4-15.5 5.7-30.9 7.7-46.5a136.63 136.63 0 0 0 1.4-23c-.3-7.8-1.7-15.5-2.2-23.3-.4-7.1-.1-14.1-1.1-21.2-1-7.4-2.3-14.7-3.9-22s-3-16.2-7.5-22.4c-2-2.7-4.5-5-5.9-8-1.7-3.8-1.7-8-2.4-12-1.5-8.4-4.5-23.2-14.5-25.1-3.3-.7-7.7 2.3-6.2 6.2s2.6 8 2 12.2c-.7 4.4-3.6 7.3-6.8 10.2-6.2 5.6-12.9 10.2-17.2 17.6-2.3 4 2.4 9.3 6.6 6.6a90 90 0 0 0 9-6.2c2.6-2.3 4.2-5 6.2-7.8 4.3-6.3 11-10.4 15.8-16.2 5.4-6.5 8-14.4 11.2-22.1 2.9-7.2 7.8-13.2 5-21.3-1.2-3.5-6.6-4.9-8.5-1.1-6.9 13.8-12.9 28.6-23.2 40.3a43.71 43.71 0 0 1-18.2 12.9c-7 2.6-14.8 4.8-21.9 2.5a20.51 20.51 0 0 1-4.1-1.6 4.78 4.78 0 0 1-1.7-1c-1-1 .1 1 0-.1-.4-2.5 2.2-6.8 3.6-8.6 2.1-2.7 5.3-4.4 7.5-7.1 2.6-3.3 3.4-7.5 5.5-11.1 7.7-13.3 21.5-25 34.6-32.8 6-3.5 12.7-5.6 16.8 1.1a43.14 43.14 0 0 1 4 8.4c.3 1 .3 2.7.8 3.6.9 1.4-.9.5.9.4-6 .5-6 9.9 0 9.4 16.3-1.4 5.2-25.6-1.7-31.8-7.9-7.1-18.9-3.3-26.7 1.6a126.86 126.86 0 0 0-23.6 19 117.41 117.41 0 0 0-10.2 12 52.5 52.5 0 0 0-3.8 5.8c-1.5 2.9-2.1 6.3-4.1 8.8-2.9 3.5-6.7 5.5-9.1 9.6-2.1 3.6-4 8.1-3.9 12.4.3 7.9 10.6 11 17 12.1 9.8 1.7 22-2.5 30.6-7.1 20.1-10.9 29.3-34.7 39-54.1-2.8-.4-5.7-.7-8.5-1.1 1.3 3.9-.4 6.4-2.1 9.9-1.5 2.9-2.7 5.9-3.9 8.9-2.7 6.9-5.6 13.5-10.9 18.9-4.2 4.2-9 7.7-12.6 12.5-1.8 2.4-3.2 5.1-5.4 7.2a54.09 54.09 0 0 1-8 5.5l6.6 6.6c5-8.7 14.6-13.1 20.8-20.8s5.7-17.9 2.6-26.7l-6.2 6.2c3.1.7 4.6 6.7 5.4 9.5 1.5 4.8 2.1 9.6 2.9 14.6 1 6.6 4 10.8 8.1 15.8 4.3 5.3 5.5 13.1 7 19.6 1.6 7 2.9 14.1 4 21.2s.7 14.1 1.3 21.3c.5 6.9 1.8 13.6 2.2 20.5a137.77 137.77 0 0 1-1 24c-1.7 15.2-4.8 30.1-7 45.2-2.1 14.9-4.2 29.7-6.7 44.5-5.3 31.1-12.1 61.8-18.1 92.8-1.5 8-2.9 15.9-5.4 23.6s-5.8 15.3-8.5 23.1c-2.4 6.8-4.4 13.6-7.1 20.2-2.8 7.1-7.5 14-8.6 21.6-.4 1.7 2.6 2.7 3 .6z"/><path class="cls-1" d="M2350.9 880.1c-6.3-.2-14.3 1.4-20.1-1.6-6.5-3.3-8.3-10.9-9.5-17.5-.5-2.4-.9-4.8-1.4-7.3-.2-1.4-.5-2.9-.6-4.3 0-.6.1-3.9-.2-2.6s.6-.6 1-1.1c.9-1.2 1.7-2.5 2.5-3.8 2.2-3.6 4.2-7.4 6.3-11a108.91 108.91 0 0 1 12-17.3 26.69 26.69 0 0 1 7.3-6.1c2.7-1.3 5.6-.2 8.4-1.6 4.9-2.4 7.5-8.3 12.7-9.6 2.2-.6 4.4-.8 6.5-1.9 2.6-1.4 4.4-3.6 6.7-5.3 3-2.1 5.4 0 8.3 1.5a52.41 52.41 0 0 0 8.5 3.5c7.6 2.6 10.2 11.2 13.8 17.7 2.8 5 10.5.5 7.7-4.5-3.8-6.7-7-15.5-14-19.6-2.8-1.6-6-2.1-8.9-3.4-3.1-1.3-5.8-3.3-9-4.4-7.5-2.6-10.6 2.9-16.3 6.3-2.4 1.5-5.4 1.4-8 2.5-4.1 1.6-5.6 5-8.8 7.5-2.9 2.3-7 1.5-10.4 3.2a32 32 0 0 0-9.3 7.1c-5.5 5.9-10.1 13.1-14.1 20.1-2.2 3.9-4.3 8-6.6 11.9-1.2 2.1-3.1 4-3.5 6.4-1 5.7 1.2 12.2 2.4 17.7 1.6 7.3 5.5 15.2 12 19.3 7.3 4.5 16.7 1.9 24.6 1.4a1.6 1.6 0 1 0 0-3.2z"/><path class="cls-1" d="M2319.2 812.8a5.73 5.73 0 0 1-.7 4.4c.6-.3 1.2-.7 1.8-1-5.2-.6-8.9 2.2-8.5 7.6.2 3.8 5.7 3.8 6 0 .4-7-1.4-21.4 7-24.4l-3.3-.9c3.1 3.5 5.5 8.8 9.8 10.9 2.5 1.2 6-1.4 4.2-4.2a113 113 0 0 0-9.2-11.5 3.32 3.32 0 0 0-3.3-.9c-12.7 4.7-11.1 20-11.2 30.9 2-.3 3.9-.5 5.9-.8l2.7-2.7a2.16 2.16 0 0 0 2-1.5 11.08 11.08 0 0 0 .1-6.5c-.6-1.5-3.5-1.2-3.3.6zm176.8 399.1c.4-7.5.1-15.1 1.3-22.5 1-6.5 3.3-12.8 5.5-18.9a247.48 247.48 0 0 1 16.1-35.1c13-23.5 30-44.8 41.6-69.1 5.4-11.3 9.4-23.2 14.6-34.6 5.5-12.1 12.2-23.6 16.9-36.1a290.2 290.2 0 0 0 11.2-36.5c1.2-5.5 2.1-11.1 1.5-16.8-.7-6.3-2.8-12.2-4.4-18.3-3.2-12.2-2.7-25.9-.2-38.2s7.2-25 8-37.7c.6-10.7.6-22.8-2-33.3-1-4.1-2.5-8.4-5.3-11.6-3.4-4-8.5-5.7-12.5-8.9-4.4-3.5-7.9-8.1-11.9-12s-8.3-7.6-12.1-11.7c-3.3-3.7-6.1-7.6-5.5-12.8a23.88 23.88 0 0 1 7-13.6 19.18 19.18 0 0 1 12.9-5.9c5.6-.5 11-.8 16.6-1.6 2.9-.4 6.2-.8 9.1-.1 2.6.6 4.7 2.3 7.1 3.5a23.51 23.51 0 0 0 7.2 2.4c1.8.3 4 0 5.7.7 2.1.8 4.2 3.4 5.8 5a37.12 37.12 0 0 1 5.9 6.6c1.1 1.7 2.2 3.5 1.2 5.3s-3.7 3.2-5.4 4a9.15 9.15 0 0 0-4.4 12.1c1.9 4.4 6.1 8.2 8.6 12.5 4.6 7.9 9.6 24.2-4.4 26.2-10.3 1.5-20.8-6.9-30.6-9.1-5.5-1.3-7.9 7.2-2.3 8.5 10.2 2.4 19.2 8.9 29.9 9.5a20.4 20.4 0 0 0 21-16.2c2-9.9-3.3-19.9-8.5-27.9-1.4-2.1-3.1-3.9-4.5-6-1.3-1.9-1.4-.4-.5-1.3.5-.5 1.9-.9 2.5-1.4 3.7-2.6 7.8-6.2 8.4-10.9 1-9.2-9.2-18.8-15.9-23.7-3.7-2.7-6.9-2.3-11.1-3.1-5.7-1.1-9.8-5.5-15.8-6.2s-11.6.9-17.5 1.3c-6.3.4-12.8-.1-18.7 2.6-9.4 4.2-16.9 14.2-18.6 24.4-1.9 11.5 5.1 19.9 12.9 27.4 8.3 8 15.9 17.5 25.9 23.5 5.4 3.2 7.4 6.7 8.7 12.9 1.2 5.7 1.1 11.3 1.2 17.1.2 6.6.5 13-1 19.4-1.7 7.4-3.5 14.8-5.2 22.2-2.9 13.2-4.3 26.6-2.6 40.2.8 6.1 2.7 11.7 4.3 17.6 2.2 7.9 2 14.9 0 22.9-3.2 13.4-7.2 27.3-12.5 40-5.3 13-12.3 25.2-17.6 38.2-6 15-11.6 29.6-19.7 43.6-8.3 14.3-17.1 28.3-25.2 42.7a240.24 240.24 0 0 0-18.8 41.3c-2.5 7.2-4.9 14.7-6 22.3-1.3 8.5-.6 17 0 25.5 0 1.1 2 1.1 2.1-.3z"/><path class="cls-1" d="M2594.8 782.8a10.86 10.86 0 0 1-.1 1.8h4.4a6.27 6.27 0 0 1 .1-2.4c-.2.4-.4.7-.6 1.1a2.73 2.73 0 0 0 .7-1.3 6.72 6.72 0 0 1-.7 1.1 5.12 5.12 0 0 0 2-2.6 21.33 21.33 0 0 0 .3-2.5 3.21 3.21 0 0 0-2.3-3 3.18 3.18 0 0 0-3.5 1.4c-.4.6-.7 1.1-1.1 1.7a3.25 3.25 0 0 0 1.6 4.7 3.39 3.39 0 0 0 4.5-2.2c.2-.6.5-1.3.7-1.9-2-.3-4.1-.6-6.1-.8a14.84 14.84 0 0 0 .3 1.9c.1.3-.1-.7 0-.8-.1 0-.1.4-.2.5a3.32 3.32 0 0 0 .3 3.8c-.2-.4-.4-.7-.6-1.1.2.8.1 2 .3 3 .4 2.4 4.4 1.9 4.3-.6a10.86 10.86 0 0 0-.1-1.8 2.1 2.1 0 0 0-4.2 0z"/><path class="cls-1" d="M2593.9 814.2c-7.9-.3-15.4-4-21.6-8.7-5.8-4.4-4-12.7-11.5-15.8-2.3-1-4.6-.8-7-.9a9.69 9.69 0 0 1-7.3-3.7c-4.2-4.6-7.1-11.1-8.6-17.1-3.2-13.7 3.8-31 19.3-32.3 11.9-1 29.4-10.2 39.7-.8 4 3.6 9.9-2.3 5.9-5.9-10.4-9.3-24-6-36.3-3.1-5.6 1.3-12.1 1.1-17.3 3.3-6.1 2.6-11.1 7.8-14.8 13.1-7.3 10.3-5.7 25-.8 36 2.4 5.3 5.5 10.9 10.2 14.5a14 14 0 0 0 6.8 3c2.5.4 5.3-.5 7.7.2 4.1 1.1 4 6.9 6.2 9.9 2.1 2.8 5.3 4.6 8.3 6.1 6.8 3.5 13.4 6 21.1 5.7 2.1-.3 2.1-3.4 0-3.5zm21.9-74.3c-1.6-1.5-3.3-3.7-2.2-6.1l-2.6.3c2.4 2.7 6.8 3.5 10.1 4.4 4.2 1.1 8.5 2 12.5 3.9 4.6 2.2 7 6.1 10 10.1s6.5 6.5 9.9 9.9c7.3 7.2 5.7 15.6 2.6 24.5-1.2 3.3-2.8 8.3-6.2 10.1-2.2 1.1-3.8.2-5.9-.3a17.85 17.85 0 0 0-6.1 0c-4.7.7-3.6 8.8 1.1 8.3 5-.5 9.1 2.2 14.1-.2 4.6-2.2 7.4-6.7 9.3-11.2 3.8-8.9 7-19.8 2.5-29-2.5-5.2-6.9-8.4-11.1-12.1-4.5-3.9-7.3-9.4-12-13-4.1-3.2-9.2-4.5-14.2-5.5-4.8-.9-10.5-2.9-15.3-2.7a1.75 1.75 0 0 0-1.7 1.7 9.55 9.55 0 0 0 3.4 8.8c1.2 1.1 3.1-.7 1.8-1.9z"/><path class="cls-1" d="M2604.4 826.3c8.9 8.1 24.6 13.8 36.4 9.6 2.1-.8 3.3-1.2 5.5-.3 1.3.6 2.3 1.4 3.8 1.6a12.44 12.44 0 0 0 8-1.7c3.3-1.7 6-4.2 9.2-6.2a30.5 30.5 0 0 0 7.7-6.1c4.4-5.2 7-11.7 8.9-18.2 1.7-5.5 4.3-12 3.6-17.9-1.6-14.1-19.4-16.8-27.5-25.4-3.3-3.4-9.6 1.2-6.7 5.2 3.4 4.7 7.7 7.2 12.7 9.9 4.2 2.2 10.5 5.4 12.4 10.2 1.6 3.8-1 9.4-2 13.1-1.5 5.7-3.2 11.6-6.7 16.5-3.3 4.6-8.9 8.1-13.5 11.2-3.2 2.2-4.3 2.2-7.6.9a10.24 10.24 0 0 0-6.7-.5c-2.6.7-4.7 2.2-7.5 2.5a33.08 33.08 0 0 1-8.9-.2c-6.4-.9-13-3.2-18.1-7.2-2.1-1.6-5 1.1-3 3z"/><path class="cls-1" d="M2553.1 727c4.4-4.1 8.8-8.5 13.9-11.8 5.4-3.5 11-4.6 17.3-4.7 12.5-.3 25.3-1.1 37.3 2.7 10.4 3.4 22.6 8.7 28.3 18.5 6 10.4 4.5 21.8 5.8 33.1.6 5.3 7.8 5.4 8.3 0 1.2-12-.7-26.9-6.9-37.3-6.8-11.4-19.8-17.5-32.1-21.2-14.1-4.4-28.7-2.9-43.2-1.3-13.6 1.5-22.4 10-31.2 19.7a1.7 1.7 0 0 0 2.5 2.3zm42.2 28c-4.3-8.6-13.8-6.6-17.8 1.3s-3.4 20.7 1.7 27.9c4 5.7 13.8 15.6 21.4 10.5 7.3-4.9.3-16.2-3.9-20.7-3.6-3.8-8.9 1.8-5.6 5.6 1 1.2 6.3 7.9 5.1 9-2.5 2.1-10.6-7-11.7-8.6-3-4.3-3.3-10.5-3-15.5.3-5.4 5.1-16.4 11-7.9a1.61 1.61 0 1 0 2.8-1.6zm323.5 449.9c-3.4-3-2.9-7.3-2.6-11.4.3-4.6.4-9.2.3-13.9-.1-10.1-1-20.1-2-30.2-2.1-20.2-2.5-40.4-2.6-60.7-.1-20.6.3-41.2 0-61.7-.3-19.9-1.5-39.7-.6-59.7.5-9.8 1.1-19.8 3.5-29.4 2.3-8.9 5.8-17.4 9-25.9a344.06 344.06 0 0 0 16-53.6c3.8-18.6 4.3-38.3 3.2-57.2-.5-9.2-2.4-18.2-3.4-27.4-1.1-10-.6-20.1-.9-30.1-.5-21.7-4.4-43.1-3.7-64.8.3-10.9 0-21-2.3-31.6-.9-4.1-1.4-8.2-3.8-11.8-2.1-3.1-5-5.6-7.6-8.2-2.8-2.9-8.9-.9-8.5 3.5.1 1.2.2 2.3.4 3.5 2.8-1.2 5.6-2.3 8.4-3.5a7.05 7.05 0 0 0-6.2-2.5 5 5 0 0 0-4.7 6.2c1 5.3 7.1 7.3 11.8 5.7 6.3-2.2 7.7-8.9 5.4-14.6-1-2.5-3.1-3.9-5.8-3.3-8.3 1.9-12.6 17.2-1.3 17.5a4.77 4.77 0 0 0 4.1-7.1c-5.6-9.3-22.5-4.6-20.3 6.8.4 2.1 2.6 3.3 4.5 3.4 8.2.7 16-8.7 12.9-16.6-1-2.6-4.1-4.6-6.8-2.8-2 1.4-4.1 2.5-6 4.1-3 2.5-.6 8.2 3.3 7.9a8.58 8.58 0 0 0 3.5-1.2c3.8-2 2.3-9.2-2.3-8.6.4-.1.1-.1-.8-.7a23.27 23.27 0 0 0-2.6-1.7c-2.3-1.1-4.3-1-6.8-.7-3.2.5-3.9 4.4-2.7 6.8 4.9 10.7 15.3.8 18.6-5.5 2.5-4.7-3.2-8.5-7-5.4a40.2 40.2 0 0 0-5.2 4.9c-3.1 3.5.9 9.6 5.2 6.7 4.1-2.7 5.7-6.6 5.3-11.5-2.1 1.2-4.3 2.5-6.4 3.7a25.69 25.69 0 0 0 8.2 2.8l-3-3c.7 5.1 1 9.5 4.6 13.5s9.5-1.9 5.9-5.9c-2.1-2.3-1.8-5.8-2.2-8.7-.2-1.7-1.1-3.8-3.1-4.1a18.25 18.25 0 0 1-6.1-2c-2.7-1.4-6.7.3-6.4 3.7.1 1.5.4 3.1-1.1 4.1l5.2 6.7a33.9 33.9 0 0 1 4.6-3.9l-6.1-6.1a19.67 19.67 0 0 1-2.6 3.8 12.07 12.07 0 0 0-1.6 1.6c-.1.6 2.3 2.3 1.2 0-.9 2.3-1.8 4.5-2.7 6.8 1-.2 2.7 2 3.5 2.4a6.64 6.64 0 0 0 4.3 1.1c-.8-2.9-1.6-5.7-2.3-8.6-1.3.6-.9.6 1.1-.1 1.1 2.6 2.2 5.3 3.3 7.9-.9.8 1.5-.9 1.8-1.1.8-.5 1.6-1 2.3-1.5-2.3-.9-4.5-1.8-6.8-2.8.9 2.5-1.5 5-4 4.8 1.5 1.1 3 2.3 4.5 3.4.2 1.3-.2.2 1.6.1.5 0 1.4 0 1.6.3 1.4-2.4 2.7-4.7 4.1-7.1 1.3 3.6 2 4.6 2.4 3a3.7 3.7 0 0 1 .5-1.1c.2 0 .7-.9.9-.9-1.9-1.1-3.9-2.2-5.8-3.3a18 18 0 0 1 .6 3.1c-.1-.3 1 2.5.7.7-1.6 2.1-3.1 4.1-4.7 6.2-.3-.1-.5-.2-.8-.3 2.7 3.1 8.8.7 8.4-3.5-.1-1.2-.2-2.3-.3-3.5-2.8 1.2-5.7 2.3-8.5 3.5 2 2.2 4.6 4.2 6 6.9 1.8 3.4 1.7 8 2.4 11.7.9 4.7 2.3 9.1 2.4 14s0 9.9-.1 14.8c-.4 19.5 3.5 38.8 4.4 58.2.5 10.1 0 20.2 1 30.2.9 9.5 3 18.8 3.9 28.2.9 9.6.6 19.4.6 29.1a146.36 146.36 0 0 1-2.7 28.8 333.4 333.4 0 0 1-15.6 53.7c-3.2 8.6-6.6 17.1-8.8 26s-2.9 18.3-3.4 27.5c-1.1 20.2.4 40.3 1.1 60.5s.7 40.5 1 60.8c.4 22.6 1.5 45.1 4.4 67.5a299.17 299.17 0 0 1 2.5 34.1c.1 6.6-2.2 15.4 3.6 20.2 1.1 1.4 2.9-.4 1.6-1.6zm-65.9-53.3c-.7-4.8-2.4-9.4-3.1-14.2-.6-4.6-1-9.3-1.6-13.9-1.2-8.9-3.1-17.6-4-26.5-1.8-18.1-1.9-36.4-3.7-54.5-1.8-17.7 1.1-35.4-1.2-53-1.1-8.1-2.3-16.1-1.8-24.4.5-8.1 1.6-16.1-.4-24a4 4 0 0 0-4.9-2.8c-4.4 1.6-6 4.7-7.9 8.8l7.6 2.1a19.93 19.93 0 0 0-2.4-8.3 4.24 4.24 0 0 0-4.6-1.9c-6.3 2.5-13.2 2.5-19.3 5.8-5.5 3-9.9 7.6-15.4 10.7 1.7.2 3.4.4 5.1.7-5.2-5.2-2.4-15.3.2-21.2l-2.5 1.9c3.7-1.4 6.6-8.4 8.1-11.8 3.4-8-4.6-13.1-6.5-20l-5.2 5.2c7.4 1.2 17.2 1.1 18.3-8.5.3-2.9-.1-6.3 3.7-5.8a36.86 36.86 0 0 1 4.5 1.1c2.7.6 4.7 0 7.4-.7-1.1-.1-2.2-.3-3.3-.4 2.1 1.1 4.2 2.9 6.6 3.2 2.1.2 3.9-.7 5.9-1 4.3-.6 7.5 4.1 11.7 5 1.7.4 3.8.2 4.7 2 .7 1.3.4 3.9.5 5.3a17.23 17.23 0 0 0 1.6 6.3c.6 1.3 2.4 2.8 2 4-.3 1-2.3 2.2-3 3.2a9.67 9.67 0 0 0-2 4.9c-.5 4.5 1.9 6.7 4.4 9.9 3.1 4.1-3.7 8.5-7.7 8.4-4.2-.1-8-5.5-10.7-8.2-4-4-10.2 2.2-6.2 6.2 4.2 4.2 8.4 9.4 14.5 10.5 5.8 1.1 12.2-2.1 16.2-6.2 3.7-3.8 5.2-9.9 2.1-14.6-1.1-1.7-4.6-3.6-3.8-5.8.6-1.8 3.4-3.2 4.3-5.1 3-6.1-2.6-9.2-3.2-14.8-.6-5.4-.8-10.1-6.2-12.9-2.6-1.3-5.5-1.1-8-2.5s-4.4-3.6-7.4-4.2-5.3.8-8 .8c-1.6 0-2.7-1.2-4.2-1.8-2.1-.8-3-.2-5.2 0-5.2.4-9.9-3-14.8.5a12.86 12.86 0 0 0-4.8 7.8c-.2 1.2.2 2.8-.2 3.9-1.1 3-5.2 1.8-7.5 1.4-3.1-.5-6.2 1.9-5.2 5.2a26.24 26.24 0 0 0 3.7 7.5c1.2 1.7 3.6 5.2 3.5 6.4-.3 2.8-3.8 7.1-5.3 9.5l2.5-1.9c-4.8 1.8-5.8 11.2-6.3 15.6-.7 6.4.2 13 5 17.7a4.37 4.37 0 0 0 5.1.7c5-2.9 9.1-6.9 14-9.9 5.7-3.5 12.5-3.3 18.6-5.8-1.5-.6-3.1-1.3-4.6-1.9a7.65 7.65 0 0 1 1.3 4.1c.3 3.6 5.8 6.1 7.6 2.1.6-1.4 1.4-4.7 2.9-5.3-1.6-.9-3.2-1.8-4.9-2.8 2.4 8.3.7 16.8.6 25.2-.1 8 1.5 15.9 2.6 23.8 2.5 17.9 0 36.1 2.2 54.1 2.2 17.7 2.8 35.5 5.3 53.2 1.2 8.9 3.5 17.5 5 26.4.8 4.3 1.3 8.6 2.1 12.9.9 4.6 2.7 8.9 3.6 13.5.3.9 2.2.3 2-.9z"/><path class="cls-1" d="M2819.4 921.9a8.33 8.33 0 0 0-5.4-.1 5.22 5.22 0 0 0-3 4 2.42 2.42 0 0 0 1.1 2.7 4.41 4.41 0 0 0 4.8-.2c1.4-1.1 1.7-2.8 1.7-4.5a2.75 2.75 0 0 0-2.7-2.7c-1.3 0-2.9 1.2-2.7 2.7.1.4 0 .8.1 1.2v-.2c-.1.3-.1.3.1 0a3.73 3.73 0 0 1 .7-.6c.3 0 .3-.1 0-.1h-.1c.6.8 1.2 1.5 1.8 2.3v-.4c0-.3 0-.1.1-.2l.1-.1a7.18 7.18 0 0 1 2.5.1c2.4.5 3.5-3.2.9-3.9zm163 396.5c4.4-4.4 6.1-10.4 7.2-16.4 1.4-7.6 3-15.2 4.6-22.8 4-18.6 6-37.8 8.4-56.6 2.4-19.1 3-38.3 8.3-57 2.5-8.8 5.5-17.4 7.8-26.2 2.5-9.5 3.8-19.2 5.8-28.8q3-14.1 6.6-27.9c1.2-4.6 2.4-9.4 3.9-13.9 1-3 2.7-5.9 3.5-9 3-12.5-11.3-12.6-19.7-11.2-3.9.6-11.1 5.7-10.1-1.5.7-4.8 3.5-9.7 6.4-13.5a54 54 0 0 1 6.4-7.1c3.3-2.9 6.6-2.9 10.8-3.1 7.2-.3 11.8-3.9 17-8.4 2.7-2.4 6.1-5.2 9.8-3 3 1.8 4.6 6.3 6.1 9.2 1.8 3.5 4.2 6.8 3.7 10.9-.4 3.9-2.4 7.6-3.6 11.3-1.4 4.5-1.2 15.7-6.1 18-4 1.8-9.5-.6-13.4-1.8-4.7-1.4-9.1-2.6-14-2-5.2.6-5.5 8.8 0 8.4 9.3-.6 17.5 5.5 26.9 4.3 6.4-.8 10.3-5.1 12-11.1.8-2.9 1.1-6 1.8-9 .9-4.1 2.6-8 3.9-12 2.5-7.7.5-13.3-3-20.3-3.2-6.2-6.2-13-13.6-15s-12.8 2.6-17.9 7.1c-3.1 2.7-5.9 4.6-10.2 4.7-3.8.1-7.5.2-11 1.9-5.7 2.7-10.3 8.5-13.8 13.6-5.2 7.4-12.7 25.1.6 29.1 5.2 1.5 10.1-2.4 15.3-2.7 1.2-.1 7-1 7.9-.1s-2.3 6.9-2.8 8.3c-3.4 9.5-5.3 19.9-7.5 29.8-2.3 10.7-4.3 21.4-6.1 32.1-3.3 19.7-11.3 38.1-13.9 58-1.6 11.6-2.1 23.3-3.3 35s-2.7 23.4-4.1 35.1c-1.4 11.9-4 23.3-6.1 35-1.5 8.4-1.2 18.9-7.5 25.4-1.9 2.2 1.1 5.1 3 3.2z"/><path class="cls-1" d="M3047.9 1050.8c3.2-2.6 4.5-6 3.2-10a1.73 1.73 0 0 0-1.3-1.3 4.57 4.57 0 0 0-5.1 2.1c-1.7 2.3 2.2 4.5 3.8 2.2 1.5-2.1 2.8-4.3 4.1-6.5s-1.4-5.3-3.8-3.8c-4.1 2.6-6.1 6.4-5.3 11.3.7 4.4 7.9 2.6 6.8-1.9a4.08 4.08 0 0 1 1.3-4.7l-3.8-3.8c-1.2 2.5-2.4 5-3.4 7.6l4.3 1.2.6-.3-1.5-.9c1.3 2.8.3 4.8-1.8 6.8a1.38 1.38 0 0 0 1.9 2zm-1557.5 214.3c6.6-2.1 7.1-11 8.2-16.7a211.6 211.6 0 0 0 3.1-36.5c.1-27.6.5-55.1.8-82.7.1-12 1.2-24.7-1.9-36.4-1.2-4.5-3.4-9.9-8.4-11.2-5.9-1.6-11.9 3.3-12.5 9.1-.9 8 8.7 14.2 14.9 8.1 5-4.9 6.1-15.4 2.2-21.2a4.58 4.58 0 0 0-4.9-2c-10.4 1.6-10.1 14.2-4.4 20.7 8.4 9.6 17.1-2.6 16.1-11.6-.7-6.5-6.7-11-13.1-7.7-4.4 2.2-5.9 7.9-5.8 12.4.1 4.9 2.4 10.2 7.6 11.4 6.3 1.4 10.2-5.3 11-10.7 2.1-13.8-15-17.6-21.8-6.7-6.5 10.4 1.1 26.7 14.6 20.9 11-4.8 16-23.6.8-26-4.8-.8-10.9.8-13.5 5.3-2.9 5.2.2 11.9 6.1 12.4 13.1 1 20.2-23.3 4.8-23-12.1.2-16.1 20-14.9 29.2.8 5.7 9.5 3.3 8.6-2.4-.7-4.7 1.4-13 4.7-16.7a3.14 3.14 0 0 1 1.9-1.3c-.5 0 .1-.5-.3.7-.8 2.6-2.5 5.5-5.5 4.3l2.6 2c-1.5-2.6 5.1-2.9 6.3-1 2.5 3.9-5.4 11.2-9.1 8.2-3.2-2.6-.9-9.3 2.5-10.6 6-2.4 3.2 6 .9 8.1 1-.4 2-.8 3-1.3-2.8.2-2.2-4.8-1.3-6.6s.8-1.2.8.5c0 1.5-1.6 4.4-1.3 5.8-.1-.3 1.1-.6 1.2-.4s-.4-.4-.4-.3c-.1-.8-1.5-2.3-1.8-3.2-.8-2.4-.7-3.7 1.9-4.1-1.6-.7-3.3-1.3-4.9-2 1 1.6 1.9 10.6-.5 11.3-2.1.6-1-5.5 2.1-3.7 2.4 1.4 3 7.5 3.3 9.9a108.29 108.29 0 0 1 1 13.9c.7 31.9.1 63.8.7 95.7.2 11.1.8 22.4-1.1 33.4-.7 4.1-1 16.6-5.6 18.1-2.8 1-1.6 5.6 1.3 4.6zm84 18.2c-3.4-4.3-2.1-9.7-1.8-14.6.3-6.3.6-12.6 1.3-18.9 1.4-12.4 3.7-24.7 5.6-37.1 3.6-23.8 6.6-47.7 7-71.8.1-7.1 2-14.6.8-21.6-1.2-7.3-9.2-10.2-15-5.6-5 3.9-6.2 12.3-2.8 17.7 3.6 5.6 10.7 4.4 14.2-.5 3.7-5.2 4.9-13.4 3.4-19.6-.7-2.8-2.2-5.9-5-7.2-4.3-2.1-8.6 2.4-10.9 5.5-2.9 3.9 3.8 9.2 6.9 5.3a10.66 10.66 0 0 0 2.5-6.1c.4-4.8-5.9-5.3-8.1-2.2a11.38 11.38 0 0 0-2.3 8.7c.4 3.3 4.8 6.4 7.5 3.1 3-3.6 4.2-8.2 1.8-12.5-2.1-3.7-6.4-6.3-10.6-4.6-4.6 1.9-6.9 7.8-5.9 12.4 1.3 5.9 6.8 8.1 12.2 6.8 5.9-1.4 3.4-10.3-2.5-9-1.5.3-.1-.3-.8-.8.4.3.6-3.3-.5-1-.3.6 1.2 1.3.1 2.6 2.5 1 5 2.1 7.5 3.1a5.09 5.09 0 0 1 1.1-4.3c-2.7-.7-5.4-1.5-8.1-2.2-.2.3-.4.5-.6.8 2.5 1.5 5 2.9 7.5 4.4a7.84 7.84 0 0 1 3.3-2.4h-4.4c2.3 1.2 1.3 7.3.9 9.3a19.31 19.31 0 0 1-2 5.2c-.4.8-.8.3-.2.7.4.2-.2-1.6-.3-2.1-.2-1.6.2-6 2.8-5.1 1.6.5 1 4.8.9 6.2-.2 5.1-.8 10-.7 15.1.2 33.8-5.5 67-9 100.5a250.1 250.1 0 0 0-1.3 27.4c.1 5.8-.6 11.7 4.3 15.8.8.5 1.9-.6 1.2-1.4zm370.1-29.4c-.4-7.6 1.5-14.9 3.1-22.2s2.7-14.7 4.3-22c3-14.4 6.6-28.6 9.5-43a470.89 470.89 0 0 0 9.4-86.2c.1-6.6-.3-19.5-8.7-21.5-3.6-.8-7.5 3-9.6 5.4-3.1 3.4-5.8 7.9-5.9 12.6-.3 8.7 8.7 13.8 15.4 8 4.9-4.2 9.5-14.1 4.1-19.6-3.4-3.6-9.7-1.4-11.6 2.8-2.2 4.7.3 9.8 5.8 9.7 10-.2 10.1-15 2.8-19a4.52 4.52 0 0 0-4.5 0 12.26 12.26 0 0 0-5.3 13.4c1.4 5.4 6.6 7.7 11.6 5.1a8.62 8.62 0 0 0 4.1-10.3c-1.5-4.8-6.3-6.8-11-6.6a4.61 4.61 0 0 0-4.5 4.5c.4 7.6 5.9 13.8 9.7 20.1 2.8 4.7 10 .5 7.4-4.3s-7.7-10.3-8-15.8l-4.5 4.5c1.6-.1 4.3.3 1-.1 1 .4 2.1.9 3.1 1.3-.9-1.2-.2-3.5.9-4.2h-4.5c1.4.7.2.9 1 2l-.3.9a3 3 0 0 0 1-.4c.7 1.3 1.4 2.5 2.2 3.8 0-.1.1-.3.1-.4-1-.4-2-.8-3.1-1.3 1.6 1.5-2.7 8.6-3.9 8.1-2.1-.9.5-5.8 1.2-6.8a15.19 15.19 0 0 1 6.3-6h-4.1c4.5 2.3 4.1 9.8 4.1 14.1.1 7.4-.1 14.7-.5 22.1a522.91 522.91 0 0 1-5.5 53c-2.8 17.1-6.6 33.9-9.7 50.9-1.5 8-2.6 16.1-4 24.1-1.4 7.8-3 15.5-2.2 23.4.1 2 3.5 2.1 3.3-.1zm117.7-39c.3-17.3 0-34.8.9-52.1s3.6-34.4 5.3-51.6c1.7-16.5 1.7-33.2 2.6-49.8.8-13.8 2.1-29.4-2.4-42.7-1.9-5.6-6.1-11.1-12.7-9.2-5.8 1.6-8.3 8.5-6.2 13.9 1.1 2.9 4.1 4.4 7 2.9 5.4-2.9 11.9-14 6.2-19.4a4.86 4.86 0 0 0-6.8 0 10.52 10.52 0 0 0-2 2.7c2.8 1.6 5.5 3.2 8.3 4.9 3.2-6 1-12.6-5.9-14.2a5 5 0 0 0-5.4 2.2c-3.4 4.6-3 10.3-1.4 15.5.5 1.5 1.7 3.2 3.4 3.4l2.5.3c6.1.8 8.7-8.5 2.6-9.3l-2.5-.3 3.4 3.4c-.9-2.9-1.5-5.5.4-8.1-1.8.7-3.6 1.5-5.4 2.2.6-.8.7-.8.2.1-2.9 5.4 5.2 10.2 8.3 4.9.2-.2.3-.5.5-.7h-6.8l.3.3c-.5-1.1-.9-2.3-1.4-3.4.4 3.1-.3 5.9-3.1 7.5 2.3 1 4.7 1.9 7 2.9-.4-1.1-.1-1.9-.8-2.4.8.5 1.2 1.9 1.5 2.7a39.27 39.27 0 0 1 1.8 7.7c1.4 8.3 1.4 16.8 1.2 25.2-.4 17.4-.4 34.9-1.5 52.2-1.2 17.9-3.8 35.6-4.4 53.5-.6 18.3.4 36.7.7 55-.1 2.8 4.6 2.8 4.6-.2zm392.5-40.2c6.5-7 7.1-16.1 10.3-24.7 4-10.9 8.8-21.4 13.4-32.1 6.5-15 12.3-30.1 17.6-45.5 7.2-21.4 15.1-43.8 16.5-66.4.5-8.2-.2-21-10.3-23a5.06 5.06 0 0 0-4.7 1.2 26.82 26.82 0 0 0-6.1 16.2c-.1 6.6 4.8 12.6 12 10.9 6.4-1.5 6.6-12.2 6.3-17.4-.3-5.6-3.3-13.8-10.5-9.8 1.7 2.9 3.4 5.8 5 8.6a6.23 6.23 0 0 0 3.2-3.9c.7-2.3-.6-4.3-2.3-5.6a9.35 9.35 0 0 0-2.9-1.2c-6.2-1.8-8.9 7.9-2.7 9.7.2.1.3.1.5.2-.8-1.9-1.5-3.8-2.3-5.6 0 .1-.1.3-.1.4.8-1 1.5-2 2.3-3-.3.2-.5.3-.8.5-5.5 3.3-.6 11.8 5 8.6-.2.1-4.7-1.3-4.8-1.2s.3 1.3.3 1.5a32.7 32.7 0 0 0 .1 4.4c-.1 2.1-.2 4.7-1.3 6.6 1.4-.8 2.8-1.6 4.3-2.4-.5.1-2.1-.1-1.6.2.3.2.4.8.2 0a7.34 7.34 0 0 1 .2-3.6c.4-2.3 1.5-5.6 2.8-7.2l-4.7 1.2c1.5.3 1.2 0 1.8.9a13.16 13.16 0 0 1 1.2 3.1c.9 3.8.7 7.9.4 11.8-.8 11.1-3.5 22.1-6.3 32.9a553.66 553.66 0 0 1-21.7 66.4c-4.4 11-9 22-13.3 33.1a128.19 128.19 0 0 0-4.9 14.8c-1.3 5.6-2.1 11.2-5.8 15.9-2 2.4 1.4 6 3.7 3.5zm192.1 3c20.5-19.6 23.3-49.4 32-74.9 5.6-16.6 12.4-32.9 16-50.1a112.07 112.07 0 0 0 2.6-24.5c-.1-5-1.4-10.8-6.3-13.2-11.6-5.4-16 10.8-14.5 19 1.4 7.8 8.7 10.5 14.7 5.2 4.6-4.1 8.5-11.8 6.5-18a9.38 9.38 0 0 0-8.5-6.3c-5.5-.2-8.3 6.5-8.2 11.2 0 5 3.2 11 8.9 10.9 6.5-.1 9.4-7.3 8.4-12.8s-5.8-10.6-11.8-8.5c-8 2.9-3.3 13.3 1.4 16.8 4.4 3.3 8.4-3.4 5.5-7.1a4.43 4.43 0 0 1-1.2-3.6c-.7 1-1.5 1.9-2.2 2.9-1.5-.5-2-.4-1.3.5a4.53 4.53 0 0 1 .3 1.6c.2.3-2.6 5.8 2.5 1a7.09 7.09 0 0 1-.6-1.9c.4-1.4.1-2 1.3-3.1-1.1.5-2.3.9-3.4 1.4.9.1.2-.5.2 0a10.39 10.39 0 0 1-.7 3.1 39.48 39.48 0 0 1-3.8 5.3c0-.3 0 .4-.3.1a10.11 10.11 0 0 1 1.7.3c.8-.4-.2 1 .3.2.2-.3-.4-2-.5-2.4a13 13 0 0 1 .2-4.8 18 18 0 0 1 1.5-3.1c2.2 0 1.8 8.6 1.8 9.7-.1 17.9-5.5 35.4-11.1 52.2-4.9 14.7-9.1 29.3-13 44.3-4.3 16.1-9.5 32.6-21.6 44.7-3 2.6.7 6.3 3.2 3.9zm290.1-15.9c6.7-5.6 6.6-16.2 8.5-24.1 3.3-13.3 6.8-26.5 9.9-39.9 2.1-9.5 3.8-19 6.3-28.4 1.5-5.9 4.2-14.9-1.9-19.1a3.7 3.7 0 0 0-3.8 0c-5.7 3.9-6.5 11.8-.5 16.1 6.7 4.9 12.9-2.8 14.3-9.1a19.9 19.9 0 0 0-4.4-17.8c-4.8-5.3-12.9-3.9-12.5 4.3.3 4.8 6.4 5.4 8.1 1.1 1.2-3.1-2.7.6-2.7 0 0 .2 1.1 1.1 1.4 1.4a10.1 10.1 0 0 1 1.8 4.1c.7 3.8 0 8.1-3.6 10.1 1.1-.1 2.1-.3 3.2-.4-2.4-.8-2.2-2.5-.5-3.9l-4.6.6c2.6 1.5-1.7 14-2.3 16.5-2.3 9.3-3.1 19-5.1 28.4-2.3 11-4.8 21.9-6.9 32.9-1.4 7.7-.7 19.4-6.6 25.3-1.2 1.2.6 3 1.9 1.9zm124.7 114.4c11.6 2.2 19.4-9.2 24.7-17.8a254.34 254.34 0 0 0 21.2-42.8c13.3-34.5 25.7-70 32.1-106.6 3.3-18.7 4.7-37.5 6.3-56.4 1.7-20.2 3.2-40.4 3.7-60.7.9-40.2-5.2-79.5-9.7-119.3-1.2-10.7-2.9-21.5-3.3-32.3-.3-8.2 0-17.2-4.9-24.3-3.8-5.6-10.1-8.4-16.9-8.2-8.7.2-18.8 2.6-27 5.6 1.2.2 2.4.3 3.6.5-5.1-3.9-7.6-9.1-13.9-11.7-4.9-2-8.9-5.1-10.7-10.5-1.6-4.9-.1-10.3 1.4-15.1 1-3.2 2.9-10.7 6.6-11.6-1.5-.4-3-.8-4.4-1.2a24.11 24.11 0 0 0 8.9 6.6c3.9 1.7 6.3.5 10.3-.8 2.2-.7 4.8-2.5 7.1-2.9 3.3-.5 6.8 2.6 9.6 3.9 5.8 2.6 11.6.6 16.3-3.2 2.1-1.7 3.8-3.8 6.7-3.8 2 0 4.3 1 6.2 1.6 4.9 1.6 10.2 3.7 14.2 7 3.2 2.6-1.4 8.4-3.7 11.3-9.2 11.3-24.1 20.3-39 19.1-5.5-.4-5.4 8.1 0 8.6 13.4 1.3 27-5 37.1-13.5 6.9-5.7 17.3-16 15.3-26-1.7-8.2-13.7-12.3-20.5-14.7-3.5-1.2-7.5-2.5-11.3-2.2a13.87 13.87 0 0 0-7 2.8c-2.5 1.8-4.8 4.9-8 5.3-3 .4-6.2-2.4-9-3.6s-5.8-2.1-8.9-1.4c-2.6.6-5 2.1-7.5 2.9-2.3.7-3.7 1.6-5.9.4a14.06 14.06 0 0 1-4.4-4 4.76 4.76 0 0 0-4.4-1.2c-6.6 1.6-9.8 8.9-12 14.6-2.4 6.3-4.2 13.5-3.2 20.3 1.1 7.2 6.2 14.9 12.8 18.2 3.2 1.6 6.2 2.2 8.8 4.8s5.1 7.4 8.9 8.4c2.2.6 4.3-.7 6.4-1.3s4.4-1.1 6.6-1.5c4.7-.9 9.8-2.4 14.6-2.4 8.2.1 10.8 7.1 11.5 14.3 1 11.1 1.9 22.2 3.2 33.3 1.2 10.7 2.7 21.4 4.2 32 3.1 22.8 6.3 45.6 7.3 68.6s.1 45.8-1.4 68.6c-1.4 22.6-2.5 45.5-5.9 67.9a389 389 0 0 1-14.6 62.1c-7.2 22.5-14.1 45.5-23.5 67.1a234.92 234.92 0 0 1-13.8 26.3c-4.2 6.9-10.5 17.4-20 16-1.9-.1-2.7 2.6-.8 2.9z"/><path class="cls-1" d="M3076.7 763.8c-8 1.5-8.7-14.2-8.2-19.2 1.1-10.3 12.9-10.9 21.1-10.3 6.2.4 11.4 3 17.3 4.5 6.1 1.6 12.3 2.1 17.6 5.8 7.9 5.5 17.3 14.2 20 23.6l2.4-4.2c-.6.2-1.2.3-1.8.5-4.3 1.2-2.5 8 1.8 6.7a12.09 12.09 0 0 1 1.8-.5 3.37 3.37 0 0 0 2.4-4.2c-1.9-6.3-6.1-11.7-10.6-16.4-4.5-4.9-10-10-16-13-3.8-1.9-7.9-2.6-11.9-3.4-4.6-.9-8.8-2.4-13.2-3.7a42.48 42.48 0 0 0-19.1-.9c-5.3.9-11 3.1-14 7.9-2.3 3.6-2.2 8.2-1.8 12.3.6 6.5 3.6 18.9 12.7 16.5 1.3-.3.8-2.2-.5-2z"/><path class="cls-1" d="M3090.4 726.2a4.13 4.13 0 0 1 7.9-.8c1.1 2.5-2.3 6.3-3 8.7-1.1 3.6 5 4.7 5.3.7.2-2.8 2.1-5.1 2.1-8 0-2.7-1.9-5-4.1-6.4-4.6-2.7-10.4-.4-11.2 4.9-.3 2 2.6 2.9 3 .9zm-354.3 474.4c5.7-13.2 3.8-27.8 3.6-41.8-.3-17.7.3-35.5.5-53.3s-.5-36.1.6-54c1.1-17.6 6.3-34.5 6.7-52.2.2-8.6-.1-17.2-.2-25.8a180.61 180.61 0 0 1 2.1-26.4c2.1-16.6.8-33.3 2.8-49.9 2.1-17.7 9.1-33.7 15.2-50.3a113.71 113.71 0 0 0 6.4-24.2c1.2-8.5 2.3-16.9 4.1-25.3 2.1-9.5 4.6-18.9 6.7-28.4 1.5-6.8 3.7-13.7 4.5-20.6 1.1-9.6-12.9-21.1-17.7-8.6a3.52 3.52 0 0 0 1 3.6c2.7 2.8 4.7 7.4 8.2 9.2 1.7.8 3.1.5 4.2 2.1.8 1.3.9 3 2 4.3 3.7 4.2 8.5 3.3 12.3-.1a52.61 52.61 0 0 0 9.8-12.7c2.1-3.6 4.6-8 2.9-12.2.1 1 .3 2 .4 3 1.9-7.8.1-14.4-.3-22.2-.3-6.8.1-14-3.8-19.9-6-9.1-21.5-13-29-3.4-.8 1-1.5 3-2.6 3.6-1.3.7-3.8.1-5.2 0a19.85 19.85 0 0 0-9.9 1.5c-6.2 2.6-10.6 7.9-15.5 12.3s-9.7 8.3-12.5 14.3a29.12 29.12 0 0 0-1.7 19.5c1.8 7.1 5 14.4 7.9 21.1 2.7 6.3 6.5 12 12.3 15.8 6 4 12 4.1 18.8 3 7.9-1.3 13.3 1.4 20.3 4.8 5.9 2.9 12.6 5.2 19.2 3.5 6-1.5 9.2-6.5 13.7-10.3 5.3-4.5 12.5-5.5 17.4-10.7a26.74 26.74 0 0 0 6.8-14.6c1.8-12.8-2.8-25.9-8.2-37.3-6.9-14.6-20-21.3-35.9-20.7-5.9.2-6 9.2 0 9.2 6.6.1 13.6 1.1 19.2 4.9 4.9 3.3 7.5 8.6 9.9 13.8 4.3 9.5 8.7 21.7 5.6 32.2-1.9 6.3-6.5 9.4-12.2 12-6.2 2.9-9.6 7.4-14.7 11.7-5.7 4.8-13 1.3-18.7-1.6-5.9-3-11.7-5.8-18.5-5.4-7.1.4-12.9 2.9-19.3-1.9-6.1-4.5-8.5-11.9-11.1-18.7-2.7-7.3-6.7-14.3-5.2-22.4 1.2-6.3 5.6-10.8 10.3-14.8 5-4.3 9.7-10.7 16.1-12.9 5.6-1.9 12.3 1.9 17.1-2.9 2.4-2.4 2.9-5.2 6.5-6.3a10.75 10.75 0 0 1 8.4 1.1c6.6 3.7 6.3 11.2 6.6 17.8.1 4.1 1 7.9 1.5 12s-.7 7.8-.7 11.8c0 1.9.6-.9-.2.6-.4.8-.7 1.8-1.1 2.7a59.81 59.81 0 0 1-3.8 6.4 48.48 48.48 0 0 1-4.9 6.1c-.5.5-1.1 1.3-1.8 1.5-1.5.5 0 .2.1.2-.8-.6-.6-1.9-1-2.6a11.22 11.22 0 0 0-6.4-5.7c-3.6-1.5-5.2-5.2-7.9-8 .3 1.2.6 2.4 1 3.6-.1.3-.9-.8-.3 0 .2.3.8.5 1.1.7a7.78 7.78 0 0 1 2 2.4c.9 2 .2 4.3-.3 6.4-1.3 5.9-2.7 11.8-4 17.7-3.5 15.3-7.6 30.4-9.6 45.9-1 7.8-1.9 15.4-4.4 22.9-2.6 7.7-5.7 15.3-8.5 22.9-5.5 14.6-9.1 29-10.2 44.6-1 15.3-.4 30.5-2.4 45.7-2.1 16.2-1 32.2-1.1 48.4s-4.2 31.6-5.6 47.5c-1.4 16.1 0 32.7.2 48.8l.6 55.3c.2 15.9 3.8 33.4-2.6 48.5-.7 1.5 1.8 2.6 2.4 1.2z"/><path class="cls-1" d="M2768.4 739c-4.1-.8-10.1-5.4-10-9.9.1-4.8 6.4-8.3 10.5-9.1 5.7-1.2 11.1 2.3 16.3 4.1s10.4 2.1 15.7 2.2c4.5.1 4.5-6.9 0-7s-8.8-.2-13.1-1.4-8.3-3.3-12.8-4a20.69 20.69 0 0 0-17.1 5.5c-3.9 3.6-6.1 9.1-3.5 14.1 2.5 4.8 8 9 13.5 9.1 2.1.1 2.6-3.2.5-3.6zm35.5.5c5.4-.3 26 5 17.6 13.5-4 4.1-21.2 6.1-23.5-1-1.3-4-7.7-2.2-6.2 1.7 4.4 11.8 26.7 10.7 33.7 2.2 10.7-12.9-12.3-20.8-21.6-19.7-2.1.2-2.2 3.4 0 3.3zM582.5 1174.7c-9.6 10.3-23-18.5-25.4-24.6-5.8-14.9-8.1-31.5-8.5-47.3-.9-34.5 7.8-67.8 10.9-102 .8-9.1.5-18.2.8-27.3.3-8.8 1.5-17.5 2.2-26.2 1.4-17.8 1.8-35.7 1.9-53.6.1-35.7-.9-71.5-.4-107.2.2-13.5.6-27.2-.8-40.6-.8-7.3-2.5-21.8-13.2-19.5 1.8 1.4 3.6 2.7 5.4 4.1-.4-4.2.3-8.8-.6-12.9-1-4.4-6.9-3.7-8.2 0-.8 2.3-1.7 5.5.5 7.3 1.1.9 2.7 1.7 4.1 1.1 5.8-2.2 6.2-10.2 2.8-14.5a4.16 4.16 0 0 0-4.1-1.1 11.2 11.2 0 0 0-8.5 8.5 4.34 4.34 0 0 0 1.1 4.2c4.8 4.1 10.3 2.5 13.1-3.1 1.9-3.7-2-8-5.9-5.9a18.77 18.77 0 0 0-5.9 5.3l7.8 3.3c2.2-7.9-5.9-13-12.6-9-5.2 3.1-7 9.8-8.6 15.2-1.5 5.2-1.6 12.2-7.9 13.4-7.6 1.4-16.8-2.2-23.2-6.1-3.3-2-5.6-4.2-6.4-8-.9-4.8-1.2-9.2-3.3-13.6-4.9-10.7-12-20.3-6.5-32.3 4.5-9.8 8.6-20.2 14.8-29 6.8-9.6 16.9-17.2 25.8-24.8 8-6.9 15.3-16.2 26.2-18 4.4-.7 9-.5 13.5-.5 5.8 0 11.7-.5 17.5-.1 10.2.8 19.4 7.6 27.7 13.1s15.1 11.7 17.1 21.9c2 10.5.4 22.1-5.2 31.3-5.3 8.8-13 18.6-21.8 24.1-9.4 5.9-20 5.5-30.7 6.1-6.4.4-10.7-.8-16.5-3.3-4-1.7-8.2-2.3-12.3-3.5-4.4-1.3-6.3-5.7-8.1-9.6s-3.4-6.8-1.2-10.6c3.8-6.4 12.2-13.2 19.5-15 1.9-.5 4.2-1 4.8.2.8 1.6-.4 5.4-.5 7.2-.3 6 2.7 10.6 9.1 10.2 5.4-.3 5.5-8.8 0-8.5 1.3-.1-1.3.1-1 .2s.7 1.6.4.4a12.1 12.1 0 0 1 .1-2.6c.2-2.7.8-5.3.4-8-1.1-7.6-8.1-9-14.6-7.7-8.1 1.7-16.2 7.9-21.6 13.9a25.72 25.72 0 0 0-6.1 9.8c-1.3 4.3.3 8.4 2 12.4 3.8 8.8 7.9 14.9 17.6 16.9 5.5 1.2 10.3 3.9 15.6 5.6 6.2 2 12.7.9 19.1.8 11.6-.2 23.2-2.5 32.6-9.6 9.1-6.9 17.8-16.9 22.9-27.1a55.26 55.26 0 0 0 4.4-34.2c-2-10.9-8.1-18.7-16.8-25.2-4.2-3.1-8.6-5.9-13.1-8.6-4.9-3-9.7-6.3-15.3-7.8s-11.5-1.5-17.3-1.4c-6.2.2-12.5-.1-18.6.3a38.94 38.94 0 0 0-13.4 3c-5.6 2.5-9.7 6.6-14.2 10.7-10.1 9.2-21.2 17.5-30.4 27.7-8.4 9.3-12.9 20.8-18.2 32-2.5 5.3-4.9 10.4-4.9 16.3 0 6.3 2.4 12.3 5 17.9 2.9 6.4 6.1 11.5 7.1 18.6.7 5.5 2.5 9.7 6.8 13.3 7.5 6.2 18.6 10 28.2 10.2 9.4.2 15.2-4.4 17.8-13.1 1.2-4 1.9-8.1 3.4-11.9a13.64 13.64 0 0 1 2-4 12.67 12.67 0 0 1 1.3-1.1c.2 0 .3-.1.5-.1.8.1.5-.1-.7-.5-1.4 5 5 6.9 7.8 3.3a7 7 0 0 1 2.8-2.3l-5.9-5.9c-1 1-.8 1.4.3 1.3.4 1.4.7 2.8 1.1 4.2.4-1.7.8-2.1 2.5-2.6-1.4-.4-2.8-.7-4.1-1.1-.2-.2-.4.5-.4.7.2 1.1-3.2 1.3 1.3-.4 1.4.4 2.8.7 4.1 1.1l-.1-.1 1.2 3c0 .1.4-1.6.6-2h-8.2c-.3-1.4 0 1.3 0 1.6 0 1 .1 2 .1 3.1.1 2 .1 4 .3 6a4.38 4.38 0 0 0 5.4 4.1c-.8.2-.1.3.5 1.6a26.48 26.48 0 0 1 1.6 6.3 117.45 117.45 0 0 1 1.1 13.2c.5 15.4.2 30.9.1 46.3-.3 36.1 1.5 72.2 1 108.3-.3 18.2-1.4 36.2-3 54.4-.8 9.1-.5 18.3-.7 27.4a229.33 229.33 0 0 1-2.9 27.4c-5 33-10.9 67.2-6.2 100.5 2.4 16.8 6.7 34.2 17.1 48 5.1 6.8 16.1 19 24.1 9 .9-1.6-1.3-3.9-2.8-2.3z"/><path class="cls-1" d="M555.3 660.3c1.4-4.7 11.9-.4 14.8.6 6.8 2.5 9.4 7.8 14.5 12.3 2.5 2.2 7 .1 5.9-3.4-2-6.3-8.5-10-14.2-12.5s-12.7-5-19.1-3.8c-3.6.6-3.3 5.3-.9 7s5.1 3.6 7.6 5.5c3.4 2.5 7.8-3.1 4.5-5.8-2.7-2.2-5.4-4.3-8.2-6.3-.3 2.3-.6 4.7-.9 7 4.2-.7 9.3 1.1 13.1 2.6s10 4 11.4 8.1c1.7-1.3 3.4-2.6 5.2-4-3.8-2.8-6.7-6.9-10.8-9.3a33.56 33.56 0 0 0-10.8-3.6c-4.9-1-14-2.3-15.2 4.6-.5 2.1 2.5 3.1 3.1 1zm10.8 51.9c-8.7-2.3-9.1 4.7-5.8 10.8 5 9.4 12.4 14.9 23.3 15 7.5.1 13.9-2.6 20.3-6.2 5.7-3.2 11.7-7 14.8-13.1 1.7-3.4 2.4-7.1 4-10.5 1.4-2.8 3-5.5 3.6-8.5 1.7-7.9-4.3-12.9-5.6-20.1-1-5.3-9.4-3.1-8.2 2.3 1.1 4.7 4.5 8.2 5.9 12.7s-1.9 8.8-3.5 12.9c-2 5.4-2.9 10.1-7.5 14a61.31 61.31 0 0 1-13.1 8.2c-8.1 3.7-18.6 4.2-25.2-2.4a30.82 30.82 0 0 1-5.6-7.3c-1.6-2.9-2.8-5.8 1.7-4.7a1.61 1.61 0 1 0 .9-3.1zm-39.4 27.3c7.3.9 13.1-1.4 18.6-6.3 1.6-1.4.2-3.8-1.6-3.9-5.9-.3-12.1 1.7-17.9 2.5-2.8.4-15.6 3.2-16.8-.9-1.2-4.4-7.2-2.4-6.6 1.8 2 14.1 33.5 1.9 41.2 1.2-.5-1.3-1.1-2.6-1.6-3.9-4 4.8-9.2 6.6-15.3 6.1-2.3-.2-2.2 3.2 0 3.4zm-16.6-39.1a7.32 7.32 0 0 1-1.7-2.6 28.86 28.86 0 0 1-.4 2.9c1.2-1.2.9-2.4.6-3.9a10.75 10.75 0 0 1 .1-3.1 3.3 3.3 0 0 0-2.2-3.9c-1.5-.4-3.6.5-3.9 2.2-.4 2.7-.4 5.5 1.1 7.9a2.85 2.85 0 0 0 2.5 1.4h.2l-2.1-1.2a13.75 13.75 0 0 0 3.3 3.5c2 1.4 4.1-1.6 2.5-3.2z"/><path class="cls-1" d="M549.6 718.7c-1.5 1.6-2.3 1.9-4.3 1.6.6.4 1.3.7 1.9 1.1-2.7-5.4-5.4-12-12-13.5A17.83 17.83 0 0 0 525 709c-2.7 1-5.7 3.3-8.6 2.4-3.7-1.2-6.7-6.5-8.4-9.7a33.47 33.47 0 0 1-3.6-12.4 40.16 40.16 0 0 1 4.6-22.8c4-7.4 10.7-13.1 16.7-18.9 6.8-6.6 15.6-14.7 25.9-13.7 4.5.4 8.7 2.3 12.8 3.8 5.1 1.9 10.2 2.9 15.5 4.2 9.1 2.2 13.8 9.1 18.8 16.4 3.2 4.6 6.4 9.2 9.3 14 1.1 1.8 8.1 12.5 6 14.7-3.4 3.6 1.9 9 5.5 5.5 4.6-4.5 1.7-11.6-.6-16.6a128.53 128.53 0 0 0-11.7-19.1c-4.8-7-9.4-14.7-16.9-19.1-4.8-2.8-10.2-3.4-15.5-4.6-6.2-1.4-11.9-4.4-18.1-5.9-11.1-2.6-20.4 1.9-28.9 8.9a161 161 0 0 0-12.6 12.2c-3.5 3.6-7.1 7.1-9.9 11.3-10.3 15.6-10.4 38.3 2.6 52.4 2.9 3.2 6.5 5.9 10.9 5.3 4.9-.6 8.8-4.4 13.9-4.4 6.8 0 6.8 6.9 10.7 10.6 3.1 2.9 7.2 0 8.7-3.1a1.54 1.54 0 0 0-2.5-1.7z"/><path class="cls-1" d="M579.4 673.1c2.2 2.2 3.7 6.3 4.3 9.3.7 3.7-3.4 5.8-4.7 9.1-1 2.7-.8 5.6-.7 8.5.2 4.2.1 6.6-4.5 7.8-4.1 1-2.3 7.3 1.7 6.3 4.2-1.1 7.5-3.6 8.3-8s-1.6-9.2.1-13.4 5.3-5.9 3.9-10.9c-1-3.8-3.1-8.4-6-11.1-1.5-1.7-4 .7-2.4 2.4zm-15.4 4.3c-.6-3.9-5.1-6.4-8.2-3.1-2.2 2.4-.9 6.6-1 9.4-.1 2.5 4 2.4 3.8 0-.2-2-.7-3.9-.7-5.8 0-1 .1-1.8 1.2-2.1 1.4-.3 2 1.2 2.2 2.3.4 1.8 3 1 2.7-.7zm29.7-35.3c.3-.9.5-1.8.8-2.6-.5.3-.9.5-1.4.8a5.74 5.74 0 0 1 3.3 2.4 19.82 19.82 0 0 0 1.1-2 11 11 0 0 0-1.8-.2c-1.7-.2-1.8 2.7 0 2.8.6 0 1.2.1 1.8.1a1.32 1.32 0 0 0 1.1-2 6.08 6.08 0 0 0-2.3-2.2 8.8 8.8 0 0 0-2.7-1 1.1 1.1 0 0 0-1.4.8l-.6 2.7a1.08 1.08 0 0 0 2.1.4zm2954.8 523.6c12.4-2.9 10.1-25.4 11.1-34.8 2.8-26.1 10-52 18.2-76.8 4-12.3 8.3-24.4 13.1-36.4 4.7-11.7 7.5-23.5 11-35.5 6.3-21.5 14.7-42.3 16.7-64.9.7-7.4-.1-17.4-9.1-19-10-1.7-11 8-13.8 14.8-1 2.4 1.1 4.9 3.2 5.6 10.1 3.6 18.4-9.1 14.4-17.9-5-11.2-16.8-1.6-15.7 7.6a5 5 0 0 0 4.9 4.9c3.9.4 6.8-1.4 8.8-4.6 2.4-3.8-1.6-8-5.5-7.2-6.1 1.3-9.8 7.8-14.7 11.2-4.6 3.2-11.6 8.9-17.6 8.2-5-.6-11.8-7.9-7.3-12.4 4.2-4.3 10.5-5.6 14.9-9.7 2-1.8 3.3-4.2 5.2-6.1 2.8-2.7 6.4-3.5 9.9-4.7 6.9-2.3 10.5-6 15.2-11.1 5.2-5.7 13.3 1 18.3 4.4 5.4 3.7 9.6 9 9.5 15.8 0 7.1-3.1 14.4-9.1 18.3-3.6 2.4-6.2 3.3-10.2 1.8a19.71 19.71 0 0 0-10.2-1.4c-6.3.9-3.6 10.5 2.6 9.6 3.6-.5 7.5 2.8 11.3 2.8 4.5 0 9-2.4 12.6-5 6.7-4.7 10.7-11.9 12.2-19.9 1.6-8.9-.4-17.4-6.4-24.2-5.3-5.9-14.3-12-22-14.1a15.24 15.24 0 0 0-12 1.7c-3.6 2.3-5.5 6.3-8.7 8.9-3.4 2.8-8.1 3.3-12.1 4.9a24.67 24.67 0 0 0-10.5 8.1c-4.9 6.1-13.1 7.8-18.4 13.6-5.6 6.2-4.4 13.8.5 20 6.5 8.3 15.5 10.4 25 6.1a79.62 79.62 0 0 0 13.4-8.1 48 48 0 0 0 5.6-4.5c1.6-1.6 3-4.3 5.4-4.8-1.8-2.4-3.7-4.8-5.5-7.2-.1-.1-.2-.1-.3-.2l4.9 4.9c0-.1.1-2.8.1-2.8.7-.9.3-1-1.2-.5-1.3-.4-1.8 0-1.4 1.1-.9 1.6-.9 4.5-3.5 3.7 1.1 1.9 2.1 3.7 3.2 5.6.8-2.2.8-6 2.2-7.8 1.9-2.4 3.2.5 3.6 2.6 1.1 6.7-.7 14.7-1.9 21.2-3.8 20.5-11.9 39.8-16.3 60.1-2.3 10.4-6.1 20.3-9.9 30.3s-7 20.3-10.2 30.6a437.1 437.1 0 0 0-15.3 64.9c-1.3 8.5-1.8 17-2.3 25.5-.3 5.4-.3 17.4-7 19.1-2.3.6-1.3 4.3 1.1 3.7zm94.3-31.1c8.1 15.1 26.3-17.2 29.4-22.7 5.7-10 9.5-21 12.9-32 5.7-18.1 9.6-36.8 13.5-55.3 4-19 6.8-38 9.6-57.3s8.2-37.8 11.9-56.8c1.9-9.5 4.6-18.7 6.5-28.1a222.17 222.17 0 0 0 3.4-28.1c1.2-16.3 5.8-32.2 8-48.4 2.4-17.4 2.4-35.8-6.4-51.6-4-7.2-9.9-11.9-17.5-14.9a41.86 41.86 0 0 0-11.6-2.8 18.34 18.34 0 0 0-4.7-.2 5.94 5.94 0 0 0-2.6.7c-1.7 1.2-1.1.4-.2 1.7a5.54 5.54 0 0 0-5.8-2.4c-8.4 1.2-15.4 6.9-10.1 15.7 1.1 1.8 3.7 3.2 5.8 2.4a14 14 0 0 0 4.7-2.8c1.5-1.3.9-1.2 2.8.2 2.9 2.2 5.2 5.2 8 7.5 5 4 12.2-3 7.2-7.2-4.1-3.3-7.2-7.8-11.9-10.3a11.26 11.26 0 0 0-6.7-1.3c-3.1.5-4.1 2.9-6.7 3.9 1.9.8 3.9 1.6 5.8 2.4-.6-1.6-.9-1.4-1 .6a5.78 5.78 0 0 1 1.4-.5 15.28 15.28 0 0 0 3.6-.7c-1.9-.8-3.9-1.6-5.8-2.4 3.7 5.4 10.8 6.1 15.3 1.2l-3.6 1.5a33.51 33.51 0 0 1 17.2 4.5c5.8 3.4 8.9 9.5 11.1 15.6 4.8 13.8 3.6 28.7 1.3 42.9s-5.7 28.2-7 42.5c-.7 8.1-.9 16.2-2.4 24.2-1.5 8.6-4 16.9-5.7 25.4s-2.9 17-4.8 25.5c-1.8 8.3-4.2 16.4-5.6 24.8-2.9 17.1-3.8 34.5-6.8 51.7-5.7 33-11.5 66.8-23.6 98.2-2 5.2-6.3 12.8-9.9 18.6-2 3.2-11.7 19.5-16.5 12.8-1.1-1.6-3.4-.4-2.5 1.3z"/></g></svg>