<svg id="Layer_1" data-name="Layer 1" xmlns="http://www.w3.org/2000/svg" viewBox="0 0 3800 1541.7"><defs><style>.cls-1{fill:#414cff}</style></defs><title>Artboard 1</title><path class="cls-1" d="M2040 450.9c-8.8-.1-15.1 10.5-17.7 17.6-4.2 11.8-6.5 25.1-5.3 37.6a74.6 74.6 0 0 0 12.9 35.8c8.2 11.6 19.1 20.6 29.3 30.2 9.2 8.8 19.8 13.5 32.5 15.2 12.9 1.7 27.2 1.1 37.8-7.3 9.9-7.8 16.3-20.9 19.6-32.8 3.6-12.7 3.8-26.5 1.8-39.5-1.1-6.9-3.3-13.8-7.3-19.5-3.6-5.1-8-9.7-12.1-14.5-8.6-9.9-18.7-19.9-32.3-21.8-5.5-.8-7.9 7.7-2.3 8.4 10.2 1.4 17.9 7.9 24.7 15.3 3.3 3.6 6.5 7.4 9.6 11.1 3.4 3.9 6.7 7.5 8.7 12.4 4 9.7 4.5 21.4 3.9 31.8a70.6 70.6 0 0 1-12 35c-6.7 10.1-16.4 14.5-28.5 14.7-11.2.2-23.4-1.5-32.9-7.8-4.9-3.2-9-7.7-13.4-11.6-4.6-4.1-9.2-8.2-13.5-12.6-8.4-8.6-14.8-18.4-18.3-29.9-3.8-12.4-3.9-24.8-1.4-37.5 1.2-6 2.3-12.9 5.3-18.3 2.1-3.7 6.8-8.9 11.2-9.7a1.18 1.18 0 0 0-.3-2.3z"/><path class="cls-1" d="M2022.6 464.3c4-9.1 16-14.9 25.4-16.4a52.83 52.83 0 0 1 19 .6c5.7 1.4 10.6 4.9 16.5 5.8 3.1.5 4.6-4.1 1.3-4.9-6.9-1.5-13.1-5.1-20.1-5.9-6.3-.7-13.2-.7-19.3.9-9.5 2.5-20.8 9.4-23.9 19.3-.4.8.8 1.3 1.1.6z"/><path class="cls-1" d="M2086.3 490.8c-5.1-1.5-1.9-16.3-.9-19.4 1.4-4.2 4.1-7.7 6.4-11.4 3.8-6.2 9.7-14.7 9.6-22.3 0-3-2-6.3-5.4-6.1-5.7.4-5.9 8.2-5.6 12.3.3 3.9-.6 6.3-1.6 10-1 3.9-.5 8-1.1 12a71.38 71.38 0 0 0 .3 24.4c2.1-1.2 4.2-2.4 6.3-3.7-5-5.5-2.6-16.1-1.4-22.6 1-5.1 1.9-10.2 3.1-15.2 1-4.2 2.4-8.6 1.9-13-.6-4.9-8-5.2-7.9 0 .1 5.5-1.8 10.9-2.8 16.3-1 5.1-2.1 10.2-2.7 15.4-1.1 8.2-1.5 18 4.5 24.4 2.7 2.9 7-.2 6.3-3.7-2-9.8-.1-18.7.2-28.5.1-4.3 2.1-8.1 2.2-12.4.1-3-1.7-7.6.7-10-.8.3-1.6.7-2.5 1-2.3-.2-.4-1.3-1.3.2a24.63 24.63 0 0 0-.7 2.9 56.4 56.4 0 0 1-3.1 8.1c-1.7 3.7-3.5 7.3-5.5 10.8a37 37 0 0 0-5.3 20.8c.1 4.4 0 11 5.6 11.8a1.12 1.12 0 1 0 .7-2.1zm-54.1 49.2c-.8-2-2-3.8-2.9-5.7a.84.84 0 0 0-1.2-.3c-6.1 4.1 0 16.4 1.5 21.5 2.2 7.9 4 16 5.7 24.1 1.7 8.3 3.9 16.8 4.2 25.3s-.3 16.8-.2 25.2c.2 8.1 1.9 16.2 2.1 24.3s-1.4 16.5-2.4 24.5c-1 7.8-6 14-7.6 21.7a3.57 3.57 0 0 0 1.6 3.9c4.4 2.9 10.6 1.9 15.4 4 6.3 2.7 11.8 4.5 18.6 2.7 11.8-3.1 21-13.7 25.6-24.6 6-14.2 6.6-30 9.5-44.9a72 72 0 0 1 20.6-38c6.2-5.8 11-10.6 14.5-18.6 1.6-3.6 3-7.3 4.6-10.9a21.91 21.91 0 0 0 1.7-4.9c.2-1.1.1-3.8 1.2-4.5 6.9-4.5-2.1-14.1-7.1-7.1-1.9 2.8-1.9 6.1-2.6 9.3-.9 4-3.1 7.8-4.6 11.6-1.8 4.4-3.6 9-6.8 12.5-2.5 2.8-5.6 5-8.2 7.6-12 12.2-19.4 28.3-22 45-2.6 16.4-2.8 36.7-13.9 50.1-5.3 6.4-13.5 12.9-22.3 10.6-4-1-7.5-3.5-11.5-4.3-2.9-.6-6.6.1-9.2-1.6.5 1.3 1.1 2.6 1.6 3.9 1.3-6.7 5.5-12.2 6.9-18.8a85.14 85.14 0 0 0 1.2-11.2c.3-4.1 1.3-8.1 1.5-12.2.4-8.2-1.3-16.2-2.2-24.3-.8-7.7-.6-15.6-.7-23.3-.2-15.4-4.1-30.2-8.1-45-1.6-5.9-3.3-11.8-5.3-17.6-1.4-3.9-4.5-10.6-2.1-14.5-.5.1-.9.1-1.4.2a14.29 14.29 0 0 1 4 4.8c0-.3.3-.4.3-.5z"/><path class="cls-1" d="M2069.9 701.8c-2.7 2-6 3.2-8.5 5.4a31.39 31.39 0 0 0-6 8.4 183.16 183.16 0 0 0-10.1 22.1c-3 8-5.2 16.2-8 24.3-2.9 8.5-6.5 16.9-8.7 25.7-2.2 8.5-3.5 17.1-5.7 25.6-2.4 8.9-4.7 17.8-6.7 26.7a419.49 419.49 0 0 0-8.7 52.3q-5.4 56.7-9.7 113.6c-2.8 37.7-3.1 75.6-8.8 113-3.1 20.4-6.3 40.7-11.5 60.7a190.68 190.68 0 0 0-4.4 19.9c-.4 2.6-.7 5.1-1.3 7.7-.3 1.3-.7 2.5-1 3.7s-1.4 1.6 0 1.3c-5.2 1.2-3 9.2 2.2 8 7.9-1.8 7.7-16.3 8.7-22.4 1.1-7 3.4-14.3 5.2-21.4 2.2-8.8 3.9-17.7 5.3-26.7 3-18.1 6-36.2 8-54.5 2-18.8 2.2-37.7 3-56.6q2.55-57.9 7-115.7c1.5-19.1 2.6-38.3 5.7-57.2 3-18.2 7.4-36 11.9-53.8 2.4-9.3 3.4-18.9 6.3-28.1 3.1-9.9 6.7-19.7 9.5-29.7a231.5 231.5 0 0 1 9.1-27 98.33 98.33 0 0 1 6.8-14.3c2.8-4.5 6.8-7 10.5-10.5.3-.3.1-.6-.1-.5zm201.5-295.9c-6.6.9-10.9-10.1-13-14.7a167.28 167.28 0 0 1-9-23.5c-2.8-10.1-4.7-20.6-6.6-30.9-2.1-11.5-3.7-23-3.1-34.6s1.9-22.8 2.1-34.3c.1-5 .7-9.9 1.2-14.8.3-2.8.6-5.6.7-8.3a11.45 11.45 0 0 0 .1-3.2c-.3-1.8.6-.2-.5-.5 3.4 1 8.1 5.8 11 8.8a124.8 124.8 0 0 1 15 18.3 201.17 201.17 0 0 1 16.9 30.9 81.16 81.16 0 0 1 5.6 15.9c1 4.3 1.5 8.3 4.6 11.7 2.2 2.4 6.2 1.1 7.1-1.9 1.6-5.5 2.2-11.2 4-16.6 1.7-5.2 4.1-10.2 6.2-15.2a145.56 145.56 0 0 1 15.9-29.6c6-8.5 11.6-17.3 17.8-25.7 2.9-3.9 6.4-6.9 9.5-10.5a16.44 16.44 0 0 0 3.2-5.4c.5-1.5.5-4.5 1.9-5.4h-4.5c-.8-.5 0 .3.2 1.2a19 19 0 0 1 .4 4.1c.1 3.1-.1 6.3-.3 9.4-.5 7-.4 13.9-.5 21-.2 10.6-2.4 20.8-4.4 31.2-1.9 9.8-5 19.5-3.4 29.6.6 3.7 5.2 3.8 7.5 2 10-7.9 20.4-15.4 32-20.9a95.13 95.13 0 0 1 37.4-9c5.7-.3 11.5-.4 17.2-.5 1.9 0 5-.6 5.2 1.4.2 1.8-2.1 4.6-2.8 6.2a276.16 276.16 0 0 0-14 36.4c-7.6 24.4-14.4 50.4-14.9 76.1-.1 5.4-.5 10.8 1.7 15.9 2.5 5.6 6.8 10.2 10.5 15.1 7.7 10.2 15.5 20.2 23.7 30 9.4 11.3 18 23.2 27.7 34.4 4.7 5.4 9.4 10.9 14.4 16.1s7.9 11 11.6 17c1.8-2.4 3.6-4.7 5.5-7.1-8.2-2-14.5-8-20.9-13.1-6.9-5.5-14.6-9.6-22.2-14-7.9-4.6-14.8-10.6-23-14.7-6.6-3.2-15.6-7.1-23.1-5.8-7.8 1.3-10.1 7.5-11.8 14.2-2.4 9.3-4.9 18.7-7.8 27.9-3 9.4-6.9 18.4-10.6 27.5-3.8 9.3-6.9 18.8-10.3 28.2-3.9 10.8-8 21.5-11.6 32.4-1.6 5.1-3.2 10.1-5.1 15.1-1.4 3.6-2.2 8.3-4.9 11.2l4.6-1.2c-3.5-.9-4.1-5.3-4.7-8.3-.9-4.9-1.7-9.8-2.6-14.7-2.2-12.1-3.3-24.2-4.9-36.4s-3.3-24.2-6.1-36.1c-2.8-11.7-6.7-23-9.6-34.6s-4.7-23.7-8.3-35.2c-2.2-7.1-5-11.6-13.2-11.4-9.9.2-16.4 7.6-22.4 14.6-7.1 8.2-13.7 17-20.4 25.6-7.8 10.2-14.4 21.1-22.4 31.1-3.7 4.6-7.5 9.1-11.3 13.6s-7.4 8.8-12.5 11.6l6.9 1.8c-1.3-2.4 1.5-7.2 2.4-9.4a81.89 81.89 0 0 0 3.3-12c1.9-9 3.6-18 5.4-27 1.7-8 5.9-16 6.1-24.1.1-4.1-1.1-8.1-4.5-10.6-6.9-5.1-17.4-1.6-24.8.8-4.6 1.5-9.1 3.1-13.8 4.6-2 .6-4 1.2-6 1.6a12.77 12.77 0 0 1-1.7.2c-1.1.3-.6.1-1 0 1.2 1.6 2.5 3.2 3.7 4.8-.1-4.1 2.5-7.7 4.8-10.9 2.9-4.1 5.7-8.1 8.3-12.3 5.2-8 12.1-14.3 18.1-21.7a112.08 112.08 0 0 0 7.3-10.7c2.5-4 6-7.2 9.4-10.5 6.9-6.6 13.1-14.8 21.5-19.6 5.6-3.2.6-11.9-5.1-8.7-9 5.1-15.6 13.5-23 20.6a89.5 89.5 0 0 0-10.2 11.1c-3.2 4.3-5.5 9-9.1 13-6.8 7.7-13.5 14.9-19.1 23.6-5 7.8-13.3 16-13 26a5 5 0 0 0 3.7 4.8c7.4 1.8 15.9-2.5 22.8-4.8a107.59 107.59 0 0 1 13.4-3.9c2.3-.5 6.4-1.1 7.6-.2.4.2.5.7.6 1.9.2 2.9-1.1 6-1.9 8.7-2.9 8.7-4.5 17.5-6.3 26.4-1.7 8.3-2.8 17.1-5.7 25.1-2.3 6-5.2 12.1-1.9 18.3a5.14 5.14 0 0 0 6.9 1.8c8.6-4.8 14.1-12.9 20.3-20.3 6.9-8.1 13.1-16.6 19.2-25.3 6.3-9 13-17.6 19.7-26.3 3.2-4.1 6.4-8.3 9.9-12.2 3-3.4 6.4-7.9 10.5-10a9.86 9.86 0 0 1 5.6-1c1.7.1.4-.5 1.1.4.9 1.2 1.3 4.1 1.7 5.5.9 3 1.7 6 2.4 9.1 2.6 11.9 5.1 23.7 8.6 35.3 7 22.9 11.1 45.8 14 69.5 1.5 12.6 3.7 25 5.7 37.5 1.3 7.8 3.3 16.4 11.9 18.7a4.81 4.81 0 0 0 4.6-1.2c4.4-4.8 6.1-12 8.3-18 3.3-8.9 5.9-18 9.1-26.9 6.5-18.1 12.8-36.2 20-54a230.78 230.78 0 0 0 9.3-26.1c2.3-8.5 4.2-17.3 7-25.6 2.5-7.7 16.2-1 21 1.5 7.8 4 14.6 9.8 22.2 14.2 8 4.7 15.9 9.1 23.1 15 6.7 5.5 13.6 11.2 22.1 13.4 4 1 7.7-3.4 5.5-7.1-3-4.9-5.5-10-9.1-14.5-4.5-5.7-9.9-10.8-14.7-16.3-9.3-10.7-18-21.8-26.8-32.9-8.4-10.6-17.4-20.7-25.4-31.7-3.4-4.8-7.7-9.1-10.6-14.3-3.3-5.9-2-14.6-1.6-21.2 1-14.3 4.1-28.4 7.5-42.3a377.49 377.49 0 0 1 11.6-38.9c2.4-6.5 5-13 8-19.3 1.9-3.9 4.6-8.1 4.2-12.6-1.2-12.2-20-8.7-28-8.5-14.8.4-28.9 2.9-42.5 9-13.4 6-25.4 14.8-36.9 23.9 2.5.7 5 1.3 7.5 2-.9-5.5.6-11 1.7-16.4 1.2-5.9 2.3-11.8 3.4-17.8a170.66 170.66 0 0 0 2.9-33.4c0-6.2.8-12.3.8-18.4.1-5.3.1-12.6-5-15.8a4.52 4.52 0 0 0-4.5 0c-3.8 2.5-4.3 5.7-5.7 9.7-1.6 4.4-6.6 7.7-9.5 11.4-7 8.8-12.9 18.6-19.5 27.8a130.42 130.42 0 0 0-16.2 29.8c-2.2 5.7-4.8 11.2-6.9 16.9-2.2 6-2.8 12.3-4.6 18.4 2.4-.6 4.7-1.2 7.1-1.9-2.7-2.9-2.7-9.3-4-13a159.7 159.7 0 0 0-7.4-17.6 183.47 183.47 0 0 0-18.9-31.6 118.27 118.27 0 0 0-15.8-17.4c-3.8-3.3-9.8-9-15.4-7.3a7.06 7.06 0 0 0-4.6 5.4c-1.3 5.2-.8 11.4-1.4 16.7-1.3 12.8-1.2 25.8-2.2 38.7a145.38 145.38 0 0 0 2.7 38.4c2.4 12.4 4.9 25 8.7 37.1a156.39 156.39 0 0 0 11.9 27.6c3.3 6.1 8.4 13.7 16.3 12.4a2.28 2.28 0 0 0-.7-4.5z"/><path class="cls-1" d="M2334.8 423.2c-3.7-4-.6-15-.7-20a121.84 121.84 0 0 0-3.5-24.1 137.4 137.4 0 0 0-5.7-18.6c-1.9-4.8-5.2-8.5-10.7-8.3a3.79 3.79 0 0 0-3.4 2c-2.6 5.4.9 11.6 7.2 11.1 7.1-.5 8.2-9.3 2.1-12.3a4.2 4.2 0 0 0-4.2 0c-3.7 2.5-5.6 7.1-3.8 11.4 1.8 4.5 6.7 4.9 10.2 2.1 6.6-5.4-.1-17.4-7.2-11.8-6.8 5.4 3.5 17.2 5.5 22.6 5.3 13.7 6.1 28 4.9 42.5-.4 4.8 7.3 5.8 8.4 1.1 3.7-15.7 6.5-32 12.9-46.9a121.9 121.9 0 0 1 11.3-20.7c2.9-4.3 9.4-6 10.2-11.7a4.86 4.86 0 0 0-2.1-5.2c-7-3.9-13.4 3.4-14 10.1-.3 3.6 1 7.3 4.8 8.2 4.9 1.1 8.9-2.5 11.6-6.1-2.7-1.6-5.5-3.2-8.2-4.8-1.4 3.3-2.9 6.6-4.4 9.9-2.4 5.3 5.3 10 8 4.7 1.6-3.2 3.2-6.5 4.7-9.7 2.1-4.5-3.9-10.4-7.5-5.8-1 1.2-1.7 2.6-3.5 2.5 1.4.8 2.7 1.6 4.1 2.3a1.21 1.21 0 0 1 .1-1.5c1.2-1.9 1.1-1.1-.3-1.8-.8-1.3-1.5-2.7-2.3-4 .1-.9-1.5.8-2.2 1.2-.9.6-1.9 1.3-2.8 2-2.4 2.1-4.1 5.2-5.7 7.9a136.58 136.58 0 0 0-10.3 20.6c-6 14.9-8.9 30.8-12.5 46.4 2.8.4 5.6.8 8.4 1.1 1-12.6.4-24.8-2.9-37a60.3 60.3 0 0 0-5.1-13.6c-1.3-2.3-5.5-7.4-4.4-10.1l-2.9 2.9c-1.4-.4-2-1-1.8-1.9.1-.2 0-.2-.3-.2l3.6 2.1a1.24 1.24 0 0 1-.3-1.9h-4.2v-.9c.6-.8 1.3-1.6 1.9-2.4-.1.5-.1 1-.2 1.5-1.1.7-2.3 1.3-3.4 2 4.1-.2 6 8.6 7.2 11.7 2.7 6.8 4.4 13.9 6.1 21a80.11 80.11 0 0 1 2.4 20.1c0 4.1 0 9 3.3 11.9a1.13 1.13 0 0 0 1.6-1.6zM2321 463c-3.1 3.3-6.9 5.1-9.3 9a61.47 61.47 0 0 0-5.8 13.1c-3.6 10.9-4.5 22.6-4.8 34.1-.3 12.1 0 24.2-.5 36.3-.6 13.5-1.8 26.9-3.2 40.3-5.5 52.5-11.3 105-16.7 157.5S2269 858 2258.5 909.8c-10.1 50.2-25.6 99.5-31.3 150.5-3.2 28.4-5.2 57.2-4.8 85.8.4 29.4 3.5 58.6 5.7 87.9.4 5 8 5.2 7.9 0-.1-26.2-4.1-52.2-4.9-78.4-.8-24.8.5-49.6 2.5-74.4 2.1-25.7 5.4-51.4 11.5-76.4 6-24.6 12.2-49 17.5-73.8a1353.56 1353.56 0 0 0 23.5-151.2c5.1-51.9 9.7-103.9 15.5-155.7 3.1-28.3 6.4-56.8 5.7-85.3-.3-13.6-1.4-27.3.3-40.8a75.78 75.78 0 0 1 4.5-18.2c1.2-3.1 2.6-6.6 5-9 1.9-2 4.2-3.5 5.9-5.7 1.1-1.5-.7-3.5-2-2.1zm-210.8 370.5l-.3 1.2c.8-.4 1.6-.9 2.3-1.3-4.9-1.3-8.7-4.2-12.8-6.9a94.74 94.74 0 0 0-13.3-7.2c-3.6-1.7-7-3.2-11-3.7-4.4-.6-8.2-2.7-12.6-2.9v6.5c5.8.1 12 6.6 16.5 9.7 7 4.7 15.6 7 23.4 10.1 3.5 1.4 6.4-3.9 3.7-6.3-4.6-4-7.9-9-11.3-14-3.7-5.5-8.2-10.4-12.1-15.8l-5.5 5.5c13.4 9.7 22.7 23.9 35.5 34.3 2.4 1.9 5.9 1.3 6.8-1.8 1.4-4.6 0-9.1-.8-13.7a186.87 186.87 0 0 1-2.3-19.6c-.6-7.6 2.3-16.6-4.7-21.9-2.4-1.8-6.7.6-6.3 3.6 1.5 11.2 5.2 22 6.9 33.2 1 6.9 1.2 14.4 7.3 18.9a4.15 4.15 0 0 0 4.3 0c3-1.8 4.2-4.3 5.5-7.5 1.6-4.1 3.4-8.2 5.1-12.3 1.4-3.3 2.7-6.6 3.8-10 1-3.1 2-7 5-8.9l-6.3-4.8a100.53 100.53 0 0 0-3.5 24.4c-.1 7.2-1.5 15 .4 22.1.8 2.9 5.2 4.6 7.3 1.9 6.2-7.8 9.2-17 13.8-25.6 1.3-2.5 2.5-5 3.8-7.5.8-1.7 1.7-3.3 2.7-5 .5-.8 2.4-3 1.3-2.6-1.9-1.4-3.7-2.8-5.6-4.2.3 6-.9 12.3-2.3 18.1-1.1 4.5-3.3 9.5-.1 13.7s8.5 3.5 13 2.5c6.4-1.5 12.8-2.4 19-4.4-.8-2.9-1.6-5.8-2.4-8.6-21.8 7.6-44.2 13.3-65.8 21.5-9.7 3.7-18.9 8.7-28.9 11.7-6.9 2.1-15.2 3.3-20.4 8.7-3.8 3.8 1 9.1 5.4 7 16.9-7.6 32.7-17.5 48.5-27.1 2.6-1.6 3.2-6.3 0-7.7-4.8-2.1-9.9-1-15-1-6.5.1-13 .4-19.3 2-6.9 1.7-13.3 4.8-19.9 7.4-6.2 2.4-12.8 3.7-18.9 6.5-5.4 2.5-.7 10.1 4.6 7.8 9.6-4.1 20-6.6 30.3-8.3 5-.9 10.1-1.5 15.1-2 2.6-.3 5.2-.6 7.8-1s5.8-1.8 8.5-1.4c-1.1-1.5-2.2-2.9-3.3-4.4.4 5.4-3.8 10.6-6.5 15-3.7 6.1-7.4 12.3-10.6 18.7s-6 13-9.8 19.1c-3.3 5.3-7.3 10.2-7.8 16.7-.2 3.4 4 5.7 6.8 3.9 4.6-2.9 7-7.5 9.8-12.1 3.4-5.6 7.6-10.6 10.8-16.3 4.8-8.5 5.1-21.4 13.1-27.6-1.5.4-3 .8-4.4 1.2 3.6 1.3 5.9 6.2 7.5 9.4 2.2 4.2 3.8 8.7 5.6 13.1 3.5 8.9 6 19.6 12.3 27 3.1 3.6 8.7-.3 7.7-4.5-2.2-8.7-5.6-16.8-9.2-25-1.7-3.8-3.3-7.7-5-11.5a33 33 0 0 0-2.7-5.3c-.5-.8-2.6-2.8-2.6-3.6l-4.6 4.6c12.2-1 24.4 1.7 36.1 4.9 7.2 2 15.2 5.9 22.8 4.1 3.6-.9 4.1-5.2 2-7.7-5.6-6.7-14.1-9.4-22.3-11.3-4.7-1.1-9.3-2.4-14-3.7-3.9-1.1-9.8-.8-13.1-3.2-.8 2.8-1.5 5.7-2.3 8.5 14.9 1.8 30.1 1.2 45 3.5 7.3 1.1 19.2 4.5 24.9-2.1 1.5-1.7 2-4.8 0-6.4-5.2-4-11.5-4.5-17.8-5-7.6-.6-15-3.4-22.7-2.9.8 2.8 1.5 5.7 2.3 8.5 3-1.4 7.5-2.7 10.8-1.9-.4-2.8-.7-5.6-1.1-8.4-9.3 4.9-19.4 7.3-29.5 10.2-10.6 3.1-21.1 6.4-31.7 9.5-10.4 3-20.8 6-31 9.7-4.9 1.8-9.7 4.1-14.7 5.6-4.6 1.4-9.2 2.3-13.5 4.7 1.9 2.5 3.8 4.9 5.7 7.4 4.1-4.1 8.7-7.7 13-11.7s7.5-8.5 11.5-12.6c2.6-2.7 6.5-4.8 7.5-8.7 1.3-4.9-2.9-7.7-6.9-9.2-4.2-1.6-8.8-1.3-13.3-1.7-5.8-.4-11.6-1.2-17.5-1.4-3.5-.1-7 0-10.5-.2-1.9-.1-7.7-.2-8.7-2.4-.2 1.2-.3 2.3-.5 3.5 2.3-4.3 10.6-4.2 14.8-4.5 6.3-.6 13.1.1 19.1-1.7a4.61 4.61 0 0 0 1.1-8.3c-6.5-4.2-13.8-6.9-20.9-10-1.2 2.8-2.3 5.5-3.5 8.3 10.7 2.9 21.5 5.3 32.4 7.9 5.6 1.4 15.1 5 20.5 1.3a4.54 4.54 0 0 0 1.6-6.1c-3.3-6.1-8.3-11.1-11.5-17.2-1.6-3-2.5-6.2-1.8-9.5 0-.1.8-2.2.8-2.3q.45-.75-1.5.6c-1-.3-1.2-.3-.4.1.2.8 2.3 2.5 2.9 3.3 1.2 1.7 2.3 3.4 3.5 5.2 1.9 2.9 3.6 6.2 6.5 8.2a4.54 4.54 0 0 0 5.4-.7 10.81 10.81 0 0 0 3.5-8c0-2.7-1.6-6.4-.2-8.7-1.3.7-2.6 1.5-3.8 2.2 2.1.1 2.9 4.9 3.4 6.4 1 2.9 2.1 5.7 4.4 7.8s6.9 1.5 7.4-2c1.1-6.9.1-14.1 2.7-20.7l-6.6 2.7c3 1.7 3.8 6.1 4.7 9.2 1 3.4 1.9 7 3.7 10.1a4.51 4.51 0 0 0 7 .9c1.9-1.6 3.1-3.8 4.4-6a28.84 28.84 0 0 1 2.2-3.8c.9-1.1-.2-.7 0-.3 1.1 1.5 1.1 4.7 1.5 6.5a15.58 15.58 0 0 0 3 6.2c1.3 1.6 3.8 1.5 5.5.7a10.16 10.16 0 0 0 5.1-5.3c1-2 1.2-5.4 3-6.8h-4.6c3.1 1.9 1.2 7.8 1.5 10.9.3 4.2 2.4 7.7 6.5 9.2 11.7 4.2 24.2-4.6 34.6-8.7-1.2-2.8-2.3-5.6-3.5-8.3-8 6.1-17.6 12.3-20.7 22.5-3.4 11.2 3.5 17.8 11.6 24.1.7-2.6 1.4-5.1 2-7.7a14 14 0 0 0-5.8 2.7c-2 1.5-3 3.9-1.7 6.3 5.5 10.2 17.3 11.4 25.7 18.2 1.1-2.6 2.2-5.3 3.3-7.9-11.9-.1-23.3-3.5-35.1-4.1-5.8-.3-13.8-.5-15.9 6.3-1 3.3.1 6.6.7 9.8.4 1.8.8 2.2-.6 3.1a3.88 3.88 0 0 1-3.9-.3c-2.9-1.3-5.1-4.2-7.8-5.9a15.85 15.85 0 0 0-10.1-2.8c-1.8.2-4 1.3-4.3 3.3a14.58 14.58 0 0 0 1.6 9.4c1.5 3 4.6 6.2 4.9 9.7 1.9-1.4 3.8-2.9 5.7-4.3-7-1.1-11.6-7.4-18.6-8.6-3-.5-6.8 2-5.5 5.5s3.5 7.2 3.4 11.1c1.1-1.4 2.2-2.8 3.2-4.3-3.1.9-7.5-5.1-10.1-6.8a4.42 4.42 0 0 0-6 1.6c-2.9 4.7-.4 8.3.9 13 1.5 5.5 10 3.1 8.5-2.3-.3-1.2-2.6-5-1.8-6.2-2 .5-4 1.1-6 1.6 5.6 3.7 9.1 9.8 16.8 7.7a4.41 4.41 0 0 0 3.2-4.3c.1-4.9-2-9-3.7-13.5l-5.5 5.5c6.9 1.2 11.5 7.5 18.6 8.7 2.6.4 5.9-1.1 5.7-4.3a21.34 21.34 0 0 0-2.8-8.5c-1.1-2.1-4.4-5.7-4-8.2-1.4 1.1-2.9 2.2-4.3 3.3 6.6-.6 10.5 7.3 16.6 9 6.5 1.8 14.9-1.8 15.3-9.2.1-2.5-2.5-7.9-1.5-9.9-.4.8.4 0 1.3 0 1.7-.1 3.5 0 5.2 0 12 .5 23.7 4.1 35.8 4.1 3.7 0 6.5-5.3 3.3-7.9-7.2-5.8-19.6-7.8-24.3-16.3-.6 2.1-1.1 4.2-1.7 6.3a8 8 0 0 1 3.6-1.7c3.1-.7 4.8-5.5 2-7.7-5.6-4.4-12.3-8.4-8.7-16.5 3-6.9 10.2-11.4 16-15.7 3.7-2.8 1.7-10.5-3.5-8.3-5 2-9.8 4.6-14.9 6.6-2.7 1.1-12.3 5-14.7 2.1-1.3-1.5.1-7.5-.1-9.5a12 12 0 0 0-6-9.6 4.47 4.47 0 0 0-4.6 0 14.12 14.12 0 0 0-4.8 6c-.9 2.1-1.1 5-3.4 6.1 1.8.2 3.6.5 5.5.7-1.6-2-1.3-6.1-2.1-8.5-1.1-3.2-3.1-6-6.5-6.8-9.1-2.2-10.2 8.2-15.3 12.6l7 .9c-4.4-7.4-3.3-17.7-11.7-22.5-2.7-1.6-5.5 0-6.6 2.7-2.7 6.7-1.6 13.7-2.7 20.7 2.5-.7 5-1.3 7.4-2-2.7-2.5-3-7.3-4.6-10.5a10.82 10.82 0 0 0-9.5-6.3 4.29 4.29 0 0 0-3.8 2.2 12.12 12.12 0 0 0-1.7 7.4c.2 2.3 1.6 5.7-.2 7.5 1.8-.2 3.6-.5 5.4-.7.7.5-.5-.7-.7-1l-2.1-3.3c-1.5-2.3-3-4.7-4.7-6.9-2.9-3.8-7.3-8.6-12.5-6-5.8 3-6.1 12.5-4.6 17.9 2.4 8.9 9.8 15.3 14 23.2.5-2 1.1-4.1 1.6-6.1-1.1.8-5.6-.4-7.1-.8-3-.6-5.9-1.5-8.9-2.1-10.1-2.2-20-4.7-29.9-7.4-4.8-1.3-8.3 6.1-3.5 8.3 7.1 3.1 14.3 5.8 20.9 10 .4-2.8.7-5.5 1.1-8.3-4.5 1.4-9.7.8-14.4 1.2a117.09 117.09 0 0 0-11.9 1.4c-6.5 1.2-18.4 6.9-11.6 14.9 5.1 6 14.6 5.7 21.8 5.7 5.4 0 10.9.5 16.3 1s13.5-.4 18 3.1c-.5-1.1-.9-2.2-1.4-3.3 0 .1-4.4 3.7-5.1 4.4-2.7 2.9-5 6-7.7 8.9-5.2 5.5-11.4 10-16.8 15.4-3.8 3.8 1 10 5.7 7.4 4.2-2.4 9.1-2.9 13.6-4.6 5-1.9 10-4 15-5.8 10.5-3.7 21.3-6.7 31.9-9.8 10.2-3 20.4-6.3 30.6-9.3 10-2.8 19.8-5.6 29-10.4 3.4-1.8 2.7-7.5-1.1-8.4-5.9-1.4-12.5.5-17.9 2.9-4.1 1.9-2.1 8.8 2.3 8.5 6.5-.5 12.7 1.9 19.1 2.6 4.4.5 11.2-.3 14.9 2.6v-6.4c-1.8 2.1-7.3 1-9.8.7-3.5-.4-7-1.2-10.6-1.6-14.3-1.7-28.8-1.5-43.1-3.2-4.9-.6-5.5 6.2-2.3 8.5s6.9 2.2 10.6 2.9c5 .9 9.8 2.9 14.8 4.1 7.9 1.9 16.6 3.4 22 9.9.7-2.6 1.4-5.1 2-7.7-3.3.8-7.5-.9-10.6-1.9-3.9-1.2-7.7-2.3-11.7-3.3-11.2-2.7-22.5-5.1-34.1-4.1-2.3.2-4.8 2-4.6 4.6.3 4.1 2.8 6.2 4.7 9.7a110.67 110.67 0 0 1 5 11.1c3.9 8.9 7.8 17.7 10.2 27.1 2.6-1.5 5.1-3 7.7-4.5-3.9-4.6-5.2-11.1-7.3-16.6-1.6-4-3.3-8-4.9-12-3.2-7.8-7.5-19.8-16.4-22.8-9.8-3.3-14.5 17-16.5 23-2.1 6.3-5.9 11.7-9.7 17.1-3.2 4.6-6.1 12.3-10.9 15.3 2.3 1.3 4.6 2.6 6.8 3.9.2-3.1 2.6-6.1 4.3-8.6 2-3 3.9-6.1 5.6-9.2 3.5-6.5 6.3-13.2 9.9-19.6 3.1-5.6 6.5-11 9.8-16.6 2.7-4.6 5.6-9.9 5.2-15.4-.1-1.8-1.3-4-3.3-4.4-5.7-.9-11.1 1.1-16.8 1.8-5.9.7-11.8 1.3-17.6 2.3a143.45 143.45 0 0 0-34.2 9.5c1.5 2.6 3.1 5.2 4.6 7.8 5.3-2.5 11.3-3.5 16.7-5.6s10.8-4.6 16.4-6.4a56.64 56.64 0 0 1 16.8-2.6c2.6-.1 5.1 0 7.7-.2 1.8-.1 4.6-.9 6.3-.2v-7.7c-15.8 9.7-31.6 19.5-48.5 27.1 1.8 2.3 3.6 4.7 5.4 7 4.7-4.7 13.5-5.3 19.6-7.4 9.9-3.5 19.4-8.4 29.3-12 20.5-7.5 41.7-12.9 62.3-20.2 5.4-1.9 3.2-10.4-2.4-8.6a116.8 116.8 0 0 1-14.2 3.3c-1.8.3-3.6 1-5.4 1.4-2.3.5-2.9 1-2.4-1.6 1.5-8.1 4.1-15.9 3.7-24.3-.1-2.6-2.7-5.3-5.6-4.2-6.1 2.2-8.7 10.7-11.4 16-4.5 8.9-7.8 19.1-13.9 26.9 2.4.6 4.8 1.3 7.3 1.9-1.7-6.2-.3-13.4-.2-19.7a92 92 0 0 1 3.1-22.1c.9-3.5-3.1-6.9-6.3-4.8-5.7 3.6-7.4 9.7-9.5 15.8-1.3 3.7-2.9 7.4-4.4 11-.9 2.2-1.9 4.4-2.8 6.7-.6 1.6-1.1 4.3-2.7 5.3h4.3c-3.7-2.7-3.3-13.2-4.1-17.4-1.8-9.2-4.8-18.1-6-27.4l-6.3 3.6c1.6 1.2.8 6.9.7 8.6a67.56 67.56 0 0 0 .5 11c.6 4.9.9 9.9 1.6 14.7.6 3.7 2.4 7.7 1.3 11.4 2.3-.6 4.6-1.2 6.8-1.8-13.4-10.8-23.2-25.3-37.3-35.4-3.2-2.3-7.8 2.3-5.5 5.5 4.2 5.8 9.1 11 13.1 16.9 3.5 5.1 7.1 10.2 11.8 14.2 1.2-2.1 2.5-4.2 3.7-6.3-8.6-3.3-17.1-5.9-24.7-11.2-5-3.5-10.8-8.2-17.3-7.9-4.2.2-4.2 6.7 0 6.5 3.7-.1 7.4 1.6 11.1 2 5.4.5 10 2.5 14.9 4.8 7.6 3.5 14.4 9.4 22.7 11a1.94 1.94 0 0 0 2.3-1.3c.1-.4.1-.8.2-1.2 1.3-2.5-2.1-3.6-2.7-1.2zM1630 633.6c-21.1-.5-39.8-14.6-56.2-26.6a247.32 247.32 0 0 1-24.8-19.8c-4.2-3.9-7.4-8.4-11.1-12.8-3-3.6-7.5-6-9.6-10.2-.8 1.9-1.6 3.8-2.3 5.8 8-2.1 17.4 2.6 24.7 5.6 9.7 4.1 19.4 8.1 29 12.4 10.6 4.7 21.5 8.7 31.9 13.7s20.4 10 31.2 13.6c2.1.7 5.1-.8 5.4-3.1a75.16 75.16 0 0 0 .4-10.6c0-4.1.8-8.2 1.3-12.3 1-7.5.7-14.9.6-22.4 0-8 .2-16.1 2-23.9 1.8-7.6 5-14.7 8.3-21.8 3.2-6.7 5.8-13.7 9.2-20.3.6-1.3 3.2-7.7 5-8 .2 0 5 6.8 5.8 7.9 8.7 11.7 16.4 23.6 21.5 37.4 3 8.1 6.5 16.1 8.8 24.5 2.4 8.7 2.5 17.8 4.4 26.6a4.92 4.92 0 0 0 4.7 3.6c3.5-.1 5.4-1.7 7.9-3.9a58.29 58.29 0 0 1 9.4-6.9c7.6-4.5 15.9-7.6 23.6-11.9 7.3-4.1 13.9-7.6 22.1-9.5 3.3-.8 12.1-4.2 14.2-1.3 1.1 1.5 0 6-.3 7.6a44.73 44.73 0 0 1-2.5 8.1c-3.2 7.3-8 13.8-11.7 20.9a205.1 205.1 0 0 1-12.8 20.4c-2.2 3.3-4.1 7-6.7 10s-6 5-8.8 7.7-1.5 7.9 2.3 8.7c9.3 2 18.8 3 27.9 5.7a77.37 77.37 0 0 1 20.9 10c5.7 3.8 12 7.9 16.8 12.9 2.6 2.6 1.8 3.6-.9 5.5a41.36 41.36 0 0 1-9.5 4.5c-15.2 5.3-31.3 7.3-46.9 10.8-8.9 2-16.7 4-25.9 2.4-4.2-.7-8.5-1.5-12.6-2.6-4.4-1.3-8.4-3.4-12.9-4.5-3.9-1-8.7 3.8-5.8 7.6 2.4 3.2 5.2 6 7.7 9.1 3.1 3.8 4.7 8.4 6.4 13a38.46 38.46 0 0 1 1 25.7c-4.1 14.4-13.4 30.4-28.6 35.2-18.7 5.9-29.1-14.2-33-29.2-4.3-16.4-7.1-34.7-3.7-51.5 1.7-8.4 6.6-27.4-6.7-28.8-10.4-1.1-21.1 6.7-30.1 10.9-7.7 3.7-14.7 8.4-22.3 12.3a70.77 70.77 0 0 1-10.9 3.9c-3.7 1.1-7.1 3.8-11 3.3-7.4-1-15.3-4.1-22.2-6.8-3.4-1.3-7.7-1.6-10.9-3.2s-3.6-5.5-3.6-8.7c0-19 16.5-30.1 32.7-35.7 9.4-3.3 18.8-4.4 28.6-5.7 5.5-.7 10.8-1.6 16.3-1.4 4.7.2 8.2-.5 11.9-3.5 5.1-4.1-2.1-11.3-7.2-7.2-1.5 1.2-4.3.5-6 .5a53.23 53.23 0 0 0-7.9.5l-15.4 1.8a100.94 100.94 0 0 0-27.5 6.9c-15.7 6.4-30.3 16.8-34.5 34.2-1.7 7.2-2.2 15.9 2.1 22.4a15.17 15.17 0 0 0 8.4 6.1c4.6 1.4 9 2.6 13.5 4.3 7.1 2.6 16.2 6.2 23.9 6 4.2-.1 7.7-2.5 11.6-3.8 4.6-1.5 9-2.7 13.4-5 13-6.8 25.4-15.5 39.3-20.5a29.78 29.78 0 0 1 7.2-1.5c-1.3.1-.5-1.8-.8.2-.2 1.6.1 3.5 0 5.1-.5 6.8-2.5 13.4-3.2 20.2-1 10 .2 20.1 1.7 30 1.5 9.6 3.3 19.2 7 28.2 6.6 16.2 20.7 30.4 39.5 26.3 19.1-4.1 31.6-22.7 37.4-40.1 3.4-10.1 4.4-20.4 1.1-30.7-1.7-5.2-3.6-10.9-6.4-15.6s-6.7-8.1-9.9-12.3c-1.9 2.5-3.9 5-5.8 7.6 3.6.9 6.9 2.5 10.4 3.7a83.32 83.32 0 0 0 12.2 2.9c8.1 1.6 15.5 2.2 23.6.6 15.9-3.1 32-6.4 47.7-10.3 9.5-2.4 27-6.5 29.5-17.9 1.3-6-3-10.9-7.3-14.4a179.73 179.73 0 0 0-16.4-12.3 89.7 89.7 0 0 0-22.5-10.8c-9.4-2.9-19.2-4-28.8-6 .8 2.9 1.5 5.8 2.3 8.7 4.9-4.6 9.6-8.2 13.3-14 4-6.3 8.5-12.2 12.4-18.6s7.2-13.1 11-19.6c3.2-5.5 6.3-11.3 7.9-17.5 2.2-8.8 2.7-22.2-9.2-23.3-5.3-.5-10.7 1.2-15.8 2.3a73.57 73.57 0 0 0-19.9 7.5c-7.7 4.4-15.5 8.2-23.4 12.2a87 87 0 0 0-10.6 6.3 62.6 62.6 0 0 0-5.1 3.9 15.38 15.38 0 0 1-1.3 1.2c-.4.4-1.5 1.1-.9 1.1 1.6 1.2 3.2 2.4 4.7 3.6-1.9-8.8-2.1-17.9-4.5-26.6s-6-16.9-9.1-25.3c-5.9-15.7-14.9-28.9-24.9-42.2-3.5-4.7-8.2-11.3-15-8.6-6 2.5-9.3 10.7-11.7 16.1-6.9 15.5-15.6 31.1-17.8 48.1-1.3 10-.8 20-.7 30.1a112.85 112.85 0 0 1-1.2 15.4c-.7 5.4.1 10.9-.6 16.2 1.8-1 3.6-2.1 5.4-3.1-11.6-3.7-22.3-9.3-33.4-14.3-11.5-5.1-23.3-9.5-34.9-14.4-9.1-3.9-18.4-7.7-27.6-11.5-7.9-3.2-16.8-6.4-25.4-4.2a3.94 3.94 0 0 0-2.3 5.8c2.2 4.4 6.2 6.9 9.5 10.3 4.3 4.3 7.3 9.5 11.8 13.7 8.4 7.9 17.9 14.6 27.2 21.3 17.5 12.4 37.6 25.7 60 24.9 3.4-.3 3.4-4.9.3-5z"/><path class="cls-1" d="M1573.4 691.4c-1.2 1.3-1.5.8-3 .7l1.2 3c3.3-3.3 8.4-4.4 12.7-6.1s8.7-3.5 13.1-5c8.9-3.1 17.9-7 27.1-8.8a3.75 3.75 0 0 0 2.7-3.5c0-.5.1-1.1.1-1.6.3-4.1-5.4-4.3-6.7-.9-.2.5-.4 1-.6 1.6l2.5-2.5c-10.2 2.8-20.2 7.6-30 11.7-4.8 2.1-9.6 4.3-14.3 6.5-3.7 1.7-7 3.2-9.4 6.6-.7 1 .2 2.8 1.5 2.6 2.3-.2 2.9-1.3 4.2-3.2.7-.8-.5-1.7-1.1-1.1zm116 56.3c-1.3 2.3-3.2-1.1-3.6-2.1a11.59 11.59 0 0 1-.3-3.2c-.1-2-.6-4.1-.8-6.1-.5-3.7-.7-7.4-1.2-11.1-.3-2.1-3-7.2-2-9.1-1.4.6-2.7 1.1-4.1 1.7a2.51 2.51 0 0 1 .7.4 3.92 3.92 0 0 0 5.8-3.3c-.1-2.9-.1-5.9 0-8.8.1-5-7.8-5-7.8 0 0 2.9.1 5.9.2 8.8 1.6-1.2 3.2-2.5 4.8-3.7a12.82 12.82 0 0 0-2.7-.5c-1.7-.2-3 1.3-3.5 2.7-1.7 4.3.9 8.2 1.7 12.3 1 4.7 1.6 9.6 2.5 14.3s4.8 13.4 10.9 11.1c.5-.2 1-.6.9-1.2a11 11 0 0 1-.2-1.8c-.1-.7-.9-1.1-1.3-.4zm105.6-89.4c-3.1 1.4-5.1 2.1-8.4.7-2.4-1.1-4.5-1.8-7.1-1.2a2.79 2.79 0 0 0-1.9 2.4 8.68 8.68 0 0 0 1.7 5.4c1.1 1.6 2.9 3 3.4 4.9 1-1.4 2.1-2.7 3.1-4.1-1.3-.1-2.2-1.2-2.9-2.2-2.5-3.4-8.4 0-5.8 3.4 2.1 2.8 4.8 5.6 8.7 5.3a3.25 3.25 0 0 0 2.8-4.8 13.33 13.33 0 0 0-2.8-3.9c-1-1-2.9-2.4-3.1-4-.6.8-1.2 1.6-1.9 2.4 2.9-.9 6.1 1.7 9.2 1.6 2.6-.1 4.7-1.4 7-2.6s.3-4.4-2-3.3zm-44.2-53.7l-1.2-.6v3.2c2.5-1.6 5.3-1.9 7.5-4a2.5 2.5 0 0 0 0-3.5c-2.4-2.4-5.3-2.8-8.6-2.7s-4.3 5.2-.8 5.9c4.2.8 8-1.5 12.2-1.4 3.8.1 4.9-6.3.9-6.9-4.6-.7-8.7 1.7-13.2 2.6.5 1.9 1.1 3.8 1.6 5.7a5.1 5.1 0 0 1 4.8.6c-.2-1.3-.3-2.6-.5-3.9-1.6 2.1-4.4 2.7-6.3 4.5-.9.9-.6 2.9.8 3.1l1.4.3c1.9.4 3.2-2 1.4-2.9zm17.2-20c.6-2 2.8-3.3 4.4-4.5a12.5 12.5 0 0 0 4.1-5.3c1.1-3.2-4.4-4.7-5.1-1.4-.4 2.1-2.3 3.3-3.8 4.7a10.38 10.38 0 0 0-3.6 5.4 2.08 2.08 0 0 0 4 1.1zm-75.1-19.7c-4.4 3.7-3.6 11.7-3.4 16.8 1.7-.2 3.4-.5 5.1-.7-1.4-7.1-2.4-14.2-5.7-20.7-2-3.9-7.6-.5-5.8 3.4.9 1.8 1.4 3.8 2.4 5.6a16.88 16.88 0 0 1 1.7 3.6c.9 3.1 1.6 6.3 2.4 9.5.7 2.8 5.4 2.3 5.1-.7-.4-4.2-3-11 .4-14.6 1.5-1.5-.7-3.5-2.2-2.2zm-9-22.8a13.81 13.81 0 0 1-3.2-6.8c-.6-3.1-5.8-2.4-5.5.7a17.29 17.29 0 0 0 4.9 9.9c2.4 2.6 6.1-1.2 3.8-3.8zm-63.5 63.5c-4.1-3.5-8.5-3.7-13.6-4.8a1.14 1.14 0 0 0-.6 2.2c3.4 1.2 4.6 5.4 7.4 7.4 1.3 1 6.7 2.8 6.1 4.7l1.6-1.6c-.6.1-1.2.2-1.9.3-2.9.4-1.8 5.3 1.3 4.6.6-.1 1.2-.3 1.8-.4a2.34 2.34 0 0 0 1.6-1.6c.7-4.5-3.5-6.2-6.9-7.7-4.1-1.8-5.9-6.7-10.3-7.8-.1.7-.2 1.5-.3 2.2 4.8-.3 9.2.3 13.1 3.5.5.3 1.3-.5.7-1zm70.3 15.7c-3.4-4-10.4-3.7-14.9-1.9 1.1.8 2.1 1.6 3.2 2.4-.3-4.2-1.6-7.3-5.1-9.7a2.94 2.94 0 0 0-4 1c-2.5 4.9-.2 11.8 6.3 9.8a3.36 3.36 0 0 0 2.3-4.1c-1-3.9-2.9-6.7-6.8-8a3.32 3.32 0 0 0-4.1 4.1 83.28 83.28 0 0 0 3.6 8.1c1.1 2.3 4.8 2.2 5.9 0 2.5-4.7 1.4-9.2-2.2-13.1a3.55 3.55 0 0 0-5.9 1.6c-2.8 9.5 5.7 17.1 10.9 23.9 7 9.1 11.1 23.1 10.2 34.5-.4 5 7.5 5 7.9 0 .8-11.5-3.2-23.3-8.5-33.4a52.44 52.44 0 0 0-7.4-10.1c-2.9-3.4-7.6-8.2-6.3-13.1-2 .5-3.9 1-5.9 1.6a3.67 3.67 0 0 1 1.2 4.6h5.9c-1-2.1-2.2-4.2-3-6.4l-4.1 4.1a4.26 4.26 0 0 1 2.2 3.2c.8-1.4 1.5-2.7 2.3-4.1a1.35 1.35 0 0 0 .8-1.2c-1.4.6-2.8 1.2-4.3 1.7 2.2 1.2 2.8 3 3.2 5.4.3 1.7 2.4 2.2 3.7 1.5 3.7-1.9 7.6-5.1 11.6-1.3.8 1.2 2.1-.1 1.3-1.1zm13.1 30.7c.4-3.5-1.6-6-1.9-9.4-.4-4.1 1-8.6 2.5-12.3 1.6-4.1 4-7.8 5.9-11.7 1.6-3.4 2.3-7.3 4.3-10.5a3.18 3.18 0 0 0-1.1-4.3c-4.4-2.1-9.3-1.5-10.9 3.7-1.1 3.6 0 8.9 4.2 9.9 1.8.4 4.3-.5 4.6-2.6.5-3.6-1-6.3-4.9-6.3a4 4 0 0 0-3.7 2.8c-.6 3.7.4 5.9 3.4 8.1 3.5 2.5 8-3.2 4.6-6a5.36 5.36 0 0 1-.5-1.1l-3.8 3.8h1c-.9-.4-1.8-.7-2.7-1.1l.5.5c-.4-.9-.7-1.8-1.1-2.7 0 .3-.1.7-.1 1 1.6-1.2 3.2-2.4 4.7-3.6.7.8.9.9.7.4a3.75 3.75 0 0 1-.1-1.1c.5-.1.1-.5 1.7.1-.6-1.5-1.3-3.1-1.9-4.6-2.1 3.8-2.7 8.3-4.5 12.3s-3.8 7.7-5.2 11.7a33.16 33.16 0 0 0-2.1 12.1c.2 3.9 3.1 7.3 3 11.1-.3 2.2 3.1 2 3.4-.2zm19.8-2v1.5h4.9a63.85 63.85 0 0 1 3.1-18.3c1.7-5.8 2.8-13.3 6.7-18.1 2.8-3.4-1.7-8.2-5-5a16.43 16.43 0 0 0-5.1 11.8c-.1 5.1 8.4 4.8 7.8 0a7.87 7.87 0 0 1 2.3-6.8c-1.8-1.4-3.7-2.8-5.5-4.2-3.8 5.8-4.8 13.3-6.5 20s-2.9 13.5-2.6 20.6c.1 3.1 5 3.2 4.9 0V650c-.3-3.1-5-3.1-5 0z"/><path class="cls-1" d="M1409.1 686.4c-6.2 3.7-14.3 5.6-21.1 2-4.7-2.6-7.1-8.3-9.4-12.9a150.82 150.82 0 0 1-8.4-19.8c-2.2-7.1-3.1-14.5-3.7-21.9-1.2-14.1-1.3-28.3-4.1-42.2a105.37 105.37 0 0 0-5.7-18.9 65.2 65.2 0 0 0-4.3-8.3c-1.3-2.2-4-4.8-4.4-7.3-1 1.7-2 3.5-2.9 5.2 11.9-3.1 25.7 1.8 36.3 7 11.9 5.9 22.3 14.2 31.5 23.8 8.9 9.2 14.9 19.7 19.6 31.6 2.4 6.2 5.7 12.3 7.8 18.6 1.6 4.7 1.9 9.2 6.5 12 3.8 2.3 7.8-1.5 7-5.4-1.9-9.6-1.6-19.5-1.2-29.2.2-4.6 1.7-8.7 3.2-13 1.7-4.8 2.3-10 4-14.8 2.9-8.1 8.5-16 14.5-22.1 6.4-6.5 10.3-14.3 15.8-21.6-2.2.6-4.4 1.2-6.7 1.7 2.1.9 3.2 3.3 4.3 5.1a64.67 64.67 0 0 0 6 7.8c5.5 6.2 11.1 12.2 15.6 19.2 9 13.9 14 30.6 10 47.1a54.48 54.48 0 0 1-4 11.1c-1.2 2.6-3 5.1-3.6 8-1.2 5.8 3.5 8.3 8.3 9.6 15.2 4.3 27.5 14.8 40.5 23.5 7.6 5.1 15.1 10.2 22.4 15.7 3.9 3 7.6 6.3 11.4 9.4 2.6 2.1 7.5 4.2 9 7.1v-5c-1 1.8-4.6 1.4-6.4 1.6-4 .4-8 1-12 1.7a80.77 80.77 0 0 1-21.4 1c-7.5-.7-14.6-3.2-21.9-4.8a89.75 89.75 0 0 0-23.1-2.3c-7.6.4-14.2 2.9-21.5 4.8-5.4 1.5-12.2 2-16.2 6.4-3.2 3.6-2.6 8.5-1 12.7 2.6 6.7 4.9 13.5 7.4 20.2 3.2 8.6 7.5 16.8 10.4 25.6 1.5 4.4 2.6 8.9 3.7 13.4s3.1 8.8 3.8 13.3c1.6-2.1 3.3-4.3 4.9-6.4-6.1.6-11.5-4-15.8-7.9-4.9-4.4-9.6-9.2-14.1-14.1-10.7-11.7-20.6-24.5-33.7-33.6a56.13 56.13 0 0 0-39.7-10c-15 2-28.2 9.8-41.7 15.9a125.93 125.93 0 0 1-26.2 8c-7.5 1.5-17.8 6.2-25.3 3.6 1.3 1.7 2.5 3.3 3.8 5 0-1.6 3.3-4.1 4.4-5.2 2.5-2.3 5.2-4.3 7.7-6.6 6.9-6 13.3-12.3 20.4-18 7.8-6.2 15.5-11.8 24.6-16 9.4-4.3 19.2-7.4 28.9-10.8 6.6-2.3 3.5-13-2.9-10.4-10.4 4.2-21 7.7-31.2 12.4-10.5 4.8-19 11.6-28 18.7-7.5 6-14.1 12.8-21.4 18.9-5.2 4.3-12.9 9.4-13 16.9a5.34 5.34 0 0 0 3.8 5c6.5 2.2 13.5.5 20-1.2 8.4-2.1 17-3.4 25.3-5.9 14.8-4.5 27.9-13.4 42.7-18.1a47.52 47.52 0 0 1 42 6.1c13.4 9 23.2 22.7 34.2 34.4 8.6 9.2 21.2 24.3 35.2 22.9 3.6-.4 5.4-2.9 4.9-6.4s-2.3-7-3.1-10.6c-1.1-4.5-2.2-9-3.6-13.5-2.4-7.9-5.9-15.3-9.2-22.9-3.1-7.3-5-15-8.1-22.2-.6-1.4-3-5.1-2.6-6.9.1-.5 4-1.5 5.4-1.8 7.6-1.9 15.1-5.1 22.9-5.8 8-.7 16.1.5 23.9 2.3 7.4 1.7 14.5 4 22 4.7a84.34 84.34 0 0 0 21.3-.7c4-.6 7.9-1.4 11.9-1.9 3.1-.3 6.3-.3 9.3-1.2 5.8-1.8 9.6-7.4 5.3-12.7-1.9-2.4-4.6-3.6-7-5.3-3.4-2.3-6.3-5.3-9.5-7.8-6.4-5.3-13.2-10.1-20.1-14.8-12.9-8.8-25.8-19.3-40-25.9a66.83 66.83 0 0 0-9.7-3.7c-.6-.2-3-1.2-3.6-1s.9 2.9.8 2.9a13.83 13.83 0 0 1 1-2.2c3.3-7 6.3-13.8 7.5-21.5 2.8-17.8-2.6-35.6-12.5-50.4-4.9-7.4-10.8-13.8-16.7-20.4-3.9-4.3-6.7-12-12.3-14.4a5.22 5.22 0 0 0-6.7 1.7c-2.9 3.9-5.2 8.1-7.8 12.1s-6.4 7.3-9.5 11c-6 7.1-11.7 15.6-14.4 24.7-1.4 4.9-2.3 9.8-4 14.6a45 45 0 0 0-3 14c-.5 10.6-.5 21.3 1.6 31.8 2.3-1.8 4.7-3.6 7-5.4-1.6-.9-1.9-5.5-2.6-7.1-1.2-3.2-2.8-6.2-4.2-9.3-2.8-6.2-5-12.8-7.9-18.9-5.7-11.9-13.9-21.9-23.6-30.8a113.59 113.59 0 0 0-33.1-21.7c-11.5-4.8-25-8.4-37.4-5-2.4.6-3.3 2.9-2.9 5.2.5 3.2 2.7 5.3 4.5 7.8a50.36 50.36 0 0 1 5.6 10.8 105.6 105.6 0 0 1 5.7 21.4c2.8 17.1 2 34.5 5.6 51.5 1.5 7.2 4.4 14.1 7.5 20.8 2.8 5.9 5.8 12.4 10.1 17.5 8.7 10.2 23 7.7 32.4.1 1.8-1.4-.3-4-2-3z"/><path class="cls-1" d="M1444.6 695.8c-2.7-.7-4.7-3.5-7-5.1-2.8-1.9-5.8-3.6-8.6-5.5s-5.9-3.5-8.3-5.7c-2-1.8-3-4.4-5.1-6.1-4-3.4-9.7 2.1-5.8 5.8a58.94 58.94 0 0 0 15.7 11.1c4.4 2.2 11.5 4.2 12-3l-6.9 3.9a10.93 10.93 0 0 1 .8 1.5c-1 6.7 8.5 8.1 9.2 1.3a10.49 10.49 0 0 0-5.5-10.7 4.63 4.63 0 0 0-6.9 3.9c.1-.6.3-1.1.4-1.7l2.7-2.1c1.5-.6 1.1.4-.2-.4-.6-.3-1.2-.5-1.8-.8-1.5-.7-2.9-1.5-4.4-2.2-3.3-1.5-6-3.9-9.5-6.7-1.7 2.1-3.3 4.3-5 6.4 2.5 1.8 4.4 4.3 7.1 6 3.1 2 6.4 3.9 9.6 5.6 3.6 2 7.2 3.7 10.4 6.1 2.1 1.5 3.5 2.7 6.2 2.7a2.21 2.21 0 0 0 .9-4.3zm20.2-7.8c0-11.6 9.9-20.2 11-31.7.4-4.2-6.2-4.9-7.2-1-2 8-5.5 15.3-8.3 23-2 5.7 7 8.1 9 2.5.3-.8.8-3.6 1.1-3.7-2-.3-4-.5-6.1-.8 1.2 1.1 2.4 2 3.6 3 2.1 1.6 5.8.4 7-1.8a19.59 19.59 0 0 0 2.1-7.4c.5-6.6-9.4-6.3-10.1 0-.2.8-.5 1.5-.7 2.3 2.3-.6 4.6-1.2 7-1.8-.6-.4-1.1-.9-1.7-1.3a5.31 5.31 0 0 0-6.1-.8c-4 2.2-4 5.9-5.1 9.9 3 .8 6 1.7 9 2.5 2.1-7.8 4.8-15.6 6.3-23.5-2.4-.3-4.8-.7-7.2-1 .4 11.4-9.4 20.1-9.4 31.7.2 3.6 5.8 3.6 5.8-.1zm12.1 2.9l.6 1.8a3.46 3.46 0 0 0 3.2 2.4c8.2.9 14.8-5.1 22.8-5.1 5.3 0 4.9-7.3 0-8a99.53 99.53 0 0 0-10.9-.6c-6-.3-6 9 0 9.3a48.64 48.64 0 0 0 10.1-.1c3-.5 5.7-1.8 8.8-1.7-.4-3.2-.9-6.4-1.3-9.6a6.75 6.75 0 0 1-1.4.2c-5.6.9-3.6 8.7 1.2 9.2.5 0 .9.1 1.4.1 6.1.6 6.4-9.7 0-9.7-3 0-5.5.8-8.3 1.5-3.5.9-7 .6-10.6.7v9.3a96.9 96.9 0 0 0 12-.9c-.7-2.6-1.4-5.1-2.1-7.7-7.4 1.1-14.1 6.7-21.7 6.4 1.1.8 2.1 1.6 3.2 2.4-.3-.6-.5-1.2-.8-1.8-1.6-3.5-7.5-2.2-6.2 1.9zm-90-77c6.4 4.8 9.8 12 14.3 18.4 4.2 6 7.6 12.6 12.4 18.1 2.9 3.3 8-1.7 4.8-4.8-10.7-10.8-16.4-26.8-29.3-35.5-2.4-1.7-4.5 2.1-2.2 3.8zm99.2 17.5c-1.6-11.8-3.4-23.6-4.8-35.4-.5-4.1-7-4.2-6.6 0a207.86 207.86 0 0 0 7.2 36.6c.8 2.8 4.6 1.5 4.2-1.2zm-96.4 92.1c-1.9 1-2.3 1.9-2.5 3.9a1.24 1.24 0 0 0 1.6 1.2c7.6-1.3 14.8-5.4 21.9-8.3 3.3-1.3 1.3-6.1-1.9-4.5-3.5 1.7-7 3.6-10.4 5.4-1.6.9-3.3 1.7-4.9 2.5-1 .5-6.6 2.9-3.1.7.6-.3 0-1.3-.7-.9zm84.3 3c.9 5.8 5 10.1 7.7 15.1 1.8 3.4 5.7 8.9 4.3 12.8 1.9-.8 3.9-1.6 5.8-2.4-3.8-2.8-6.9-6.4-10-9.9a57.72 57.72 0 0 1-4.2-4.4c-1.4-1.7-1.3-1.3-.2-3.9 2.1-4.6-4.6-8.8-6.9-4.1-2.7 5.4-3 9.2 1.3 13.7 5.1 5.3 10 11 16 15.3 1.9 1.4 5.5.1 5.8-2.4.7-5.2-2.3-10.1-4.9-14.4-3.3-5.4-9.2-10.6-10.8-16.7-.7-2.3-4.3-1.2-3.9 1.3zm44.5-29.9c4.5 2.8 8.7 5.6 14.3 4.3 3.2-.7 2.6-6.1-.8-5.9a11.09 11.09 0 0 1-5.4-.7 51.41 51.41 0 0 1-5.1-2.9c-3.3-1.9-6.3 3.2-3 5.2zm525.9-238.2c-3 3.3-4.6 2.6-7.9.4-2.4-1.5-4.8-3-7.1-4.6a53.11 53.11 0 0 1-14.7-14.8c-3.2-4.8-5.7-9.9-8.5-14.9s-7-9.6-9.1-14.9c-1.9-5-1.2-11.4-.8-16.7.5-7.2 3.3-13.8 3.8-21 .9-12.1-.8-23.9 8.5-33.3 7-7 17.4-9.4 27-7.1 11.8 2.8 23.3 5 31.9 14 8.1 8.5 12.9 19.3 19.9 28.5 7.5 9.8 17.5 16.9 24.3 27.3a62.64 62.64 0 0 1 10.7 37.1c-.3 7.5-2.8 19.6 3.8 25.2 5.1 4.3 12.5-3.1 7.4-7.4-2.5-2.1-1.4-8.5-1.3-11.3a79.43 79.43 0 0 0-.1-13.8c-.8-7.1-1.9-14.2-4.4-20.9s-6.6-12.9-10.9-18.7-9.4-10.4-14.7-15.3a84.55 84.55 0 0 1-13.2-16.6c-6.8-10.9-14.3-23.4-26.1-29.4-6-3.1-12.6-4.1-19.1-5.8-5.7-1.5-11.2-3-17.2-2.6a36.2 36.2 0 0 0-27.7 15 36.58 36.58 0 0 0-6.5 16.4c-1.1 7.5.2 15.2-1.2 22.7-2.4 12.4-6.6 27.4-.1 39.3 3.7 6.6 8.4 12.8 12.2 19.4 3.8 6.4 7.9 12.7 13.4 17.8s12.5 9.2 19.4 12.4c5.3 2.5 8.5.6 11.8-3.8 1.6-1.9-1.8-4.5-3.5-2.6z"/><path class="cls-1" d="M2061.9 398.8a6.76 6.76 0 0 1-1.8 2.6l4.7 1.2a12 12 0 0 0-4.5-7.5c-2.6-2.3-4.5-5.1-7-7.6-2.9-2.9-7.7.8-5.7 4.4 3.3 5.7 6.7 11.3 12.2 15.1 2.7 1.9 6-.7 6.2-3.5.3-6.3-6.4-12-10.6-16.1-3.9-3.8-9.7 2.1-6 6 3.6 3.7 7.3 7.3 10.9 11l6.1-6.1a7.4 7.4 0 0 1-2-2.3c-1.8 1.4-3.6 2.8-5.5 4.2 4.3.9 6 5.9 7.6 9.4 1.8 4 3.4 8 6.3 11.5 3.7 4.3 10-2 6.3-6.3-6.4-7.4-6.4-20.7-17.9-23-3.5-.7-5.8 2-5.3 5.3.4 3.1 2.1 5.2 4.4 7.2 4.1 3.7 10-2.1 6.1-6.1-3.6-3.7-7.3-7.3-11-10.9l-6 6c2.3 2.2 8.3 6.7 8.3 10.1 2.1-1.2 4.1-2.4 6.2-3.5-4.5-2.7-7.2-7.4-10.1-11.6l-4.9 4.9c1.9 1.5 3.4 3.5 5.3 5 2.2 1.8 4.5 2.9 5.2 5.9.6 2.5 3.8 2.5 5.1.7a12.16 12.16 0 0 0 1.8-4.2c.7-2.5-3.1-4.3-4.4-1.8zm64.3 38.7c-.3 1.9 1.1-.3 1.3 1.1 0-.3-.6-.6-.7-.9a17.36 17.36 0 0 0-1.5-2.6 17.69 17.69 0 0 1-2.1-7.2 34.06 34.06 0 0 1 7.2-23.6 72.55 72.55 0 0 1 19.2-16.1c5.9-3.5 13.1-6.7 16.9-12.6 1.4-2.1 2-4.6 3.1-6.9 1.2-2.5.8-3.1 3.5-1.8 5.1 2.6 9.3 7.7 12.8 12.1 9.3 11.4 13 25.5 13.5 40a134.72 134.72 0 0 1-1.2 22.9c-1.1 8.1-1.4 16.8-3.8 24.6-2.7 8.8-7.8 17.3-12 25.5-2.6 5.2-5.5 12.4-10.5 15.7-5.3 3.6-12.4-4.1-14.5-8.4-3.5-7.2-4.4-15.6-6.9-23.2-2.9-9-6.5-17-5-26.7.9-6.3.6-14.9 4.3-20.3 3.1-4.5 11.6-10.1 16-4.8 4 4.7 6.4 12.5 6.9 18.6.7 7.6-2.1 15.9-5.1 22.7-3.4 7.7-8.2 13.3-16.6 15.5a5.14 5.14 0 0 0-3.7 3.7c-.1.5-.2 1.1-.3 1.6-1.3 6.7 8.7 9.6 10.3 2.8a9.38 9.38 0 0 1 .4-1.6l-3.7 3.7c19-4.1 27.6-26.3 29.1-43.8 1.2-13.3-6.9-38.7-24-35.6-7.9 1.4-16.1 7.2-19.4 14.7-1.8 4-2.4 8.4-3 12.7-.7 5.5-1.9 11-1.8 16.6.4 11.7 6.3 22.7 9 33.9 2.1 8.7 4.7 18.1 12.3 23.6 7 5.1 15.6 7.4 22.8 1.4 6.9-5.8 10.9-14.9 15-22.8 2.8-5.5 5.9-11 8.2-16.7 2.1-5.2 3-11 3.7-16.5 1.4-10.4 3-21 3.3-31.5.6-19.4-3.2-38.6-15.6-54-7.7-9.6-24.7-26.4-32.4-7.8-2.1 5-3.9 7.6-8.6 10.8s-9.7 6-14.2 9.6c-9 7.2-16.8 15.6-19.5 27.2-1.9 8.1-1.8 16.8 2.6 24.1 2.4 3.9 7.9 8.2 8.5.7 0-2-3.5-2.5-3.8-.4z"/><path class="cls-1" d="M2173.5 508.3l-1.6.3a1.89 1.89 0 0 0-1.3 1.3c-3.8 13.8-5.7 28.7-7.2 43-1.6 15.4.5 30.5 2.5 45.7 4 30.9 9.5 61.6 10.9 92.8 1.4 30.5-.8 62.3-8.3 91.9s-10.8 59.5-14 89.8c-1.8 16.5-4.5 33.7-2.1 50.3a134.24 134.24 0 0 0 15.2 45.2c3.2 5.8 11.5.7 8.8-5.1-6.1-13.1-11.4-26.7-13.6-41.1s.1-29.3 1.5-43.6c2.9-29.9 5.5-60.1 13-89.3 7.3-28.4 9.9-58.2 9.5-87.5-.4-30-5.5-59.7-10.4-89.2-2.8-16.7-6.5-33.8-6.8-50.8a177.66 177.66 0 0 1 1.4-24.2c.5-4.3.9-8.6 1.3-13 .2-2 .2-12.7 2.2-13.2 2.2-.4 1.2-3.7-1-3.3zM1878 650c-.8-6.7-5.8-11.7-10.4-16.3-6.7-6.7-10.4-15.4-12.6-24.5-2.5-10.1-5.9-20.4-7.4-30.7-.7-4.9-1.7-14.7 2-18.7-1.9.2-3.8.5-5.7.7 5.7 3.6 10.2 9.6 15.2 14.2 4.7 4.3 8.2 10.4 13.6 13.8 12.3 7.7 22.9-4 30.6-12.4 5-5.4 10.1-10.5 13.5-17.2s6.6-13 11.7-18.8c4.7-5.4 9.2-10.7 12-17.4 3.1-7.4 4.7-15.4 6.6-23.2 2.1-8.4 3.8-17 6-25.4 1.9-7.6 4.2-15.1 5.3-22.9 1.6-10.7.7-24.8-11.9-28.2-6.9-1.9-14.8 1-21.6 2.2a60.77 60.77 0 0 0-20.6 7.9 91.13 91.13 0 0 0-16.7 13.6c-5.4 5.5-10.8 11.4-14.3 18.3-3.9 7.9-8.4 15.5-11.6 23.7a114.8 114.8 0 0 0-6.4 25c-1.4 9.5-3 18.9-4.4 28.3s.2 17.7 2.2 26.8a5.14 5.14 0 0 0 3.7 3.7l1.6.3c6.7 1.4 9.6-8.9 2.8-10.3a9.36 9.36 0 0 1-1.6-.4l3.7 3.7c-1.5-7.4-3.1-14.4-2-22 1.1-7.3 2.8-14.6 3.7-21.9 1.6-13.4 4.6-26.5 11-38.4s12.6-23.3 22.6-32.7a65.89 65.89 0 0 1 14.5-10.6c6.3-3.3 12.6-4.4 19.5-5.7 4.4-.8 10.6-3.9 14.1.4 3 3.8 2 10.6 1.3 15-2.1 13.8-6.4 27.4-9.4 41-3 13.4-5.1 27.5-14 38.4-3.8 4.7-8 9.1-11.1 14.3-3.4 5.8-5.4 12.4-9.7 17.7-4.1 5-8.7 9.9-13.3 14.5s-9.8 8-15.4 2.7c-4.8-4.6-8.9-9.7-13.7-14.3-4.6-4.4-7.9-10.3-14.2-12.5-2-.7-4.2.5-5.3 2.1-3.8 5.6-3.4 14.2-2.8 20.7.8 10.1 4.7 19.6 7.3 29.4s5.3 19.5 11.4 27.7c4.6 6.2 14.8 10.5 15.9 18.6.7 2.6 4.6 2.1 4.3-.2z"/><path class="cls-1" d="M1936.5 530.3a19.43 19.43 0 0 0-3.3-.7v5.1c6.4-.9 12.1-4 18.6-4.6a117.6 117.6 0 0 1 16.8-.2 81.46 81.46 0 0 1 16.3 2.6c2.8.7 11.2 2.5 11 6-.1 2.3-2.2 5.2-3.2 7.2-1.5 2.8-3.1 5.6-4.7 8.4a138.72 138.72 0 0 0-8.1 16.4c-2.4 5.7-4.5 11.6-6.4 17.6-1.4 4.5-2 9.5-4.9 13.4 2.8.8 5.7 1.5 8.5 2.3-.2-3.3 1.9-6.6 3.4-9.5 2-3.9 3.8-7.9 5.9-11.8 4.1-7.7 8-16.9 13.8-23.5a17.33 17.33 0 0 1 11.3-6c4.8-.5 9.1 1.8 13.4 3.7 9.7 4.4 19.4 8.8 28.8 13.8s18.6 10.3 27.8 15.8c8.5 5 17.6 9 26.1 14s16.7 10.5 22.2 19c1.8 2.9 2.5 2.8.9 5.6s-4.3 5.1-6.6 7.2c-5.8 5.2-11.9 9.9-17.6 15.2-4.4 4.1-8.9 8.1-13 12.4-3.8 4.1-7.1 8.8-11.7 12.1-5.2 3.7-.2 12.5 5.1 8.7 4.5-3.2 7.9-7.1 11.6-11.1 4.3-4.8 9.1-9.2 13.8-13.6 6.2-5.7 12.8-10.9 19.1-16.5 5-4.4 11.2-10.5 10.6-17.8-.4-4-3.2-7.7-5.5-10.8a60.32 60.32 0 0 0-12.1-12.1c-9.2-6.9-19.7-11.9-29.8-17.2-10.9-5.7-21.6-11.7-32.4-17.4-11.1-5.9-22.4-11.1-33.8-16.1-9.6-4.2-19.2-6.3-28.6-.4-9.6 6-14.2 17.7-19.4 27.2-2.8 5.2-5.3 10.5-7.9 15.7-2.1 4.2-4.6 8.8-4.3 13.6s5.8 5.9 8.5 2.3c3.4-4.5 4.2-10.3 5.8-15.6a165 165 0 0 1 8.5-22.5c3.3-6.9 7.5-13.3 10.7-20.2 2-4.4 4.8-9.7 2.2-14.4-2.5-4.5-8.9-6.6-13.6-8a78.5 78.5 0 0 0-18.6-3c-14.1-.7-27.3 1.4-40.1 7.6-2.7 1.3-.8 5.8 2 4.8a20.73 20.73 0 0 1 3.3-1c1.2-.8 1.2-3.2-.4-3.7z"/><path class="cls-1" d="M2007.8 606.5c.4-2.5-.2-4.5-.8-6.9l-4.2 1.8a7.52 7.52 0 0 0 6.5 3.8 3.05 3.05 0 0 0 3.1-3.1 3.18 3.18 0 0 0-3.1-3.1h-.2a6.39 6.39 0 0 0-.7-.2c-.9-.2.8.8.1.1a15 15 0 0 0-1.3-1.1c.6.5-.4-.5-.5-.6a4 4 0 0 0-5.6 0 4 4 0 0 0 0 5.6 7.32 7.32 0 0 0 4.9 2.5 14.2 14.2 0 0 0 4.1-.3c-.5-2-1.1-3.9-1.6-5.9a4.5 4.5 0 0 1-2.5-.9 2.28 2.28 0 0 0-2.9.6 2.41 2.41 0 0 0 .2 3c.8 1 .9 2.9.8 4.2-.2 2.1 3.4 2.7 3.7.5zm-55.1-27.2c-1.7-2.2-4.1-3.8-6.9-2.6-2.5 1.1-3.8 3.7-5.3 5.8a2 2 0 0 0 .7 2.7c.5.2 1.1.5 1.6.7 3.4 1.5 4.7-3.8 1.1-4.2-.6-.1-1.2-.1-1.8-.2.6.8 1.3 1.6 1.9 2.5a12.38 12.38 0 0 1 2.3-4.4c1.8-2.1 3.4-.7 4.9 1 .9 1.1 2.3-.3 1.5-1.3zm40.6-71.3c.3-2.7.9-5.3-1.2-7.4a13.09 13.09 0 0 0-3.7-2.4c-.5-.2.5.2-.2-.1a4.87 4.87 0 0 0-1.1-.4c-.8-.1-.1.2.2.2.1.1.1.2.2.3a5.63 5.63 0 0 0-.4-1.2c-1.4-3.8-6.6-2.3-6 1.7a5.65 5.65 0 0 0 3 4.3 5.85 5.85 0 0 0 2.2.5 16.48 16.48 0 0 0 2.1-.5s1.5.6 1.8 1.1c.6.9.5 2.7.6 3.8a1.25 1.25 0 1 0 2.5.1zM1868 729.8c-5.5.1-10.3-4.2-15.5-5.9-5.7-1.9-11.5-1.9-17.5-1.3-12.7 1.3-25.2 4-36.8 9.5-20 9.4-34.8 27.1-44.3 46.7-5.1 10.6-10.1 22.4-10.6 34.3a24.16 24.16 0 0 0 2.8 12.3c2.3 4.5 4.1 9.7 6.8 13.9 6.4 9.6 17.2 5.9 26 2.3 11.6-4.8 25.1-6.6 37.5-8.7a201 201 0 0 1 46.5-2 90.76 90.76 0 0 1 20 3.9c5.4 1.6 11.6 3.2 16 6.9 2.6 2.1 5.4 1.6 7.4-1 2.2-2.9 1.5-6.8.7-10.1a133.76 133.76 0 0 1-2.9-14c-1.7-11.5-3.1-23-7.5-33.8-3.9-9.8-10.1-18-17.1-25.8-3.4-3.8-6.7-7.8-10.2-11.4-3.3-3.3-8.5-5-11.3-8.6l-2.1 8.1c9.9-2 20.7-.8 30.3 2.3 9.9 3.1 18.8 8.8 28.3 13 19.2 8.6 39.8 8.3 60.3 5.6 8.4-1.1 18.1-2.8 26.2.3s11.3 12.4 13 20.1c1.5 7.1 1.1 14.8-3.9 20.5-5.7 6.6-15.2 9.9-23.4 12-12.4 3.2-25.2-.4-37.6-1.5-11.4-1-23.8-1.4-34.4-6.2-6.3-2.8-12 6.4-5.5 9.5 11.1 5.4 22.8 6.6 35 7.5s25 4.2 37.2 2.9c18.6-2 41.4-12.5 43.9-33.2 1.1-9.4-1.4-19.5-5.8-27.8-5-9.5-13.2-14.6-23.8-15.7-10.1-1-20.2 1.4-30.2 2.4-12.1 1.3-24.8 1.6-36.7-1.7-13.3-3.8-24.8-12-37.8-16.6a72.19 72.19 0 0 0-37.7-2.9c-3.9.8-4.2 5.5-2.1 8.1 2.6 3.3 6.5 4.3 9.6 7s5.7 6.2 8.5 9.2c6.6 7.2 13.1 14.3 17.3 23.2s6 18.6 7.4 28.1c.8 5.1 1.4 10.3 2.4 15.4.3 1.7 3 7.9 2 9.2 2.5-.3 4.9-.6 7.4-1-6.9-5.6-16-8.1-24.5-10.4-11.7-3.2-23.7-3.2-35.8-3a211.14 211.14 0 0 0-38 3.9c-11.4 2.3-22.8 4.3-33.6 8.7-3.6 1.5-9.3 4.4-12.7 1.1-2.9-2.8-4.1-8.5-6-12a20.15 20.15 0 0 1-2.4-14.4 78.28 78.28 0 0 1 5.1-16.9c7.5-18.8 19.3-37.1 36.6-48.3 11.4-7.4 24.7-11.3 38-13.6 6.8-1.2 13.4-2.2 20.2-.1 5.4 1.7 9.5 4.9 15.4 4.4 2.7-.2 2.8-4.5-.1-4.4z"/><path class="cls-1" d="M1933.4 796.6a6.78 6.78 0 0 0-5.1-2.8 13.76 13.76 0 0 0-5.3.9 3.5 3.5 0 0 0-2.3 4.7c.7 1.7 3.2 2.9 4.9 1.7a10.92 10.92 0 0 0 1.7-1.3c.4-.4.7-1 1.2-1.3.7-.3 1.4.5 1.9 1a2.09 2.09 0 0 0 3-2.9zm-69.7 2c-.4.8-.9 1.7-1.2 2.5a15.44 15.44 0 0 0-.6 2.3 2.38 2.38 0 0 0 1 2.5 2.25 2.25 0 0 0 2.7-.3c.6-.7 1.2-1.4 1.7-2.1s.7-1.4 1.1-2.1a2.74 2.74 0 0 0-1-3.7 2.71 2.71 0 0 0-3.7.9zM775.7 948c.1-35.4-1-70.7 1.8-106 1.4-17.7 2.2-35.4 3.1-53.1s2.9-35.4 3.9-53.1c2-35.2 7.4-69.9 13.2-104.6 2.9-17 6.4-34 7.1-51.3.6-16.7.8-33.6-1.5-50.2-1.4-9.6-3.5-19.1-5.3-28.7s-.9-18.9-.5-28.5-1.9-18.3-1.9-27.7c0-5.9-1.7-13.2-7.1-16.4.4 1.7.9 3.3 1.3 5 1.8-2.8 4.7-6.1 4.3-9.7-.5-4.5-4.3-4.8-7.6-6.3.2 1.8.5 3.7.7 5.5 1.9-2.5 2.7-4.7 1.9-7.8a3.54 3.54 0 0 0-3.3-2.5c-2.7-.2-4.7 1.2-6.1 3.4s-1.3 5.7-3.2 7.3c1.9 1.1 3.8 2.2 5.6 3.3 1-2.9.8-5.6 1.4-8.6-1.3.8-2.7 1.5-4 2.3 4.4 1.3 9.2-1 7.3-6.2-.9-2.4-4.3-3.3-5.8-.8-.6 1-1.1 2-1.7 3-2 3.5 3.3 6.6 5.4 3.1.6-1 1.2-2 1.7-2.9-1.9-.3-3.8-.5-5.8-.8a12.09 12.09 0 0 0 .5-1.8 3.3 3.3 0 0 0-4 2.3c-.7 2.9-.6 5.8-1.6 8.6-1.3 3.5 3.3 5.2 5.6 3.3 1.1-.9 4.3-8.6 4.5-8.6-1.1-.8-2.2-1.7-3.3-2.5-.1.3-.1.7-.2 1a3.5 3.5 0 0 0 .7 5.5 20.62 20.62 0 0 0 2.6 1.2c1.4.5 1-.6 1 .2 0 1.3-2.3 3.7-3 4.9a3.71 3.71 0 0 0 1.3 5c5.6 3.3 2.9 14.2 3.9 19.4.7 4.1 1.9 7.8 1.9 12s-.2 8.6-.4 12.9c-.3 7.7-.4 15.3 1.2 22.8 1.7 8.3 3.6 16.5 5.1 24.8 3 16.9 2.9 34.1 2.4 51.2s-3.8 33.9-6.6 50.7c-5.4 33.3-10.9 66.6-12.7 100.3-.9 17.1-2.4 34.1-3.4 51.2-1 17.3-1.4 34.7-2.4 52-1.1 19.2-2.4 38.2-2.3 57.4 0 19.5.7 38.9.8 58.4.1 2.2 3.5 2.3 3.5.1z"/><path class="cls-1" d="M782.6 422c1 8.1-19.5 3-23.8 1.8-13.3-3.7-29.4-7.1-37.1-19.9-2.4-4-3.3-8.1-4.2-12.6s-3.4-8.8-3.9-13.5c-.6-5-.5-10.2-1-15.2-.5-5.4-1-10.9-1.1-16.3 0-4.6-.3-9.4-.1-14 .2-4.2 2.4-7.3 4.1-11 3.4-7.7 3.1-16.2 7.7-23.5s10-15.7 17.2-20.5c3.5-2.3 7.6-3.2 11.4-4.7 4.3-1.8 8.2-4.4 12.6-5.9 8-2.7 16.9-2.2 25.2-1.5 8.6.8 17.5 1.6 25.7 4.1 9.2 2.8 17.9 9.4 23.8 17a107.09 107.09 0 0 0 7.9 9.9c3.6 3.7 7.7 7.1 10.6 11.5 4.7 7.4 5.7 16.8 7.6 25.2 1 4.8.9 9.5 1.1 14.3s2 9.5 1.9 14.2c-.1 5.3-1.9 11.3-3.2 16.5a92.16 92.16 0 0 1-6.1 16.9c-4.3 9-9.5 15-18.5 19.5-8.7 4.4-17.8 9.8-27.7 9.8-4.6 0-9.2-.5-13.8-.1-2.6.2-7.8 1.3-9.8-.9-3.7-4-9.2 1.8-5.9 5.9 4.9 6 14.1 3.3 20.7 3.3 5.1.1 10.1.4 15.1-.5 5.4-.9 10.2-3.2 15-5.8 7.8-4.2 16.6-7.7 22.9-14.2 7.2-7.5 11.4-18.6 14.3-28.5 1.5-5.2 2.5-10.5 3.5-15.8 1.2-6.1.1-10.4-.8-16.4-.8-5.5-.1-11-.9-16.5s-2.2-10.8-3.4-16.1a50.88 50.88 0 0 0-4.8-13.2c-2.9-5.1-7.2-8.9-11.3-13-3.6-3.6-6.4-7.8-9.6-11.7a57.39 57.39 0 0 0-12.8-11.3c-8.5-5.8-17.7-8.2-27.9-9.5s-20.5-2.6-30.8-1.5c-10 1.1-17.7 6.3-27 9.6-9.6 3.3-15.7 9.8-21.7 17.8a92 92 0 0 0-7.6 11.2c-2.5 4.5-3.3 9.3-4.4 14.3s-3.4 9.1-5.4 13.8c-1.7 4.1-1.5 8.4-1.5 12.8.1 12.9 1.2 25.5 1.9 38.4.2 4.7 1.9 8.3 3.2 12.8 1.7 5.5 2.1 10.9 4.7 16.1 8.2 16.4 28.2 21.1 44.6 24.5 6.1 1.3 29.7 4.5 26.4-7.9-.7-1.5-3.2-1.3-3 .3z"/><path class="cls-1" d="M776 328.5c-9.7-.9-16.5 8.7-14.5 17.8 2.9 13.1 20.1 15.5 25.2 27.4 1.4 3.2 3.1 7.9 1.9 11.3-1 3.1-4.3 4-7.1 4.8-4 1.2-7.6 2.5-8.7 6.9-1.2 4.7 0 11.1 3.4 14.7 3.2 3.3 8.3 4.7 12.1 7.4 3.3 2.4 6.5-2.6 4.1-5.3-2.8-3.3-6.9-3.7-10.2-6.2-3-2.3-4.7-8.6-.7-10.4 3.8-1.7 7.8-2.3 10.7-5.6 3.1-3.4 3.3-8.1 2.4-12.4-2.3-11.1-10.1-16.8-19.1-22.8-4.9-3.2-10.4-7.3-10.3-13.8.1-6.1 4.6-11 10.7-10.9 2.1.1 2-2.7.1-2.9z"/><path class="cls-1" d="M789.4 371.1c-.6.3-1.1.7-1.7 1 .5.1 1.1.1 1.6.2-7.1-5.8 5.8-9.9 9-12.2a35.93 35.93 0 0 0 10-10.9c2.9-4.7 4.9-10 4.5-15.5-.2-2.7-1.3-4.9-1.8-7.5-.7-3.3.6-8.9 4.9-9.3 3.6-.3 3.6-6 0-5.7-6.1.6-10.8 6.5-10.8 12.5 0 4.1 2.7 7.5 2.7 11.6.1 5.1-2.4 10-5.3 14.1a33.14 33.14 0 0 1-9.2 8.7c-2.4 1.6-6.1 2.6-8 4.9-2.9 3.4-1.6 10.2 2.8 11.5a1.44 1.44 0 0 0 1.3-.3l1.4-1.4a1.12 1.12 0 0 0-1.4-1.7zm-3.4-37.3a4.44 4.44 0 0 0 3.8-2 5.22 5.22 0 0 0-.3-4.7 2.1 2.1 0 0 0-2.5-1 32.51 32.51 0 0 0-4.3 1.8 2.42 2.42 0 1 0 2.4 4.2 39.72 39.72 0 0 1 3.5-2c-1-.3-2-.5-3-.8l.3.6c-.2-.4 0 .1 0 .2s.1.6 0 .1c0 .2-.1.5 0 0 0-.1.1-.1.1-.2-.2.1-.1.1 0 0l-.2.1c.1 0-.4.1-.5.2-1.7.5-1.3 3.6.7 3.5zm-43 5.6c-3.1-4.3-8.7-1.8-12.2.8-6.8 5-4.9 12.7-3.3 19.9 1.3-.7 2.5-1.5 3.8-2.2-2.8-3.5-1.5-10.9-.7-14.9 1.1-5.7 4.6-10.6 5.7-16.4.6-2.9-3.9-4.2-4.5-1.2-1.3 7-5.3 12.8-6.2 20-.6 5.2-1 11.4 2.5 15.7 1.5 1.8 4.4-.2 3.8-2.2-1.3-4.8-3.6-10.2-.2-14.6 1.9-2.4 6.9-6.9 9.5-3.5.8 1 2.5-.3 1.8-1.4zm13.8-44.6c5.1-4.5 10.7-3.9 17-4.4 2-.1 3.6-.9 5.5-1.4 2.8-.7 5.8-.2 8.7-.1 3.8.1 3.8-6 0-6-3.1 0-6.5-.4-9.6.4s-5.5 2-8.9 2.5c-5.8.8-11.1 2.6-14.6 7.5a1.23 1.23 0 0 0 1.9 1.5zm87.6 37.6c.9 6 2.9 11.2-.4 16.9-1.9 3.2-3.2 5.6-2.7 9.4.5 3.1 5.5 2.3 5.4-.7-.1-4.5 3.3-7.9 3.7-12.3.4-4.8-1.3-9.7-2.9-14.1a1.6 1.6 0 1 0-3.1.8zm-7.3 70.7c-2.1 1.9-5.2 1.8-7.7 2.7-3.3 1.1-.8 6.1 1.8 4.2s5.7-2.7 7.7-5.1a1.27 1.27 0 0 0-1.8-1.8zM371.5 1139c-34.4-34.8-42.4-86-43.9-132.8-.9-26.6 1-53.4 7-79.4s16.4-50.7 26.2-75.3a586 586 0 0 1 36-74.4 273.06 273.06 0 0 0 26.9-65.5c3.3-12.3 5.9-24.8 8-37.3a130.26 130.26 0 0 0 2-17.5c.2-6.4-.9-12.7-.6-19 .3-5.2 4.5-8.8 4.6-13.8a13.58 13.58 0 0 0-1.5-5.9c-1.2-2.7-1.8-5.4-2.8-8.2-2.4-6.8-7.3-8.9-13.2-4.3-5.2 4-9.8 8.7-15.1 12.7a155.21 155.21 0 0 0-15.3 12.6c-10.7 10.6-20.6 22.1-31.2 32.8-10.4 10.4-20.8 20.9-32.1 30.4-10.5 8.7-20.7 18.5-32.9 24.8h4c-3.2-2.4-1.5-8.7-.6-11.8a91.94 91.94 0 0 1 6.3-15.7c5.5-10.9 12.3-21 18.4-31.6 4.4-7.7 6.9-16.3 11.3-24.1 4.2-7.3 7.7-15.4 14.1-21.1 6-5.3 12.7-9.7 18.6-15 6.2-5.6 12.2-11.4 16.7-18.4 1.9-2.9-1.2-6.7-4.4-5.7-3.6 1.1-7.1 2.7-10.7 3.9-2.2.8-8.8 3.7-11 1.9.3 1.3.7 2.5 1 3.8 2.9-9.3 8.8-17.1 15.8-23.8 6.8-6.4 14.7-12.7 23.7-15.4 8.2-2.5 17.8-3.2 24.8-8.7 6.6-5.2 9.1-13.7 15.6-19.1 8.6-7.1 19.2-9 29.5-12.1 9.7-3 18.8-7.7 28.8-9.6 11-2.1 21.9-3.8 32.7-6.5 10.6-2.7 21.2-6.5 31.9-8.5 12.3-2.3 24.4 2.8 35.7 7s22.3 8.6 34 11.1c-.8-2-1.6-4-2.5-6.1-5.5 8.5-17.2 12.1-26.3 15.1-12.8 4.1-25.1 9.2-37.5 14.3-13.3 5.3-26.9 9.9-40.2 15.1-11 4.3-22.4 7.8-31.5 15.8-3.5 3.1.2 8.6 4.4 7.5 18.9-5 39.1-6.7 58.4-3.5 9.9 1.7 18.1 5.9 27 10.2 6 2.8 14 3.9 18.7 8.8.3-2.3.6-4.7.9-7-7.4 4.6-15.5 7.2-24 9.3-8.2 2.1-16.4 4.3-24.5 6.5-8.9 2.4-17.7 4.3-27 4.7-8.7.4-17.4-.1-26.1-.5s-17.5-.4-26.2-.6c-8.9-.2-18-.8-26.8.3-7.4.9-13.9 5-21.3 6.3a21 21 0 0 0-9 3.1c-2 1.3-4.2 5.4-6.5 5.5-6 .3-6 9.6 0 9.3a11.93 11.93 0 0 0 8.3-3.6c2.3-2.4 3.7-4.2 7.1-5 3.9-.9 7.6-1.4 11.4-2.9 3.3-1.3 6.6-2.8 10.1-3.4 9.2-1.5 19.2-.4 28.5-.3s18.6.3 27.9.7c18.3.8 35.1-.2 52.8-5.2 16.6-4.7 34.9-7.4 49.7-16.6a4.51 4.51 0 0 0 .9-7c-5.4-5.8-13.6-7-20.5-10.2-9.6-4.5-18.5-9.3-29.1-11.1-21-3.6-42.6-2-63.2 3.4 1.5 2.5 2.9 5 4.4 7.5 9.4-8.4 23.1-11.8 34.7-16.2 14-5.3 28-10.3 41.8-16 11.7-4.9 23.7-8.7 35.5-13.3 9.3-3.6 19-8.2 24.3-17a4.23 4.23 0 0 0-2.5-6.1c-11.1-2.3-21.8-6.3-32.4-10.2-10.1-3.7-21.1-8.3-32-8.5s-21.8 4.3-32.3 7.1a358.71 358.71 0 0 1-35.6 7.9c-11 1.7-20.6 5.5-31.1 9.2-10.2 3.6-20.9 5.1-30.3 10.7-8.2 4.9-12.5 11.3-17.8 18.9-6.2 8.8-17.3 8.9-26.7 12-10 3.2-18.8 10.1-26.4 17.2-8 7.6-14.6 16.6-17.9 27.2a3.81 3.81 0 0 0 1 3.8c8.4 6.8 20.6-1.3 29.3-3.8-1.5-1.9-2.9-3.8-4.4-5.7-7.7 11.8-19.7 20.8-30.8 29.2a51.29 51.29 0 0 0-13 15.2 171.37 171.37 0 0 0-10.1 18.9c-3.2 7.5-6.3 14.6-10.7 21.5-3 4.7-5.8 9.4-8.6 14.2-4.6 8.1-9.1 16.3-12.1 25.1-2.8 8.1-4.7 18.5 3.1 24.3a3.84 3.84 0 0 0 4 0c10.4-5.3 19.1-13.2 27.9-20.6 9.8-8.1 19.2-16.4 28.3-25.3 9.3-9.2 18.6-18.3 27.4-27.9 8.4-9.2 16.6-18.1 26.5-25.7 4.3-3.3 8.7-6.6 12.7-10.2 1.3-1.2 4.6-3.2 5.3-4.8 1.1-2.4.8 1.7-.4-.8a23.29 23.29 0 0 1 1.1 2.8c1.4 4.5 4.8 9.8 3 14.3-2.1 5.3-2.4 10-2.1 15.7s1 11.5.6 17.3a180.56 180.56 0 0 1-2.8 20.7c-2.1 11.5-4.3 23-7.5 34.3-6.7 24.1-17.2 45.9-29.2 67.7a564.48 564.48 0 0 0-32.4 70.2c-9.4 24.4-19.5 48.9-25.1 74.5-5.3 24.3-7.1 49.2-6.4 74 1.3 48.9 9.4 103 45.5 139.1 1.4 1 3.1-.7 2-1.8z"/><path class="cls-1" d="M431.1 541.4c-11.9-2.2-19.3-16-23.8-25.8-5.4-11.8-9.3-24.3-14.4-36.2-3.6-8.3-8.5-18.1-17.7-21.1-7.9-2.5-13.9 1.8-12 10.2a3.76 3.76 0 0 0 3.4 2.6c5.6.5 9.5-3 8.5-8.6-.5-3-5.2-3.4-6.5-.8-2.7 5.3-1.5 16.5 6.3 16.3 10.3-.3 8.7-14.2.1-16.3a3.69 3.69 0 0 0-4.6 3.5c-.3 6.5 5.1 10.7 9.6 14.5 6.5 5.4 11.4 12.4 15.7 19.7 9.7 16.7 17.6 34.7 25.3 52.4 1.7 3.9 8 1.1 6.8-2.9-6.4-20.1-5.2-40.9-5.4-61.7-.1-8.6-.6-17.6 3.6-25.4 2.4-4.3 6.7-10.5 3.8-15.5a3.87 3.87 0 0 0-5.2-1.4c-4.3 3.1-8.7 8.8-5.7 14.1 1.5 2.7 4.9 2.2 6.6 0a12.42 12.42 0 0 0 2.5-7.9c-.1-3.5-5.5-5.5-7.1-1.9a73.37 73.37 0 0 0-5.9 22.5c-.9 8.2-3.2 16.3-3.5 24.6-.7 17.4 6.3 34.4 7.5 51.7 1.7-1.3 3.4-2.6 5-3.8-7.8-3.2-14.8-8-22.9-10.5a228.39 228.39 0 0 0-25.7-6.1c-14.5-2.8-30.4-2.3-44.5 2.6-4.9 1.7-2.9 9.6 2.2 7.9 10-3.4 20.5-7.7 31.2-5.6a98.58 98.58 0 0 1 28.2 10.8c4.6 2.6 8.6-4.4 4.1-7-9.8-5.7-20.6-10.2-31.8-12.1-11.7-2-22.9 2.3-33.9 5.9.7 2.6 1.5 5.3 2.2 7.9 14.1-4.9 29.3-4.9 43.8-1.9 7.9 1.6 16 3.2 23.7 5.8 7.4 2.5 14 7 21.3 9.9 2.3 1 5.2-1.5 5-3.8-1.1-16.3-6.9-31.9-7.6-48.2-.3-7.6 1.8-14.9 2.8-22.3 1.1-8.5 1.8-16.5 5.4-24.4-2.4-.6-4.7-1.3-7.1-1.9a5.77 5.77 0 0 1-1.4 4h6.6c-.5-.8 2.3-3.3 2.9-3.7-1.7-.5-3.5-.9-5.2-1.4.9 1.5-5.9 11.7-6.7 14.5-2.6 9.1-1.7 18.8-1.7 28.1 0 19.6-.3 39.2 5.7 58.1 2.3-1 4.5-1.9 6.8-2.9-7.3-16.7-14.8-33.5-23.7-49.5-4-7.1-8.5-14.1-14.1-20-3.4-3.6-12.2-8-12-13.4-1.5 1.2-3.1 2.3-4.6 3.5 2.3.5 2 3.9 1.4.8-.2-1.3-.5-2.9.1-4.1-2.2-.3-4.3-.6-6.5-.8a2.46 2.46 0 0 0-1.7-.2c1.1.9 2.2 1.7 3.4 2.6-.9-3.7 2.1-2.5 4.7-1.4 3.9 1.7 6.5 5.6 8.7 9.2 5.5 9.1 8.7 19.6 12.8 29.4s8.4 20 15 28.3c4.5 5.7 12.2 11.6 19.7 12.1 1.7 0 2.1-2.7.5-3zm-93 121.9c4.1-4.8 5.3-10.4 7.4-16.2 2.6-7.3 6.7-13.7 10.8-20.2 8.3-13.3 16.8-26.5 27.5-38.1 1.3-1.4-.8-3.5-2.1-2.1-9.9 11-17.8 23.4-25.4 36-3.7 6.2-7.8 12.3-10.6 19s-3.6 14.7-8.4 20.6c-.6.7.3 1.6.8 1zm101.6-107.7c6.4.6 12.3 6.4 18.2 8.8 6.6 2.8 13.6 4.6 20.4 6.9 1.9.6 2.8-2.5.8-3.1-7.6-2.3-15.4-4.1-22.8-7.2-5.5-2.3-10.4-7.2-16.6-7.1a.85.85 0 1 0 0 1.7zm20.6-26.5c6 1.1 8.7-2.5 13.5-5.6 6.3-4.1 13.2-6.6 20.4-8.8 2.4-.7 1.4-4.6-1-3.8-5.6 1.9-11.2 3.8-16.4 6.7-4.8 2.7-10.4 9.5-16 8.9-1.6-.2-2 2.3-.5 2.6zm-79.1 259.7c0-10.1-11-16.1-10.8-26.2l-3.6 2.1c5.8 3.9 10.5 23.3 20.2 15 6.5-5.6 9.2-18.7 19.6-17.3l-3.3-3.3c.2 3.8-5.2 6.6-7.4 9.3s-3.2 7.7-7.2 7.8c-4.7.1-4.6 7.6 0 7.3 7-.5 8.6-4.8 12-10 3.2-4.9 9.6-7.7 9.2-14.4a3.4 3.4 0 0 0-3.3-3.3c-10-1.2-15 7-19.7 14.4-1 1.6-2.1 3.9-3.8 5-1.4.9-.3 1-1.9-.2a13.22 13.22 0 0 1-2.5-2.8c-3-4.1-5-8.8-9.5-11.6a2.45 2.45 0 0 0-3.6 2.1c.3 10.8 10.9 16.5 12.6 26.6.3 1.7 3 1.2 3-.5zm30-90.4c-1.1 4.3-12-.6-15-1.5a2.42 2.42 0 0 0-2.7 3.5c3 5.8 8 10 14.9 8.9 6.5-1.1 11.9-6 16.3-10.4h-4.2c2.4 3.1-5.4 10.6-7.3 12.5-3.1 3.3 2 8.3 4.9 4.9 4.7-5.4 12.6-14.7 6.6-21.7a3 3 0 0 0-4.2 0c-2.9 3.2-6.2 6.5-10.2 8.4-5.7 2.7-9.6 0-12.7-5l-2.1 3.6c6.1.8 10.8 3 17 1.3a1.63 1.63 0 0 0 1.2-1.2c.1-.8.3-1.7.4-2.5.4-1.9-2.4-2.8-2.9-.8zM3368.3 1243c7.2-2.7 12.3-9.3 18.4-13.8a234.29 234.29 0 0 0 19.3-15.2c13.7-12.4 23.6-28.4 32.7-44.3 19.9-34.5 35.6-71.4 53.9-106.7 9.3-17.9 18-36 25-55 3.5-9.5 6.8-19.1 10.7-28.4 4.1-9.8 9-19.3 13.5-28.9 8.6-18.4 16.8-37 23.6-56.2a304.32 304.32 0 0 0 14.5-61c1.4-9.8 2.9-19.5 4.2-29.3 1.4-10.6 1.3-21.3 2.5-31.8 2.5-21 6.6-42 10.5-62.8 3.8-20.2 7.6-40.5 8.6-61a108.5 108.5 0 0 0-2-29c-2-9.2.3-18.4-3.7-27.3-2.9-6.4-7.8-11.2-13.5-15.1-5.9-3.9-12.8-6.2-18-11.1-10.2-9.6-15.2-24.5-15.7-38.3-.6-17 8.6-30.9 17.3-44.8 4.5-7.2 11.4-14.3 19.8-16.7 4.4-1.3 8.6-.4 13.1-.5a22.82 22.82 0 0 0 11.6-3.5c3.2-1.9 4.9-2.3 8.4-1.2a27.73 27.73 0 0 0 9 1.8c8.4 0 18.4-2.9 25.8 2.2 11.3 7.8 10.6 24.9 9.4 37-1.7 17.8-15.2 31.7-19.4 48.9-1.8 7.4-3.1 15.4-7.4 22-5.2 7.9-13.9 10.1-22.4 13.1-5.4 1.9-14.5 7.2-19.2 1.7-3.4-4-9.1 1.8-5.8 5.8 4.9 5.8 12.4 5.3 19 3.3 7.6-2.4 15.9-5 23-8.6 15.9-8.1 17.2-25.3 21.9-40.5 2.8-9.2 8.6-17.2 12.6-25.9a63.2 63.2 0 0 0 5.9-23.8c.8-13.3-.3-29.1-11.4-38.2-6.9-5.6-14.3-5.9-22.8-5.4-3.8.2-8.3 1-12 .3-2.9-.6-5.5-2.2-8.4-2.5-3.5-.4-6.7 1-9.7 2.7-5.2 2.9-9.2 2.5-15 2.5-8.2-.1-15.4 3.3-21.7 8.4-6.7 5.5-10.8 12.5-15.2 19.9-4.8 8.1-10.2 15.9-12.8 25.1-3.8 13.6-2.1 28.9 3.2 41.8a55 55 0 0 0 11.6 18.1c5.3 5.4 11.8 8.1 18.3 11.9 6.7 3.8 12.4 9.1 14.5 16.8 1.4 5.2.2 10.5.8 15.8.6 5.1 2.3 10.1 2.9 15.2 1.4 10.8 0 22.5-1.1 33.3-1.2 11-2.9 21.9-4.9 32.7-3.9 21.8-7.8 43.7-11.1 65.6-1.5 10.3-2.1 20.6-2.7 31.1-.7 11.1-2.6 22-4.1 33-3 22.3-7 43.8-14.3 65.1-7.1 20.8-15.9 40.9-25.1 60.9-4.3 9.2-8.8 18.4-12.6 27.9-3.9 9.7-7.2 19.6-10.7 29.3-7.6 21-17.7 40.7-27.7 60.6-9.3 18.5-17.9 37.3-26.7 56-8.7 18.5-17.8 36.9-28.5 54.4-5.5 8.9-11.2 17.9-18.3 25.6-6.6 7.2-14.3 13.3-22.1 19.2-2.9 2.2-5.9 4.3-8.6 6.7-3.7 3.3-7.1 7.2-11.8 9-1.2.4-.6 2.7.9 2.1z"/><path class="cls-1" d="M3593 577.6c-9.8.7-12.1-13.6-13.9-20.7a49.71 49.71 0 0 1-1.1-20.3c.7-4.7 1-11.2 3.6-15.3s8-6.4 11.3-9.9c4-4.3 5.8-9.1 7-14.8.4-1.8.7-4.1 1.9-5.6 1.8-2.1 5.1-2.4 7.6-2.6 4.7-.4 10.1-.1 14.2 2.3 10.5 6.2 5.1 24 1.3 32.7-4.9 11.2-12 21.2-18 31.8-2.2 3.9-3.7 8.6-6.8 12-1.7 1.8-6.1 5.6-8.7 3.4-4.7-4.1 2.4-15 4.3-18.8 3.1-6.5 8.9-16.4 6.7-24-.9-3-4-6.4-7.5-5.7-5.9 1.3-6.4 8.2-5.8 12.9.7 5 8.4 2.9 7.6-2.1-.2-1.5-.4-2.8 1.1-3.7h-4c4.7 2.1-4.4 18.3-5.8 21.2-3.3 7-7.8 15.3-3.6 23 4.4 8.1 14.5 4.9 19.8-.4 3.9-3.8 5.7-8.9 8.2-13.6 3.3-5.9 6.9-11.6 10.3-17.4 6.7-11.3 13.3-23.8 13.1-37.3-.2-11.7-5.6-20.5-17.6-22.4-9.3-1.5-21.4-.2-24.1 10.4-1.8 6.9-2.8 12.1-8.3 17.2-4 3.6-8.5 6-10.3 11.4-4.5 13.3-3.5 27.4.5 40.6 2.5 8.2 6.6 19.7 17.2 18.1 1.4-.2 1.1-2.5-.2-2.4zm13.1 21.5l-1.5-3c-.7.9-1.4 1.9-2.2 2.8 4.9 2 8.6 6.1 13.5 7.9a21 21 0 0 0 15.4-.8c5.5-2.3 9.6-6.7 14.7-9.6 6-3.4 13.2-3 19.3-6.2a17.41 17.41 0 0 0 7.9-9c2.5-6 4.7-12.1 6.8-18.2 3.9-11.1 8.3-24.7 4.9-36.4s-11.6-23.3-20.2-31.8c-3.8-3.7-9 1.8-5.7 5.7 7.7 9.1 17 19.1 19.2 31.2 1.3 7.1-1.1 15.4-2.9 22.3-1.9 7.2-4.6 14.1-7 21.1-2.2 6.4-4.3 9.4-11.2 11.5s-12.5 3.3-18.3 7.8-11.9 9.4-19.7 8c-5.8-1-10-5.9-15.7-7.3a2 2 0 0 0-1.9 3.2c.8.8 1.6 1.5 2.4 2.3a1.34 1.34 0 0 0 2.2-1.5zM2742.2 355c-7.1 8.3-17.4 11.6-27.4 15.1-11.5 4-22.7 8.8-34.3 12.7-10.1 3.4-20.6 7.2-31.3 7.8-7.5.5-15.7.4-21.7 5.4-2.4 2-.4 6.4 2.6 6.3 7-.4 13.2-5.3 18.5-9.4 7.7-5.8 16.1-10.2 24.5-14.9 10.5-5.8 20.4-12.5 31.2-17.8a59.22 59.22 0 0 1 13.5-4.4c3.9-.9 7.6-2.1 10.4-5.1a4.08 4.08 0 0 0 .6-4.9c-3.7-5.6-10-7.6-15.7-10.6a140.36 140.36 0 0 1-19.6-12.8c-10.7-8.3-22.6-16.5-29.8-28.2l-5.6 5.6c7.2 4.3 12 12.9 17.3 19.2 6.4 7.5 13 14.6 20.1 21.5 8.3 8 16.8 22.4 29.1 24.4 2.5.4 5.1-1 5-3.8-.3-13.7-4.4-26.8-7.2-40.2-1.4-6.9-2.5-14-1.8-21 .7-6.8 2.7-13.4 3.1-20.2h-7.8c-.3 13.9.3 27.9-.6 41.8-.4 6.7-1.4 13.4-2.1 20.1-.3 3.1-.5 6.3-.5 9.4.1 3.7.9 7-.5 10.5l3.8-2.9c-14 1.7-28 .2-41.3 5.9-13 5.6-23.8 15.1-36.1 21.9 1.9.8 3.8 1.6 5.7 2.3 1.2 5.4-1.9 3.3.1 2.5a22.23 22.23 0 0 0 2.7-1.9c2.6-1.8 5.3-3.4 8-5 5.5-3.3 11.1-6.6 16.7-9.8 6.1-3.5 11.6-7.9 17.8-11.4a87.27 87.27 0 0 1 8-4.2c2.4-1.1 4.7-1.1 7.2-1.9a18.17 18.17 0 0 0 9.7-7.5c1.5-2.1-.1-5.1-2.3-5.7-15.3-4.4-31.3-4.2-47-5.5-14.4-1.1-29.9-6.9-44.2-2.9a3.85 3.85 0 0 0 0 7.4c24.8 7 49.1 15.4 74.3 20.9a3.77 3.77 0 0 0 4.3-1.8c2.1-3.9 9.1-4.9 13-6.1a69.78 69.78 0 0 0 14.9-6.4c12.7-7 24.2-15.9 37.4-22.1-1.3-2.2-2.5-4.4-3.8-6.5a236.08 236.08 0 0 0-29.5 17.5c-7.3 5.1-15.7 9.4-20.8 17-1.2 1.8-.2 4.1 1.4 5.2 9.4 6.6 23.4-4.1 31.1-9.1 11.4-7.5 26-11 35.3-21.4 2.4-2.6.1-7.8-3.7-6.4-12.5 4.4-22.7 12.7-33.4 20.2-9.7 6.8-21.3 10.6-30.4 18.3-2.5 2.1-.8 5.8 1.8 6.7 6.8 2.5 14 3.6 21 5.6 7.5 2.2 14.7 5.5 21.8 8.8 13.3 6.2 26.3 12.9 37.5 22.4 4.2 3.5 10.2-2.4 6.1-6.1-9.8-8.7-20-17.4-31.9-23.1a51.22 51.22 0 0 0-17.9-5.2c-7.1-.7-14.1-.5-20.8-3.1.8 2.1 1.7 4.1 2.5 6.2-1.1 1.5-1.5.8 0 .8a23 23 0 0 0 2.6-.3c2.8-.2 5.5-.2 8.3-.2 6.2.1 12.4.4 18.6.7 17.6 1 35.2-1.1 52.6-3.3 2.8-.3 4.8-2.5 4.1-5.4-1.2-5-8.7-6-12.8-6.8-8.1-1.6-16.3-2.4-24.5-3.3-6.3-.6-12.5-1-18.8-1.5-12.7-1-25.1-3.8-37.9-2.7.4 2.8.8 5.6 1.1 8.4 14.6-4.3 29.7-2.9 44.7-3.2 15.3-.3 30.2-3.8 45.3-5.7 5.5-.7 5.9-9 0-8.9-20.3.1-40.6-.7-60.9.4-14.8.8-30.9 1.5-44.2 8.6-4.3 2.3-1.3 9.8 3.4 8 17.6-6.7 31.4-19.8 45.1-32.2 8.9-8.1 22.8-17.9 23.5-31.1.1-2.5-2.1-4-4.2-4.2-10-1.1-19.7 7.6-26.6 13.7a122.84 122.84 0 0 0-12.2 11.7c-5 5.7-9.3 11.9-14.5 17.4l6.6 5.1c5.3-10.5 10.8-20.9 18-30.2 4.2-5.4 11.4-13.6 7.6-20.9a4.29 4.29 0 0 0-6.6-.9c-8.6 8.8-14.5 19.4-20.7 30a125.62 125.62 0 0 0-6.2 12.8c-1.7 4-3.5 9.4-7.2 12 2 .8 4.1 1.7 6.1 2.5-3.1-16.2 2.6-32.9-3.5-48.8-3.3-8.6-9.4-22.6-20.7-20.7a4.05 4.05 0 0 0-2.9 2.9c-2.7 12.5-1.2 30.9 9 40 4.1 3.6 9.1-1.7 5.9-5.9-3.5-4.4-6.2-9.3-10.1-13.4a4.16 4.16 0 0 0-6.9 1.8c-1.3 4.8.4 10.3 1.6 15 .7 2.8 1.5 5.6 2.2 8.4.3 1.2.5 2.4.8 3.5.5 1.8-.9 2 .8.3 1.3-.4 2.7-.7 4-1.1-18.5-7.5-35.8-17.7-54.5-24.8-3.8-1.4-7.2 4.3-4 6.9 14.3 11.6 29.8 21.8 43.6 34 .3-2.2.6-4.3.8-6.5-5.8 3.4-13.3 2.4-19.7 1.5-5.8-.9-11.5-2-17.3-3.1-9.8-1.8-21.2-6.8-31.1-3.7-4.9 1.6-7.6 5.5-4.6 10.3 2.7 4.3 8 6.2 12.6 7.5 5.1 1.4 10.3 1.9 15.4 2.7 9 1.5 18.2.6 27.2 2l-1.8-6.9c-6.5 7.5-15.9 9.2-25.2 11-8.9 1.7-17.4 3.5-24.6 9.2-2 1.6-1.4 5.4.8 6.5 8.5 4.1 18.9-.3 27.1-3.2 12.6-4.5 26-7.1 39.1-9.8-1.6-2-3.1-4-4.7-6.1-2.9 4-8.9 5.8-13.4 7.3-5.3 1.8-10.8 3.1-16.2 4.7-13.6 4.1-25.2 12.4-36.1 21.2-3.8 3.1 1.1 8.4 5 6.5 12.1-5.9 25.2-8.7 37.7-13.4 12.8-4.9 24.7-11.4 37.9-15.4-1.1-2.5-2.1-5.1-3.2-7.6-13.4 7.3-26.8 14.6-39.9 22.2-10.7 6.2-22.1 11.9-30.7 21a4.16 4.16 0 0 0-1.1 4.1c5.7 16 33.4-3.3 41-8.1 19.7-12.4 35.9-28.4 53.7-43.3-2.3-1.4-4.6-2.7-7-4.1-1.7 10.8 3.1 20 8.2 29.2s8.4 19.9 14.9 28.5c2.8 3.7 8.6 1.7 7.6-3.2-1.9-9.7-7.8-18-9.2-27.8-2.5 1.1-5.1 2.1-7.6 3.2 5.3 9.9 4.7 22.6 12.6 31.2 2.5 2.8 7.4.6 7.3-3-.1-8.7-2-17.2-3.3-25.8l-6.4 4.9c13.4 8.3 27.2 19.6 43.7 19.6a4.54 4.54 0 0 0 3.9-6.8c-3.4-6.5-9-10.8-15.1-14.7-6.6-4.2-12.3-9.7-19.5-12.7v8.5c16.3-4.8 34-2.4 49.9-9 4.1-1.7 4.3-9.2-1.2-8.7-9.8.9-19.2-2.5-28.9-2.8-8.2-.2-17.7 2.3-25.2-2-.4 2.8-.7 5.6-1.1 8.4 10.4-2.3 21-2.6 30.7-7.3 10.4-4.9 19.7-11.9 29.6-17.8 2.3-1.3 3.1-5 .9-6.9-7.6-6.5-18.7-5-27.8-3.4-10.1 1.9-19.8 5.2-29.5 8.5a4.83 4.83 0 0 0-1.1 8.7c7.5 5.3 18 3.8 26.5 1.9 9.3-2.1 18.2-5.7 27-9.3 4.5-1.9 4.6-7.4 0-9.3-6.4-2.6-14.9-.5-21.4.8-10.2 1.9-20.1 4.8-30.3 6.8l3.6 8.7c5.1-3.8 10.9-5.3 14.5-11 2-3.2-.7-6.7-4-7-10.2-.8-20.1 4.2-29 8.7-7.7 3.8-18 6.8-21.7 15.3-2.1 4.9-2.6 10.6-3.1 15.9a193 193 0 0 0-.8 20.1c.1 13.1.2 26.1 0 39.2-.2 13.4-.3 26.8.6 40.2.9 13 3.2 25.6 5.3 38.4 4.4 27 8.1 54.2 10 81.6 2 27.2 2.9 54.8 2.5 82.1-.4 26.3-8.5 51.7-14.8 77a320 320 0 0 0-7.1 37.4c-1.6 13.2-2.1 26.4-3.1 39.7-1.1 13.5-3 26.9-4.2 40.4-1.1 13.3-1.5 26.8-1.6 40.1-.2 28.8 1.5 58.5 10 86.2 3.9 12.6 9.3 24.8 16.9 35.6s16.9 20.4 26.1 29.9c3.9 4.1 10.2-2.1 6.2-6.2-16.3-17-31.1-34-38.9-56.6-8.1-23.5-10.6-48.8-11.2-73.6a577 577 0 0 1 3.6-76.6c2.9-25.9 2.9-52.2 8.1-77.8 4.9-24.3 12.9-47.9 16.6-72.4 3.8-24.9 2-50.7 1.1-75.7-.9-26.2-3.2-52.2-6.7-78.2-3.4-25.6-9.2-51.1-10.4-76.9-.6-14-.3-28.1-.1-42.1.2-14.2-.5-28.4.1-42.5.3-6.6.5-13.9 2.6-20.1 1.6-4.9 6.8-6.6 11.1-8.6 9.8-4.6 20.4-11.8 31.6-10.8-1.3-2.3-2.7-4.7-4-7-2.5 3.7-7.7 4.9-11.2 7.5a4.78 4.78 0 0 0 3.6 8.7c9.6-1.7 19-4.3 28.5-6.2 5.4-1.1 12.8-3.3 18.2-1.2v-9.3a212.53 212.53 0 0 1-23.1 8.4c-6.9 1.9-16.6 4.6-23 .1-.4 2.9-.8 5.8-1.1 8.7 8.1-2.8 16.1-5.8 24.4-7.9 6.5-1.6 18.4-5.2 24.2-.2l.9-6.9c-9.4 5.5-18.3 12-28.1 16.8-9.5 4.7-20.1 4.8-30.3 6.9-4 .8-4.4 6.5-1.1 8.4 8.3 4.9 17.8 3.4 27 3.1 10.7-.3 21 3.6 31.8 2.5-.7-2.8-1.5-5.5-2.2-8.3-15.4 6.5-32.9 4.1-48.8 8.6-3.3.9-4.7 6.5-1.1 8 6.2 2.7 11 7.7 16.6 11.4 5.4 3.5 10.6 6.7 13.7 12.6 1.3-2.3 2.6-4.5 3.9-6.8-14.6.1-27.4-10.9-39.3-18.1-3.6-2.2-7 1.4-6.4 4.9 1.2 7.8 3 15.5 3.1 23.5 2.4-1 4.9-2 7.3-3-3.5-3.8-4.7-9.5-6-14.4-1.4-5.1-2.8-10.3-5.4-15-2.4-4.5-8.3-1.1-7.6 3.2 1.4 9.8 7.3 18.2 9.2 27.8 2.5-1.1 5.1-2.1 7.6-3.2-5.7-7.4-8.5-16.3-12.8-24.5s-11.1-17.1-9.5-26.7a4.24 4.24 0 0 0-7-4.1c-15.8 13.1-30.2 27.6-47.4 38.9a179 179 0 0 1-20.8 12.1 37.81 37.81 0 0 1-9.7 3.6c-1 .2-2 0-3 .2-.2 0-.1-.3 0 .1-.4 1.4-.7 2.7-1.1 4.1 8.5-9 20.1-14.5 30.7-20.7 12.6-7.3 25.4-14.3 38.2-21.3 4.1-2.2 1.3-9-3.2-7.6-13.7 4.2-26.1 11.2-39.5 16.1-12.7 4.6-25.9 7.7-38.1 13.6l5 6.5c11.5-9.4 23.4-16.7 37.8-20.6 10.1-2.8 22.6-5.4 29.2-14.3 2.3-3.1-1.5-6.7-4.7-6.1-12 2.5-24.4 4.8-36.1 8.7-3.8 1.3-7.6 2.8-11.5 3.9-3.5 1-8.8 2.9-12.4 1.2.3 2.2.6 4.3.8 6.5 7.3-5.6 17.4-6.2 26.1-8.1 8.9-1.9 17.5-5 23.7-12.1 1.8-2.1 1.5-6.3-1.8-6.9-6-1-12-.9-18.1-1.1a111.42 111.42 0 0 1-14-1.7c-4.6-.7-17.3-1.3-18.8-6.9-.4 1.3-.7 2.7-1.1 4 3-3.4 11.3-1 15-.3 5.3 1.1 10.5 2.6 15.8 3.4 12.8 2 28.4 7.5 40.5.4 2.2-1.3 2.9-4.7.8-6.5-13.9-12.2-29.3-22.4-43.6-34-1.3 2.3-2.7 4.6-4 6.9 18.7 7.1 36 17.3 54.5 24.8a4 4 0 0 0 4-1.1c3.4-3.5 1.1-9.8 0-13.9-1.2-4.8-4.6-12-3.3-16.9l-6.9 1.8c3.8 4.1 6.6 9 10.1 13.4l5.9-5.9c-7.8-7-8.9-22.2-6.8-31.9l-2.9 2.9c3-.5 6.4 6.4 7.4 8.4a53.24 53.24 0 0 1 4.4 10.8c3.9 14.4-.8 29.7 2 44.4.5 2.5 4 4 6.1 2.5 8.1-5.6 9.8-15.8 14.1-24 6-11.2 12.6-23 21.6-32.1l-6.6-.9c.7 1.2-2.8 5.9-3.7 7.3-2 2.9-4.2 5.5-6.3 8.3-6.1 8.3-10.9 17.9-15.5 27-2.1 4.1 3.2 8.8 6.6 5.1 8.3-8.9 15-18.7 24.1-26.9 5.8-5.2 14.7-14.4 23.2-13.4l-4.2-4.2c-.3 5.6-5.9 10.8-9.5 14.5-3.9 4-8.2 7.6-12.4 11.4-12.1 11.1-24.9 23.2-40.5 29 1.1 2.7 2.2 5.3 3.4 8 12.6-6.6 28.4-6.6 42.3-7.3 19.4-.9 38.9 0 58.3-.3v-8.9c-15.7 2.1-31.2 5.8-47.1 6.2-15.2.3-30.4-.9-45.2 3.4-4.5 1.3-3.8 8.8 1.1 8.4 12.5-1 24.7 1.7 37.2 2.9 4.9.5 9.8.8 14.7 1.2 7.3.7 14.5 1.3 21.8 2.3 3 .4 6.1.9 9.1 1.6 1 .2 2.5 1 3.5 1-.6 0 .6.3.6.3-.4 0-.9-1.2-.9-1.4 1.4-1.8 2.8-3.6 4.1-5.4-18.7 2.5-37.4 4.5-56.2 3.4-6.7-.4-13.5-.8-20.3-.6-4.3.1-10.1-.2-12.9 3.7-1.7 2.4.2 5.3 2.5 6.2 11.9 4.6 24.8 1.9 36.5 7.7 11.2 5.5 21 13.4 30.3 21.6l6.1-6.1c-11.9-10-25.3-17.1-39.4-23.5-7.2-3.3-14.5-6.7-22.1-9s-15.4-3.3-22.8-5.9c.6 2.2 1.2 4.5 1.8 6.7 8.5-7.3 19.6-10.7 28.7-17.2 10-7.2 19.8-15.4 31.6-19.5-1.2-2.1-2.5-4.3-3.7-6.4-8.3 9.2-21.2 12.1-31.3 18.6-4.4 2.8-8.7 5.8-13.3 8.2-3.3 1.7-9 5-12.5 2.5.5 1.7.9 3.5 1.4 5.2 4.8-7.1 14.1-11.6 21.1-16.4a226.41 226.41 0 0 1 26.5-15.5c4.4-2.2.5-8.6-3.8-6.5-14.2 6.6-26.5 16.6-40.4 23.7-8.2 4.2-22.8 4.7-27.6 13.5 1.4-.6 2.9-1.2 4.3-1.8-25.2-5.5-49.5-13.9-74.3-20.9v7.4c7.3-2 14.9-.8 22.2.5 6.6 1.1 13.2 2.2 20 2.7 15.1 1.2 30.3 1 44.9 5.2-.8-1.9-1.5-3.8-2.3-5.7-3.3 4.8-9.2 4.3-14.1 6.6a116.51 116.51 0 0 0-16.4 9.5c-4.8 3.2-9.4 6.2-14.4 9-6 3.5-11.9 6.9-17.7 10.6-3.1 2-9.4 4.9-8.4 9.5a3.9 3.9 0 0 0 5.7 2.3c11.4-6.3 21.4-14.9 33.1-20.5 12.9-6.2 26.7-4.5 40.4-6.2a4.18 4.18 0 0 0 3.8-2.9c2.2-5.7.6-12.2.9-18.2.4-7.3 1.7-14.5 2.3-21.9 1-14.6.4-29.2.7-43.8.1-5.1-7.5-5-7.8 0-.5 6.8-2.5 13.4-3.1 20.2a71.74 71.74 0 0 0 1.4 19.6c2.5 13.9 7.1 27.3 7.4 41.6 1.7-1.3 3.4-2.6 5-3.8-6.1-1-11.1-7-15.1-11.3-4.7-5-9.3-10-14.2-14.9a271.35 271.35 0 0 1-19-21.2c-5-6-9.2-13-16-17.1-3.5-2.1-7.8 2.1-5.6 5.6 7 11.4 17.7 19.6 28.2 27.6 5.6 4.3 11.1 8.7 17.2 12.4 3.3 2 6.7 3.8 10.2 5.5 3.2 1.6 7.6 3 9.7 6 .2-1.6.4-3.2.6-4.9-2.6 2.8-7.2 3.1-10.8 3.9a51.57 51.57 0 0 0-11.5 4.4c-10.1 5-19.5 11.4-29.4 16.9-7.9 4.4-16.2 8.4-23.3 13.9-4.7 3.6-11.2 10.3-17.5 10.6.9 2.1 1.7 4.2 2.6 6.3 2.4-2.6 7.2-2.9 10.5-3.3 3.9-.4 7.8-.5 11.7-1.2 11.7-1.8 23.3-6.6 34.3-10.9 10.7-4.1 21.2-8.5 31.9-12.4 9.2-3.4 18.2-7.3 24.6-14.9 2.3-1.3-1.2-4.8-3.2-2.4z"/><path class="cls-1" d="M2817.1 491.8a53.5 53.5 0 0 1-.3 8c1-.3 2.1-.5 3.1-.8-6.7-6.2-9.9-14.8-14.3-22.6-1.2-2.2-4.1-.6-3.8 1.6.8 5.2 4.5 10.5 7 15q6.6 12 14.4 23.4c3.6 5.3 18.5 30.1 27.5 21.8a2.53 2.53 0 0 0 .7-2.7c-5.6-13.4-13.8-25.1-21.5-37.4-5.7-9.2-10.7-20.1-20.4-25.7-2.8-1.6-6.2 1.6-4.4 4.4 4.4 7.2 7.3 15.2 11.6 22.5 3.6 6.1 8.6 14 16.4 14.4 2 .1 4.2-2.3 3.3-4.4-4.6-11.2-7.3-26.3-17.4-34.1-3.2-2.5-7.3.5-5.6 4.3 4.3 9.4 9.1 18.7 15.4 27 2 2.6 4.9 7.4 8.6 7.4 2.4 0 4.5-1.7 6-3.5 4.3-4.9 6.6-12 8.5-18.1 1.7-5.3 3.8-11.6 3.4-17.3-.2-2.7-3-4.7-5.5-3.2-8.2 5-9.3 15.3-14.6 22.6 2.1 1.2 4.3 2.5 6.4 3.7 4.5-9.5 7.7-21.6 16.8-27.9-1.9-1.1-3.8-2.2-5.6-3.2-1 7.7-5.1 14.6-8.5 21.5-2.1 4.3 4.3 8.2 6.5 3.8 5.2-10 11.6-20.4 10.7-32.1a3.85 3.85 0 0 0-7.1-1.9c-5.6 8.7-8.1 18.9-11.3 28.6-1.2 3.5 3.9 6.6 6.4 3.7 3.4-3.9 5.3-8.7 8.3-13l-7-.9c2.7 8.5-4.3 16.7-1.7 25.4.6 2.2 2.6 3 4.7 2.7 6.2-.9 9.4-5.6 13.2-9.9a69 69 0 0 1 18.5-14.6l-3.9-6.6c-12.8 9.5-27 20-32.7 35.5a3.87 3.87 0 0 0 1 3.8c5.3 6.1 14.1 4.5 20.7 1.9 4.6-1.8 2.8-9-2.1-7.5-8.9 2.8-18.2 3-27.5 3.8-9.1.8-18.1 1.9-27.2 2.3-8.7.4-18.1.4-26.5 2.9-3.5 1.1-7.3 2.9-8.6 6.6-2.6 7.7 7.2 14.3 12.4 17.9a110 110 0 0 0 23.6 12.2c4.1 1.5 6.9-5.2 3-7.1-13.3-6.4-25.3-15.2-38.8-21.1a4 4 0 0 0-5.7 4.4c1.4 7.6 11.2 11.7 17.4 14.3 7.4 3.1 16 6.1 24.2 6.1a3.86 3.86 0 0 0 3.7-4.9c-2.6-12.2-14.9-20.7-23.7-28.4l-5.5 5.5c14.6 12 30.4 22.4 47.8 29.9 3.5 1.5 7.1-1.6 5.3-5.3-1.5-3.1-4.8-5.8-7.1-8.2-4.5-4.7-9.1-9.2-13.7-13.9s-9.2-9.4-13.5-14.3a50.9 50.9 0 0 1-4.6-5.8c-.3-.5-.8-1.9-1.3-2.2s.4 0-.1-.3c.3.2-.2 1.5-.3 1.6-1.8.5-3.5.9-5.3 1.4 10.1 4.5 14.3 16.2 24.8 20.3a3.71 3.71 0 0 0 4.3-1.8c4.4-7.5.2-16.7-4-23.3-2.4-3.9-7.7-1.2-7 3a63.64 63.64 0 0 0 11.2 27.3 4.11 4.11 0 0 0 4.3 1.8c11.7-2.9 9.9-16.3 15.6-24.3-2.4-.6-4.8-1.3-7.1-1.9.5 8.2-.9 16.3-.5 24.5.1 3.1 3.1 4.5 5.8 3.3 13-6.1 21.9-17.7 33.5-25.8-1.5-2-3.1-4-4.6-6-5.6 5.7-12.8 9.1-17.7 15.6-.9 1.1-.5 2.7 0 3.8 4.4 9.4 16.4 2.5 22.3-1.3l-5.2-5.2c-3.4 4.5-8.5 7.9-12.4 12-3.3 3.4-7.6 8.2-7 13.4a4 4 0 0 0 4.8 3.7c12.8-2 27.1-8.9 35.5-19 2-2.4.8-6.6-2.7-6.6-6.3 0-11.9 4.8-15.9 9.2a3.9 3.9 0 0 0 4.7 6.1 38.7 38.7 0 0 0 14.8-12.7c1.9-2.7-1.2-6.8-4.4-5.7-8.5 2.9-16 7.8-22.9 13.4-1.4 1.1-1.3 3.3-.6 4.7 6.6 12.9 31.6-.2 38.3-7.2 2.7-2.8 0-7.6-3.8-6.6-17.8 4.6-33.1 19.8-45.2 32.9a4 4 0 0 0 3.9 6.6c10.3-2.7 16.6-12.5 23.3-20.1 9-10.2 18.5-19.9 24.8-32.1 1.5-2.9-1-7.1-4.5-5.9-18.2 6.1-37.8 19.1-57.8 15.7-9.4-1.6-16.9-7.9-26.3-9.7a61 61 0 0 0-11.3-1.1c-1.6 0-6.2.8-6.1-1.4-2.3 1-4.6 1.9-6.9 2.9 5.6 7.3 13.1 13.2 17.2 21.6 1.5-2 3.1-4 4.6-6-3.6-1.4-6.9-5-9.7-7.5-4.4-3.9-8.7-7.9-13.3-11.7-5.8-4.7-15.8-13.5-23.7-8.5a4.39 4.39 0 0 0-1.9 4.6c1.9 10.6 19.9 20.1 30 17.3 6-1.7 8.6-7.2 7.3-13s-5.4-10.4-7.6-15.8c-2 1.5-4 3.1-6 4.6 9.4 5.9 16.4 21.3 29.4 19.2a4.05 4.05 0 0 0 2.9-2.9c2.3-11.4-.7-22.1-2.5-33.3-2 1.6-4 3.1-6.1 4.7 4 2.3 4.6 8.4 6 12.3 1.6 4.6 3.8 8.7 8.1 11.2 1.7 1 3.5.5 5-.6 8.9-7.2 6.9-20.3 10-30.1-2 .8-3.9 1.6-5.9 2.4 2.1 1.3 1.7 5.6 1.8 7.8.1 3.1.1 6.3 1 9.2 1.5 5.4 6.3 7.7 11 4.1 8-6.1 5.3-18.5 10.4-26.1h-6.8c4.1 7.3 2.4 16.9 10.2 22a3.94 3.94 0 0 0 4.7-.6 27.78 27.78 0 0 0 7.9-10.1c1.9-4.2 1.3-9.6 4.4-13-2.1-.6-4.3-1.1-6.4-1.7 1.9 9.1.9 18.4 2.6 27.5.5 2.8 4.6 3.7 6.4 1.7 4.3-4.6 5.2-12.7 10.6-16.1-1.9-1.1-3.9-2.2-5.8-3.3.1 8.3-5.7 15.3-5.7 23.7 0 2.3 1.8 3.6 3.9 3.9 4.5.5 7.9-2.6 12-2.7 4.9-.1 2 5.8.6 8.1-4.9 7.8-14 12.4-22.1 16.1a84.06 84.06 0 0 1-16.9 5.7c-4 .9-7.8 1.3-11.2 3.8-6.1 4.4-9 12.1-11 19.1-5.9 20.2-6.9 40.2-2.4 60.8 2.7 12.1 7 23.5 10.7 35.3a312 312 0 0 1 9.3 35.7 320 320 0 0 1 5.9 74.4c-.5 12.7-1.9 25.2-3.5 37.8s-2.2 25.4-3.2 38.2-2.7 25.2-3.4 37.9a358.88 358.88 0 0 0-.1 37.4c1.3 26.1 3.7 52.2 6.4 78.2 6 58.5 15 116.5 25.3 174.4.8 4.7 8.1 2.7 7.2-2-9.5-53.2-17.1-106.9-23-160.7q-4.5-40.5-7.2-81.3c-.8-12.9-1.2-25.7-.8-38.6s2-25.8 3.2-38.7 1.7-26.1 3.1-39.1c1.3-12.7 3.2-25.3 3.9-38A330.75 330.75 0 0 0 2858 655c-3.6-12.1-8.3-23.8-11.4-36-5.5-21.6-5.1-43.1 1.8-64.3 1.3-4 3-8.4 6-11.4 3.6-3.5 9.4-3.5 14.1-4.8 11.4-3.3 23.5-8.5 32.6-16.3 5.4-4.6 11.7-12.9 9.9-20.4a10 10 0 0 0-8-7.4c-5.1-.8-9.3 3.2-14.3 2.7l3.9 3.9c0-8.3 5.8-15.3 5.7-23.7a3.88 3.88 0 0 0-5.8-3.3c-6.7 4.2-7.1 11.9-12.1 17.3 2.1.6 4.3 1.1 6.4 1.7-1.7-9.1-.7-18.4-2.6-27.5-.6-2.8-4.6-3.8-6.4-1.7a18.34 18.34 0 0 0-4.7 10.6c-.7 5.2-3.7 9.2-7.7 12.5l4.7-.6c-2.8-1.9-3.3-6.5-4-9.5a37.75 37.75 0 0 0-3.3-9.8c-1.5-2.7-5.2-2.4-6.8 0-2 2.9-5.9 24.3-8.5 23.9l2.4 1.8c-4.1-7.5 1.6-18.2-7.1-23.7a4 4 0 0 0-5.9 2.4c-2.6 8.1-.8 20.6-8 26.5l5-.6c-4.2-2.5-4.8-8.5-6.3-12.8s-3.5-8.5-7.8-10.9c-3.4-1.9-6.6 1.2-6.1 4.7 1.6 9.6 4.5 19.2 2.5 29l2.9-2.9c-4 .6-9.6-6-12-8.4-3.5-3.4-6.8-7.3-11-10-2.8-1.8-7.4 1.2-6 4.6s11.3 16.6 6 18.7c-3.2 1.3-8.7-1.6-11.4-3.1-3.3-1.8-7.8-4.5-8.5-8.5-.6 1.5-1.2 3.1-1.9 4.6 2.2-1.4 6.4 1.7 8.1 2.9a95.32 95.32 0 0 1 11.6 9.4c6.3 5.6 12.7 13 20.6 16.2 3.6 1.5 6-3.1 4.6-6-4.4-9-12.5-15.4-18.5-23.2-2.3-2.9-6.9-.3-6.9 2.9-.1 8.4 7.5 9.5 14.2 9.5a46.28 46.28 0 0 1 13.9 2c5.8 1.9 10.8 5.5 16.7 7.3 23.3 7.2 45.6-7.4 66.9-14.5-1.5-2-3-3.9-4.5-5.9-5.8 11.3-14.4 20.4-22.8 29.7-5.8 6.5-11.5 16.6-20.5 18.9l3.9 6.6c11.1-12.2 25.2-26.7 41.6-31-1.3-2.2-2.6-4.4-3.8-6.6-3.4 3.5-8.6 5.8-13 7.6-2.6 1-11.2 4.8-13.1 1.2-.2 1.6-.4 3.1-.6 4.7 5.8-4.7 12.4-9 19.5-11.5-1.5-1.9-2.9-3.8-4.4-5.7a31.48 31.48 0 0 1-12 10c1.6 2 3.1 4 4.7 6.1 2.5-2.8 6.4-6.9 10.5-7l-2.7-6.6c-7.6 9.2-20.4 15.2-32.1 17.1 1.6 1.2 3.2 2.4 4.8 3.7-.5-4.2 5.5-8.8 8.2-11.4 3.5-3.3 7.3-6.3 10.2-10.2 2.3-3.1-2.2-7.2-5.2-5.2-2 1.3-10.4 7.2-11.9 4.1v3.8c4.4-5.8 11.5-8.9 16.5-14 2.9-3-1-8.6-4.6-6-11.6 8.1-20.5 19.7-33.5 25.8 1.9 1.1 3.8 2.2 5.8 3.3-.3-8.2 1-16.3.6-24.5a3.84 3.84 0 0 0-7.1-1.9c-2.4 3.3-3.4 7.3-4.5 11.2-1.1 3.7-2.2 8.5-6.5 9.6 1.4.6 2.9 1.2 4.3 1.8a60.36 60.36 0 0 1-10.4-25.4c-2.3 1-4.7 2-7 3 2.5 4 6.7 10.9 3.9 15.6 1.4-.6 2.9-1.2 4.3-1.8-4.8-1.9-8-6.4-11.3-10.2s-6.9-7.3-11.6-9.3a4 4 0 0 0-5.3 1.4c-2.4 3.5 1.1 8 3.1 10.7a176.64 176.64 0 0 0 13.5 15.2c5.1 5.3 10.2 10.4 15.4 15.6 2.7 2.7 7.2 6.6 8.6 9.4l5.3-5.3a192.57 192.57 0 0 1-46.3-28.7c-3.8-3.1-9.2 2.1-5.5 5.5 7.7 6.8 19.4 14.4 21.7 25 1.2-1.6 2.5-3.3 3.7-4.9-6.3 0-13-2.4-18.9-4.5-4.3-1.6-14.3-4.8-15.2-10.1-1.9 1.5-3.8 2.9-5.7 4.4 13.6 5.9 25.5 14.7 38.8 21.1 1-2.4 2-4.7 3-7.1a100.5 100.5 0 0 1-19.3-9.9c-2.3-1.5-12.8-8.3-11.1-10.6.7-1 2.9-1.3 4-1.6a71.66 71.66 0 0 1 12.2-1.7c8.1-.7 16.3-.7 24.4-1.4 7.6-.6 15.1-1.6 22.6-2.2 7.1-.5 14.2-1.3 21-3.4l-2.1-7.5c-3.9 1.5-9.9 3.8-13.2.1.3 1.3.7 2.5 1 3.8 4.9-13.3 18.2-22.7 29.2-30.9 3.9-2.9.6-9.1-3.9-6.6a81.5 81.5 0 0 0-17 12.8c-3.9 3.7-7.1 10.1-12.8 10.9 1.6.9 3.1 1.8 4.7 2.7-1.3-4.4.7-8.8 1.7-13.1s1.3-8.2 0-12.3c-1-3.3-5.1-3.6-7-.9-2.5 3.7-4.1 8-7.1 11.4 2.1 1.2 4.2 2.5 6.4 3.7 3-9.2 5.2-18.6 10.5-26.8-2.4-.6-4.7-1.3-7.1-1.9.8 10.3-5.1 19.4-9.7 28.3 2.2 1.3 4.4 2.5 6.5 3.8 4-8.2 8.4-16.1 9.5-25.3.3-2.8-3.5-4.7-5.6-3.2-10.5 7.2-14.2 19.6-19.4 30.6a3.7 3.7 0 0 0 6.4 3.7c4.2-6 5.4-16 11.9-20-1.8-1.1-3.7-2.1-5.5-3.2.4 5.5-1.9 11.7-3.6 16.9a56 56 0 0 1-4 9.8c-.5 1-2.3 4.8-3.5 4.9.9.4 1.7.7 2.6 1.1-9-8.6-14.8-20.6-19.9-31.8l-4.9 4.9c4.5 3.5 7 9.7 9.1 14.8s3.9 10.5 6 15.6c1.1-1.5 2.2-2.9 3.3-4.4-5.9-.2-10.6-10.7-13-15-3.3-6-5.8-12.4-9.4-18.2l-4.4 4.4c9.2 5.3 13.8 16.5 19.5 25 7.4 11.2 15.2 22.2 20.5 34.7.1-1.1.3-2.3.4-3.4.2-.2 0 .2-.3 0-.5-.5-1.8-.8-2.4-1.2a34.08 34.08 0 0 1-5.9-5.5 153 153 0 0 1-14.3-18.6c-4.3-6.4-8.4-12.9-12.2-19.6-2.1-3.7-5.2-8.1-5.9-12.4-1.3.5-2.5 1.1-3.8 1.6 4.7 8 8.2 16.8 15.3 23.1.9.8 2.9.7 3.1-.8a53.85 53.85 0 0 0 .3-9c-.6-2.8-4.1-2.8-4.1-.5zm-227.6 111c.6 5.8 4.9 11.4 8.8 15.6.8.9 2.8.6 3-.8 1.6-11.6-9.6-22.6-17-30.2a2.24 2.24 0 0 0-3.5.5c-1.9 2.9 1.6 8.1 3 10.5 2.2 4 4.7 8.7 8.1 11.8a2.71 2.71 0 0 0 4.5-2.6c-.6-3.9-2.7-7-5-10.2a2.89 2.89 0 0 0-5 2.9c3.1 6.8 4.9 14.8 11.6 19.1a3 3 0 0 0 4.4-1.8c2.8-10.8-4.1-19-5.1-29.3-1.8.7-3.6 1.5-5.4 2.2 5.4 4.9 7 11.9 8.6 18.7.3 1.2 1.8 2.6 3.1 2.4 13.4-1.7 12.9-22.6 20.1-30.9h-4.7c2.3 2.4-.4 7.3-1.5 9.8-1.2 3-2.4 5.9-2.5 9.2a3.45 3.45 0 0 0 4.3 3.3c7-2.3 6.1-11.4 12.2-14.3-1.7-1-3.5-2-5.2-3 .1 11.9-9.2 22.9-5.4 34.9a3.59 3.59 0 0 0 6.5.8c5.2-8.4 9.3-17.2 9.3-27.2h-7.2a46.13 46.13 0 0 1-3.4 17.1c2.4.3 4.8.6 7.2 1 .6-4.4 1.2-8.9 3.1-12.9-2.3-.6-4.6-1.2-6.8-1.9-1.4 10.9-.8 23.4-6.6 33.1h6.4c-2.1-3-1.6-6.2-1.8-9.6a75 75 0 0 0-1-9.4c-.8-5.3-2.5-12.8-6.2-16.9-2.8-3-8.4-1.8-11.2.7s-3.3 7.4-6.4 9.5h3.8c-4.3-2.4-6.7-6.8-9.9-10.3-2.5-2.8-7.5.1-6.3 3.7 3.3 10.3 10 22.6 19.5 28.4a3.86 3.86 0 0 0 5.6-2.3c2.6-9.6-7.4-33.7-20.1-27.4a3.74 3.74 0 0 0-1.9 3.3c-.2 9.3 1 19.8 6.5 27.6 1.8 2.5 4.8 2.4 6.6 0 5.3-7 .5-16.3-1.8-23.5-2.1 1.3-4.3 2.5-6.4 3.8 7.1 7.1 3.6 20.7 14.1 25.4 1.8.8 4.3.6 5.3-1.4 4.1-8.5 4.6-17.8 4.1-27.1-.2-5-7.8-5-7.8 0v8.4c0 5 7.7 5 7.8 0 0-2.3 0-4.6-.1-6.9-.1-5-7.6-5-7.8 0-.3 8.2 2.5 15.6 5.5 23.1 3.3 8.3 6.2 16.7 9.5 25 6.6 16.5 13.5 32.5 17.6 49.9 4 17.1 7.9 34.4 10.6 51.7 2.8 18.2 5.1 36.5 8.8 54.5 7.5 36.8 15.3 73.6 25.7 109.7 8.5 29.6 17.7 59.5 29.2 88.2 12.3 30.8 28.5 60.7 53.5 83 3.7 3.3 9.1-2.1 5.4-5.4-44.2-40.4-60.5-102.2-77.1-157.6-10.5-35.1-18.1-70.9-25.4-106.8-3.6-17.9-7.7-35.6-10.3-53.6-2.5-17.4-6-34.5-9.6-51.7-2-9.3-4-18.7-6.7-27.9-2.8-9.4-6.7-18.3-10.4-27.3s-7.3-18.2-10.7-27.4c-3.2-8.9-8-17.7-7.6-27.4h-7.8c.1 2.3.1 4.6.1 6.9h7.8v-8.4h-7.8c.4 7.8.4 16-3.1 23.2 1.8-.5 3.5-.9 5.3-1.4-4.5-2-5.2-7.7-6.5-12-1.3-4.5-2.7-8.9-6.1-12.2-2.7-2.6-7.6 0-6.4 3.8 1.5 5 6.2 12.8 2.6 17.6h6.6c-4.8-6.8-5.7-15.6-5.5-23.7-.6 1.1-1.3 2.2-1.9 3.3 2.1-1 5.7 6.4 6.3 7.7 1.4 3 3.5 7.7 2.5 11.1 1.9-.8 3.7-1.5 5.6-2.3-7.6-4.7-13.3-15.5-16-23.9-2.1 1.2-4.2 2.5-6.3 3.7 3.7 4.1 6.5 8.8 11.5 11.5a3.7 3.7 0 0 0 3.8 0 15.38 15.38 0 0 0 5-6c1.1-2.2 1.8-5.3 4.8-4.9-.7-.6-1.5-1.1-2.2-1.7a43.4 43.4 0 0 1 5.8 19.2c.6 5.6-.5 11.4 3 16.3a3.79 3.79 0 0 0 6.4 0c6.6-10.9 6.1-24.6 7.6-36.8.5-3.6-5.3-5-6.8-1.9-2.5 5.3-3.4 10.9-4.1 16.6-.5 4.4 5.9 4.5 7.2 1a49.28 49.28 0 0 0 3.5-19c-.1-4.6-7.3-4.7-7.2 0 0 8.8-3.7 16.3-8.2 23.6 2.2.3 4.3.6 6.5.8-3.5-10.7 5.6-22.1 5.4-33.1a3.5 3.5 0 0 0-5.2-3 14.82 14.82 0 0 0-6.1 6.3c-1 1.9-2.2 6.6-4.4 7.3 1.4 1.1 2.9 2.2 4.3 3.3.1-8 9.3-16.4 1.8-23.8-1.2-1.2-3.6-1.4-4.7 0-3.5 4.2-5.2 9.7-7.1 14.8-1.2 3-4.1 13.9-8.2 14.4 1 .8 2.1 1.6 3.1 2.4-1.9-7.9-4-15.9-10.3-21.5-1.8-1.6-5.7-.7-5.4 2.2 1 9.4 8 18.1 5.7 27.7 1.5-.6 3-1.2 4.4-1.8-5.5-3.4-7.1-11.3-9.7-16.8-1.7 1-3.3 1.9-5 2.9 2 2.7 4 5.3 4.7 8.7 1.5-.9 3-1.8 4.5-2.6-2.5-2-4.3-5.1-6-7.7-1.1-1.7-2.2-3.4-3.2-5.3-.4-.7-1.6-3.5-1.8-3.3-1.2.2-2.3.3-3.5.5 6.7 6.4 17.6 16.4 16.6 26.6 1-.4 2-.8 3.1-1.3-3.5-3.4-7.8-8.4-8.5-13.4-.5-1.3-3.2-1-3 .6zM2964 406.7c-4.9-5.2-3.5-13.6-2.8-20 .6-5.8 1.6-12-.1-17.7a1.79 1.79 0 0 0-3.4 0c-4.1 11.1-5.7 23-6 34.8-.1 2.9 4.4 2.9 4.5 0 .3-6.3.5-12.6.3-19-.1-3.2-4.7-3.1-5 0-.6 6.4-.8 13.3 2.9 18.8a2.9 2.9 0 0 0 3.1 1.3c13.1-2 11.6-20.8 21.2-26.9-1.5-.9-3-1.7-4.5-2.6.6 10.3-5.3 19.9-3.1 30.2.6 2.7 4.5 3 5.7.7 1.7-3.1 3.7-8 7.5-8.7l-4.1-4.1c-4.3 11.3-9.9 22.1-13.6 33.6-1.1 3.5 3.3 5.4 5.8 3.4 6.3-5.3 8.6-15.1 11.8-22.4 5.5-12.5 13.1-23.8 17.8-36.6 1.4-3.8-4.7-6.4-6.5-2.8-3 6-3.6 16.3-9.7 20 1.8.7 3.5 1.4 5.3 2.1-1.8-9.8 10.2-31.2-3.1-36.7-1.2-.5-2.6.2-3.5.9-5 4.1-9.1 9.2-14.1 13.3 2 1.2 4 2.3 6 3.5 2.5-7.2 5.8-14.1 7.7-21.5 1.6-6.6 2.8-15-2.8-20.1a3.78 3.78 0 0 0-4.4-.6c-12.7 6.9-17.1 22.2-25.4 33.1h6.2c-1.5-2.9-2.2-6-3.2-9.1-1.2-3.8-7.1-3.2-7.1 1 .1 8.1.2 16.2.1 24.3 0 4.6 7.1 4.6 7.2 0 .2-5.8.4-11.5-.6-17.2-.4-2.4-3.4-3.1-5.3-2.2-6.1 3.2-7.9 11.5-9.1 17.6-1.5 7.5-1.8 15.2-3 22.7-.5 3.2 3.4 6.5 6 3.5 3.6-3.9 5.2-8.9 6.1-14.1-2.4-.3-4.7-.6-7.1-1-.6 7-4.3 21.7 5.3 24.3 1.4.4 3.5-.2 4.1-1.7 3.4-7.6 5-15.7 7.4-23.7h-7c2.6 6.8 2.1 14 1.8 21.2a3.58 3.58 0 0 0 3.6 3.6c6.1 0 6.5-9.3 7.1-13.6.6-4 1-8 1.7-12 .3-1.6.5-3.2.9-4.7a16.58 16.58 0 0 0 .6-2.1c.1-.5 1.1-1.3 0-.5-1.8-1-3.6-2.1-5.5-3.1.6 6.7 0 13.4 1.2 20 .4 2 2.7 2.9 4.5 2.5 5.2-1.2 7.1-5.6 8.3-10.4-2.4-.3-4.8-.6-7.1-1-2.4 20.9-8.7 41.5-7.5 62.7 1.2 21.4 5.3 42.7 9.5 63.6 4.2 21.4 8.9 42.6 12.2 64.2 3.4 22.4 5.8 45 8.5 67.4 5.3 44.3 9.6 89 7.9 133.7-1.7 45-10 89.7-16.2 134.3-6.9 50.3-14.7 100.5-23.8 150.4-.9 4.9 6.6 7 7.5 2.1 8.6-44.7 15.5-89.7 21.9-134.8 3.1-22.3 6.1-44.6 9.4-66.9 3.2-21.8 6.3-43.7 8-65.7 3.5-45.2.2-90.7-4.9-135.6-4.9-43.8-10.2-87.5-19.1-130.7-5-24.4-10.3-48.8-12.9-73.5-2.5-24.3 4-47.2 6.8-71.2.5-4.1-6.1-4.8-7.1-1-.5 2.1-.8 4.8-3.3 5.3 1.5.8 3 1.7 4.5 2.5-1.1-6-.4-12.1-1-18.1-.2-2.4-3-4.9-5.5-3.1-4.5 3.4-4.8 10.5-5.5 15.6-.5 3.6-.9 7.3-1.5 10.9a25.73 25.73 0 0 1-.8 4 13.88 13.88 0 0 0-.6 1.9c.4 1.3-4.4-.5 1.6-.5l3.6 3.6c.3-7.8.7-15.7-2.1-23.1-1.2-3.3-5.9-3.6-7 0-2.2 7.3-3.6 14.9-6.7 21.9 1.4-.6 2.7-1.1 4.1-1.7-2.9-.8-.2-14.9 0-17.4.3-4-6.5-5-7.1-1-.6 3.8-1.5 7.9-4.2 10.9 2 1.2 4 2.3 6 3.5 1-6.4 1.3-12.8 2.3-19.2.8-4.8 1.5-14.2 6.4-16.8-1.8-.7-3.5-1.4-5.3-2.2.9 5.1.4 10.2.3 15.3h7.2c0-8.1 0-16.2-.1-24.3-2.4.3-4.7.6-7.1 1 1.2 3.7 2.1 7.4 3.9 10.8 1.4 2.6 4.7 2 6.2 0 7.4-9.8 11.5-24.4 22.8-30.5l-4.4-.6c4.4 4 1.1 13-.4 17.7-1.8 5.7-4.4 11.2-6.3 16.9-1.3 3.7 3.5 5.6 6 3.5 5-4.1 9.1-9.2 14.1-13.3l-3.5.9c2.4 1-.2 13.5-.5 15.6-.8 5.2-2.4 10.8-1.4 16.1.4 2.3 3.4 3.3 5.3 2.1 8.1-4.9 8.4-14.9 12.3-22.6-2.2-.9-4.4-1.8-6.5-2.8-4.5 12.3-11.8 23.2-17 35.2-2.9 6.6-4.8 16-10.5 20.8 1.9 1.1 3.9 2.2 5.8 3.4 3.6-11.6 9.6-22.2 13.4-33.7.9-2.6-1.8-4.6-4.1-4.1-5.8 1.3-8.5 7.2-11.1 12 1.9.2 3.8.5 5.7.7-2.1-9.4 3.8-19 3.1-28.5-.1-2.2-2.5-3.9-4.5-2.6-4.8 3.1-7.2 8.4-9.5 13.4-2.1 4.6-4.4 12.3-10.1 13.4 1 .4 2.1.8 3.1 1.3-3.3-4.6-3.1-10.6-2.7-16h-5c.4 6.3.3 12.6.2 19h4.5c0-11.4 1.2-23 4.9-33.8h-3.4c3.9 12.2-5.7 28.5 4.3 38.9 1.5 2 3.6-.1 2.3-1.5zm-1513.8 21.5c-9 8.2-19.6-3.7-26.3-9.7a65.14 65.14 0 0 1-17.6-24.9c-4.4-11.2-4.5-22-2.1-33.7 2.2-10.9 4.8-21.7 6-32.8 2.2-21.1 1-41.8-.6-62.9-1.5-19.5-1-40.7 13.3-55.8 6.3-6.7 17.9-12.1 27.3-10.7 5.4.8 10.2 2.7 15.7 2.9 6.1.3 11.8 2.5 17.9 2.6a2.92 2.92 0 0 0 2.8-3.6c-2.8-10.7-20.3-12.5-29.2-10.4-7.8 1.8-15 6.6-22.3 9.6a43.21 43.21 0 0 0-16.9 12.4c-8.5 9.8-17.4 24.1-15.8 37.7 1.4 11.9 12.1 20 22.1 24.9 11.6 5.6 24.5 8.6 37.2 9.9 14.4 1.5 30.8-.9 40.9-12.4a41.36 41.36 0 0 0 8.5-38c-4-13.5-14.2-24.4-25.4-32.6-6.6-4.8-14.6-7.7-22.8-7.2-4.9.3-12 2.4-13.4 7.9-1.5 6.2 5.3 11.8 10.9 8.3s3.9-11.2-1.2-14a4.23 4.23 0 0 0-4.9.6c-3.7 3.6-7 12.7-1.2 16.4 4.5 2.9 10.7-.5 12.5-5 1.9-4.9-1.3-11.4-7-11.1-6.1.2-8.6 5.8-10.3 10.8 2.7.7 5.4 1.5 8 2.2 5.7-19.7 10.8-46.3-7.1-61.4-2.2-1.9-6.5-1.5-7.2 1.9-1.3 6.5 2.9 11.4 4.8 17.3a54.66 54.66 0 0 1 1.6 25.4 85.47 85.47 0 0 1-2.6 12.2c-1.1 3.4-2.9 6.2-2.1 9.9.9 4.4 4.6 6.6 8.7 4.4 5.4-2.9 7.6-11.4 9.1-16.8a92.57 92.57 0 0 0 3.7-27.7c-.2-7.5-1.6-18.2-9.4-21.7-1.4-.6-3.3-1-4.6 0l-2.4 1.8a4.62 4.62 0 1 0 5.6 7.3c.8-.6 1.5-1.2 2.3-1.8l-4.5 1.2c2.6 1.1 3.4 6.7 3.7 9.3a65 65 0 0 1-.6 17.6 85.06 85.06 0 0 1-3.9 16.4 28.14 28.14 0 0 1-2.5 5.6 10.56 10.56 0 0 0-.9 1.3c.1.3 0 .1 0 0-.1-.3 1.7-.1 1.7-.1l3.1 3.1c-1.1-2.7.5-4.7 1.4-7.3a61.42 61.42 0 0 0 1.9-8.5c1.1-5.6 2.2-11.4 2-17.1a70.63 70.63 0 0 0-2.7-15.8 37.08 37.08 0 0 0-2.4-6.3c-.9-2-3.1-5-2.7-7.3-2.4.6-4.8 1.3-7.2 1.9 15.4 13 9.8 36.4 5.1 53.2-1.5 5.2 6.4 7.3 8 2.2.7-2 1.1-4.8 3.6-4.7-1-.4-2-.8-2.9-1.2 1.3 1 1.1 2-.7 1.5l2.9 2.9c-1.1-2.6-1.2-3.9.9-6l-4.9.6c1.9 1.1-.1 0 .4 0 1 .4 1.9.8 2.9 1.2-1.7-1.8-1-.2-.2-.9a5.63 5.63 0 0 1 1.8-.7 15.68 15.68 0 0 1 5.7-.7 28.79 28.79 0 0 1 14.9 5.2c8 5.4 16.1 13.2 20.6 21.8a33.47 33.47 0 0 1 1.7 28.8c-4.1 10.5-12.9 17-24 19.1-10.7 2-22-.1-32.5-2.5a81.6 81.6 0 0 1-22.5-8.5c-7.2-4.2-14.5-10.4-14.5-19.4 0-10.1 6.3-20.4 12.4-28.1 3.5-4.5 7.5-8.6 12.6-11.3 5.7-3 11.7-5.2 17.5-8.1 5.6-2.8 11.3-4.3 17.6-3.4 3.8.5 10.8 1.6 11.9 6 .9-1.2 1.8-2.4 2.8-3.6-6-.1-11.8-2.3-17.9-2.5-5.6-.2-10.6-2.3-16.1-2.9-9.2-1-19.5 3.4-26.7 8.9-17 12.8-20.3 36.1-19.3 55.8.5 10.9 2 21.8 2.4 32.7a275.91 275.91 0 0 1-1.3 39.6c-1.4 13.2-5.4 25.9-6.8 39.1-1.2 11.6 1.3 22.5 6.8 32.8s13.3 18 22.3 25c7.4 5.7 16.6 12.5 24.3 3.6.2-1.3-.9-2.5-1.7-1.7z"/><path class="cls-1" d="M1502.6 229.9a25 25 0 0 1-2.4-2.2 1.47 1.47 0 0 0-2.3.3c-2.3 4.6-.5 10.4 1 14.9 2.2 6.5 4.7 12.6 6 19.4 1.6 8.8 2 17.7 2.9 26.5s2.2 17.3 2.3 26.1c.2 17.7-2.9 35.1-6.7 52.3-3.4 15.4-5.3 32.6-16.4 44.7-5.1 5.6-9.1 10.2-17 10.8-4.6.3-13.2 1.1-17-2.3-2.6-2.3-7.4.8-5.1 3.9 5.8 7.9 21.5 7.3 29.9 4.7 6.9-2.1 12.4-7.7 16.1-13.6 4.7-7.5 8.5-14.8 10.9-23.3a359.32 359.32 0 0 0 10.2-53.4 168.84 168.84 0 0 0 .8-29.3c-.6-9.6-2.4-19.1-3.4-28.7s-2-19.6-5.3-28.8c-2.7-7.6-7-14.8-6.4-23.2-.7.4-1.5.9-2.2 1.3a21.1 21.1 0 0 1 2.7 1.8c1.1.9 2.5-1 1.4-1.9z"/><path class="cls-1" d="M1459.3 426.3c2 1.7 1.4 4.5.1 6.2-.8 1.1-1.7 2.3-2.5 3.5a14.77 14.77 0 0 0-2.2 6.7c-.6 7.3 2.9 13.7 4.4 20.7.9 4 .9 8.2 1.8 12.2a41.65 41.65 0 0 0 4 9.5c3.8 7.1 6.8 14.6 10.2 22a331.41 331.41 0 0 0 22.6 41.9c8.4 12.9 17.6 25.2 26.2 38a418.39 418.39 0 0 1 23.7 40.4c7.3 14.1 12.3 28.8 17.3 43.9 5.1 15.5 9.9 31 12.8 47.1a399.61 399.61 0 0 1 5.8 51.1c1 16.8 1.2 33.7 1.3 50.5s.8 33.7-.6 50.4c-2.9 33.2-12.2 65.5-13.8 98.8-.8 16.1-2.7 32.2-3.2 48.3a355.68 355.68 0 0 0 1.9 47.3 314.23 314.23 0 0 0 24.4 90.7c6.4 14.7 11.3 30.2 18.3 44.6 6.3 13 15.3 24.5 24.6 35.5 19.8 23.3 42.6 43.3 66.8 61.9 6.1 4.7 12.4 9.3 18.7 13.9 3.6 2.6 8.4-3.5 4.8-6.2-24.3-18.9-49-37.2-70.3-59.6-10.4-10.9-20.5-22.4-28.9-34.9-8.9-13.2-14.2-28-20-42.7-6-15.2-12.9-29.9-17.9-45.5a289.66 289.66 0 0 1-10.7-46 333.59 333.59 0 0 1-3.6-47.9c-.1-16 1.6-31.8 2.7-47.8 1.1-17.1 2.1-33.5 5.5-50.3 3.3-16 5.5-32.3 7.5-48.6 2.1-16.7 1.9-33.3 1.8-50.1s-.2-33.7-.9-50.5c-1.4-33.1-5.3-65.9-15.3-97.5-4.8-15.1-9.4-30.5-15.8-45a328.32 328.32 0 0 0-21.4-40.1c-16.1-26.3-36.8-49.6-51.2-77-3.8-7.3-7.4-14.8-10.9-22.2-3.4-7.2-7.5-14.1-10.7-21.3-1.7-3.8-2-7.9-2.7-12a72.78 72.78 0 0 0-3.5-12.1c-1.2-3.6-2.4-7.3-2.2-11.2.2-4.2 2.7-6.3 4.3-9.8 1.5-3.3.9-5.8-2.3-7.7-.7-.6-1.5.4-.9.9zm441.5-212.4c-7.2-.2-12.9-3.9-18.7-7.7a171.84 171.84 0 0 1-14.8-10.5c-4.6-3.7-6.3-8.9-8.3-14.3-2.3-6.4-5-12.8-6.7-19.4-3.4-12.9-2-26-2.3-39.2-.3-11.4-3-23.5.4-34.6-1.8.5-3.5.9-5.3 1.4 7.1 6.3 9.8 15.8 12.6 24.5 3.3 10.2 7.8 20 12.3 29.7 5.3 11.3 9.9 22.9 14.5 34.5 2 5.2 4.7 10.3 6.2 15.6s-.2 11.1 1.7 16.5a3.26 3.26 0 0 0 3.9 2.2c6.3-1.7 8.6-11.7 10.3-16.9a166.36 166.36 0 0 0 5.9-25.1c2.1-13.3-.4-26.1-4.5-38.7-2-6-4.3-11.3-8.6-16s-9.6-8.2-14.6-12.2a79.5 79.5 0 0 0-17.8-10.9c-7.3-3.2-14.6-6.2-20.4-11.9-3.5-3.5-8.9 1.9-5.4 5.4 10.8 10.7 26.6 13.3 38.4 22.6 5.5 4.3 11.7 8.1 16.1 13.6 5.2 6.3 7.4 15.9 9.3 23.7 2.9 12.2 1.4 23.6-1.3 35.5a140.38 140.38 0 0 1-4.4 15.7c-.7 2-2.4 8.3-4.6 8.9 1.3.7 2.6 1.5 3.9 2.2-1.8-5.3-.1-11.1-1.7-16.5-1.7-5.6-4.4-11.1-6.6-16.5-4.7-11.8-9.4-23.6-14.8-35.1a305.53 305.53 0 0 1-12.8-31.5c-2.9-8.6-6.2-17.8-13.2-24a3.19 3.19 0 0 0-5.3 1.4c-3.7 12.2-.9 25.2-.6 37.7.4 15.1-.8 30.1 4.5 44.5 4.1 11.4 6.9 25 17.3 32.3s22.1 16.5 35.4 16.5c2.5.4 2.4-3.3 0-3.4z"/><path class="cls-1" d="M1891.5 199.5c-.8.1-1.7.3-2.5.4a1.28 1.28 0 0 0-1 1c-2.1 7.7-.2 14.3 4.2 20.8 3.2 4.8 7.2 10.9 12.9 13.1.9.4 1.8-.3 2.3-.9 5-6.5 1.8-17.8-1.1-24.5-3.2-7.6-8.9-15.8-18.1-14.3-3.4.5-2 6.3 1.5 5.3 6.6-1.9 11.4 8 13.3 12.7 2 5.2 4.6 13.7 1 18.7.8-.3 1.5-.6 2.3-.9-4.6-1.7-8.5-7.6-11.2-11.5-2.2-3.1-8.8-15.9-2.7-17.4 1.4-.4.7-2.8-.9-2.5zm11 44.9c-4.5 4.4-4.7 10.7-3.2 16.5a2.31 2.31 0 0 0 2.8 1.6 4.93 4.93 0 0 0 2.9-1.1c-1.2-.7-2.5-1.4-3.7-2.1.4 7.5 3.1 14.2 6.1 21.1a234.94 234.94 0 0 1 8.8 24.3 487.55 487.55 0 0 1 12.5 52.1c6.8 35.8 11 72.1 14.8 108.4 3.9 37.1 8.1 74.1 9.5 111.4a672.47 672.47 0 0 1-4.9 111.7c-4.6 36.4-11.2 72.5-13.9 109.1-2.7 37.1-2.3 74.3-2.1 111.5.1 19.1.1 38.2.1 57.3 0 9-.4 18.1.3 27.1.6 8.5 2.1 17 3.5 25.4 5.8 35.3 9.5 70.8 18.2 105.5 8.9 35.8 21.7 71 33.6 105.9 12 35.4 24.4 70.8 37.3 105.9 3.3 9 6.6 17.9 9.8 26.9 1.8 4.9 9.7 2.8 7.9-2.2-24.5-70.7-49.9-141.1-72.1-212.5-10.7-34.4-16.6-69.6-21.7-105.1-2.5-17.5-6.4-35.2-7.4-52.9-1-18.6-.1-37.5-.1-56.2-.1-37.2-1-74.4.4-111.6s6.5-73.8 11.7-110.7c5.1-36.5 8.6-73 8.3-109.9-.3-37.3-4-74.4-8-111.5-3.8-35.5-7.6-71.1-13.2-106.4-2.8-17.7-6.2-35.3-10.4-52.7-4-16.5-8.4-33.3-15.4-48.8-3.5-7.8-7.2-15.4-8.7-23.9-.4-2-2.8-2.1-4.1-1.1-.4.2-.8.3-1.2.5.9.5 1.9 1.1 2.8 1.6-1.7-4.3-2-9.1 1.4-12.6 1.7-1.6-.9-4.2-2.6-2.5zm1577.9-19.2a9.44 9.44 0 0 0-14.3-10.2c-9.7 6-6.8 18.6-2.7 27 11.3 23.2 34.6 36.7 58.9 43 10.7 2.8 24.8 4.4 33.6-3.9 8.4-7.9 3.9-20.2-.4-28.9-5.7-11.6-11.9-22-21.9-30.4-11.3-9.5-24.3-15.1-37.7-21-10-4.4-20.5-10.3-30.3-2.1-4.9 4.2-8.1 10.2-11 15.9-3.4 6.7-6.6 13.8-8.3 21.2-1.7 6.8-1.8 14-1.7 21 .1 7.3 0 14.9 1.5 22.1 1.7 8.1 4.7 15.4 5 23.8.3 7.9.1 15.9-.1 23.8a136.11 136.11 0 0 1-2.5 24.7c-1.7 8-2.5 16.3-4.7 24.2-1.9 6.7-4.7 12.7-5.1 19.8-.4 6.6-.1 13.4 1.9 19.7 4 12.5 15 20.1 26.7 25 10.5 4.4 23.1 7.4 34 2.7 11.2-4.8 16.4-15.4 19.7-26.5 4.6-15.5 7.7-31.4 12.1-47a176.12 176.12 0 0 1 7.6-22.2c3.2-7.5 6.9-14.7 9.6-22.4a92.06 92.06 0 0 0 5.2-23.8c.6-7.8-.1-15.5.1-23.3.1-3.1.1-6.3-1.2-9.2-1.1-2.4-4.6-4.8-4.9-7.3-.6-5.7-9.6-5.8-9 0a12.82 12.82 0 0 0 2.5 6.8c1.3 1.8 3 3.2 3.6 5.4.6 2.4 0 5.9 0 8.3 0 3.7.2 7.4.2 11 .1 14.4-3.6 27.6-9.3 40.7-5.2 11.9-9.9 23.7-13.2 36.3s-6 25.7-9.4 38.4c-2.7 10-5.5 21.5-15.5 26.7-9.2 4.7-20.6 1.5-29.6-2.3-10.6-4.4-20.1-11.4-22.5-23.2a53.1 53.1 0 0 1-.6-15.4c.7-6.9 4.2-13 5.5-19.7 1.2-6 1.8-12 3.2-17.9a130.72 130.72 0 0 0 3-20.7c.8-12.9 1.6-26.8-.1-39.7-.7-5.7-2.7-11-4.1-16.5-1.7-6.7-1.6-13.8-1.8-20.8-.4-13.2 1.6-24.6 7.3-36.7 3.7-7.9 9.1-21.4 20.1-19.2 5.6 1.2 11 4.5 16.2 6.8a185 185 0 0 1 17.5 8.1c10.1 5.6 19.9 12.7 26.7 22.1 2.9 4 5 8.5 7.3 12.8s4.6 8.7 5.8 13.5c3.8 15.9-16 16.3-26.6 14.1a105.54 105.54 0 0 1-33.8-13.5 65.94 65.94 0 0 1-24.6-26.7c-2.3-4.6-4.8-10.6-3.1-15.9 2.2-7 13.5-8.4 12.3.8a1.51 1.51 0 0 0 2.9.7z"/><path class="cls-1" d="M3498.5 244.2l-1.8-1.8c-.9 1.2-1.9 2.4-2.8 3.6 6.1 4.5 10.2-1.5 14-6.1 4.6-5.6 6.6-11.8 8.4-18.7 4.2-15.7 12.4-30.1 11.6-46.9h-7.9c.8 14.5-6.3 28.1-11.3 41.3-2.7 7-4.9 14.3-8.3 20.9-2.6 5-7.5 9.2-7.5 15.2 0 4.3 6.9 5.6 7.8 1.1.6-3.2 2.6-5.6 4.4-8.2a55 55 0 0 0 4.9-9.3c2.7-6.4 4.9-13.1 7.4-19.6 5.1-13.2 11.5-26.8 10.5-41.3-.3-5-8.2-5.1-7.9 0 .8 13.8-5 25.9-9.2 38.6-1.7 5.1-2.4 10.6-4.4 15.7a26.08 26.08 0 0 1-4.7 7.6 39.68 39.68 0 0 0-4.8 7.9c.7-.4 1.4-.8 2.2-1.2-1-.3-2-.6-3-.8-2.2-1.4-4.9 1.9-2.8 3.6.7.5 1.3 1.1 2 1.6 2.3 1.7 5.3-1.2 3.2-3.2zm-18.3 193.1c-.8 5.9-5.9 9.9-8.5 15-3.4 6.8-5.2 14.4-8.3 21.4-6.2 13.8-13.3 27.2-19.3 41.1a425.35 425.35 0 0 1-19.7 40.1c-6.7 11.9-12.4 24.4-19.5 36.1-14.3 23.5-40.6 36.8-57.7 58.1-16.4 20.5-25 45.5-31 70.7-3.6 15-7.3 30.2-8.5 45.6-1.3 15.7-1.4 31.3-3.7 46.9-4.4 29.6-11.3 59.9-8.6 90 .7 7.4 2.2 14.7 2.6 22.2.4 7.7 0 15.5-.1 23.3-.3 15.4-.4 30.6-1.7 46-2.4 29.7-9 58.7-13.1 88.1-4.4 31.8-7 63.9-5.8 96s5.8 65.2 17.6 95.2c1.9 4.8 9.5 3 7.9-2.2-8.7-27.5-14.4-55.3-16.2-84.1s-.4-57.5 2.8-86c3.2-28.8 9.5-57.2 13.1-86a442.68 442.68 0 0 0 3.4-46c.3-15.2 1.1-31-.1-46.2-.6-7.4-2.3-14.7-3-22.1a176.57 176.57 0 0 1-.3-23c.6-15.5 2.9-30.9 5.4-46.1a449.55 449.55 0 0 0 5.7-44.8c1-15.9 1.9-31.2 5.2-46.8 5.7-26.5 12.1-53.7 27-76.8 15.1-23.5 39.9-37.3 57.6-58.3 9.6-11.4 14.7-25.5 22-38.2a399.75 399.75 0 0 0 22-43.9c6.6-15.7 13.8-31.1 20.4-46.8 3-7.2 4.5-15.4 8.2-22.3 2.8-5.3 7.2-9.3 7.7-15.5.2-2.2-3.2-2.7-3.5-.7z"/></svg>