<svg id="Layer_1" data-name="Layer 1" xmlns="http://www.w3.org/2000/svg" viewBox="0 0 3800 1541.7"><defs><style>.cls-1{fill:#ff5f2d}</style></defs><title>Artboard 1</title><g id="Layer_9" data-name="Layer 9"><path class="cls-1" d="M1363.7 556.3a55.94 55.94 0 0 0 4.9 3.6c2.1 1.4 4-1.9 2-3.4-5.1-3.7-11.2-3-17.2-3.4-3-.2-6-.7-9 0-2.7.7-5 2.2-7.6 3.2-6.9 2.7-14.7 2.1-21.4 5.2-5.9 2.8-10.4 7.9-15.9 11.4-3.1 2.1-6.4 3.9-9.5 6.1-2.7 2-5.1 4.3-8.1 6-2.7 1.6-5.7 2.7-8.3 4.5a58.15 58.15 0 0 0-7.4 6.6 53.13 53.13 0 0 0-9.8 12.8c-1.4 2.5-4.2 9.8-7.2 10.8 1.7 1 3.5 2 5.2 3-2-5.4 2.5-11.5 4.1-16.6 2.4-7.5 4.7-15 8.1-22a57 57 0 0 1 11.9-16.4c4.4-4.1 8.7-8 11.5-13.4a36.9 36.9 0 0 1 13.4-15.1c6-4 11.8-8.2 18-12s12.5-7 18.9-10.3c3.1-1.6 5.9-3.5 9-5.1 3.5-1.8 7.2-2.5 10.5-4.7 3.8-2.6.3-8.8-3.7-6.3-3.2 2.1-7.1 2.9-10.5 4.6-3.6 1.9-7 4.1-10.6 5.9-6.9 3.6-13.8 7.2-20.3 11.3s-13.6 8.6-19.8 13.4c-5.6 4.4-8.5 9.7-12 15.8-3.4 5.9-9.4 9.6-13.9 14.7a71.47 71.47 0 0 0-11.5 19.1c-3 7.1-4.9 14.5-7.7 21.6-2.3 5.8-5.3 11.4-3.7 17.8a4.33 4.33 0 0 0 5.2 3c7.6-2.1 10.8-12.8 14.6-18.7a47.07 47.07 0 0 1 13.8-13.6c2.7-1.7 5.7-2.8 8.3-4.6 2.8-1.9 5.3-4.3 8.1-6.3 5.1-3.5 10.2-6.8 14.9-10.9 2.4-2.1 4.9-4.4 7.9-5.8 3.3-1.5 7.1-1.8 10.6-2.7a61.71 61.71 0 0 0 9.5-3c3-1.3 5.6-3.3 9-3.7 3-.3 6.1.1 9.1-.1 4-.3 7.5-.4 11.3 1.3.3-1.2.7-2.4 1-3.6a50.26 50.26 0 0 1-5.4-.8c-.3-.1-.8.5-.3.8z"/><path class="cls-1" d="M1345.2 511.2c-.8 1-3.4.1-4.2-.5a9.8 9.8 0 0 1-1.7-2.3 7.6 7.6 0 0 1-.9-6.4c1.2-3.9 3.4-9.5 6.2-12.6 5.6-6.1 15.3-9 23.1-11 4.7-1.2 9.3-.9 14-1.7s8.3-1.9 13.1-1.5c9.8.9 19.2 4.1 29.1 4.2 4.4.1 4.4-6.9 0-6.9-13.1.1-26.7-6.3-39.7-2.8-6.6 1.8-13.2 1.8-19.8 3.8a75.1 75.1 0 0 0-16.5 7 23.74 23.74 0 0 0-9.6 10c-1.9 4.2-5 10.5-4 15.2s8.4 13.2 12.5 6.8c.8-1-.8-2.2-1.6-1.3z"/><path class="cls-1" d="M1418.9 476.9a9.35 9.35 0 0 0 2.6-6.8 38.79 38.79 0 0 1 1.8-12.2 54.87 54.87 0 0 1 14.3-22.1c6.2-6.1 13.6-9.5 21.5-12.8 8.7-3.6 17.4-7.3 26.5-9.8 19.2-5.3 39.5-4.6 58.7.3 8.5 2.2 14.3 7.5 19.5 14.3 2.6 3.3 4 7 5.6 10.9 1.1 2.8 4.5 6.9 3.9 10l3-3c-5.4 1.2-11 .1-16.5 0-6.6-.1-13.4-.5-20 .1-11.6 1.1-23.9 4.6-34.9 8.4-10.1 3.5-20 8.8-27.7 16.4a46.4 46.4 0 0 0-8.5 12.1c-2.5 4.9-3.7 10.4-6.4 15.2s4.7 9.1 7.4 4.3c4.9-8.6 6.3-18.3 13.6-25.5 7.8-7.7 18.2-12.7 28.7-15.6 10.8-3 22-6.6 33.4-6.8 5.8-.1 11.7-.1 17.5.2 5.3.2 10.4.7 15.7-.5a4.15 4.15 0 0 0 3-3c1.2-6.5-2.7-11.8-5.1-17.5a50.23 50.23 0 0 0-11.1-16.3c-11-11.3-26.7-13.6-41.9-14.7a117 117 0 0 0-50.4 7.7c-13.1 5-27.9 10.9-37.8 21.2-5 5.2-9.6 11.1-12.3 17.8a68.54 68.54 0 0 0-4.1 13.1c-.7 4 1.1 9.7-1.7 13-1.1 1 .6 2.7 1.7 1.6z"/><path class="cls-1" d="M1484.2 481.4c-3-3.8-3.2-5.7-.7-5.6a7.63 7.63 0 0 1 2.6.2c1 .2 2 .5 3 .8a53.77 53.77 0 0 1 6.6 2.7 92.24 92.24 0 0 1 14.5 8.6c4.9 3.4 9.6 7.2 14.6 10.5s9.5 6.6 13.5 11.2c7.3 8.3 13.4 18.4 19.3 27.7 3.3 5.1 5.4 11.4 7.1 17.2.8 2.7 1 5.6 1.6 8.4.7 3.5 2.3 6.9 2.6 10.5 1.7-1.3 3.5-2.6 5.2-4-4.5-1.9-7.7-5.6-11.2-8.8a58.82 58.82 0 0 0-12-8.4c-9.4-5.2-18.5-11.4-28.4-15.6-5.2-2.2-10.6-3-16-4.5-5.6-1.6-10.6-5-16.3-6.3-5.2-1.2-10.1.1-15.4.2-6 .1-11.7-2.9-17.6-4.3-5.4-1.3-7.8 7.1-2.3 8.4s10.5 3.8 16 4.5c5.2.6 10.4-1.1 15.6-.6 6.2.7 11.7 4.8 17.6 6.5 5.7 1.5 11.3 2.3 16.7 4.8 9.6 4.4 18.9 10.3 28 15.5 8.4 4.8 14 12.9 23 16.6 2.4 1 5.4-1.5 5.2-4-.4-4.4-2.1-8.4-2.9-12.7a75.44 75.44 0 0 0-2.8-11.6 85 85 0 0 0-10.4-20.9c-8.7-12.7-16.2-26.1-29.6-34.4-12.8-7.9-25.1-17.2-39.8-21.1-3.9-1-10.1-2.3-13 1.6-3.1 4.1 1.7 7.4 5.4 8.2a.67.67 0 0 0 .3-1.3z"/><path class="cls-1" d="M1358 559.7c-.8-.3-1.6-.7-2.5-1-.1.7-.2 1.4-.3 2 6.5-4.6 13-9.2 20.1-12.9 3.4-1.7 6.7-2.4 10.2-3.7 2.1-.7 2.8-2.7 4.4-3.5 3.4-1.7 8 5 9.8 7 2.7 3 5.3 6.1 7.8 9.2 5.2 6.5 10.5 12.5 17.1 17.7 6.1 4.8 11.6 10.3 17.8 14.9 6.6 5 12.6 9.6 18.2 15.7 4.3 4.8 7.9 9.9 11.8 15 3.3 4.3 6.9 8.7 12.3 10.4a3.68 3.68 0 0 0 4.4-2.5c1.9-9 .8-18.1-1.1-27-2.1-10.2-3.9-20.5-6.5-30.6a152.37 152.37 0 0 0-10.8-28.4 65.87 65.87 0 0 0-7-11.7c-2.5-3.2-7.5-5.6-8.8-9.5-2.3 1.3-4.6 2.7-6.9 4 8.7 7.1 20.2 17.2 21.3 29.1.6 5.8 9.7 5.7 9 0-1.7-14.7-13.5-26.2-24.6-34.9-2.9-2.2-8.4-.3-6.9 4a16.59 16.59 0 0 0 5.6 7.7 34.22 34.22 0 0 1 8.9 10.4 126.81 126.81 0 0 1 11.8 27.6c2.8 9.4 4.1 19.3 6.4 28.8 2.2 9.2 4.5 19 2.5 28.5 1.5-.8 2.9-1.7 4.4-2.5-5.8-1.8-9.7-9.3-13.1-13.9a130.27 130.27 0 0 0-14.4-16.2c-6.1-5.7-13.4-9.8-19.7-15.3-6.5-5.6-13.7-10.4-19.7-16.5s-11.2-13.1-17.4-19.2c-3.4-3.4-8.3-9.3-13.8-6.5-2.3 1.2-2.6 3.4-5.3 4.3a52.6 52.6 0 0 0-9.8 4.2 136.9 136.9 0 0 0-19.8 14.1 1.36 1.36 0 0 0 .6 2.2 4.91 4.91 0 0 0 3.9-.6c.5 0 .4-.4.1-.4zm11.8-61.5c.4 1 .7 2.1 1.1 3.1.5-.1 1-.3 1.4-.4-3.4-1.8-4.2-6.6-5-10-1-4.1-1.8-7.7-3.8-11.5-3.1-6-4.5-11.9-5.9-18.4-1.1-5.4-3-10.6-7-14.5-5.6-5.4-15-6.9-18.1 1.9-2.5 7 1.1 15.1 8.6 16.8a4.34 4.34 0 0 0 4.2-1.1c5.8-6.8 2.3-16.6-5.9-19.4a4.39 4.39 0 0 0-5.3 3c-1.6 6.7 5.1 19.2 12.4 11.6a4.54 4.54 0 0 0 .7-5.3c-.4-.8-.9-1.5-1.3-2.3-2.8-4.9-10.3-.5-7.5 4.4.4.8.9 1.5 1.3 2.3.2-1.8.5-3.5.7-5.3 2.7 1.1 3.7 1.1 2.9 0a3.7 3.7 0 0 1-.5-1.1c0-.7-.5-1.3-.3-2.1-1.8 1-3.5 2-5.3 3 1.8.6 3.6 3.3 2.2 5 1.4-.4 2.8-.7 4.2-1.1-3.2-.7-4.6-7.1-1.2-6.6 4.5.7 6.9 7.7 7.9 11.3 1.3 4.5 2.3 9.1 4.1 13.5 1.7 4 4.7 7.4 6.3 11.4 1.2 2.8 1.8 5.9 2.9 8.8 1.2 3.1 4.4 10.5 8.9 7.5a1.08 1.08 0 0 0 .5-1.2 6.45 6.45 0 0 0-2.7-3.8c-.4-.1-.7.3-.5.5zm14.2-62.6c2 0 2-3.2 0-3.2s-2 3.2 0 3.2zm4.2 64c-4.8-2.8-5.9-5.7-6-11.1a109.3 109.3 0 0 0-.6-11.5c-.7-4.8-2.3-9.3-3.4-13.9-1-4.1-1.2-8.4-1.8-12.6-.6-4.6-1.5-14.8-7.1-16.4s-9.3 4.9-9.1 9.6a4.19 4.19 0 0 0 4.1 4.1c.6.1 1.2.1 1.8.2 4.5.5 5.6-7.2 1.1-8l-1.8-.3c1 1.3 2 2.7 3 4 0-.7.3-1.6-.2-1.6-1-.4-1.9-.8-2.9-1.2 3.4 3.2 3.4 11.9 3.9 16.1.9 6.8 3.1 12.7 4.9 19.3 1.6 5.7 1.3 12.3 4 17.6 2 3.9 6 4.7 9.7 6.4a.4.4 0 1 0 .4-.7zm12.5-8.4a7.46 7.46 0 0 1-.7 1.2c1.1.1 2.2.3 3.3.4-2.5-7.9-5.9-14.9-5.6-23.6.4-10.2 2.6-20.3.3-30.4a4.67 4.67 0 0 0-5.6-3.2c-6.5 1.6-8.4 10.7-3.1 14.8a4.73 4.73 0 0 0 6.3 0c.5-.5 1-.9 1.6-1.4 4.3-3.8-1.9-9.9-6.2-6.2-.5.5-1.1.9-1.6 1.4h6.3c-.4-.4-.6-.4-.7.2-1.9-1.1-3.7-2.1-5.6-3.2 3.1 10.5.1 21.3 1.4 31.9.8 6.5 3.2 18.7 10 21.7.9.4 2.4.2 2.6-1.1.1-.5.1-.9.2-1.4.2-1.5-2-2.8-2.9-1.1zm83.3-55.7c9.2-1 17.4-6.1 26.7-7a61.27 61.27 0 0 1 14.8.7c4.7.9 9.1 2.8 13.8 3.7 3.8.8 5.4-5.1 1.6-5.9-4.7-.9-9.1-2.7-13.8-3.5a61.09 61.09 0 0 0-15.4-.3c-9.9.9-18.2 7.4-27.9 9.3-1.8.4-1.5 3.2.2 3zm4.2 75.9c-1-.7-1.9-1.4-2.9-2.1-.3.4-.5.9-.8 1.3 10.9 2.4 21.2 7.3 31.1 12.4 7.5 3.9 13.7 10.8 22.4 11.5 3.4.3 3.3-4.9 0-5.3-4.8-.6-8.8-3.5-12.7-6.1a79.75 79.75 0 0 0-13.3-6.9c-8.6-3.6-17.8-7.9-27.3-7.3a.84.84 0 0 0-.6 1.4 8.11 8.11 0 0 0 3.7 2.1c.8.4 1.1-.7.4-1z"/><path class="cls-1" d="M1417.6 531.6c3.9.7 7.2 3.8 10.3 6.1a72.22 72.22 0 0 1 11.3 10.8c7.5 8.3 13.4 17.3 20 26.2l4.1-4.1-1.8-1.2c-2.8-1.6-6.3 2.5-3.6 4.7.8.6 1.5 1.2 2.3 1.7 3.1 2 5.7-2.3 3.7-4.8-7.7-9.5-14.2-19.1-23.2-27.6a92.53 92.53 0 0 0-11.4-9.3c-3.3-2.3-6.8-5.1-10.9-5.7-2-.2-2.9 2.8-.8 3.2zm-128.8 37.2c3-3.4 4.9-6.9 8.7-9.6s7.8-5.6 11.8-8.3c8.2-5.7 17-10.3 25.9-14.8 2.8-1.4.3-5.4-2.4-4.1a151.71 151.71 0 0 0-27.8 16.9c-3.5 2.6-6.9 5.4-10.2 8.1-3.7 3.1-5 6.7-7.7 10.5-.8 1 .9 2.2 1.7 1.3zm179.2-36.2c-.6 0-1.2.1-1.8.1a1.61 1.61 0 0 0-1.5 1.5c-.2 6.9 4.3 12.8 6.9 18.9 3.9 8.9 6.3 18.6 9.3 27.8 5.7 18.1 11.3 35.9 14.4 54.7 3.1 19.3 5.8 38.5 7.6 58 1.8 20 5 39.8 5.6 59.9.6 19.5.2 39.2-1 58.7-1.3 20.1-1.6 40-1.6 60.1 0 37.9-.8 75.6 6.8 113 4.2 20.9 9.8 41.8 15.4 62.4 2.9 10.6 5.8 21.4 10 31.6 1.9 4.7 4 9.3 5.2 14.2 1.2 4.7 3.7 9 4.6 13.7 1.1 5.6 9.3 3.1 8.4-2.3-.6-4-2.8-7.4-3.9-11.3a100.29 100.29 0 0 0-4.3-13.1 235.43 235.43 0 0 1-9.2-26.8c-5.4-18.8-9.8-37.8-14.7-56.8-9.5-36.9-9.8-74.1-10-111.9-.1-19.7-.8-39.6.3-59.3s1.5-39.1 1.6-58.7c0-19.8-2.4-39.3-4.7-59-2.3-18.9-3.8-37.7-7-56.5-1.8-10.4-3.3-20.9-5.5-31.3a257 257 0 0 0-9.3-31c-3.6-10.1-7-20.2-10.8-30.1a83.33 83.33 0 0 0-5.2-11.4c-2.3-4.2-5.3-8.5-5.6-13.5a14.29 14.29 0 0 0-1.1 1.5l1.8-.3c1.3-.2.9-2.9-.7-2.8zm132-86.5c.4 0 .8.1 1.2.1 1.9.2 2.6-2.4 1.5-3.6-3.4-3.8-7.6-6.6-10.8-10.5-3.6-4.3-6.2-9.2-9.2-13.8-3.2-5-6.4-9.5-8.3-15.1s-3.8-11.2-5.4-16.9a122.65 122.65 0 0 1 .8-66.9c-1.7.7-3.3 1.4-5 2 3 1.7 3.1 6.9 3.7 10 1.1 5.5 2.4 10.9 3.4 16.4q3.3 18.45 6.9 36.9c2 10.6 3.8 21.5 8 31.6 2.2 5.2 4.9 10.3 7.5 15.4 2.1 4.1 3.4 8.7 6.7 11.9 3 3 6.9-.8 5.5-4.2-4.9-11.6-11-22.7-15.8-34.4-5-12.1-7.6-26.1-9.3-39-1.8-13.3-3.8-26.6-3.9-40 0-6.5-.4-13.2 1.3-19.6 1.6-6.1 2.8-12.6 5.1-18.5-1.5.8-3 1.7-4.5 2.5 7.4 2.6 8.8 15.1 9.9 21.6 1.8 11 4 22.1 5.4 33.2 1.9 14.4 1.1 28.4 1.2 42.8 0 6.6 1.7 12.8 2.1 19.2a80.53 80.53 0 0 0 .7 9.7c.6 3.2 1.6 6.1 1.7 9.4a3.7 3.7 0 0 0 7.4 0c.4-8.7-1.5-17.1-1.9-25.8-.4-9-1.5-17.8-2.5-26.7-2.2-18.1-1.3-36-1.5-54.2-.1-4-.4-8.1.2-12.1.7-4.6 2.6-8.1 5.8-2.5 3 5.2 4.8 11.6 6.4 17.4 2.2 8.3 4.5 17.5 4 26.1-.4 8.1-1.7 16.3-2.4 24.4a227.54 227.54 0 0 1-4.1 27.3c-.9 4.3-2 8.5-2.9 12.7s-1.2 8.7-2.8 12.9c-2.8 7.8-1.8 14 .3 21.9 2.3 8.2 5.5 16.1 8.4 24.1 3 8.2 5.3 16.6 7.6 25.1s3.8 17.4 5.6 26.2 4.7 17 6.8 25.7c4.1 17.1 5.1 34.7 5.2 52.2a463.8 463.8 0 0 0 3.7 55.2 510.08 510.08 0 0 1 3.8 55.2c.4 18.5 1 37.1-1.6 55.5-2.4 17.2-5.9 34.2-4.6 51.7s6.6 34.8 9.5 52.1c3.1 18.5 3.3 37.4 4.7 56.2 1.3 18.5 3.4 37.1 5.7 55.5 2.3 18.1 4.9 36.2 8 54.3 1.5 8.5 2.9 17.4 6 25.5 2.9 7.6 5.2 14.5 6.4 22.5 2.7 17.5 7.2 34.8 11.3 52 2.1 8.6 5 17 6.4 25.8 1.4 9.1 1.7 18.4 2.7 27.5s2.5 17.8 1.6 26.8c2.1-1.2 4.1-2.4 6.2-3.5-.6-.3-1.1-.5-1.7-.8-4.7-2.2-8.9 4.8-4.1 7.1.6.3 1.1.5 1.7.8 3 1.4 5.8-.3 6.2-3.5 1-9.7-.7-19.1-1.6-28.7-.8-9-1.2-18-2.5-27s-4.2-17.9-6.2-26.8-3.8-17.7-5.8-26.5c-2.1-9-4-18.1-5.4-27.3a74.54 74.54 0 0 0-2.4-11.4c-1.3-4.3-3.5-8.3-4.8-12.6-5.5-17.6-7.5-36.7-10.1-54.9q-4.35-29.55-7.2-59.3c-1.8-18.9-2.3-37.9-4.1-56.8s-6.7-36.9-10.1-55.4c-3.5-18.7-1-36.8 1.8-55.3 2.8-18.9 3-37.5 2.7-56.6s-1.1-38.2-3.5-57.1c-2.4-19.4-4.3-38.6-4.5-58.2-.1-17.6-1.1-35.4-4.9-52.6-2-8.9-5.2-17.5-7.1-26.5s-3.4-18.1-5.7-27-4.9-18.1-8.1-26.9c-2.9-8-6.2-15.8-8.4-24.1-1.2-4.4-2.9-9.2-1.7-13.8 1.1-4.2 2.6-7.9 3.3-12.2 1.3-9.3 4.1-18.5 5.6-27.8a254.79 254.79 0 0 0 2.9-26.3c.5-8.5 2.7-16.6 1.6-25.2a137.63 137.63 0 0 0-5.5-25.3c-1.8-5.4-3.6-11.4-6.9-16-2.7-3.9-7.3-6.3-12-4.2-3.9 1.7-5.5 6.1-6.2 10a63.6 63.6 0 0 0-.6 13.1c.2 8.2-.1 16.4-.1 24.5 0 19.2 3.4 37.9 4.3 57 .4 8.9 2.4 17.7 2 26.6h7.4c-.1-3.4-1-6.4-1.7-9.8-.8-3.7-.5-7.3-.8-11-.3-3.5-1.3-6.9-1.7-10.4a91.44 91.44 0 0 1-.3-11.7 260.28 260.28 0 0 0-2.5-46.7c-1.7-10.7-3.2-21.7-5.6-32.3-1.8-8.3-5.1-17.9-13.9-21-2-.7-3.8.8-4.5 2.5-10.2 26.3-6.1 53.8-2.5 80.9 1.8 13.3 4.4 27.5 9.5 39.9s11.4 23.9 16.5 36.1c1.8-1.4 3.6-2.8 5.5-4.2-3.4-3.4-5.2-9.7-7.3-13.9-2.7-5.4-5.5-10.6-7.4-16.4-3.7-11.4-5.4-23.5-7.6-35.3-2.3-12.2-4.3-24.4-6.9-36.5-1.4-6.7-1.9-17.2-8.5-21a3.45 3.45 0 0 0-5 2c-6.7 22.6-7.2 47.8-.5 70.5 1.8 6.2 4 12.5 6.3 18.6 1.9 5.2 5.2 9.4 8.4 13.9s5.9 9.1 9.4 13.3c3.9 4.7 8.8 7.6 13 11.8l1.5-3.6a4.87 4.87 0 0 1-1.2-.1c-3-.1-2.9 3.9-.3 4.2z"/><path class="cls-1" d="M1624.9 498.3c1.6-8.5-8.4-13.2-15.6-12.3-5.4.6-11.6 4.2-16.3 6.7-5.3 2.8-9.3 7.2-10.4 13.1-2 10.1 6.5 15.8 15.7 16.2 5.8.2 10.8-1.6 15.7-4.6 3.1-1.9 5.4-4 9-2.6a17.19 17.19 0 0 0 9 .8c4.3-.5 4.5-6.6 0-6.9-2.8-.1-4.7.1-7.3-.8a10 10 0 0 0-4.5-.8c-4 .4-7.5 3.3-10.8 5.3-4.9 3-15.7 5.6-19.8-.4-2.3-3.4-.2-8.4 2.2-11 3.3-3.5 8.4-5.1 12.5-7.3 3.7-2 6.4-3.3 10.6-2.7 4 .5 8.3 2.5 8.2 7.1-.1 1 1.6 1.2 1.8.2z"/><path class="cls-1" d="M1641.5 496c.4-3.3-1.1-6-1.2-9.2-.1-3.4 1.8-6.4 2.6-9.7l-1.9 1.9c2.3-.4 6.3-2.4 8.4-.5 1.5 1.3 1.8 4.6 2 6.4.4 4.2.2 9.2-1.9 13-2.2 4-6 7.2-9.2 10.4a58 58 0 0 0-4.7 5.2c-.6.8-2 4.7-2.6 4.9-4.6 1.7-2.5 9.1 2 7.3 3.2-1.3 4.1-2.9 5.5-5.9 1.5-3.4 4.5-6.1 7-8.8 4.8-5.3 9.3-10.2 10.2-17.6.7-5.6.6-12.4-2.5-17.3-4.1-6.6-9.6-3.8-15.6-2.3a2.79 2.79 0 0 0-1.9 1.9c-.5 3.2-2.1 6.3-2.1 9.6 0 3.9 2.8 6.9 2.8 10.7a1.55 1.55 0 0 0 3.1 0zm53.9-108c-.2-4-3.5-6.8-6.3-9.2-4.6-3.9-8.6-7-11.4-12.5-6.7-13.7-7.7-29.7-4.5-44.4 3.4-15.5 9.7-30.1 15.9-44.7 2.9-6.9 5.1-13.9 7.3-21a52.91 52.91 0 0 0 2.4-9.7c.5-4.4.3-8.8 1.1-13.1-2.1.6-4.2 1.1-6.3 1.7 3.8 3.4 3.1 12 4.1 16.8a170.35 170.35 0 0 1 3.5 21.2c.6 6.1.7 12.3.8 18.4.1 6.3 1.1 12.7.2 19s-3.2 12.6-4.1 19a66.54 66.54 0 0 0-.6 7.8c-.1 4-1.2 7.5-2.2 11.3-3 10.7-5 23.3-2.6 34.3 1.7 7.8 8.1 14.6 16.7 12.7 9.3-2 12.3-13.1 15.5-20.8 4.5-10.7 9.1-21.5 9.3-33.2.2-12.7.1-25.8-2.7-38.2-3.3-14.5-11-26.9-16.8-40.4-2.7-6.3-4.3-12.9-7.1-19.1a32.13 32.13 0 0 1-2.6-8.5c-.5-3.1-2.5-6.3-2.3-9.4.5-6.1-9.1-6.1-9.6 0-.3 4.6 2.1 9.4 3 13.9 1 5.2 3.9 9.9 5.6 14.8 3.8 10.9 9.1 20.8 14 31.3a95.82 95.82 0 0 1 9.3 35.6c.7 11.8 1.3 23.9-2.2 35.3-1.5 5-3.5 9.9-5.4 14.7-1.7 4.3-3.1 9.5-6 13.2-2.6 3.4-7 4.2-9.5.2-2.3-3.6-2.2-8.7-2.2-12.7a93.22 93.22 0 0 1 2.4-19c1.4-5.8 3.1-11 3.2-17 .4-11.6 5.2-22.3 4.8-34-.5-12.9-.7-25.8-2.5-38.6-1-6.9-3.2-13.6-3.9-20.6-.5-5.2-.9-9.8-5-13.4-2-1.7-5.7-1.3-6.3 1.7-.8 3.9-.8 7.7-1.1 11.6-.2 4.3-1.3 8-2.5 12.1a225.62 225.62 0 0 1-7.9 22.7c-6 14.5-12.2 29.3-15 44.9a73.43 73.43 0 0 0 4.8 41.4c2.1 5 5.1 10 9.4 13.4 3.6 2.9 11.5 5.8 12.2 10.9.6 1.5 3.2 1.2 3.1-.4z"/><path class="cls-1" d="M1697.5 380.2c-6.7 1.8-6.3 10.8-6.1 16.3.4 10.5 1 20.6 2.9 31 2.2 12.1 4.1 24.3 9.8 35.4a222.52 222.52 0 0 1 14.5 35c4.2 13.1 5.9 26.3 7.7 39.9.8 6 1.7 11.5 1 17.6-.8 7.2-1.7 14.5-2.9 21.6-4.2 25.6-16.1 48.7-21.5 73.9-2.8 13-4 26.6-5 39.9-1 13.1-1.5 26.3-.4 39.4 2.1 26 10.7 51.1 15.6 76.6 5.4 28 10.5 56 15.6 84 4.9 26.8 9 53.8 13.9 80.6 2.8 15 6.8 29.7 9.9 44.6 3 14.4 9.3 27.8 11.7 42.3 2.5 14.9 7.4 28.8 11 43.4 3.7 15.2 4.5 31 8.4 46.1.8-1.9 1.5-3.8 2.3-5.7 2.9 1.3 3.6 1.1 2.3-.7-2.9-5.6-10.8-.7-8.4 4.9 1.7 3.9 5.5 6.8 9.9 5 2.6-1.1 4.1-3.2 3.5-6.2-2.7-13.4-4.2-27-7-40.4-2.7-12.9-7.5-25.2-10.4-38-1.3-5.9-1.9-11.9-3.2-17.7-1.4-6.2-3.6-12.1-5.6-18.1-4.2-12.3-6.4-25.2-9.6-37.8-6.4-25.6-9.6-51.9-14.2-77.8-4.9-27.4-10-54.7-15.1-82q-3.6-19.5-7.5-39c-2.6-12.8-6.2-25.3-9.1-38-5.9-25.5-5.9-50.9-3.4-76.9 1.3-13 2.9-25.9 6.5-38.5 3.5-12.1 8-23.9 11.9-35.9s5.9-24.2 7.5-36.6c.8-6.1 2-12.4 1.9-18.6-.1-6.5-1.7-13-2.5-19.4a182.61 182.61 0 0 0-9.5-39.9c-2.4-6.5-5.1-13-7.9-19.3-2.5-5.6-5.7-10.9-8.3-16.4-3.1-6.8-4.5-14.5-6.1-21.7-1.5-6.5-3-13.1-4-19.7-.9-5.7-1-11.3-1.5-17-.3-3.2-1.6-11.3 2.5-12.6 2.2-.7 1.3-4.3-1.1-3.6z"/><path class="cls-1" d="M1807 412.3c-5-2.2-5-10-4.6-14.5.5-5.6 1.4-9.6 4.7-14.2 7.3-10.2 12-22 18.9-32.5 6.8-10.2 15.3-19.5 20.4-30.7a119.94 119.94 0 0 0 4.4-11.3 41.9 41.9 0 0 1 2-4.9 16.53 16.53 0 0 0 1.4-2.6c.3-1 1.2-.6.5-.9l-2.4-2.4a37.05 37.05 0 0 1-2 21.6c-3.4 8-6 16.4-9.1 24.5-3.2 8.4-6.1 16.7-9 25.1-2.5 7.2-6.9 13.7-7.9 21.3-.5 3.9 6 4.7 6.8.9 1.4-6.6 6.5-12.4 9.2-18.7 3-6.9 5.8-13.5 7.6-20.8a157.8 157.8 0 0 1 12.3-34.1 45.32 45.32 0 0 1 2.7-4.8 19.51 19.51 0 0 0 1.7-2.3c.1-.2.7-.6.7-.7 0 .1-1.2-1-1.6-.5 0 0 .9 2.6 1 2.8a30.83 30.83 0 0 1 .3 5.3c-.1 3.1-.3 6.2-.5 9.4-1.1 16.1-8.2 32.5-14.6 47.1-2.9 6.5-5.4 13.4-9 19.7s-9.5 11.5-15.4 15.7c-4.7 3.3-10.3 5.1-15.8 3.4-4.9-1.5-11-2.5-15.2 1.4-3.5 3.3-4.1 8.9-5.6 13.3a202 202 0 0 1-10.2 23.4c-3.5 6.9-7.6 13.5-11.2 20.3a156.47 156.47 0 0 0-8.5 20.8c-5.5 15.2-11.9 30.2-15.2 46.1a203.59 203.59 0 0 0-3.1 23.3c-.8 8.1-3.1 16.6-2.7 24.7a96.53 96.53 0 0 0 1.5 10.6 62.33 62.33 0 0 1 .5 12.2c-.2 8.6 1.2 16.7 2.1 25.2 1.8 16.7 2.2 33.6 3.7 50.4s3.5 33.4 5.9 50c2.5 17 6.6 34 8.1 51.1 1.5 16.5 2 32.7 5.8 48.9s8.5 32.4 12.2 48.8a277.16 277.16 0 0 0 14.7 46.9c6.6 15.7 11.5 32 16.6 48.3 5 15.8 8.7 32.6 15.4 47.7 3.1 7 7.5 13.5 9.8 20.9 2.1 6.6 1.7 13.7 3.9 20.4 2.3 6.9 5.1 13.5 8 20.2 2.3 5.3 10.1.7 7.8-4.6a183.14 183.14 0 0 1-8.3-21.7c-2-7.2-1.5-14.3-4.5-21.3-3.1-7.4-7.5-14.2-10.3-21.7-3-8-5.1-16.4-7.6-24.6-5.3-17.2-10.5-34.4-16.4-51.3-5.5-16-12.9-31-17.1-47.5-4.3-17-8-34.1-12.7-51a239.38 239.38 0 0 1-5.9-24.7c-1.4-8.6-1.9-17.4-2.5-26.1-1.3-17.3-5-34.2-7.7-51.3-2.8-17.5-5-35-6.7-52.6s-2.3-35.5-4-53.2c-.9-8.5-2.5-16.8-2.4-25.3a114.16 114.16 0 0 0-.1-11.7c-.5-4.3-1.7-8.6-1.9-12.9-.4-8.1 1.9-16.6 2.7-24.7.8-8.6 1.7-17.2 3.8-25.6 3.9-16 10.6-31.2 16-46.8 5.4-15.8 15.3-29.7 22.2-44.9a165.59 165.59 0 0 0 7.7-20.7c.7-2.5 1-3.9 3.7-4.3 3.6-.4 7.1 2 10.8 2.2 11.7.6 23.7-9.6 30.5-18 4.2-5.2 6.8-11.2 9.4-17.3 3.1-7.5 6.5-14.8 9.4-22.3 5.6-14.6 9.5-29 10.1-44.6.2-4.5.3-11-3.2-14.5-2.6-2.6-6.1-2-8.7.3-5.6 5.1-9.3 14.9-12.1 21.7-3 7.3-4.9 15-6.8 22.6a130 130 0 0 1-7.9 21.9c-2.7 6.3-7.6 11.5-9 18.3l6.8.9c.6-4.6 3.3-8.7 5.1-12.8 2.1-4.8 3.6-9.9 5.3-14.8 3.3-9.9 7.2-19.5 10.6-29.4 2.9-8.4 7-16.1 7.6-25 .3-4.5 1.3-16.5-6.2-15-4.8.9-7 7.3-8.5 11.2-2.7 6.9-5 13.9-9.1 20.3-5.3 8.2-11.5 15.8-16.8 24s-9.3 17.2-14.2 25.7c-2.3 3.8-5.5 7.4-7.1 11.5s-1.4 8.6-1.2 12.9c.2 5.9 2.3 14.4 8.7 16.5 2.1.7 3.5-2.7 1.5-3.6zm-59.9 30.6a7.8 7.8 0 0 0-9.3-2.5c-3 1.3-4.9 4.6-3.3 7.7 2 3.8 7.9 5.3 11.7 4.1 4.5-1.4 6.5-6.1 8.6-9.9a3.57 3.57 0 0 0-1.3-4.8c-4.4-3.2-11.2-4-16.4-2.3a10.19 10.19 0 0 0-6.3 14.5 8.74 8.74 0 0 0 16.4-1.4c1-3.2.3-7-2.9-8.6-3.8-1.9-7.5.8-9.2 4.1-1.5 2.9.4 5.7 3.4 6s5.2-1.3 6.8-3.8c2.8-4.3-3.8-7.9-6.8-3.9v-.2c1.1 2 2.3 4 3.4 6 .9-.9.6-1.4-.8-1.6-.9-1-1.3-1.1-1.4-.3-.3.1-.3 1.3-.9 1.4s-1.1-.8-1.3-1.3a2.38 2.38 0 0 1 1.4-3.4c3.2-1.5 8.1-.7 11.1 1.1-.4-1.6-.8-3.2-1.3-4.8-1.6 3.3-2.8 8.6-7.5 7.4-1.4-.4-2.9-.6-1.7-1.5 1.6-1.3 3.8-.7 5.2.5 1.8 1 3.7-.9 2.4-2.5zm-7 33.1v1.2c1.1-.5 2.3-.9 3.4-1.4-1.6-1.9-3.9-2-6.2-2.6.5 1.3 1 2.5 1.5 3.8a8.79 8.79 0 0 1 .6-1 18.26 18.26 0 0 0-1.6 1.3c2.2-.7 4.4-3.8 5-6.1a3.35 3.35 0 0 0-3.2-4.2 6 6 0 0 0-4.9 1.7 6.12 6.12 0 0 0-1 5.7 3.7 3.7 0 0 0 5.3 2.2 7.65 7.65 0 0 0 3.7-5.2 3.89 3.89 0 0 0-1.4-4 4 4 0 0 0-4.2-.3 9.67 9.67 0 0 0-4.9 8.4c.1 3.3 4.2 5.2 6.6 2.7.5-.5 1-1 1.5-1.6 2.8-2.9-.8-7.4-4.3-5.5-.6.3-1.3.7-1.9 1 1.9 1.5 3.8 2.9 5.7 4.4l.3-1.2s.4-1.1.2-.7c0-.1.5-1.1.3-.6l.3-.3c-.3.2-.2.2.1-.1l-5.7-3.3c.1-.6-.3.5.1-.2l-.2.2a2.65 2.65 0 0 1-.6.5c1.9.2 3.8.5 5.7.7.2.3 0 .1 0-.1a2.88 2.88 0 0 1-.3 1.6c-.1.2-.4.3-.5.5s.3 0 .1 0l-3.3-3.3c.1-.6-.1.1-.3.3a8.65 8.65 0 0 1-.7 1 4.45 4.45 0 0 0-.9 3.7v-1.5c-.1.4-.2.7-.3 1.2a2.54 2.54 0 0 0 2.5 3.2c1.2 0 3.1-.5 4.1.3a2 2 0 0 0 3.3-1.9 5.16 5.16 0 0 1-.2-1.1c-.4-2-3.8-1.5-3.7.6z"/><path class="cls-1" d="M1798.3 451c-2.2 5.3-11 13.6-4.8 19.2 2.7 2.4 6.6 1.9 9.3-.1 3.3-2.5 3.8-6.2 2.2-9.8a3.9 3.9 0 0 0-4.3-1.8 9 9 0 0 0-6.4 9.4 4.17 4.17 0 0 0 3 3.9c9 2 10.9-10.6 8.5-16.8a4.39 4.39 0 0 0-5.1-2.9c-3.5.5-7.2 3.1-8 6.8-.7 3.3 1.9 6.3 4.8 7.5 5.6 2.3 12.8-2 10.6-8.5-1-2.9-4.9-4.5-7.2-1.9s-3.4 5.8-2 9.2a4.5 4.5 0 0 0 4.2 3.2c4.9-.1 7.9-3.5 7.6-8.4-.3-5.6-9.2-5.7-8.8 0 .1 2.2.4-.3 1.2-.3 1.3.7 2.5 1.4 3.8 2.2.1.1.1.2.2.3-2.4-.6-4.8-1.3-7.2-1.9.5 1.4.3-1.4 1.1-1.7-.7.2 6.5 5.5.4 2.1a7 7 0 0 1 1.8-.5c-1.7-1-3.4-1.9-5.1-2.9a9.43 9.43 0 0 1 .6 4.4 16.59 16.59 0 0 1-.3 2.2c0 1.7-.5-.2 1.4.2l3 3.9c0-.4-.2-1.8.4-2.1-1.4-.6-2.9-1.2-4.3-1.8.2.4-.6.9-.8.7.2.2.7-1.8.8-2.3 1.2-3.4 3.7-6.8 3.6-10.5-.5-1.8-3.4-3-4.2-1zm23.5-26.3c-1 1.9-2.4 3.9-2.3 6.1.1 2.5 2.1 4.5 4.1 5.9v-5.6c-5.2 3.4-5.6 10.4.2 13.5 3.6 1.9 6.8-1.8 5.3-5.3-1.1-2.5-3.4-3.7-5.8-4.5-3.6-1.2-6 3-4.6 6 1.2 2.4 3.4 3.7 5.9 4.5 2.3.7 4.4-.9 5.2-2.9 1.2-3.3-.5-5.7-2-8.6-2.6-4.9-10.3-.5-7.5 4.4.3.4 1.3 2.2 1.4 2 1.7-1 3.5-2 5.2-2.9-.3-.1-1-.2-1.1-.5-1.5 2-3.1 4-4.6 6 .6.1 1.1.1 1.3.6l5.3-5.3c-1.4-.6-1.5-.6-.2-1.7a3.28 3.28 0 0 0-.7-5.1c-.7-.3-1.6-.6-1.8-1.1s.9-2.3 1.1-2.8c1.3-3-2.8-5.6-4.4-2.7zm19.6 44c-.1.7-.1.8.1.6h4.3c-1.9-1.6-3.3-3.5-5.1-5.2a3.53 3.53 0 0 0-5.8 1.5c-1.3 3.8-.7 7.9-.8 11.8-.2 4.2 6.8 5.3 7.5 1a11.15 11.15 0 0 0-.5-6c-.4-.9-1.4-2.7-1.3-3.4 1.3-5.1-6.7-7.2-7.8-2.2a9.52 9.52 0 0 0 .7 6.2c.6 1.5 1.5 2.7 1.4 4.4h7.7c-.1-3.3-.8-6.7-.2-10l-5.1 2.1c2 1.3 3.6 3.2 5.6 4.5 1.5 1 4.1.1 4.4-1.8a9 9 0 0 0-.1-4.9c-.9-3.3-5.6-1.9-5 1.4zm0-24.7c-.4 3.2 2.5 7.5 6.1 5.4a5.22 5.22 0 0 0 2.1-5.9 6.77 6.77 0 0 0-4.4-4.6c-2.9-.8-5.6.6-7.6 2.6a3.54 3.54 0 0 0 .4 5.3 3.49 3.49 0 0 0 5.2-1c.5-.7-.3.2.2-.3l.6-.6c-.6.5 0 .1.1 0-.6.4-.3.1 0 0-.9.1-.3 0-.1.1-.9-.1-.4-.1-.1 0-.9-.4-.3-.1-.1 0s.2.1-.2-.2l.2.2c0 .1.5.6.2.2s.1.1.1.2-.1-.7 0-.1c0 .1.1.7.1.2-.1-.8 0 .6 0-.1v-.1c-.1.2-.1.2 0-.1 0 0 .2-.4.2-.3s-.1.1.3-.2c-.3.1-.2.1.2 0l2.1.3c-.2-.1-.2-.3-.2-.1s-.2-.2-.1-.1-.1-.3-.1-.2v-.6a2.6 2.6 0 1 0-5.2 0zm57.5 71.7c-.8-3.7-3.1-3.9-6-5.8-4.6-2.9-6.3-8.9-7.6-13.8-3.2-11.8-5.8-23.9-6-36.1-.1-5.5.5-10.5 2.9-15.5 2-4.3 4.6-8.3 6.5-12.6 2.2-5 2.3-10.7 4.7-15.5a19 19 0 0 0 2.1-5.6c.4-3.2-.5-6.3.4-9.4l-6.8.9c2.4 3.4 2.6 7.4 3 11.4.5 5.6 1.8 11.2 2.1 16.8a203 203 0 0 1 .1 30.2c-.9 10.7-3.5 21.2-4 31.9-.2 5-6.6 16.3 2.3 17.9 11 2 18-15.5 21.4-23.1 6.6-14.5 14.2-29.9 15.9-45.9 1-8.9-2.5-19.9-6.8-27.7-4.5-8.3-12.7-13.6-21.1-17.6-5.1-2.4-9.6 5.3-4.4 7.6s10.2 4.9 14.2 8.9 6 9.1 7.7 14.5c2.1 6.4 3 11.9 1.6 18.6a115.64 115.64 0 0 1-5.8 19c-3 7.6-6.2 15.3-9.8 22.7-1.5 3-7.3 16.9-12.1 15.4.8.6 1.5 1.2 2.3 1.8-.9-1.9 1-4.4 1.5-6.2a18.84 18.84 0 0 0 .7-5.8 106.74 106.74 0 0 1 1.8-14.8 183.07 183.07 0 0 0 2.5-28.6c0-9.3-.2-18.6-1.7-27.8-1.2-7.4-.6-16.5-5.1-22.9-1.8-2.5-5.9-2.4-6.8.9-.8 2.9-.5 5.4-.5 8.4-.1 3.2-1.6 5-2.7 7.9s-1.1 6.2-2 9.3a36.88 36.88 0 0 1-3 7.1c-4.9 9.7-8.7 17.7-8 28.8.8 12.2 3.8 24.4 7.5 36 1.3 4.1 2.9 8.4 5.6 11.8a11.48 11.48 0 0 0 4.4 3.8c2.6 1.3 5.6.6 7.1 3.9a1 1 0 0 0 1.9-.8z"/><path class="cls-1" d="M1900.8 514.2c.4-3.3-.6-5.7-3.5-7.3a1.51 1.51 0 0 0-1.8.2c-9.2 11.6-10.6 26.7-12.7 40.8-1.2 8.2-3 16.3-3.9 24.5-1 8.9-.6 17.9-.6 26.8s-.3 18 .3 27a122.37 122.37 0 0 0 4.9 24.8c4.9 16.9 9.1 34 14.3 50.9 2.8 9.2 5.9 18.2 9 27.3 2.1 6.1 3.9 12.7 8.5 17.5 3.5 3.6 8.6-1.7 5.5-5.5-3.5-4.2-4.7-10.1-6.5-15.1-2.6-7.5-5.1-15-7.5-22.6-5-15.7-8.6-31.7-13.4-47.5-2.2-7.3-4.6-14.6-6-22.2-1.6-8.5-1.5-17.3-1.6-25.9 0-8.4-.4-16.8-.4-25.1a177.48 177.48 0 0 1 2.3-25.2c2.4-16.6 2.3-33.4 10.2-48.7-.6.2-1.1.5-1.7.7 1 1.5 2 2.9 3 4.4-.1.9 1.5 1.1 1.6.2zm97.2-112.6c-3.5-.3-4.9-.3-5.5-3.8q-.6-4.2-.9-8.4a56.49 56.49 0 0 1 1.5-17.4 123 123 0 0 1 6.3-17.6c2.4-6.1 4.2-12.4 6.5-18.5 4.5-11.6 10.6-22.6 15.3-34.2 2.4-5.8 4.3-11.8 6.2-17.7 1-3 2.2-6 3.1-9.1.7-2.5.9-5.5 2.5-7.6-1.9-.2-3.8-.5-5.6-.7 2.4 5.4.1 11.6-.9 17.1s-1.8 11.2-3 16.7c-2.2 10.5-5.3 20.9-8.5 31.1s-7.4 20.2-10.9 30.4c-3.7 10.7-7 21.8-12.3 31.9-1.6 3 1.8 7.1 5 5 5.5-3.6 9.3-8.8 13.4-13.9s8.5-10 12.3-15.5c4.3-6.2 7.4-12.9 10.7-19.7 3-6.1 7-11.8 9.6-18.1 4.9-11.8 8.5-25.4 6.6-38.2-1.4-9.8-4.7-21.6-12.6-28.2-4-3.4-9.9 2.5-5.8 5.8 7 5.7 9.8 16.5 10.9 25.1a48 48 0 0 1-1.3 17.3c-1.5 6.2-3.1 12.6-6 18.3-2.7 5.4-6 10.4-8.6 15.9a132.43 132.43 0 0 1-8.9 16.6c-3.6 5.5-8 10.4-12.1 15.5-3.6 4.5-7 9.5-11.9 12.8l5 5c5.4-10.3 8.9-21.7 12.7-32.7 4-11.6 8.6-23 12.2-34.8a283.55 283.55 0 0 0 8.6-34.1c1.1-6.1 2.2-12.1 3.3-18.2.9-5.2.8-9.8-1.4-14.7-.9-1.9-4.3-2.4-5.6-.7-3 3.8-3.4 8.2-4.9 12.6-2.1 6.7-4.2 13.4-6.6 19.9-4.6 12.9-11.2 24.9-15.9 37.7-2.4 6.4-4 13.1-6.3 19.5s-4.8 12.8-6 19.6a54.09 54.09 0 0 0 3 30.3 1.07 1.07 0 0 0 .9.7 27.26 27.26 0 0 0 5.7-.3c.7 0 .7-.7.2-.7zm-8.5.7c-6.3 2.1-8.1 10-10.2 15.5-4.2 11-9.7 21.5-14.2 32.4-4.9 11.6-8.8 23.7-13.6 35.3a175.63 175.63 0 0 0-9.8 33.2 325.49 325.49 0 0 0-4.9 73.1c.9 23.7 3.6 47.9 10.4 70.7 3.4 11.4 8.2 22.5 10.7 34.2s3.9 23.6 6.1 35.3c4.6 24.8 7.7 49.2 8 74.5.3 25.6 0 51.2-1.5 76.7-1.3 23.9-3.2 48 4.1 71.1a333.67 333.67 0 0 1 9.9 40.6c2.5 13.9 3.5 28.1 5.4 42.1 1.7 12.3.5 24.6 1.7 36.8.6 6.2 1.6 17.1 9.3 18.6 5.8 1.1 8.3-7.7 2.4-8.9-2.8-.5-2.7-14.2-2.8-16.9a352.66 352.66 0 0 0-2.2-35.7c-3-23.6-5.4-47.3-12.5-70.1-3.4-10.9-6.8-21.2-7.8-32.7s-.5-23.1.1-34.6c1.3-23.9 2-47.7 2-71.6s-.8-47.2-4.7-70.7c-1.9-11.4-4.3-22.7-6.2-34.2s-3.4-22.8-6.9-33.9c-3.4-10.5-7.4-20.7-10.1-31.5a264.41 264.41 0 0 1-6.1-35.2 348.13 348.13 0 0 1-1-70.7 244.25 244.25 0 0 1 6.2-38.9c3.1-12.4 8.1-24.1 12.3-36.1 4.5-13 9.3-25.8 14.6-38.5 2-4.7 4-9.4 5.7-14.2 1.3-3.7 2.8-10.7 6.8-12.3 1.8-.8 1-4.1-1.2-3.4zm138.9-44.3c.9-18.9 5.2-38 3.5-57.1-.8-8.5-3.5-16.3-6.9-24-3.5-7.9-5.8-17.2-11-24.1-4.8-6.3-11.9-10-18.7-13.8a108.47 108.47 0 0 1-19.9-14.4c-6.1-5.5-13.7-10.1-18.9-16.5-5.8-7-8.2-16.6-12-24.7-.5 2.1-1.1 4.1-1.6 6.2 4.8-2.7 14 5 17.7 7.4 8.5 5.5 16.6 10.5 23.8 17.7 6.1 6.1 13.7 11.2 16.6 19.7 3.5 10.1 6.2 20.9 6.6 31.6.2 5.7 8.5 5.7 8.8 0 .6-11.9-3.1-25.3-7.5-36.2-4-9.9-13.1-16.6-20.6-23.8-7.9-7.6-17.5-12.9-26.6-18.8-6.6-4.3-15.6-9.9-23.5-5.5a4.55 4.55 0 0 0-1.6 6.2c3.8 8.2 6.2 17.3 11.6 24.6 4.6 6.2 11.2 10.2 17 15.3 6 5.2 11.8 10.6 18.5 14.9s14.4 7.1 20.4 12.3c6.4 5.5 8.2 14 11.6 21.3 4 8.6 8.3 16.8 9.3 26.4.9 8.8 0 17.7.1 26.6 0 9.6-1.4 19.2-1.5 28.8 0 2.9 4.6 2.9 4.8-.1zm24.5-90.9c-8.8-8.1-4.8-18.7-.8-28.2 4-9.3 7.9-18.3 14.2-26.3s12.9-16.2 20.1-23.7c7.1-7.3 14.7-14.2 21.6-21.7 3.6-4 6.9-8.2 10.2-12.4 2.9-3.7 6.3-7.3 8.1-11.7 1.9-4.7-1.1-9.4-6.3-9.7-9.4-.5-17.5 12.1-22.3 18.6-2.9 4-5.5 8.1-8.3 12.1-3.7 5.3-7.8 10.4-11 16-2 3.4-2.5 8.3-5.3 11-3.7 3.6 2 9.2 5.6 5.6 2.6-2.5 3.6-5.9 4.9-9.2 1.9-4.8 5.3-8.9 8.2-13.1l9.9-14.4c1.6-2.3 15.9-22.3 18.4-18.4-.1-1-.3-2-.4-2.9-1.9 6.6-8.5 13-12.7 18.2-4.8 5.9-10.2 11.4-15.5 16.8a352.21 352.21 0 0 0-27.7 32.1c-8.4 10.9-13.1 23-17.5 35.9-3.4 9.8-3.9 20.5 5 27.3 1.2 1 2.7-.9 1.6-1.9zm20.7 89.3c.6-3.5 3.9-5.8 5.6-8.8a48.57 48.57 0 0 0 4-10c2.8-8.6 2.1-17.2 2.5-26 .7-15.8 6.4-32.4 14.7-45.8a28.57 28.57 0 0 1 5.2-6.8c2.7-2.3 4-.9 5.2 2.2 2.5 6.6 3 15 2.6 21.9-1.2 18-5.2 36.7-15 52.2-4.7 7.5-12.1 12.7-19.9 16.5-6.9 3.4-13.7 6.9-16.7 14.4 2.8.4 5.6.8 8.4 1.1 1.3-15.4 11.8-27.8 19.7-40.3 4.3-6.8 6.9-14.1 9.6-21.6s5.7-15.3 5.1-23.5c-.4-5.7-9.4-5.7-8.9 0 .7 8.2-2.8 16.1-5.5 23.7a97.39 97.39 0 0 1-11.1 22.1c-8.1 12.3-16.2 24.5-17.4 39.6-.4 5.2 6.7 5.2 8.4 1.1 2.8-7.1 14.7-9.9 20.6-13.8a50.5 50.5 0 0 0 17.2-19.2c4.5-9 8.4-18.6 10.5-28.5s3.6-20.9 3-30.8c-.6-9.2-4.9-34.6-19.5-23.8-4.9 3.7-7.9 9.6-10.7 14.8-4.6 8.5-7.2 17.4-9.2 26.8-1.2 5.5-2.4 11-2.5 16.6-.1 6.1.6 12.3.2 18.4a51.27 51.27 0 0 1-3.8 16c-1.7 3.8-5 6.6-5.2 10.9a1.48 1.48 0 1 0 2.9.6zm204 246c-2.8-2.7-6.6-4.4-9.1-7.4-3.2-3.7-1-7.9 1.4-11.4 4.7-6.9 11-14.2 5.6-22.6-2.2-3.4-6-6-7.3-10-1.8-5.4-.2-12.3 1.3-17.5.8-3.1 1.1-8.4 3.3-10.8.9-1-.1-.7.5-.2a8 8 0 0 1 1.3 2.2 31.32 31.32 0 0 0 2.5 4.8 4 4 0 0 0 6.2.8c1.9-.8 2.2-1.3.6-1.6-.9-.6-1.2-.6-.7 0-.1.5.9 1.8 1.2 2.3a20.14 20.14 0 0 0 3.8 4.9c1.4 1.3 3.2 2 4.6 3.2 2.4 2 2.5 4.7 3.2 7.5 1.3 5.7 5 9.8 3.7 16-1 4.8-2.8 9.8-1.2 14.6 1.1 3.4 3.7 5.3 6.6 7.1 1.8 1.1 4 1.9 4.7 4.1.9 2.6-.8 5-2.8 6.6-4.6 3.8-9.4 1.8-14.7 1a28.2 28.2 0 0 0-8.7 0c-2.5.4-5.2 2-7.6 1.9-5.4-.2-5.4 8.2 0 8.4 3.6.2 6.5-1.8 10.1-2.1 4.1-.4 7.9.9 11.9 1.4a18.26 18.26 0 0 0 16.5-6.3c3.4-3.9 4.9-9.7 2.6-14.6a15.19 15.19 0 0 0-5.7-6.1c-1.8-1.2-4.5-1.9-5.4-4-1.3-3.1 1.1-8.3 1.6-11.4a21.3 21.3 0 0 0-.4-9.4c-1-3.2-2.8-6-3.7-9.3s-1.3-6.5-3.5-9.3c-1.8-2.2-4.2-3.2-6.3-5s-2.8-4.4-4.4-6.6c-3.6-4.7-8.1-2.1-11.8.9 2.1.3 4.2.5 6.2.8-2.6-3.5-3.3-8.4-7.4-10.6-4.6-2.4-8.9.8-10.9 4.9-2.3 4.7-3.5 10.7-4.5 15.8-1.2 6.1-2 13.4.5 19.3 1.9 4.5 8.6 8.4 9 13.2.5 5.4-6 10.9-8.3 15.4s-2.7 9.7.3 13.9 8.1 5.5 11.9 8.4c2.3 1.7 5.5-1.1 3.3-3.2z"/><path class="cls-1" d="M2382.7 575.3c.5.4 1 .9 1.5 1.3a1.71 1.71 0 0 0 1.9.5c3.1-1 5.1-3.9 3.9-7.1a2.48 2.48 0 0 0-2.9-1.7c-3.4 1.3-5.3 4.1-4.5 7.8.6 2.6 4 2.6 5.3.7 2.2-3.2 4-8.9-.2-11.3-4.9-2.7-9 2.7-10.7 6.6-.8 1.9-.4 4.1 1.7 5a3.57 3.57 0 0 0 4.8-2.3 1.44 1.44 0 0 0 .2-.7l.1-.3c.3-.6.6-1.1.9-1.7a4.3 4.3 0 0 1 .9-1c-.2.2.3 0-.1.1s-.4.1-.6 0c-.5-.1-.6-.7-.9-1 .3.5 0-.3 0 .1 0 .1-.1.8 0 .2a2.36 2.36 0 0 1-.2.8c-.1.4-.4 1.2-.4 1.3s-.3.7-.4.9-.4.9-.1.3c1.8.2 3.6.5 5.3.7-.4-1-.3-1.3.7-2-1.1-.3-2.2-.6-3.2-.8.5.8-.4 1.3-1.1 1.6h2c-.5-.4-1.1-.7-1.6-1.1-1.8-1-3.9 1.7-2.3 3.1zm.5 29.4c-7.4 4.8-7.7 14.9-8.8 22.8a364.24 364.24 0 0 0-3.4 39c-.8 28.4.1 56.8-2.1 85.1-1.1 13.9-3.1 27.7-3.9 41.6-.9 14.3-.8 28.6-1.7 42.9-.9 14.7-2.4 29.4-3.3 44.1-.9 14.4-1.5 28.9-2.6 43.3-2.5 32.1-6.6 65.6-1.3 97.6.8 4.6 8.5 3.6 8.2-1.1-.8-14.5-1.7-28.8-1.3-43.3.4-13.8 1.3-27.6 2.4-41.4 2.1-28.2 3.3-56.4 5.4-84.5 2-27.3 1.5-54.6 4.6-81.9s2.7-54.8 2.1-82.2c-.3-15.4-.7-30.8.5-46.1.5-5.9 1.2-11.8 1.7-17.7.5-5.5 1.1-11.9 5.5-15.9 1.1-1.1-.5-3.2-2-2.3zm-37.7-2.7c.1-3.4.1-6.9.4-10.3.3-3 1.2-5.8 1.6-8.7.6-3.9-.5-8.9-3.6-11.6-5.7-5-17.6-1.5-21.5 4.2h6c-1.7-2.6.4-5.8-2.6-8.1-2.6-2.1-5.7-.4-8.5-1.5-4.7-1.9-8.2-8.1-14.1-4.9-7.4 4.1-4.8 13.8-3.4 20.1 1.1 5.2-.1 10.7.2 16a40.15 40.15 0 0 0 3.2 12.8c1.7 4.1 3.9 8 5.5 12.1 1.6 4.4.6 7.4.9 11.8.4 7.4 8.3 10 14.6 8.6 4.2-.9 7.7-3.7 11.6-5.5s8.1-2.9 11.5-5.5c5.5-4.2 8.6-11.5 10.3-18.1 1.9-7.3 2.1-14.8-1.1-21.7-3.1-6.6-8.7-13.7-16.6-14-5.4-.2-5.2 7.8 0 8.3s9.7 8.7 10.8 13.3c1.4 6.3-.5 13.8-3.3 19.4a17.07 17.07 0 0 1-6.9 7.9c-3.1 1.7-6.5 2.6-9.6 4.1s-8 5.8-11.7 4.3c-3.2-1.3-1-6.3-1.4-9.3-1-7.7-6-14.3-8.5-21.5-3-8.5-.2-17.3-2.4-25.9-.5-2-3-10.1 0-10.5 1.4-.2 5 3.5 6.2 4.2a11.32 11.32 0 0 0 6.7 1.6c1.3.2 1.5-.1.9-.6a17.68 17.68 0 0 0 .1 2.3 8.32 8.32 0 0 0 1.4 3.8c1.5 2.1 4.6 2.4 6 0s4.8-3.2 7.4-3.6c4.3-.7 6.8 1.2 7 5.8.2 2.9-.9 5.8-1 8.6-.1 4 .5 8 .7 12 .3 2 3.1 2 3.2.1z"/><path class="cls-1" d="M2322.4 600.6a29.17 29.17 0 0 1-3.1-1.4 2 2 0 0 0-2.2.3c-3.2 2.6-2.9 6.8-.2 9.6a2.29 2.29 0 0 0 2.8.4c2.4-1.8 3.4-4.5 1.9-7.3a4.65 4.65 0 0 0-6.6-2c-4.2 2.2-4.4 7.8-4.2 11.9s6.9 4 6.4 0a22.66 22.66 0 0 1-.2-5.2c.1-.5.7-1.5.7-1.9 0 .2.3-.9-.1-.2-.4-.1-.4 0-.1.3 0 .3-.2.5-.5.7h3.3c-1.3-1.1-1.7-2.3-.5-3.7-.6.2-1.2.3-1.8.5a24.9 24.9 0 0 0 3.7.9 1.5 1.5 0 0 0 .7-2.9zm7.7 23.4c-1 24.2-8.2 47.4-11.1 71.4-1.4 12.2-1.8 24.6-2.6 36.8s-2.1 24.3-3.3 36.5c-2.3 24.2-5.5 48.3-7.6 72.4-2.1 24.3-1.4 48.6-2.6 72.9-.7 13.6-2.1 27.2-2.7 40.8s1.2 27.5 1.3 41.2c0 5.8 8.7 5.8 9 0 .5-11.9-1.2-23.7-1.4-35.5-.1-12.2 1.4-24.5 2.1-36.7 1.4-24.6.5-49.3 2.1-73.9 1.6-24.2 4.7-48.4 6.8-72.6s3.4-48.1 4.8-72.3c1.6-27.2 10-53.6 9.1-81.1-.1-2.4-3.8-2.4-3.9.1zm-72.1-46.9c9.8 1.3 5.4-13.5 1-17.1-6.8-5.4-22.4-2.8-20 8.1 1.8-1.1 3.7-2.1 5.5-3.2-4.6-5.8-10.6-2.9-13.3 2.9a35.16 35.16 0 0 0-2.7 9.6c-.4 2.9 1.1 6.6.2 9 .6-.7 1.1-1.4 1.7-2.2-5.9 2.5-7.2 9.5-6.2 15.4 1.1 6.5 5.4 11.1 10.1 15.3 2.6 2.2 5.2 4.4 7.6 6.8 2.1 2.1 3.7 4.7 6 6.5a13 13 0 0 0 6.7 2.9c3.4.3 6.6-2 9.8-1.5 2.7.4 5.4 2.1 8.1 2.8a27.63 27.63 0 0 0 10.3 1c5.4-.6 12.1-2.6 16.4-6 5.1-4.1 6.3-10 7.3-16.2 1.1-6.8-.3-12.1-5.2-16.8-4-3.8-7.5-7.9-12.7-10.1-5.6-2.4-10.9-.3-12.3 5.9-1.1 4.8 5.7 8.1 8.2 3.4 5-9.1-4.4-18.3-11.2-23.3-3.6-2.6-7.1-4.5-11.6-4.9a29.14 29.14 0 0 0-9.3.5c-3.4.8-6.1 3.2-9.4 3.9-5.4 1.1-3.1 9.5 2.3 8.3 4.4-.9 7.7-4 12.3-4.2a13.48 13.48 0 0 1 8.8 2.1c2.7 1.7 12.8 9 10.4 13 2.7 1.1 5.5 2.3 8.2 3.4-1.3-.2-1.5-.2-.7-.1a10.93 10.93 0 0 1 1.5.8 19.1 19.1 0 0 1 3.2 2.4c1.8 1.5 3.7 3 5.4 4.5 4.1 3.6 4.5 6.7 3.2 11.9-.7 2.6-1.1 7-3.1 8.9-2.2 2.1-6.3 2.9-9.2 3.6a21 21 0 0 1-11.9-.7c-2.8-.9-5.6-3-8.5-3.1-3.6-.2-6.4 3.6-10.1 2.4-2.9-.9-4.7-4.3-6.6-6.4-2.7-2.8-5.8-5.2-8.7-7.8-2.5-2.2-5.3-4.6-6.7-7.6-1-2.3-1.8-6.4-.6-8.8.9-1.8 2.5-1.8 3.6-3.3 2.4-3.5-.3-8.2.4-12.1a25.85 25.85 0 0 1 1.7-6.2c.3-.7.8-2.1 1.5-2.5.5-.3.3-.3-.4-.1a4.9 4.9 0 0 1 1.2 1.3c2.2 2.5 6.3-.2 5.5-3.2-1.2-4.6 8.3-4.4 10.9-2.9 2.8 1.7 7.3 11.1 1.9 11.5-1.9.1-1.9 2-.5 2.2z"/><path class="cls-1" d="M2264 596.1a4.51 4.51 0 0 0-4.5 3.4c-.5 2.4 1.3 4.3 3.5 4.9a2.7 2.7 0 0 0 3.2-1.8c1.4-4.6-3.2-9.9-7.9-9.5a3.21 3.21 0 0 0-3 2.3 18.72 18.72 0 0 0-.2 9.4 3.34 3.34 0 0 0 3.3 2.5c3.9.1 7.1-2.6 6-6.7-.6-2.4-2.2-4.3-3.3-6.4-1.9-3.7-7.7-1.1-6.6 2.8a19.86 19.86 0 0 0 2.5 4.5c.2.3.4.7.6 1s-.1-.5 0-.1.1.1.1.1-.1-.1 0-.3a2.75 2.75 0 0 1 .8-1.5c.1-.1.2-.2.3-.2h-.4c1.1.8 2.2 1.7 3.3 2.5a13.39 13.39 0 0 1-.4-6l-2.2 2.2c-.4.1.2 0 .5.2a2.41 2.41 0 0 1 .8.6 2 2 0 0 1 .7 1.9l2.6-2.6a5.91 5.91 0 0 1 .4.6c.3.4-.5.3.4 0 2-.7 1.8-4-.5-3.8zm-18.1 17.9c-.3 2.4-3.2 4.1-4.6 5.8a30.27 30.27 0 0 0-3.1 4.8 83.54 83.54 0 0 0-5 12.5c-3.5 10-8.6 19.6-11.7 29.7-3.3 10.9-4.4 22.1-6.1 33.3s-3.2 22.6-4.5 34c-5.2 46.1-6.9 92.6-7 139 0 12.8-.4 25.6-.3 38.4s1.9 25.7 2.2 38.5c.1 5.4 8.1 5.4 8.4 0 .6-11.3-1.8-22.5-2.1-33.8-.3-11.5-.1-23-.1-34.6 0-23.3-.1-46.6.7-69.9.8-23 2.1-46 4.2-68.9 1.1-11.7 2.5-23.4 4-35.1s2.4-23.5 5-34.9c2.7-11.6 8.3-22.3 11.8-33.7 1.6-5.3 3.1-11.2 6.4-15.8 2.4-3.3 5.5-5 5.9-9.4.4-2.6-3.8-2.5-4.1.1zm207.4 64.7c-4.7-4.4-7.5-10.2-11.9-14.8a40.27 40.27 0 0 0-6.1-4.8c-3.8-2.7-4.1-5.8-4.4-10.2-.4-6.5-1.6-12.3-.2-18.8a39.41 39.41 0 0 1 1.9-7.7c1.4-3 3.7-5.5 5.1-8.5-1.1.6-2.1 1.2-3.2 1.8 2-.1 5 5.3 6 6.7a48 48 0 0 0 6.1 6.7c7.1 6.9 11.5 15.9 11.5 25.9a52.86 52.86 0 0 1-3.6 17.9 39.22 39.22 0 0 1-3.2 6.5 12.74 12.74 0 0 0-1.5 2.5c-.2-.7 2.7 1.1.9-.5-2.7-2.3-7-.2-6.1 3.5.9 3.5 3.9 6.1 7.7 5.2 3.2-.7 5.5-3.9 6.9-6.7a73.07 73.07 0 0 0 6.3-22 43.36 43.36 0 0 0-11-35.2c-3.6-3.9-7-7.2-10.2-11.4-2.4-3.1-5.4-6.8-9.7-6.6-1.2.1-2.7.6-3.2 1.8-1.5 3.4-4.1 6.1-5.5 9.5-1.3 3.1-1.6 6.9-2 10.2-1 7.1.5 13.6 1.2 20.6s3.2 10.3 9 13.8c7.1 4.3 10.6 11.8 16.8 17 1.6 1.6 4.1-.8 2.4-2.4z"/><path class="cls-1" d="M2436.3 644.5a4.1 4.1 0 0 0 2.2 3.2 4.48 4.48 0 0 0 3.9-.4 2 2 0 0 0 .9-2.1c-.7-1.6-1.5-3.2-3.2-4a5.28 5.28 0 0 0-5.6 1.1c-2.3 1.9 1.3 5.6 3.3 3.3.1-.1.4-.5.5-.5s.2-.1.4 0a3 3 0 0 1 1.2 1.5 23.32 23.32 0 0 1 .7-2.5l-.6.3c-.2.1-.1-.1 0 0s.1.1.1 0c0-.3-.2-.6-.2-.9a1.87 1.87 0 0 0-3.6 1zm17.5 41.5c-1.2 37.2-4.5 74.7-13.3 111-2 8.3-5 16.3-7.9 24.4s-5.2 16.4-7.5 24.8a372.07 372.07 0 0 0-11 53.2c-1.4 10.1-2.3 20.3-3.5 30.4-1.1 8.7-3.8 17.3-3 26.2.5 5.7 9.6 5.7 9 0-.8-7.8 1.3-15.3 2.4-22.9 1.3-8.8 1.8-17.8 2.9-26.7a386.16 386.16 0 0 1 10.2-54.4c2.2-8.4 4.3-16.8 7-25s5.8-16.1 7.9-24.4c4.5-17.5 7.1-35.6 8.9-53.5a492.39 492.39 0 0 0 2.3-63.1 2.2 2.2 0 0 0-4.4 0zm49.2-33c-1.3 1.7-1.6 3.2-3.9 2.1-1.2-.6-2.3-2.5-3.1-3.5a25.09 25.09 0 0 1-5.3-12.8c-.5-3.9-.7-7.9-1.4-11.8-1-5.6-2.7-11.3-1.8-17a97.86 97.86 0 0 0 1.7-12.1c.3-6.1 1.3-11.1 4.4-16.4 4.5-7.7 7.8-15.5 11.3-23.6 1.6-3.8 3.4-7.6 5.4-11.3 1.6-2.8 4.2-8.4 7.2-9.9 5-2.5 1.5 11.3.9 13.6-.9 3.5-2.1 7.1-2.4 10.7-.2 4 1.5 6.9 2.5 10.6 2.5 8.9-4.5 19.6-8.2 27.4-4.7 10-9.8 19.7-15.3 29.3a123.45 123.45 0 0 0-6.2 12c-1.6 3.8-2.9 8.1-5.7 11.1-3.4 3.6 2 9.1 5.5 5.5 2.9-3 4.5-6.7 6.1-10.5a124.66 124.66 0 0 1 7-14.2c6-10.4 11.4-21 16.5-31.9 4-8.6 10.4-19.4 8-29.3-.6-2.4-1.9-4.6-2.5-7-.6-2.6 0-5 .6-7.6.9-3.7 1.9-7.3 2.5-11 1-5.9 1.3-14.1-5.8-16.2-8.1-2.4-13.7 8.1-16.8 13.8-5.3 9.9-8 21-13.5 30.8-2.5 4.3-5.3 8.5-6.5 13.4-1.5 6.1-.7 12.5-1.9 18.7a40 40 0 0 0 .6 17.2c1.4 6.1 2.1 12.3 3.5 18.5s7.4 18.3 15.1 18a1.6 1.6 0 0 0 1.4-.8c.7-1.4 1.5-2.6 2.3-3.9 1-1.5-1.2-3.3-2.2-1.9z"/><path class="cls-1" d="M2499.9 598.5c1.2-5.3 5.9-8.8 6.3-14.5.2-2.9-4.3-2.9-4.5 0-.3 4.9-4.9 8.5-5.7 13.5-.3 2.4 3.3 3.6 3.9 1z"/><path class="cls-1" d="M2506 580c-.1-.7-.1-1.3-.2-2a1.94 1.94 0 0 0-1.8-1.8 1.86 1.86 0 0 0-1.8 1.8c-.1.7-.1 1.3-.2 2a2.07 2.07 0 0 0 2 2c1-.1 2.1-.9 2-2zm-9.3 62.7a24.62 24.62 0 0 0-6.2 11c-.7 2.9-.5 5.8-1.2 8.7-.7 3.1-2.2 6.1-3.4 9-5.2 12.9-8.1 27.1-11.2 40.6-3.3 14.4-6 29-8.1 43.7-2 13.4-5.5 26.4-6.9 39.8-3 28.9-8.5 57.5-10.9 86.5-1.2 14.9-1 29.8-1.5 44.6s-3.2 29-5.6 43.5c-2.6 15.9-4.5 31.9-6 48-.8 8.2-1.4 16.4-2 24.7-.6 7.1-2.7 14-1.9 21.2.6 5.3 8.8 5.5 8.5 0-.4-6.1 1.1-12 1.8-18 .8-6.7.9-13.5 1.5-20.2 1.3-14.6 2.7-29.1 4.7-43.5 2-14 5.2-27.9 6.4-42s.8-28.4 1.2-42.6c.8-28.7 6.5-56.6 9.7-85.1.7-6.3 1.2-12.6 1.8-18.9a225.73 225.73 0 0 1 4-23c2.7-13.5 4-27.2 6.5-40.8 2.9-15.5 6.2-31 10.1-46.3 1.7-6.7 4.8-13.2 6-20a75.42 75.42 0 0 0 .6-8.2 17.26 17.26 0 0 1 4.5-10.3 1.7 1.7 0 1 0-2.4-2.4zm-1456.3 375c-3.6-4.9-3.8-11.9-5.1-17.7-1.7-8-3.2-16-4.6-24.1-2.7-15.2-5.2-30.5-7.6-45.7-2.5-15.6-3.4-31.2-5.6-46.8-2.2-15.2-6.6-29.9-8.3-45.3a778.4 778.4 0 0 0-14.8-89.6c-6.8-30.3-15-60.4-21.7-90.7s-12.6-60.8-17.6-91.5c-5.1-31.3-10.5-62.6-14.6-94.1-1.8-14-3.9-27.2-9-40.5-2.4-6.2-5-12.4-6.8-18.9a163.35 163.35 0 0 1-4.3-25c-3.3-30.3-5.8-60.8-8.8-91.1-1.8-17.4-3.3-34.7-1.8-52.2 1.4-16.7 3.1-33.3 4.5-50 .7-7.7 1.7-15.4 4.2-22.7 2.7-8 7.2-15 9.2-23.3 1.9-8.1 3.6-16.2 5.2-24.4.7-3.8 1.9-7.6 2.3-11.5s-.3-7.9.4-11.7c-1.3.8-2.7 1.5-4 2.3 5.2 1 6.8 13.6 7.8 17.8a205.45 205.45 0 0 0 10.2 31.4c4.3 10.9 7.3 21.4 7.3 33.2 0 5.6 0 11.3-1.1 16.9-1.3 6.4-4.3 12.2-7.5 17.8-2.6 4.6-4.6 9.6-7.4 14.1s-6.2 8.1-8.5 12.9c-2.3 4.6-16.2 24.3-21.9 17.1-6.7-8.6-1.6-19.7 3.5-27.4a105.41 105.41 0 0 0 13.5-29.3c1.7-5.7 4.8-10.7 6.4-16.4 1.7-6.1 2.1-12.8 3.1-19.1 1.8-10.9 2.6-22.6-1.2-33.1-1.6-4.2-8.4-2.4-6.8 1.9 4.6 12.3 1.6 24.8-.1 37.4-.9 6.5-1.9 12.2-4.5 18.2s-4.1 12.2-6.5 18.3a98.87 98.87 0 0 1-9.5 17.9c-3 4.6-6.1 9.1-7.3 14.5-1.8 7.7-.3 19.9 7.2 24.5 8.8 5.4 19.7-6.4 24.7-12.5 3.3-4.1 5.2-8.9 7.9-13.3 1.5-2.4 3.6-4.4 5.2-6.8a60.71 60.71 0 0 0 4.8-9.1c2.8-5.8 6.4-11.1 8.9-17.1a58.2 58.2 0 0 0 3.9-18.4 92.78 92.78 0 0 0-5.3-38.4c-4.7-12.8-9.6-25.1-12.7-38.5-1.6-6.6-4-19.2-12.1-20.8-1.6-.3-3.7.4-4 2.3a56.24 56.24 0 0 0-.3 9.2c0 3.7-.9 7-1.6 10.5-1.7 8.1-3.1 16.2-4.9 24.3-3.1 14-10.8 26-13 40.3-2.1 13.8-2.1 27.8-3.6 41.7-1.8 16.2-3.3 32.2-2.2 48.5 2 30.6 5.8 61.2 8.9 91.7 1.5 15.2 2.4 30.6 5.9 45.5 3.2 14 10.3 26.6 13.5 40.6 3.3 14.7 4.3 30.1 6.6 44.9 2.5 16.2 5.3 32.3 7.9 48.4 4.9 30.7 10.1 61.3 16.5 91.8 13.1 62.2 33.2 123.4 40.6 186.7a375 375 0 0 0 8.3 48.3c4.2 16.7 4.8 33.9 7.7 50.8 2.9 17.1 6.1 34.1 9.3 51.1 1.7 9 3.5 17.9 5.6 26.8 1.3 5.9 1.7 12.9 5.4 17.9-.2.6.6.1.2-.5z"/><path class="cls-1" d="M920.3 417.7c-3.2-3.4-4.1-8-7.5-11.2a97.63 97.63 0 0 0-9.8-8.3c-3.5-2.6-14.6-8.2-16.6-.7-1.9 6.9 9.4 11.4 13.9 13.4a85.75 85.75 0 0 1 12.3 6.6c4.3 2.9 4.6 7.9 8.2 11.3a2.37 2.37 0 0 0 3.7-.5 14.83 14.83 0 0 0 1.7-8.3 40.58 40.58 0 0 1 1.8-12c2.2-8.4 4.3-16.9 6.8-25.2 2.1-6.9 6.2-13.3 12.4-17.3s15.6-5.3 18.5 3.3c5.6 16.3-11 30.5-21.5 40.2-5 4.6-10.2 8.1-15.7 12-3.9 2.8-7.6 6-8.1 11.1-.4 4.4 6.6 4.4 6.9 0 .3-4.2 8.1-7.7 11.1-9.8 5.5-3.8 10.2-8.8 15-13.4 9-8.7 18.5-19 18.9-32.3.4-11.1-6.2-20.8-18.1-19.1-10.6 1.5-19 10.3-23 19.9-3.3 7.9-5.2 16.8-7.1 25.2-.9 3.9-2.1 7.7-2.6 11.6s.7 8.2-1.2 11.8c1.2-.2 2.5-.3 3.7-.5-2.3-2.1-2.8-5.3-4.6-7.8a19.82 19.82 0 0 0-5.9-4.9c-5.7-3.4-11.9-5.5-17.6-8.7-1.2-.7-5-2.6-5-4.2 0-2.5 4.3-1.6 5.4-1.2 3.4 1.1 6.4 3.4 9.2 5.4 3.1 2.3 6.6 4.4 8.9 7.6 1.7 2.4 2.8 4.8 5.1 6.8.6.3 1.3-.4.8-.8zm118.1 423.9c-4.4-5.5-2.9-11.3-4.3-17.6-1.4-6.5-2.7-12.8-3.5-19.4-1.8-13.4-3-26.8-4-40.3-1.9-25.9-4.6-51.8-4.8-77.8-.1-13.8.2-27.6.3-41.3.1-13-.1-26 .8-39.1 1.7-26.5 6.7-52.6 11.2-78.7 4.3-25.1 8-50.9 16.4-75.1 4-11.5 8.8-22.6 12.6-34.1 1.9-5.7 3-11.5 4.8-17.3s4.1-11.5 5.4-17.5c2.7-12.6 5.2-24.7 9.9-36.7 4.5-11.3 9.4-22.3 13.1-33.9a129.39 129.39 0 0 0 4.4-17.6c.9-5.5.2-10.9 1.6-16.4 1.4-5.3 1.3-10.1 1.1-15.5-.2-7 1-13.7 2.5-20.5 2.9-13.2 3.2-27.3 10-39.4 3.4-6.1 7.7-11.7 11.2-17.7 3.1-5.2 7.1-9.2 10.7-13.8 4.1-5.3 7-11.5 10.9-17 4.1-5.8 8.3-11.4 12.5-17 3.9-5.2 8.3-9.7 12.7-14.5 2.8-3 6.7-11.1 11.2-10.7-1.1-.6-2.1-1.2-3.2-1.8 2.5 4.3-.2 11-1.6 15.3-1.8 5.3-3.8 10.5-5.3 15.9a117.8 117.8 0 0 1-17.7 38.2c-7.2 10.3-15.1 20.7-24.9 28.7a134 134 0 0 1-16.6 11.2c-2.8 1.7-5.8 2.9-8.5 4.6s-4.9 3.6-8.1 4.1a3.69 3.69 0 0 0-2.5 2.5 10.25 10.25 0 0 0-.2 5.5c.8 4.4 7.2 2.5 6.6-1.8.1-.6.3-1.2.4-1.8-1.1.9-2.3 1.7-3.4 2.6 6.3-.7 11.8-5.1 17.2-8.1a142.24 142.24 0 0 0 18-11.7c11.3-8.7 20.2-20.4 28.3-32 9.1-13 14.7-26.5 18.9-41.7 2.7-9.7 11.2-23.7 6.4-33.8-2.3-4.8-8.4-3.7-11.8-.7a32.34 32.34 0 0 0-4.6 5.9 79.66 79.66 0 0 1-7.3 8.1 160.68 160.68 0 0 0-14.2 17.6c-4.9 6.6-10 13.1-14.1 20.1a71.23 71.23 0 0 1-6 9.4 98.6 98.6 0 0 0-6.6 7.9c-4.5 6.1-8.3 13-12.4 19.4-8.7 13.9-9.4 29.2-12.8 44.8-1.7 7.7-2.9 15.3-2.5 23.2.2 3.9.5 7.6-.4 11.4-.8 3.4-1.7 6.5-1.7 10.1-.2 16.3-5.8 31.8-11.7 46.9-2.9 7.3-6 14.6-8.5 22.1-2.7 8-4.1 16.2-5.8 24.5-1.6 7.9-4.6 15.1-6.6 22.9a233 233 0 0 1-6.7 22.6c-5.6 15.6-11.8 30.7-15.6 46.9-3.8 16.5-6.8 33.2-9.6 50-5.6 33.3-12.1 66.4-12.5 100.3-.5 35-1.3 70.2 2.1 105 3.2 33 4.5 66.4 12.7 98.6.9 3.4.2 6.8 1.1 10.1a18.23 18.23 0 0 0 4 7c.7.3 1.5-.5 1-1.1z"/><path class="cls-1" d="M1100.4 240c.2-2.4-.2-4.9 3.2-4.1 2.1.5 3.9 2 5.8 3a34.1 34.1 0 0 0 11.7 3.3c8 1.1 17.5 1.7 25.3-1.1 7.6-2.7 14-7.8 20-12.9s12.6-10.6 16.8-17.6c9.3-15.3 7.1-36.4 6.9-53.5-.1-9.1 1.5-19-.2-28-.9-4.4-3.5-8.4-3.7-13-.1-4.1 1.5-8.2 1.9-12.2.5-4.6-7.3-5.6-8.1-1.1-.7 3.9-1.9 7.8-2.2 11.8-.2 4.3 1.2 8.1 2.6 12.2 3.1 9 1.4 19.2 1.6 28.6.4 17.9 4.2 41.1-7.9 56.1a113.84 113.84 0 0 1-18.2 17.2 44.45 44.45 0 0 1-12.6 7.4c-4.5 1.6-9.6 1.5-14.4 1.6-5.1.1-10.5-.1-15.4-1.6-3.2-1-6.1-3-9.5-3.4-5.5-.6-4.8 3-4.3 7.3a.35.35 0 0 0 .7 0zm-67.7 252.2c1-5.4-3-10.1-6.1-14.1-4.7-6-7.5-12.2-10.4-19.2-.6-1.5-2-3.5-1.9-5.2.4-4.3 4.1-.3 4.9 1.9 1.1 3 1.6 6.2 2.9 9.2 2.3 5.7 5.2 11.9 9.7 16.2 4.9 4.7 10.6 3.9 16.4 1.6 2.6-1.1 12.9-6.7 15.7-3.5 4 4.7-10 7.5-12.3 8.1-3.3.8-6.4 2.3-9.7 3.1-5.1 1.3-8.1-.4-12.9-1.4-4.1-.9-5.8 5.6-1.7 6.3 3.2.6 6.2 2 9.5 2.1 4.4.1 8.5-1.8 12.6-3.4 4.7-1.8 9.9-2.5 14.4-5 3.8-2 6.6-5.4 5.5-10s-5.3-6-9.6-5.4c-6 .8-11 4.5-16.8 5.9-8.8 2.2-13.6-9.6-16.3-16.2-2-4.7-2.2-12.4-7.2-15-3.6-1.9-8.2-.8-8.9 3.5-.5 2.9 1.2 5.8 2.4 8.4a94 94 0 0 0 5.3 11.1 72.13 72.13 0 0 0 6.6 8.8c2.8 3.3 7 7.3 6.7 11.9-.2.9 1 1 1.2.3zm32.1-109.5c-4.4-2-8-7.7-10.9-11.4-3.3-4.2-6.6-8.9-7.8-14.2-.7-3.1 0-6.4 3.5-4.3a23.79 23.79 0 0 1 5.2 5.3c3.3 4.1 5.4 8.7 7.6 13.4 2.5 5.5 6.2 10.8 12.4 12.3a20.85 20.85 0 0 0 9.3-.4c2.8-.7 7-3.4 9.8-2.7 4.8 1.1 3.1 6.7-.2 8.4-2.5 1.3-5.7 1.6-8.5 1.9-7.2.7-14.1-1.7-18.8-7.3-2.6-3.1-7.2 1.4-4.5 4.5 8.2 9.5 25 12.3 35.7 5.3a10.58 10.58 0 0 0 3.9-13.3c-2.6-5.2-8.4-5.8-13.1-3.7-4.2 1.8-10.2 3.8-14.5 1.5-4.1-2.2-6.1-6.9-7.9-10.9a55.29 55.29 0 0 0-8.3-13.2c-2.5-3-6.5-7.3-10.9-6.6-4.6.8-5.7 5.9-4.9 9.8 1.2 6 5 11.4 8.9 16.1 3.5 4.3 7.6 10.3 13.1 12.2 1.3.6 2.4-2 .9-2.7zm124.1 425.1c-1.9-5.2-2-10.4-2.4-15.8-.4-5.1-1-9.9-.7-15 .4-10.1 1.7-20.1 2.3-30.2 1.3-20.5 2.5-41.3 7.1-61.4 4.4-19.6 12.2-38.3 18.1-57.5 2.8-9.2 6.3-18.2 8.9-27.5s4.7-19 7.8-28.3c6.3-19.1 9.9-39 13-58.9 1.6-10 3-20 4.4-30.1 1.3-9.5 3.6-19.3 3.6-28.9a77.42 77.42 0 0 1 .9-14.4 69.77 69.77 0 0 0 1.4-12.9 119.14 119.14 0 0 0-2.3-25.3c-1.7-8.5-5.1-16-9.1-23.7-4.6-8.9-6.6-18.5-8.6-28.3-2.2-11.1-4-21.7-1.7-33 1.1-5.1 3.1-9.9 4.2-15 1.3-5.8 2.3-11.7 3.4-17.5q6.75-33.45 10.5-67.5c-.9 1.1-1.7 2.3-2.6 3.4 2.5-.7 4.5 7.3 4.9 9 1.3 5.7.5 11.8.4 17.7h7c.1-5.8.5-11.5-.3-17.3-.6-3.9-3.8-10.4-.9-13.8-.8.3-1.7.7-2.5 1 4.4.4 6.1 8.6 6.9 12a121.73 121.73 0 0 1 3.4 19.9c1.5 17.1-2.4 32.8-5.5 49.5-1.5 8-3 16.2-6.9 23.4-3.8 6.9-7.8 13.3-10.7 20.7-2.8 7.1-4.5 13.6-4.6 21.2-.1 7.3-4.4 13.5-4.1 20.7.2 4.7 7.6 4.8 7.4 0-.1-3.8 1.5-7 2.7-10.5 1.3-3.9 1.4-7.7 1.5-11.7.2-8.6 3.5-16.9 7.3-24.6 3.6-7.4 8.6-13.8 11.1-21.8 2.7-8.4 3.8-17.2 5.5-25.9 1.7-8.3 3.6-16.5 4-25a123 123 0 0 0-1.8-26.4c-1.5-8.7-3.1-23.4-12.3-27.7-6.6-3.1-9.8 3.7-9.5 9.5.2 3.3 1.3 6.3 1.9 9.5 1 5.6.4 11.5.3 17.2 0 4.5 7 4.5 7 0 .1-8.4.9-16.5-2.2-24.5-2-5-5.7-10.8-12-9a3.76 3.76 0 0 0-2.6 3.4c-2.3 20.7-5.2 41.3-9.3 61.7-2 10-3.5 20.1-6.5 29.8a67.75 67.75 0 0 0-3 26.5c.8 9.3 3 18.6 5.2 27.6 2.3 9.4 6.5 17.2 10.6 25.9 4 8.3 5.8 17.6 6.7 26.7.8 9.4 0 18-1.3 27.4-.6 4.4-.3 8.6-.4 13-.1 5.7-1.2 11.3-2 17-1.4 10.1-2.7 20.2-4.2 30.3-2.9 19.9-5.9 39.9-11.3 59.3-5.3 19.1-10.7 38.1-16.6 57-5.9 19.1-12.7 38.1-17.7 57.4-5.5 21.5-7 43.9-8 65.9-.5 11.3-1.6 22.7-2 34-.2 5.7.5 11.2 1 16.9.5 5.3.9 10.4 2.9 15.4.9 1 2.7.6 2.3-.5zM3152.8 396v1.4h2.5c-.7-7.5-2-14.1-.6-21.7a62.88 62.88 0 0 1 7.1-19.7c6.7-11.7 16.5-21.2 26.2-30.4 10.4-9.9 20.3-20.4 29.8-31.2 4.6-5.2 9.1-10.5 13.3-16s8.5-11.2 14.2-15.4l-4.5-1.8c2.1 8.3.6 17.2 0 25.7-.8 11-1.7 21.9-3.2 32.8-1.3 9.1-3.6 18.1-4.8 27.2-.7 5.1-2 12.5.6 17.2 3.4 6 11.3 3.5 16.3 1.6 9-3.3 18.1-6.5 27.1-9.8 9.8-3.6 20-5.7 29.6-9.7a231.51 231.51 0 0 0 27-14.2c6.2-3.7 12.2-8.9 18.8-11.9 3.1-1.4 3.2.3 3.8 3.3a51.07 51.07 0 0 1 .6 9.6c0 18.9-11.4 33.5-20.5 49.1-2.4 4.2-4.6 8.5-6.7 12.8-2 4-5.3 8.2-6 12.7-1.2 7.4 6.6 11.6 11.2 15.9 13.9 13.1 24.2 29.4 35.9 44.3 11 14.1 24 27.3 40.5 34.9 8.4 3.8 17.5 5.6 26 9.1 3.1 1.3 7.1 2.1 10 3.8 4.8 2.8-1.5 7.4-4.4 8.9-6.6 3.4-14.3 4.8-21.5 6.5-10.2 2.5-20.3 1-30.7 1.2-5.3.1-10.5.5-15.8.4-5.6-.1-10.9-1.1-16.4-1.9-9.1-1.2-18.9-1.9-27.9.5-17.2 4.5-23.8 25.6-28 40.9-5.3 19-7.6 39.2-17.8 56.5-5 8.6-11.4 14.9-19.4 20.7-3.6 2.6-7.2 5.3-11.7 2.9-4.3-2.4-6.4-6.5-7.8-11.1-5.9-18.9-9-38.5-11.8-58-2.6-18.1-6-38.8-18.1-53.4-10.5-12.7-31.4-7.6-44.2-1.8-9.3 4.2-18.4 8.7-28.2 11.7-10.3 3.1-21.1 4.7-31.6 6.5-21.9 3.6-44 6.8-66 9.5-5.1.6-10.2 1.2-15.3 1.9-4.4.6-9.6 2.4-14 1.6.4 3.1.8 6.2 1.2 9.2 9.6-6.4 14.1-17.5 21-26.4 7.7-9.8 17.5-17.6 27.8-24.5a266.85 266.85 0 0 1 32.9-18.6c11.4-5.4 23.2-9.9 34-16.5 7.7-4.7 15.8-13.4 7.8-22-3.9-4.2-9.7-5.9-15-7.7-6.2-2.1-12.2-4.5-18.4-6.3-11.6-3.3-20.6-9.3-28.6-18.4a69.8 69.8 0 0 1-16-30.4 124.76 124.76 0 0 1-1.9-39.5c.8-7.3 2.8-14.5 4.2-21.7.8-4.1 1.3-11 5.1-13.5-1.2.2-2.5.3-3.7.5 3.8 1.3 5.8 5.8 8 8.9 3.1 4.1 6.9 7.4 10.6 11 8.1 7.7 14.3 16.9 23 24.1 7.8 6.4 17.2 10.6 24.6 17.5 3.5 3.3 6.4 7.1 9.6 10.7s5.9 7 7 12c1.3 5.9 10.4 3.4 9.1-2.5-1.6-7-5.7-11.9-10.4-17.2-5.1-5.7-9.8-11.1-16-15.6-6.8-4.9-14.2-8.7-20.5-14.3-6.4-5.8-11.3-12.7-17.2-18.9-3-3.2-6.4-6-9.4-9.1-2.4-2.5-4.1-5.4-6.2-8.2-3.5-4.7-9.7-10.5-15.3-5.7-4.7 4-6.3 10.6-7.4 16.4-1.6 8.3-3.7 16.6-4.7 25-1.9 15.6-1.1 33.3 3.5 48.4 4.5 14.8 14.3 28.4 26.2 38.1a60.16 60.16 0 0 0 20.6 11.3c8.5 2.6 16.9 5.4 25.3 8.5 2 .7 7.9 2.5 7.2 5.4-.7 3.1-8 6.1-10.5 7.5-7.7 4.3-15.8 7.7-23.8 11.3-18 8.1-35.4 17.9-50.9 30.1a111.37 111.37 0 0 0-19.9 20.1c-5.3 7-9.2 16.7-16.6 21.7-3.3 2.2-3.4 8.4 1.2 9.2 4.3.8 8.3.2 12.5-.6 5.8-1.1 11.7-1.7 17.6-2.5 10.7-1.4 21.3-3.1 32-4.7 22.1-3.2 45-5.6 66.5-11.9 9.6-2.8 18.8-7.1 27.7-11.5 9.5-4.7 18.5-8.1 29.3-7.4 9.4.6 13 7.6 16.8 15.5 4.3 9.2 6.7 19.2 8.4 29.1s2.8 19.7 4.4 29.6c1.7 10.4 4.5 20.5 6.9 30.7 1.9 8.2 3.9 16.6 10.9 22.1s14.2 4.8 21.2-.1c7.5-5.2 14.1-10.7 19.4-18.2a98.08 98.08 0 0 0 12.9-26.4c6.1-18.9 7.9-39.2 16.5-57.3 1.9-4.1 4.1-8.4 7.2-11.7 3.4-3.8 8.4-5.1 13.3-5.7 10.5-1.3 20.5 1.1 30.9 2.2 10.7 1.1 21.6-.4 32.4.1a95.72 95.72 0 0 0 27.2-2.8c7.2-1.7 15.1-3.5 21.4-7.8 5.3-3.6 10.3-11.5 5.8-17.7-1.7-2.3-4.5-3.3-7.1-4.2-4.3-1.5-8.6-3.3-12.9-4.9-9.2-3.5-18.6-5.2-27.2-10.3-16.9-9.9-29-25.6-40.4-41.1-5.6-7.6-11.2-15.2-17.4-22.4q-4.5-5.25-9.6-10.2c-1.6-1.5-3.2-2.9-4.8-4.3-1.3-1.1-4-2.7-4.7-4.4-1.1-3 4-9.5 5.3-12.3 2.4-4.8 4.8-9.5 7.5-14 4.9-8.2 10.3-16 14.3-24.7a60.17 60.17 0 0 0 5.9-24.7c.1-5.7.3-12.5-2.4-17.7-2.8-5.4-8-5.3-12.9-2.8-7.1 3.5-13.5 8.9-20.3 12.9-9.2 5.5-18.7 11-28.8 14.7-10.4 3.8-21.1 6.5-31.4 10.6-7.9 3.2-16.5 6.7-24.8 8.7-1.8.4-3.3 1-4.1-.7-.5-1.1-.3-3.2-.3-4.3a66.07 66.07 0 0 1 .8-9.9c1.6-9.9 3.8-19.6 5-29.5 1.3-10.7 2-21.5 2.8-32.3.6-8.1 1.4-16.5-.7-24.5-.5-1.7-2.9-3.1-4.5-1.8-11.1 8.5-18.8 21.4-27.8 31.9-10.2 12-21.2 23.3-32.2 34.5-9.4 9.6-18.8 19.7-24.8 31.9a67.27 67.27 0 0 0-5.9 19.6c-1.1 7.7.4 14.1 1.3 21.7.2 1.5 2.5 1.6 2.5 0a6.6 6.6 0 0 0-.1-1.4c-.3-1.6-2.6-1.7-2.6-.1z"/><path class="cls-1" d="M3203.1 467.1c4.4-4.9 5.6-12.1 6.5-18.5a96.92 96.92 0 0 0-.3-26.9c-1.1-7.9-2.1-18.5-7.3-25-3.7-4.7-12-3.4-10.5 3.5a3.36 3.36 0 0 0 4.1 2.3c3.8-1.1 5.9-3.8 6.9-7.5.8-2.8-2.5-5.5-5-3.8-3.9 2.5-3.6 6.7-2.1 10.7 2.1 5.5 4.6 10.5 6.2 16.2 2.1 7.3 4.7 15 5 22.6a37.66 37.66 0 0 1-1.5 11.1c-1 4.1-.2 8.3-1.2 12.3l6.5-.9c-1.8-2.8 1.7-8.4 2.9-10.8 1.8-3.6 3.7-7.2 5.7-10.6 5.8-9.9 15.9-16.6 25.3-22.8 3.4-2.3 7.8-3.9 9.4-8.1 1-2.7.9-6.3-2-7.7-6.3-3.1-10.8 5.6-8.3 10.6a3.6 3.6 0 0 0 3.2 1.8 8.56 8.56 0 0 0 8-4.8 4 4 0 0 0-1.4-5.2c-3.1-2.4-6.9-1.8-8.5 2-1 2.2-.3 4.9 2.3 5.7.6.2 1.2.3 1.8.5 4.8 1.3 6.9-6.3 2.1-7.5-.6-.2-1.2-.3-1.8-.5.9 1.6 1.8 3.2 2.7 4.7.2-.4.3-.8.5-1.2-.6.8-1.2 1.5-1.8 2.3.2-.2.5-.3.7-.5-1 .1-2 .3-3 .4l1.2.6c-.5-1.7-.9-3.5-1.4-5.2-.5.4-.9.8-1.4 1.2 1.1.6 2.1 1.2 3.2 1.8.2.3.1 0 .1 0 .2.2-2.2-2.3-2.9-2.1a25.09 25.09 0 0 0-2.1 2.3c-.7.5-1.6.9-2.3 1.4-3.9 2.3-7.3 5.3-11 7.9-6.3 4.4-12.1 8.7-16.5 15.1a112.45 112.45 0 0 0-9 16.3c-2.2 4.7-5 11-1.9 15.9 1.6 2.5 5.8 2.2 6.5-.9.9-3.6.1-7.2.8-10.8.5-3 1.6-5.7 2-8.7.7-6.5-.5-12.9-2.1-19.1a176.35 176.35 0 0 0-5.6-18.8c-.5-1.4-5.2-11.4-5-11.5-1.7-1.3-3.3-2.6-5-3.8a3.24 3.24 0 0 1-2.1 2.9c1.4.8 2.7 1.5 4.1 2.3.7 2.5.1 2.8 1.1 5 .6 1.3 1.2 2.5 1.7 3.8a65.57 65.57 0 0 1 2.3 8.7 113.47 113.47 0 0 1 2.9 20c.3 8.7.8 21.8-5 29-1.1 1.6.9 3.7 2.3 2.3zm-4.3 65.7c-3.4 4-7.6 7.2-10.6 11.6a59.06 59.06 0 0 0-6.8 13.8c-3.9 11-5.8 22.7-6.9 34.3-2.4 25.2-1.8 51-.4 76.2 1.4 25.7 3.7 51.4 4.4 77.2.7 26 0 52 .2 78 .1 12.8 0 25.3-2.2 37.9-2.1 12.2-4.6 24.4-6.6 36.6s-3.9 24.6-6.8 36.8c-3 12.5-7 24.7-10.4 37.1-6.7 24.5-12.1 49-17.2 73.9-2.6 12.8-5.6 25.2-7.5 38.1-1.8 12.3-4.8 24.4-6.5 36.7-3.7 27-9.2 53.6-10.6 80.9-.7 13.7.6 27.1 2.4 40.7 1.9 14.6 6.1 28.8 7.2 43.5.3 4.4 7.2 4.5 6.9 0-.8-12.4-4.2-24.4-6.1-36.6s-3.6-24.5-3.6-36.7c-.2-24.6 4.1-49.4 8.1-73.6 2-12.2 3.1-24.5 5.7-36.6s3.6-24.5 6.5-36.5c6-24.9 10.3-50.1 16.8-74.9 6.3-24.1 14.3-47.8 18.6-72.3 2.1-11.7 3.7-23.4 5.8-35.1 2.1-11.9 4.9-23.6 5.8-35.7s.3-24.5.3-36.8v-39.7c0-25.5-1.3-50.8-3.2-76.2-2.1-28.6-3.8-57.1-3.3-85.8.2-14.2 1.3-28.3 4.6-42.1a74.33 74.33 0 0 1 6.2-17.3c3.1-5.7 8-10 11.8-15.2a1.72 1.72 0 0 0-2.6-2.2zm-461.9 140.3c-11.1-10.1-24.6-21.6-28.9-36.5-2.6-9-.3-17.8 4.9-25.3 4.9-7 5.5-16.9 5.7-25.2.1-5.4.8-9.9 3.5-14.6 2.3-3.9 4.7-7.7 6.8-11.8a15.08 15.08 0 0 1 8.1-7.8c3.8-1.7 9.5-4.6 12.4-.4 5.1 7.3 5.8 18.4 5.9 27 0 4.5-.2 9.1-.1 13.6.1 5 1 9.9 1.4 14.9.9 10.5-.9 23.2-6.5 32.4-2.9 4.8-7.6 7.7-12.1 10.8a94.51 94.51 0 0 0-12.7 11c-3.5 3.5 1.9 8.8 5.4 5.4a101.26 101.26 0 0 1 13.7-11.6c4.3-3 8.4-6.1 11.4-10.5 6.1-9.1 8.3-21.7 8.2-32.4 0-5.6-1.3-11-1.6-16.6-.4-5.9-.1-11.9-.2-17.9-.2-9.9-2.1-20.1-7.2-28.7-4.8-8.1-13.2-5.6-20.5-2.4-9.1 4-11.7 12.7-16.6 20.7-2.6 4.3-4.5 8.5-4.9 13.6-.5 5.8-.5 11.4-1.3 17.2-.5 3.3-1 6.2-2.7 9.2a59.73 59.73 0 0 0-4.1 6.9 34.24 34.24 0 0 0-3.1 13.7c-.3 21.1 19 34.8 33.4 47 1.1 1 2.8-.6 1.7-1.7z"/><path class="cls-1" d="M2736.4 606.5c-2.4-.5-5.6.6-5.7 3.6s3.1 4.3 5.6 3.9a1.93 1.93 0 0 0 1.5-1.5 7.18 7.18 0 0 0-4.6-8 2.67 2.67 0 0 0-2.6 0 14.61 14.61 0 0 0-5.3 6.5c-.6 1.5.7 3.3 2.1 3.7 3.1.9 5.6-.5 7.3-3.1a3.07 3.07 0 0 0-5.3-3.1c-.4.5-.5.4-1.1.3 1 1.3 1.9 2.5 2.9 3.8a7.44 7.44 0 0 1 2.7-4.1 23.35 23.35 0 0 0-2.5.7c1.4.4 2.5 1.2 2.4 2.7.5-.7 1-1.4 1.6-2.1-.2 0-.4.1-.6.1.1.1.1.1.1 0s-.1-.1-.1.2c.6-.5.5-.6 1.5-.5 1.5.1 1.9-2.8.1-3.1zm-1 48.9c-18.7 22.6-17.7 53.1-14.2 80.6 1.9 15.5 7.3 30 11 45 3.9 16 5.4 32.9 6.2 49.4 1.6 33.3-2.9 66.5-3.7 99.7s-2 66.9.5 100.2c1.3 16.5 3.1 33.1 5.9 49.4 2.8 16 7.2 32.2 15.9 46.1 2.4 3.8 8.2.4 6-3.5-14.3-26.2-17.5-55.9-20.4-85.2-3.2-31.7-2.1-63.5-1.5-95.3.6-32 4.2-63.9 4.1-95.9a352.68 352.68 0 0 0-3.5-47c-2.1-15-6.4-29.2-10.5-43.7a197 197 0 0 1-7-53.5c.1-15.8 3.6-32 12.4-45.3.7-.8-.6-1.7-1.2-1zm-142.3 78.1c-2.3 3.1-11.2-3.9-13.1-5.4a41.25 41.25 0 0 1-11.5-13.1c-3.9-6.8-3.9-14.5-5.7-21.9-1.8-7.2-3.4-14.7-1.3-22-1 .8-2.1 1.6-3.1 2.4 3-.4 5.9-.5 8.5-2.1 3.2-1.9 5.1-6.1 8.5-7.6 3.6-1.6 10.7 2.2 12.5 5.4 2 3.5 1.8 8.4 3.3 12.2 3.1 8 9.2 15.3 8 24.4-.7 5.2-2.9 10.4-4.8 15.3-1.6 4.2-5 7.6-5.7 12.1s6.1 6.4 6.9 1.9c.5-2.8 2.2-4.9 3.6-7.3a46.62 46.62 0 0 0 3-7.3c1.9-5.4 4.1-10.9 4.3-16.7.4-10.8-7.4-18.6-10-28.5-1.1-4.2-1.2-8.5-4.3-11.8-2.8-3-7.3-5.2-11.2-6.3a11.91 11.91 0 0 0-11.4 2.8c-1.7 1.5-3 3.4-4.7 4.8-2 1.7-3.8 1.8-6.4 2.2a3.43 3.43 0 0 0-3.1 2.4c-2.4 9-.2 18.1 2.1 26.8 1.3 4.9 1.8 9.8 4 14.5a48.54 48.54 0 0 0 7.9 12.1 49.1 49.1 0 0 0 14.8 11.2c3 1.6 8.4 4.2 10.9.6.6-1.2-1.2-2.2-2-1.1z"/><path class="cls-1" d="M2580.4 698.6a16.92 16.92 0 0 1-3.1-1.3 1.55 1.55 0 0 0-2 .3 8.49 8.49 0 0 0-2.1 2.5 8.05 8.05 0 0 0-1.4 3.3 2.44 2.44 0 0 0 3.7 2.1c.6-.4 1.2-.9 1.8-1.3a2.49 2.49 0 0 0-2.5-4.3c-.6.5-1.2.9-1.8 1.4 1.2.7 2.5 1.4 3.7 2.1a4.34 4.34 0 0 0-.4-1.9c.1.4.2.8.3 1.1a3.39 3.39 0 0 1 1-2.7c-.5.1-1.1.3-1.6.4a16.15 16.15 0 0 0 3.6 1 1.41 1.41 0 1 0 .8-2.7zM2595 732c.1 2.2-2.6 3.6-2.7 5.9-.1 1.9 1.1 4 1.8 5.7 3 6.5 7.9 11.6 11.5 17.7a344.6 344.6 0 0 1 23.3 46.7 313.56 313.56 0 0 1 15.1 47.3c4.1 17.5 6.3 35.3 8.6 53.1 4.6 36.3 8.6 72.6 15 108.7 6.2 35.2 14.5 70 21.3 105.1 3.9 20.2 8.9 40.1 12.9 60.2 3.5 17.7 3 37 10.6 53.6 1.9 4.2 9.1 1.2 7.5-3.2-5.6-15.5-5.7-32-8.7-48-3.3-17.7-7.7-35.1-11.3-52.6s-6.6-34.9-10.3-52.3-7.8-35-11.1-52.6c-6.6-35.5-11.5-71.5-16.8-107.2-5.1-34.3-10.3-68.2-22.6-100.9a319.17 319.17 0 0 0-23.8-49.7c-4.6-7.8-9.8-14.7-15.1-22-1.7-2.4-5.6-7.6-4.6-10.7.8-2.3 1.9-2.5 1.2-5.2-.1-1-1.9-.8-1.8.4zm281.9 309.8c-.7-4.4-3-8.3-3.8-12.7-1-5.7-1.4-11.1-2.8-16.7a140.13 140.13 0 0 1-3.4-32.3c0-21.6 4-42.6 10-63.3a587.45 587.45 0 0 1 20.7-60.3c8.1-19.8 17.4-39 25.4-58.7 7.6-18.7 15-38.2 19.1-58 3.9-18.8 3.7-38.1 1.1-57.1a86.52 86.52 0 0 0-2.5-12.3c-1.3-4.5-3.4-8.6-4.8-13-2.9-9.3-3.3-20.2-2.6-29.8a88.44 88.44 0 0 1 5-21.5c1.6-4.9 3.5-10.4 7-14.3 5.4-6 12.6.9 14.8 6.7 3.2 8.4-1.7 18.2-4.5 26a68.29 68.29 0 0 0-3.5 12.5c-.9 5.9-.4 11.9-.6 17.8-.3 10.6-4.5 21.4-12.5 28.6-3.8 3.3 1.8 8.8 5.5 5.5 6.8-6 11.2-14.3 13.4-23 2.8-10.8-.1-22 2.9-32.7 4.3-15.5 14.7-33.5-.2-46.7-4.2-3.7-9.7-6.3-15.3-4-5.2 2.1-8.5 7.4-10.8 12.3a93.57 93.57 0 0 0-8.5 46.3 106.17 106.17 0 0 0 2.1 15c1.1 4.7 3.7 8.5 5.7 12.8 4.6 9.7 4.6 21.8 5.3 32.4 1.4 22.4-3 44-10.4 65.1-15.2 43.4-35.9 84.4-49.5 128.4-7.6 24.3-14.4 48.9-15.5 74.5a162 162 0 0 0 2.4 36.8c1.2 6.6 3.2 13 4 19.7.8 5.9 3.6 10.9 4.7 16.7.5.9 2.3.4 2.1-.7z"/><path class="cls-1" d="M2940.9 646c.5-6.1 3.3-11.6 4.6-17.6.4-2-2.7-2.8-3.1-.8-1 6.2-3.4 12.1-3.4 18.4a1 1 0 0 0 1.9 0zm564.5 514.4a5.24 5.24 0 0 0 4.2 2.5.84.84 0 0 0 .7-.4c6.1-13.4 10.4-27.4 14.7-41.4 4.5-14.9 10.2-29 15.7-43.5 2.7-7 4.8-14.2 7.4-21.2 2.9-8 6.6-15.6 10.1-23.4 6.2-14.1 11.6-28.6 16.6-43.2s9.5-29.1 12.5-44.2c1.5-7.7 2.6-15.5 4.1-23.3 1.4-7.3 2.9-14.5 3.2-21.9a137 137 0 0 0-.9-22.2c-.9-6.7.2-13.5-.9-20.2-1-6.2-4.7-11.6-8.3-16.7a50.53 50.53 0 0 0-5.3-6c-2.8-2.8-4.1-5.8-5.2-9.5-1.1-4.1-.8-7.7-.9-11.8s-2.3-7.7-2.1-11.9c.4-7.7 2.1-16 3.2-23.6.7-4.3 2.7-15.7 7.8-16.6 3.1-.5 5.3.1 8.2-1.8 2.7-1.7 4.6-4.4 6.8-6.6l-3.4.9c5.6.8 6.6 9.7 7.3 14.1.5 3 .8 6 1.1 8.9.5 4 1.9 7.8 2.3 11.7.5 5-1.8 9.8-3.2 14.5-1.4 5-2.1 9.6-5.2 13.9-2.9 4-5.8 8.2-9.4 11.7s-7.7 6.6-11.3 10.2 1.9 9 5.5 5.5c3.2-3.2 6.8-6 10.1-9.1 3.6-3.3 6.2-7.1 9.1-10.9 2.4-3.2 4.8-6.2 6.2-10.1 1.5-4.3 2.3-9 3.6-13.4 1.3-4.1 2.4-8.3 1.9-12.6-.4-3.8-1.9-7.4-2.5-11.2-.8-5.8-1.2-11.6-2.9-17.2-1.4-4.7-3.7-10.1-8.6-12-3-1.2-4.9-.6-7 1.8a24 24 0 0 1-3.9 3.9c-2.4 1.6-4.5.4-7.2 1-5.8 1.4-8.8 9.2-10.4 14.3-2.9 8.8-2.9 18.7-4.3 27.8-.6 3.9-.9 7.7.4 11.5.8 2.5 1.7 4.5 1.7 7.2a43.63 43.63 0 0 0 .2 7.2 37.1 37.1 0 0 0 3.4 10.7c1.9 3.8 5.4 6.1 8.1 9.3a48.46 48.46 0 0 1 7.7 12.4c1.9 4.9 1.5 10.4 1.5 15.5.1 4.9 1.1 9.6 1.5 14.5a120.59 120.59 0 0 1 .3 15.9c-.4 11.1-3.1 22.4-4.8 33.4a279.32 279.32 0 0 1-6.4 30.2 538.57 538.57 0 0 1-21.3 61.5c-4.7 11.5-10.1 22.6-14 34.4-3.6 10.9-7.8 21.4-11.8 32.1s-7.1 21.9-10.4 33q-2.55 8.7-5.4 17.4c-.9 2.9-1.9 5.8-2.9 8.6-.4 1-3.6 11.3-6.3 7.8-.3-1-1.4-.1-.9.6z"/><path class="cls-1" d="M3580.7 812.7c5.9-5.5 5.4-17.5 5.5-24.7.1-2.8-4.5-2.8-4.3 0 .2 4.8.7 9.3 0 14-.5 3.1-.7 6.9-2.7 9.5-.7.9.7 1.9 1.5 1.2zm-128.3 340.9c-3.6-3.1-4.4-7.5-5.9-11.8a123.87 123.87 0 0 1-4.3-14.7c-2.5-11-3.1-22.5-3.5-33.8-.8-21.9.3-43.8.7-65.7.4-22.6-1.5-45.1 2.8-67.4 4-20.9 9.3-41.6 14.1-62.4a268.51 268.51 0 0 0 5.7-31c1.4-11 .4-21.4-.9-32.3-1.2-9.8-.6-19.6-1.4-29.4-.6-7.3-2.2-17.1-8.3-21.9-3.1-2.5-6.7-3.1-8.8-6.8-1.8-3.1-2.7-6.6-5.3-9.1a8.53 8.53 0 0 0-3-1.9c-2.2-.9-2.5-.4-3.7-2.2a17.35 17.35 0 0 1-1.4-3.8 106.6 106.6 0 0 1-3.7-15.8c-1.6-10.6 1.2-20.4 1.6-30.9.2-4.7.2-9.4 2.7-13.6 2.5-4.4 6.6-8.1 10.7-10.9 2-1.4 4.4-3.3 6.8-3.9 2.6-.6 3.5.8 4.8 2.9 2.2 3.6 4.4 7.4 6.4 11.2a62.1 62.1 0 0 1 6.7 31.4c-.5 11.5-4.8 22.6-7.4 33.7-2.9 12-5 24.2-5 36.6 0 4.2 6.5 4.2 6.5 0 0-12.5 2.2-24.7 5.1-36.8 2.6-10.6 6.3-21.1 7.1-32a67.62 67.62 0 0 0-4-28.2 61.58 61.58 0 0 0-5.4-11.3c-2.1-3.4-3.7-7.2-6.2-10.3-5.3-6.6-12.7-2.7-18.5 1.3-7.1 4.9-13.8 11.6-15.6 20.3-.9 4.6-.6 9.3-1 14-.5 5.6-1.9 11-2 16.7-.1 9.9 1.9 22.1 6 31.1.8 1.6 1.9 3.8 3.4 4.9s3 .8 4.5 1.4c3.5 1.5 4.5 7.2 6.8 10.1 2.5 3.1 6 3.8 9.1 5.9 4.9 3.3 6.2 11.7 6.8 17.2 1.1 10.7.5 21.3 1.9 32a131.26 131.26 0 0 1 .1 36.5c-3.4 22.9-9.6 45.4-14.5 67.9-2.4 11.2-5.1 22.4-6.1 33.9-1.1 11.9-.4 23.9-.2 35.9.5 26.7-1.3 53.3-.1 80 .6 12.4 1.3 25 4.3 37.1 1.4 5.7 3.4 11.2 5.3 16.7 1.4 4 2.3 7.4 5.7 10.1.4.4 1.2-.4.6-.9z"/><path class="cls-1" d="M3444.7 737.3c-2.1-2.1-2.3-4.5-2.9-7.3-.4-1.8-2.6-2.1-3.9-1a6.41 6.41 0 0 0-2.1 7.2 2.64 2.64 0 0 0 4.4 1.2c4.4-4.8 5-10.3 2.2-16.2-1-2.1-3.8-1.6-5 0-2.6 3.6-3.1 7.4.6 10.3 1.6 1.2 3.9-.1 4.4-1.8.9-3-.1-7.1-3.6-8s-6.2 2.7-7.2 5.4c-.8 2.2 1.7 4.5 3.8 3.8 3.9-1.3 4.9-4.9 6.5-8.3l-5.7-2.4a11.11 11.11 0 0 1-2.5 3.6c-2.9 2.9 1.6 7.3 4.4 4.4a18 18 0 0 0 4.1-6.4c1.3-3.3-4.2-5.6-5.7-2.4-.6 1.2-1.4 5-2.8 5.5l3.8 3.8a1.29 1.29 0 0 1 1.3-1.1l-2.3-.3c.1.3.1.6.2.8 1.5-.6 2.9-1.2 4.4-1.8a14.2 14.2 0 0 1 1.3-2.3h-5a7.84 7.84 0 0 1-1 9.5c1.5.4 3 .8 4.4 1.2a1.88 1.88 0 0 1 .3-2.5c-1.3-.3-2.6-.7-3.9-1 .6 1.5.9 3.4 1.8 4.8s2.9 2 4.3 2.9c1.2.6 2.2-.8 1.4-1.6zM607.1 999.1a18.39 18.39 0 0 0 3.7-7.7c1.3-4.9 2.7-9.7 3.8-14.6 2.4-10.5 4.4-21 6.4-31.6 3.9-20.5 7.8-41 11.9-61.5 8.2-41.4 15.8-83.1 18.9-125.2 1.5-21 2.6-42 4.7-62.9 2.1-20.7 4.9-41.3 4.6-62.1-.1-10.6-.8-21.1-1.3-31.6-.5-10.2-.1-20.5-.8-30.7-.3-5-1.1-10-1.5-15.1s0-10.1-.5-15.1c-1-9.8-4.2-19.3-7.2-28.7a219.2 219.2 0 0 0-12.2-30.2c-3.3-6.5-7-13.5-15-14-3.1-.2-3.7-.8-6.1-2.4a8.56 8.56 0 0 0-4.7-1.6c-2.8-.2-5.3.4-8.1-.2-2.3-.5-4.5-1.2-6.8-1.6-4.1-.7-8.6-.9-12.4.9a12.49 12.49 0 0 0-4.5 3.4c-1.4 1.6-1.7 3.9-3.1 5.5 2.1.3 4.3.6 6.4.8-2.7-4.3-5.2-7.4-10-9.3-5.5-2.2-6.8-7.4-8.6-12.7-2-5.6-2.4-10.9-2.3-16.9a73.72 73.72 0 0 0 .1-9.4c-.3-2.9-1.8-5.5-2.1-8.3l-4.1 4.1c6.7.1 9.4-4.6 11.1-10.3 2.2-7.2 7.8-12.4 10.7-19.3 1.1-2.7 1.7-5.6 2.5-8.3.3-1 .7-3.6 1.7-4.2s4 0 5.4-.4c3.6-.9 4.6-4.1 6.9-6.5 3-3 7.9-3.9 11.6-5.5 4.3-1.8 6.8-1.8 11.1.1a76.89 76.89 0 0 0 12.2 4.3 26.2 26.2 0 0 1 10.9 5.5c2.9 2.6 3.6 5.8 4.6 9.4 2.4 9.1 6.8 17.7 7.5 27.1.7 9.1 1.1 18.6-.2 27.6a65.82 65.82 0 0 1-3.2 13.8c-1.6 4.5-5.4 7.9-8.6 11.4a32.12 32.12 0 0 1-24.5 11.3c-4.7.1-4.8 7.4 0 7.4a38.93 38.93 0 0 0 23.5-7.7c6.3-4.8 13.5-12.2 16.4-19.7 3.4-9.1 4.4-19.5 4.4-29.1 0-10.3-.5-20.2-3.7-30-1.5-4.7-3.3-9.2-4.5-14-1.1-4-2.1-7.8-4.9-11-6.1-7-14.4-7.8-22.5-11-3.8-1.5-7.4-3.9-11.5-4.4-4.7-.6-8.4 1.6-12.6 3.2-3.6 1.4-7.4 2.5-10.5 5-1.6 1.3-2.3 3.2-3.7 4.5-1.7 1.6-4 .6-6.2 1.2-7.5 2.2-7.1 13-10.2 18.7-2.6 4.8-6.4 8.7-8.6 13.7-1.2 2.6-1.7 9.2-5.2 9.1a4.19 4.19 0 0 0-4.1 4.1c.2 3.2 1.7 6 2 9.1s-.2 6.3-.3 9.4a49.46 49.46 0 0 0 2.5 18.3c1.6 4.6 3.1 9.4 6.2 13.2a16.18 16.18 0 0 0 6.1 4.6c3.8 1.5 5.2 2.7 7.4 6.1 1.3 2 4.6 3 6.4.8 2.2-2.7 2.7-6.8 6.4-7.9 4.2-1.2 8.7.6 12.7 1.3 3.5.7 8.4-.5 11.3 1.2 1.1.7 1.9 1.8 3.1 2.4 1.9.9 3.7.6 5.7.7 6.7.1 10.6 11.8 13 17a235.35 235.35 0 0 1 10.1 26.9c2.9 9.2 5.7 18.4 5.9 28.1.1 9.9 2.1 19.5 2.2 29.4.2 19.2 2.2 38.3 2.6 57.5s-1.8 38.2-3.6 57.2c-1.9 19.6-2.9 39.3-4.1 59-2.5 39.9-8.7 79.3-16.1 118.5-4 21.5-8.3 42.9-12.1 64.5-2 10.9-3.9 21.9-6.1 32.7-1.1 5.4-2.2 10.8-3.6 16.1-1.1 4.4-1.9 10.9-5 14.4-1.2 1.5 1 3.7 2.3 2.2z"/><path class="cls-1" d="M598.6 412.2c1.1-3.1.2-5.8-3.5-5.6-5.1.2-8.4 5.6-9 10.2-.5 4.1.9 10.2 3.7 13.4 3.3 3.8 8.5 2.2 12.4.3a17.09 17.09 0 0 0 9.6-11.8c1-4.4 1.4-10-1.7-13.7-6-7.1-20.6-8.7-23.2 2.2-.9 3.9 4.8 5.5 6 1.7 1.7-5.2 7.6-4.3 11.4-1.9 4.7 3 3.8 10.4 1.2 14.7a13.29 13.29 0 0 1-5.7 4.8c-3.9 1.9-6.6 1.7-8.2-2.7a14.55 14.55 0 0 1-1.1-7.1 10 10 0 0 1 2.7-5.2c.9-.9 4.5-3.9 4 .7.1.5 1.2.6 1.4 0zm53.6 152c3.4-3.1 3.3-8.2 4.2-12.4 1.2-5.5 4.4-12.1 8.3-16.1-.9-.2-1.8-.5-2.7-.7 2.6 8.9-.7 18.1-3.3 26.6s-5.2 16.9-5.1 25.8h4.9c-.1-5.6-2.1-10.7-4.2-15.9-1.5-3.8-2.6-8.2-5.6-11.3-2.8-2.9-6.6-4.1-9.9-6.3s-6.6-4.7-10.6-4.7c-1.4 0-3 1.3-2.8 2.8.9 8.8 7.8 15.9 12.6 23 5.2 7.7 12.5 16.4 12.9 26 .5 10.6.3 21.6-.2 32.3-.4 10.3-4.8 20.2-4 30.6.3 4.2 6.8 4.2 6.5 0-.8-10 3.3-19.6 3.8-29.6a296.66 296.66 0 0 0 0-34c-.7-8.8-5.8-16-10.5-23.1-5.3-8-13.5-16.3-15.7-25.8-.9 1.2-1.8 2.4-2.7 3.5 3.1-.1 6.3 2.9 8.8 4.4s5.8 2.5 7.9 4.7c2.4 2.5 3.2 6.4 4.6 9.5 1.9 4.5 4 8.9 4.1 13.8.1 3.1 4.9 3.1 4.9 0-.2-10 3.1-19.5 5.6-29.1 2.1-7.9 4.1-16.3 1-24.2a1.64 1.64 0 0 0-2.7-.7c-3.3 3.9-5 8.9-6.5 13.6-1.7 5.1-.3 12.6-4.2 16.6-.1.6.3 1 .6.7z"/></g></svg>