<svg id="Layer_1" data-name="Layer 1" xmlns="http://www.w3.org/2000/svg" viewBox="0 0 3800 1541.7"><defs><style>.cls-1{fill:#e4def0}</style></defs><title>Artboard 1</title><g id="Layer_12" data-name="Layer 12"><path class="cls-1" d="M1800.8 1085.2c-9.5-2.1-16.5-10-25.9-12.4-8.9-2.3-17.3 2-22.8 8.9-9.9 12.6-11.3 35.4 5.1 43.3-.8-1.4-1.6-2.7-2.3-4.1-.5 8.2-6.8 14.3-5 22.9 2 9.1 9.7 15.3 17.7 19 9.6 4.5 17.9 4.7 27.9 1.2 5-1.7 9.9-3.7 15.3-4 4.5-.3 8.9-.1 13.4-.4 8.3-.7 15.8-3.4 21.3-9.8 7.3-8.5 8.9-18 8.1-28.8-.6-7.6-1.3-16.5-4.5-23.5-3.9-8.8-11.8-12.2-20.6-14.7a121.53 121.53 0 0 0-37.5-4.3c-12.8.5-24 6.5-36.4 8.7-5.3 1-4.2 10.3 1.3 9.6 8.9-1.2 17-4.9 25.7-7 9.1-2.2 19.2-1.5 28.5-.4 8.2.9 19.6 1.5 26.4 6.8 5 3.9 5.7 10.8 6.4 16.7 1.1 8.5 4 16.4.2 24.7-3.4 7.4-9.1 12.2-17.2 13.3-6.9.9-14-.1-20.8 1.2-8.6 1.6-17.5 7.6-26.4 5.3-7.1-1.8-17.2-7-19.5-14.5-1.1-3.6.2-6.7 1.7-10a37.22 37.22 0 0 0 3.4-11.8 4.87 4.87 0 0 0-2.3-4.1c-12.2-6.3-10.1-23.6-1.7-32.3 5.9-6.1 12.6-5.3 19.6-1.8 6.6 3.4 12.6 7.3 20.1 8.1 3.3.3 4-5.1.8-5.8z"/><path class="cls-1" d="M1792 1123.6c4.6 0 4.7-7.2 0-7.2s-4.7 7.2 0 7.2zm34.9-36.7a22.22 22.22 0 0 0-4.6 6.7c1-.1 2-.3 3-.4-8.2-7.4-4.5-24.4-1-33.4 1.8-4.7 4.5-10.2 9.9-11.3 4.7-.9 9.5 0 14.2-1.4a4.08 4.08 0 0 0 2.9-3.8c.2-3.7 2.2-13.1 7.7-11.1 2.5.9 4.6 4.4 6.4 6.3 2.3 2.4 4.6 4.7 6.7 7.3a107.6 107.6 0 0 1 11.2 18.4c3.4 6.7 6.5 13.9 7.1 21.5.5 6.4-1.5 12.5-4.4 18.2-3.1 6.1-7.3 13.2-13.1 17-10.4 6.7-24.6 1-35.6-1-5.4-1-7.8 7.3-2.3 8.3 11.9 2.2 25.1 6.9 37.1 2.6s21.3-18.4 24.8-30.2c4-13.7-.1-27.4-6.1-39.7-3.2-6.6-6.8-13.1-11.7-18.5-4.5-5-8.7-10.8-13.8-15.1a11.51 11.51 0 0 0-15.5.2c-4.1 4-5.8 10.3-6.2 15.9 1-1.3 1.9-2.5 2.9-3.8a94.08 94.08 0 0 1-9.5 2.3c-2.5.4-4.9.6-7.2 1.7-5.9 2.7-8.9 9.4-10.8 15.3-3.4 10.6-6.4 29.8 4.1 37.4a1.9 1.9 0 0 0 2.8-1.1 15.21 15.21 0 0 1 3.4-5.9c1.2-1.7-1-4-2.4-2.4z"/><path class="cls-1" d="M1858.2 1085.3c.8-1.4 1.5-2.7 2.3-4.1a2.87 2.87 0 0 0 0-3.2 5.09 5.09 0 0 0-1.3-1.6c-2.4-2.3-5.3-1.6-7.7.3-1.3 1-.9 2.9 0 4 .5.6 1.2 2 1.8 2.9a10.64 10.64 0 0 0 3.5 3.5c.8-2 1.7-4 2.5-6l-2.4-.3c-2-.3-4 .6-4.3 2.9a3.4 3.4 0 0 0 3.4 3.9 19.27 19.27 0 0 1 2.4.1c3.2.1 4.6-4.6 1.7-6.2-.3-.2-.6-.3-.9-.5.3.2-.1-.1-.2-.2l-.6-.6s-.6-.7-.3-.4a36.13 36.13 0 0 0-2.5-3v4l.5-.5c.3-.2.3-.3.1-.1.3-.3 0 0-.3 0h.1c-.5-.4-.6-.4-.3-.1a2.41 2.41 0 0 0 .6.8v-2.5c-.8 1.5-1.6 3-2.5 4.5-1.5 2.7 2.8 5.2 4.4 2.4zm61.8 53.4c-5.8-.5-11.6-3.8-17.5-2.9-4.1.7-6.6 4.4-10.7 5 .9 1.5 1.8 3 2.6 4.5 11.7-13.3-12.2-22.7-22.7-20.2a3.33 3.33 0 0 0-2.3 2.3c-2.6 10.4-5 22.7 1.9 32.1 3.7 5 9.3 7.6 14.9 9.9a197.89 197.89 0 0 1 19.1 9.3c11.9 6.4 24 5.8 36.8 2.4 11.3-2.9 22.6-8.2 26.4-20.1 1.6-5.1 1.7-10.6 3-15.8 1.1-4.6 3.5-8.8 5.2-13.1a75.08 75.08 0 0 0 5.5-26.4c.1-8.2-2-16.4-8.2-22.2a29.1 29.1 0 0 0-11.5-6.4c-5.2-1.5-10.3-.9-15.4-1.7-5.4-.8-10.3-6.2-14.4-9.4-5.1-3.9-10.8-6.4-17.4-5.6-7.4.9-13.6 6-20.2 9.2-6.4 3.2-13.4 6-18.1 11.6a4 4 0 0 0 5.6 5.6c4.2-3.6 9.2-6.2 14.2-8.6s9.7-5.6 14.8-7.9c11.6-5.5 19.1 5.9 28.3 11.1 6.9 3.8 14.9 1.5 22.2 4.1 6.9 2.5 10.7 8 12.2 15.1 1.5 7.3.1 14.9-1.9 21.9-2.2 7.6-6.4 14.5-8.1 22.1-2.1 10.1-1.7 19.7-12 25.3-8.8 4.8-21.7 7.9-31.7 6.8-7.3-.8-13-5.1-19.2-8.5-5.5-3-11.6-4.5-17.2-7.3-12.9-6.5-10.9-19.8-8.2-31.7l-2.3 2.3c5.9-1.6 22 2.1 16.7 10.5-1.2 1.9.8 4.8 3.1 4 3.7-1.3 6.1-5 9.8-6.1 5.2-1.5 11.5 1.7 16.9 1.4 1.5 0 1.5-2.5-.2-2.6z"/><path class="cls-1" d="M1925.8 1135.5c-1.3-5.2-5.6-9-9.7-12.1-.9-.7-2.2-.2-3 .4a12.93 12.93 0 0 0-3.9 5.1c1.8.8 3.6 1.5 5.4 2.3.1-.8.3-1.6.4-2.4.8-4.6-6.2-5.4-6.2-.8v2.5c0 3.3 5 4.1 5.8.8a8.91 8.91 0 0 1 2-4c-1 .1-2 .3-3 .4 3.7 1.9 7.3 4.7 8.5 8.8a1.92 1.92 0 0 0 3.7-1zm171.4-20.7c-14.3-13.2-32.5-20.6-51.7-22.4-8.6-.8-18.6-2.2-26.1 3.2-6.5 4.7-6.7 12.5-7.6 19.7l3.6-3.6c-8.4.6-17.4 4.9-19.1 14a13 13 0 0 0 3.2 11.3c3.9 4.4 6.9 6.8 7.5 13.1.9 9.6 3.8 16.8 13 21 8.5 3.9 18 4 27 6.4 10.6 2.8 20.9 6.7 32 5.3 8.4-1.1 16.5-4.9 22.1-11.4 12.2-14.2 9.1-34.3-.6-49-6.1-9.3-15.7-17-25.3-22.5-4.9-2.8-10.5-4.8-16.2-4.5-5.9.2-10.5 3.8-16.1 4.8-4.9.8-2.9 8.4 2.1 7.5 3.8-.7 7-2.8 10.6-4 4.6-1.5 9.5-.4 13.8 1.7a72.51 72.51 0 0 1 19.5 14.4c10 10.3 17 27.3 10.1 41.1-7.5 15.1-24.8 16.2-39.3 12.2a228.91 228.91 0 0 0-24.5-5.7c-6.1-1.1-14.7-2.5-18.4-8.1-2.4-3.7-2-8.2-2.7-12.4a20.91 20.91 0 0 0-4.9-10.9c-3-3.3-7.5-5.9-5.1-11 1.9-4.1 7-5.9 11.2-6.2a3.72 3.72 0 0 0 3.6-3.6c.7-6.5.6-13.2 7.8-15.8 7-2.5 15.5-.6 22.7-.4 16.7.3 32.6 7.2 45.3 18.1 1.7 1.4 4-.8 2.5-2.3z"/><path class="cls-1" d="M2052 1129.9c-3.1-.2-6.3-.9-9.4-.3a10.08 10.08 0 0 0-6.8 5.6 8.38 8.38 0 0 0-.2 7.4c1.4 2.7 4.1 3.7 6.9 4 2.3.3 3.8-2.8 2.7-4.6a31.88 31.88 0 0 0-3-4.2c-2.3-2.7-6.3.7-4.7 3.6a29.2 29.2 0 0 0 2.4 3.7c.9-1.5 1.8-3.1 2.7-4.6-3-.2-2.2-3.1-.8-4.8 2.4-2.8 7.1-1.6 10.3-1.7 2.6 0 2.5-3.9-.1-4.1zm-26.8 88.9c-4.4-4.1-11.7-8-17.9-6.1-7.1 2.2-8.2 12.2-4.4 17.7 5 7.2 15.3 6.1 21.5 11.4 3.8 3.2 7.7 5.4 12.9 5.7 4.8.2 9.1-2 14-.8 9 2.3 18.3 9.6 27.9 6.3 10.4-3.6 9.9-13.6 5.5-21.7-1.2-2.1-2.5-4.1-3.5-6.2-1.5-3.1-1-6.2-.9-9.5.1-5.7-1.4-10.3-5.7-14.3-3.5-3.3-7.8-5.6-11.8-8.1-5.1-3.2-10.1-6.5-16-8a43 43 0 0 0-26.5 1.7c-8.6 3.7-10.5 11.9-4.5 19.1.5-2.1 1.1-4.1 1.6-6.2-7.6 1.2-11.3 7.7-15.7 13.4-1.7 2.3.1 5.8 2.6 6.4l2.5.6c5.4 1.4 7.7-6.9 2.3-8.4-.8-.2-1.7-.5-2.5-.7.9 2.1 1.7 4.3 2.6 6.4 2-3.5 4.4-10.1 9.1-10.5 2.9-.3 4.6-2.9 3.2-5.6-2.7-5.3.1-6.9 5.3-8.3a41.22 41.22 0 0 1 16.4-.8c7.8 1.4 14.6 6.6 21.1 10.7 3.7 2.4 7.6 4.9 8.3 9.6.6 4.5-.6 8.9.9 13.3 1.6 4.8 10 13.1 6.3 18.1-4.5 6.2-15.6-.2-20.7-2.2a35.84 35.84 0 0 0-9.7-2.7c-3.6-.3-6.8.9-10.3 1.2-7.4.7-11.7-5.9-18.4-7.8-6.3-1.8-17.7-3.5-14.4-13 2.3-6.7 13-1.5 16.5 1.4 1.6 1.6 4-.6 2.4-2.1z"/><path class="cls-1" d="M2041.4 1211.2a9.36 9.36 0 0 0-9-4.9 2.31 2.31 0 0 0-2.2 2.9c.8 2.6 2.1 5.1 3 7.6 1.5 4.5 8 .8 4.8-2.8a26.68 26.68 0 0 1-3.7-6.6c-.5 1.1-.9 2.2-1.4 3.4 1-.3 1.9-.7 3-.2a7.22 7.22 0 0 1 2.6 2.3c1.3 1.7 4.1.1 2.9-1.7zm642.6 54.5c-8.3-.2-17.3-.4-23.1 6.5-7.4 8.7-8.7 21.6-9.2 32.5-.3 8.6.4 20.8 10.4 23.6 4 1.1 8.3.5 12.4.5 5.3 0 10.2 1.2 15.3 2 11.5 2 18.4-3.6 24.5-13 4.1-6.2 6.5-13.5 10.3-19.9 3.3-5.5 6.4-10.3 6.7-16.9 1-22-21.2-30.8-39.5-32-17.6-1.2-40.5 6.3-36.3 28.2 1 5.1 9.5 4 9.1-1.2-.5-5.5.3-10.2 5.1-13.5s11.3-4.1 17.1-4.2c12.5-.2 28.4 2.9 34.5 15.4 4.9 10.1-4.2 19.8-8.6 28.3-2.5 4.8-4.9 9.7-7.6 14.4-2.3 4-5.4 7-10.1 7-3.3 0-6.5-1-9.7-1.6a64.15 64.15 0 0 0-12.4-.9c-2.8.1-6 .6-8.7-.1-3.3-.9-4.1-4.2-4.7-7.2-2-10.9-1.2-24.1 3.7-34.2 4.2-8.6 12.2-8.8 20.8-9a2.35 2.35 0 0 0 0-4.7z"/><path class="cls-1" d="M2692.7 1285.6a4.28 4.28 0 0 1-3.4-2.2 2.76 2.76 0 0 0-3-1.2c-3.1.9-5.3 1.9-7.3 4.6-1.5 1.9.6 4.6 2.6 4.6h2.4c4.7.1 4-7.6-.9-6.6-.8.2-1.6.3-2.4.5 1.2 1.5 2.3 3 3.5 4.5.8-1.6 1.7-2 3.4-2.5l-3-1.2a9 9 0 0 0 7.4 4.4c2.8.3 3.4-4.4.7-4.9zm39.9 36.3c-4.2-1.1-9.3-1.4-10.8 3.3-1.7 5.2-3.4 10.7-3.7 16.2-.5 10.4 6.5 19.1 16.6 21.6 5.8 1.4 11.7 1.8 17.5 3.2 5.6 1.3 11.5 2.3 17.2 1.1 10.8-2.4 20.1-12.6 26.1-21.5 11.8-17.4 14.1-46-4.4-59.7a92.24 92.24 0 0 0-26.1-13.4c-8.6-2.8-16.6-2.7-23.6 3.7-5.8 5.4-12 6.3-19.2 8.8a38.27 38.27 0 0 0-16.3 10.5c-9 10.2-6.9 22.7 2.7 31.5 4.4 4 10.9-2.4 6.6-6.6-6.6-6.4-7.9-13.8-.7-20.4 7.4-6.8 17.1-6.9 25.6-11.4 6.1-3.3 9.5-10.1 17.2-8.9 6.7 1.1 13.3 4.3 19.2 7.5 5.4 2.9 11.5 6.2 15.3 11.2 5.4 7.2 5.5 18.5 3.9 27-1.7 8.8-6.6 17-12.7 23.5-7 7.5-14.3 12.6-25 10.9-4.6-.7-9.1-2-13.8-2.4-5-.5-10.4-.7-14.5-3.9-9.4-7.2-4.9-19.1-2.5-28.6l-1.8 1.8a13.61 13.61 0 0 1 6.6-.9c2.4.4 2.8-3.5.6-4.1z"/><path class="cls-1" d="M2756 1325.8c-4.7-.4-10.6-1.4-14.7 1.6 1.4.2 2.8.4 4.2.5l-3-2.4a3.54 3.54 0 1 0-4.3 5.6c1 .8 2 1.5 3 2.3a3.18 3.18 0 0 0 3.5 0c1.7-1.3 3-2.5 5.1-2.9a31.13 31.13 0 0 1 6.1-.2c3 0 2.9-4.3.1-4.5zm-58.6 38.6c2.5-6.4-1.4-11-8-11.7a16.13 16.13 0 0 0-15.8 7.9c-3.7 6-5.2 14.4-2.8 21.1 3 8.5 12.7 9.3 16.8 16.7 2.1 3.9 3.9 7.4 7.4 10.2a44.32 44.32 0 0 0 11.4 6.5c8.6 3.4 17.5 4.5 26.7 5.2 8.9.6 18.5 1 26.6-3.4 8.5-4.6 14.5-14.9 16.1-24.2 1.8-9.7-1.5-16.4-8.8-22.5-7.1-5.9-12.8-15.5-21.9-18.4-5.5-1.7-7.8 6.8-2.4 8.5s9.8 8.4 13.8 12.3c3.6 3.5 9.5 6.3 11.1 11.4 2.2 6.9-1.7 15.8-6 21.1-4.9 6-11.6 7.8-19.1 7.9-13 .3-27.6-.9-39.1-7.5a19.83 19.83 0 0 1-7.2-6.3c-1.7-2.6-2.8-5.6-4.9-8-3.9-4.5-11.5-5.6-14.1-11s-1-12.7 2.1-17.4a10.63 10.63 0 0 1 7.3-5.1c4.4-.7 8.6.7 7.8 6a1.55 1.55 0 0 0 3 .7z"/><path class="cls-1" d="M2714.1 1362.1a26.14 26.14 0 0 0-4.8 7.1c1.7.5 3.4.9 5.1 1.4.2-1.4.4-2.8.7-4.3l-6.3-.9c-.1.8-.2 1.7-.3 2.5-.2 1.9 1.8 3.5 3.5 3.5s3.7-1.6 3.5-3.5c-.1-.8-.2-1.7-.3-2.5a3.29 3.29 0 0 0-3.2-3.2c-1.6 0-3.4 1.5-3.2 3.2a21.77 21.77 0 0 1 .1 5.1c-.2 2.6 4.1 3.9 5.1 1.4a24 24 0 0 1 3.8-6.1c2.3-2.5-1.4-6.2-3.7-3.7zM492 1277.8a36.44 36.44 0 0 0-24.8 10c-6.2 5.6-13.4 14.7-13.3 23.5.1 9.5 8.3 13.3 16.5 14.4 4 .5 5.9 2.1 9.3 4 4.1 2.3 9.1 2.2 13.6 2.4 9.7.5 20 .4 28.1-5.7 3.9-3 5.9-7.1 9.1-10.7 3.6-4.1 8.9-5.5 13.4-8.1 6.5-3.7 11.5-11.4 10-19.1-1.3-6.4-6.8-10.1-12.4-12.4a48.16 48.16 0 0 0-22.2-3.3c-10.8.8-17.7 10-28.1 11.7-4.1.7-3.1 7.3 1 7.2 7.2-.2 12.5-4.6 18.4-8 5.6-3.3 11.2-3.5 17.5-2.9 5.1.5 11.1 1.1 15.4 4.1 5.3 3.7 4.6 10.2.2 14.6-5.1 5-13 5.8-18 11.4-2.4 2.7-4 6.1-6.7 8.7a21.27 21.27 0 0 1-11.7 5.5 57.17 57.17 0 0 1-12.4.3c-3.8-.2-8.3.1-11.8-1.6-2-1-3.6-2.5-5.7-3.3-3.7-1.5-7.6-.9-11.3-2.2-11.3-3.9-3.3-17 1.5-22.9 6.1-7.5 14.6-12.7 24.4-13.1 2.9-.2 2.9-4.5 0-4.5z"/><path class="cls-1" d="M501.6 1287.1a17.58 17.58 0 0 0-3.8-3.9c-1.6-1.2-3.1-1.4-5-2.1a3 3 0 0 0-3.8 2.9 3 3 0 0 0 3.8 2.9 6.54 6.54 0 0 1 3.1.2 6 6 0 0 1 2.8 2.2c1.4 1.5 4.1-.5 2.9-2.2zm33.1 28.6c-.3 1.1-.6 2.1-.9 3.2l1.4-1.1c-8.5.4-11.5 6.7-8.6 14.4a2.56 2.56 0 0 0 2.3 1.8c2.5.2 4.3-.7 5.3-3l-4.9-.6c3.2 12.6 13.8 14.1 25 11.8 5.5-1.1 10.8-2.8 16.5-2.8 4.9 0 10 1.1 14.3-1.8 5.2-3.5 8.4-11.1 11.3-16.5 3.4-6.3 8.1-11.7 11.4-18 6-11.3 6.6-25.4-6.3-31.9-8.3-4.2-16.9-5.2-25.8-1.9a56.8 56.8 0 0 0-22.5 15.9 4 4 0 0 0 5.6 5.6c6.6-5.5 12.8-11.6 21.3-14 7.2-2.1 19-1.6 23.4 5.6 7.1 11.6-9.1 25.7-13.9 34.7-2.5 4.7-4.3 14.3-10.5 15.5-4.7.9-9.9-.4-14.7.4-10 1.8-25.5 9.7-29.8-4.2a2.72 2.72 0 0 0-5.2 0c-.1.1-.3.2-.4.3l2.1 1.2c-2.5-4.7-1.8-8.9 4.3-9.7.6-.1 1.3-.4 1.4-1.1l.6-3.3a1.38 1.38 0 0 0-2.7-.5z"/><path class="cls-1" d="M577.4 1304.7a7.57 7.57 0 0 1-.7 5.1c.6-.5 1.2-.9 1.8-1.4l-3.3.6c-3.9.7-2.3 7 1.7 6.1a22.22 22.22 0 0 0 3.7-.9 4.56 4.56 0 0 0 2.3-3.5 13 13 0 0 0-.2-7.3 2.73 2.73 0 0 0-5.3 1.3zm-324.6-70c-3.7-1.9-7.6-3.9-11.9-3.9-4.9-.1-9.7 1.9-14.2 3.6-7.5 3-14.7 7.5-16.2 16a15.6 15.6 0 0 0 1.2 9.3c2.2 5.7.9 10.3.7 16.2-.4 9.2 4.7 16.2 13.2 19.4s17.9 2.4 26.7 4.5c9.6 2.3 19.9 6.5 28.8-.2 7.4-5.6 13-14.9 17.1-23.1 3.8-7.6 7.1-16.5 4.9-25.1-2.2-8.8-11.2-13.7-19.3-16.1-9.8-2.9-19.6 2.2-28.9 5-4.1 1.2-3.3 7.4 1 7.5a26.39 26.39 0 0 0 10.4-2c3.1-1.2 5.7-3.3 9-3.9 6.1-1.1 15.1 2.4 19.2 7.1 9.5 10.9-5.1 31.6-12.1 40.1-2.3 2.8-5 6-8.6 7.2-4.3 1.5-9.1.2-13.3-.9a140.82 140.82 0 0 0-21.4-3.7c-6.7-.7-15.3-1.9-19.1-8.2-4.2-6.9 1.1-15.6-1.9-22.9-1.5-3.8-3.7-6.4-2.7-10.7s4.4-7.3 8.1-9.5a59.16 59.16 0 0 1 12.7-5.4c5.6-1.6 9.8-.1 14.9 2.3 1.9.8 3.4-1.7 1.7-2.6z"/><path class="cls-1" d="M255.4 1254c-3.2.5-5.9-1-8-3.3-2.3-2.5-6 .7-4.5 3.5.9 1.8 1.4 3.5 3.3 4.5a11.58 11.58 0 0 0 5.8 1.1c4.8-.3 4.9-7.5 0-7.5a6.44 6.44 0 0 1-2.4-.5c-.3-.1-2.2-1-2.4-.7.1-.2 1.6 1.3.2-.4-1.2 1.5-2.3 3-3.5 4.5 3.6 2.6 8.2 4 12.6 2.8 2.7-.7 1.6-4.5-1.1-4zm105.2.9c-4.7-2-8.1-5.9-12.7-7.9-4-1.8-9-2.3-13.4-2.1-7.8.2-16.1 3.2-20 10.5s-3.3 16.7 3.1 22.4c2.9 2.6 6.3 4.4 9.4 6.7 4.3 3.2 8 7.1 12.1 10.7a31.71 31.71 0 0 0 24.2 8.6c9.4-.5 19-2.4 27.3-6.8 14.2-7.5 26-29.8 10.8-42.3-6.9-5.7-17.6-8.9-26.2-10.8-9.2-2.1-20.7-2.4-26.6 6.1-2.6 3.7 3.3 8.3 6.3 4.9 4.4-5 12.2-3.6 18-2.6 6.3 1.1 12.6 2.3 18.5 5 6.5 3 10.7 7.8 9.3 15.4a25.23 25.23 0 0 1-12.7 17.4c-11.2 6.5-30.5 10.4-41.5 2-5.5-4.2-10-9.6-15.8-13.6-5.3-3.6-12.3-6.2-12.3-13.6 0-10.2 8.3-14.6 17.4-15.3 4.3-.3 9-.1 12.9 1.8s7 4.5 11.1 5.9c1.2.3 2.1-1.8.8-2.4z"/><path class="cls-1" d="M357.5 1273.5c1.3 2.7 2.7 5.3 4 8 1.7 3.3 6.7.4 5-2.9-1.3-2.7-2.7-5.3-4-8-1.7-3.4-6.7-.5-5 2.9zM468 1338c-9.2-.2-21 3-26.5 10.9-7 10.3 2.2 20.1 10.5 25.8 11.6 7.9 24.1 13.8 38.3 14.6 13.5.7 26.5-2.3 37.1-10.7 10.4-8.3 17.7-21.9 7.2-33.2-3.3-3.5-8.5 1.7-5.3 5.3 9.4 10.2-4.9 22.1-13.5 26.7-12.4 6.6-30.1 6.2-42.8.7a109.63 109.63 0 0 1-15.1-8.1c-4.5-2.8-11.1-6.3-12.7-11.7-3.3-10.9 15.1-15.9 22.8-16.3a2 2 0 0 0 0-4z"/><path class="cls-1" d="M486 1353.7c.9.8 1.7 1.6 2.5 2.4a2.62 2.62 0 0 0 3.7-3.7c-.8-.8-1.6-1.7-2.5-2.5a2.78 2.78 0 0 0-3.8 0 3 3 0 0 0 .1 3.8c.9.8 1.7 1.6 2.5 2.4a2.66 2.66 0 0 0 3.7 0 2.76 2.76 0 0 0 0-3.7c-.8-.8-1.6-1.7-2.4-2.5a2.69 2.69 0 0 0-3.8 0 2.78 2.78 0 0 0 0 3.8zm538 76.9c-5.3-.3-10.9-1.1-16 .5s-9 5.6-12.3 9.7-6.6 9-6.2 14.4c.1 1.8 1 2.9 1.7 4.4 1 2.2 1.2 4.6 1.6 7 1.5 9.3 3.8 18.9 11.4 25.1 9.6 7.8 24.2 10.1 36.1 11.3 12.5 1.3 24.2.7 34.8-6.8a51.19 51.19 0 0 0 19.5-27.1c3.2-11 1.5-22.8-5.5-32s-18.4-14.5-29.7-16.4a63.22 63.22 0 0 0-31.4 2.2c-8.9 3.1-21.2 9.7-19.7 21 .6 4.8 6.9 4.9 7.5 0 .9-7.3 8.8-10.9 15-12.9 6.5-2.2 13.4-3.9 20.4-3.6 19 .8 40.2 12.8 37.5 34.5-2.3 19.1-19.2 34.9-38.4 34.7-11.4-.1-23.5-1.8-34.2-5.9-8-3.1-12.8-8.7-15-16.9-1.2-4.6-1.5-9.4-2.8-14-.5-1.7-1.4-2.6-2.2-4.1-1.1-2.3-.2-4.7.9-7 2.4-4.9 6.2-10.4 11.2-12.9 4.8-2.4 10.6-2.1 15.8-2.5a1.35 1.35 0 1 0 0-2.7z"/><path class="cls-1" d="M1048.5 1458.2a19.42 19.42 0 0 0-12.3 2.1c1 1.2 1.9 2.5 2.9 3.7.9-.8 1.8-1.5 2.7-2.3 2.3-2-1.1-5.4-3.4-3.4-.9.8-1.7 1.6-2.6 2.4-2 1.8.6 5.2 2.9 3.7a13.71 13.71 0 0 1 9.4-2.5c2 .1 2.5-3.4.4-3.7zm1859.5-172a53.18 53.18 0 0 0-25.2 10.8c-6.8 5.6-9.6 16.5-8.7 25 1.1 10 8.9 15.6 17.1 20.2 8.5 4.8 19.3 9.9 29.3 9.4 5.5-.3 10.3-2.7 15.4-4.5 6.3-2.2 12.7-2.9 19.3-3.9 8.5-1.4 16.7-5.6 21.1-13.2 8.9-15.5.8-36.5-9.9-49-7.8-9-18.9-13.9-30.9-12.6-14 1.5-23.7 11.6-36.6 15.8-5 1.7-2.8 9.7 2.2 8 9.3-3.3 16.8-9.8 25.7-13.8 8.7-3.9 18.8-4 27.1 1.1 12.3 7.7 21.6 26.1 19 40.6-3.4 19.3-26.1 16.2-40.3 21.6-4.5 1.7-8.8 3.9-13.8 3.8-4.2 0-8.5-1.4-12.5-2.9-8.2-2.9-16.8-7.1-23.2-13.1-7.2-6.8-4.9-21.2 1.2-28.1 5.3-6.1 16.3-10.5 24.1-11.6 2.1-.3 1.7-3.9-.4-3.6z"/><path class="cls-1" d="M2940 1322c-5.1-.4-10-1.2-14.1 2.5 1.5.9 3 1.7 4.5 2.6 3-7.9-4.3-12-11.3-10.4-4.2 1-2.4 7.8 1.8 6.5 2.4-.8 4.9-.9 4.3 2.4a2.7 2.7 0 0 0 4.9 2.1c2.2-2.9 6.8-1.8 9.9-1.8 2.6.1 2.5-3.7 0-3.9zm525.4 36.6c-8.1-10-23.4-10-33.8-3.5a23.28 23.28 0 0 0-10.8 15.3c-1.6 8.6 2.2 15.9 6.9 22.8 1.2 1.8 1.8 2.5 1.9 4.5.1 3.9-1.4 7.8-1.2 11.8a40.31 40.31 0 0 0 8.8 22.5c5.2 6.6 12.6 12.2 21.1 13.7 4.2.7 8.6.6 12.8 1.2a34.55 34.55 0 0 1 13.8 5.5c7.9 5.2 14.3 12.1 22.8 16.3a48.43 48.43 0 0 0 24.6 5 85 85 0 0 0 25.8-6.4c6.3-2.6 11.7-6.3 15.5-12.2 4.5-7.2 7.2-16.5 8.2-24.9 1.1-9-1.8-15.9-8.1-22.1-6.6-6.5-12.5-12.3-17.4-20.2a52.94 52.94 0 0 0-16.5-16.8c-15.6-9.9-35.1-14.1-53-17.3-19-3.4-39.1-3.2-53.7 11.2-3.8 3.8 2.1 9.6 5.8 5.8 11.3-11.3 27.1-12.1 42.1-9.9 13.8 2 28 5.1 41.1 10 6.8 2.5 13.6 5.8 19.2 10.5 5.8 4.8 9 11.3 13.3 17.2s10 10.3 15.1 15.5c6.5 6.6 6 14.1 3.7 22.6-1.8 6.7-4 14.3-9.3 19.1-4.9 4.5-11.9 6.6-18.1 8.4-7.7 2.3-15.8 3.6-23.7 2.3-8.6-1.4-16-5.8-22.8-11.2-5.6-4.4-11.1-9.2-17.7-12.1-7.1-3.1-14.1-2.7-21.5-3.8-16.7-2.4-27.4-20.9-25.5-36.7.6-4.8 1.3-7.6-1.5-11.7-5.1-7.3-10.1-15.3-5.9-24.3 5.8-12.7 26.1-16.1 35.2-5.4 1.7 2.1 4.4-.7 2.8-2.7z"/><path class="cls-1" d="M3513.8 1423c-3.6-4.8-13.5-9.9-16-1.2a3.07 3.07 0 0 0 4.4 3.4c4.9-3.1 6.4-9.8 1.3-13.6-5.9-4.3-11.4 2.8-11 8.5.4 5 7.7 4.1 6.9-.9a2.25 2.25 0 0 1 1.5-2.8l-2.4-.3c2.2.9 2.9 2.5.7 4.1 1.5 1.1 2.9 2.2 4.4 3.4.4-1.6 1.3-1.2 2.8-.7a9.18 9.18 0 0 1 4.2 2.8c1.4 1.5 4.6-.9 3.2-2.7zm-399.9-91c-1.4-12-14.4-20-25.6-21.6-15.3-2.1-24.6 9.1-24.5 23.9.1 9.8 3.7 19.4 1.5 29.2-2.1 9.1-.3 16.9 4.3 25a58.16 58.16 0 0 0 45.8 28.4c10 .7 18.9-3.3 28.7-4.4a53.74 53.74 0 0 0 26.9-10.4c7-5.1 14.9-10.4 18.2-18.8 2.7-6.9 1.5-14.2-1.4-20.8-3.4-8-8.6-15.2-13.2-22.5-4.9-7.8-9.6-15.6-15.2-22.9-7.5-9.8-16.5-18.9-28.7-22.2-11.5-3.1-59.6-14.5-54.9 10.4.9 4.6 8.9 3.6 8.3-1.1-.3-2.5.1-3.3 2.2-4.4 3.1-1.4 6.9-1.5 10.2-1.5a116 116 0 0 1 26.2 3.2c8.8 2 13.4 3.5 20.2 9.6 10.8 9.7 18 22.7 25.7 34.8 6.3 9.9 19.1 24.6 12 36.9-3.9 6.8-12.2 12-18.7 16.1-7.6 4.8-15.2 5.4-23.9 6.8-8.2 1.3-15.1 4.5-23.6 3.7-8.3-.7-16.3-3.9-23.3-8.3a46.89 46.89 0 0 1-16.5-18.3c-1.8-3.7-3.5-7.8-3.4-12 .1-3.5 1.2-6.9 1.5-10.3 1.1-12.3-10.7-38.9 7.2-43.9 11.6-3.2 26 5 29.9 16.1 1 1.7 4.3 1.5 4.1-.7z"/><path class="cls-1" d="M3121.2 1361.9c-4.6-2.4-7.8-6.1-13.2-3.7a2.66 2.66 0 0 0-1.4 2.5 10.72 10.72 0 0 0 5 8.9c1.4.9 3.9.4 4.6-1.2 1.2-2.7 1.8-5.7.1-8.4-1.8-2.9-5.1-3.7-8.3-3.7-4.8.1-4.7 7.8 0 7.4 2.3-.2 2.9-.3 2.1 2.1 1.6-.7 3.3-1.3 4.9-2a4.53 4.53 0 0 1-2.7-3.8c-.4 1.1-.9 2.2-1.3 3.3 2.5-1.5 5.6 1.9 7.8 3 2.8 1.2 5.3-2.9 2.4-4.4zm-23.4-54.5c-2.2 6.9-17.5 11.3-13.8 20.2.9 2.2 4.4 3.5 5.8.8 2.7-5.5 2.2-11.6-3.2-15.1a3.27 3.27 0 0 0-4.5 1.2c-2.9 6.2-3.6 15.4 5 17.1 4.5.9 6.4-5.9 1.9-6.9-3.3-.8-2.3-4.3-1.2-6.8l-4.5 1.2c2.6 1.6 1.7 4.6.8 7 1.9-.3 3.8-.5 5.8-.8-1-1.9 5.1-6.7 6.3-7.9 2.5-2.5 5.3-5.2 6.2-8.7.6-3-3.7-4.1-4.6-1.3zm335.7-16.9c-8.9-8.2-22-12.5-34-12.7-8.1-.1-23.9 2.3-22.4 13.8a18.77 18.77 0 0 0 1.7 5.7c.6 1.2 1.6 1.6 1.7 3 .2 2.1-2.3 4.8-3.1 6.7-1.8 4.6-.4 10.5 2.5 14.4 8.6 11.1 24 13.1 36.7 15.8s24.5 6.3 37.1 1.3c10.8-4.3 22.2-13.1 29.3-22.3 7.3-9.5 5.7-20.4.6-30.6-4.5-9.1-12.4-21.8-23.2-24.1a5.86 5.86 0 0 0-5.1 1.2c-2.5 1.9.1.3 0 .3a26 26 0 0 0-2.8 0 100.45 100.45 0 0 0-15.5 1.5c-10.5 1.9-22.6 6.7-25 18.4-1 5.1 6.5 7.3 7.9 2.2 2.1-7.7 10.6-10.5 17.7-12.1a76.54 76.54 0 0 1 10.7-1.5c3-.2 6.8.2 9.6-.7a6.15 6.15 0 0 0 3.1-2.2c1.7-2.5-2.8 3.6-2.7.8l3.4 1.4c4.4 2.3 7.7 6.7 10.4 10.8 4.6 6.9 10.6 16.6 7.5 25.2s-13.8 15.8-21.1 20.5c-8.5 5.4-17.2 7.3-27.2 5.4-5.8-1.1-11.5-2.7-17.3-3.8s-12.1-2.2-17.6-4.7c-4-1.8-9.3-4.7-11.4-8.8-2.8-5.5 2.4-9.5 2.9-14.8.5-4.8-3.4-6-3.9-9.4-.8-5.8 7.5-7.1 11.8-7.5 11.7-1.3 25.7 2.1 34.7 9.8 2.1 1.8 5.1-1.1 3-3z"/><path class="cls-1" d="M3452.8 1305.1c-3-1.1-6.6-1.2-9.3.7-3.3 2.2-3.9 6.1-3.1 9.8a3.81 3.81 0 0 0 4.1 2.7 3.74 3.74 0 0 0 3.2-3.6c.1-.9.1-1.7.2-2.6.3-4.8-7.6-4.9-7.6 0v2.6c2.4-.3 4.8-.7 7.3-1a10.37 10.37 0 0 1-.3-1.2c0-.1.1-1.2 0-.5.1-.4.1-.4 0-.1.1-.1.1-.3.2-.4s.1-.2-.1.1c.3-.3.3-.3 0-.1a4.87 4.87 0 0 1 1.3-.6 7.07 7.07 0 0 1 2.5.2 3.11 3.11 0 0 0 1.6-6zm-1226.9 60.8c-5.7 6.5-15.9 2.9-23.1 1.4-7.7-1.5-15.9-2.8-23.1 1.2s-13 11.4-12.7 19.9c.3 9.1 7 15.9 14.7 19.9-.6-1.1-1.3-2.2-1.9-3.4 0 2.7-2.6 3.5-4.4 4.9a14.56 14.56 0 0 0-4.6 6.1c-2.7 6.6-.5 13.3 2.1 19.5 4.9 11.3 12.8 18.2 23.8 23.3 11.8 5.5 23.4 11 36.5 12.4a67 67 0 0 0 36.3-6.6 79.66 79.66 0 0 0 29.3-25.4c8.6-12.3 6.6-27 0-39.7-2.9-5.7-7.1-10.5-9.6-16.3-1.9-4.5-3.9-7.5-7.8-10.4-8.8-6.6-20.2-9.9-30.9-11.3-12.1-1.6-22.8-.1-33.1 6.5-11.4 7.3-22.1 17.4-28.1 29.8-.7 1.5-1.1 3.5 0 4.9.9 1.3 1.9 2.5 2.8 3.8 3.5 4.7 11.3.6 8.1-4.7-.8-1.3-1.6-2.7-2.4-4 .2 1.3.3 2.5.5 3.8 3.2-9.4 12.6-17.5 20.4-23.2 7.4-5.4 14.5-8.5 23.7-8.4a66.13 66.13 0 0 1 27.7 6.4c3.1 1.5 7 3.5 9.2 6.4 2.4 3.3 3.4 7.7 5.6 11.2 6.6 10.2 14.5 22.2 9.6 34.9-4.1 10.6-15.2 20.1-24.8 25.7a59.39 59.39 0 0 1-30.5 8.2c-11.5-.2-21.5-4.1-31.8-8.7s-20.1-8.6-25.4-19.1c-2.8-5.6-6.9-14-1-19.1 3.9-3.3 7.1-5.3 6.9-11a3.9 3.9 0 0 0-1.9-3.4c-6.7-3.2-13.6-9.3-11-17.5 2.5-7.9 10.6-11.9 18.4-11.5 11.7.6 27.8 8.6 37.1-2.3 2.1-2.9-2-7.1-4.6-4.2z"/><path class="cls-1" d="M2244.5 1430.2c-5-.8-8.7-5.2-13.5-6.7-3.9-1.2-8.8 1-9.5 5.3s2.7 8.5 5.9 10.9c2 1.5 4.3 2.7 6.7 1.4 3-1.7 5.3-4.7 7.2-7.5a3.21 3.21 0 0 0 0-3.4c-4.1-6.5-10.7-5.9-15 0-1 1.3-.5 3.6.6 4.7 4.6 4.4 10.8 4.2 14.7-.9 1.2-1.6 1.9-4.3 0-5.8-3.7-2.9-7.4-3.7-11.8-5l3 3c-.2-1.1-.5-2.1-.7-3.2-1.3-5.4-9.1-3-8.2 2.3.2 1.1.4 2.2.6 3.2a4.32 4.32 0 0 0 3 3c3.2.9 6.3 1.2 9.1 3.2l-1.5-5.7c-.9 1.2-1.6 1.5-2.8.5.2 1.6.4 3.1.6 4.7.9-1.6 1.3-2.1 2.5-.4v-3.4c-1.3 2.2-2.7 4.4-4.9 5.8l2.4-.3a10.47 10.47 0 0 1-5.6-3.8c-1.5-2-1.2-4.6 2-4.5 2.4.1 5.2 2.2 7.2 3.4 2.2 1.3 4.5 2.7 7 3 2.3.1 3.4-3.4 1-3.8zm-432.5-24.6c-10.3-.1-21.4-1.3-31.2 2.4-10.2 3.9-15.8 13.5-16.2 24.3a23 23 0 0 0 1.6 8.6c1.4 3.6 4.8 6.1 5.9 9.7.5 1.7.3 3.6.8 5.3a25.31 25.31 0 0 0 2.1 4.4 42.4 42.4 0 0 0 6.2 8.4c8.7 9 21.1 11.6 33.1 8.9a88.67 88.67 0 0 1 26.2-2.4c8.5.6 17.3 1.8 25.8.7 11.6-1.4 18.9-9.5 20.2-20.9.4-3.2.1-6.3.4-9.5.4-3.9 2-7.5 2.8-11.3 1.5-7 .2-13.4-2.9-19.8a46.22 46.22 0 0 0-30.8-24.7c-14.3-3.4-27.8.6-40.3 7.4-10.3 5.7-22.4 14.8-19.8 28.1 1.1 5.5 9.2 3.1 8.3-2.3-1.4-9 10.2-15.6 16.7-19.2 8.8-4.8 18.1-8.3 28.4-7.3a38 38 0 0 1 28.8 17.8c2.8 4.7 5.3 10.1 4.7 15.7-.7 6.3-3.6 11.9-3.6 18.4-.1 9.2-2.2 18-12.5 19.9-13.5 2.5-27.6-2-41.3-.6-11.6 1.2-22 6.6-33.1.2a29.78 29.78 0 0 1-10.7-11.3 17.38 17.38 0 0 1-2.1-6.3c-.7-4.4-2.8-5.6-5.3-9.1-6.8-9.9-1.1-24.1 9.7-28 8.9-3.2 19-2.4 28.3-2.6 2.9-.1 2.9-4.9-.2-4.9z"/><path class="cls-1" d="M1840 1429.8c-4.2-.2-9.5-.9-13.4 1.2-4.9 2.6-3.9 8.1-2.3 12.5 1.9-1.1 3.7-2.2 5.6-3.3a21.49 21.49 0 0 0-4.1-3.2c-3.3-1.9-6.8 2.6-4.1 5.3a21.49 21.49 0 0 0 4.1 3.2 3.39 3.39 0 0 0 4.6-4.6c-1.3-2.4-2.8-5.1.4-6.1 2.9-.9 6.2-.6 9.2-.7 2.8 0 2.8-4.2 0-4.3zm959.3 7.6c-8.9 1.7-20.6 3.7-25.3 12.6-4.4 8.3.8 20.9 9.1 24.9 5.4 2.6 9.3-.2 14.6-1.3 6.8-1.3 13.4 2.6 19.1 5.6 10.4 5.6 21.4 10.1 33.4 8.6 21.3-2.6 41.5-25.3 31-46.8-8.4-17.1-26.6-22.9-44.2-21.2-15.5 1.6-40.1 9.2-37 29.2.7 4.8 8.3 3.5 8.3-1.1-.1-12.3 13.7-16.8 23.7-18.7 12.6-2.4 25.9-2.1 35.8 7 6.2 5.7 10.4 14 8 22.6-2.6 9-11.5 16.7-20 19.9-9.2 3.4-19.6 1.6-28.4-2.4-8.1-3.8-15.7-9.4-24.9-10.1a21.44 21.44 0 0 0-6.7.4c-2.6.6-5.3 2.6-8 2.4-5-.4-8.4-7.3-8.8-11.7-1-10.5 14.3-13 21.8-14.7 3.4-.7 1.9-5.9-1.5-5.2z"/><path class="cls-1" d="M2840.7 1449.4a10 10 0 0 0-8.9.6 3.38 3.38 0 0 0-1.5 3.6 24.1 24.1 0 0 0 7.4 11.4c2.1 1.8 6.4.8 6-2.5a19.4 19.4 0 0 1-.2-2.4 3.61 3.61 0 0 0-3.5-3.5 3.54 3.54 0 0 0-3.5 3.5c.1.8.1 1.6.2 2.4 2-.8 4-1.7 6-2.5-2.6-2.3-5-4.7-6.3-8.1l-1.5 3.6a4.46 4.46 0 0 1 4.3-.8c3.6.9 4.7-4 1.5-5.3zm393.8-1.8c-.3 1.1-.5 2.3-.8 3.4a23.12 23.12 0 0 1 1.9-1.4c-12.9-1-27.8-6.7-38.8 3-2.5 2.2-5 5.2-5.9 8.4-.8 2.9-.2 6.1-.7 9-1.1 6.6-2.3 13.1-1.1 19.8 4.2 24.9 33 33.3 54.6 34.4 11.9.6 26 0 35.9-7.4 10.6-7.9 15.1-23 18.4-35.2 1.6-5.8 3.3-12.5 1.2-18.4a24.13 24.13 0 0 0-6.8-9.3c-7.5-6.8-17.2-11.2-26.7-14.4-16-5.3-51.2-10-50.3 16.3.2 5.8 9.1 5.9 9.1 0 0-16.1 23.4-12.2 33.4-9.7a84 84 0 0 1 24 9.9c5.9 3.7 11 8 10.2 15.5-.6 6.2-2.8 12.3-4.9 18.1-1.9 5.3-3.8 10.7-7 15.4-6.4 9.4-17.9 11.1-28.5 11.5-17.8.6-43-2.9-52.7-20.2a28.53 28.53 0 0 1-3.2-16c.2-3.4.9-6.8 1.3-10.2.2-2.5-.5-5.3 0-7.7 1.7-8.1 11.9-10.7 18.8-10.6 6.6 0 13.2 1.3 19.8 1.4a2 2 0 0 0 2-2v-3.6c-.2-1.3-2.8-1.7-3.2 0z"/><path class="cls-1" d="M3248 1493.7c-3.1-.2-6.4-.7-9.5-.1a12.36 12.36 0 0 0-7.5 5.3l5.7 2.4c.7-2.2 2.1-4.1 3-6.2-1.7.2-3.5.5-5.2.7l3.2 2.6c3.4 2.7 8.1-2.1 4.8-4.8-1.1-.8-2.2-1.7-3.2-2.5a3.44 3.44 0 0 0-5.6 1.5c-.9 2.4-2.2 4.6-2.8 7.1-.8 3.3 4.2 5.7 5.7 2.4 2-4.7 7.3-3.7 11.6-3.8 2.8 0 2.7-4.4-.2-4.6zm209.7-15.4c-6.9-6.4-16.8-7.8-25.7-9.2-8.6-1.4-17.8-3.9-26.5-1.3-7.6 2.3-13.8 9.7-12.3 17.9 1.4 7.9 8.8 13.6 15.2 17.7 12.3 8 27.1 16.1 42 16.7 6.9.3 13.9-1.8 18.3-7.4 5.2-6.5 6.7-16 3-23.5-4.3-8.7-13.2-12.9-21.9-15.9-7-2.5-18.3-6.3-24.5-.1-3.4 3.4 1.9 8.7 5.3 5.3s12.5.3 16.2 1.6c5.7 1.9 11.8 4.2 15.9 8.8a15.12 15.12 0 0 1 .3 19.5c-3.4 4.2-9 4.9-14.1 4.4-10.9-1-21.1-6.4-30.5-11.7-5.4-3.1-11.3-6.3-15.5-11-4.9-5.5-3.9-13 3.4-16s15.9-.8 23.5.3c8.1 1.1 17.9 1.9 24.5 7.2 2.3 1.9 5.6-1.2 3.4-3.3z"/><path class="cls-1" d="M3420 1506.7a3.65 3.65 0 0 1 2.6 1.6l4-4c-2.8-2.2-5.6-4.3-8.3-6.6a3.22 3.22 0 1 0-3.9 5.1c2.9 2 5.9 3.9 8.8 5.9 2.7 1.8 5.6-2.2 3.4-4.4a10.64 10.64 0 0 0-6.6-3 2.75 2.75 0 0 0-2.7 2.7 2.83 2.83 0 0 0 2.7 2.7zm241.6-81.8a16.81 16.81 0 0 1 2.9-4.4 2.51 2.51 0 0 0 0-3.5c-7.9-6.6-18.4-2.6-26.5 1.6-8.9 4.7-18.4 11.2-18 22.4s10 20.1 18.6 26.2c9.9 7 20.7 9.8 32.1 4.9 18.7-8 41.7-30.1 36.4-52.6-3.7-15.4-20.9-20.1-34.7-21.8s-35.7.2-36.6 18.3c-.3 5.4 8.3 5.5 8.5 0 .4-10 14.3-10.9 21.7-10.7 9.5.2 21.8 2.1 29.4 8.4 5.6 4.6 5.7 13.3 3.7 19.7-2.6 8.6-8.8 16-15.5 21.8-7.1 6.1-16.8 13.3-26.7 12.4-8.7-.8-17.2-7.6-23.1-13.6-3.7-3.8-7.2-8.6-7-14.2s4.3-9.5 8.8-12.5c6.9-4.6 17.9-11.9 26.1-6.4l-.9-3.3a44.15 44.15 0 0 0-2.4 6c-.8 1.8 2.3 3.2 3.2 1.3z"/><path class="cls-1" d="M3657.8 1444.5a12.29 12.29 0 0 0-8.3-14.7 2.68 2.68 0 0 0-3.1 1.3 14.84 14.84 0 0 0-1.7 9.9c.6 4.2 7.7 2.5 6.5-1.8a9.49 9.49 0 0 1 .2-6c-.9.7-1.8 1.3-2.7 2 4 .4 6.1 4.7 5.4 8.3-.3 2.3 3.2 3.4 3.7 1zm127.1-281c-14.9-20.9-45.6-21.6-65.3-7.1-4.9 3.6-9.6 8.2-12.3 13.7-3 6.3-4.2 13.4-5 20.3-1.7 13.5-4.1 26.9 4.7 38.6 6.8 9.2 17.9 13.4 28.7 15.9a102.17 102.17 0 0 0 32.6 2.2c20.6-2 40.7-12.4 41.6-35.4.6-15.3-2.4-33.6-14-44.6s-27.8-15.9-42-22.5c-4.5-2.1-8.5 4.4-3.9 6.8 10.7 5.6 22.3 9.3 32.5 15.7 11.4 7.1 16.4 16.9 18.4 29.9 1.5 9.5 2.4 21-3.9 29.1-5 6.6-13.3 9.9-21.1 11.6-16.2 3.6-35.8 2.1-51.1-4.8-11.5-5.2-17.5-15.5-16.7-28 .4-6.1 1.4-12.2 2.1-18.3s1.6-12.6 5.4-17.8c15.5-21.1 50-24 67.6-4.2.8 1 2.3-.2 1.7-1.1z"/><path class="cls-1" d="M3738.6 1163.2c-3.2 5.4-10.4 25.5 2.5 24.1 7.2-.8 11.2-10.7 6.5-16.3a7 7 0 0 0-9-1.3c-3.2 1.9-4.9 5.9-8.3 7.4-4 1.8-.5 7.9 3.5 5.9a13.91 13.91 0 0 0 4.6-4.1c.7-.8 3.1-4.4 4.4-3.8 2.1 1-.7 8.4-3.3 6.4-1.7-1.3.1-7.6.4-9.3.6-2.5.9-5.3 1.6-7.7.7-1.9-2-2.9-2.9-1.3zM3224 1126c-15.7 2.1-44.3 10.6-42.4 31.4.9 9.6 9 16.2 16.1 21.7 4.7 3.6 8.8 8.2 14.1 10.9 3.9 2 8.4 2.5 12.8 2.5 9.5-.1 19.3-2.3 28.3-5.3 8.4-2.8 16.6-6.7 21.7-14.3 4.7-7.1 6.9-18.1 4.6-26.4-1.1-3.8-3.3-6.9-5.8-9.9-3.4-4-6.6-8.4-10.4-12.1-17.3-16.9-47.7-7.8-61.7 8.8-3.1 3.7 2.2 9.1 5.3 5.3a42.84 42.84 0 0 1 23.6-14.6c7.6-1.7 17.2-1.6 24 2.6 6 3.7 11.2 10.7 15.3 16.2 4.7 6.3 4.1 14.9 1.4 22-5.4 14.2-24.6 18.1-37.9 20.1-7.7 1.2-15.2 1.5-21.8-3.2-3.8-2.7-7.2-5.8-11-8.5a41.94 41.94 0 0 1-10.2-9.5c-13.6-19.7 20.9-31.4 34.5-33.8 2.2-.4 1.7-4.2-.5-3.9z"/><path class="cls-1" d="M3232 1137.6a42.94 42.94 0 0 1-7.2-.3 2.81 2.81 0 1 0 0 5.4 34.74 34.74 0 0 1 7.2-.3c3.1 0 3.1-4.8 0-4.8zm-963.6 179.1c7.5-5.6 5.6-12.4-1.3-17.6-7.6-5.6-18.5-10.4-28.1-8.7-4.2.7-9.4 2.9-10.8 7.4-1.6 5.4 3.2 10 7.1 12.8 6.5 4.5 14.5 5.8 21.6 9s13.1 8.9 20.5 12c7.1 3 14.9 4.2 22.5 2.1 8-2.2 13.7-7.9 20.7-11.8a21.87 21.87 0 0 1 8.5-2.8 10.82 10.82 0 0 0 5.2-1.8c3.7-2.7 5.8-8.5 5.7-13-.3-10.1-10-17.7-17.7-22.6-8.5-5.5-18.4-10.3-28.3-12.6-11.5-2.7-32.6-4.6-37.1 10-1.7 5.7-.1 12.5 5.3 15.4s12 1.6 17.8.9c4.4-.5 4.7-7 0-7.1-3.7 0-7.5.5-11.1 0-4.8-.7-6.5-5.2-3.3-9.2 5.3-6.8 19.6-4.7 26.9-3a85.49 85.49 0 0 1 20.1 8.1c6.7 3.6 14.1 8 18.3 14.5 1.5 2.4 2.4 5 1.8 7.8-1 4.4-2.7 5-6.5 5.6-10.9 1.9-17.7 11.7-28.1 14.6-13.1 3.7-23.2-4.8-33.7-10.9-4.3-2.5-9.1-3.9-13.8-5.2-5.5-1.6-13.9-3.7-17-9.1-3.5-6 7.3-7.9 11.2-7.8 4.1.1 8.1 1.5 11.9 2.9 7.7 3 20.8 10.1 10.8 18.6-.7.8.2 2 .9 1.5z"/><path class="cls-1" d="M2292.7 1282.8c-2.8-2-6.4-4.5-10-3-4.2 1.8-6.7 7.5-7.8 11.6-1.7 6.2-1.7 12.7-4 18.8-2.2 5.9-6.1 11.1-9.6 16.3-2.2 3.2 3.1 6.3 5.2 3.1 5.1-7.7 9.9-15.2 11.5-24.4.8-4.8.6-9.9 2.1-14.6.6-2.1 1.9-6 4-7.2 2.4-1.3 5.1.7 7.1 1.9a1.47 1.47 0 0 0 1.5-2.5zm-356.2 155.4c-9-1.5-21.7 4.2-26 12.5-4.9 9.5 2.6 19.9 9.6 26a55.82 55.82 0 0 0 12.9 8.6c5.1 2.3 10.6 3.6 15.4 6.7 5.2 3.3 8.9 8.5 14 11.9a52.22 52.22 0 0 0 17.5 7.4c12 2.6 25.6 1.5 35.7-6.1 9.7-7.4 12.1-19.7 20.3-28.1 6.8-7 14.8-16.1 8.2-26.2-4.8-7.4-14.8-10.4-22.9-12.2a122.82 122.82 0 0 0-29.6-2.8c-14.5.5-24.2 7.7-34.2 17.5-3.5 3.4 1.8 8.7 5.4 5.4 7.5-7 14.3-14.1 25-15.3 6.9-.8 14.1-.2 21 .5 11.8 1.3 41.5 7 26 24-2.8 3.1-5.9 5.8-8.3 9.2-3 4.4-5 9.4-7.7 13.9-5.8 9.6-15.5 14.4-26.6 14.6-10.6.2-21.9-3.2-29.9-10.3-3.5-3.1-6.5-6.6-10.6-9s-8.7-3.8-13.1-5.3c-9.1-3.3-19.9-10.1-23.6-19.5-4.6-11.6 11-21 21.2-19.7 1.9.3 2.4-3.4.3-3.7z"/><path class="cls-1" d="M1976 1466.3c-5.8-.3-11.4-1.1-16 3.2a2.32 2.32 0 0 0-.6 2.1 10.1 10.1 0 0 0 2.8 4.5 2.42 2.42 0 0 0 2.9.4 10.84 10.84 0 0 0 5.1-6.9 2.84 2.84 0 0 0-1.9-3.4c-1.2-.3-2.3-.7-3.5-1-3.6-1.1-5.2 4.9-1.5 5.6 1.2.2 2.4.5 3.6.7-.6-1.1-1.3-2.2-1.9-3.4a6.7 6.7 0 0 1-2.7 4.6 28.83 28.83 0 0 0 2.9-.4 5.6 5.6 0 0 1-1.7-2.4c-.1.9-.2 1.7-.3 2.6 3.4-3.9 8.3-2.9 13-2.8 2 0 2-3.3-.2-3.4zm992.8 30.5c7-7.6-1.9-17.3-10.6-17.1-8.3.1-14.1 6.3-16.7 13.7-6.4 18 2.3 41.8 24.1 41.4 6.4-.1 12.7-1.5 19.2-.8 8.1.8 15.8 3.4 23.8 4.8 13.5 2.3 26.7-.1 36.9-9.8 9.2-8.8 12.8-21.3 8.6-33.3-2-5.9-5.3-11.5-10.4-15.1a23.17 23.17 0 0 0-9-3.5c-3.7-.8-5.4-1.9-8-4.6-10.5-10.7-23.2-13.5-38-12.8-16.1.8-31.7 6.3-43.6 17.4-4 3.7 2.1 9.7 6 6 8.3-8 18.8-12.6 30.1-14.6 10.5-1.8 23.3-2.2 32.7 3.3 3.4 1.9 5.8 4.7 8.7 7.2 3.4 3.1 6.3 4.2 10.9 5.1 11 2.2 17.2 15.6 15.1 26.1s-11.3 18.5-21.1 21.5c-11.7 3.5-23.8-1.2-35.3-3.4a57.55 57.55 0 0 0-14.9-1c-4.3.3-8.5 1.2-12.8 1.3-8.9.1-15.9-5.9-18.3-14.3-2.1-7.2-2.1-16.1 1.3-22.9 1.8-3.6 4.5-6.5 8.4-7.6 6.4-1.9 17.6 4.1 11.4 11.6a1 1 0 0 0 1.5 1.4z"/><path class="cls-1" d="M3005.7 1487a9.8 9.8 0 0 0-10.2-5.2 2.79 2.79 0 0 0-1.9 1.9c-1.3 5 1.1 8.5 5.7 10.3a3 3 0 0 0 3-.8 9.34 9.34 0 0 0 3.7-7.2c-.1-3.2-1.8-5.9-3.8-8.3-2.7-3.2-7.2 1.4-4.6 4.6 2 2.4 2.7 4.3.3 6.6 1-.3 2-.5 3-.8-1.7-.5-2.5-1.1-2.1-2.9l-1.9 1.9c1-.3 1.8-.7 2.8-.3a6.14 6.14 0 0 1 2.5 2.3c1.5 2 4.8.1 3.5-2.1zm20.4-288.2c-6.7-10.3-20.2-16.4-31.4-20.2-9.5-3.2-25.4-6.3-29.4 6.3-1.8 5.5-.5 11.6.7 17.1a94.16 94.16 0 0 1 2.5 19.8c.2 7 .7 14.4 4.5 20.6s10.8 11.6 18.1 13.1c14.1 3.1 24-8.6 37.1-10.9 7.2-1.3 14 2.3 20.5 4.9s13.8 5.2 21 3.9c15.4-2.7 17.8-18.3 13.2-30.9-5.3-14.7-16.6-25.4-30.6-32.1a91.07 91.07 0 0 0-41-9.2c-9.7.2-26 2.5-23.3 16 .9 4.5 8.6 3.5 8.1-1.1-.8-7 12.8-6.4 17.2-6.4a79.81 79.81 0 0 1 26.1 4.3c12.9 4.3 25.6 11.7 32.5 23.7 4.7 8.2 10.4 24.9-3.2 27.9-11.6 2.6-22.9-7.4-34.1-8.8s-20.3 5.7-30.2 9.7c-12.2 5-25.1-2.4-27.6-15.4-1.1-5.9-.7-12.1-1.4-18.1-.5-5-1.9-9.6-3.1-14.4-1-4.2-2.8-11.3 1-14.6 4.1-3.5 11.4-1.7 16.1-.6 10.9 2.7 25.6 8.3 32.4 17.9 1.9 2.4 6 .1 4.3-2.5z"/><path class="cls-1" d="M3020 1213.7a29.77 29.77 0 0 1-6-.5c-.2 1.8-.5 3.7-.7 5.5 5 .3 9.1 3.4 13.9 4.4 4.1.8 5.7-5.6 1.7-6.2-5.4-.8-10.1-4.4-15.6-3.8-3.5.4-3.6 5.9 0 5.6 2.3-.2 4.5-.3 6.8-.4a2.3 2.3 0 0 0-.1-4.6zm333.5-4.2c-11.8-5.8-26.4-13.9-39.5-7.2-9.9 5-15.2 17-14.2 27.8a21.7 21.7 0 0 0 1.7 7.1c1.4 3.3 4.3 5.8 5.2 9.3 1.4 5.9-.9 11.1 3 16.6 6.3 9.1 18.6 10.8 28.8 10.2 22-1.4 43.1-11.4 59.9-25.4 8.7-7.2 16.9-16.8 19.1-28.2 2.2-11-1.1-23.6-10.1-30.8-9.7-7.8-23.3-9.9-35.4-9.7-5.6.1-11.6.5-16.8 2.6-4.2 1.7-12.3 7.8-16 3.1-3.2-4-10 1.3-7.1 5.5 6.4 9.3 16.3 4.5 24.5.6 7.9-3.7 17.8-3.6 26.3-2.5 8.8 1.1 19.3 4.1 23.9 12.4 5 9 3.6 19.5-1.8 28-9.9 15.7-29.5 27.2-46.9 32.6-9.3 2.9-19.7 5.2-29.4 3.7-3.9-.6-7.8-1.8-10.8-4.5-4.5-4-2.7-8.9-3.4-14.1-.9-6.5-6.5-10.5-7.2-17.1a22.54 22.54 0 0 1 3.9-15.3c9.6-14 27.4-4.8 39.5.3 3.2 1.4 6.2-3.3 2.8-5z"/><path class="cls-1" d="M3362.2 1209.8c-2.6-2.7-5.2-5.5-7.8-8.2-3.1-3.2-8.2 1.8-4.9 4.9 2.7 2.6 5.5 5.2 8.2 7.8 3 2.8 7.4-1.6 4.5-4.5zM282.7 1418.7c-4.2 4.2-9.6 5.6-15 7.7-4.3 1.7-6.9 4.2-10.7 6.8-3 2.1-6.5 2.7-9.6 4.4-4.2 2.3-8 6-11.4 9.4-6 6.2-10.1 14.7-4 22.5 6.9 8.8 16.3 3.7 25.3 6.5-.8-1.4-1.6-2.9-2.4-4.3-2.1 10.6 4.2 17.2 14.5 18.5a55.48 55.48 0 0 0 14.1-.3c5.5-.7 11-2.4 16.6-2.1 8.3.5 16.3 3.3 24.6.8 5.9-1.8 11.3-5.6 15.8-9.8 4.8-4.5 9.1-10.3 10-17a17.35 17.35 0 0 0-1.2-9c-1.2-2.8-2.9-4.5-2.2-7.7-.6.7-1.1 1.5-1.7 2.2 30.4-17.1-10.9-64.6-29.7-42.5 2.1.6 4.2 1.1 6.3 1.7-6.5-16.9-30.3-7.2-41.2-.7-7.9 4.7-15.9 12.7-17.5 22.1-1.5 9 3.3 19.8 13.9 15.9 4.5-1.7 2.7-8.8-2-7.3-2.1.7-2.5.8-3.5-1a10.93 10.93 0 0 1-.7-5.1c.2-3.9 2.5-7.4 5-10.3a37 37 0 0 1 12-9.2c5.4-2.8 23.3-11.3 26.9-2.3.9 2.3 4.3 4.1 6.3 1.7 9-10.9 25.4 6 27.2 15.3.8 4.1.6 8.5-2 11.9-2.3 2.9-5.7 3.4-6.5 7.2-1.1 5.3 2.2 8.1 3.4 12.8 1.6 6.5-3.9 12.8-8.3 16.8-4.9 4.5-10.9 8.2-17.8 8.3-7.6.2-15-2.6-22.7-1.7-4.1.5-8.1 1.6-12.2 2.1-7.3.9-22.6 2.1-20.5-9.3a3.64 3.64 0 0 0-2.4-4.3c-6.9-2-17.2 2.3-22.2-4.1-6-7.6 6.6-18.6 12.7-22.4 2.3-1.5 5-2.1 7.4-3.4 3.2-1.7 5-4.4 7.7-6.7 3.2-2.7 7.5-3.6 11.2-5.2a28.25 28.25 0 0 0 9.4-6.1c1.5-1.9-1.2-4.5-2.9-2.8z"/><path class="cls-1" d="M290.4 1421.6a41.54 41.54 0 0 1 6 9.9c.7-1.2 1.4-2.4 2-3.5-11.4-1.3-10.6 16.4.9 14.9a3.33 3.33 0 0 0 3.1-2.4 22.87 22.87 0 0 0 .7-3.6c.5-4-5.1-5.8-6.2-1.7-.3 1.2-.6 2.4-.8 3.6l2.3-2.3c-3.7 1-4.3-4.3 0-3.8 1.9.2 2.7-2.1 2-3.5a46.79 46.79 0 0 0-6.8-10.8c-1.9-2.3-5.2 1-3.2 3.2zm205.6-24.2c-13.4-1.5-29.7 12.1-30.5 25.6-.9 14.3 18.1 26.8 30.7 20.2l-4.6-4.6c-9.7 12.9 4.3 21.4 15.7 24.1 13.8 3.2 29.1 3.9 41.1-4.4 4.2-2.9 8-5.7 13.2-6.5 4.8-.8 9.7-.7 14.5-1.8 8.6-2 15.6-7.8 15.5-17.2-.2-16.7-23.1-19.8-35.5-22.1-10.4-1.9-20.5-5.7-31.2-5.4-12.6.3-23.6 6.1-31.6 15.9-3 3.7 2 9 5.3 5.3 6.7-7.5 14.7-12.9 24.9-13.5 8.5-.6 16.4 1.8 24.6 3.7 6.4 1.4 12.9 2.2 19.2 3.9 5.2 1.3 12.3 3.2 15.6 7.9 4.7 6.8-1.9 12.8-8.2 14.4-7.8 2-15.9.9-23.3 4.8-5.7 3-10.3 8.1-16.8 9.3a58.63 58.63 0 0 1-16.2.3c-7.5-.7-29.4-3.6-21.2-15.3 2-2.9-1.8-6.1-4.6-4.6-9.3 5.2-23.9-6.7-21.2-16.9 2.5-9.6 14.4-19 24.5-18 3.4.4 3.3-4.7.1-5.1z"/><path class="cls-1" d="M537.9 1434.1c-5.6-6.8-14.2-4.9-21.9-4.7-3.4.1-3.4 5.2 0 5.2 6.1 0 13.7-2.1 18.1 3.3 2.2 2.6 5.9-1.2 3.8-3.8zm254.1-60.6c-13.4-.2-38.9-1.3-42.8 16-2.1 9.2 2.8 21 10.7 26.2 9.4 6.2 18.9.4 23.4-8.6l-3.6 1.5c6.9 2.7 16.4 3.4 23.5 1.1 9.3-3 8.7-11.5 3.5-18.2-2.3-3-7.9-1.5-6.6 2.8a13.72 13.72 0 0 0 13.4 10.2c5.7 0 11.6-3.4 13-9.2 1.6-6.6-2.8-14.3-8.9-16.9-6.8-2.9-14.4.1-20.2 3.9-11.1 7.1-18.3 19.2-22.6 31.4-2 5.6-3.4 12.7 0 18.1 2.7 4.2 9.8 7.8 14.5 4.9 5.3-3.2 4-11.1 2.5-16.1-1.7-5.9-4.6-12.3-9.7-16.1-4.2-3.1-8.3 3.9-4.1 7 2.2 1.6 3.6 5.1 4.6 7.5a29.11 29.11 0 0 1 1.6 5c.4 1.6.2 3.5.6 5 .1.3-.2.8-.2.9-.1-.4 1.1-.8 1.2-.7-.8-.8-2.8-.7-3.7-1.8-2.1-2.6-.6-7.3.3-10.1a65.76 65.76 0 0 1 10.9-20.8c4-5 15.1-14.8 22.2-10.5 3.5 2.2 5.3 8 .9 10.1a6.69 6.69 0 0 1-9.3-3.8c-2 1.2-4 2.3-6 3.5 1.2 1.5 3.6 4.2 2.3 6.2-1.1 1.5-4.6 1.8-6.2 2a34.93 34.93 0 0 1-15.7-1.6 3.23 3.23 0 0 0-3.6 1.5c-1.8 3.7-4.4 8-9 8.4-3.9.4-7.5-2.5-9.7-5.4-4-5.3-7-14.6-2.4-20.4 7.3-9.2 24.8-8 35.2-8a2.5 2.5 0 0 0 0-5zm92.7 97.8a20.44 20.44 0 0 0-4.3-4 .9.9 0 0 0-1.2 1.2 20.44 20.44 0 0 0 4 4.3 1.06 1.06 0 0 0 1.5-1.5z"/><path class="cls-1" d="M880.4 1452c.5-9.7-12.1-10.7-19.2-10.5-8.6.3-21.5 1.2-24.5 11.1-3.5 11.6 7.6 22.5 4.4 33.8-3.4 12.2-1.7 23.3 8.1 31.9 8.9 7.8 21.7 12.3 33.5 10.5a26 26 0 0 0 16-8.5c4.3-5 6.7-11.6 11.8-15.9 5.4-4.7 12-7.8 17.2-12.8 4.8-4.5 9.1-10.1 10.9-16.6 3.7-13.6-6-27-18.1-32.6-13.8-6.3-30-4.7-44-.1-5.9 1.9-13.3 4.3-17 9.7-4.6 6.7 1.7 13 1.6 19.9-.1 3.7 5.3 3.6 5.7 0a21.54 21.54 0 0 0-.7-6.7c-.6-2.3-2.3-5.7-1.9-8.1.8-4.5 8.8-7 12.5-8.3 10.3-3.6 21.5-5.6 32.3-3.6 11.4 2.1 24.2 10.5 24.5 23.4.3 12.3-11.9 21.6-21.2 27.6a34.59 34.59 0 0 0-10.7 9.8c-2.9 4.2-5.1 9.1-9 12.5-8.3 7.4-21.3 5.8-30.6 1.5-8.8-4.1-17.4-11.9-17.4-22.3 0-5 2.4-9.6 2.4-14.6s-2.3-9.7-3.9-14.2-3.8-10.1-2.7-15c1.3-6 7.9-7.8 13.2-8.8 7-1.3 26-4.3 26.2 6.8-.2.6.6.6.6.1z"/><path class="cls-1" d="M891.1 1492.9c.7.9 1.5 1.7 2.2 2.6l2-2.6c-1.6-.9-3.1-1.9-4.8-2.8-.3 1.3-.7 2.5-1 3.8l2.5-.3a1.62 1.62 0 0 0 1.6-1.4 1.65 1.65 0 0 0-1.2-1.8 20.48 20.48 0 0 0-2.4-.5 2.05 2.05 0 0 0-1.6 3.7 29.15 29.15 0 0 0 5.5 2.3 1.58 1.58 0 0 0 1.2-2.9c-.9-.7-1.8-1.3-2.7-2-1-1-2.2.9-1.3 1.9zm-354.5-443c-15.9-3.9-33.7-9.2-50-4.4-14.8 4.4-23.5 18.5-26.4 33l2.3-2.3c-4.3.8-9.3-.3-13.2 2.2s-5.4 8.4-5.2 13c.4 9 8.4 12.9 15.8 15.6 3.4 1.2 7.4 2.1 10.1 4.4 3.6 3 4.1 7.9 5.2 12.2 2.7 11 11.4 15.7 22.3 17a41.93 41.93 0 0 0 20.4-2.8c5.8-2.3 10.7-6 16.1-9.1 8.5-5 17.2-9.9 25.5-15.3 7.9-5.3 16.2-11.6 20.5-20.4a26.42 26.42 0 0 0-2-27.1c-6.5-9.2-17.4-13.6-28.1-15.7a147.39 147.39 0 0 0-33.8-2.6 4.55 4.55 0 0 0 0 9.1c16.3 1 34.5-1.6 48.9 8.3 6.3 4.3 10.9 12.7 9.4 20.4s-8.7 13.8-14.7 18.1c-7 5.1-14.6 9.1-22 13.3-8.4 4.7-15.3 11.7-24.6 14.8-8.6 2.9-25.4 3.6-29.7-6.6-2.8-6.8-2.4-13.7-8.4-19-5.7-5-14-4.9-20.1-9.1a8.35 8.35 0 0 1-2.9-10.8c1.8-4 8.5-2.7 12.3-3.5a3.33 3.33 0 0 0 2.3-2.3c2.4-13.8 10.2-26.8 24.5-30.1 14.6-3.4 30.1.9 44.4 3.9 2.7.6 3.8-3.5 1.1-4.2z"/><path class="cls-1" d="M514.2 1074.2c-.8 1-1.9 1.1-2.6 2.5 1.1-.5 2.3-.9 3.4-1.4a43.58 43.58 0 0 0-10.8-1.8 3.11 3.11 0 0 0-3 3.9 21 21 0 0 0 3.7 6.9c2.6 3.5 7.8 1.5 7-3-.1-.8-.3-1.6-.4-2.4-.7-4.1-7.2-3.1-7.1 1v2.4c1.9-1.1 3.8-2.2 5.8-3.3-.2-.1-2.1-1-1.3-.5.6.4-.3-.3-.4-.4a9 9 0 0 1-1.2-2.4l-3 3.9a39.47 39.47 0 0 1 8.4 1.1c1.3.3 2.3.5 3.4-.3 1.5-1 1.1-2.1 2.1-3.3 1.6-2.1-2.2-5.1-4-2.9zM170 960.6c3.3-10-7.1-12.3-14.8-11.7-9.3.7-19.9 3.1-25.5 11.2-7.4 10.8-.1 24.2 8.9 31.4a31.76 31.76 0 0 0 8.2 4.7c2 .8 4.2 1.2 5.5 3s1.9 4.7 2.9 6.6c3.9 7.7 9.9 13.1 17.5 17 14.2 7.2 33.4 7 48.8 4.5 13.7-2.2 29-8.6 36.8-20.7 5.1-8 2.8-14.4-.4-22.6s-5.7-16.5-9.5-24.3c-5.9-12.3-15.5-24.5-28.5-29.6-12.6-4.9-25.8.2-37.6 5.2-10 4.3-26.8 11.9-26.7 24.9.1 5.5 8.5 5.5 8.6 0 .1-7.6 12.3-13 18-15.8 7.4-3.6 16.1-7.4 24.3-8.3 11.9-1.3 21.9 7.4 28.4 16.4 7.6 10.4 11.1 22.7 15.8 34.5 1.2 3 3.5 6.9 3.2 10.3-.3 3.2-2.7 6.4-4.8 8.7a41.56 41.56 0 0 1-15.1 10c-11.8 4.9-24.7 5.5-37.3 5-15.1-.6-29.7-5.9-36.4-20.3-1.3-2.8-1.8-5.7-4.3-7.6s-5.4-2.5-8.2-3.6a26.18 26.18 0 0 1-12.6-11.1c-6.3-10.6.4-19.6 11-22.6 4.5-1.2 22-5.6 19.6 3.8-.5 2.5 3.4 3.5 4.2 1z"/><path class="cls-1" d="M220 982c-4.6-.1-9.2-.8-13.8 0-5.5 1.1-6.9 5.7-3.8 10.1.8 1.2 2.6 2 3.9 1 5-3.6 5.6-9.8 1.1-14.2-1.4-1.4-4.3-1.3-5.3.7a36.45 36.45 0 0 0-1.4 3.5c-1.6 4.1 4.9 5.7 6.5 1.8.4-.9.7-1.8 1.1-2.7-1.6.7-3.3 1.3-4.9 2 1.9 1.4 1 3.2-.5 4.5h4c-.9-1.1-1.2-1.2-.5-1.8.9-.9 3.3-.8 4.4-.9 3.1-.2 6.1.1 9.2 0a2 2 0 0 0 0-4zm1008 187.7c-11.3 0-23.4 4-33 10-7.8 4.9-18.8 17.2-11.5 26.8 1.3 1.7 3.1 2.7 4.5 4.2 2.1 2.2 3.4 5.2 4.8 7.9 2.7 5.3 5.5 10.3 10.6 13.6 11.2 7.4 22 .9 33-3 10.7-3.8 21.6-.3 32.6-.5 10.8-.2 20.1-4.5 24.9-14.6 9.2-19.2-1.3-44.6-16.8-57.3-12.1-9.9-27.3-10.9-41.9-6.6-7.2 2.1-14.5 4.8-21.6 7.5a38.48 38.48 0 0 0-16.7 11.4c-3.5 4.2 2.4 10.4 6.1 6.1 7.3-8.2 16.9-10.4 26.7-14.3 11.5-4.6 24-8 35.8-2.3 15.3 7.4 26.3 28.1 23.7 45-1.4 9.1-7.1 16.2-16.5 17.4-8.6 1.1-17.3-1.1-25.9-1-9.5.1-16.9 4.7-25.7 7.4-5.2 1.6-10.5 1.6-15-1.7-4.1-3.1-6.1-8-8.5-12.3a29.4 29.4 0 0 0-4.2-6.2c-1.5-1.6-3.8-2.6-5.2-4.3-4.6-5.7 3.5-14.1 7.7-17.3a58.24 58.24 0 0 1 31.9-11.1c3.1-.3 3.2-4.8.2-4.8z"/><path class="cls-1" d="M1252 1181.6c-5.4-.3-10.7-1.6-16.1-.9-3.9.5-10.5 3.1-9.8 8.1 1.6 10.6 19 6.9 25.8 6.8 4.7-.1 4.6-7.4 0-7.2-3.2.1-6.4.7-9.6.9-1.8.1-8.7.9-9.6-1.3s17-1.6 19.2-1.7c3.1 0 3.1-4.5.1-4.7zM3592.5 1042c-8.9-1.4-15.7-7.1-23.8-10.6a31.35 31.35 0 0 0-23.5-.9c-7.9 3-13.3 10-20.7 14-8 4.3-15.6 7-21.7 14.1-4.8 5.6-9.5 12.4-11.2 19.7s1.6 12.4 5.3 18.3c8.6 13.5 19.5 26.7 34.6 33.3a28 28 0 0 0 24.6-.5c7.2-3.7 13.5-10.3 22.1-10.3 7.9 0 15.3 4.5 21.9 8.5 7.3 4.5 14.2 9.6 22 13.3 6.6 3.1 14.3 5.6 21.6 3.3s11.9-8.9 14.9-15.6c5.9-12.8 12.3-30.3 6.9-44.1-6.9-17.9-24.9-26.1-37.5-39.2-11.6-12.1-20.2-31.5-38.7-34-6.2-.8-9.1 8.4-2.6 9.6 14.1 2.6 21.8 16.7 30.2 26.9 9 10.9 21.5 17.9 31.2 28 4.6 4.9 9.3 11.1 9.7 18.1.4 6.6-2 13.8-3.9 20s-4.1 12.9-8.3 17.8c-4.7 5.5-11.6 4.2-17.6 1.6-13.3-5.7-24.1-16.1-37.9-21.1-6.2-2.3-13.2-3.1-19.6-1.2-7.1 2.1-12.5 7.3-19 10.5-15.2 7.6-31.7-8.9-40.3-19.9a124.29 124.29 0 0 1-9.6-14.4c-3.3-5.8-.3-11.2 3-16.4a40.55 40.55 0 0 1 17.6-16.2c4.5-2.2 8.8-4.4 12.5-7.8 3-2.8 5.9-5.9 9.3-8.2 17-11.5 31.5 5.8 48.1 7.6 2.1.1 2.7-3.8.4-4.2z"/><path class="cls-1" d="M3570.4 1061.6c1.2 1 2.2 2.1 3.4 3.1 1.9 1.5 5.9.2 4.8-2.8-3.1-7.9-16.3-18-23.5-9a3.53 3.53 0 0 0 1.5 5.8c4.9 1.8 7.1-2.5 7.3-6.7.2-5.2-8.5-4.9-7.9 0 .4 3.3-.4-.7 2.4 0l2.1 5.1c3.2-4.9 11.4 4.1 12.8 7l3.9-3.9c-1.3-.8-2.8-1.3-4.1-2.1-2.1-1.4-4.8 1.9-2.7 3.5z"/></g></svg>