<svg class="arrow arrow-right" width="76px" height="29px" viewBox="0 0 76 29" version="1.1" xmlns="http://www.w3.org/2000/svg" xmlns:xlink="http://www.w3.org/1999/xlink">
    <defs>
        <polygon id="path-1" points="75.3307463 28.1935769 75.3307463 0.000334615384 0 0.000334615384 0 28.1935769"></polygon>
    </defs>
    <g id="Page-1" stroke="none" stroke-width="1" fill="none" fill-rule="evenodd">
        <g id="Desktop-HD-Copy-11" transform="translate(-1317.000000, -948.000000)">
            <g id="Page-1-Copy" transform="translate(1355.000000, 962.500000) rotate(-360.000000) translate(-1355.000000, -962.500000) translate(1317.000000, 948.000000)">
                <mask id="mask-2" fill="white">
                    <use xlink:href="#path-1"></use>
                </mask>
                <g id="Clip-2"></g>
                <path d="M58.8609791,0 C62.3966806,3.79007692 65.4536955,6.67223077 68.0331582,8.64646154 C70.6114866,10.6206923 73.0446209,12.0907692 75.3314269,13.0578077 L75.3314269,14.8223462 C72.6986507,16.0771538 70.1464119,17.6788462 67.6747104,19.6263077 C65.2018746,21.5737692 62.2503522,24.4291538 58.8212776,28.1935769 L55.7506507,28.1935769 C58.2495761,22.939 60.8687403,18.9001923 63.607009,16.0771538 L-0.000453731344,16.0771538 L-0.000453731344,12.1164231 L63.607009,12.1164231 C61.5856358,9.58115385 60.1768,7.6995 59.3793672,6.47034615 C58.5819343,5.24119231 57.3988299,3.08515385 55.8300537,0 L58.8609791,0 Z" id="Fill-1" fill="#000000" mask="url(#mask-2)"></path>
            </g>
        </g>
    </g>
</svg>
