<svg width="294" height="160" xmlns="http://www.w3.org/2000/svg" viewBox="0 0 553 300"><title>black-garden5</title><g data-name="Layer 2"><path d="M99.42 38.78a22.64 22.64 0 0 0 2.47-3.54c.75-1.45 1.47-2.91 2.18-4.38a63.5 63.5 0 0 1 4.73-8.26 29.86 29.86 0 0 1 6.2-6.7 26.74 26.74 0 0 1 8.06-4.05c4.87-1.63 12.08-3.42 16.38.51 5.22 4.77 2.8 11.9-.12 17.06a34.41 34.41 0 0 0-2.67 4.9 12.36 12.36 0 0 0-.73 5c.28 3.83 2.6 8 6.79 8.23 2.19.13 3.05-2.68 1.71-4.12-.61-.65-1-1-1.53-1.46-.12-.11-.6-.63-.54-.54a1.28 1.28 0 0 1-.24-.47 7.74 7.74 0 0 1-.23-.92c-.06-.34 0 .05 0 .1v-.55-.71-.16c0-.23.09-.47.15-.7a14 14 0 0 1 .66-1.92c.19-.47-.2.41 0 0l.19-.39c.17-.34.36-.68.56-1A41.58 41.58 0 0 0 146 30a21.14 21.14 0 0 0 1.88-11.56 14.17 14.17 0 0 0-5.71-9.34c-5.3-3.91-12.44-3.1-18.43-1.45a35.07 35.07 0 0 0-9 3.71 28.49 28.49 0 0 0-7.38 6.69 42.36 42.36 0 0 0-5.72 9.85 36.59 36.59 0 0 0-1.89 5.33 24.58 24.58 0 0 0-.58 2.6 19 19 0 0 0 0 2.83c0 .13.19.24.29.12zM106.34 44.87c-.56-.33-1.22.93-1.37 1.27a5 5 0 0 0-.4 3.51 3.51 3.51 0 0 0 2.7 2c.95.21 3 .63 3.68-.15a.44.44 0 0 0 0-.61c-.56-.6-1.57-.32-2.31-.33-1 0-2.33-.1-3-1a3.5 3.5 0 0 1 0-2.93 10.51 10.51 0 0 0 .74-1.68.07.07 0 0 0 0-.07z"/><path d="M114.51 52.38a5.43 5.43 0 0 1-3.17-2.18 3.83 3.83 0 0 1-.86-3.05c.67-2.47 6.39-3 6.35.06l.26-1c-.85 1.16-.67 2.68-.72 3.75a1.27 1.27 0 0 0 .93 1.22 2.77 2.77 0 0 0 3.26-1.31 3.22 3.22 0 0 0-.48-4l.49.84c-1.1-2.67-3-4.53-6.06-4.6-2.49-.06-5.35 1.08-6.37 3.49a5.43 5.43 0 0 0 1.15 5.71 5.1 5.1 0 0 0 2.59 1.39 5.27 5.27 0 0 0 1.41.16 2.18 2.18 0 0 0 1.23-.42v-.07zM74.81 41.85a4.5 4.5 0 0 0-.18-1.36 4.35 4.35 0 0 0-.41-.89 5.61 5.61 0 0 0-.5-.66c1 1.13-.26-.28-.49-.47a5.29 5.29 0 0 0-6-.35c-3.08 2-4.17 5.79-4.57 9.22-.3 2.59.52 4.81 1.54 7.13A43.44 43.44 0 0 0 67.76 61c1.47 2.24 3.31 5.08 5.81 6.29a5.37 5.37 0 0 0 6.31-.7 4.05 4.05 0 0 0 .61-4.73c0 .07.45 1.2.28.61a5.27 5.27 0 0 0-1.27-2.21c-.65-.68-1.36-1.3-2-2-.18-.21-.34-.44-.53-.63-.34-.35.4.53.37.48s-.2-.27-.3-.41c-.39-.53-.76-1.08-1.12-1.63-.71-1.1-1.37-2.23-2-3.39q-.39-.74-.75-1.49l-.36-.77-.17-.42c-.27-.59.2.47.22.54-.28-.82-.52-1.69-.81-2.5.45 1.24.11 1 .11.33v-.86c0-.72 0 .53-.08.57s.06-.38.08-.47c.08-.36.16-.72.26-1.08s.22-.62.31-.94-.25.57-.24.56a2 2 0 0 0 .26-.53c.4-.8.78-1.62 1.18-2.42.2-.4-.31.74-.27.62a9.26 9.26 0 0 0 .48-1.24v-.2c0-.03-1.06 1.88-.4.77a3.37 3.37 0 0 0 .6-1.13q-1.1 1.6-.58 1.09.14-.13-.11.08c.24.41-.38-.06 0 .05-.06 0 .45-.18.13-.08a1.36 1.36 0 0 0 1-1.27zM79.57 67.24a5.22 5.22 0 0 0 1 2.37c.59.94 1.09 1.93 1.7 2.85a14.92 14.92 0 0 0 7.36 5.25c2 .74 4.47 2 6.51.85a3.81 3.81 0 0 0 0-6.53c-1.57-1-3.65-1.23-5.43-1.75-.35-.1-.69-.22-1-.34-.17-.06-1.3-.41-.81-.25s-.7-.3-.83-.35l-.67-.27a22 22 0 0 0-3.74-.85c-.86-.17-2.31-.51-2.8-1.34a.68.68 0 0 0-1.26.34zM97.06 81.84c1.93.41 3.17 2 4.29 3.45a22.74 22.74 0 0 0 4.56 4.23 28.07 28.07 0 0 0 12.45 4.88 64.07 64.07 0 0 0 7.6.84c2.65.1 6.54.15 8.42-2.07a4.66 4.66 0 0 0 .71-5.49 4.77 4.77 0 0 0-5.09-2.07c-.37.06-.73.2-1.09.3-1.06.3 1 0 .25 0h-.65a26.38 26.38 0 0 1-3.2-.09l-2.55-.21-1.39-.11c-.17 0-1.58-.17-1.15-.11h-.27l-.88-.14c-4.07-.71-8.09-1.68-12.13-2.54-1.77-.38-3.57-.47-5.33-.92a9.43 9.43 0 0 0-4.54-.38.25.25 0 0 0 0 .47z"/><path d="M110.24 82.25c3.09 3 8.33 2.47 12.23 2.07 2.29-.24 4.6-.39 6.86-.82a28.37 28.37 0 0 0 6.76-2.5c7.07-3.41 12.92-9.72 16.78-16.45 2.28-4 4.3-9.36.92-13.33-1.55-1.82-4.18-.59-4.88 1.29-.47 1.27-.85 2.59-1.28 3.88-.12.34-.23.68-.35 1-.25.7 0 0 0-.1l-.2.43c-.37.74-.77 1.46-1.21 2.15-.24.38-.5.75-.75 1.13-.46.67.35-.4-.16.22s-1.16 1.38-1.77 2c-1 1.14-2.13 2.25-3.18 3.39s-2 2.17-3.1 3.18l-1 .92c-.17.15-1.1.91-.5.43-.78.61-1.61 1.16-2.45 1.7a34 34 0 0 1-5 2.72c.58-.25 0 0-.14 0-.44.18-.88.37-1.31.56-.13.06-1 .42-.52.23-1 .39-2 .73-3 1.1-2.09.78-4.16 1.65-6.29 2.33s-4.24 1.3-6.34 2a.23.23 0 0 0-.1.38zM149.54 49.76c.34-2.63-.93-5.63-2.43-7.72s-4.57-3.79-6.15-.82a.66.66 0 0 0 .9.9 2.72 2.72 0 0 1 2.41-.49 6 6 0 0 1 2.36 2.12 13.82 13.82 0 0 1 2.8 6 .06.06 0 0 0 .11 0zM70.93 54.64c2.14-3.35 3.62-7.22 7.24-9.28a14.11 14.11 0 0 1 9.31-1.42 2.73 2.73 0 1 0 0-5.27c-2 .41-4 .56-5.91 1.12a14.53 14.53 0 0 0-5.34 2.78 13.94 13.94 0 0 0-3.81 5.05c-1 2.21-1.11 4.6-1.7 6.92a.11.11 0 0 0 .21.09z"/><path d="M89.1 49.76c.08-.72-.15-1.43 0-2.18a6.46 6.46 0 0 1 .87-2.41 5.7 5.7 0 0 1 3.13-2.44c3.45-1.17 6.9-1.39 9.85-3.75 1.26-1 1.12-2.87.54-4.15a3.24 3.24 0 0 0-2-1.58 3.53 3.53 0 0 0-3.87 1.58c.22-.29 0-.05-.09.08l-.46.46a4.5 4.5 0 0 1-.81.61c-.75.49-1.55.9-2.33 1.32a12.5 12.5 0 0 0-4.69 3.7 9.8 9.8 0 0 0-1.45 4.89c-.08 1.16 0 3.27 1 4a.17.17 0 0 0 .26-.15zM70.86 40.13c1.18-2.68 4.69-4.41 7.54-4.35a4.88 4.88 0 0 1 3.12 1.41 25 25 0 0 1 3.28 3.17c1.21 1.56 3.82.91 4.71-.61a3 3 0 0 0-1.79-4.41 11.48 11.48 0 0 1-2.34-1.17A22.58 22.58 0 0 0 82.81 33a8.84 8.84 0 0 0-5.69-.24c-2.62.8-7.71 4-6.33 7.39h.07z"/><path d="M87 39.81c-1.54-1.25-.94-3.36.18-4.68a6 6 0 0 1 3.84-1.76 21.58 21.58 0 0 1 5-.27c1.63.09 3.6 1.16 5.09.35a2.08 2.08 0 0 0 .74-2.81c-1.25-2.08-4.92-1.25-6.91-.89a20.47 20.47 0 0 0-6.2 2.08 6.59 6.59 0 0 0-3.2 3.94c-.49 1.61-.27 3.37 1.36 4.16.07 0 .16-.06.09-.12zM81 174a10.25 10.25 0 0 0-6.37 2.61c-1.92 1.64-3.58 3.37-4.25 5.9a18.7 18.7 0 0 0 3.17 15.16c2.07 2.79 5.6 5.82 9.36 4.78a3.72 3.72 0 0 0 2.66-3.09 3.65 3.65 0 0 0-1.77-3.7 15.86 15.86 0 0 0-2.36-.78l-.48-.16q.78.34.22.07l-.66-.39c-.68-.38.46.46-.07 0-.26-.25-.52-.48-.77-.75s-.36-.41-.53-.62c.6.75-.14-.24-.24-.4A16.85 16.85 0 0 1 78 191c-.08-.16-.51-1.13-.18-.33-.11-.27-.21-.54-.31-.81a31 31 0 0 1-1.13-3.68c-.13-.54-.25-1.08-.36-1.63-.14-.71 0 .73 0-.29 0-.37 0-.74-.08-1.11a19.39 19.39 0 0 1-.22-3.7c.25-2.72 3.32-4.06 5.31-5.37z"/><path d="M75.26 191.4c-.83-2.41-5.12 1.87-5.81 2.56a13.21 13.21 0 0 0-3.85 10.28c.42 3.88 2.75 7.33 5.55 10a21.47 21.47 0 0 0 4.61 3.37 16.27 16.27 0 0 0 2.89 1.22 5.48 5.48 0 0 0 1.81.25 3.38 3.38 0 0 0 1.71-.46q1.18-.93.37-.28a3 3 0 0 0 .6-4.68c.9.84-1-.91-1.1-1a6.07 6.07 0 0 0-1.4-.52 17 17 0 0 1-2-.62c.53.22-.35-.18-.42-.22q-.46-.24-.91-.5a17 17 0 0 1-1.76-1.17c-1.72-1.32-3.86-3.56-4.52-5.92a9.56 9.56 0 0 1 0-4.45 14.9 14.9 0 0 1 .71-2.29c-.15.37.18-.42.21-.5.1-.24.18-.49.27-.74a8.44 8.44 0 0 1 1.62-2.79c.33-.35 1.63-.91 1.42-1.53z"/><path d="M77.34 213.32a8.44 8.44 0 0 0-3.75 3.3 16.74 16.74 0 0 0-2.59 5.47 8.29 8.29 0 0 0 2.79 8.91 19.24 19.24 0 0 0 8.8 3.66 36.67 36.67 0 0 0 14.22-.29 55.83 55.83 0 0 0 7.34-2.11c2.73-1 6.83-1.8 7.63-5a2.67 2.67 0 0 0-1.2-2.94c-2.36-1.43-4.59-.08-6.85.8-1.85.73-3.72 1.43-5.62 2A38.19 38.19 0 0 1 86.58 229c-.91 0-1.81 0-2.72-.11l-.88-.08h-.39c-.84-.08.33.05-.17 0a26.32 26.32 0 0 1-4-.81c-1.93-.6-3.78-1.66-4.08-4-.49-3.86 1.66-7.18 3-10.59zM87.41 173.09c.28.58 1.16.51 1.72.59.86.13 1.71.27 2.55.47a12.91 12.91 0 0 1 5.25 2.4 15.36 15.36 0 0 1 5.19 8.74c.48 2.91 4.33 3.71 6.4 2.12a4.09 4.09 0 0 0-.41-6.72c-.2-.14-.38-.29-.09-.05l-.72-.6c-.38-.32-.75-.64-1.1-1a28.66 28.66 0 0 0-2.47-2.22 23.33 23.33 0 0 0-6.09-3.56 16.54 16.54 0 0 0-6.48-1c-.31 0-4.09.12-3.77.78z"/><path d="M95.15 171.84c1.37.65 2.92.67 4.33 1.19a6 6 0 0 1 3.12 2.44 57.57 57.57 0 0 0 4.17 5.24q.5.58 1 1.18l.55.68.17.22q-.28-.36.16.22l.51.7c.33.47.66.94 1 1.41 1.4 2.06 4.26 3.17 6.52 1.71 2-1.27 3.31-4.39 1.71-6.52-3.07-4.08-6.6-8.76-11.53-10.66a11 11 0 0 0-6.43-.43c-1.69.38-3.4.8-5.08 1.22a.79.79 0 0 0-.19 1.42z"/><path d="M101 157.14a2.94 2.94 0 0 0 .74-1.36c.21-.6.37-2.07 1-2.31l-.62-2.24c-1.57.51-1.57 2.66-1.73 4a18.31 18.31 0 0 0-.13 4.51 20.23 20.23 0 0 0 3.35 8.76 25.37 25.37 0 0 0 8 7.5 42.13 42.13 0 0 0 5.67 2.67 16.64 16.64 0 0 0 5.08 1.45c3.86.26 5.69-4.94 3.1-7.49-1.4-1.38-3.23-1.68-5-2.34-.4-.15-.79-.31-1.18-.47-.76-.3.15.08-.3-.12l-2.14-1a25.7 25.7 0 0 1-4.4-2.53l-.9-.68c.46.36.06 0-.17-.15a21.33 21.33 0 0 1-1.58-1.45q-.66-.68-1.26-1.41c.46.57-.21-.29-.24-.34q-.29-.42-.56-.85a29.42 29.42 0 0 1-1.72-3.17 31.35 31.35 0 0 1-1.46-3.49c-.38-1.24-.46-3-1.87-3.47-.9-.31-1.93.9-1.31 1.7.86 1.13-.39 2.94-.48 4.18z"/><path d="M101.29 161.45a10.64 10.64 0 0 1-.31-5.16 18 18 0 0 1 1.57-5.54 25 25 0 0 1 3.39-5.48c.78-1 1.52-1.94 2.35-2.87s1.92-1.88 2.73-2.92a3.06 3.06 0 0 0 0-4.19 3 3 0 0 0-4.19 0 25.65 25.65 0 0 0-2.77 3.85 24.77 24.77 0 0 0-2.06 3.71 26.74 26.74 0 0 0-2.1 7.43 46.74 46.74 0 0 0-.28 6.32c.06 1.65.27 3.72 1.58 4.9 0 0 .12 0 .09-.06z"/><path d="M115.56 155.92c.39-4.2-.71-8.38-.3-12.58a28.64 28.64 0 0 1 3.32-10.82c.24-.42.48-.83.75-1.23.09-.14.86-1.13.35-.52a20.26 20.26 0 0 1 1.67-1.79 80.9 80.9 0 0 1 1.93-1.77q.46-.41.93-.79l.54-.44q.61-.48-.12.09a4.89 4.89 0 0 1 .83-.63c.6-.46 1.18-.93 1.78-1.39-1 .73.1-.07.3-.23l1.66-1.28c1.41-1.09 2.79-2.21 4.08-3.44a4.79 4.79 0 0 0-6.77-6.77c-2.61 2.56-5.67 4.59-8.31 7.1a23.76 23.76 0 0 0-7.37 16.8 37.76 37.76 0 0 0 .82 6.31c.83 4.59 3.31 8.71 3.71 13.39a.09.09 0 0 0 .19 0z"/><path d="M132.56 115.75c1.41.44 2.82.42 4.2 1.1a13.91 13.91 0 0 1 4.63 4.38 55.59 55.59 0 0 1 4.09 6.52c1.5 2.67 3.07 6 5.76 7.6 4 2.42 8.8-2.41 6.4-6.4a17.7 17.7 0 0 0-2-2.42q-.38-.44-.74-.89c.63.8-.08-.13-.21-.31-1.06-1.49-2-3-3.17-4.46a19.84 19.84 0 0 0-8.22-6.21 13.26 13.26 0 0 0-7.77-.36c-.85.17-2 .15-2.75.73-.11.09-.57.61-.21.72z"/><path d="M154.41 129.47a15.6 15.6 0 0 1 8.75-2.91 17.06 17.06 0 0 1 3.74.13c1.83.38 3.51.37 5.13.69.41.08.8.2 1.2.29s.87.13 1.31.21c-.69-.14 0 0 .12.05 1 .23 1.9.44 2.84.73s1.63.52 2.44.81c-.71-.26 0 0 .11 0l.56.27q.56.28 1.1.58c.68.38 1.36.79 2 1.21q.54.35 1.07.72l.45.32c.56.38-.6-.5-.08-.06a33.37 33.37 0 0 1 3.66 3.47c.25.28.49.57.73.85.59.69-.35-.52.18.22s1 1.42 1.44 2.17.78 1.39 1.12 2.12a1.8 1.8 0 0 1 .23.5c0-.48-.24-.62-.06-.12s.29.79.42 1.2a20.07 20.07 0 0 1 .58 2.27c.08.44.23 1 .06.21a11.64 11.64 0 0 1 .15 1.62q.08 1.27 0 2.55 0 .57-.06 1.14v.56c0 .18-.16 1.2 0 .47s-.09.46-.12.64q-.1.54-.22 1.07-.28 1.23-.68 2.43-.2.6-.42 1.18c-.06.17-.13.33-.19.5-.19.53.14-.3.14-.31a7.54 7.54 0 0 1-1.08 2.28 60.55 60.55 0 0 1-5.3 8.27q-.86 1.16-1.74 2.3c.61-.79-.24.3-.44.56s-.55.68-.83 1a35.87 35.87 0 0 1-4.05 4.07l-.45.37c-.68.58.36-.24-.1.09s-.73.53-1.1.79a25.59 25.59 0 0 1-2.48 1.48l-.51.26c-.12.06-1.09.52-.48.24s0 0-.14.05l-.72.26c-1 .33-1.94.59-2.9.95A4.65 4.65 0 0 0 167 187a5.48 5.48 0 0 0 .33.64s-.31-.65-.05-.2.53 1.28.81 1.9c.37.81.78 1.6 1.17 2.41.2.4.38.82.58 1.22.3.6-.19-.6 0 0 .06.18.14.36.2.55a18.68 18.68 0 0 1 .67 3c.09.51 0 0 0-.08l.1.87q.07.65.12 1.31c.08 1.09.13 2.19.15 3.29s0 2-.09 3.06c0 .22 0 .43-.06.65s-.1.8 0 .2c-.08.57-.2 1.14-.31 1.7a40.75 40.75 0 0 1-1.21 4.75c-.24.73-.53 1.44-.78 2.16-.1.31-.2.61-.32.91a5.4 5.4 0 0 1-.32.77 8.74 8.74 0 0 1-6.34 4.83c-6.31 1.08-13.88-.28-18.66-4.75-5.08-4.75-8-10.86-10.21-17.3a111.24 111.24 0 0 1-3.78-13.28 20.09 20.09 0 0 0-1.4-4.61c-.85-1.77-3-3.08-4.95-2.26h1.94l-.19-.09a2 2 0 0 0-2.63.69 1.94 1.94 0 0 0 .69 2.63l.19.09-1-1.66a6 6 0 0 0 .4 1.34c-.16-.51.08.6 0 .18s.1.71.08.62c0 .17.13.35.19.51.13.37.24.73.34 1.11.36 1.36.58 2.75.88 4.13a91.74 91.74 0 0 0 3.87 13.07c2.68 7.09 6.24 14.06 12.12 19a21.4 21.4 0 0 0 10.55 4.81 43.73 43.73 0 0 0 11.63.25 15.57 15.57 0 0 0 9.36-4.55 42.59 42.59 0 0 0 3.33-3.49 22.13 22.13 0 0 0 2.72-4.75 30.36 30.36 0 0 0 2.34-15.38 25.7 25.7 0 0 0-1.68-7.65c-.47-1.12-1-2.22-1.53-3.31-.22-.46-.44-.91-.65-1.38-.44-1 0 0 0 0l-.13-.35q.1.85 0 .09l-4.47 4.58c4.3 0 8.7-2.35 12.07-4.88a44.52 44.52 0 0 0 8.53-8.58c4.75-6.14 9.46-12.69 11-20.46a28.93 28.93 0 0 0-5.11-23.6c-5.38-7-13.06-12-22.09-12.19h-.84l-.84.13c-1.59.24-1.08.12-2.48.36-1.18.2-2.34.47-3.51.72a21.16 21.16 0 0 0-5 2.21c-3.11 1.6-6.4 3.49-8.49 6.37-.1.13.1.24.21.16z"/><path d="M122.67 182.7c.13 1.5 1.17 2.85 2 4.06a19.35 19.35 0 0 1 2.48 5.57 43.48 43.48 0 0 1 1.85 12.85 19.07 19.07 0 0 1-1 5.88c-.33 1-.71 1.92-1 2.9-.14.46-.3.91-.47 1.35.06-.17.33-.79 0 0l-.47 1.11q.33-.78.13-.31c-.34.72-.66 1.44-1.06 2.14q-.25.45-.54.88l-.24.36c-.53.83.72-.78.05-.07-.45.48-.9.93-1.39 1.38s.2-.21.29-.21a2.92 2.92 0 0 0-.48.34c-.34.23-.7.45-1.06.65s-.9.45-1.36.68.21-.09.26-.1l-1 .37c-1.16.4-2.35.72-3.54 1l-1.88.42-.8.16c-.68.15 1.1-.06.07 0-2 0-4 .69-5.08 2.56l2.21-1.7q-.5.18.21 0h-.55a10.07 10.07 0 0 0-1.28 0c-1.21.1-2.64 1.31-2.05 2.7a11.22 11.22 0 0 0 .75 1.55c.1.16.19.32.3.47.49.65-.07.43-.11-.92a5.23 5.23 0 0 0 5.3 4.84 26.76 26.76 0 0 0 7.76-1.46c4.69-1.36 8.85-3.7 11.55-7.86a21.53 21.53 0 0 0 2.72-6.15 16.62 16.62 0 0 0-.08-8.43 145.81 145.81 0 0 0-4.59-14.21A31.66 31.66 0 0 0 127 188c-1.31-1.86-3.28-3.23-4.27-5.31h-.07z"/><path d="M97.84 199.1c-.59.9-.53 2.59-.51 3.62a23.17 23.17 0 0 0 .55 4.51c.66 3 1.86 6.1 4.39 7.94 5.2 3.78 12-.77 13.7-6 .85-2.59-3.2-3.68-4.07-1.12-1.12 3.27-5.23 5.58-8.1 3a16.49 16.49 0 0 1-4-5.38 21.5 21.5 0 0 1-1.25-3.67 16.81 16.81 0 0 0-.68-2.94zM93.46 266.62a47.19 47.19 0 0 1 8.31 3.48 41.11 41.11 0 0 1 7.56 5.69c2.42 2.3 4.72 4.7 7.1 7 1.38 1.36 2.81 2.68 4.19 4 1.94 1.93 3.54 4.38 6.57 4.4l-3.81-6.65v.07l2.46-1.41c-1.86.2-3.62 1.5-2.74 3.6v-1.51l-.12.31c-1 2.51 1.28 5.19 3.67 5.51a4.43 4.43 0 0 0 5-4.34c.2-2.92-2.57-5-4.52-6.77a88.989 88.989 0 0 0-4.78-4.1c-2.92-2.33-5.78-4.73-9.21-6.25a47.91 47.91 0 0 0-10.19-3.31c-2.94-.57-6.54-1.21-9.45-.22a.21.21 0 0 0 0 .4zM101.72 252.93a8.11 8.11 0 0 1 6.36-.08 15.35 15.35 0 0 1 5.13 4.2c1.46 1.63 2.64 3.54 3.93 5.31 1.42 1.94 2.65 4.62 4.93 5.7a4.19 4.19 0 0 0 5.33-1.06 4.1 4.1 0 0 0-.32-5.42 14 14 0 0 0-3.34-2.07 20.81 20.81 0 0 1-3.06-1.87 73.89 73.89 0 0 0-6.44-4.1c-3.78-2.07-8.85-3.89-12.53-.63zM118.33 251c1 2.94 4.21 5.22 6.46 7.18a44.09 44.09 0 0 1 3.73 3.79c.66.73 1.33 1.44 2 2.17a15.09 15.09 0 0 1 1.88 2 2.62 2.62 0 1 0 2.27-3.95 6 6 0 0 1-2.12-1c-.72-.42-1.41-.89-2.1-1.36-1.43-.95-2.87-1.86-4.31-2.78s-2.73-1.72-4-2.67a32.58 32.58 0 0 1-3.71-3.4h-.06zM131.65 280.18c.25-1.59.49-3.2.83-4.77a15.38 15.38 0 0 1 1.56-4.8c1-1.63-2.2-2.39-2.07-.56a36.8 36.8 0 0 1-.44 5.24 23.27 23.27 0 0 0 .09 4.9z"/><path d="M137 272.45a53.07 53.07 0 0 1 1.64-8.61c.38-1.43-2-1.75-2-.27 0 2.94.06 5.95.3 8.88zM113.15 290.07c0-2.44 1.46-4.42 2.4-6.57.16-.36-.27-.79-.59-.46a8.92 8.92 0 0 0-2 7c0 .11.19.08.19 0zM133.12 283.35c.62-.51.7-1.85 1-2.57a9.61 9.61 0 0 1 1.59-2.5c1.29-1.42 2.41-1.74 3.86-.52 4.12 3.46 8.4 8 14.36 7 2.6-.45 3.24-4.77.77-5.86-1.55-.68-3.18-.84-4.77-1.37-.59-.2-1.19-.38-1.77-.61q-.31-.12 0 0l-.43-.19-.86-.42c-1.32-.64-2.6-1.35-3.89-2a7.32 7.32 0 0 0-4.1-1.23 6.61 6.61 0 0 0-5.18 4.09 11.81 11.81 0 0 0-.93 3.31c-.1.77-.45 2.33.2 2.93a.06.06 0 0 0 .08 0z"/><path d="M147.22 276.76c-.67-3.27-.69-7.62 1.1-10.55A19.1 19.1 0 0 1 152 262c1.42-1.27 3.61-2.5 3.84-4.51.14-1.24-1.24-1.91-2.25-1.71s-1.81 1.36-2.56 2.18-1.39 1.52-2.06 2.31a15.75 15.75 0 0 0-3.34 5.58c-1 3.49-.16 7.76 1.29 11 .07.16.31 0 .28-.12z"/><path d="M124.7 247.78c1.84.45 3.6-.31 5.25-1a45.16 45.16 0 0 0 6.27-3.57c1.72-1.11 3.45-2.21 5.15-3.33.7-.47 1.4-.95 2.08-1.44.53-.38 1-.77 1.55-1.16l.48-.38c1.46-1.11 2.95-2.19 4.49-3.18l-5.7-.74c.06.07.45.51.44.52s-.5-.74-.22-.26.47.69.69 1c.46.73.88 1.49 1.27 2.25.84 1.61 1.58 3.27 2.44 4.87a56.41 56.41 0 0 0 7.34 10c2.69 3.1 5.53 6.07 8.17 9.21s5.32 6.64 7.93 10c1.29 1.66 2.62 3.28 3.93 4.92 1.78 2.22 4.75 4.12 7.57 2.44a4.23 4.23 0 0 0 .83-.63 3.82 3.82 0 0 0 .56-.87c.43-.76 0 .1-.11.24a5.51 5.51 0 0 0 0-4.9c-.85-2-2.5-3.61-3.85-5.29-2.71-3.38-5.31-6.84-8-10.2-2.58-3.18-5.33-6.2-8.08-9.24-1.54-1.7-3.06-3.43-4.49-5.22l-.4-.51c-.33-.41.34.47-.18-.23-.34-.46-.69-.93-1-1.4a30.07 30.07 0 0 1-1.66-2.59c-2.06-3.69-3.5-7.64-6.46-10.76a4.74 4.74 0 0 0-5.7-.74c-4.79 3.34-8.73 8-12.07 12.77a59.27 59.27 0 0 1-4 5.21c-1 1.16-2.61 3-4.34 2.91a.68.68 0 0 0-.18 1.33zM173.5 253.67c.7 2.66 3.28 4.59 5.44 6.07a39.13 39.13 0 0 0 4.4 2.58 9.35 9.35 0 0 0 3.55 1.37c.43 0 .49-.52.2-.74a16.17 16.17 0 0 0-3.27-1.45 40.3 40.3 0 0 1-4-2c-2.33-1.35-5.24-3.17-6.12-5.89a.11.11 0 0 0-.22.06zM203.82 184.14a4.12 4.12 0 0 0-2.62-1.65l.9.53a2.27 2.27 0 0 0-1-.6c-.16 0-1.51-.06-1 0 .39 0-.26 0-.4-.05a13.94 13.94 0 0 0-1.94.19h1.41a2.74 2.74 0 0 0-1.57 0c-.15 0-1.3.43-.27.11l-.7.23-.58.22-1 .43c1.25-.5-1.33.24.12-.07a4.1 4.1 0 0 0-1.44.4l.7-.09a2.94 2.94 0 0 0-1.5.34l-.47.2q-1.42 1.12-.3.21c-.1 0-.69.44-.79.5a27.12 27.12 0 0 0-6.33 5.88c-3.7 4.7-6.58 11.28-4.21 17.25a14.75 14.75 0 0 0 7.32 7.79 24.28 24.28 0 0 0 13.85 2.58 26.78 26.78 0 0 0 6.4-1.75c1.17-.47 2.33-1 3.49-1.46.29-.12 1.86-.87.66-.29.52-.25 1.08-.45 1.62-.65a28.22 28.22 0 0 1 2.8-.93c.44-.12.89-.2 1.33-.31.87-.2 0 .22-.17 0a7.77 7.77 0 0 0 .9-.08h1.51s-1.18-.24-.31 0l.61.13a6.94 6.94 0 0 0 1.54.49c-.49 0-.66-.32-.18 0 .24.14.5.26.75.39a42.59 42.59 0 0 1 4.76 2.94c.73.52-.21-.18-.22-.18s.62.51.71.59c.31.26.62.53.92.81s.72.7 1.06 1.07a4.36 4.36 0 0 0 .39.45q-.66-.87-.21-.27l.24.35c.23.35.43.72.65 1.08.49.79-.21-.83-.08-.25 0 .22.15.43.21.64a2.64 2.64 0 0 0 .12.53c-.41-.56 0-1-.06-.29a2.68 2.68 0 0 0 0 .69q.17-1 .07-.51 0 .22-.09.43c0 .16-.1.32-.14.48-.18.76.56-1 .17-.36-.13.23-.24.47-.38.69s-.32.37-.34.5c0-.06.75-.87.3-.4-.28.28-.53.59-.82.86s-.49.46-.75.68-1.35.95-.25.23c-.13.09-.26.2-.39.29l-.83.64q.72-.56.34-.28a12.87 12.87 0 0 0-1.12.78c-1.33.91-2.66 1.81-3.95 2.78-3.16 2.38-5.76 5.4-5.88 9.55-.15 5 3.91 8.44 8 10.61a29.21 29.21 0 0 0 16.06 3.21A34.56 34.56 0 0 0 257 247c1-.63 2-1.31 3-2 .24-.16.45-.29.69-.42.92-.51-.32 0 .62-.25a16.85 16.85 0 0 1 1.9-.46c-.88.14-.07 0 .17 0h2.6c1.34 0 2.68.15 4 .25 2.72.21 5.41.23 8.13.22 1.47 0 2.93 0 4.39.09.69 0 1.38.1 2.07.18-.88-.11.11 0 .33.06l1.58.28c6 1.13 12 2.39 18.17 2.6a29.87 29.87 0 0 0 13.69-3.07c3.61-1.64 7.51-4 9.49-7.55 1.38-2.49 1.23-6.92-1.71-8.41l1.78 2.31v-.21a3.89 3.89 0 0 0-4.75-2.7 4 4 0 0 0-2.7 4.75v.21l1-3.76a4.06 4.06 0 0 0-.92 1.39c0-.09-.54 1.31-.13.35.3-.72 0-.14 0 0-.32.55.29-.64.37-.47a11.46 11.46 0 0 1-.87 1.12l-.48 1.14q.52-1.16.26-.65c-.13.17-.85 1.32-.32.57s-.28.26-.45.43-.52.46-.78.69c-.71.62.77-.49.22-.17-.2.12-.38.27-.57.4-.39.26-.79.51-1.2.75-.69.41-1.4.78-2.13 1.14l-1.12.52c-1.19.53.88-.34-.29.12a31.27 31.27 0 0 1-4.4 1.37c-1.31.31.58 0-.23 0l-1.08.09h-1.74c-1.39 0-2.77-.11-4.16-.24s-2.49-.24-3.73-.38c.9.11-.09 0-.31-.05l-1.13-.19c-.75-.13-1.5-.27-2.24-.42-3-.58-5.91-1.2-8.91-1.58a61.9 61.9 0 0 0-8.55-.29c-5 .06-10.38-1.18-15.17.7a15.75 15.75 0 0 0-3.74 2c-.37.28-.73.59-1.11.86l-.23.15c-.57.36-1.14.7-1.72 1-1 .61-2.05 1.19-3.11 1.73q-.7.36-1.41.69l-.89.4-.54.21a30.3 30.3 0 0 1-3.17 1q-.87.23-1.76.39c-.33.06-.67.12-1 .17.69-.09-.48 0-.58 0-1.14.09-2.28.11-3.42.12h-1.85l-.82-.06s-1.3-.13-.56 0a21.36 21.36 0 0 1-3.58-.79 15.74 15.74 0 0 1-1.51-.54c.48.21.09 0 0 0l-.72-.35c-.83-.41-1.66-.85-2.47-1.32-.43-.25-.85-.51-1.25-.78-.09-.06-.65-.46-.26-.17s-.37-.33-.45-.4-.34-.35-.52-.53c.11.1.38.65.08.1-.49-.91 0 .3-.1-.28.25 1 0-.11 0-.45a1.67 1.67 0 0 1 0-.45c-.16.22-.21.84 0 .14a4.24 4.24 0 0 0 .12-.41c.13-.62-.05.31-.14.31s.41-.76.45-.83.3-.45.3-.44-.65.73-.19.26c.26-.26.5-.55.77-.8s.52-.46.78-.68c.66-.57-.62.41.26-.19.61-.41 1.21-.83 1.85-1.19 1.33-.75 2.67-1.48 4-2.23 3.12-1.75 6-4.07 7.11-7.58 1.54-4.75-.71-9.58-4.1-12.89a32.77 32.77 0 0 0-9.51-6.18 18.72 18.72 0 0 0-13.81-.38c-3.63 1.21-7 3.07-10.77 3.93l-.77.16c-1 .22.12-.14.16 0l-1.25.1a13.36 13.36 0 0 1-1.43 0c-.21 0-.85-.17-.17 0s-.36-.08-.52-.12c-.89-.18-1.77-.4-2.64-.65q-.7-.2-1.38-.44l-.52-.19c-.83-.29 1 .47.16.07a18.92 18.92 0 0 1-1.81-1c-.28-.17-.55-.37-.82-.55-.58-.37.45.33.46.36a3 3 0 0 0-.46-.4c-.22-.2-.41-.41-.62-.62a3.05 3.05 0 0 0-.31-.36s.73 1.06.41.53-.51-.94-.79-1.37c.79 1.21.29.75.12.18q-.1-.32-.17-.65c0-.11 0-.22-.06-.33-.18-.73.1 1.24.09.68v-.85-.78-.35c0-.76-.22 1.2-.09.65s.21-1.12.37-1.68.42-1.06.55-1.6c0 0-.55 1.22-.25.6l.16-.35q.21-.44.43-.88c.58-1.1 1.15-2.19 1.84-3.23.17-.25.35-.5.51-.76s.52-.65-.35.42c.4-.5.53-.7.81-1.09l.54-.73c.32-.45-.75.93-.26.33l.38-.47c.36-.44.73-.87 1.11-1.28.11-.12.24-.23.34-.35l.33-.43q.7-.91-.09.11c.23-.13.45-.51.63-.72l.51-.55a4.62 4.62 0 0 0 1-1.37c.61-1.44-.45.56 0 0 .3-.36.54-.81.82-1.18l-1.12 1.12a12.46 12.46 0 0 0 1.6-1.31c-.66.62-.06.06.15-.09s.18-.08.26-.13 1.41-1.25.85-.81c-.86.67-.07.14.34-.12.25-.16.49-.22 0-.05a2.41 2.41 0 0 0 1.41-1.05l-.73.73c-.7.3.78-.05.08 0a1 1 0 0 1 .37 0c-.36-.14-.18 0 0 .05a1.46 1.46 0 0 0 1.64-2.13zM207.82 182.65a21.72 21.72 0 0 1-.66-13c1.23-4.16 4.42-6.8 8.1-8.8a31.69 31.69 0 0 1 5.64-2.39 22.81 22.81 0 0 1 2.81-.74c.44-.09.88-.16 1.32-.22-.61.09.13 0 .28 0l1.22-.1a24.14 24.14 0 0 1 3.17 0l.69.06c-.7-.07 0 0 .21 0a12.59 12.59 0 0 1 1.75.42l.59.22c-.72-.29-.21-.09-.07 0s1.4 1 .66.34c.14.13.29.24.42.38s.69.72.25.24.15.23.19.29c.16.25.31.5.45.76s.18.36.28.53c.48.9-.29-.87 0 .09.19.54.4 1.07.59 1.61a22.4 22.4 0 0 1 .84 3.26c0 .26.09.53.14.79s.07 1.25.08.48 0 .18 0 .32q0 .46.08.92a26.87 26.87 0 0 1 0 3.15 4.76 4.76 0 0 0 4.73 4.73 4.82 4.82 0 0 0 4.73-4.73c.09-4.9-.81-10.61-3.76-14.66a16.07 16.07 0 0 0-2.46-2.8c-.31-.27-1.65-1.29-.68-.54-.32-.25-.67-.54-1-.78a10.4 10.4 0 0 0-2-1 18.79 18.79 0 0 0-7.88-1.3 29.39 29.39 0 0 0-14.91 4.57c-4.37 2.82-8.4 7.15-9.33 12.44a23.68 23.68 0 0 0 .45 8 21.67 21.67 0 0 0 2.6 7.67c.11.18.42.06.34-.15z"/><path d="M244 165.85c.71-3.41 3.54-6.09 6.65-7.43a12.84 12.84 0 0 1 4.41-1.06 11.44 11.44 0 0 1 2.09.08 10.21 10.21 0 0 1 2.17.64c.32.16.63.33.93.52l.45.3c-.36-.26.1.09.18.16a9.48 9.48 0 0 1 1.6 1.85 4.2 4.2 0 0 1 .19.64c-.13-.52 0 .08 0 .25v.78c0 .26-.1.6 0 .09a16.17 16.17 0 0 1-.92 2.83 26.19 26.19 0 0 0-1.88 5.41 28.23 28.23 0 0 0-.44 5.17c0 1.89.21 4.28 1.62 5.71a3 3 0 0 0 3.26.73 2.15 2.15 0 0 0 .75-.47 1.21 1.21 0 0 0 .27-.33c0-.08.34-1.19.16-.43.06-.25-.14.33-.14.32.32-.43.18-.57.3-1 .25-.89.09.69 0-.3a7.66 7.66 0 0 0-.1-1.28c-.07-.29-.16-.57-.24-.86s-.09-.4-.13-.59 0 .41 0-.14a21 21 0 0 1 0-2.47c0-.22.11-1.17.08-1-.06.43.07-.39.07-.38q.06-.35.13-.71c.77-3.71 3.87-7 3.7-11.12-.19-4.75-4.87-8-9.22-8.67-7.9-1.14-15.82 4.53-16.28 12.67a.15.15 0 0 0 .3 0zM234 211.65a22.83 22.83 0 0 1 .29-4.11 12.61 12.61 0 0 1 1.7-4 12.1 12.1 0 0 1 5.25-4.49 14.68 14.68 0 0 1 2.63-.84 18.4 18.4 0 0 1 3.3-.5 29.11 29.11 0 0 1 3.21 0c.65 0 1.3.07 2 .13l.65.06.65.08q-.55-.08.06 0a43.65 43.65 0 0 1 6.66 1.55l1.37.47s1.29.53.53.19c.35.16.7.33 1 .51a37.17 37.17 0 0 1 3.5 2.12c2.27 1.51 4.37 3.26 6.63 4.79a29.7 29.7 0 0 0 8.81 4 59.7 59.7 0 0 0 8.45 1.46 10.36 10.36 0 0 0 4.1-.16c2.91-.83 5.17-4.08 3.47-7-1-1.79-3.08-2.33-5-2.3h-1.79l-.62-.06c-.91-.08 1.15.18-.2 0l-1.24-.2c-.52-.08-2.29-.34-1-.14l-.82-.13a29.44 29.44 0 0 1-4.71-1.17l-.94-.35c-.73-.25 1 .5-.17-.08-.68-.34-1.35-.67-2-1-1.28-.76-2.51-1.62-3.72-2.48a37.6 37.6 0 0 0-7.65-4.43 32.13 32.13 0 0 0-8.14-1.83 49.25 49.25 0 0 0-6.91-.44c-5.61.09-11.37 1.35-15.69 5.11a13.78 13.78 0 0 0-4.38 7c-.61 2.48-.92 6.11.73 8.27z"/><path d="M289.17 201.28a62.59 62.59 0 0 1 .89-7.45 48 48 0 0 1 2.23-7.32c1.59-4.34 4.27-8.91 7.73-11.56a14.51 14.51 0 0 1 6.3-3l.67-.12c.52-.08-.76 0 .1 0 .55 0 1.09-.05 1.64 0s1.11.06 1.66.13c-.89-.11 0 0 .19 0 .37.07.73.16 1.1.24a27.77 27.77 0 0 1 3.3 1c.92.34-.7-.35.18.08l.79.37q.91.46 1.79 1t1.46 1c.15.11.92.73.13.08l.67.55a22.76 22.76 0 0 1 2.59 2.67c.63.75-.52-.77 0 0 .2.31.42.61.62.92a17.14 17.14 0 0 1 .93 1.68c.26.53 0 .77 0-.07a5.23 5.23 0 0 0 .36 1 18.22 18.22 0 0 1 .44 1.8c.2 1-.08-1.16 0-.19 0 .35.06.7.07 1.05 0 .62-.1 1.26-.06 1.87-.08-1.18.1-.68 0-.18s-.17.72-.28 1.08-.19.54-.28.81q-.28.7.14-.32l-.26.54a4.85 4.85 0 0 0 1.7 6.49 20.54 20.54 0 0 0 4 1.7c.61.2 1.22.4 1.83.62-.18-.07-.83-.43-.06 0 .36.19.69.41 1 .61-.68-.39-.17-.14 0 0l.77.67q.7.63 1.36 1.3c1 1 1.89 2.07 2.79 3.16.11.13.55.71 0 0l.49.65q.48.65.95 1.32c.59.84 1.17 1.7 1.72 2.57s1.06 1.74 1.53 2.64c.24.45.46.91.68 1.37a5.91 5.91 0 0 1 .27.62c-.38-1.18-.09-.17 0 .11a21.09 21.09 0 0 1 .76 2.8c.22 1 0-.83 0-.18a7 7 0 0 0 0 .76v1.05q-.05.56.07-.52a6.52 6.52 0 0 0-.33 1.46 3.65 3.65 0 0 1-.2.57c-.14 0 .49-.9.08-.26a7.5 7.5 0 0 0-.41.69c-.28.55.73-.75 0 0-.43.46-.87.9-1.34 1.32s-.91.79-1.38 1.17.78-.53-.27.2l-.66.46a26.71 26.71 0 0 1-3.43 2l-.71.33c.47-.21-.13.05-.19.07-.61.23-1.23.45-1.86.63s-1 .27-1.51.38a10.08 10.08 0 0 1-1.6.26c-2.82.24-5.25-.44-8-.91-1.55-.26-3.1-.55-4.66-.76a6.34 6.34 0 0 0-2.23-.06 6.2 6.2 0 0 1-2.13.16c-1.26-.12-1.44 1.58-.59 2.18a7.14 7.14 0 0 1 1.23.91A5.18 5.18 0 0 0 316 229c1.39.52 2.84.83 4.26 1.25 2.94.87 5.61 2 8.69 2.38 5.9.67 11.92-1.26 16.9-4.35 2.52-1.56 5-3.45 6.39-6.17a14 14 0 0 0 1-9c-.84-4.84-3.73-9.32-6.58-13.23a45.76 45.76 0 0 0-6.94-7.89 17.82 17.82 0 0 0-5.48-3.33c-.72-.28-1.46-.5-2.19-.75l-.73-.26c1.08.38-.42-.24-.64-.36l1.7 6.49a17.19 17.19 0 0 0 1.79-9.73 17.68 17.68 0 0 0-3.25-8 27.3 27.3 0 0 0-14.73-10.13 20.09 20.09 0 0 0-16.71 2.57 23.89 23.89 0 0 0-9.42 14.12 36 36 0 0 0-.9 4.67c-.19 1.56-.15 3.17-.25 4.74-.2 3.08-.27 6.19-.24 9.28a.23.23 0 0 0 .45 0z"/><path d="M321.46 231.4c5.85 2.42 9.86-4.81 12.09-9a44.88 44.88 0 0 0 3-7.21 44.42 44.42 0 0 0 2.23-9.22c.21-2 .15-4.48-1.28-6.06a4.81 4.81 0 0 0-5-1.3 1.27 1.27 0 0 0-.75 1.86 2.87 2.87 0 0 1 .34.64c.14.31-.13-.11.11.26 0 .06.16.51 0 .09s0-.1 0 0a8.63 8.63 0 0 0 .29 1.44 6.32 6.32 0 0 0 .52 1.22c.25.45 0 0 0-.08.06.15.11.29.16.44a12.78 12.78 0 0 1 .45 1.92c-.07-.44 0 .38 0 .5q0 .47.06.95v2.18a30.23 30.23 0 0 1-.41 3.71c-.75 4.85-1.63 9.76-4.5 13.87-1.7 2.44-4.21 4.37-7.3 3.39-.26-.08-.35.3-.11.4z"/><path d="M309.78 208.9a4.07 4.07 0 0 1 4.87.53 8 8 0 0 1 2.19 4 28.84 28.84 0 0 1 .77 8.43v-.15l-.11.73c-.08.51-.16 1-.25 1.53-.24 1.42-.51 2.84-.65 4.27-.26 2.58-.59 5.39.69 7.76 1.77 3.28 6.8 1.69 6.85-1.85 0-2.47-.17-5.05-.37-7.52a32.08 32.08 0 0 0-1.14-7.34c-1.1-3.42-2.44-7.13-5.1-9.67-2-1.87-5.78-3.25-8-1-.13.13 0 .38.21.27zM256.89 219.76c2.5-.86 5.37-.33 7.88.2s4.92 1.32 7.38 2c3 .87 6.08 1.69 9.07 2.74 1.42.5 2.74 1 4 1.58 1.68.78 3.16 2 4.89 2.6 1.92.71 4.11-.64 4.85-2.38a4.11 4.11 0 0 0-1.68-5.13c-1.62-.93-3.77-1.13-5.6-1.4s-3.82-.48-5.74-.58c-3.21-.18-6.42-.17-9.63-.4-2.67-.19-5.33-.56-8-.66-2.49-.09-5.28-.08-7.53 1.12a.15.15 0 0 0 .12.28zM235.88 214.41a5.54 5.54 0 0 0 1.71-.15 18.47 18.47 0 0 1 2.81.12 43.27 43.27 0 0 0 4.69.37c2.09 0 4.17-.15 6.26-.06a11.83 11.83 0 0 1 2.86.46c1 .29 1.76.93 3 .71a2 2 0 0 0 1.39-2.44c-.87-2.67-4.75-2.19-6.94-2-2.46.2-4.87.67-7.31.95-1.86.21-3.74 0-5.61.21a5 5 0 0 0-2.54.74c-.2.17-.86.93-.31 1.11z"/><path d="M237.22 212.62a14.72 14.72 0 0 0 1.66 6.61c.53 1.2 1.13 2.38 1.7 3.57a15.8 15.8 0 0 0 1.52 3.13.4.4 0 0 0 .68-.28 7.53 7.53 0 0 0-1.16-2.62c-.59-1.09-1.22-2.16-1.8-3.25-1.19-2.21-2.39-4.6-2.4-7.16a.09.09 0 0 0-.19 0zM229.36 182.68c-2.09-1.09-3.12-4.31-3.65-6.42a10.64 10.64 0 0 1-.38-3.81 2.88 2.88 0 0 1 .39-1.33c.24-.33.62-.49.87-.84a1 1 0 0 0-.9-1.57c-1.44 0-2 1.78-2.06 3a12.2 12.2 0 0 0 .86 4.53 17.3 17.3 0 0 0 2.25 4.44 4.4 4.4 0 0 0 2.61 2.07zM231.09 183.42a54.19 54.19 0 0 0-.14-5.53 9.34 9.34 0 0 1 .26-3c.23-.76.82-1.36.89-2.17l-1 1q-.58-.19-.11 0a.64.64 0 0 0 .32 0c.39 0 .81-.32.77-.77.06.64 0 0 .05-.24a1 1 0 0 0-.17-.61c-.58-.79-2.06-.86-2.3.3-.73 3.56 1.07 7.39 1.35 10.92a.06.06 0 0 0 .11 0zM221.07 189.79c0-.07.16-.21.15-.29q-.42.33-.05.38l.3.11a13.91 13.91 0 0 1 1.47.69 10.9 10.9 0 0 0 2.42 1.18.49.49 0 0 0 .48-.82c-.67-.65-5.27-3.56-5.71-1.84-.08.32.17.76.55.72.12 0 .32 0 .39-.12zM161.13 171.41a8.05 8.05 0 0 0 2 1.36 19.71 19.71 0 0 1 2.25 1.78c1.52 1.36 2.74 3.09 4.36 4.31 1.38 1 3.58.22 4.38-1.15a3.24 3.24 0 0 0-1.15-4.38 25.2 25.2 0 0 0-3.1-1.15c-1-.38-2-.78-3.07-1.14-1.45-.5-4.12-1.6-5.57-.72a.71.71 0 0 0-.14 1.09zM130 175.52c.17-.07.78.23 1 .32a8.55 8.55 0 0 1 1.82 1.32 41.3 41.3 0 0 1 3.63 3.63 15.25 15.25 0 0 1 2.8 4.18 18.18 18.18 0 0 1 1.21 3.93c.26 1.32.13 3 .9 4.09a1.7 1.7 0 0 0 3.06-.4c.46-1.41-.23-3-.72-4.38a21.75 21.75 0 0 0-1.84-3.85 20.19 20.19 0 0 0-3.79-4.43 44 44 0 0 0-4.08-3.27c-1-.69-2.29-1.71-3.57-1.69a.34.34 0 0 0-.29.17c-.05.11-.12.2-.18.3s0 .1.06.08zM140.07 173.31c1.12.5 2.35.39 3.44 1.09a6.1 6.1 0 0 1 2 2.59 21.73 21.73 0 0 1 1.53 6.2c.54 3.48 1.92 10.94 7 9.5a1.11 1.11 0 0 0 .26-2c-3.73-2-4.2-6.82-5.24-10.48-.58-2-1.46-4.45-3.11-5.85-1.42-1.2-4.22-2.11-6-1.08zM143.47 160.74c0-.64-.15-1.31-.18-2 0-1-.06-1.91-.08-2.87-.05-2.55 0-5.11.21-7.66s.39-5.06.79-7.57a15.18 15.18 0 0 1 1.09-4.36 1.19 1.19 0 0 0-2.05-1.2 9.16 9.16 0 0 0-.91 3.6c-.24 1.87-.34 3.77-.39 5.65a87.07 87.07 0 0 0 .4 12.57c.12 1 .26 3.07 1.09 3.8zM149.26 164.35c-2-2.17-1.19-6.39-.6-9 .68-3 1.68-6.32 3.51-8.78a4.24 4.24 0 0 0 .86-1.28 1.09 1.09 0 0 0-1-1.45c-1.3 0-1.8 1.78-2.18 2.74a34.5 34.5 0 0 0-2.19 9.36c-.26 2.54-.59 6.5 1.56 8.41zM158.89 163.62c-.8.12-.58-1.36-.6-1.91 0-.88-.07-1.76-.06-2.64a12.5 12.5 0 0 1 .28-2.63 12.68 12.68 0 0 1 1-2.24.42.42 0 0 0-.57-.57c-1.87 1-1.52 4.39-1.36 6.08.11 1.16.26 2.33.43 3.48.1.68.27.76.91.47zM168 152.06a8.11 8.11 0 0 1 1.44-4.64 8.86 8.86 0 0 1 1.51-1.73 6.63 6.63 0 0 0 1.56-1.38.42.42 0 0 0-.36-.62c-1.54.06-2.81 2.07-3.47 3.29a8.76 8.76 0 0 0-1.06 5.09c0 .24.38.25.38 0zM158.4 133.76c.5.12 1-.06 1.54.08a13.44 13.44 0 0 1 2 .82 7.49 7.49 0 0 0 3.6 1 3.72 3.72 0 0 0 2.78-1.95c.39-.6.74-1.25 1.1-1.87a1.36 1.36 0 0 0 .09-1.52c-.89-1.11-1.81.67-2 1.35-.51 1.46-1.12 3-2.95 2.83-1-.1-5.55-2.34-6.12-.8zM313.38 53.26c-.85-.46-1.35-2.08-1.52-3a36.94 36.94 0 0 1-.25-3.73 23.72 23.72 0 0 1 .21-6.87 17 17 0 0 1 1.67-4.55 12.23 12.23 0 0 1 1.33-2 11 11 0 0 1 .85-.9q.25-.24.52-.46-.36.27-.08.07c.89-.62 1.84-1.14 2.78-1.66l1.62-.89c.26-.14.56-.27.81-.43.55-.37-.75.28 0 0a3.36 3.36 0 1 0-3.32-5.63l-.35.3c.38-.35.36-.28 0 0s-1 .7-1.45 1.06c-1 .76-2 1.52-3 2.33a16.12 16.12 0 0 0-4.79 7.32 19.47 19.47 0 0 0-1.1 7.92 18.43 18.43 0 0 0 1.82 6.86c1 1.87 2.07 3.76 4.15 4.47a.13.13 0 0 0 .1-.24z"/><path d="M323.34 27.79A48.24 48.24 0 0 0 328 24.1a36.52 36.52 0 0 0 3.58-4.1 8 8 0 0 1 4.11-3 8.32 8.32 0 0 1 2.85-.28c.52 0 1.64.13 1.94.66a3 3 0 0 1 0 1 20.43 20.43 0 0 0 0 2.13 7.37 7.37 0 0 0 1.8 4.35c1.79 2 4.53 2.45 7.07 2.67 2.26.2 4.5.11 6.16 1.22a2.55 2.55 0 0 1 .71.82 16.65 16.65 0 0 1 .87 2.14 27.78 27.78 0 0 0 2.17 5.18 15.74 15.74 0 0 0 10.27 6.94 23.7 23.7 0 0 0 3.21.36h-.16l.55.11c.36.08.7.2 1.05.3.65.19-.64-.36.19.08.28.14.55.28.82.44s.51.36.78.51-.23-.19-.25-.21l.52.43a17.48 17.48 0 0 1 1.76 1.64c.25.29.49.58.72.88-.14-.18-.63-.82 0 .05.91 1.18-.32-.46.22.29.95 1.33 1.84 2.7 2.71 4.08s1.74 2.75 2.66 4.09c1.34 2 2.8 4.22 5.45 4.26a3.32 3.32 0 0 0 3.17-2.41c.42-2.27-.74-3.81-1.88-5.62-.81-1.29-1.57-2.61-2.34-3.92a38.51 38.51 0 0 0-5.65-7.78 15.43 15.43 0 0 0-8.38-4.61c-3.73-.56-7.25.14-10.11-2.55-2.51-2.35-2.83-6.25-5.48-8.52-2.26-1.93-5-2.32-7.91-2.48a31.67 31.67 0 0 1-3.33-.27 9.73 9.73 0 0 1-1.47-.4 2.75 2.75 0 0 1-1-.73c-1.57-1.75-.65-5.17-2.66-7-1.54-1.4-4-1.47-6-1.19a9.57 9.57 0 0 0-5.54 2.76 28.25 28.25 0 0 0-3.49 5.14 42.46 42.46 0 0 1-4.69 5.81c-.19.21.06.6.32.41zM314.12 50c.85-1.84-2.73-2.35-3.76-2.49a10.94 10.94 0 0 0-7.59 1.28 11.63 11.63 0 0 0-4.77 8.27c-.43 3.27 1.4 6 4 7.82 2.78 1.94 6.3 2.76 9.59 3.33l-2.5-4.41a6.51 6.51 0 0 1-.24.89c.23-.71.12-.29 0-.11-.27.42-.51.85-.78 1.27-.56.85.51-.65-.11.15-.27.35-.54.69-.8 1a9.27 9.27 0 0 0-.92 1.44 7.51 7.51 0 0 0 1.52 8.86 13.39 13.39 0 0 0 6.74 3.32 20 20 0 0 0 9.73-.15 17.22 17.22 0 0 0 4.23-2c.13-.09 1.28-.78 1.27-.8s-1 .31-.3.15a2.28 2.28 0 0 1-1.22 0q-.71-.34-.28-.11l.15.09q-.39-.32.07.08l.47.45c.37.37.72.76 1.06 1.16A24.93 24.93 0 0 0 331.9 82a10.93 10.93 0 0 0 8.6 2.85 15.69 15.69 0 0 0 4.35-1.2c.66-.28 1.32-.57 2-.88l.81-.38c-.83.38.15-.06.35-.12a10.34 10.34 0 0 1 1.06-.31c.13 0 1.3-.21.31-.08.92-.11 1.85-.19 2.76-.34a9.64 9.64 0 0 0 4.6-2.12c2.33-1.89 5.54-6.87 3.46-9.79a3.54 3.54 0 0 0-4.75-1.24 4.33 4.33 0 0 0-1.21 1.06c-.16.2-1 1.91-.54.95-.21.4-.42.8-.65 1.2-.12.2-.24.4-.36.59 0 0-.65.89-.28.42s-1 1-.48.57a5.61 5.61 0 0 1-.63.37c.58-.34.22-.08 0 0 0 0-1.09.2-.44.11s-.16 0-.29 0a30.67 30.67 0 0 0-4.06.42 17.63 17.63 0 0 0-3.09 1l-1.35.56c-1.06.45.53-.19-.13.06s-1.23.4-1.85.6c-.23.07-.77.06.08 0h-.74c-.75 0-.23 0 0 .05a6.32 6.32 0 0 1-.84-.19h-.16q-.68-.25.15.08A3 3 0 0 1 338 76l-.5-.32c-.76-.46.52.52-.06-.07a33.53 33.53 0 0 0-5-4.55 6.74 6.74 0 0 0-7.67 0c-.45.28-.89.56-1.36.82-.31.17-.62.33-.94.47.18-.08.6-.21-.15 0-.57.18-1.16.29-1.72.47s.91 0-.25 0h-1c-.6 0-1.2 0-1.8-.07-.83-.06-.31 0-.12 0-.35 0-.69-.11-1-.18s-.84-.18-1.25-.3l-.55-.18c-.91-.28.74.42-.12 0a10.81 10.81 0 0 1-1.29-.77c.78.57.23.17.07 0s.43.74 0-.07c-.28-.51.34 1 .09.08l.09.52q-.16.84-.06.38c.12-.41-.09-.69-.11.05 0-.22.3-.58.4-.75.51-.85 1.14-1.62 1.58-2.51a7.86 7.86 0 0 0 .72-5.22c-.38-2-2.64-2.86-4.41-2.5l-.68.13c-.36.07-.64.05-.08 0-.62 0-1.22.06-1.84 0s-1.08-.07-1.61-.12.21.06-.33 0l-.94-.18c-.52-.11-1-.26-1.53-.42a5 5 0 0 1-1.15-.52 3.43 3.43 0 0 1-1.65-1.7c-.69-1.71.17-4.52 1-6.19a6.68 6.68 0 0 1 5.2-3.45c1-.14 6.31-.61 5.94 1.12 0 .1.13.17.17.07zM335 48.48c-2 2.77.91 6.07 2.82 7.92a11.42 11.42 0 0 0 3.79 2.6 26.45 26.45 0 0 0 3.57.91c.66.15 1.31.32 2 .53 1.06.34-.56-.29 0 0a5 5 0 0 0 3.7.56 8.61 8.61 0 0 0 1.9-1.11c.17-.1 1.85-1.94-.66.51.78-.75 1.44-1.08 1.74-2.22a4.42 4.42 0 0 0-1.51-4.72c-2.65-2.05-6.69-1-9.77-.8a1.8 1.8 0 0 0-.29 0c-.33.09.7.17.19 0-.31-.09-.63-.15-.94-.24a6.63 6.63 0 0 1-1.94-.81c-.9-.55-2.73-1.44-2.8-2.67a1 1 0 0 0-1.79-.49z"/><path d="M377.06 76.06a9.89 9.89 0 0 0-2.36-5.71 18 18 0 0 0-4.52-4.42c-4.89-3.14-10.57.12-14.36 3.51a19.68 19.68 0 0 0-4.77 7.56 17.83 17.83 0 0 0-1.23 9.31 16.43 16.43 0 0 0 3.93 7.9c.36.45.73.89 1.1 1.32l.59.69.12.14q.53.65-.1-.14c.11 0 .41.68.47.77.33.54-.28 0-.14-.33a5.49 5.49 0 0 0 .21.78c-.22-.23-.07-1.18-.06-.18 0 .61-.3.75.09-.18a3.78 3.78 0 0 0-.1.53c-.08.36-.45 1-.42 1.32l.24-.58q-.12.27-.26.52c-.11.22-.23.44-.36.65-.31.53-.66 1-1 1.54-.16.23-.56.88 0 0a9.19 9.19 0 0 1-.6.75c-.34.41-.69.81-1 1.21-.75.85-1.53 1.67-2.3 2.5a32.66 32.66 0 0 0-4.73 6 36.08 36.08 0 0 0-3.35 8.65 59.93 59.93 0 0 0-1.62 9.75c-.07.73-.14 1.45-.22 2.18.09-.78 0 .15-.05.34-.06.36-.12.72-.2 1.07-.15.72-.35 1.41-.57 2.11-.13.41-.55 1.08.2-.44a79.17 79.17 0 0 0-3.79 8.44c-.27.78.44-.62.11-.2a7.08 7.08 0 0 0-.66 1.57q-.29.69-.56 1.39c-.36.92-.7 1.84-1 2.77a26.8 26.8 0 0 0-1.32 5.91 7.37 7.37 0 0 0 1.8 5.68c1.54 1.48 4.23 1.75 5.71.07a2 2 0 0 0 .29-2.26c.28.62.1.22.06 0 .27 1.31 0-.11-.1-.46-.17-.59-.18.73 0 .3a2.08 2.08 0 0 0-.19-1.48c-.19-.37.11.47.07.57 0-.09-.08-.36 0-.43s0-.33 0-.3c-.06-.61-.23.85-.07.46a6.3 6.3 0 0 0 .24-1.63c.08-.7-.2.9-.06.41.06-.21.08-.45.12-.67a26.25 26.25 0 0 1 1.24-4q.22-.57.45-1.14a2.12 2.12 0 0 1 .17-.39c.33-.76.67-1.52 1-2.26 1.21-2.44 2.56-4.81 3.72-7.28a20.63 20.63 0 0 0 1.64-4.82c.31-1.6.5-3.22.66-4.84.07-.66.13-1.31.19-2 0-.44.09-.87.14-1.31-.09.77.07-.42.09-.57a46.3 46.3 0 0 1 2-7.65c.11-.31.23-.62.35-.93.31-.8.09-.2 0 0 .27-.6.56-1.2.88-1.77s.66-1.15 1-1.69c.15-.22.3-.44.46-.65-.49.66.12-.12.22-.23 2.8-3.22 6.11-5.94 8.38-9.62a13.49 13.49 0 0 0 2.17-6.91c0-3.08-1.41-5.49-3.31-7.77l-1.14-1.36a3.3 3.3 0 0 0-.43-.53c.3.08.48.67.13.16s-.62-.87-.9-1.32c-.14-.22-.26-.46-.4-.68-.61-1 .13.65-.13-.22-.13-.44-.24-.88-.37-1.31-.33-1.12 0 1 0-.27 0-.25 0-.5-.06-.75a16.33 16.33 0 0 1 0-1.81v-.74c0-.25.14-1.13 0-.39a22.45 22.45 0 0 1 1-4.11A33.76 33.76 0 0 1 361 73a9.84 9.84 0 0 1 5.3-4.49 4.67 4.67 0 0 1 3.32-.2 11.25 11.25 0 0 1 3 1.75c1.9 1.51 3.85 3.55 4.36 6 0 .06.11 0 .11 0z"/><path d="M352.95 144.86a45.54 45.54 0 0 0 4-11.06 39.06 39.06 0 0 1 4.59-11.21 47.44 47.44 0 0 1 6.64-7.93c1.28-1.28 2.64-2.48 4-3.64q1.09-.9 2.2-1.77a5.13 5.13 0 0 0 2.36-4c.18-2-1.81-3.51-3.63-3.63-2.59-.17-4.63 2.58-6.28 4.29-1.25 1.31-2.46 2.65-3.59 4.07a30.68 30.68 0 0 0-5.49 10.21c-2.46 8-1.53 16.77-4.92 24.57 0 .09.08.16.13.08z"/><path d="M361.9 132.76c.07-2.87 1.88-5.27 3.82-7.23a47.24 47.24 0 0 1 6.22-5.18 66.66 66.66 0 0 1 7.63-4.65 23.16 23.16 0 0 1 3.72-1.61c1.52-.49 2.89-.9 3.9-2.2 1.31-1.7-.84-3.78-2.59-3.37a9.41 9.41 0 0 0-2 1c-.65.33-1.32.62-2 .94a27.18 27.18 0 0 0-3.67 2.37 60.37 60.37 0 0 0-7.63 6.47c-3.39 3.42-8.19 8.18-7.56 13.45a.09.09 0 0 0 .19 0zM373.8 71.39c-.63 2.54 1.12 5.11 2.65 7 2.25 2.77 5.43 3.49 8.86 3.74.87.06 1.74.1 2.6.17l1 .1h.46c.51 0-.52-.16-.08 0a5.23 5.23 0 0 0 .77.2c.38.07-.27-.1-.31-.13.36.22.08-.05 0 0s-.33-.27 0 0c.14.12.23.4 0 0s.2 1 0 0c.1.44.59 1.3.45 1.74 0 0-.06-.89-.06-.36v1.7c0 .4 0 .69-.07 1-.1 1.2.15-.52 0 .29-.07.32-.14.64-.23 1a4.18 4.18 0 0 0-.14.45c-.09.52.41-.7.13-.28a3.3 3.3 0 0 0-.38.67c0 .11.84-.93.29-.41-.37.35-.72.72-1.08 1.07-.85.82-1.72 1.63-2.51 2.51-2.45 2.73-4.36 6.3-2.44 9.9 1.61 3 5.32 3.77 8.45 3.68a39.54 39.54 0 0 0 4.23-.43l1.26-.18c.78-.11-.35.06-.58.08.45 0 .91-.11 1.36-.17a22.69 22.69 0 0 1 2.65-.22H401.86a4.19 4.19 0 0 0 .64.15c.16 0 .32.11.48.15.54.12-.58-.35-.08 0s.78.44 1.16.69c0 0 .6.45.19.13s.23.21.3.26q.52.45 1 .93a49.47 49.47 0 0 1 3.88 4.37c1.62 2 3.15 4.3 6.07 4.1a3.86 3.86 0 0 0 3.64-2.77 5.2 5.2 0 0 0-.56-4.12 21 21 0 0 0-1.92-2.45c-1.11-1.35-2.22-2.72-3.41-4-2.43-2.62-5.43-5.25-9-6a29.71 29.71 0 0 0-8.37 0c-1 .09-2 .17-3 .18-.54 0-1.08 0-1.61-.05-1 0 1.12.3.24 0a4.92 4.92 0 0 0-.9-.23c.39-.24 1.1.63.39.13l.66.52q-.5-.49.39.56c.46.8.36.59.39 1.53 0-.81-.3 1.28 0 .48-.44 1.35-.33.68-.11.31a3.85 3.85 0 0 0 .41-.64c-.25.81-.51.62-.07.11.25-.29.51-.57.77-.85 1.56-1.54 3.56-3 4.56-5.07 2.92-6 1.49-17-6.76-17.49-3.39-.22-6.78 1.29-10.12.73-2.57-.43-6.09-1.92-6.66-4.78a.32.32 0 0 0-.62 0zM419 117.18c3.75-.63 2.88 4.84 2.27 6.92a14.65 14.65 0 0 1-2 4.42 3.84 3.84 0 0 1-2.44 1.82.76.76 0 0 0-.33 1.26c1.57 1.3 3.56.19 4.69-1.16a11.38 11.38 0 0 0 2.07-6.27c.16-2.56-.38-8.37-4.33-7.2a.11.11 0 0 0 .06.22z"/><path d="M356.18 140.37c1.11.53 2.55-.88 3.31-1.51a58.64 58.64 0 0 0 5-4.91 43.67 43.67 0 0 1 3.72-3.84 27.32 27.32 0 0 1 3.08-2.3c.47-.29 0-.05.21-.05a5.71 5.71 0 0 0 1.89 0 3.66 3.66 0 0 0 1.4-.77c.24-.21-.29.06.21-.16a1.19 1.19 0 0 0 .6-1 3.19 3.19 0 0 0-4-3.35c-1.5.38-2.92 1.85-4 2.92a31.57 31.57 0 0 0-4 5c-1.24 1.93-2.38 3.93-3.65 5.84a22.11 22.11 0 0 1-2 2.68c-.42.46-1 1.18-1.72 1.24-.13 0-.22.21-.08.28zM365 141c.24-1.46 2.36-2.44 3.51-3a41.1 41.1 0 0 1 4.62-2 63.63 63.63 0 0 1 7.87-2.37c1.54-.36 3.09-.67 4.64-1a11.62 11.62 0 0 0 4.64-1.42 1.49 1.49 0 0 0-.35-2.68 9.67 9.67 0 0 0-5.3.43 48 48 0 0 0-5.12 1.76 66.77 66.77 0 0 0-7.69 3.68 35.51 35.51 0 0 0-4.93 3.22c-.87.7-2.61 2-2.09 3.38 0 .08.17.1.18 0z"/><path d="M383 133.67c-.36-1.61 1.2-2.91 2.37-3.72a20.6 20.6 0 0 1 5.8-2.68 23 23 0 0 1 6.32-1.1c1.46 0 3.13.43 4.36.42a.84.84 0 0 0 .8-1c-.77-2.14-3.42-1.78-5.23-1.49a29.54 29.54 0 0 0-7.11 2.18 21.23 21.23 0 0 0-6 3.63c-1.06 1-2.13 2.39-1.67 3.92a.21.21 0 0 0 .4-.11zM353.34 156.16a8.16 8.16 0 0 0-.18 1.15.22.22 0 0 0 .27.21c4.12-1.54 7.27-5.1 10.69-7.74a18.88 18.88 0 0 1 4.65-2.66c1.89-.67 3.82-1.2 5.65-2a6.44 6.44 0 0 0 2.91-2.09 4.44 4.44 0 0 0 .72-3.57 2.47 2.47 0 0 0-1.1-1.45c.19.11-.44-.21-.6-.25s-1.72 0-1.12 0-.56.06-.38 0a4.55 4.55 0 0 0-.83.18 5.79 5.79 0 0 0-2.14 1.22c-.69.59-1 .82-1.64 1.31-.81.6-1.64 1.17-2.46 1.74a22.55 22.55 0 0 0-4.28 3.48c-3.39 3.91-6.27 8.14-10.28 11.47l.36.1a6.22 6.22 0 0 1-.2-1.09zM379.37 144.42a58 58 0 0 1 13.22-6.85 37.23 37.23 0 0 1 7-1.73 24.63 24.63 0 0 1 3.47-.18c1.44 0 2.6.13 3.78-.84a1.55 1.55 0 0 0 0-2.19c-2-1.69-5.36-.42-7.67.19a42.07 42.07 0 0 0-7.28 2.68 66.48 66.48 0 0 0-13 8.34c-.33.27.1.83.46.59z"/><path d="M403.86 132.53a44.33 44.33 0 0 1 5.31-.6 11.49 11.49 0 0 0 4.23-.76.4.4 0 0 0-.2-.74c-1.61.09-3.28.61-4.9.81a36.59 36.59 0 0 0-4.58.78c-.33.08-.19.58.14.51zM457.22 66.24c-1.22.59-2.22 2.13-3.22 3.06a15.77 15.77 0 0 0-1.58 1.7 10.39 10.39 0 0 0-1.7 2.49 16.81 16.81 0 0 0-.52 13.2A27.78 27.78 0 0 0 467 102.5a31.88 31.88 0 0 0 6.86 1.13c1 .09 2 .14 3.06.22.53 0 1.07.1 1.6.13a6.77 6.77 0 0 0 3.1-.74 4.5 4.5 0 0 0 2.28-4 4.76 4.76 0 0 0-2.28-4c-1.36-1-3.1-.91-4.7-1-1.09-.07-2.18-.13-3.27-.22-.55 0-1.09-.1-1.63-.17.86.1.05 0-.34-.07a18.69 18.69 0 0 1-3.09-.84c1.06.39-.37-.21-.57-.31q-.66-.34-1.29-.73a25.57 25.57 0 0 1-2.2-1.49c.93.7-.37-.34-.53-.47q-.58-.51-1.13-1.06c-.69-.68-1.3-1.43-1.94-2.15q-.32-.4.15.2l-.45-.62q-.43-.62-.82-1.28t-.71-1.31q-.16-.33-.31-.67.35.83.06.1a26.58 26.58 0 0 1-.73-2.91c.17 1 0-.73 0-.92 0-.57-.07-1.14-.07-1.72 0-1.1.07-2.19.06-3.29a7.12 7.12 0 0 1 .24-2c.33-1.57 1.5-3.75.93-5.34a1.37 1.37 0 0 0-2-.8zM454.34 65.65a18.05 18.05 0 0 1 2.25-12.44 15.15 15.15 0 0 1 4.68-4.54 25.62 25.62 0 0 1 3-1.66c.49-.22 1-.4 1.51-.58.24-.09.48-.18.73-.25a4 4 0 0 1 .56-.14q.37-.1 0 0c2.78.24 4.38-3.2 3.1-5.4s-5-2.46-6.2 0q.24-.19 0 .06a5.24 5.24 0 0 1-.4.42c-.23.23-.47.45-.7.68-.47.46-.91.94-1.37 1.42-1 1-1.9 2-2.81 3.11a23.14 23.14 0 0 0-4.17 6.18c-1.55 3.83-2.55 9.38-.49 13.21.08.14.26 0 .24-.1z"/><path d="M454 69.06c0-4 2.45-7.5 5.26-10.14a49.13 49.13 0 0 1 4.45-3.66c1.49-1.1 3.45-2.16 4.54-3.64 1.64-2.22-1.88-4.76-3.75-2.9a16.29 16.29 0 0 0-1.65 2.49c-.55.8-1.14 1.57-1.72 2.35-1.26 1.71-2.61 3.36-3.79 5.12-2.09 3.13-4 6.48-3.38 10.38zM472.59 47.6c.32-1 .32-2 .55-3a20.93 20.93 0 0 1 .74-2.46 15.26 15.26 0 0 1 2.7-4.72 46.12 46.12 0 0 1 3.82-3.64c1.34-1.24 2.72-2.44 4.15-3.58a69.48 69.48 0 0 0 5.93-5.47c1-1 2-2.06 3.08-3l.58-.53.37-.33q.53-.43-.34.25a4.38 4.38 0 0 0 .67-.45c.81-.57-.83.27-.29.1a4.43 4.43 0 0 0 3-5.36c-.69-2.13-3-3.83-5.36-3-4.73 1.59-7.66 6.7-10.42 10.59l-.33.46c-.07.09-.41.55-.11.16.45-.6-.47.6-.44.57l-.32.44-.71 1c-.88 1.29-1.78 2.56-2.61 3.88a33.78 33.78 0 0 0-3.62 8.11 30 30 0 0 0-1.21 4.92 11.45 11.45 0 0 0 .1 5h.07zM483.85 57c.8.88 3.07-.23 3.88-.62a38.84 38.84 0 0 0 5.2-3.25c1.42-1 2.81-2 4.15-3.09.34-.28.68-.56 1-.85a7.72 7.72 0 0 1 .82-.65c1-.67 2.26-1.14 2.88-2.29a3.38 3.38 0 0 0-3.77-4.9c-2.31.65-3 3.38-4.19 5.23-.77 1.24-1.62 2.43-2.49 3.6a27.18 27.18 0 0 1-3.8 4.18 11.47 11.47 0 0 1-2.1 1.54c-.49.26-1.2.31-1.6.68a.3.3 0 0 0 0 .42zM479.61 70.3c.37-.84 2.33-.62 3.14-.67 1.07-.06 2.13-.11 3.2-.15 2.2-.08 4.41 0 6.61-.09a45.67 45.67 0 0 0 6.61-.77c1-.19 2-.43 3-.62 1.76-.33 3.42-.61 4.28-2.44.78-1.67.59-4.05-1.3-5a4.74 4.74 0 0 0-5 .32c-.88.52-1.77 1-2.67 1.52a58.77 58.77 0 0 1-5.55 2.9c-4 1.7-8.36 2.43-12.47 3.9a.35.35 0 0 0-.25.33 1.13 1.13 0 0 0 .24.74.08.08 0 0 0 .13 0zM476.4 80.87c-.86 1.33 2.63 3.45 3.47 3.91a30.62 30.62 0 0 0 8 2.8 45.34 45.34 0 0 0 13.65.9c3.49-.25 6.87-.68 9.68-2.9 2.19-1.73 1.47-5.37-.47-6.86a4.62 4.62 0 0 0-6.8 1.28s.87-.88.42-.56c-.07 0-.12.13-.18.18-.66.52.84-.52.22-.16-.45.26-.88.55-1.35.79l-.76.37-.34.15c-.53.24.22 0 .24-.1 0 .19-1.48.57-1.68.64-1.62.58-3.28 1.14-4.95 1.56a29.51 29.51 0 0 1-6.51.91 27.24 27.24 0 0 1-7.73-.52 9.91 9.91 0 0 1-3.43-1.39c-.12-.08-1.32-1.29-1.5-1zM467.6 224a59.45 59.45 0 0 1 .73-7.26 8.06 8.06 0 0 1 1.14-3 18.69 18.69 0 0 0 1.13-3.36 33.47 33.47 0 0 0 1.17-13.85c-1-8.48-5.29-17.66-13.89-20.54-6.62-2.22-13.93.2-19.83 3.3a64 64 0 0 0-16 12.22c-5.87 6.1-9.36 13.8-11.52 21.92-1.07 4-1.84 8.14-2.55 12.25-.34 2-.69 4-1.14 5.94-.22.93-.46 1.86-.73 2.78-.14.45-.28.9-.44 1.35l-.24.66s-.42 1-.19.48a16.74 16.74 0 0 1-2.79 4.47 49.78 49.78 0 0 1-4.35 4 77.93 77.93 0 0 0-8.25 7.78c-5.2 6-7.73 14.54-4.57 22.15a20.68 20.68 0 0 0 7.89 9.36 21 21 0 0 0 12.27 3.35c4.07-.1 8.26-1 12.21-.23 3.71.71 7.8 2.32 11.61 1.81a8.16 8.16 0 0 0 4.83-2.23c1.29-1.25 0-3.74-1.82-3.12a12.11 12.11 0 0 1-4.29.34 30 30 0 0 1-4.88-.57c-3.65-.68-7.08-1.47-10.83-1.2-4.11.29-8.52 1.22-12.58.11a15.07 15.07 0 0 1-8.25-5.87 14.49 14.49 0 0 1-2.61-10 17.1 17.1 0 0 1 3.89-8.54 35.62 35.62 0 0 1 7.31-6.75c1.45-1 2.93-2 4.39-3a19.16 19.16 0 0 0 4.68-4.72c4.61-6.39 5-14.77 6.5-22.24 1.58-7.83 3.61-15.27 8.28-21.67.35-.48.85-1.09 1.47-1.78.45-.5.91-1 1.38-1.46 1-1 2-1.94 3-2.86q.79-.7 1.61-1.38l.79-.64.46-.37c.53-.43-.26.19.09-.07 1.26-.94 2.52-1.86 3.84-2.72s2.78-1.74 4.23-2.52q1-.54 2-1l1-.44c.64-.29 0 0-.07 0l.69-.27a29.66 29.66 0 0 1 4.27-1.31l1.09-.22a2.32 2.32 0 0 1 .54-.09c-.06 0-.94.1-.22 0s1.41-.11 2.12-.11h1a3.74 3.74 0 0 0 .39 0c.53 0-.79-.15-.27 0a19.06 19.06 0 0 1 2 .46l.48.16c.53.18.11.09.12 0s-.42-.21 0 0l.46.23q.46.24.9.52l.44.29c.13.09.64.6.24.17s.29.27.43.4.54.53.8.81.76.88.45.5.07.1.15.21.3.43.44.65c.56.87 1.08 1.76 1.55 2.68q.2.38.38.78c0 .06.39.86.24.5s.13.33.12.31c.15.39.3.78.43 1.18a42 42 0 0 1 2 11.75c.07 1 .13 2 .15 3.05a25.4 25.4 0 0 0 .55 3.71 12.44 12.44 0 0 0 .59 2.65 9.6 9.6 0 0 1 .41 3.52c0 2.16.08 4.31.27 6.46a.36.36 0 0 0 .72 0z"/><path d="M400.91 261.37a15.82 15.82 0 0 1 3.54-4.59 67.06 67.06 0 0 1 7.46-6 198.6 198.6 0 0 1 18-11.89c1.29-.72 2.61-1.42 4-2 .17-.08 1.14-.49.48-.22l.73-.29 1.3-.45a2.33 2.33 0 0 0 1.66-2.18v-.1l-.45 1.08a1.18 1.18 0 0 1-.48.21 1.07 1.07 0 0 0 1.06-1.06 1.51 1.51 0 0 0-.2-.81l-.07-.12c-.58-1.07.14.48.06.2a2.33 2.33 0 0 0-2.78-1.58c-2.26.36-4.61 2.06-6.51 3.24-3 1.85-5.8 3.89-8.59 6a92.25 92.25 0 0 0-16.14 15 23 23 0 0 0-2.35 3.31 3.57 3.57 0 0 0-.69 2.32z"/><path d="M412 263.55c1.11-2.07 2.86-3.52 4.47-5.2 3.09-3.24 5.77-6.85 8.89-10.08 2.2-2.28 4.5-4.52 6.9-6.59a27.42 27.42 0 0 1 3.58-2.73 15.56 15.56 0 0 1 1.94-1.06c-.75.33.21 0 .37-.09s.55-.15.83-.25a3.29 3.29 0 0 0 2.34-3.58 3.23 3.23 0 0 0-3.2-2.83c-3 .2-5.48 2.52-7.47 4.58a69.48 69.48 0 0 0-5.57 6.78c-2 2.67-3.88 5.4-5.65 8.22a81.53 81.53 0 0 1-5.43 8c-.43.53-3.75 4.45-2 4.83zM438 254.6c.08 4.3 3.67 8.17 7 10.44 4 2.68 9.13 4.08 13.85 2.87a14.15 14.15 0 0 0 8.77-7 78.15 78.15 0 0 0 4.74-9.88c1.21-3 2.56-6.33 2.53-9.58a5.53 5.53 0 0 0-1.6-3.68c-2.19-2.29-5.57-1.06-6.58 1.65a7.71 7.71 0 0 0-.45 2.18c0 .26-.06.53-.06.79 0-1.61 0-.37-.06.12a33.92 33.92 0 0 1-1.38 4.58q-.44 1.2-.93 2.39a2.84 2.84 0 0 1-.18.42q-.31.71-.63 1.42a67.29 67.29 0 0 1-4 7.38c.81-1.3.38-.48-.07 0-.21.21-.45.4-.66.61.46-.43.33-.23-.1 0-.2.13-.41.25-.62.37l-.38.2q-.61.28.2-.06a4.4 4.4 0 0 1-1.63.5l-.56.11c-.23 0-1.51.16-.37.07-.54 0-1.07.08-1.6.08h-.73c-.1 0-1.21-.1-.7 0s-.41-.07-.42-.07l-.9-.18a21.54 21.54 0 0 1-6.4-2.5 42.34 42.34 0 0 1-5.36-3.64c-.3-.23-.74.09-.74.42z"/><path d="M455.19 249.28a1.6 1.6 0 0 0-.84-.56c-.28-.07-.59.26-.4.52 2 2.79 4.85 4.61 7.7 6.45 3.15 2 7.6 5.75 10.94 2.18a2 2 0 0 0-.88-3.34 16.21 16.21 0 0 0-2.6-.57 16.13 16.13 0 0 1-2.07-.13c-1.47-.26-2.94-.64-4.38-1a19.82 19.82 0 0 1-8.15-4l-.16.59a2.86 2.86 0 0 1 .82-.1zM448.67 241a4.38 4.38 0 0 0 4.26-4.26l-.15-1.13a4.26 4.26 0 0 0-1.1-1.88l-.86-.67a4.24 4.24 0 0 0-2.15-.58 4.38 4.38 0 0 0-4.26 4.26l.15 1.13a4.26 4.26 0 0 0 1.1 1.88l.86.67a4.24 4.24 0 0 0 2.15.58zM457.11 235.23a2.91 2.91 0 0 0 2.83-2.83l-.1-.75a2.82 2.82 0 0 0-.73-1.25l-.57-.44a2.81 2.81 0 0 0-1.43-.39 2.91 2.91 0 0 0-2.83 2.83l.1.75a2.82 2.82 0 0 0 .73 1.25l.57.44a2.81 2.81 0 0 0 1.43.39zM453.79 225.18c1-3.2 1.39-6.29 3.39-9.09a15.15 15.15 0 0 1 3.17-3.31c1.41-1 3.35-1.49 4.59-2.67 1.81-1.73 0-5.43-2.58-4.44-2 .77-3.35 2.74-4.55 4.43a23.93 23.93 0 0 0-2.73 4.76c-1.27 3.07-2.31 7-1.41 10.33a.06.06 0 0 0 .11 0zM441.28 224.68c.07-2.7 1.63-5.37 3.15-7.51a21.05 21.05 0 0 1 2.79-3.16c.92-.87 2-1.48 2.93-2.26s-.09-2.74-1.32-2.26c-2.77 1.07-4.62 4.53-5.86 7s-2.36 5.39-1.88 8.2c0 .11.18.08.19 0zM436.1 216.24c-.24-4.81 3.65-8.93 5.47-13.09a54.78 54.78 0 0 1 2.21-5.07 9.4 9.4 0 0 1 1.68-2 4.82 4.82 0 0 0 1-1.58c-.2.45.67-1.7.22-.66a1.09 1.09 0 0 0-.17-1.28 2.87 2.87 0 0 0-3.32-.35 5 5 0 0 0-2 3.15c-.64 2.15-1 4.35-1.54 6.53-1.16 4.68-4.77 9.39-4 14.4 0 .25.46.19.44-.06zM467.45 211.41c-.27-2 1.21-2.59 2.91-3a23.18 23.18 0 0 1 5.68-.32 33.64 33.64 0 0 1 6.95.7c3.84.85 7.59 2 11.34 3.25 1.67.54 3.39.9 5.07 1.41.39.12.77.25 1.16.38s.73.39-.18-.1a10.06 10.06 0 0 0 1.43.6 5.22 5.22 0 0 0 5.25-1.05l-2.87 1.19h.5a3.74 3.74 0 0 0 3.57-4.68q-.06-.23-.15-.45v2.16c.95-3.82-2.4-5.94-5.55-6.84-1.67-.48-3.4-.75-5.08-1.18-4.49-1.15-9-2.44-13.64-2.5-5.48-.07-11.42 1.2-15.6 5-1.54 1.41-2.58 3.71-1.14 5.55a.21.21 0 0 0 .35-.15zM143.92 62.2c-2.19 2-2.19 5.56-2.35 8.34a46.21 46.21 0 0 0 .07 8.41 32.65 32.65 0 0 0 2.4 9 52.89 52.89 0 0 1 3 7.42c1.45 5.59.05 11.48.47 17.17.41 5.53 2.42 10.69 3.35 16.11.54 3.12.73 6.3 1.1 9.44.39 3.31.74 6.62 1.21 9.92a2 2 0 0 0 2.43 1.38 2 2 0 0 0 1.38-2.43c-.88-5.65-1.55-11.31-2.91-16.88-1.28-5.21-3.15-10.44-3.72-15.79-.61-5.71.48-11.48.48-17.2a64.3 64.3 0 0 0-.37-8.55c-.36-2.74-.82-5.44-1.33-8.15a55 55 0 0 1-.74-8.72c-.07-3.08.41-7.1-2-9.46a1.76 1.76 0 0 0-2.44 0zM105.59 120.94a14.09 14.09 0 0 0 .54-3.41 32.78 32.78 0 0 1 .76-3.92 25.07 25.07 0 0 1 2.74-6.77c1.1-1.79 2.41-3.43 3.47-5.25.76-1.31 2.23-3.77 1.33-5.28a.49.49 0 0 0-.77-.1 7.54 7.54 0 0 0-.89 2.53 15.33 15.33 0 0 1-1.41 2.9c-1.13 1.89-2.48 3.65-3.47 5.63a24.76 24.76 0 0 0-2.12 6.69 33.11 33.11 0 0 0-.42 3.3 8.91 8.91 0 0 0 .19 3.68zM118.61 90.55c.94-.54 1.08-2.41 1.45-3.36a14.22 14.22 0 0 1 2.17-3.81c1.27-1.58 3.79-4.47 1.76-6.43a.8.8 0 0 0-1.24.16c-.62.93-.81 2.11-1.35 3.09s-1.36 2.05-1.94 3.13a10.51 10.51 0 0 0-1.12 3.84c-.11.93-.51 2.65.25 3.38zM133.82 74.61a5.71 5.71 0 0 1 1.07-2.61 10.1 10.1 0 0 1 1.89-1.44c1.11-.74 3.35-2 2.85-3.61a.81.81 0 0 0-1-.55c-.84.21-1.36 1.12-2 1.69s-1.43 1.18-2 1.86a4.22 4.22 0 0 0-.87 4.7zM153.35 71.94a8.2 8.2 0 0 1-.94 0 .44.44 0 0 0-.31.74c.4.46.92.51 1.48.74a6.26 6.26 0 0 0 2.18.61c1.37.07 2.58-.17 3.89.4 2.13.92 4.86 4 7.31 2.45a2.15 2.15 0 0 0 .74-2.88c-.57-1.21-2.27-1.59-3.41-2.19a18.9 18.9 0 0 0-3.71-1.66 11.49 11.49 0 0 0-4.67-.16 4.58 4.58 0 0 0-2.23.92 8.17 8.17 0 0 0-1.58 1.14l.68.09s.59-.2.57-.2zM169 80.88c0-.11 0-.22-.06-.33l-.49.38a27.77 27.77 0 0 1 5 4.18c1.51 1.37 3.43 3.1 5.48 3.53 1.62.34 2.85-2 1.19-2.83-.92-.45-1.89-.76-2.8-1.24s-1.89-1.14-2.85-1.69a27.09 27.09 0 0 0-5.67-2.65.39.39 0 0 0-.39.1v.06a.34.34 0 0 0 .33.56l.28-.07zM183.49 91.75c.21 1.17 1.7 2.39 2.44 3.28a21.56 21.56 0 0 1 1.58 2 7 7 0 0 1 .77 1.47c.19 2.51 4 2 3.41-.46-.45-1.93-2.21-3.28-3.72-4.39-1-.74-3.13-2.29-4.47-1.92z"/><path d="M150.39 96.39a9 9 0 0 1 3.91 3 28.55 28.55 0 0 1 2.82 5.19c1.47 3.37 2.53 7.29 5.25 9.93 1.74 1.69 4.42-1 2.67-2.67a15.39 15.39 0 0 1-2.67-4.23c-1-1.93-1.85-3.9-2.89-5.79-1.71-3.13-4.82-7.27-8.93-6.57a.61.61 0 0 0-.14 1.11z"/><path d="M157.19 98.26c.27.41.74.45 1.19.65a9.29 9.29 0 0 1 1.7 1 20.38 20.38 0 0 1 3.13 3c2 2.28 3.76 4.76 5.62 7.13 2 2.61 4.19 5.12 6.1 7.83 1.6 2.27 3.81 6 6.88 6.21a2.05 2.05 0 0 0 1.76-3.07c-.78-1.22-2.1-2.1-3-3.23s-1.81-2.32-2.7-3.49a74.31 74.31 0 0 0-7.24-8.29 60.55 60.55 0 0 0-6.58-5.86 11.4 11.4 0 0 0-3.8-1.92c-.78-.2-2.45-.66-3 .05zM108 59.41c.68-4.82 5.64-6.12 9.49-7.73 1.89-.79 3.69-1.78 5.63-2.46a11.07 11.07 0 0 1 2.77-.68 6.93 6.93 0 0 1 2.18.16.66.66 0 0 0 .81-.81c-.83-2.35-3.68-1.67-5.55-1.08a36.84 36.84 0 0 0-6.63 3c-3.33 1.86-10.33 4.56-8.74 9.59zM159.85 47.38a7 7 0 0 0 2.14.26c.9.06 1.79.32 2.68.46 1.76.28 3.51.69 5.25 1.08 4.57 1 9.06 2.29 13.6 3.42a1.86 1.86 0 0 0 1-3.59 104.87 104.87 0 0 0-14.67-4c-2-.37-4.34-.89-6.39-.37-1.37.35-3.45 1.08-3.62 2.69zM183.4 56.38c.61 1.13 2.11 1.67 3.26 2.05a26.12 26.12 0 0 1 3.75 1.57 24.56 24.56 0 0 1 6.68 5.08c1.68 1.78 4.4-.93 2.69-2.69a25.4 25.4 0 0 0-7.69-5.6c-2.21-1-6.45-3-8.61-1.06a.57.57 0 0 0-.09.68zM200.5 88.47c2.41-1.31 3.43-4.05 4.23-6.55a27.88 27.88 0 0 0 1.41-8.35c0-2.76-4.11-2.72-4.27 0a32.88 32.88 0 0 1-1.39 7.4c-.69 2.35-1.63 4.53-1.19 7a.83.83 0 0 0 1.2.49zM191.47 115.16c1.55 0 3.2-1.64 4.12-2.74a22.28 22.28 0 0 0 3.13-5 84.58 84.58 0 0 0 4.08-11.29c.59-2-2.34-2.71-3.09-.85-1.38 3.43-1.95 7.16-3.22 10.63a27.32 27.32 0 0 1-2.34 5c-.47.76-.95 1.54-1.49 2.26a5.9 5.9 0 0 0-1.21 2zM174.11 148.69c2-1.82 4.47-3 6.56-4.72a29.69 29.69 0 0 0 6.08-7.09 72 72 0 0 0 4.92-7.87 15.38 15.38 0 0 0 1.37-4.46c.23-1.63.58-3.3-.4-4.76a.83.83 0 0 0-1.11-.29c-1.53.81-1.65 2.39-1.82 3.93a12.92 12.92 0 0 1-1.38 4.57c-1.38 2.68-3.07 5.25-4.61 7.84a33.37 33.37 0 0 1-5.47 7.19c-1.69 1.6-3.9 3.15-4.19 5.65zM131.17 119c.09-.94-.18-1.9-.17-2.85a15.4 15.4 0 0 1 1-5.49c.31-.82.94-1.63.88-2.52a.77.77 0 0 0-1.29-.53c-.75.58-.89 1.74-1.1 2.63a17.23 17.23 0 0 0-.45 3.23c-.07 1.68 0 4.17 1.11 5.54zM132.84 103.4c0-.31 0 0 .06-.35a3.27 3.27 0 0 1 .2-.46c.29-.59.65-1.14 1-1.72.78-1.45 1.7-2.81 2.6-4.19 1.64-2.51 3.58-5 4.66-7.86a1.77 1.77 0 0 0-.45-1.71c-.85-1-2.29-.4-2.84.54-.35.6-.68 1.21-1.05 1.8-1 1.67-2.17 3.27-3.25 4.91-1.65 2.49-4.55 6.49-3.09 9.62.51 1.09 2.21.52 2.2-.6zM106.86 66c-.9-.59-2.14-.28-3.08-.51a11.12 11.12 0 0 1-1.27-.5 4.55 4.55 0 0 0-2.68.11 11.16 11.16 0 0 0-6.08 5.16A21.84 21.84 0 0 0 91 78.22a48.88 48.88 0 0 0-.86 10.88 24.08 24.08 0 0 0 1.29 5.64 21.15 21.15 0 0 1 .68 2.65 4 4 0 0 0 1.08 2.14.78.78 0 0 0 1.09 0 2.54 2.54 0 0 0 1-2.38 16.6 16.6 0 0 0-.48-2.73 22.35 22.35 0 0 1-.91-5.32 30 30 0 0 1 2.21-11.64 17.87 17.87 0 0 1 4.32-6.5l.31-.26q-.32.24.08-.05c.41-.32.76-.64 1.15-1 .58-.51 1.14-.73 1.57-1.46.28-.47.32-.84 1.12-1.16a10.65 10.65 0 0 0 2.16-.75.15.15 0 0 0 0-.26zM94 105.95c-1 1.32-.91 3.56-.86 5.15a16.2 16.2 0 0 0 1.17 5.63 35.85 35.85 0 0 0 2.14 4.06 46.46 46.46 0 0 1 2.31 4.8 15.6 15.6 0 0 0 5.6 7.37 8.62 8.62 0 0 0 3.94 1.36c1.64.18 3.23-.18 4.85.27.49.14 1.08-.48.72-.94-.88-1.16-2.1-1.15-3.47-1.07a8.69 8.69 0 0 1-4.24-.56c-2.92-1.36-4.6-4.1-5.84-6.94-.63-1.44-1.24-2.89-2-4.27s-1.6-2.63-2.26-4a18.05 18.05 0 0 1-1.46-5.69c-.2-1.62.12-3.63-.54-5.14H94z"/><path d="M109.28 127.41c-1.07.73-.8 2.46-.43 3.52a7.64 7.64 0 0 0 2.31 3.14c2.17 1.86 4.8 2.88 7.34 4.12 1 .49 2.19 1.52 3.31 1.65a1.09 1.09 0 0 0 1.06-.48c.4-.64-.07-1.34-.52-1.8a12 12 0 0 0-3.2-1.93c-1.3-.66-2.61-1.29-3.89-2a11.71 11.71 0 0 1-3.44-2.51 5.81 5.81 0 0 1-.92-1.56c-.27-.68-.24-1.54-.82-2a.67.67 0 0 0-.8-.1zM122.88 140.53c.52 2.56 3.73 4.65 5.83 5.86s4.22-2.17 2-3.42c-1.09-.61-2.15-1.29-3.18-2a14.49 14.49 0 0 0-3.17-1.93c-.92-.33-1.64.65-1.47 1.47z"/><path d="M129.74 144.65a6.3 6.3 0 0 0 .91 3 18.07 18.07 0 0 0 1.89 3.21 41.67 41.67 0 0 0 5.35 5.51 24 24 0 0 1 4.43 5.22c1.06 1.84 2.54 4.61 5 4.56a2.24 2.24 0 0 0 1.91-3.33 16.48 16.48 0 0 0-1.64-1.93c-.57-.75-1-1.59-1.53-2.38a22.83 22.83 0 0 0-5-5.31c-1.83-1.47-3.6-3-5.4-4.49-.92-.76-1.82-1.54-2.72-2.34a16 16 0 0 0-2.3-2.21.6.6 0 0 0-.89.51z"/><path d="M146.82 162.42c-.48.51-.33 1.36-.32 2a5.56 5.56 0 0 0 .17 1.73c.18.55.41 1.08.63 1.61.92 2.24 2 4.45 2.87 6.69.65 1.61 1.41 4.17 2 6.17.77 2.65 1.47 6.09 4 7.61 2.35 1.42 4.68-.49 5-2.85.17-1.38-.51-2.69-.95-4s-.79-2.35-1.16-3.53a31.09 31.09 0 0 0-3-7.27 29.35 29.35 0 0 0-5-5.43c-.43-.41-.83-.86-1.27-1.24a13.22 13.22 0 0 0-1.47-.88c-.16-.11-1.16-.91-1.41-.64zM127.87 55.46a15 15 0 0 1 4.67 3.25 14 14 0 0 1 3.26 4.17 2.19 2.19 0 1 0 3.65-2.13c-3.17-3.14-6.6-6.61-11.42-6.5a.62.62 0 0 0-.16 1.2z"/><path d="M135.23 54.35a5.55 5.55 0 0 0 1.46 2.24 17.11 17.11 0 0 1 2.11 2.88c.94 1.77 1.47 3.63 2.76 5.2 1.05 1.27 3-.62 1.84-1.84-1.41-1.46-2-3.49-3.38-5a19.53 19.53 0 0 0-2.56-2.32 4.58 4.58 0 0 0-2.21-1.18zM144.5 62.71c.61-.23.68-.77.9-1.32a7.54 7.54 0 0 1 1.39-2.17c1-1.09 2.34-2.11 3.88-1.9a1.27 1.27 0 0 0 .67-2.44c-2.25-.86-4.82 1.12-6.14 2.75a7 7 0 0 0-1.56 3.14c-.08.45-.12 2.3.86 1.93z"/><path d="M149.26 57.73c.59-.62.37-1.87.5-2.66a9.08 9.08 0 0 1 1.24-3.13 13.86 13.86 0 0 1 2.06-2.53 14.72 14.72 0 0 1 2.59-2.41 2.17 2.17 0 1 0-3-3 36.88 36.88 0 0 1-2.65 3.29 14.89 14.89 0 0 0-2.12 3.48 5.29 5.29 0 0 0 0 3.91c.28.88.55 2.52 1.36 3.05zM139.88 144.43a21.35 21.35 0 0 1 .74-8.5c.61-1.79-2.51-2.55-2.76-.76a19.15 19.15 0 0 0 .19 5.18c.17 1.35.32 3.13 1.18 4.26.19.25.68.21.65-.18zM142 132c.59-.26.64-1.11.9-1.63a17.53 17.53 0 0 0 1.06-2.28c.28-.84.53-1.68.88-2.5a11.71 11.71 0 0 0 1.14-2.7 1.61 1.61 0 0 0-2.66-1.55 7.68 7.68 0 0 0-1.6 3.15 15.33 15.33 0 0 0-.81 3.59c0 .45.5 4.18 1.1 3.92zM160.89 173.1a24.6 24.6 0 0 1 0-10.65 21.12 21.12 0 0 1 1.9-4.76 20 20 0 0 1 3.27-3.93 2.39 2.39 0 0 0-2.88-3.73c-2 .92-3.55 3.2-4.5 5.08a15.5 15.5 0 0 0-1.55 6.52 23.18 23.18 0 0 0 2.52 12c.37.69 1.36.2 1.21-.51zM81.91 189.21c-.27 2.67 1.51 5.27 2.55 7.58-.19-.42.14.38.18.49.19.51.36 1 .55 1.53.4 1.06.88 2.09 1.33 3.13q1.21 2.82 2.58 5.57c1.74 3.5 3.87 6.77 5.73 10.2.94 1.74 1.79 3.52 2.74 5.26a37.4 37.4 0 0 0 3.32 5c1.95 2.53 3.14 6.53 6.71 7.39a1.55 1.55 0 0 0 1.72-2.24c-1.82-3.34-3.26-6.87-4.91-10.3-2-4.23-4-8.55-6.38-12.61-2.49-4.28-4.56-8.73-6.88-13.1a30.39 30.39 0 0 0-3.47-5.1c-.83-1-2.41-1.91-2.88-3.15a1.48 1.48 0 0 0-2.89.39zM105.16 235.06c.21 3 2.74 5.8 4.6 8 2.58 3 5.38 5.81 8 8.78 6.17 6.94 12.21 14.49 20 19.76a51.64 51.64 0 0 0 6.36 3.7c1.93.95 5 2.68 7.21 1.89a1.38 1.38 0 0 0 .32-2.48 8.54 8.54 0 0 0-2.64-1 21.77 21.77 0 0 1-2.94-1.29 52.76 52.76 0 0 1-5.39-3.24 69.38 69.38 0 0 1-9.61-8.32c-6-5.93-11.73-12.1-18.16-17.58-2.66-2.26-6-4.82-7.37-8.17-.06-.16-.35-.16-.33 0zM214.61 182.55c-.74 1.31-.79 3.45-.86 4.94a36.76 36.76 0 0 0 .14 5.6 96 96 0 0 0 1.86 11.3c1.58 6.9 3.58 14.08 7.33 20.15a45 45 0 0 1 2.26 3.92c.57 1.16.65 3.05 2.11 3.45a1.71 1.71 0 0 0 2-1.64c.14-1.38-.81-3-1.43-4.21-1.39-2.64-3.17-5-4.3-7.79a88.79 88.79 0 0 1-3.7-11c-1.07-4.14-2-8.34-2.67-12.57q-.49-3.08-1-6.17c-.16-1-.33-2-.53-3.07a9.79 9.79 0 0 0-.75-2.86.3.3 0 0 0-.52 0zM228.84 235.69a6.38 6.38 0 0 0-.42 4.3 11.9 11.9 0 0 0 1.78 3.71 29.43 29.43 0 0 0 6.09 6.25c2.17 1.72 4.39 3.41 6.6 5.09 3 2.26 6.23 4.11 9.2 6.37 1.54 1.17 2.92 2.52 4.36 3.8a13.87 13.87 0 0 0 4.73 3.19 1 1 0 0 0 1-1.73c-1.46-1.49-3.17-2.75-4.65-4.23a54.59 54.59 0 0 0-4.44-4.1c-3.35-2.68-6.64-5.35-9.87-8.18a83.65 83.65 0 0 1-7.35-6.77 18.61 18.61 0 0 1-2.66-3.77c-.37-.71-.72-1.41-1.09-2.12a10.83 10.83 0 0 0-1-2.08 1.44 1.44 0 0 0-2.24.29zM246.47 260.14c-1.4 1.09-.62 4.24-.24 5.67a25.7 25.7 0 0 0 2.93 6.14 1.38 1.38 0 0 0 2.38-1.39c-1-1.78-2-3.53-3-5.31a15.92 15.92 0 0 1-1.17-2.91 5.11 5.11 0 0 0-.86-2.19zM215.34 215.26a10.52 10.52 0 0 0-1 1.75l-1.13 1.92a12.91 12.91 0 0 0-1.67 4.3 32.47 32.47 0 0 0 .23 11 1.1 1.1 0 0 0 .8.8 1.22 1.22 0 0 0 .88-.12 1.17 1.17 0 0 0 .53-1.29c-.71-3.47-1.3-7.23-.71-10.76a20.13 20.13 0 0 1 1.28-3.93c.41-1 1.1-2.48.84-3.63zM210.28 223.46c-.37.18-.38.77-.47 1.11a16.47 16.47 0 0 1-.72 2.13 29.68 29.68 0 0 0-1.67 5c-.44 2-1.69 7.62 1.3 8.36a.85.85 0 0 0 1.06-.81 6.74 6.74 0 0 0-.41-1.86 7.09 7.09 0 0 1-.13-2 36.55 36.55 0 0 1 .91-5.07 28.54 28.54 0 0 0 .54-4.75c0-.13 0-2.31-.4-2.1z"/><path d="M225.48 220.36a3.55 3.55 0 0 0 2.33-.1 19.45 19.45 0 0 0 2.83-1.28 13.9 13.9 0 0 1 5.49-1.18c1.6-.08 3.2-.13 4.8-.05a8.41 8.41 0 0 1 2.07.25 4.59 4.59 0 0 1 1.2.44.78.78 0 0 0 1.29-.34c.9-3.82-6.68-2.91-8.64-2.74a18.86 18.86 0 0 0-5.82 1.12 22.58 22.58 0 0 0-3.2 1.72c-.76.48-2.06 1.24-2.4 2.1zM238.21 230.06c.93 1.2 3.39 1.62 4.8 2a20 20 0 0 0 2 .35h.38l.39.06c1.21.18 2.41.44 3.63.51 1.87.12 3.76.09 5.63.28 1.55.16 3.17.91 4.72.87a.78.78 0 0 0 .75-1c-.44-1.65-2.43-2.92-3.77-3.81a22 22 0 0 0-5.92-2.87 19.75 19.75 0 0 0-6.62-.73 21.67 21.67 0 0 0-3.34.51 5 5 0 0 0-2.63 1.24 1.89 1.89 0 0 0 0 2.56zM247.19 248.1a4.54 4.54 0 0 0 2.12 1.66c1.07.57 2.14 1.12 3.2 1.71a58.6 58.6 0 0 1 5.93 3.89c1.2.88 2.33-1.11 1.16-2a39.36 39.36 0 0 0-6.36-4c-1.5-.73-4.4-2.28-6.05-1.34zM263.83 257.26c.16.47.49.64.89.93.73.52 1.48 1 2.21 1.52s1.4 1 2.08 1.47 1 .77 1.79.62a.72.72 0 0 0 .53-.69c0-1.46-2-2.24-3.18-2.72-.75-.31-1.51-.6-2.29-.84a3.41 3.41 0 0 0-2-.32zM214.68 174.21a6.1 6.1 0 0 0-.09 1.13l.26-1c-2 3.07 1.61 5.83 3.48 7.84s4.6 3.72 6.92 5.51c2.13 1.64 4.38 3 6.65 4.44s4.47 2.45 6.51 4c1.47 1.1 3.23-1.28 1.94-2.52a46.38 46.38 0 0 0-5.9-4.34 38.26 38.26 0 0 1-3-2.59c-1-.89-2.06-1.8-3-2.76-2-2-3.12-4.71-5.1-6.74s-4.75-5.12-7.82-3.5l1.46-.19-.76-.19a1.27 1.27 0 0 0-1.54.87zM241.16 197.91a16.6 16.6 0 0 0 3.48 2.41c1.2.79 2.4 1.58 3.59 2.39 2.5 1.72 5.13 3.24 7.6 5a24.15 24.15 0 0 0 7.09 3.71 31.64 31.64 0 0 1 3.27 1.09c1.56.66 3.13.24 3.32-1.64a2 2 0 0 0-1-1.75c-1.84-1.23-4.24-1.4-6.25-2.25-2.26-1-4.21-2.6-6.32-3.83a34.75 34.75 0 0 0-7.25-3.07c-1.29-.4-2.58-.79-3.87-1.17a14.69 14.69 0 0 0-3.65-.93zM271.55 211.9a10.38 10.38 0 0 0 3.18 3.23 36.86 36.86 0 0 0 4.09 2.72 58 58 0 0 1 9.11 6.29c3.06 2.63 6 5.44 8.82 8.31 1.41 1.43 2.78 2.89 4.19 4.33.75.76 1.54 1.5 2.3 2.25a5.36 5.36 0 0 0 2.8 1.76 1.92 1.92 0 0 0 2-.7 2 2 0 0 0 .15-2.16 7.37 7.37 0 0 0-1.93-2.62c-.78-.74-1.56-1.48-2.37-2.18-1.53-1.31-3.11-2.58-4.68-3.84-3.09-2.48-6.16-5-9.33-7.37a45.8 45.8 0 0 0-9.45-5.41c-1.51-.65-3.06-1.22-4.55-1.93s-2.85-1.85-4.34-2.7zM400.17 20.06a8 8 0 0 0-3 1.57c-1.12.82-2.26 1.59-3.41 2.37s-2.54 1.71-3.79 2.59-2.64 1.65-3.85 2.66a38.45 38.45 0 0 0-10.83 15c-.65 1.63.58 3.62 2.07 4.23a3.55 3.55 0 0 0 4.43-1.48 101.3 101.3 0 0 1 8-14.39c.76-1.11 1.4-2.31 2.21-3.37s1.77-2.2 2.71-3.26 1.84-2 2.7-3.08a11.81 11.81 0 0 1 2.81-2.78zM424.06 31.2zM421.64 33.37a1.11 1.11 0 0 1 .71.47 1.14 1.14 0 0 0-.74-.49z"/><path d="M424.94 32.05c-1.29-2.45-3.93-4.87-6.81-3.32a8.17 8.17 0 0 0-2.92 3.39 35.86 35.86 0 0 0-2.38 6 106.06 106.06 0 0 0-3.71 13.79c-.92 4.9-1.36 9.9-1.86 14.86-.21 2.09-.48 4.17-.52 6.27 0 .85 0 1.69-.11 2.54 0 .14-.11.73 0 .2s0 .16-.07.27-.09.29-.12.44-.26 2-.07.6A3.67 3.67 0 0 0 408 81a3.54 3.54 0 0 0 4.25-.55c2.18-2.44 1.57-6 1.46-9-.16-4.38 0-8.79 0-13.17a85.38 85.38 0 0 1 1-12.8 52.42 52.42 0 0 1 3-12c.47-1.12 1.2-2.64 2.37-3.19 1.57-.73 3.47 1.08 4.57 1.94a.19.19 0 0 0 .3-.23zM418.58 74.56c-.85 3.06-1.3 6.31-1.92 9.43a46.63 46.63 0 0 0-1.14 9.78 78.22 78.22 0 0 0 1.1 10.23c.2 1.37.46 2.73.69 4.1s.46 2.74 1.58 3.65a3.93 3.93 0 0 0 4.2.8 3.83 3.83 0 0 0 2.36-3.51c-.08-2.33-1.09-4.77-1.74-7-.89-3.08-1.94-6.17-2.64-9.29a61.23 61.23 0 0 1-1.2-9c-.22-3-.14-6.26-1-9.19a.17.17 0 0 0-.33 0zM416.77 105.95c-2.27 3.88-2.6 8.42-4.08 12.6-.81 2.29-1.81 4.5-2.71 6.75a45.13 45.13 0 0 0-2.35 7.7 64 64 0 0 0 1.84 31.6c.85 2.73 1.87 5.4 2.64 8.15.9 3.21 1.08 6.44 3.3 9.1 1.57 1.88 5 1.74 6.6 0a4.79 4.79 0 0 0 0-6.6l-.1-.12c-1.3-1.53-3.75-1.57-5.39-.7l-.16.09 6.85 2.79c-.26-1-.71-2-1-3.09s-.46-2.27-.75-3.39c-.62-2.39-1.49-4.71-2.28-7.06s-1.44-4.76-2-7.18q-.39-1.71-.71-3.44-.13-.75-.25-1.5c0-.28-.08-.57-.13-.86.16 1 0-.37-.05-.47a112 112 0 0 1-.48-14.87c.09-4.94.1-9.86-.09-14.8s-.53-9.93 1.35-14.66c0-.06-.07-.1-.1 0zM404.69 83.23c-2.2 2.26-2.65 5.71-3.46 8.62-1.16 4.16-2.92 8.16-4.28 12.26a65.74 65.74 0 0 0-3 13.81 59.44 59.44 0 0 0 .35 13.55c.32 2.61.66 5.21 1 7.83s.29 6.28 3.29 7.1a2.52 2.52 0 0 0 2.81-1.15c.81-1.86.15-4-.07-6-.25-2.15-.53-4.3-.8-6.44a80.77 80.77 0 0 1-.75-13.09c.31-8.66 2.78-17 3.29-25.69.21-3.51-.33-7.67 1.77-10.73.06-.09-.07-.19-.15-.11zM402.81 72.19a37.83 37.83 0 0 1-3.4 5.05 41.36 41.36 0 0 0-3.33 5.39c-1.95 3.71-3.7 7.54-5.3 11.41a84.82 84.82 0 0 0-5.84 24.23c-.24 2.49 3.77 2.53 3.92 0a104 104 0 0 1 4.54-23.72c1.21-4 2.57-7.93 4.15-11.78a44.19 44.19 0 0 1 2.69-5.52 34.49 34.49 0 0 0 2.6-5zM424 50.47c-1.65 1.11-.12 5 .34 6.39 1.05 3.19 2.13 6.38 3 9.62 1.06 3.86 1.82 7.81 3 11.63.45 1.4 1.1 2.72 1.55 4.12a12.38 12.38 0 0 0 .91 2.62c.13.22.31.47.46.68-.1-.15.7.94.55.66a1.44 1.44 0 0 0 1.62.66 4 4 0 0 0 2.82-3.95 14.29 14.29 0 0 0-1.37-4.9c-1.46-3.55-2.59-7.18-4.3-10.63C431 64.08 428.8 61 427 57.9c-.65-1.13-1.37-2.22-2-3.39a9.43 9.43 0 0 1-.84-2.16 12.88 12.88 0 0 1-.09-1.87z"/><path d="M434.38 80.17c1.5 6.28 4.39 12.17 7.57 17.75 1.66 2.92 3.18 5.91 4.64 8.93.63 1.31-.19-.6.17.35l.48 1.29c.36 1 .71 1.94 1.1 2.9 1 2.47 2.3 6.31 5.58 6.24a3.35 3.35 0 0 0 3.08-4.33 17.68 17.68 0 0 0-1.57-3c-.12-.25-.24-.51-.36-.77s-.42-1-.11-.23q-.28-.67-.54-1.35c-.35-.91-.69-1.83-1.06-2.74a34.11 34.11 0 0 0-4.71-8.09c-4.57-5.81-10.18-10.71-14.19-17a.06.06 0 0 0-.1 0zM440.69 102.82c-.44.26-.23.95-.18 1.35.18 1.25.51 2.47.63 3.73a13.31 13.31 0 0 1 0 2c0 .28 0 .57-.06.85s-.07.39 0 0c-.31 1.86-1 5-.68 7.38.61 4.54 2.18 8.75 3.48 13.12.46 1.53.93 3.06 1.26 4.63.08.38.15.76.23 1.14q.13.8 0-.33 0 .3.05.6a17.21 17.21 0 0 0 .17 3c.72 3.23 5.49 4.65 7.7 2 2.92-3.46 1.39-8.5.19-12.4s-2.64-7.87-3.87-11.83a24.71 24.71 0 0 0-5.42-9.95 16.22 16.22 0 0 1-2.32-3.13 10.07 10.07 0 0 1-1.14-2.22zM461.42 53.84c-.69 1.58.18 3.48.67 5a30.07 30.07 0 0 1 1 6.75 130.19 130.19 0 0 0 1.75 15.21 4.1 4.1 0 0 0 5 2.85c2-.63 3.63-2.87 2.85-5-1.66-4.54-2.67-9.31-4.68-13.72a33.7 33.7 0 0 0-3.4-5.57 18 18 0 0 1-3.16-5.5h-.07zM472 85.65c-2.22 4.47-2.3 9.67-3.47 14.43-.67 2.71-1.21 5.42-1.77 8.15-.28 1.35-.49 2.71-.75 4.06-.32 1.65-1.07 3.59-.89 5.26.22 1.95 1.26 3.92 3.35 4.4 1.82.42 4.32-.22 5.15-2.1a9.66 9.66 0 0 0 .87-3.66q.05-1 .08-2.05c0-1.38.07-2.78 0-4.16-.1-2.92-.27-5.87-.62-8.78-.63-5.17-2-10.27-1.76-15.5a.11.11 0 0 0-.21-.06zM57 181.14c3.17.88 6.36 1.67 9.5 2.66s6.5 1.86 9.62 3.2c1.75.73 4.06-.79 4.45-2.53A3.68 3.68 0 0 0 78 180a30.05 30.05 0 0 0-10.84-1A62.63 62.63 0 0 0 57 180.88a.13.13 0 0 0 0 .25z"/><path d="M80.73 181.75c.56-.41.6-1.37.79-2a24.14 24.14 0 0 1 1.28-3.56 30.48 30.48 0 0 1 2.11-2.82c.65-1 1.18-2.14 1.8-3.19.39-.65.79-1.3 1.23-1.91l.29-.4q-.45.59.45-.58l.65-.94c.39-.57-.23.25 0-.07l.37-.45c.27-.32.55-.63.85-.92s.87-.71.16-.19c.14-.1.71-.38.07-.1s-.12.07 0 0a3.86 3.86 0 0 0 2.75-4.62 3.93 3.93 0 0 0-4.73-2.68c-2.31.51-3.93 2.59-5.17 4.44-.27.4-.53.82-.78 1.24-.12.2-.24.41-.35.62s-.69 1.61-.28.62a28.22 28.22 0 0 0-1.06 2.76 36.45 36.45 0 0 0-1 3.92 9.36 9.36 0 0 0-.18 2.32c0 .63.23 1.19.22 1.83 0 1.37-.17 2.72-.09 4.09 0 .77 0 2.11.63 2.61zM90.87 173.06c2.08-2.22 3.31-5.24 5.08-7.71a29.33 29.33 0 0 1 6.17-6.82 18 18 0 0 1 6.54-2.82 10.47 10.47 0 0 1 3.58-.44 9.16 9.16 0 0 0 2.27 0c.21 0 .38-.1.59-.16s.68-.17.38-.14a1.52 1.52 0 0 0 1.44-1.88c-.68-4.05-5.64-3.56-8.64-2.94a21.9 21.9 0 0 0-8.42 3.53 18.09 18.09 0 0 0-6.34 9.1c-.56 1.69-1 3.42-1.48 5.13a33.22 33.22 0 0 0-1.2 5.09zM57.09 186.06a4.67 4.67 0 0 0-2-.27c-.85 0-1.7-.09-2.55-.11a18.26 18.26 0 0 0-4.76.4 11.88 11.88 0 0 0-4.95 2.74 25 25 0 0 0-3.92 3.78c-1.07 1.37-2.62 3.63-2.37 5.45a2.84 2.84 0 0 0 2.46 2.4 2.94 2.94 0 0 0 2.57-2.4 5.85 5.85 0 0 1 .57-2 14.07 14.07 0 0 1 1.36-2 32.41 32.41 0 0 1 3.85-4.11 10 10 0 0 1 4.65-2.26c.91-.21 1.83-.39 2.74-.61a4.53 4.53 0 0 0 2.37-1z"/><path d="M45.92 192.18l-.28.2 1.13-.15a1.91 1.91 0 0 0-1.85.49 13.64 13.64 0 0 0-3.51 4.71q-.4.61 0 .17a4.14 4.14 0 0 0-1.07 1.83c-.14.39-.26.79-.37 1.19a27 27 0 0 0-.65 3.64A19.45 19.45 0 0 0 42 216.64a27.7 27.7 0 0 0 3.86 4.84c.62.66 1.17 1.39 1.76 2.09s.67.79 1.3 1.65a87.28 87.28 0 0 0 7.87 9.91 3.52 3.52 0 0 0 5-5 75.14 75.14 0 0 1-6.84-8.7 45.48 45.48 0 0 1-3-4.41c-.87-1.56-1.58-3.23-2.34-4.84l-.25-.53q.29.7 0 0c-.13-.36-.26-.72-.38-1.08a11.34 11.34 0 0 1-.62-2.55c.07 1.17 0-.08 0-.33v-1.75-2.75c0-.92.13-1.79.11-2.68q-.19-1.8-.14-.81v-.81-1.21a18.84 18.84 0 0 0-.16-2.82c-.1-1-.08-2-1.08-2.49l.68.88-.08-.34a1.23 1.23 0 0 0-1.8-.73z"/><path d="M59.67 232a61.69 61.69 0 0 0 3.19 6.25 25.36 25.36 0 0 0 4.53 5.35 82.92 82.92 0 0 0 11.2 8.6c3.85 2.56 7.8 5 11.74 7.41 3.31 2 6.62 4 9.76 6.25 2.8 2 7.56 5.7 11.14 3.58 2.07-1.22 1.37-5.13-1.31-4.85a6.12 6.12 0 0 1-.69 0c-.74 0 .24.17-.38 0a6.35 6.35 0 0 0-.68-.22c.31.13-.2-.1-.26-.13l-.61-.31a41 41 0 0 1-4.24-2.82 83.41 83.41 0 0 0-9.13-5.66 155.9 155.9 0 0 1-22.35-14.08c-1.94-1.52-3.82-3.11-5.76-4.63s-4.12-3-6-4.78a.08.08 0 0 0-.12.09z"/><path d="M93.49 252c1 1.53 2.85 2.58 4.19 3.83s2.77 2.65 4.22 3.94c2.34 2.08 4.28 3.66 6.84 5.61a41.91 41.91 0 0 0 6.73 4.43 14.74 14.74 0 0 0 3.82 1.44 5.34 5.34 0 0 0 4.56-1.24c1.47-1.15.44-3.35-1-3.84-.45-.15.38.27-.13-.07a5.12 5.12 0 0 0-1.13-.54c-.44-.16-.9-.28-1.34-.43l-.72-.26c.65.25-.25-.12-.38-.18-.56-.27-1.12-.57-1.66-.89-2.17-1.27-4.24-2.75-6.27-4.23a41.51 41.51 0 0 0-7.18-4c-1.8-.83-3.6-1.44-5.45-2.12-1.56-.58-3.37-1.5-5.06-1.48z"/><path d="M106.26 251.46a9.07 9.07 0 0 0 1.55 4.34 50 50 0 0 0 3.11 4.68 44.1 44.1 0 0 0 4.48 5.7c3.55 3.52 7.81 7 12.49 8.84a6.15 6.15 0 0 0 3.85.44 3 3 0 0 0 2.18-3 1.59 1.59 0 0 0-2-1.51c-.23.06.31 0 .3 0 .4-.11-.19 0-.36 0 0 0 .55.14.28 0-.12-.05-.2 0 .09.05.55.06-.31-.14-.39-.16a4.78 4.78 0 0 0-.76-.11h.25c-.34-.12-.71-.17-1.06-.27l-.6-.19c-.19-.06-.67-.27-.21-.07a38.66 38.66 0 0 1-5.92-3.42q-1.44-1-2.82-2l-.64-.48-.45-.35-.42-.32-.51-.41c-1.52-1.22-2.79-2.67-4.31-3.88s-3-2.36-4.43-3.65a27.06 27.06 0 0 1-3.63-4.26h-.07zM98.47 253.67c.26.85 1 2.27.8 3.13a.53.53 0 0 0 1 .28 37.58 37.58 0 0 0 1.59-5.92c.45-1.9.95-3.79 1.39-5.69s.54-3.74.88-5.6c.31-1.64 1.65-4.42-.78-5.1a2 2 0 0 0-2 .52c-2.19 2.74-1.68 7.13-2 10.43a31 31 0 0 0 0 5.32 21.17 21.17 0 0 1-.16 5.76l.89-.24a8.61 8.61 0 0 1-1.47-3c-.05-.13-.26-.08-.22.06zM86.53 240.62c.49-.43.51-1.12.68-1.72.26-.91.58-1.79.84-2.7.52-1.83 1.17-3.6 1.58-5.46.46-2.09 1-4.18 1.37-6.29.36-1.94 1.2-4.56.34-6.39-.76-1.62-3.11-.7-3.17.86a1.63 1.63 0 0 0 .5 1.2l-.27-2.06c-.66.87-.59 2-.74 3.09s-.34 2.13-.52 3.19c-.36 2.18-.77 4.35-1.14 6.53a40.47 40.47 0 0 0-.55 5.6c0 1 0 3.56 1.07 4.15zM77.19 234.48a12.5 12.5 0 0 0 2.69-3.69 16.44 16.44 0 0 0 1.91-4.9c.84-3.8 1.22-7.66 2.21-11.43.78-3-3.92-4.27-4.62-1.27a93.24 93.24 0 0 0-1.87 11.67c-.17 1.71-.48 3.4-.68 5.11-.17 1.41-.48 3.11.13 4.45a.17.17 0 0 0 .23.06zM91.56 193.08c.3.48 1.45.26 1.92.26 1.22 0 2.41.17 3.62.19a70.4 70.4 0 0 1 7.33.12c1.63.2 3-1.54 3-3a3.06 3.06 0 0 0-3-3 19.35 19.35 0 0 0-8.38 2c-.53.27-4.82 2.91-4.48 3.45z"/><path d="M94.72 196.59a12.1 12.1 0 0 1 4 1.17 11.27 11.27 0 0 1 1.69 1.07c-.35-.26.07.07.2.18.38.32.76.63 1.16.92a73.41 73.41 0 0 0 6.84 4.35c2.07 1.18 4.21 2.23 6.21 3.53.51.33 1 .68 1.49 1 .19.13 1 .72.19.1l.61.5a29.74 29.74 0 0 0 2.89 2.62c1.64 1.07 4.65.12 4.93-2 .47-3.49-1.83-6.65-4.42-8.82a76.91 76.91 0 0 0-7.27-5.18c-3.1-2-6.71-3.94-10.54-3.32a20.32 20.32 0 0 0-8.05 3.6.13.13 0 0 0 .07.25zM118.11 216a25 25 0 0 1 2.52 1.86 70.38 70.38 0 0 1 3.66 3.67c1.32 1.42 2.51 3 3.51 4.2.29.36.6.7.89 1.05.11.13.78 1 .39.47a15.39 15.39 0 0 1 1.2 1.77 7.15 7.15 0 0 0 1 1.68 2.64 2.64 0 0 0 3.81.2c1.73-1.73.58-3.94-.66-5.5a30 30 0 0 0-8.3-6.71 25.68 25.68 0 0 0-5-2.45c-.78-.26-2.3-.92-3-.29zM110.35 228.95a9.23 9.23 0 0 1 3.32 2.32c1.07 1 2.05 2 3.14 3 1.26 1.14 2.46 2.36 3.65 3.58 2.46 2.51 5 5 7.29 7.7a3.88 3.88 0 0 0 3.85 1 4 4 0 0 0 2.36-1.82 4.13 4.13 0 0 0-.62-4.8 81.57 81.57 0 0 0-8.18-7.76c-3.93-3.31-9.86-5.87-14.86-3.58-.14.07-.09.27 0 .31zM124.06 248.52a7.56 7.56 0 0 1 2.72.75 12.27 12.27 0 0 1 2.77 2c.87.83 1.69 1.73 2.48 2.63.34.39.67.79 1 1.2.54.66-.3-.41.15.19l.43.58c.77 1 1.63 2 2.43 3 .45.57-.11-.14.3.39s.64.82 1 1.23l.66.82a3 3 0 0 1 .32.41c.74 1 1.43 2 2.09 3.07.32.51.66 1 1 1.53a8 8 0 0 0 .82 1.2c.44.54-.34-.53.05.09a3.36 3.36 0 0 0 3.7 1.5 3.28 3.28 0 0 0 2.4-3.16 10.54 10.54 0 0 0-1.48-4.57 31.56 31.56 0 0 0-3-3.93 32.45 32.45 0 0 0-6.46-6 28.39 28.39 0 0 0-6.93-3.46c-1.79-.59-4.89-1.48-6.49.05a.3.3 0 0 0 .13.49zM124.64 159.23c2.78.07 5.1 3.51 6.44 5.57a51 51 0 0 1 4.3 8.67 77 77 0 0 1 3.89 11.48c.48 2.05.91 4.11 1.39 6.16.22.93.44 1.87.59 2.81s.08 2.24.71 3.16a2 2 0 0 0 3.45 0c.88-1.46.5-3.77.46-5.43a32.24 32.24 0 0 0-.57-5.54 50.73 50.73 0 0 0-3.4-10.3 38.33 38.33 0 0 0-11.16-14.25c-1.62-1.33-3.9-3.21-6.16-2.67a.17.17 0 0 0 0 .33z"/><path d="M143 233.13c-.09-2.57-.39-5.11-.39-7.69s.15-5.15.37-7.72q.4-4.75.7-9.51c.32-5.05.72-10.48-.48-15.45-.43-1.79-1.72-4.67-4.06-3.6a.91.91 0 0 0 0 1.56 4.44 4.44 0 0 1 .48.37l.12.18c.11.16.2.36.29.53a8.93 8.93 0 0 1 .74 2.36 38.31 38.31 0 0 1 .52 7.24c0 5.29-.49 10.56-.4 15.84 0 2.73.16 5.47.47 8.19a30.38 30.38 0 0 0 1.6 7.69zM144.37 232.56c-.92.66-1.19 2.06-1.33 3.11a36.84 36.84 0 0 0-.25 4.9 30.75 30.75 0 0 0 2.67 12.22c2 4.52 3.66 9.15 5.76 13.62a66.7 66.7 0 0 0 5.28 9.13c1 1.43 2 2.85 3 4.22.73 1 1.65 2.41 2.79 2.93a1.43 1.43 0 0 0 1.62-.21 1.1 1.1 0 0 0 .39-.83.89.89 0 0 0-.25-.62c.14.13.16.67.22.73q-.05.38 0-.22a1 1 0 0 0-.12-.52c-.26-.63-.58-.66-1-1.1a17.6 17.6 0 0 1-1.27-1.49c-1.68-2.16-3.15-4.48-4.66-6.76a84.87 84.87 0 0 1-6.76-13.39c-2-4.71-4.64-9.36-5.42-14.49-.28-1.84-.51-3.72-.73-5.57-.19-1.64-.63-4 .14-5.53 0-.08 0-.19-.13-.13zM281.7 128.88c-.79.13-1.41 1.76-1.88 2.34-.86 1.09-1.8 2.14-2.7 3.21a19.83 19.83 0 0 0-3.7 5.52c-.7 1.81-1.23 3.69-1.94 5.5-.54 1.38-1.68 2.86-2.05 4a.73.73 0 0 0 .33.81c3.17 1.9 5.24-7.62 5.87-9.36.86-2.4 2.62-4.39 4.09-6.43a14.09 14.09 0 0 0 2-3.79c0-.11.54-1.89 0-1.8z"/><path d="M269.42 158.1c.65-1.25 1.1-2.56 1.83-3.77a38.25 38.25 0 0 1 2.3-3.36 71.89 71.89 0 0 0 4.94-7.3 52.16 52.16 0 0 1 3.73-6.41 14.23 14.23 0 0 1 2.16-2.3 8.28 8.28 0 0 1 2.1-1 1.35 1.35 0 0 0 0-2.31c-2.12-1-4.39 1.35-5.64 2.81a34.44 34.44 0 0 0-4.12 6.65c-1.52 2.87-3.12 5.72-4.57 8.62-1.22 2.44-3 5.6-2.77 8.42zM301.32 140.22c1.09-2.23 4.51-2 6.54-1.67a15.18 15.18 0 0 1 6.34 2.23l-.65-1.59c-.1.26-.17.52-.25.78a1 1 0 0 0 1.23 1.23 3.86 3.86 0 0 0 1.08-.43 1.42 1.42 0 0 0 .28-2.21c-2-1.87-6-2-8.56-1.89-2.31.12-5.88.62-6.58 3.3-.08.32.4.55.55.23zM304.61 141.94a58.37 58.37 0 0 1 4.28 4.45c1.18 1.54 2.14 3.21 3.21 4.82s1.9 3.2 2.9 4.79c1.24 2 2.76 4.47 5.15 5.17 2.14.62 4.9-1.62 3.94-3.94a12.88 12.88 0 0 0-2.21-3.2c.22.28-.78-1-.62-.81-.31-.41-.6-.82-.9-1.23a20.2 20.2 0 0 0-5-4.9 50.77 50.77 0 0 0-5.34-3.27c-1.61-.83-3.6-1.88-5.46-1.93zM316.88 161.9c-.52.44 1.7 3 2 3.33.73 1 1.41 2.07 2.13 3.09a68.28 68.28 0 0 1 3.9 6.8c1 1.91 3.74.23 2.87-1.68a28.34 28.34 0 0 0-4.86-6.59 28.81 28.81 0 0 0-5.53-5 .38.38 0 0 0-.4 0l-.08.06zM273.7 176.62c1.35.11 2.92-2 3.65-2.91a41.78 41.78 0 0 0 3.51-5.87c1-1.91 2.05-3.82 3.25-5.62a8.83 8.83 0 0 1 1.41-1.76 3.86 3.86 0 0 1 .36-.32c-.46.35 0 0 .06 0 .38 0-.34.14 0 0a4.46 4.46 0 0 0 1.06-.66c1.18-1 .45-2.91-.86-3.27-2.1-.57-3.82 1.57-4.91 3.05a37.61 37.61 0 0 0-3.23 5.64c-1 2.12-1.95 4.28-2.91 6.43-.42.94-.76 1.9-1.12 2.86a6 6 0 0 0-.66 2.06.38.38 0 0 0 .37.37zM285.58 177.4a55.24 55.24 0 0 1 4.78-10.32c.89-1.61 1.92-3.09 2.91-4.64a6.49 6.49 0 0 0 1.33-3 2.12 2.12 0 0 0-1.85-2.16c-1.24 0-1.86 1-2.26 2s-.9 1.76-1.36 2.64a30.4 30.4 0 0 0-1.81 5c-1 3.16-2.64 7.16-1.76 10.5z"/><path d="M289.65 117.07a25.75 25.75 0 0 0-1 5.21c-.3 1.67-.61 3.34-.88 5a37.69 37.69 0 0 0-.69 10.53 39.79 39.79 0 0 0 3.14 10.77 25 25 0 0 0 2.27 4.13c.42.62.84 1.24 1.2 1.9 0 .07.44.86.3.56s.51 1.13.61 1.36c1.37 3 6.67 1.58 6.32-1.71s-2.63-5.66-4.1-8.53a58.64 58.64 0 0 1-4-9.49 49.42 49.42 0 0 1-2-10c-.16-1.73-.29-3.46-.44-5.2a14.58 14.58 0 0 0-.73-4.56z"/><path d="M298.1 158.08c-.61.67-.34 2-.23 2.82.18 1.36.67 2.66 1 4 .66 3.12.67 6.38 1.11 9.53s1.08 6.49 1.73 9.72c.34 1.7.7 3.41 1 5.11s.5 3.46 1 5.11c1 3.49 6.57 2.91 6.44-.87a42.15 42.15 0 0 0-.81-5.56q-.4-2.34-.84-4.67a100.79 100.79 0 0 0-2.24-9.86 37.26 37.26 0 0 0-3.75-8.84c-.71-1.17-1.61-2.22-2.39-3.34-.37-.53-.76-1-1.09-1.61a5.76 5.76 0 0 0-.85-1.54z"/><path d="M292.82 187.3c.47-.48.45-1.6.63-2.24a22.07 22.07 0 0 1 1.31-3.27 60.05 60.05 0 0 1 2.66-5.4c.92-1.5 2.22-2.75 3.25-4.17.89-1.23 2.1-3.1 1-4.58-.45-.62-1.67-.7-1.83.24-.57 3.25-3.38 5.4-4.55 8.39-.78 2-1.59 3.95-2.17 6-.28 1-1.39 4.19-.36 5zM212.49 174.94c-1.63-.23-3.13 1.22-4 2.41s-2.32 3.48-2.13 5.11c.05.41.63.84 1 .4.89-1.15 1.05-2.8 1.76-4.09a7.48 7.48 0 0 1 1.43-1.93 12.8 12.8 0 0 1 2.07-1.28c.22-.14.23-.57-.08-.62zM205.45 181.72c-1.52 1.29-2.36 3.78-3 5.62a23 23 0 0 0-1.28 6.93c-.09 2.34 0 4.67.11 7a8.84 8.84 0 0 0 .19 1.75 10.94 10.94 0 0 1 .47 1.69c.12 1.12 0 2.26.9 3.06a.68.68 0 0 0 .93 0 3.12 3.12 0 0 0 .81-2.63c0-1.18.37-2.27.35-3.44 0-2.27-.31-4.53-.39-6.8s-.14-4.45-.07-6.66a23.15 23.15 0 0 1 .39-3.52 22.34 22.34 0 0 0 .64-3z"/><path d="M202.56 204.16c-1.08.35-1.88 2.25-2.32 3.18a17.57 17.57 0 0 0-1.5 4.61 36.39 36.39 0 0 0-.56 5v2.42a4.19 4.19 0 0 0 .72 2.25.65.65 0 0 0 1.11 0 4.67 4.67 0 0 0 .6-1.92v-2c0-1.63.12-3.26.3-4.88s.38-3.16.69-4.7c.14-.72.33-1.41.54-2.11a5.23 5.23 0 0 0 .46-1.8z"/><path d="M203.2 221.64a9.22 9.22 0 0 0-4.41-2.73c-1.63-.51-3.4-1.24-5.13-1-4.59.71-4.8 7.57-4.61 11a43.84 43.84 0 0 0 3.87 14.82 53.32 53.32 0 0 0 6.25 11.3 59.66 59.66 0 0 0 19.17 16.06 95.83 95.83 0 0 0 11.44 5.25A60.63 60.63 0 0 0 242 280a69.68 69.68 0 0 0 15.44.74 74.24 74.24 0 0 0 7.56-.85q1.87-.31 3.71-.72a7.3 7.3 0 0 0 3.54-1.42c1.53-1.37-.42-3.7-2.14-2.77a5.33 5.33 0 0 1-.52.26 1.48 1.48 0 0 0 0 2.54 5.14 5.14 0 0 0 .52.24l1.36-3.22c-2-.35-4.1.58-6 1s-3.87.66-5.82.85a63.59 63.59 0 0 1-12.59 0c-7.65-.78-14.72-3.55-21.53-7a67.91 67.91 0 0 1-18.29-12.91 42 42 0 0 1-6.48-8.62 70.16 70.16 0 0 1-4.76-11.54c-1.54-4.46-2.44-9.08-1.15-13.71a5.44 5.44 0 0 0 .2-.75s.42-.9.17-.44a3.31 3.31 0 0 1 .22-.38 2.64 2.64 0 0 1 1.5-.88 8.35 8.35 0 0 1 6 1.55c.2.15.39-.16.25-.33z"/><path d="M198.94 218.63c-2.21.56-2.63 4.34-2.68 6.16a28.27 28.27 0 0 0 1.19 8.27c2 7.07 7 13.25 12.27 18.2 1.52 1.43 3.15 2.73 4.69 4.14a31.44 31.44 0 0 1 2.34 2.33 6 6 0 0 0 2.21 1.88 1 1 0 0 0 1.19-.91c0-1.67-1.45-2.89-2.56-4s-2.62-2.37-4-3.52a78 78 0 0 1-7.44-7.36 34.53 34.53 0 0 1-5.72-8.4 35 35 0 0 1-2.41-8.22 18.28 18.28 0 0 1-.32-4.67 7.87 7.87 0 0 1 .39-2.15c.22-.62.62-1.12.84-1.73zM266.19 272.73a12.29 12.29 0 0 0 11.81-4.94c2.62-3.44 5.1-6.92 9.35-8.42a29.17 29.17 0 0 1 8.17-1.28 38.44 38.44 0 0 0 8.55-1.61c5.27-1.55 10.66-3.79 14.89-7.38a22.57 22.57 0 0 0 7.06-12.8 2.88 2.88 0 1 0-5.56-1.53c-.82 1.95-1.28 3.65-2.16 5.39a19.53 19.53 0 0 1-1.33 2.29l-.34.48c.28-.37 0 0-.08.08q-.54.64-1.13 1.22a24.05 24.05 0 0 1-5.19 3.58 53 53 0 0 1-6.93 3.41 56.74 56.74 0 0 1-7.73 2.31 58 58 0 0 0-8.07 2.08 19.24 19.24 0 0 0-9.2 7.74c-1.38 2.1-2.46 4.4-4.44 6a13.47 13.47 0 0 1-7.56 2.78c-.3 0-.41.49-.08.56z"/><path d="M215.6 262.58c1.68-.45 2.21-3.1 2.38-4.55a52.18 52.18 0 0 0 0-6.87c0-2.43-.05-5.17 1.47-7.19 1.25-1.66 4.44-4.2 3.14-6.5a1.8 1.8 0 0 0-2.42-.63c-1 .53-1.29 1.84-1.93 2.73s-1.46 1.84-2.1 2.82c-1.48 2.29-1.58 5.2-1.52 7.84a43.32 43.32 0 0 0 .9 6.4 21.3 21.3 0 0 1 .36 3.36 22.57 22.57 0 0 1-.32 2.59zM223.58 254.85c.92-3.4.63-7 1.26-10.5a14 14 0 0 1 1.78-4.87 6.8 6.8 0 0 1 1.63-1.88 3 3 0 0 0 1.53-2.55 1.69 1.69 0 0 0-1.23-1.61 2.86 2.86 0 0 0-3.13 1.57 19.2 19.2 0 0 0-1.29 2.46 18.88 18.88 0 0 0-1.41 5.76 32.27 32.27 0 0 0 .81 11.63zM248.4 120.2c-1.6 1.27-3.46 1.88-5.24 2.83a12.73 12.73 0 0 0-4.53 4.38c-2.85 4.43-2.51 10.1-1.71 15.06 1.62 10.07 6.86 18.92 11.71 27.71 1.17 2.12 3.94 9.15 7.33 6.79a2.07 2.07 0 0 0 .41-3.2c1.14 1.29.43 1 .41.65a1.88 1.88 0 0 0-.26-.7 6.4 6.4 0 0 0-.73-.88c.33.39-.21-.32-.28-.42-.19-.29-.37-.6-.55-.9-.7-1.2-1.33-2.44-2-3.67a121.57 121.57 0 0 1-5.78-11.69c-3.22-8-6.78-17.25-4.49-26 .57-2.17 1-4.07 2.56-5.77 1.14-1.28 2.66-2.52 3.16-4.22z"/><path d="M248.41 121.64c-3.23-.42-5.14 4.11-6.2 6.45-2.21 4.86-3.24 10-2 15.26s4.5 10.31 7.68 14.65c2.88 3.94 5.78 7.91 8.83 11.72 2.4 3 5.27 6.51 9 7.88a3.44 3.44 0 0 0 3.7-.43 2.74 2.74 0 0 0 .79-1.32 2.24 2.24 0 0 0 0-1.18c-.06-.21-.48-1.16 0-.09a3 3 0 0 0-2-1.94c-.31-.09-.64-.13-1-.24.59.21-.29-.18-.47-.29l-.52-.34c-.68-.47.37.33-.29-.22a31.58 31.58 0 0 1-4.19-4.35l-.8-1s-.57-.73-.21-.26l-.59-.76-.69-.88-1-1.27c-3.31-4.26-6.87-8.32-9.89-12.8a39 39 0 0 1-4.31-8.08 21.08 21.08 0 0 1-.93-10 29.67 29.67 0 0 1 1.24-5.94c.59-1.76 1.7-4.19 3.75-4.55zM257.06 181.57c.12 2.39 2.29 4.1 3.06 6.26a2.16 2.16 0 1 0 3.18-2.44c-.91-.65-1.87-1.25-2.79-1.88s-1.81-1.49-2.74-2.23c-.26-.21-.74-.1-.72.3zM274.94 194a40 40 0 0 1 4.24 4.41c1.41 1.67 2.56 3.61 4 5.22a3 3 0 1 0 4.24-4.24 22.82 22.82 0 0 0-5.83-4.14 26.68 26.68 0 0 0-5.93-2.54c-.71-.19-1.34.77-.75 1.28zM267.21 178.12a10.67 10.67 0 0 0 2 3.07c.71.94 2 2.35 2 3.61-.18 2.48 4 .64 2.13-.88-1.1-.9-2-2.11-3-3.07a30.21 30.21 0 0 0-3-2.74zM279.39 187.81a6.71 6.71 0 0 0 1.7 2.57c.38.4.78.78 1.16 1.18.18.19.34.42.53.6s.06.61.22-.09a2.09 2.09 0 0 0 2.81 2.45c1.42-.63 1.82-2.93.25-3.7-1-.48-1.88-1.1-2.9-1.54a12.18 12.18 0 0 1-3.32-1.73c-.19-.17-.54 0-.45.26z"/><path d="M286.07 197c.41 1.53 1.49 2.93 1.73 4.48a22.27 22.27 0 0 0 .46 2.45c.1.36.24.72.37 1.07s.39 1 .62 1.41.23.5.09.19-.11-.25.05.14.39 1 .61 1.42c.51 1.12-.34-.9.11.26.32.83.64 1.65 1 2.48.83 2.07 1.69 4.32 3.31 5.92a4.66 4.66 0 0 0 7.31-5.64c-.78-1.54-1.66-3-2.36-4.59a23 23 0 0 0-2.92-5.21 9.56 9.56 0 0 0-5.34-3.18c-1.59-.41-3.07-1.21-4.73-1.49a.23.23 0 0 0-.28.28zM304.4 216.47c-.28-.27-.71-.35-.85-.74s.12-.82.33-1.18c.41-.68 1-1.27 1.33-2 .92-1.71 1-3.75 1.34-5.61.51-2.43-3.43-2.44-2.91 0a14.78 14.78 0 0 1 .26 3.94 10.47 10.47 0 0 1-.91 3 2.48 2.48 0 0 0-.11 2.13 1.23 1.23 0 0 0 1.5.46z"/><path d="M306.56 212.41c.17 0 .21-.09.33-.17.44-.33.76-.93 1.23-1.28a11.52 11.52 0 0 0 2.82-2.26 11.22 11.22 0 0 0 1.07-2.13 8.82 8.82 0 0 1 .64-1.15 3.85 3.85 0 0 0 .24-.45c.2-.45-.22.18-.44.34a3.29 3.29 0 1 0-4-5.18c-1.87 1.68-1.68 4-1.77 6.28a4.83 4.83 0 0 1-.15 1c-.08.54-.09 1.07-.14 1.61a10.82 10.82 0 0 0-.14 3.16.34.34 0 0 0 .25.25z"/><path d="M313.57 204a4.84 4.84 0 0 0 1.36-2.11 24.16 24.16 0 0 0 1-2.68c.67-2 1-4.47 2.32-6.08l-3.25-1.39a16 16 0 0 1-.47 3.54 5.87 5.87 0 0 0-.31 2.18c0-.6 0 .14.14.37a1.93 1.93 0 0 0 .68.69c1.83 1.07 3.75-.78 4.06-2.5a15.83 15.83 0 0 0-.26-4.27c-.25-2.39-3.89-2.51-3.83 0a7.52 7.52 0 0 1 0 1.67c-.11.57-.29 1.13-.43 1.69-.26 1.08-.48 2.17-.67 3.27a29.69 29.69 0 0 0-.45 3.08 5.26 5.26 0 0 0 .09 2.5h.05zM319.26 177.4c1.66 1.74 1.79 4.34 3.38 6.1 1.39 1.53 3.9-.44 2.84-2.19a13.25 13.25 0 0 0-2.78-3 8 8 0 0 0-3-1.74.5.5 0 0 0-.48.83z"/><path d="M324.51 190c.45-.94.58-2 .94-3a23.28 23.28 0 0 1 1.64-3c1.09-2 2.57-3.8 3.72-5.78 1.53-2.63-2.46-4.94-4.07-2.38a21.71 21.71 0 0 0-2.83 7.19 16.25 16.25 0 0 0-.08 3.56 9.31 9.31 0 0 0 .48 3.41.11.11 0 0 0 .2 0z"/><path d="M331 177.15a5.72 5.72 0 0 1 .45-2.15 10.14 10.14 0 0 1 .9-2.34 36 36 0 0 1 3.38-4.91 38.93 38.93 0 0 1 4.09-4.54 14.32 14.32 0 0 1 1.89-1.51 12.25 12.25 0 0 0 2.12-1.33 2.14 2.14 0 0 0-1.5-3.62c-1.93 0-4 2-5.37 3.22a26.72 26.72 0 0 0-4.7 5.48 16.26 16.26 0 0 0-2.51 6.63 10.46 10.46 0 0 0-.07 2.79 5.74 5.74 0 0 0 1.14 2.32c0 .07.18.05.18 0zM346.63 150.62a50.11 50.11 0 0 0 1.2-5.23A35.36 35.36 0 0 0 349 140a15.93 15.93 0 0 0-.4-4.58 16.75 16.75 0 0 0-1.43-4.62c-1.94-3.46-7.37-.31-5.33 3.11.69 1.16 1.73 2 2.38 3.17a11.65 11.65 0 0 1 1 3.84c.25 1.63.45 3.26.63 4.9a21.82 21.82 0 0 0 .69 4.82zM329.46 116.83a7.43 7.43 0 0 0 1.21 2.46 33.44 33.44 0 0 1 1.54 3.09c.87 2.05 1.64 4.18 2.42 6.27a3.27 3.27 0 0 0 3.91 2.22 3.21 3.21 0 0 0 2.22-3.91 8.12 8.12 0 0 1-.47-1.13c.15.93.12.08.06-.17a13.36 13.36 0 0 0-.54-1.53 21 21 0 0 0-2-3.87 7.06 7.06 0 0 0-3.75-3.14 3.58 3.58 0 0 0-3.76 1.05 1.6 1.6 0 0 0 .32 2.47c.29.17-.14-.24.05.05-.33-.52-.09 0 0 .05.17.3.43.54.63.82-.32-.48 0 0 .15.23s.39.49.61.72-.29-.38.06.07c-.35-.45 1.06 1.37.48.61.16.21.31.43.46.65a14.36 14.36 0 0 1 .75 1.27c.1.2.19.4.29.6.32.64-.11-.36.1.23.15.43.27.88.43 1.31s-.15 1 .12-.68a2.57 2.57 0 0 1-.11.4l5.32-1.4a44.08 44.08 0 0 0-5.2-5.09c-.86-.71-1.72-1.41-2.61-2.08a6.58 6.58 0 0 0-2.66-1.58zM293.9 119c.62-2.51 3.3-4.36 5.44-5.58a14.81 14.81 0 0 1 3.64-1.35c.48-.13 1-.18 1.48-.34-.15.05-.63.08-.23 0s1.35-.15.48-.06a47.18 47.18 0 0 1 5.16-.22c1.1 0 2.19 0 3.28.11l1.57.13.7.08c.72.08-.31-.06.37 0 .51.09 1 .17 1.52.29a8.48 8.48 0 0 0 1.28.38s-.57-.33-.09 0l.44.27s-1-.73-.13-.09a2.7 2.7 0 0 0 1.12.58 3 3 0 0 0 1 .16 3 3 0 0 0 2.73-2.07c.7-1.88-.91-3.52-2.49-4.18a12.43 12.43 0 0 0-3.37-.77 37.69 37.69 0 0 0-7.08-.06 42.7 42.7 0 0 0-6.62.81c-2.33.53-4.46 2.18-6.37 3.52-2.78 2-5.06 4.74-4.08 8.35a.13.13 0 0 0 .25 0zM285.57 118.08c.91-.16 1.56-1.67 2.06-2.34l-.52.4c.52-.1.92-.38 1.41-.51-.05 0 1 0 .43-.11l-1.52-1.17a3 3 0 0 0 3.31 1.36 2.93 2.93 0 0 0 1.89-3.94c-1.4-3.32-6.46-1.43-5.46 2l.26-2c.29-.48-.19.11-.29.22a6.87 6.87 0 0 0-.53.61 3.59 3.59 0 0 0-.79 1.88 5.94 5.94 0 0 0 .16.88 4.31 4.31 0 0 1-.15.92 6.76 6.76 0 0 0-.31 1.75zM277.11 115.9a3.18 3.18 0 0 0 1.56-.36c.69-.25 1.47-.84 2.23-.76 1.83.21 1.69-3.17-.36-2.64a8.39 8.39 0 0 1-1.95.3l1.23.51-.2-.22a2.28 2.28 0 0 0-2.75-.36 2.84 2.84 0 0 0-1.1 1.14 2 2 0 0 0 .7 2.65 2.94 2.94 0 0 0 1.55.44 2.27 2.27 0 0 0 2.19-1.67l.06-.29-.8 1c.69-.38 1.42-.69 2.11-1.09l-1.84-1.84c-.32.74-1.29 1.17-1.82 1.75a2.51 2.51 0 0 0-.83 1.36z"/><path d="M271.58 114.44c1.53-.41 2.88-1.71 4.56-1.3l-1.13-.66a3.78 3.78 0 0 0 3.24 1.29 3.44 3.44 0 1 0-3.62-4.73 13.49 13.49 0 0 1-1.73 2.62 5.44 5.44 0 0 0-1.34 2.76zM262.13 117.16c1.77-2 4.48-2.43 7-2.54a2.45 2.45 0 0 0 1.71-4.13l-.19-.18a2.35 2.35 0 0 0-3.9 2.27v.26l1.11-2.73a15.52 15.52 0 0 0-4 3 9.13 9.13 0 0 0-2.55 3.59.47.47 0 0 0 .77.45zM260.82 112.86c-1.4-.83-3.45-.63-5-.3a12.88 12.88 0 0 0-5 2.36 24.73 24.73 0 0 0-6.69 8.89 22.86 22.86 0 0 0-1.48 13.57c.35 2.17.86 4.32 1.37 6.46a12.9 12.9 0 0 0 1.26 3.3 8.77 8.77 0 0 0 1.57 2.58.79.79 0 0 0 1.21-.16 5.46 5.46 0 0 0 .68-2.49 11.74 11.74 0 0 0 .15-3c-.22-2-.82-4.07-1.18-6.1-.66-3.65-.85-7.47.63-11a25.46 25.46 0 0 1 5.21-7.87 28.41 28.41 0 0 1 3.32-3.16c1.23-.89 2.69-1.47 3.89-2.37a.43.43 0 0 0 0-.73z"/><path d="M251.58 134.75c-.22-.86-1.44-.93-1.69-1.81v-1.13a6.34 6.34 0 0 1 .17-1.34 32.16 32.16 0 0 1 2.1-6 58.73 58.73 0 0 0 3.7-10c.34-1.37.63-2.76 1.1-4.1.2-.57.52-1.11.83-1.79a3.9 3.9 0 0 0 .33-1.09c0 .26.13-1.34.05-.88a1.65 1.65 0 0 0-1.13-2c-3.82-.71-5 3.2-5.76 6.19a101.17 101.17 0 0 1-2.59 9.85 41.25 41.25 0 0 0-1.83 5.81c-.4 2-.61 4.72.38 6.63a5.46 5.46 0 0 0 2.12 2.13c.52.26 2.53.69 2.22-.53zM223.54 27.56c-.36 1.09-1.73 1.69-2.64 2.25a9 9 0 0 0-2.34 2 19.31 19.31 0 0 0-3.39 6.72 54.65 54.65 0 0 0-1.74 8.85c-.41 3-.86 6-1.06 9-.39 5.91 1.09 11.68 1.21 17.57.12 6-.55 12.1.62 18.08a52.11 52.11 0 0 0 2.92 8.77c.57 1.47 1.22 2.91 1.69 4.43a18.37 18.37 0 0 1 .57 2.23 15.69 15.69 0 0 0 .35 2.41 2.31 2.31 0 0 0 3.33 1.35c.22-.09.29-.09 0 0 .26-.05.53-.07.8-.11a10.46 10.46 0 0 0 1.12-.28 18.13 18.13 0 0 0 2.54-1A27.08 27.08 0 0 0 232 107c2.67-2 5.31-4.35 8.64-5 3-.61 1.7-5.53-1.27-4.62-3.38 1-6.12 3.41-8.81 5.61a36.2 36.2 0 0 1-4 3 10.91 10.91 0 0 1-2 1c-.37.13-.77.15-1.13.28h-.35q.43.25 0 0l1 2.56a9 9 0 0 0 .12-4.32 30.63 30.63 0 0 0-.9-4.44c-.72-2.6-1.86-5.06-2.61-7.65-1.59-5.53-1.2-11.34-1.16-17 0-5.92-1.2-11.66-1.58-17.54-.19-2.93-.12-5.92-.11-8.86a79.16 79.16 0 0 1 .51-8.81c.35-3.06.58-6.21 2.07-9 .8-1.5 3.29-2.8 3.15-4.68z"/><path d="M238.6 104.06a11.86 11.86 0 0 0 4.79-1.42 23.81 23.81 0 0 0 4.82-2.93 32.77 32.77 0 0 0 4.28-3.85c1.13-1.23 2.74-2.82 3.19-4.46a1.54 1.54 0 0 0-1-1.84 1.92 1.92 0 0 0-1.22 0 1.15 1.15 0 0 0-.5 1.89l-.17-.41.44-1.06a11.49 11.49 0 0 0-1.39 1.86c-.47.64-1 1.25-1.52 1.84a39.3 39.3 0 0 1-3.85 3.75 38.85 38.85 0 0 1-4.11 3c-1.33.85-2.77 1.3-4.13 2a.85.85 0 0 0 .43 1.58zM255.19 95.41a6.13 6.13 0 0 0 1.32-1c.53-.43 1.08-.81 1.57-1.27a13.6 13.6 0 0 0 2.45-3 42.06 42.06 0 0 0 3.65-7.87l-1.34 1.34.15-.06c1.95-.77 2.29-3.7 0-4.33-2-.56-4 2.26-2.18 3.75l.17.14-.56-1.35c-.19 2.57-1.36 5.2-2.35 7.56a25.75 25.75 0 0 1-1.82 3.09 6.17 6.17 0 0 0-1.15 3 .06.06 0 0 0 .09 0zM257.84 100.43c1.16-4.64 5.43-7.59 8.76-10.68a42.94 42.94 0 0 0 5-5.56 28.7 28.7 0 0 0 4.28-6.89 3.77 3.77 0 0 0-2.62-4.61 3.86 3.86 0 0 0-4.61 2.62c-.85 2.22-1.19 4.6-2.18 6.79a43.61 43.61 0 0 1-3.7 6.76c-2.28 3.31-6.09 7.19-5 11.59z"/><path d="M262.81 68.32c-1 3.27.3 7 1.05 10.23.91 3.88 1.95 7.74 3 11.58a3.29 3.29 0 1 0 6.34-1.75c-1.33-3.72-3.58-7.17-5.52-10.59-1.69-3-4.38-5.91-4.72-9.46a.08.08 0 0 0-.15 0z"/><path d="M268.67 80.68c1.92.53 4.38-.4 6.13-1.11a32.55 32.55 0 0 0 6.56-3.57A84.07 84.07 0 0 0 294 64.25c2.34-2.53-1.77-5.83-3.79-2.92A72.05 72.05 0 0 1 280 73.5a43.86 43.86 0 0 1-5.41 4.35 25 25 0 0 1-2.92 1.65c-1 .48-2 .72-3 1.11v.07zM281 59.73a13.3 13.3 0 0 0 2.24-2.32c.87-1 1.76-2 2.68-2.89s1.95-1.57 2.82-2.47 1.75-1.91 2.58-2.9a48.81 48.81 0 0 0 4.61-5.9c1.32-2.19 2.27-4.59 3.53-6.82a3 3 0 1 0-5.1-3c-1 2.27-1.84 4.66-3 6.9a61.68 61.68 0 0 1-4 6.29c-1.39 2.1-2.26 4.42-3.49 6.59-1.09 1.92-2.81 4.17-3 6.42a.09.09 0 0 0 .14.08zM244.51 76.47c1.18 1.87 4.63 1.23 6.45.74a19.14 19.14 0 0 0 3.29-1.26c1.43-.69 2.65-1.4 3.26-2.93a2.18 2.18 0 0 0-2.09-2.74c-1.38.07-2.22.85-3.39 1.47a12.72 12.72 0 0 1-2.49 1c-.83.24-1.66.48-2.5.65-1 .21-1.94.26-2.52 1.29a1.79 1.79 0 0 0 0 1.8zM229.66 91.1A54.51 54.51 0 0 1 232 85a31.76 31.76 0 0 0 2-6c.94-4 2.06-8.13 4.38-11.58a114.7 114.7 0 0 1 7.19-9.05c2.41-2.9 5.15-5.86 6.75-9.31.91-2 1.58-4 2.36-6a22.24 22.24 0 0 1 1.07-2.33c.64-1.2 1.48-2.14 1-3.61a2.47 2.47 0 0 0-2.31-1.76c-2.29-.08-3.5 2.59-4.28 4.4s-1.36 3.57-2 5.36c-1.29 3.43-3.66 6.24-6 9-2.63 3.22-5.33 6.42-7 10.23a58 58 0 0 0-4 12.25c-.48 2.35-.91 4.74-1.19 7.12s-.78 4.83-1 7.28c0 .37.52.42.63.09z"/><path d="M237.2 71.55c.89-2.09 2.83-3.43 4.67-4.64a50.15 50.15 0 0 0 5.94-4.24 35.49 35.49 0 0 0 5.85-7.57c1.9-3 3.64-6.08 5.51-9.09 1.45-2.33-2.31-4.53-3.68-2.15-1.77 3.07-3.4 6.22-5.21 9.27a38 38 0 0 1-5.44 7.71c-1.82 1.81-3.76 3.42-5.42 5.4-1.13 1.34-2.93 3.36-2.51 5.27a.15.15 0 0 0 .28 0zM258.16 39.82c1.33-2.4 3.58-4.2 5.41-6.21 2.1-2.32 3.62-5.12 5.35-7.71s3.44-5.21 5.08-7.9c.85-1.39 1.68-2.79 2.57-4.16s2-2.76 2.13-4.63A2.31 2.31 0 0 0 275.79 7c-1.84.7-2.72 2.09-3.75 3.69-.88 1.37-1.72 2.77-2.53 4.17-1.64 2.82-3.37 5.63-4.89 8.52a75.41 75.41 0 0 0-3.67 8.9c-.94 2.52-2.77 4.62-3.51 7.23a.4.4 0 0 0 .72.31zM233.95 45.91c1.33-2.76 4.37-4.63 7-6a35.41 35.41 0 0 1 3.91-1.64c.87-.33 1.9-.66 2.18-1.67a1.75 1.75 0 0 0-.82-2c-1.53-.85-3.22.94-4.34 1.8s-2.4 1.85-3.56 2.82c-2 1.69-4.32 3.89-4.39 6.71z"/><path d="M239.81 47.13c.89-2.38 3.43-3.72 5.28-5.27 1-.83 1.91-1.79 3-2.56a6.92 6.92 0 0 1 1.79-1 5.26 5.26 0 0 0 2.29-1 2.23 2.23 0 0 0-1.56-3.76c-2 .15-3.15 1.93-4.33 3.41-1 1.19-1.82 2.45-2.77 3.65-1.38 1.75-4.14 4-3.85 6.49a.09.09 0 0 0 .19 0zM215.13 65A28.59 28.59 0 0 1 220 54.81c2.37-3.35 5.82-5.65 8.72-8.48a54.67 54.67 0 0 1 8.27-7 34.78 34.78 0 0 0 4.21-3.07 8.81 8.81 0 0 0 1.56-1.71 2.82 2.82 0 0 0 .46-1.48 1.89 1.89 0 0 0-.26-1q-.66-.9.1.27a1.39 1.39 0 0 0-2.35-1h-.09l1.27-.17c-1.78-.49-2.87 1.58-4 2.56a47.58 47.58 0 0 1-4 2.79c-3.41 2.29-6 5.31-8.64 8.4s-5.57 6-7.3 9.75c-1.43 3.1-3.07 6.72-2.8 10.21zM214.41 51.7a39.67 39.67 0 0 0 2.4-4.69c.85-1.57 1.78-3.1 2.75-4.6 1.93-3 4-5.91 6.06-8.78a34.18 34.18 0 0 1 7.46-8c2.89-2.06 6.1-3.58 8.9-5.76s4.87-5 8.31-5.77c3.16-.75 1.79-5.8-1.34-4.87-3.46 1-6.06 3.47-8.51 6-1.23 1.26-2.36 2.6-3.67 3.78s-2.81 2.39-4.23 3.58c-5.78 4.86-9.68 11.39-13.34 17.89-1.09 1.93-2.13 3.9-3 5.92-.72 1.57-1.77 3.56-1.78 5.31zM255.89 13.79a10.26 10.26 0 0 0-1.8-.38.47.47 0 0 0-.36.86 22.4 22.4 0 0 0 5.27 2.14c1.89.63 3.74 1.37 5.59 2.12a25.57 25.57 0 0 0 5.68 2 20.44 20.44 0 0 0 7.35.19c3.54-.83 3.38-6.08 0-7a24.4 24.4 0 0 0-6.37-.4 55.14 55.14 0 0 0-6 .79 25.71 25.71 0 0 1-5.9.14c-1.78-.19-3.54-.68-5.32-.82l.13.93c.59-.19 1.2-.33 1.8-.49zM281 18.15c-.3 1.09.65 2.27 1.27 3.08.91 1.19 2 2.17 3 3.28a34.43 34.43 0 0 1 2.23 2.91c.9 1.23 2.18 3.16 4 3s3.1-1.9 2.05-3.57a3.53 3.53 0 0 0-1-1q-.32-.21 0 0l-.5-.39c-.47-.35-1-.67-1.44-1a17 17 0 0 0-3.15-1.83 25.74 25.74 0 0 1-3.59-2c-1.05-.69-1.78-1.77-2.81-2.43zM377.69 118.13a11.25 11.25 0 0 0-2.53 6.45 30.19 30.19 0 0 0 .55 7.27c.25 1.5.56 3 .89 4.48.43 1.91 1 4.59 2.56 5.86a4.77 4.77 0 0 0 5.1 1 4.63 4.63 0 0 0 2.87-4.27 8.22 8.22 0 0 0-.79-2.94c.26.66.25.62 0 0s-.45-1.51-.64-2.28c-.32-1.35-.57-2.72-.91-4.06-.48-1.88-.83-3.79-1.27-5.69-.1-.43-.6-1.77-.59-1.76q.24.59-.35-.83-.17-.36-.37-.71a9.1 9.1 0 0 0-1.56-2.46 2.14 2.14 0 0 0-3 0zM388.48 147.72a.87.87 0 0 1 0-.43l-.84-.23a57.78 57.78 0 0 0 .58 8.64 44.29 44.29 0 0 0 2.51 9.33 43.76 43.76 0 0 0 3.82 9.22c1.42 2.32 3.34 4.36 4.42 6.89 1 2.32 4.57 3 6.55 1.72 2.41-1.55 2.77-4.07 1.72-6.55s-2.92-4.48-4.37-6.72a20.21 20.21 0 0 1-1.12-2c-.15-.31-.29-.63-.44-.94-.25-.49.24.63-.09-.21-.66-1.68-1.27-3.36-2-5a26.22 26.22 0 0 0-5.26-7.71 33.63 33.63 0 0 1-3.07-3.15 26.59 26.59 0 0 1-2.38-3.76c-.27-.51-1.09 0-.78.46a1.49 1.49 0 0 0 .57.54.13.13 0 0 0 .2-.11zM405.85 186.8c0 3.22 2.16 6.05 3.17 9a16.44 16.44 0 0 1 .85 4.76c.08 1.93.37 3.85.59 5.77a49.47 49.47 0 0 0 .81 6.36c.44 1.75 1 3.43 1.58 5.14a49.44 49.44 0 0 1 1.37 5.1c.11.54.2 1.08.29 1.62-.15-.86 0 0 0 .39.1 1 .09 2 .15 3 .15 2.48 2.08 4.88 4.76 4.76a4.87 4.87 0 0 0 4.76-4.76c.29-4-.79-8.16-2-11.89-.66-2-1.37-4-2.22-6-.07-.15-.63-1.46-.29-.66-.28-.66-.52-1.2-.85-1.81-.43-.81-.9-1.68-1.16-2.32-.8-1.93-1.39-4-2.36-5.82a24.46 24.46 0 0 0-3.18-4.71c-2.26-2.59-4.66-4.87-6.09-8.07 0-.11-.21 0-.21.06zM425.52 224.84a5.53 5.53 0 0 0 4 .14 12.21 12.21 0 0 0 4.78-2.84 23.77 23.77 0 0 0 3.7-4.34q.35-.5.69-1l.32-.49c-.31.47.32-.43.33-.46a4.54 4.54 0 0 0 .42-3.47c-.31-1.58-2.16-2-3.4-1.38a4.35 4.35 0 0 0-2.14 2l-.25.6q.17-.4-.07.08c-.19.35-.38.7-.59 1.05-.75 1.3-1.57 2.55-2.44 3.78s-1.65 2.15-2.5 3.22a10.76 10.76 0 0 1-2.84 2.36.45.45 0 0 0 0 .78zM446.75 211.21a6.39 6.39 0 0 0 1.51-1.24 18.05 18.05 0 0 0 1.88-1.63c1.44-1.59 2.48-3.45 3.75-5.17 1.89-2.54 7.34-6.83 4.82-10.39a2.92 2.92 0 0 0-3.86-1c-1.94.93-2.25 3.35-3.08 5a42.34 42.34 0 0 0-2.31 4.74c-.69 1.91-1 3.94-1.76 5.82-.37.92-1.72 2.94-1 3.9zM468.63 164.54c-1.12 0-2.15 1.79-2.76 2.57a21.63 21.63 0 0 0-2.73 4c-.82 1.76-1.28 3.6-1.93 5.42 0 .09-.18.71-.28.74.07 0 .42-.94.11-.27-.19.42-.38.83-.61 1.23-.12.22-.26.42-.39.63-.37.61.09-.28.22-.28-.06 0-.34.35-.38.41-.6.72.87-.6.12-.06-2 1.45-3.2 4.23-1.71 6.54 1.35 2.09 4.3 3.17 6.54 1.71 4.14-2.69 6-8 6.21-12.75a11.42 11.42 0 0 0-1.41-5.58 7.64 7.64 0 0 1-.68-1.94c-.11-.66.27-1.19.23-1.82a.56.56 0 0 0-.55-.55zM429.88 188.93a6.17 6.17 0 0 1 .89-2.51c.59-.85 1.23-1.74 1.84-2.61s1.21-1.82 1.75-2.76a9.91 9.91 0 0 0 1.1-2 4.57 4.57 0 0 0-.4-3.67c-1.29-2.43-4.3-2.3-6.17-.79a4.36 4.36 0 0 0-1.44 3.38c0 .14 0 1.13.09.25 0 .28-.1.56-.16.83-.28 1.35-.57 2.67-.74 4-.24 1.89.11 5 1.71 6.29a.92.92 0 0 0 1.53-.4zM426.22 133.46c-1.37.24-2.58 1.52-3.5 2.48a34 34 0 0 0-3.06 3.79 41.29 41.29 0 0 0-4.8 9.33 38.5 38.5 0 0 0-2 12.24c-.09 2.36 0 4.72 0 7.08s-.3 4.64.93 6.66c2.37 3.89 8.75 2.36 8.7-2.36a6.33 6.33 0 0 0-.17-1.54q-.11-.77 0 .36a6.8 6.8 0 0 0-.05-1.1v-2.26q-.09-3.42-.12-6.84c0-3.64.18-7.28.16-10.92a48.11 48.11 0 0 1 .59-8.93 17.68 17.68 0 0 1 1.31-4.37c.58-1.24 1.54-2.33 2.05-3.59z"/><path d="M431.06 140.46c-1.32-.81-2.79 1-3.45 1.94a28.45 28.45 0 0 0-2.72 5.51 31.57 31.57 0 0 0-2.41 8.39 51.09 51.09 0 0 0-.32 5.22c-.05 1.87-.38 3.8-.33 5.66a4.69 4.69 0 0 0 4.62 4.62c2.75-.12 4.31-2 4.62-4.62a21.14 21.14 0 0 0-.57-5.66c-.24-1.47-.49-3-.79-4.41a43.29 43.29 0 0 1-1.08-7.43 21.46 21.46 0 0 1 .33-5.19 7.6 7.6 0 0 1 2.1-4zM403.31 24.68a8.3 8.3 0 0 0 2.44-1.62c.9-.63 1.83-1.24 2.77-1.82a43.41 43.41 0 0 1 4-2.13c1.28-.63 6.41-2.73 5-4.86a.55.55 0 0 0-.86-.11c-1.63 1.94-3.87 3.05-6.08 4.22a30.72 30.72 0 0 0-4 2.51c-1.13.84-3.16 2.28-3.34 3.79zM424.28 16.23a4.77 4.77 0 0 0 2.25 1.4 19.77 19.77 0 0 0 3.55 1c1.17.25 2.35.5 3.52.77a21 21 0 0 0 3.79.77A1.15 1.15 0 0 0 438 18c-2.15-1.06-4.94-1.17-7.29-1.56-1.12-.19-2.25-.38-3.38-.47a6 6 0 0 0-3 .21zM447.2 24.19c.23 1.49 1.62 2.85 2.34 4.16a21.75 21.75 0 0 1 1.68 4.58 21.59 21.59 0 0 0 2.3 5.46c.74 1.17 1.66 2.23 2.51 3.33 1.35 1.75 4.54 1.53 5.94 0a4.31 4.31 0 0 0 0-5.94c-.71-.83-1.45-1.63-2.16-2.47.77.91-.35-.57-.48-.75-.37-.5-.77-1-1.15-1.48a15.2 15.2 0 0 0-2-2.23 20.23 20.23 0 0 0-4.72-3c-1.27-.6-2.86-1.68-4.29-1.71zM377 44.44c-.65-1.06-3.79.48-4.58.79a15.62 15.62 0 0 0-6.11 3.91 15.14 15.14 0 0 0-3.31 9.55c-.09 2-.1 3.93-.18 5.9-.06 1.64-.25 3.28-.28 4.93 0 1.32 0 2.63-.07 3.94a20.55 20.55 0 0 0 .48 3.69c.17 1.07.6 1.87 1.85 1.43a5 5 0 0 0 2.65-2.51c1.2-2.62.67-5.86.92-8.67.32-3.57.15-7.38.69-10.83a12.21 12.21 0 0 1 1.51-4.41 24.12 24.12 0 0 1 2.1-2.56c.9-1.09 1.59-2.34 2.53-3.41.56-.63 1.35-1.09 1.84-1.74z"/><path d="M373.6 60.11c-.76 1.63-1.44 3.28-2.24 4.88s-1.62 3.09-2.27 4.72a41.16 41.16 0 0 0-1.63 5.29c-.46 1.84-1 3.64-1.32 5.51a44.31 44.31 0 0 0-.82 11.07 29.2 29.2 0 0 0 1.25 5.84c.59 1.93.88 4.11 2.49 5.51a3.21 3.21 0 0 0 4.4 0c3.56-3 .45-8-.4-11.56-.1-.41-.17-.82-.25-1.23a2.1 2.1 0 0 1-.08-.68c-.07-.93-.13-1.86-.15-2.8v-5.3c0-1.77-.34-3.53-.44-5.3a41.47 41.47 0 0 1 0-5.72c.28-3.37 1.91-6.8 1.54-10.21 0 0-.05-.06-.07 0z"/><path d="M374.13 86.28c-2 4.16-2.65 9.18-3 13.74-.22 2.69-.5 5.39-.51 8.09a42.43 42.43 0 0 0 .27 4.37c.19 1.85.17 4.11 1.73 5.38s3.95 1.32 5-.64c.94-1.8.46-3.34.09-5.2-.24-1.22-.42-2.44-.58-3.67-.34-2.65-.65-5.3-.94-8-.5-4.56-1.93-9.16-1.24-13.78.06-.42-.54-.79-.76-.32zM267.69 191.39a6.18 6.18 0 0 0 1.69 2.44 12.84 12.84 0 0 0 2.88 2.33c.77.42 1.64.65 2.43 1 .44.21.85.48 1.27.72a3.27 3.27 0 0 0 .71.36 1.54 1.54 0 0 0 .81 0q.61-.07-.14 0a1.44 1.44 0 0 0 1.74-1 2.36 2.36 0 0 0 0-1.79 3.51 3.51 0 0 0-1.49-1.52 14.5 14.5 0 0 0-3.2-1.11c-1.2-.36-2.31-.87-3.47-1.31-1-.36-2.27-.76-3.22-.2zM427.15 210.78c.29-2.15-1.12-4.35-2.15-6.14a57.92 57.92 0 0 0-3.41-4.95c-1.11-1.53-2.29-3-3.39-4.54a26.87 26.87 0 0 1-2.65-4.93 5.88 5.88 0 0 0-.27-.58 13.68 13.68 0 0 0-.56-1.26 2.7 2.7 0 0 0-2.41-1.54 2.41 2.41 0 0 0-2.31 2.12 6 6 0 0 0 .38 2.43 38.14 38.14 0 0 0 1.84 5.26c.84 1.76 1.84 3.43 2.8 5.12 1.05 1.86 2 3.78 3 5.65 1.11 2 2.67 4.78 4.77 5.86s4.06-.32 4.36-2.5z"/></g></svg>
