<svg width="61px" height="61px" viewBox="0 0 61 61" version="1.1" xmlns="http://www.w3.org/2000/svg" xmlns:xlink="http://www.w3.org/1999/xlink">
    <g id="Page-1" stroke="none" stroke-width="1" fill="none" fill-rule="evenodd">
        <g id="Desktop-HD-Copy-16" transform="translate(-668.000000, -887.000000)">
            <g id="Page-1" transform="translate(670.000000, 890.000000)">
                <g id="Group-4" transform="translate(18.066286, 0.098452)">
                    <path d="M14.8524911,24.2688634 C14.8524911,24.2688634 25.8610694,19.260255 9.34820194,0.117831303 C-7.16466549,19.260255 3.8439128,24.2688634 3.8439128,24.2688634" id="Fill-1" fill="#FAF3F3"></path>
                    <path d="M14.8524911,24.2688634 C14.8524911,24.2688634 25.8610694,19.260255 9.34820194,0.117831303 C-7.16466549,19.260255 3.8439128,24.2688634 3.8439128,24.2688634" id="Stroke-3" stroke="#000000" stroke-width="3"></path>
                </g>
                <g id="Group-8" transform="translate(0.000000, 17.638766)">
                    <path d="M23.1452832,9.81821907 C23.1452832,9.81821907 25.2745643,-2.10891156 0.177670629,0.660760604 C6.53954377,25.1484535 16.9002763,18.9041017 16.9002763,18.9041017" id="Fill-5" fill="#FAF3F3"></path>
                    <path d="M23.1452832,9.81821907 C23.1452832,9.81821907 25.2745643,-2.10891156 0.177670629,0.660760604 C6.53954377,25.1484535 16.9002763,18.9041017 16.9002763,18.9041017" id="Stroke-7" stroke="#000000" stroke-width="3"></path>
                </g>
                <g id="Group-12" transform="translate(33.309714, 16.790041)">
                    <path d="M0.0593364571,9.72884834 C0.0593364571,9.72884834 -2.06994469,-2.19828229 23.026949,0.571389875 C16.6650759,25.0590828 6.30434331,18.814731 6.30434331,18.814731" id="Fill-9" fill="#FAF3F3"></path>
                    <path d="M0.0593364571,9.72884834 C0.0593364571,9.72884834 -2.06994469,-2.19828229 23.026949,0.571389875 C16.6650759,25.0590828 6.30434331,18.814731 6.30434331,18.814731" id="Stroke-11" stroke="#000000" stroke-width="3"></path>
                </g>
                <g id="Group-16" transform="translate(4.234286, 36.310713)">
                    <path d="M23.135375,9.80449802 C23.135375,9.80449802 25.2646561,21.7316287 0.1677624,18.9619565 C6.52963554,-5.52573645 16.8903681,0.71861535 16.8903681,0.71861535" id="Fill-13" fill="#FAF3F3"></path>
                    <path d="M23.135375,9.80449802 C23.135375,9.80449802 25.2646561,21.7316287 0.1677624,18.9619565 C6.52963554,-5.52573645 16.8903681,0.71861535 16.8903681,0.71861535" id="Stroke-15" stroke="#000000" stroke-width="3"></path>
                </g>
                <g id="Group-20" transform="translate(31.051429, 35.179080)">
                    <path d="M0.153422286,9.98816208 C0.153422286,9.98816208 -1.97585886,21.9152927 23.1210349,19.1456205 C16.7591617,-5.34207238 6.39842914,0.902279412 6.39842914,0.902279412" id="Fill-17" fill="#FAF3F3"></path>
                    <path d="M0.153422286,9.98816208 C0.153422286,9.98816208 -1.97585886,21.9152927 23.1210349,19.1456205 C16.7591617,-5.34207238 6.39842914,0.902279412 6.39842914,0.902279412" id="Stroke-19" stroke="#000000" stroke-width="3"></path>
                </g>
                <path d="M15.6816743,34.676239 C15.6816743,27.9022828 21.16084,22.4110329 27.9198891,22.4110329 C34.6789383,22.4110329 40.1583863,27.9022828 40.1583863,34.676239 C40.1583863,41.4501951 34.6789383,46.941445 27.9198891,46.941445 C21.16084,46.941445 15.6816743,41.4501951 15.6816743,34.676239" id="Fill-21" fill="#FAF3F3"></path>
                <path d="M15.6816743,34.676239 C15.6816743,27.9022828 21.16084,22.4110329 27.9198891,22.4110329 C34.6789383,22.4110329 40.1583863,27.9022828 40.1583863,34.676239 C40.1583863,41.4501951 34.6789383,46.941445 27.9198891,46.941445 C21.16084,46.941445 15.6816743,41.4501951 15.6816743,34.676239 L15.6816743,34.676239 Z" id="Stroke-23" stroke="#000000" stroke-width="3"></path>
            </g>
        </g>
    </g>
</svg>
