<svg width="61" height="61" viewBox="0 0 61 61" xmlns="http://www.w3.org/2000/svg"><g fill="none" fill-rule="evenodd"><path d="M34.919 27.367s11.008-5.008-5.505-24.15c-16.512 19.142-5.504 24.15-5.504 24.15" fill="#FAF3F3"/><path d="M34.919 27.367s11.008-5.008-5.505-24.15c-16.512 19.142-5.504 24.15-5.504 24.15" stroke="#000" stroke-width="3"/><path d="M25.145 30.457S27.275 18.53 2.178 21.3C8.54 45.787 18.9 39.543 18.9 39.543" fill="#FAF3F3"/><path d="M25.145 30.457S27.275 18.53 2.178 21.3C8.54 45.787 18.9 39.543 18.9 39.543" stroke="#000" stroke-width="3"/><path d="M35.37 29.519s-2.13-11.927 22.967-9.158C51.975 44.85 41.614 38.605 41.614 38.605" fill="#FAF3F3"/><path d="M35.37 29.519s-2.13-11.927 22.967-9.158C51.975 44.85 41.614 38.605 41.614 38.605" stroke="#000" stroke-width="3"/><path d="M29.37 49.115s2.129 11.927-22.968 9.158c6.362-24.488 16.723-18.244 16.723-18.244" fill="#FAF3F3"/><path d="M29.37 49.115s2.129 11.927-22.968 9.158c6.362-24.488 16.723-18.244 16.723-18.244" stroke="#000" stroke-width="3"/><g><path d="M33.205 48.167s-2.13 11.927 22.967 9.158C49.811 32.837 39.45 39.08 39.45 39.08" fill="#FAF3F3"/><path d="M33.205 48.167s-2.13 11.927 22.967 9.158C49.811 32.837 39.45 39.08 39.45 39.08" stroke="#000" stroke-width="3"/></g><path d="M17.682 37.676c0-6.774 5.479-12.265 12.238-12.265 6.759 0 12.238 5.491 12.238 12.265 0 6.774-5.48 12.265-12.238 12.265-6.76 0-12.238-5.49-12.238-12.265" fill="#FAF3F3"/><path d="M17.682 37.676c0-6.774 5.479-12.265 12.238-12.265 6.759 0 12.238 5.491 12.238 12.265 0 6.774-5.48 12.265-12.238 12.265-6.76 0-12.238-5.49-12.238-12.265z" stroke="#000" stroke-width="3"/></g></svg>