<svg class="flower-nav" width="93px" height="125px" viewBox="0 0 93 125" version="1.1" xmlns="http://www.w3.org/2000/svg" xmlns:xlink="http://www.w3.org/1999/xlink">
    <defs></defs>
    <g id="Page-1" stroke="none" stroke-width="1" fill="none" fill-rule="evenodd">
        <g id="Desktop-HD-Copy-11" transform="translate(-45.000000, -23.000000)">
            <g id="Page-1" transform="translate(47.000000, 25.000000)">
                <path d="M45.4813348,122.739104 L45.4813348,70.8433183" id="Stroke-1" stroke="#231F1F" stroke-width="3"></path>
                <g class="flower-nav__leaf flower-nav__leaf--top" id="Group-6" transform="translate(28.783245, 0.164709)" data-orientation="top">
                    <a href="info.php">
                        <path d="M22.9709334,36.7181813 C22.9709334,36.7181813 40.2399945,29.1832609 14.3364028,0.385513495 C-11.567189,29.1832609 5.70187221,36.7181813 5.70187221,36.7181813" id="Fill-3" fill="#FAF3F3"></path>
                        <path d="M22.9709334,36.7181813 C22.9709334,36.7181813 40.2399945,29.1832609 14.3364028,0.385513495 C-11.567189,29.1832609 5.70187221,36.7181813 5.70187221,36.7181813" id="Stroke-5" stroke="#000000" stroke-width="3"></path>
                    </a>
                </g>
                <g class="flower-nav__leaf flower-nav__leaf--top-left" id="Group-10" transform="translate(0.000000, 26.977858)" data-orientation="top-left">
                    <a href="purchase.php">
                        <path d="M36.4225835,14.5531131 C36.4225835,14.5531131 39.7627684,-3.38999066 0.393489096,0.776687543 C10.3733043,37.615826 26.6260955,28.2218606 26.6260955,28.2218606" id="Fill-7" fill="#FAF3F3"></path>
                        <path d="M36.4225835,14.5531131 C36.4225835,14.5531131 39.7627684,-3.38999066 0.393489096,0.776687543 C10.3733043,37.615826 26.6260955,28.2218606 26.6260955,28.2218606" id="Stroke-9" stroke="#000000" stroke-width="3"></path>
                    </a>
                </g>
                <g class="flower-nav__leaf flower-nav__leaf--top-right" id="Group-14" transform="translate(52.252660, 25.701042)" data-orientation="top-right">
                    <a href="archive.php">
                        <path d="M0.207815027,14.4186644 C0.207815027,14.4186644 -3.13236981,-3.52443945 36.2369094,0.642238754 C26.2570943,37.4813772 10.0043031,28.0874118 10.0043031,28.0874118" id="Fill-11" fill="#FAF3F3"></path>
                        <path d="M0.207815027,14.4186644 C0.207815027,14.4186644 -3.13236981,-3.52443945 36.2369094,0.642238754 C26.2570943,37.4813772 10.0043031,28.0874118 10.0043031,28.0874118" id="Stroke-13" stroke="#000000" stroke-width="3"></path>
                    </a>
                </g>
                <g class="flower-nav__leaf flower-nav__leaf--bottom-left" id="Group-18" transform="translate(6.642287, 54.642218)" data-orientation="bottom-left">
                    <a href="colophon.php">
                        <path d="M36.4070406,14.9580768 C36.4070406,14.9580768 39.7472254,32.9011806 0.377946144,28.7345024 C10.3577613,-8.10463599 26.6105525,1.28932941 26.6105525,1.28932941" id="Fill-15" fill="#FAF3F3"></path>
                        <path d="M36.4070406,14.9580768 C36.4070406,14.9580768 39.7472254,32.9011806 0.377946144,28.7345024 C10.3577613,-8.10463599 26.6105525,1.28932941 26.6105525,1.28932941" id="Stroke-17" stroke="#000000" stroke-width="3"></path>
                    </a>
                </g>
                <g class="flower-nav__leaf flower-nav__leaf--bottom-right" id="Group-22" transform="translate(48.710106, 53.365401)" data-orientation="bottom-right">
                    <a href="submit.php">
                        <path d="M0.355450931,14.8087744 C0.355450931,14.8087744 -2.98473391,32.7518782 36.3845453,28.5852 C26.4047302,-8.25393841 10.151939,1.14002699 10.151939,1.14002699" id="Fill-19" fill="#FAF3F3"></path>
                        <path d="M0.355450931,14.8087744 C0.355450931,14.8087744 -2.98473391,32.7518782 36.3845453,28.5852 C26.4047302,-8.25393841 10.151939,1.14002699 10.151939,1.14002699" id="Stroke-21" stroke="#000000" stroke-width="3"></path>
                    </a>
                </g>
                <g class="flower-nav__leaf flower-nav__leaf--center">
                    <a href="/">
                        <path d="M26.283132,52.3915734 C26.283132,42.2008744 34.8782517,33.9398709 45.4811134,33.9398709 C56.0839751,33.9398709 64.6795376,42.2008744 64.6795376,52.3915734 C64.6795376,62.5822723 56.0839751,70.8432758 45.4811134,70.8432758 C34.8782517,70.8432758 26.283132,62.5822723 26.283132,52.3915734" id="Fill-23" fill="#FAF3F3"></path>
                        <path d="M26.283132,52.3915734 C26.283132,42.2008744 34.8782517,33.9398709 45.4811134,33.9398709 C56.0839751,33.9398709 64.6795376,42.2008744 64.6795376,52.3915734 C64.6795376,62.5822723 56.0839751,70.8432758 45.4811134,70.8432758 C34.8782517,70.8432758 26.283132,62.5822723 26.283132,52.3915734 Z" id="Stroke-25" stroke="#000000" stroke-width="3"></path>
                    </a>
                </g>
            </g>
        </g>
    </g>
</svg>
