<svg id="Layer_1" data-name="Layer 1" xmlns="http://www.w3.org/2000/svg" viewBox="0 0 1333.56 453.58"><defs><style>.cls-1{fill:#7ae000}</style></defs><title>Artboard 1</title><path class="cls-1" d="M702.67 147.77c-2.9-3.3-6-6-8.7-9.5-1.7-2.2-3.9-5.1-7.1-4.9a2.79 2.79 0 0 0-2.6 2c-1.1 7.3 4.5 14.4 8.3 20.2a53.5 53.5 0 0 0 7.08 9.31c-1.87 1.66-1.79 5.37 1.22 6 2.3.5 3.5 3.3 5.1 4.9a26.83 26.83 0 0 0 7.2 5.3 3.24 3.24 0 0 0 3.9-5.1c-7-8.21-7.3-20.11-14.4-28.21zm1.52 16.68c-3.69-2.74-6.33-8-8.22-11.48-1.57-2.82-4.3-6.71-5.68-10.46a37.53 37.53 0 0 0 2.18 3.26c3.1 3.7 6.7 6.4 8.8 10.9 1.21 2.57 2.19 5.22 3.17 7.86zM652.27 154.57c-4.3 6-.8 14.3 1.9 20.3 1.77 3.83 4.36 9.34 8.24 12.06a3.64 3.64 0 0 0 4.93 1.63 1.46 1.46 0 0 0 1.21-1 3.17 3.17 0 0 0 .52-2c-.2-9.4-.6-20.1-4.4-28.9-2.5-5.89-8.2-7.99-12.4-2.09zm6.6 20c-1.8-4.1-4.3-9.8-3.3-14.4.2-1 1.2-3.8 2.5-3.6.5.1 1.2 2.2 1.3 2.5a28.26 28.26 0 0 1 1.3 5.2 99 99 0 0 1 1.5 16.89 48.23 48.23 0 0 1-3.3-6.59zM696 288.47a160.24 160.24 0 0 0-11.5-38.2c-1.4-3.1-6.6-.9-5.5 2.3 3.5 10.1 4.7 20.5 5.5 31.1.8 11.3 1.5 22.5 1.5 33.9 0 4.6 7.2 4.6 7.2 0-.16-9.5-.75-19-1.53-28.5a93.31 93.31 0 0 1 2.13 13.4c.2 2.7.2 5.5.3 8.2s1.1 6.7-.7 9.2c-.7 1 .6 2.4 1.5 1.4 3.2-3.5 2.1-8.9 2.3-13.3a97.83 97.83 0 0 0-1.2-19.5zM765.64 343.72c-.4-1.37-.81-2.73-1.27-4-2-5.7-4.09-11.29-6.2-16.91-2.09-6.92-3.95-13.9-5.8-20.89-3-11.1-6-22.2-8.8-33.4-1.3-5.5-2.7-11-3.8-16.6-.8-4.2-.3-9.1-3.9-11.9-3.8-3-9.2 2.1-5.4 5.4 1.4 1.2 1.3 5.3 1.6 6.8.5 2.4 1 4.9 1.5 7.3l.64 2.62a1.64 1.64 0 0 0-1.23 1.48c-.2 3.3.7 5.7 2.1 8.7 1.3 2.66 2.56 5.32 3.72 8 2.41 9.13 4.93 18.25 7.38 27.29 2.8 10.4 5.8 20.7 9.6 30.8 2.12 5.61 4.55 11.09 6.76 16.65a56.35 56.35 0 0 0 4.64 13.45c1.9 3.5 6.9 1 6.2-2.6-1.6-7.73-4.73-14.91-7.74-22.19zM875.27 185c-1.4-1.75-4.25-1.05-5.35.69-1.77-2.11-5.31-.1-4.75 2.71 1 5.4 3.7 10.4 5.2 15.7.9 3.1 5.2 1.7 4.7-1.3-.3-2.5-.3-4.8 1-7.1a2.3 2.3 0 0 0 .29-.86 3.5 3.5 0 0 0 1.71-5.74c-1-1.33-1.7-2.83-2.8-4.1zM965.69 149.8a20.22 20.22 0 0 0 0 4.37 14.78 14.78 0 0 0 11.6 12.5c3.4.7 6.3-.2 9.3-1.7.82-.39 1-.64.94-.78a5.51 5.51 0 0 0 .66.18c1.5.3 2.5 1.3 4.1 1.3a7.81 7.81 0 0 0 6.22-3.18 9.17 9.17 0 0 0 5.78.28c8.5-2.2 10.4-11.6 12.3-18.9 2-7.6 7.8-15.9 1.5-23.1a10.45 10.45 0 0 0-5-3.2 17.88 17.88 0 0 0-.16-6.5c-2.4-10.6-12.8-10.7-21.3-12.3-5-.9-9-2.9-13.4.9a18.15 18.15 0 0 0-5.9 11.8 12.38 12.38 0 0 0 3.21 9.85c-3.74-.83-7.05-.9-10.91 1.85-4.5 3.1-7.4 8.6-8.4 13.9-1.63 7.93 3.41 12.51 9.46 12.73zm-1.72-17a13.19 13.19 0 0 1 5.6-6.3c3.3-1.6 6.3-.4 9.7-.1a1.78 1.78 0 0 0 1.3-1 58.69 58.69 0 0 0 6.34 3.24 3.28 3.28 0 0 0 1.18 4.06 4.35 4.35 0 0 0 1 4.57 2.58 2.58 0 0 0 2.9.4 7.22 7.22 0 0 0 3.47-5.6c.28.32 1-.07.83-.7a3.48 3.48 0 0 0-2.69-2.37l-.09-.07a2.34 2.34 0 0 0-.24-3.79c-3.6-2.9-8.4-6.1-11-10-1.4-2.1-.8-4.7.5-6.7 1.8-2.9 4-1.1 6.8-.6 4 .7 11.2-.1 13.7 4 1 1.61 1 4.83 0 7.11a16.6 16.6 0 0 0-4.41 3.49c-3.1 3.4 0 8.3 4.4 7.5a10.23 10.23 0 0 0 6-3.59c1.74-.34 3.16.56 3 3.79-.2 3.4-2.6 6.9-3.5 10.2-1.1 3.6-1.3 7.7-3.2 11.1-.73 1.38-3.91 5.18-4.19 2.7v-1.1c-.3-5.3-7.9-5.3-8.3 0a10.88 10.88 0 0 0 0 1.82c-.06 1.14-.29 2.48-.93 2.83.29-.31-1.93-1.45-2.4-1.55-2.9-.9-4.8.7-7.1 2.1a6.1 6.1 0 0 1-9-3.4c-.6-1.6-.8-6.4.8-7.4l-.24-.31c.35-.25.7-.51 1-.79 3.4-2.9-1-7.3-4.4-5.7a7.05 7.05 0 0 0-3 2.55c-2.37 1-5.21.78-5.73-2.35-.3-2.47.8-5.84 1.93-8.07zM522.27 76.57c8.6 4 16.3 9 21.8 16.9a2 2 0 1 0 3.4-2C540 78.27 527.37 71.67 514 66c-2.9-1.2-7.6-2.4-9.4-5.3-2.8-4.6 1.5-4.6 4.5-3.9 4.5 1.1 9.5 3 13.3-.9a4 4 0 0 0 0-5.6c-3.2-3.6-6.6-7.1-10.9-9.3-1.2-.6-2.4-1.3-3.6-1.8l-.51-.24.61.24c7.8 2.8 12.1 9.2 19.1 13.3 2.2 1.3 5.5.2 6-2.5a24.4 24.4 0 0 0-.5-10.4 54.09 54.09 0 0 1-1.2-5.5c-.09-.83.06-1.75 0-2.6 1 1.41 2.41 3.1 2.79 3.8 1.2 2 2.3 4.3 4.2 5.8a4.38 4.38 0 0 0 5 .6c1.7-.8 3.1-2.3 4.8-3 2.7-1.1 4.6.8 6 2.9 2.5 4 3.8 9.4 4.8 14 1.2 5.7-.6 10.7-.5 16.3.1 5.3 1.3 10.7 2.2 15.9 1.9 10.9 6.9 19.9 11.4 29.8a80.56 80.56 0 0 1 5 15.3c.9 4.1 1.6 7.6 5 10.4 4 3.2 9.6-2.1 5.7-5.7-3.4-3.2-3.4-10.5-4.9-14.9-1.9-5.9-4.7-11.4-7.4-16.9a74.26 74.26 0 0 1-6.4-17.6c-1.2-6.1-3-13.1-2.1-19.3 1.5-10.7 0-22-5.7-31.5-2.2-3.7-5.5-6.6-9.8-7.3-3.92-.68-6.42 1.08-9.25 2.85-3.36-4.79-5.45-12.87-12.45-11.35-4 .9-6.1 5.4-6.5 9.1-.32 3.06.62 6.14 1.4 9.19a40.38 40.38 0 0 0-8.2-6.29c-4.1-2.1-10.1-4.7-14.5-1.8-4.6 3-4.3 9-.5 12.4a26 26 0 0 0 5.8 3.4c.65.33 1.26.7 1.85 1.07a12.78 12.78 0 0 0-7.45.63c-7.1 3.3-6.9 12.2-1.8 17.1 5.78 5.47 15.18 6.97 22.38 10.17zM604.17 393.07c-7.3-.2-12.7-1.5-17.1-7.8-4.2-6.1-5.2-13.6-9.2-19.8-7.1-11-20.7-14.8-32.2-19.5-7.1-2.9-12.7 1.7-19.7.9-4.9-.5-9.7-.8-12 4.4-4.4 9.7 3.1 20.3 10.5 25.8 2.1 1.6 20.4 14.4 17.4 3.1-.2-.8-1.6-.4-1.4.6.5 3.5-4.5 0-5.5-.6-2.1-1.4-4.2-3-6.3-4.5-5.5-4.2-10.2-9.3-10.4-16.6-.1-3 .1-6.4 3.8-6.4 3 .1 5.6 1.4 8.6 1.1 3.5-.3 6.7-2.3 10.2-1.9s6.8 2.9 10 4.1c6.3 2.4 12.9 4.9 17.7 9.7s5.8 11 8.3 16.8 6.1 11.7 11.6 15.1c4.8 3 10.2 3.3 15.7 3.1 4.9-.1 4.9-7.5 0-7.6zM93.77 59.67c-.9-3.1-.7-6.8-1-10-.6-5.3-1.2-10.6-4.7-14.8-2.7-3.1-6.7-4.8-9.3-7.9-3.8-4.4-5.4-11.1-8-16.3C67.67 4.37 62-4 54.37 2.17c-4.91 4-6.22 10.33-8.88 15.74A45.11 45.11 0 0 1 42 12.67a21 21 0 0 0-5.3-5.8c-4.3-3.1-11.6-5.2-16.1-1.4s-2.3 10.9-1.1 15.8c1.3 5.34 4.82 10.88 5.85 16.41-3.38-.5-6.8-2.3-10-2.91-4.2-.8-8.4 0-11.5 3-8.9 8.3 0 19.9 5.7 27.4 3.2 4.1 6.5 8.2 11 11.1 3.2 2 12.2 3.7 12.9 7.6.5 2.7-1.4 7.2-2.1 9.8-.8 2.9-1.6 5.9-2.5 8.8-1.5 4.8-3.4 9.4-2.2 14.5.6 2.5 3.2 3 5.3 2.1 3.3-1.4 5.5-4.3 7.6-7.2 3-4.2 5.7-8.4 9-12.3a124.08 124.08 0 0 0 9.1-11.5c1.5-2.2 2.9-4.4 4.3-6.6.3-.5 3.9-4.8 3.8-4.9a1.61 1.61 0 0 0 3.1-.9c-2.1-9.7-13.2 6.4-14.7 8.4-4.3 5.6-9.5 10.3-14.1 15.7-1.72 2-3.57 5.15-5.65 7.84.72-2.08 1.6-4.11 2.15-5.94 1.6-5.5 3.5-11.2 4.1-17 .9-9.6-8.8-10.7-15.3-14.6-4.2-2.4-7.3-6.4-10.2-10.4a80 80 0 0 1-4.4-7.4c-1.1-1.9-3-4-2.8-6.3.7-5.8 7.9-2.8 11.1-1.8 3.9 1.3 7.6 2 11.7 1.2 1.8-.3 2.8-2.2 3-3.9.5-6.4-3-11.7-5-17.5-.8-2.3-3.8-11.7-2.2-12.6 1.4-.7 5.3 1.4 6.3 2.2 1.8 1.5 3.1 4 4.4 5.9 2.7 3.7 5.4 7 10.2 7.5 1.5.2 2.7-.9 3.5-2 1.5-2.2 2.4-4.9 3.5-7.3s2.5-7.3 4.7-8.8c1.5-1 .7-1.2 2 .5a28.66 28.66 0 0 1 2.6 4.9c2.2 4.5 3.9 9.2 6.2 13.7 3.6 6.9 12.6 9.3 14.1 17.2 1.1 5.4.6 11.2 2 16.6 1.1 4 3.7 6.9 6.7 9.6 3.8 3.4 9.3-1.9 5.6-5.6-1.88-1.9-3.78-3.6-4.58-6.1zM534.77 209.07c3.7-1.5 5.6-4.3 8.4-6.9s5.7-4.6 8.1-7.5c9.8-11.8.9-28.3-11.5-33.8a35.36 35.36 0 0 0-10.6-2.8c-3.2-.3-7.1-1.1-10.2.2a9.09 9.09 0 0 0-4 3.23c-1.39.14-2.78.31-4.14.57-5.3.9-13.5 3.8-14 10.2-.3 3.1-.7 6.1-1.2 9.2a10.84 10.84 0 0 0 1.7 8.4c2.6 3.5 7 4 9.7 7.3 2.3 2.8 3.5 6 6.3 8.4a22.31 22.31 0 0 0 21.44 3.5zm-15.2-35l.36-.07a4.07 4.07 0 0 0 .18.37c-.3.3-.5.3-.5-.1zm-2.27-.52h-.06zM509.37 190c-2.8-2.1-7.3-2.1-7.7-6.5-.2-2.4 1.1-4.9 1.2-7.3.2-3.1-1.8-5 1-7.4 2.4-2.2 6.1-3 9.2-3.5l.44-.08a8.45 8.45 0 0 0 .12 3.4c-2.14 3.15-2.42 8.37.64 11.38 7 6.9 20-4.1 10.9-11.1a3.2 3.2 0 0 0-2.62-.74 3.6 3.6 0 0 0-.58-.56 9.35 9.35 0 0 0-.81-.57c-1.8-1 2-1.8 2.2-1.8 1-.1 2.2.2 3.2.2.52 0 1 .09 1.55.14a4.75 4.75 0 0 0 2.49.31 30.08 30.08 0 0 1 4.56 1.05c5.9 2 10.8 6.3 12.5 12.5 1.9 7.2-1.8 11.2-6.9 15.5-2.1 1.8-3.8 4.1-5.9 5.9-3.3 2.9-7.8 3.2-11.9 2-7.29-2.06-8.09-8.83-13.59-12.83zM950.5 45.54a78.41 78.41 0 0 1 2.5-7.67c1.5-4 3-8.3 5.5-11.9 1.6-2.4 3.1-3.8 3.1-6.9 0-4.1-5.7-4.7-7-.9-.6 1.9-2.7 3.7-3.7 5.4a60.73 60.73 0 0 0-3.4 7.3 93.18 93.18 0 0 0-3.7 10.5 87.8 87.8 0 0 1-2.9 9.1c-.6 1.4-1.5 2.6-2 4a3.27 3.27 0 0 1-.59.87l-.11-.07a3.92 3.92 0 0 0-5.3 1.4 15.25 15.25 0 0 0-1.2 7c-.1 3.4-1 6.7-1.1 10.1a3.5 3.5 0 0 0 4 3.64 37.8 37.8 0 0 0-1.06 8.26c-.34.8-.66 1.61-1 2.41-2.8 6.1-6 12-8.7 18s-5.3 12.2-10.6 16.5c-2.4 1.7.8 4.9 3.1 3.1 5.2-4.2 8.1-10 10.8-16s6-12 8.91-18.07a3.55 3.55 0 0 0 3.19-.13 7.86 7.86 0 0 0 4.1-5.3c1.1-4.2 1.9-8.3 3.4-12.4 3-8.4 5.9-16.7 8.6-25.1h-.16l.06-.16c.93-3.11-2.68-4.52-4.74-2.98zm-9 19.73a3.91 3.91 0 0 0-2.61-1.77v-.25a8 8 0 0 0 5-3.07c-.89 1.69-1.67 3.38-2.38 5.09zM811.87 232.81c1-3 2.22-5.93 2.5-7.64.5-3-.5-4.7-1.5-7.4-1.6-4.3-1.6-9.1-2.6-13.6-1.1-4.7-8.3-2.7-7.2 2s1.1 9.7 2.9 14.2c.7 1.7 1.3 2.4 1.2 4.2a23.93 23.93 0 0 1-1.2 4.6c-1.37 4.83-3.46 11.55.1 15.74a18.24 18.24 0 0 0-4.6 7.76c-1.8 5-3.9 10-5.5 15.1-1.9 6.2-1.8 12.9-2 19.3-.2 4-.7 7.9-1.2 11.9-.4 3.1.6 6.5-.5 9.5-.6 1.1 1.4 1.6 1.9.4.8-2 .6-3.6.5-5.7-.1-3.3.7-6.6 1.2-9.9.9-6.4.8-12.8 1.9-19.1.9-5 3.8-8.8 5.6-13.5.94-2.56 1.76-6.67 3.5-9.6.45 2.76 4.77 3.73 5.4.5.86-4.13 2.19-8.14 3.08-12.27a24 24 0 0 0 .62-3.53c.26-2.26-2.19-3.38-4.1-2.96zM734.77 100.67a80.65 80.65 0 0 0-2.14-5.27c0-.41.11-.8.14-1.23.2-3.5-.4-8.7-3.9-10.6a5.08 5.08 0 0 0-2.69-.57c-3.42-5.9-7.1-11.66-10.41-17.63s-5.5-12.2-8.7-18.1a28.36 28.36 0 0 1-3.3-8.5 10.68 10.68 0 0 0-3-6.2 2.84 2.84 0 0 0-4.8 2 74.3 74.3 0 0 0 8.6 33c2.68 5 6.48 11.95 12.43 13q1.39 2.32 2.75 4.65c-.89-.23-1.78-2.49-2.48-3.19a7.28 7.28 0 0 0-4.5-2.3c-4-.54-6.5 1.91-9.52 3.54-.39-2.57 0-5.16-2.38-7.44a3.57 3.57 0 0 0-4.9 0c-.21.21-.45.47-.69.75-1.22-3.52-1.7-7.92-6.71-7.25-2.9.4-4.8 3.2-5.9 5.7a25.83 25.83 0 0 0-1.9 5.3 18.84 18.84 0 0 0-.24 2.06c-3.25-3.09-6.06-6.65-9.56-9.46-1.8-1.4-4.8-1.2-5.5 1.4a19.24 19.24 0 0 0-.47 2.76c-3-9.14-5.86-17.84-6-27.76-.1-5.2-.2-10.4.2-15.6s1.6-10.1.1-15.2a3.9 3.9 0 0 0-5.7-2.3 11 11 0 0 0-2.6 2.28 4 4 0 0 0-3.11-1.19c-.66-4.39-1.31-8.76-4-12.64a3.83 3.83 0 0 0-6.9.9c-1.8 4.8-.9 11.3-.6 16.3.4 7.9 3.4 15.2 5.7 22.6 2.7 8.7 5 17.4 8 26 2.1 6.2 3.5 13 8.7 17.4 1.3 1.1 3.5-1.1 2-2.4-.17-.15-.32-.31-.48-.46a4.16 4.16 0 0 0 5.15-.1c.28 1.5.64 3 1 4.46 1.6 5.9 2.7 12.3 5.4 17.8 1.69 3.53 4.44 6.42 6.76 9.56a3.63 3.63 0 0 0 1.74 6.74c12 .6 23.5-1.9 33.7-8.3 5.74-3.65 11.64-6.55 15.25-11.34 2.28 2 6.74.33 5.46-3.17zM710.09 68.8q.8 1.45 1.63 2.88c-.59-.93-1.13-1.91-1.63-2.88zm-57.51-2.32c-2.1-7.8-3.7-15.8-5.5-23.7-1-4.07-2.24-8.14-3.1-12.24a3.74 3.74 0 0 0 5.2-.59 3.89 3.89 0 0 0 2.79-.54c-.29 2.38-.7 4.76-.79 7.08-.2 5.5-.2 11.1.1 16.6.4 10.6 4.3 20.4 7.8 30.2a4 4 0 0 0 .69 1.21c-4.37-4.71-5.61-12.06-7.2-18.03zm55.7 43.6c-7.9 4.71-15.88 5.23-24.57 5.85-.92-1.68-1.74-3.52-2.23-4.25a42.66 42.66 0 0 1-5.2-10.2c-1.3-4.2-2.1-8.5-3.1-12.7-.51-2.12-1.09-4.3-1.4-6.49a69.43 69.43 0 0 0 8.8 8.39c1.2.9 3 .4 4.1-.5 2.3-2.1 2-4.2 2.5-7.1a25.49 25.49 0 0 1 1.3-3.9c.21-.55.42-1.08.66-1.6.21.73.51 1.49.74 2.2a11.49 11.49 0 0 0 2.5 4.6 3.46 3.46 0 0 0 4.2.5l.45-.33a6.24 6.24 0 0 0 .05.83 10.58 10.58 0 0 0 1.3 3.9 3.57 3.57 0 0 0 3.9 1.6c3-.7 5.9-4.2 8.8-4.3 2.1-.1 3 3.2 4.8 4.5 2.29 1.49 4.87 1.3 7.36.41q1.07 2 2.07 4c-1.59 7.51-11.07 10.92-17.04 14.58zM773.67 86.57a3.79 3.79 0 0 0-6.5 0c-.12.2-.21.42-.32.63a13.83 13.83 0 0 0-1.78-3.2c-1.6-2.1-6.1-2.6-6.6.9-.11.87-.18 1.77-.23 2.69-.8-3.63-1.13-7.53-2.28-11l-.18-.84h-.11c-.09-.24-.18-.49-.29-.73-1.3-3-6.4-.9-5.3 2.2.36 1.09.68 2.19 1 3.29 1.29 6.09 1.08 12.48 4.44 17.78 1.39 4.38 2.89 8.86 4.38 13.23 1.8 5.5 5.2 15.2 12.6 13.9a1.71 1.71 0 0 0 1.3-1.7v-1.3c0-1.6-2.31-2-3-.57-5.12-1.84-6.6-11.85-7.81-16.23-.39-1.44-.83-2.86-1.28-4.26a2.67 2.67 0 0 0 1.18-1.24 17.15 17.15 0 0 0 .9-2.38l.2.08a5.35 5.35 0 0 0 4.55-.48 8.5 8.5 0 0 0 2.35 5.38c3.5 3.6 9.1-2 5.5-5.5-2.12-2.05-1.22-7.75-2.72-10.65zM882.57 25.87a60.03 60.03 0 0 0-4 4.31 3.26 3.26 0 0 0-.51-.36 3.88 3.88 0 0 0-1.79-1.51 3.24 3.24 0 0 0-.22-1c1.3-2.19 2.55-4.41 3.65-6.71a3.78 3.78 0 0 0-4.44-5.46 3.94 3.94 0 0 0-5.06 1.36 18.63 18.63 0 0 0-1.86 4.21c-2.1 4.17-4.72 7.85-5.44 12.79a3.06 3.06 0 0 0 0 .74 83.17 83.17 0 0 0-1.8 3.36 4.35 4.35 0 0 0-.46 1.91c-1.54 2.37-3 4.78-4.34 7.29a3.86 3.86 0 0 0 2.19 5.32 3.07 3.07 0 0 0 2.33 2.9 9.91 9.91 0 0 0-1.09 3.73 20.58 20.58 0 0 0-1.92 6.44c-.1 1.9 2.4 2.2 2.6.8a22 22 0 0 1 1.36-4.56 2.94 2.94 0 0 0 2.84-1.14c2.24-3.38 4.4-6.82 6.6-10.22 6.22-5.47 10.83-12.63 15.22-19.6l.28-.27-.07-.05.47-.75c1.76-2.83-2.24-5.73-4.54-3.53zM658.17 304.67c-3-.2-5.7-.3-8.3-1.9-2-1.23-5 .08-5.77 2.21a3.63 3.63 0 0 0-5 4.79c.23.51.55 1.13.92 1.81a2 2 0 0 0-1.52 2.49c2.2 8.4 5.1 19.7 13.4 24.1a3 3 0 0 0 4.3-1.8c1.12-4-.47-7.73-2.45-11.32a5.17 5.17 0 0 0 3.85-1.58 4 4 0 0 0 .6-4.5c-1-2.33-2.16-4.56-3.3-6.81 1.08.1 2.17.16 3.3.21 4.97.2 4.87-7.37-.03-7.7zm-4.4 12.5a.85.85 0 0 0-.21-.28c2.91-2.39.57 1.89.21.28zM1040.77 165.57a3.69 3.69 0 0 0 .5-2.7c-.09-.69-.17-1.37-.26-2a1.86 1.86 0 0 0-1-2h-.09l-.21-.09a2.36 2.36 0 0 0-1.32 0l-.21.09h-.09a1.86 1.86 0 0 0-1 2c-.09.69-.17 1.38-.26 2a3.69 3.69 0 0 0 .5 2.7 2 2 0 0 0 3.44 0zM274.37 266.47c2-1 3.3-2.8 5.4-3.4 2.3-.6 4.5-.2 6.7-1.3a29.4 29.4 0 0 0 6-3.9 42.87 42.87 0 0 1 5.5-4c3.2-1.7 6.3-1.1 9.8-1.3 9.7-.6 14.6-7.3 19-15.2 4.1-7.5 8.8-17.7 4.2-26-3.3-6.1-10.4-7.9-16.8-8.1a50 50 0 0 0-9.5.7c-4.4.7-9.1.5-13.4 1.4-4.92 1-9.77 4.21-13.48 8.33-2.59-4.61-6.07-8.38-12.12-7.53-4.1.6-7.2 3.8-9 7.3-2.27 4.19-1.57 7.61-1.22 11.81-5.76 4.21-6.64 13.24-5.18 19.79.8 3.6 4.3 6.7 4.2 10-.2 4.1.4 7.4 4.2 9.9a17.52 17.52 0 0 0 10.3 2.7 14.17 14.17 0 0 0 5.4-1.2zm-11.8-9.5c-.8-2.9.4-5.2-1.4-8-2.3-3.5-3.8-5.8-3.7-10.2.1-3.4.5-7.1 3.9-8.8 1.5-.7 1.8-2.5 1.6-3.9-.5-3.2-2.1-6-1-9.2 1.3-4.2 5.2-7.9 9.8-5.6a13.65 13.65 0 0 1 4.54 4.19 24.83 24.83 0 0 0-4.74 9.81c-1.31 6.29 3.66 13.72 9.94 15.95 1.64 3.86 6.37 6.8 10.36 4.05 4.44-3 5.7-9.67 2.82-13.34-.55-3-2.57-5.57-5.12-7.66-4.4-3.6-10.7 2.6-6.3 6.3.12.1.35.33.63.62a9.44 9.44 0 0 0-.8.69 7.1 7.1 0 0 1-2.43-2.7c-.8-1.84.13-3.93 1.2-5.72 0 .36.48-.07.34-.56l.46-.72a18.88 18.88 0 0 1 5.8-5.8c3.8-2.5 7-2.4 11.3-2.8 6.3-.6 19.4-5.3 23.9 1.6 3.4 5.4-1.6 13.9-4.2 18.6-1.5 2.8-3 5.9-5.4 8-2.9 2.5-6.2 2.5-9.8 2.5-6.6.1-10.9 2.8-15.9 6.8a31.88 31.88 0 0 1-4.2 3c-1.9.9-3.6.7-5.6 1-3.3.6-4.5 2.6-7.2 4.1s-8 .82-8.8-2.18zM426.27 163.87c-5-2.5-10.4-1.4-15.7-1.4a15.65 15.65 0 0 1-1.69-.17 17.3 17.3 0 0 1 .49-1.73 30.91 30.91 0 0 1 2.3-5.7c2-4.4 4-9.6-.3-13.3-3.6-3.1-9.4-4.1-14-4.6a46.5 46.5 0 0 0-11 .2 1.77 1.77 0 0 0-.39-.6c-3.4-3.1-6.6-5.3-11.2-3.2-3.05 1.4-5.17 4.11-7.29 6.8a30.57 30.57 0 0 0-3.93.91 12.92 12.92 0 0 0-1.78-1.31c-2.9-1.6-6-3.2-9-4.5-4.9-2.1-11-2.6-15.7.3-4.4 2.6-5.7 7.6-5.6 12.5a18.4 18.4 0 0 0 .4 4.1c.2 1 1 2.5 1 3.4.2 0 .5-.1.7-.1a4.92 4.92 0 0 1-1.7.6c-1.3.5-2.7.7-4.1 1.3-11.4 4.4-7.6 17.4 1 22.7a19.84 19.84 0 0 0 15.4 2.3c2.9-.8 5.6-2.6 8.5-3.2 4.3-.9 6.8 1.6 9.8 4.3 4.1 3.7 8.4 7.2 14 8.1 7.1 1.2 13.5-2.9 20.4-3.1 6.3-.2 11 4.6 17 5.6 6.5 1 10.8-2.6 15.7-6.1 4.1-2.9 7.6-5.9 6.3-11.5-1.21-5-5.01-10.3-9.61-12.6zm-45-25.94l-3.75.66a4.2 4.2 0 0 1 3.79-.66zm43.76 42a59.87 59.87 0 0 1-5 3.8c-5.2 3.3-9.8-.9-14.7-2.7s-9.6-1.6-14.5-.5c-5.5 1.2-11 4.1-16.5 1.4-8-4-12.2-13.2-22.4-11.3-4.4.8-8.3 3.9-12.8 4-3 0-14.3-4.8-10.2-9.4 2.2-2.5 7.4-1.9 10-4.4 3.8-3.7.9-7.4.4-11.6-.3-2.3-.4-5.7 1.6-7.3 2.5-1.9 6.9-.8 9.4.3 2.08.92 4.23 2 6.27 3-2.64 4.1 3.56 9.59 8 5.85a5.43 5.43 0 0 1 .51-.37 3.81 3.81 0 0 0 3.19-1l.17-.18c2.63-.5 5.66-.44 7.83-.82 5.9-1 11.8-2.4 17.8-2.2 3.2.1 6.31 1.69 9.51 1.88a30.5 30.5 0 0 0-1.9 4.1c-2.5 5.6-5.2 14.3 1.6 18.1 7.4 4.2 17.6-3.4 22.6 5.6 1.56 2.81 1.36 2.18-.84 3.81zM269 89.27c2 4 4.7 8.1 9.1 9.5l.35.1a43.67 43.67 0 0 0 17.25 10.8 51 51 0 0 0 16.5 1.8c4.2-.1 9.2.7 12.1-2.9 1.3-1.2.2-2.9-1.3-2.2-3.2 1.7-8.8.4-12.3.1a45.69 45.69 0 0 1-12.7-2.58 20.42 20.42 0 0 0 2.78.18 3.74 3.74 0 0 0 3.72-4.55 47.91 47.91 0 0 0 6.28 1.25c1.9 0 4-1.7 3.8-3.8-.3-3.7-2.5-7.9-6-9.6-4.4-2.1-7.2 2.2-11.3 1.3-4.4-1-8-4.1-12.4-5.1a12.24 12.24 0 0 0-9.26 1.53 43.33 43.33 0 0 1-3-9c-.2-.8-1.7-9.1-.9-9.5.1-.1 4.6 3.3 5.4 3.5a7.26 7.26 0 0 0 5.9-.9c3.3-2.2 3.5-6.1 4.2-9.6.2-1.1.4-3.3 1.5-3.8 2-.8 4.2 2.1 5.3 3.2 3.2 3.1 6.9 5.2 11.3 2.8 3-1.7 4.9-4.4 8.5-5.1A11.39 11.39 0 0 1 324 60c4.2 4.2 2.4 10.8 4.5 16a12.57 12.57 0 0 0 5.5 6.3c2.3 1.4 5.4 2 6.4 4.7s-.1 7.1-.6 9.9c-.7 3.7-1.6 7.9-4.1 10.8-3.5 4 2.4 9.8 5.8 5.8 5-5.8 6.4-13.7 7-21s-1.5-12.4-8.2-15.9c-3.7-1.9-4.9-3.2-5.4-7.5-.4-3.5-.5-7.1-2.2-10.3a19.46 19.46 0 0 0-19.2-10 20.72 20.72 0 0 0-10 4.5c-1.5 1.2-1.4 1.8-2.8 1.3-1.1-.4-2.5-2.6-3.5-3.4-4.1-3.6-10.7-5-14.8-.5a12.92 12.92 0 0 0-2.8 6.3l-.6 3.6c-.1.5-.2 1-.3 1.4l-.1.24c-.6-.43-1.61-1.62-2.2-2a9.4 9.4 0 0 0-4.1-1.8 7.42 7.42 0 0 0-7.8 4.8c-1.3 3.5-.5 8.1 0 11.8a47.68 47.68 0 0 0 4.5 14.23zm17.73 2.43l-2 .07a11.6 11.6 0 0 1-2.91-.19l-.66-.87a9.56 9.56 0 0 1 5.55.99zM326.27 33.07c4.3-.6 12.5-5.7 13.1 1.1.5 5.6-.5 11.6.8 17.1.7 3 4.8 3.3 6.3.8 3.35-5.45.68-12.08 2.14-17.62a69.21 69.21 0 0 0 9.86 9.22c3.1 2.5 9-.9 6.1-4.7l-.69-.93.12-.04-.43-.37c-2.45-3.21-5.77-7.13-9.5-9.53a6.17 6.17 0 0 1-1.07-2.2c-.3-1.6-1-.5.4-1.3 1-.6 3.2-.4 4.4-.5 4.8-.7 9.4-1.7 14.3-1 5.3.8 7.6-7.2 2.2-8.1-6.9-1.2-13.1.3-19.9 1.3-3.28.45-6.5 1.23-8.38 3.62-5-.83-9.62.26-14.52 2.28-3.4 1.4-8 3.5-8.5 7.6-.33 2.2 1.07 3.67 3.27 3.27zm18.2-9.54a9.27 9.27 0 0 0 0 3 4.71 4.71 0 0 0-1.15.89c-.13-.16-.25-.33-.4-.48a7.49 7.49 0 0 0-5.88-2.27 17.91 17.91 0 0 1 7.43-1.14zM1164.37 44.27c-.48-3.93-5.45-4.83-7.2-2.41a50 50 0 0 0-1.3-5.79 3.78 3.78 0 0 0-5.91-2 3.7 3.7 0 0 0-1.65-1.46c0-.32 0-.64.06-1 .2-3.1-4.3-3.4-5.2-.7-.07.2-.12.4-.18.6s0 0 0 .07c-2.5 8.08-2.57 16.79-1.57 25.3a15.25 15.25 0 0 1-.53 1.84 2 2 0 0 0 1.13 2.51c.42 2.67.92 5.31 1.47 7.89s3.8 3.1 5.6 1.5c2.65-2.57 3.23-6.12 3.15-9.68a3.71 3.71 0 0 0 4.75-.22c.11.06.2.14.31.2a4.15 4.15 0 0 0 4.08-.08c1.62 3.68 3.42 7.3 5 11 1.7 3.9 8.4 1.1 6.9-2.9-3.11-8.07-8.21-15.87-8.91-24.67zM960.75 185l.42.56a3.3 3.3 0 0 0-.42-.56z"/><path class="cls-1" d="M1048.67 192.67c-12.4 3-24.6 6.6-37.2 9a135.38 135.38 0 0 1-19 2.5 36.21 36.21 0 0 1-10.4-.6c-2.5-.5-4.6-1.3-7.2-1.3a2.67 2.67 0 0 0-2.6 2 14.6 14.6 0 0 0-.3 3.6 6.32 6.32 0 0 1 .09 1.2c-2.4-.31-4.8-6.6-5.8-8.4a42.39 42.39 0 0 0-4.6-6.5 27.68 27.68 0 0 1-3.1-4.5 10.86 10.86 0 0 1-1.5-4.6c1.62-.94 2.81-1 3.68-.06a8.79 8.79 0 0 0-3.68-3.14.76.76 0 0 0-.8.3c-1.7 3.9-.2 7.7 1.9 11.2 2.7 4.6 5.1 8.9 7.5 13.7 1.3 2.6 4.6 8 8.2 7.3 3.25-.6 3.13-3.6 3.31-6.24 2 .48 4 1.27 6.09 1.64a48.46 48.46 0 0 0 9.3.6 134.7 134.7 0 0 0 18.9-2c13.2-2.2 26.1-5.8 39.1-9 4.44-1.1 2.51-7.8-1.89-6.7zM1236 154.47a59.12 59.12 0 0 0-14.8 4.6 38.75 38.75 0 0 0-5.38 3.43 3.81 3.81 0 0 0-5.12-.93l-1 .65a3.24 3.24 0 0 0-3.74-1 12.62 12.62 0 0 0-5.51 4.25 10 10 0 0 0-.09-1 3.66 3.66 0 0 0-3.4-2.6c-2.4.3-4.13 1.86-5.48 3.93a2.6 2.6 0 0 0-3.32.77 13.62 13.62 0 0 0-1.8 13.2c1 2.37 4.23 3.28 5.75.87 1.77 5.41 4.4 10 10.75 9 1.7.1 1.3-2.4-.2-2.4-3.7.09-5.73-3.22-7-7.31a4.68 4.68 0 0 0 3.75-.89 10.08 10.08 0 0 0 1.71-1.79 3.27 3.27 0 0 0 2.29-.61l2.6-1.79a4 4 0 0 0 3.9.89c4.7-1.9 8.4-5.1 12.8-7.7 4.8-2.8 10.2-4.3 15.5-5.6 5.06-1.37 2.86-8.97-2.21-7.97zM148.37 370c-3.6-.2-7.3.2-10.9-.2-1.8-.2-3.3-.6-5.1.1a10.83 10.83 0 0 0-3 2 4.78 4.78 0 0 0-3.92-.35 5.06 5.06 0 0 0-.61.24c-1.52-3.12-3.9-5.79-7.09-5.74-6.1.1-5.4 8.5-5.4 12.6h.06c0 .25.08.52.14.81a2.78 2.78 0 0 0 4.32 1.55 10.84 10.84 0 0 0 6.58 1.25c2.1-.4 4.2-1.9 6.1-2.9a17.72 17.72 0 0 0 2.16-1.48l.64.78c1.1 1.1 2.9-.8 1.8-2.1l-.14-.16a4.61 4.61 0 0 1 1.74-.44c4.1-.3 8.4.7 12.6.4s4.22-6.19.02-6.36zm-30.46 5c-.06-1.51 0-2.91.56-3.06.94-.3 2.06 1.88 2.84 3.95a5.18 5.18 0 0 1-3.4-.96zM1227.77 411.47c-5.8 3.6-11.6 7.4-17.3 11.3-1.7 1.2-3.4 2.4-5 3.7l-.68.6a6.57 6.57 0 0 0-3.12-3.6 4.26 4.26 0 0 0-4.1 0c-.19.15-.39.28-.58.41.24-1 .6-2 .78-2.71.9-3.21-2.28-5.47-4.9-4.83a6.19 6.19 0 0 0-.6-.57 4 4 0 0 0-5.4 0 8.2 8.2 0 0 0-2.15 7.94 5.1 5.1 0 0 0-.45.46c-1.7 2.2-1.8 4.1-1.4 6.8a3.75 3.75 0 0 0 3.5 2.7 6.25 6.25 0 0 0 1-.08c.6 3.4.63 7 4.87 9 2.1 1 4.6 1.1 6.7 2.2 1.8.9 2.8 2.4 4.1 3.9 1.9 2.3 3.7 4.1 6.6 4.8 3.1.9 4.5-4.1 1.2-5-3.1-.8-4.4-4.2-6.5-6.3-2.3-2.2-5-2.7-7.8-3.9a4.61 4.61 0 0 1-3.08-4.31 5.61 5.61 0 0 0 2.88-.49c.37-.16.73-.33 1.09-.5v.4a4.17 4.17 0 0 0 3 3.9c4.4 1.2 7.8-2.7 10.9-5.2 6.4-5 13.6-9.3 20.5-13.6 4.44-2.82.44-9.82-4.06-7.02zM1332.27 296.37a13.89 13.89 0 0 0-6.1-4.9 6.3 6.3 0 0 0-2.72-.37 9.92 9.92 0 0 0-4.78-6.83 4.22 4.22 0 0 0-3.12-.44c-4.21-2.55-10.22.32-13.18 4.54-2.65 3.79 2.59 7.75 6 5.52a4.39 4.39 0 0 0 3 3.48 5.93 5.93 0 0 0 3.63.39 4.28 4.28 0 0 0 3.53 1.81 7 7 0 0 0 .54 1.2 5.35 5.35 0 0 0 10-1.32c.81 1.85.49 4 .71 6.12.4 2.1 3.5 2.1 3.5 0-.11-3.57 1.19-5.9-1.01-9.2zM327.77 312.67c-3.1 1.9-6.3 3.8-9.9 4.2-4 .5-7.6-.9-11.3-2.1-7.9-2.6-13.5-.2-21.4.5-6.3.6-14.6-3.3-17.9-8.9A9.27 9.27 0 0 1 266 302a6.54 6.54 0 0 0 4.3.4 3.15 3.15 0 0 0 2.1-2.1c1.13-3.11 1.55-7.37-1-9.86a37.26 37.26 0 0 1 4-6.94c3.1-4.5 7.1-8.8 12.3-10.8 6.7-2.5 12.4.7 17.2 5.1 1.1 1 2.6-.5 1.6-1.5-4.8-4.7-10.6-8.5-17.6-7.3-8 1.4-14.3 7.9-18.7 14.3a44.82 44.82 0 0 0-3.09 5.44 6.76 6.76 0 0 0-4.91 3c-5.3 7.4-3 17.4 3.4 23.2a31.68 31.68 0 0 0 12.9 6.9c6.1 1.6 11.6-.6 17.7-1.2 6.5-.7 12.1 3.5 18.5 3.9s11.6-2 17-5.1c4.3-2.57.37-9.37-3.93-6.77zM196 276.77c-4.4-.6-7.3 2.4-11.3 3-3.4.5-4.2-3.9-5.4-6.5a19.15 19.15 0 0 0-2.44-3.73 3.31 3.31 0 0 0-.66-4.07c-2.4-2.5-5.2-2.7-7.7-.3a3.8 3.8 0 0 0-.6 4.5 27.06 27.06 0 0 0 3 3.9 24.54 24.54 0 0 1 3 5.8c1.4 3 3.2 5.9 6.4 7.3 2.7 1.2 5.3.5 7.9-.6 1.1-.4 5.6-3.2 6.9-2.3 1.5 1.1-.8 6-1.4 7.3a17.15 17.15 0 0 1-1.94 3.3c-.62-1.83-2.9-3.1-4.66-1.8a8.51 8.51 0 0 0-3.27 4.32 40.14 40.14 0 0 0-7.33 3c-4.3 2.3-8.1 4.9-11 8.8a2.62 2.62 0 0 0 0 2.7c3.4 4.8 10.3-.2 13.6-2.6 1.91-1.37 4.37-3 6.63-4.89 1.41.87 3.43 1 6-.21 5.3-2.5 8.9-9.1 10.3-14.5 1.24-5.19.24-11.62-6.03-12.42zM612.77 187.67a15.63 15.63 0 0 0-11.55-.4l-.15-.1c-.23-.1-.45-.18-.67-.26l.87-1.14c1.9-2.4-.7-6.1-3.4-6-4.2.2-6.7 4.8-8.6 7.9-.54.88-1.06 1.77-1.58 2.67A12.4 12.4 0 0 1 584 188c-3.4-3.2-5.5-7.8-7.1-12.2a3.2 3.2 0 0 0-4.32-1.89 1.42 1.42 0 0 0-.38-1.31c-1.3-1.5-2.7-2.9-4-4.4a1.9 1.9 0 0 0-2.7 0c-5.4 5.3 5.2 20.2 10.9 21.7a2.81 2.81 0 0 0 .29 0 20.9 20.9 0 0 0 7.11 6.36l.55.26-1.65 3.14c-1.9 3.6 2 7.8 5.7 5.7 7.4-4.2 12.9-12.6 22.2-9.7 5.17 1.61 6.97-5.99 2.17-7.99zm-41.91-10.23h-.09l.14.42a18.11 18.11 0 0 1-2.31-4.77c.53.5 1.05 1 1.58 1.55a1.34 1.34 0 0 0 .86.41 2.65 2.65 0 0 0-.18 2.4zM850.13 86.34c.33-.47.67-.93 1-1.37 1.91-1.81-.55-4.44-2.17-3 0-.47-.09-.93-.17-1.39.05-1.13.08-2.27.11-3.42.12-.56.24-1.12.34-1.67h-.31v-.46c0-2.4-3.9-3.1-4.3-.6a3.58 3.58 0 0 0-3.6 3.3 57 57 0 0 0 .57 8.45c.07 2.09.13 4.19.13 6.35h.27c0 4.12 6 4.35 6.89.7a3.68 3.68 0 0 0 2-6.1zM819.63 33.58a17.87 17.87 0 0 0 2.55-6.1c.6-2.8-2.4-4.3-4.6-2.7-1.38 1.07-2.63 3.46-3.29 6-1.74-2.11-4.51-2.26-7.11-1.61-4.3 1.1-2.4 7 1.8 6.5h.09v.31a8.42 8.42 0 0 0 .4 2.7c.8 2.9 4.6 3.1 6.1.8l.3-.43a2.41 2.41 0 0 0 2.5-.57c1.7-1.7 4.2-1.3 4.2 1.4.2 2.7 3.9 2.7 4 .2a6.16 6.16 0 0 0-6.94-6.5zM745.81 39q.83-.53 1.68-1c.25 1.66 2.82 2.47 3.77.75a23.71 23.71 0 0 0 1.74-3.9 2.41 2.41 0 0 0 .25-3.81l.14-.36a1.59 1.59 0 0 0 .48-.41 17.11 17.11 0 0 0 2.54-5.61l.06-.09.12-.39c.5-1.7-1.7-2.3-2.6-1.1a34.14 34.14 0 0 0-4 7.26h-.11l-.15.07c-2.17.33-3.86 1.72-5.67 2.93l-.29.19c-.39.25-.78.5-1.19.72l.06.1c-.18.14-.38.26-.56.4-2.72 2.16.92 6.25 3.73 4.25zM1090.47 27.37c-3.5.7-5 5.1-4.7 8.2a2.77 2.77 0 0 0 2.4 2.74v.16c0 2.7 4 2.7 4 .1s-.3-5.6.9-7.9a2.3 2.3 0 0 0-2.6-3.3z"/></svg>