<svg id="Layer_1" data-name="Layer 1" xmlns="http://www.w3.org/2000/svg" viewBox="0 0 1440 712"><defs><style>.cls-1{fill:#3cb33b}</style></defs><title>Artboard 1</title><path class="cls-1" d="M695.8 565a4.75 4.75 0 0 0-.47-.43 5.75 5.75 0 0 0 0-1.77c-.5-2.8-5.1-2.2-4.8.5.06.53-1.45 1.65-2.83 2.73a14.49 14.49 0 0 0-10-2.13c-5.5 1-10.8 9.3-6 13.9 2.2 2.1 6.3 3.3 9.2 4.1 3.9 1.1 8.5 1.6 12.3 0 7.3-3 7.6-11.7 2.6-16.9zm-16.8 7.57c.36-.39.61-.79.17-.73a6 6 0 0 1 2.76.46 4.78 4.78 0 0 0 1.17.41c0-.34-.06-.76-.07-1.31a4.36 4.36 0 0 0 .23 1.3c.33-.08.38.37.32.71a3.54 3.54 0 0 0 .83 1 38.72 38.72 0 0 1-5.41-1.84z"/><path class="cls-1" d="M683.55 573.41a3.74 3.74 0 0 1-.32-.71.27.27 0 0 1-.13 0c.1 1.39.37 1.15.45.71zM750.7 582.5a10.33 10.33 0 0 0 2.46 1.71 8.32 8.32 0 0 0 2.44 4.39 4.79 4.79 0 0 0 4.1 1.3 4.89 4.89 0 0 0 3.19-1.94 7.1 7.1 0 0 0 2.41-1.46 6.53 6.53 0 0 0 2-3.25 6.83 6.83 0 0 0 1-.15c3.7-.9 6.7-4.1 5.9-8a10.31 10.31 0 0 0-7.6-7.6 12.87 12.87 0 0 0-4.8.4 36.37 36.37 0 0 1-7.4.4 3.69 3.69 0 0 0-3.23 1.58 3.1 3.1 0 0 0-2.57 1.12c-3 3.9-1.3 8.5 2.1 11.5zM716.7 563.6l.95-.14a6 6 0 0 0 4.75.84 5.72 5.72 0 0 0 2.8-1.8 6 6 0 0 0 3.2-6.3c-.5-2.4-2.4-4.6-4-6.4-3.5-3.8-8.5-4.6-13.4-3.4-5.1 1.3-7.2 5.7-5.5 10.7a4.16 4.16 0 0 0 6.73 1.75 3.77 3.77 0 0 0 .79 2 2.6 2.6 0 0 0 2.08 2.37 12.7 12.7 0 0 0 1.57.19zm-4.4-9.1s.15-.1.44-.16c-.11.26-.25.44-.44.16zM668.3 550.4c.62 0 1.18.07 1.71.15a3.94 3.94 0 0 0 5.69 4.05c.7-.35 1.57-.81 2.52-1.36a5.39 5.39 0 0 0 3.46-1.82 6.1 6.1 0 0 0 .62-.32 5 5 0 0 0 1.75-1.89c.44-.37.86-.75 1.26-1.14l.79.33a1.84 1.84 0 0 0 1.8-3.2l-.17-.11c1.38-2.33 1.57-4.82-.63-7.19-3.3-3.6-10.5-3.1-14.8-2.2-2.6.6-5.5 1.8-7.1 4.1-1.4 2.1-.8 4.3-.8 6.7a4 4 0 0 0 3.9 3.9zM598.5 532.06a4.78 4.78 0 0 0-2.84 3.45 3.5 3.5 0 0 1-.77-.51 1.68 1.68 0 0 0-2.7 1.8 7.26 7.26 0 0 0 .76 1.86 4.51 4.51 0 0 0 2.94 5.74c.61.18 1.24.38 1.9.6a6.35 6.35 0 0 0 5.7 1.9l.29-.08c4.08.94 8.17.89 10.91-2.92a11.09 11.09 0 0 0 .7-11 7.51 7.51 0 0 0-4.4-3.2l-.32-.07a6.26 6.26 0 0 0-1.77-4.63 4.22 4.22 0 0 0-5-.6 5.94 5.94 0 0 0-3.74 6.2 5.91 5.91 0 0 0-1.66 1.46zM735.81 543.26a17 17 0 0 0 11.74 3.29 4 4 0 0 0 5 .95l.94-.48a3.73 3.73 0 0 0 2.29.48 7.39 7.39 0 0 0 4.47 1.39 3.8 3.8 0 0 0 3.8-3.8 6.37 6.37 0 0 0-1-3.45 1.46 1.46 0 0 0 .2-.45c.75-3.07-.54-5.28-2.51-6.13a7.47 7.47 0 0 0-7.14-2.06 3.51 3.51 0 0 0-2.5 3.3 13.75 13.75 0 0 0 0 1.53 3.47 3.47 0 0 0-.9 0 8.53 8.53 0 0 0-2.51-1c-2.71-.58-5 0-7.63-1l-.47-.4a4.17 4.17 0 0 0-3.66-1.14c-4.16-1.14-8.33-.73-8.94 5a4.08 4.08 0 0 0 2.1 3.6 8.44 8.44 0 0 0 6.72.37zM796.22 538.66a5.22 5.22 0 0 0-.49-1.49c2-2.09 3.37-4.38 2.67-7.37-.3-2.7-4.3-2.1-4.3.5 0 1.28-1.19 2.46-2.54 3.51l-.46-.31a3.8 3.8 0 0 0-4.5.6 7.62 7.62 0 0 0-1 1.14 7.86 7.86 0 0 0-3.73 3.68 9.22 9.22 0 0 0-5.27 5.38 4.23 4.23 0 0 0 1 4c3.2 3.6 7.5 5 11.9 2.8 1.8-.9 3.2-2.6 5-3.2 2.5-.8 4-.6 6.2-2.5 3.55-3.1-.7-8.09-4.48-6.74zm-12 8c-.08.2-.08.13 0 0zM824.1 602.3c-2.4-1.3-5-.3-7.1 1.1a4.25 4.25 0 0 0-1.22 1.14 5.81 5.81 0 0 0-2.78 1 4.11 4.11 0 0 0-1.78 3.58 3.81 3.81 0 0 0 4.08 5.82 10.31 10.31 0 0 0 1-.44 6.45 6.45 0 0 0 3.07-1.31 5.93 5.93 0 0 0 7.57-3.55 6.6 6.6 0 0 0-2.84-7.34zm-1.87 6.59c.1-.07.2-.12.27-.09zM866.7 522.8a4.47 4.47 0 0 0-1.1-3.45c-.07-.21-.14-.42-.2-.65.09-3.25-3.84-4.73-6.11-3l-.59-.16c-4.6-1.2-9 .2-10.7 4.8a3.2 3.2 0 0 0 .35 3.18l-.1.06a8.57 8.57 0 0 0-2.1-2.06 3.65 3.65 0 0 0-4.4.6 5.89 5.89 0 0 0-1.17 1.59 5.58 5.58 0 0 0-.75-.19 7.62 7.62 0 0 0-.88-.6c-2.5-1.5-5 .5-5.3 3-.7 5.7 6.2 9.5 11.2 7.7a8.89 8.89 0 0 0 1.33-.64 3.39 3.39 0 0 0 .75-.27 5.67 5.67 0 0 0 3.22-.8c1.8-1.1 2-1.4 4.3-1.5 1.8-.1 3.3-.1 4.9-1.1a8.59 8.59 0 0 0 2.77-2.89 3.86 3.86 0 0 0 4.58-3.62zM836 517.43c1.9-.14 2.41-3 1-4a3.08 3.08 0 0 0-3-2.58 2.93 2.93 0 0 0-1.43.42l-.27-.22a2.64 2.64 0 0 0-4.3 1.1 5.38 5.38 0 0 0 3.1 7.1 4.35 4.35 0 0 0 4.2-1 4.54 4.54 0 0 0 .7-.82zM830.3 489a3.1 3.1 0 0 0 .52-.18c.26.16.53.31.78.48a2.31 2.31 0 0 1 .36.36 11.61 11.61 0 0 0-.16 1.54 2.37 2.37 0 0 0 2.4 2.4c3.5-.2 5-3.2 3.4-6.3-.15-.28-.32-.58-.51-.87a8.85 8.85 0 0 1 2.08-3c.78-.39 1.55-.87 2.33-1.26a1.53 1.53 0 0 0-.3-2.7c-2.35-.45-4.33.7-5.86 2.51a3 3 0 0 0-.44-.51 3.8 3.8 0 0 0-2.37-1 2.78 2.78 0 0 0-2.53-.43c-.15.06-.28.14-.43.2a2.88 2.88 0 0 0-1 0 3.68 3.68 0 0 0-3.06 3.84 3.13 3.13 0 0 0 1.36 3.76c.19.11.38.2.57.28a3.43 3.43 0 0 0 2.86.88zm2.5 1.51c.05 0 .09.09 0 .09zM848.1 492.3a6.07 6.07 0 0 1 .7 1.4 3.27 3.27 0 1 0 6-2.5 26.12 26.12 0 0 0-2.7-3c-.18-.18-.29-.36-.45-.54v-.14c2.23-.71 1.58-4.91-1.2-4.72-.4 0-.8.1-1.3.1a2.48 2.48 0 0 0-2.2 1.3 6.49 6.49 0 0 0-.1 6.2 15.62 15.62 0 0 0 1.25 1.9zM1153.5 369.7a18.53 18.53 0 0 0-6.4 3.7c-2.6 2.4-5.5 2.8-8.3 4.7-8.3 5.7-4.5 17-.7 24.2 2.4 4.6 4.4 9.8 8.6 13.1s10.2 4.8 15.6 5.1a3.77 3.77 0 0 0 3.81-3c2.36.58 4.87 1.16 7.09.54 1.6-.4 2.8-1.8 4.4-2s2.7.8 4.3 1.1a10 10 0 0 0 8.8-3.1c5-4.8 6.8-11.2 3.6-17.4-.93-1.79-1.92-4.15-3.21-6.23a9.15 9.15 0 0 0-.39-3.77c-1.2-3.5-4.8-5.3-7.6-7.5s-5.06-3.8-8.38-4.23a21.41 21.41 0 0 0-21.22-5.17zm19.7 13.22c-.76 1.14-.63.26 0 0zm-9.4-5c.81.27 1.61.55 2.42.89-.68 1.69-.21 3.73 2.18 5.71 1.7 1.4 4.3 1.8 5.9 0 .25-.27.47-.54.68-.8a32.58 32.58 0 0 1 2.82 1.8c.69.56 1.49 1.13 2.24 1.72-2.82 2.94-1.16 9.08 3.16 10.38a5.64 5.64 0 0 0 2.61.17c.06.11.12.22.19.33 1.6 2.9 3.4 4.1 1.7 7.6-1.3 2.5-3 4.6-5.9 3.7-1.9-.6-3.6-1.3-5.6-.8s-3.5 2.4-5.7 2.2a9.68 9.68 0 0 1-2.4-.8c-1.5-.3-3.3.1-4.7-.4-2.5-.7-7-5-6.5-8 .4-2-.2-.5 1.7-1.5 1.29-.65 3.09-1.27 4.38-.27a4.27 4.27 0 0 0 4.22 4.27c4.27.39 5.14-3.24 4.31-6.56a6.3 6.3 0 0 0-.11-2.24 1.72 1.72 0 0 0-1.4-1.32 2.44 2.44 0 0 0-.86-.69c-.07-.06-.14-.14-.22-.2a3 3 0 0 0-3.37.19 7.3 7.3 0 0 0-5.13-.89c-2.2.3-5.8 1-7.7 2.2-5 3.11-3 10-.22 14.55-2.33-1.7-3.52-4.13-4.78-6.65-2.1-4.2-6.7-10.3-5.3-15.3.9-3.2 4.7-2.8 7.2-4.4 3.4-2.2 4.8-5.2 9.4-5.6a13.32 13.32 0 0 1 4.78.69zM1303.2 558.2c1.5-3.3-.5-6.8-3.5-8.5a6.36 6.36 0 0 0-4.81-.74 8.49 8.49 0 0 0-7.8 1.59 3 3 0 0 0-3.95 1.2c-3.37 0-6 3.65-5.84 7 .26 4.55 3.88 4.94 7.16 3.37a1.89 1.89 0 0 0 2.44-.27 5.38 5.38 0 0 0 .88-1.29 5.71 5.71 0 0 0 1.41-.2c1.12 2.32 3 3.82 6.51 3.49a6.4 6.4 0 0 0 5.23-3.34 4.14 4.14 0 0 0 2.27-2.31zM1281 492.3a8.53 8.53 0 0 0-.16 1.8v.14l-.21.06c-3.1.8-3.2 4.7-.8 6.4 4.4 3.2 10.1 7.6 15.8 4.7 4.3-2.3 4.9-8.2 2-11.8a14.92 14.92 0 0 0-4.91-3.56 40.6 40.6 0 0 0 4.61-4.94c.7-.9.1-2.1-.7-2.7-3-2.3-4-6.4-7.9-7.5-2.87-.76-5.45.62-7.63 2.33-4.21-3.49-12.06-5.14-14.27 1.47a4.75 4.75 0 0 0 0 3.7c.6 1 1.4.8 2.1 1.5 1.1 1.1.6 3.7 1 5.4 1.26 5.34 7.13 6.08 11.07 3zm11.24 7.7c-2.06.51-4.49-1.51-6.39-3.25a4 4 0 0 0-.47-1.11 2.18 2.18 0 0 0-.23-2.54c.54-.46 1.39-.29 2.48.1a11.53 11.53 0 0 1 4.9 3.3c.77 1.1 1.47 3-.33 3.5zm-7.9-21a4.78 4.78 0 0 1 1.54-.57c2.1-.4 3.3 1.2 4.3 2.7a21 21 0 0 0 2.6 3.31c-1.31 1.42-2.81 2.68-4.2 4a2.15 2.15 0 0 0-.16.18 9 9 0 0 0-4.18.07c1.87-3.13 2.76-7 .06-9.69zm-10.9-.5c2.07-.72 4.55.67 6.33 1.83a1.83 1.83 0 0 0 .35.28 2.29 2.29 0 0 0 .32 1.39c1.2 1.9-1.5 5.3-3.1 6.4-2.6 1.7-2.4-1.4-2.6-3.1-.28-2.44-1-4.43-3.1-5.66.77-.43 1.62-1.09 1.76-1.14zM1302.7 487.3c2.1 2.3 4.9 2.4 7.7 1.1 1.3-.6 2.5-1.3 3.9-1.8a25.16 25.16 0 0 0 2.9-1.2 4.41 4.41 0 0 0 2-5.7c-1-2.3-3.2-3.5-5.4-4.3-3.7-1.2-10.6-2.4-13.4 1.2a3.15 3.15 0 0 0 1 5 5.64 5.64 0 0 0 1.3 5.7zm2.37-5a2.51 2.51 0 0 0 2.58-1.6 3.66 3.66 0 0 1 .45 0 1.14 1.14 0 0 0 1.15-.31h.15a14.69 14.69 0 0 1 2.9.5 9.16 9.16 0 0 1 1 .39 4 4 0 0 0-.58.31c-1 .5-1.8 1.2-2.8 1.8-1.4.9-3.8 2.4-4.7 0a1.77 1.77 0 0 1-.15-1.09zM1325.3 494.1c4.09 2.65 10 .08 11.07-4.3a1.4 1.4 0 0 0 1.63-1.5c-.1-4.9-7.5-9-11.8-7.3a6 6 0 0 0-4.16 2.68 2.7 2.7 0 0 0 .07 2.91 7.66 7.66 0 0 0 3.19 7.51zm1.8-7.1a2.46 2.46 0 0 1 1.2.1 4.4 4.4 0 0 1 2.47 1.21c0 .05.08.55-.07.69a2.1 2.1 0 0 1-.8.6 1.83 1.83 0 0 1-2.3-.4 3 3 0 0 1-.67-2.19zM1368.9 491.2c-.2-5.1-8-5.2-8 0 0 1.8.9 3.8-.2 5.3-1.17 1.72-3.26 2.21-5.21 2.15-1.12-2.29-3.44-3.3-6.49-3.15a17.86 17.86 0 0 1-2.3.2h-.31a5.86 5.86 0 0 1 .21-1.75 5.36 5.36 0 0 1 4.1-4.2c1.8-.4 4.6-.2 5 2s3.6 1.7 3.5-.4c-.2-3.8-3.3-5.8-7-6.1a10 10 0 0 0-10.1 6.1c-1.2 2.9-1.7 7.2 1.4 9.1a7.54 7.54 0 0 0 3.9.7 14.76 14.76 0 0 1 2.1-.1.36.36 0 1 1 .5.5 3.18 3.18 0 0 0 2.3 3c9.2 2.25 16.9-3.75 16.6-13.35zM1348.2 521.5c-.9-1-.6-2.9-.7-4.2a6.67 6.67 0 0 0-1.16-3.83 7.78 7.78 0 0 0-.34-1.77 2.67 2.67 0 0 0-2.5-1.9c-3.6-.3-5.2 2.9-6.7 5.6-1.29 2.3 1 4.44 3 4.23a3.61 3.61 0 0 0 3.45.27 4.52 4.52 0 0 0 .57-.3 7.9 7.9 0 0 0 1.73 4.7c1.65 1.6 4.25-1 2.65-2.8zM585.36 530.3a4 4 0 0 0 1.44.8 3.57 3.57 0 0 0 3.6-1.2 8.06 8.06 0 0 0 1.9-3.8c.2-1.2.1-2.6.7-3.7 1.1-2.5-2.4-4.6-3.9-2.2-1 1.57-1 3.24-1.48 5a11.7 11.7 0 0 0-2.5-.7l-.4-.1c.43-.37.87-.71 1-.8 1.4-1.1 1.1-3.4 0-4.5a3.26 3.26 0 0 0-4.5 0c-2.3 1.8-4.6 4.7-3.2 7.7 1.2 2.7 4.5 3.5 7.2 3.5zm-1.56-4.8v-.17zM582.73 505.41c-.51 1.66-1.25 3.35-1.63 4.69-.6 1.9 1.5 4.5 3.6 3.6a15.92 15.92 0 0 0 6.63-5.13 3.88 3.88 0 0 0 2.57 1.43c7 .9 13.3-6.9 12.4-13.5-1.1-8.3-9-10.7-16.4-10.2s-15.1 7.1-14.8 14.9c.1 2.7 1.5 5.3 4.5 5.4a5.26 5.26 0 0 0 3.13-1.19zm.27-7.71a10 10 0 0 1 5.7-4.2c2.5-.6 7.3-.6 9.2 1.2 3.1 3-.3 8.2-4 8a3.28 3.28 0 0 0-2.37.69 1.55 1.55 0 0 0-2.13 1 3.47 3.47 0 0 1-.4.81 11.79 11.79 0 0 0 .3-5.61 3.12 3.12 0 0 0-3.1-2.3 9.42 9.42 0 0 0-3.27.57c.07-.05.07-.12.07-.16zM570.3 469.6c1.6.1 3.9-.5 5.3 0 2.5 1 1 4.7 1.1 6.8.2 2.8 1.6 6.5 4.5 7.4 5.4 1.7 11.7-.5 15.5-4.7a1.8 1.8 0 0 0-2.5-2.6c-1.5 1.2-3.3 1-4.9 1.8-.44.15-.88.31-1.32.49-1.2-1-3.57-.73-4.52-1.48.55.12.64-3.28.64-3.92a17.82 17.82 0 0 0-.3-4.6 8.88 8.88 0 0 0-3.7-5.2c-4.1-2.5-10.6.6-13.9-3s4.5-3.1 6.7-3.1c4.6-.1 4.6-7.2 0-7.2-4.9 0-12.3 0-14.6 5.3-3.3 7.61 5.5 13.51 12 14.01zM586.6 462.2c1.4 1.2 2.3 2.4 4.2 2.8 4.2.9 7.6-2.5 11.6-3 5.5-.8 1.5-10.9-3.6-6.3a14.58 14.58 0 0 1-4.5 2.7c-2.4 1-2.6.2-4.5-1.1-.6-.4-2.5-1-2.6-1.7s1.2-2 1.4-2.2.43-.51.66-.75a1.87 1.87 0 0 0 2-1.06 2.29 2.29 0 0 1 1.36.7 2 2 0 0 0 2.7-2.8 5.66 5.66 0 0 0-4.29-2 24.41 24.41 0 0 1-.79-6.2 8.26 8.26 0 0 0 2.05-2.66c.3.1.61.2.92.28 3.9 1.1 5.6-4.9 1.7-6.1-.9-.3-1.8-.5-2.7-.8a3.09 3.09 0 0 0-3.4 1.4c-.3.5-1.2 3.4-1.5 3.5a2.61 2.61 0 0 0-1.8 3.2c.54 2.7 1.49 5.47 1.95 8.25-4.15 2-7.26 7.21-4.15 11.05a28.78 28.78 0 0 0 3.29 2.79zM603.42 473.8a6.54 6.54 0 0 0 1.88 3.2c3.7 3.3 9.7 1.5 14.1 1.5 4.9-.1 4.9-7.7 0-7.5-1.56.07-3.18.26-4.78.39a1.93 1.93 0 0 0-.72-2.49 5.26 5.26 0 0 0-2.82-.82 4.2 4.2 0 0 0-2.38-1.08c-3.94-.4-5.77 2.68-5.46 5.78-1.89.45-2.7.89.18 1.02zM626.6 506.4a13 13 0 0 0 5.6-3.9 10.43 10.43 0 0 0 1.9-3.2c.8-1.9.3-2.8 0-4.7-.39-2.35-2.93-3.41-5.07-2.94a2 2 0 0 0-1.53-2.46c-2.6-.7-4.5-2.8-7.2-3.1a8 8 0 0 0-6.8 3.3 11.36 11.36 0 0 0 .9 14.6c3.1 3.2 8.1 3.8 12.2 2.4zm-7-7.6c-1.4-1.3-1.6-4.2-1-5.8 1.2-3.5 5.3 0 7.7.4h.17a4.2 4.2 0 0 0-.16 4.4c-1.7 1.83-4.71 2.76-6.71 1zM617.8 515.6a1.76 1.76 0 0 0 .2-3.5c-2.2-.1-4.6-.2-6.5 1-2.5 1.5-2.5 4.6-1.9 7.2a2.7 2.7 0 0 0 1.8 1.8c1.4.3 3.5.2 4.5 1.3 2.6 2.6 6.7-1.5 4-4a9.1 9.1 0 0 0-5.9-2.16 1.36 1.36 0 0 1 0-.24 2.57 2.57 0 0 1 .2-.5c1-.8 2.5-.8 3.6-.9zM643.4 501.7c1.4-.1 1.9-2.4.4-2.6a4.77 4.77 0 0 1-.6-.13 4.92 4.92 0 0 0 2.3-2.37c1.3-2.8-.2-6.3-3.6-6.3a5.45 5.45 0 0 0-4.18-2.8 2.58 2.58 0 0 0-2.4 1.8c-1.72 5.7 1.48 12.7 8.08 12.4zM609.4 443.3a30.17 30.17 0 0 0 5.71 2 18.71 18.71 0 0 0 .59 4.74 2.57 2.57 0 0 0 3.2 1.8 6.75 6.75 0 0 0 1.66-.92h.24a1.47 1.47 0 0 0 1.61-1.92 9.36 9.36 0 0 0 .65-1.06c2.47 1.21 4.34 2.86 4.74 5.38.7 4.6 7.9 2.7 7-1.9-1.19-6.25-6.11-8.64-11.52-10.27a5.63 5.63 0 0 0-1.08-1.33c-2.4-2.2-8.9-2.8-12-2.3-2.7.48-3.1 4.58-.8 5.78zM644.9 457.6c1.7 0 2-.2 3.4.9a5.89 5.89 0 0 0 3.6 1.1c2.6 0 4.2-1.6 5.6-3.6 2.2-3.1 5.3-7.3 5.4-11.2.1-3.4-5.5-4.3-6.1-.8-.4 2.1-2 4.2-3 6-.6.9-1.2 1.8-1.7 2.7a2 2 0 0 1-.15.22 6.08 6.08 0 0 0-1-.62 9.42 9.42 0 0 0-3.67-1.23l.47-.47a11.4 11.4 0 0 1 .95-.91.79.79 0 0 0 1.25.21c.3-.3.7-.5 1-.8.5-.4.9-1.3.2-1.8a7.66 7.66 0 0 0-10 1.1c-3.15 3.4-1.35 9.1 3.75 9.2zm6.83-4.44c-.16.1-.19 0 0 0z"/><path class="cls-1" d="M653.5 436.1a8.33 8.33 0 0 0 2.2-.3c.28-.09.54-.11.74-.18 1.66 1.45 2.73 4 4.16 5.58 2.8 3.2 7.9-1.7 4.7-4.7-1.8-1.7-3.1-4-5.2-5.5a5 5 0 0 0-3.3-1 6.16 6.16 0 0 0-1.31.36c.17-.29.33-.58.51-.86 1.6-2.5-2.4-4.8-4.1-2.3-.9 1.4-1.8 2.8-2.6 4.3a2.42 2.42 0 0 0 .4 2.9 6 6 0 0 0 3.8 1.7zM661.6 462.6a6.43 6.43 0 0 0-1.08 3.74 4 4 0 0 0-.52 2.16c.1 1.8 2 3.8 4 3 .36-.18.72-.29 1.08-.45a3.11 3.11 0 0 0 3.92.55 3.21 3.21 0 0 0 1.1-4.4 5.29 5.29 0 0 0-4.41-3.09 12.87 12.87 0 0 1 1.61-1.41l.23-.11a1 1 0 0 1 .07.41 1.33 1.33 0 0 0 2.6-.2 2.88 2.88 0 0 0-3.6-3.2 8.94 8.94 0 0 0-5 3zm6.1 0c-.07.13-.09 0-.09 0s.09-.04.09 0zM678 485.74a5.63 5.63 0 0 0 .92.36 9.61 9.61 0 0 0 4.31.05 2.06 2.06 0 0 0-.21 1 5.61 5.61 0 0 0 3.78 4.73c1.59 2.19 4.7 2.84 7.72 2.77 4.3-.1 4.3-6.8 0-6.7h-.63a2.32 2.32 0 0 0-.77-1.4 4.93 4.93 0 0 0-4.14-1.21 2.47 2.47 0 0 0-1-.86c1.58-1.95.54-6-2.52-5.64-1.12.17-2.3.41-3.43.6a3.7 3.7 0 0 0-1.88-2.56c.5-1.62-1.53-3.8-3.29-2.54-1.6 1.2-3.5 1.8-4.8 3.2a5.12 5.12 0 0 0-.6 6.1 4.82 4.82 0 0 0 6.54 2.1zm-2.29-5.26l-.07.08zm-.18.12v.1c-.14 0-.12-.04-.03-.1zM692.29 502.18a2.53 2.53 0 0 0-3-2.68l-1.3.3a2.46 2.46 0 0 0-1.8 2.4c.3 4.3 4.6 5.7 8.3 5.2a2.72 2.72 0 0 0 2.6-2.6 2.65 2.65 0 0 0-2.6-2.6 6.6 6.6 0 0 1-1.4.1 2.2 2.2 0 0 1-.8-.1c.29.06.17.02 0-.02zm-1-.4zM696 519.3a7.72 7.72 0 0 0 2.57 1.64 9 9 0 0 0 .43 2.66 3.54 3.54 0 0 0 3.3 2.5c3-.1 5.1-1.7 7.5-3.3 3.6-2.4.4-8.2-3.5-5.9-.14.08-.3.18-.46.29a3.27 3.27 0 0 0-2.88-2.06c.69-.87 1.41-1.71 2.15-2.53a2.41 2.41 0 0 0-3.3-3.5 33.4 33.4 0 0 0-6.3 6.7 2.89 2.89 0 0 0 .49 3.5zM683.39 461.18a6.71 6.71 0 0 0 3.91 3.12 4.7 4.7 0 0 0 3.7-.3 7.91 7.91 0 0 0 3.4.78c3.58.19 4.43-5.31 1.23-6.39a3.26 3.26 0 0 0-1.2-3.32c.06-.1.12-.18.18-.29.7-1.7-1.6-3.8-2.9-2.2a3.83 3.83 0 0 0-.33.48 5.15 5.15 0 0 0-1-2.28 4.37 4.37 0 0 0-5-1.4c-2 .66-2.91 2.39-3.26 4.32a4.76 4.76 0 0 0-1.12 3.4 5.12 5.12 0 0 0 2.39 4.08zM692.7 467.1c-3.3 3.8-6 11.1.6 13.4a6.51 6.51 0 0 0 5.08-.3c3.41 4.76 9.49 5.69 15.62 1.9 3.5-2.1.4-7.3-3.2-5.5-4.8 2.5-7.7 1.8-9.1-3.7-.9-3.7-6.4-2.1-5.7 1.6.3 1.2-1.1.7-1.5.2-.8-1.1 1-3.2 1.7-4.1 2-2.5-1.4-6-3.5-3.5zM698.41 446.57a5.16 5.16 0 0 0 1.89 2.23 4.77 4.77 0 0 0 1.08.55 3.83 3.83 0 0 0 .12.55c.7 2.1 3.8 2.8 5 .7.8-1.4 1.5-2.9 2.4-4.2a2.58 2.58 0 0 0 0-2.18 6.46 6.46 0 0 0 .2-.92 6.77 6.77 0 0 0-1.74-5.44A13.56 13.56 0 0 0 707 436c2.94-1.88 2.36-7.32-1.75-6.89l-2.6.3a3.93 3.93 0 0 0-3.8 3.8 6.68 6.68 0 0 0 .14 1.76 8.59 8.59 0 0 0-5.54 3.44 3.75 3.75 0 0 0 0 3.7 7.87 7.87 0 0 0 4.96 4.46zM715.5 423v-.05a4 4 0 0 0 3.17-1.85l.3-.3.8.7a16.38 16.38 0 0 0 3.2 2.7c3.5 1.9 7.2.2 9-3.1 1.6-2.9-1.9-7.2-4.9-4.9a3.87 3.87 0 0 1-.81.6 4.47 4.47 0 0 1-.69-.7 11 11 0 0 0-3.6-2.8 6.91 6.91 0 0 0-4.7-.6 4.21 4.21 0 0 0-1 .39 3.06 3.06 0 0 0-3.47-1.29 5.58 5.58 0 0 0-3.62 7c-1.73.46-2.12 2.92-1 4.23 2.12 2.37 5.42 2.87 7.32-.03zM738.7 423.6c2.8-.8 2.9.7 3.8 3.1a7.28 7.28 0 0 0 3.2 4.1c1.6.9 3.3.6 5 1.3 2 .8 3.5 2.3 5.8 2.8 4.7 1.2 6.6-6.2 2-7.1-2.4-.4-4.2-2.1-6.6-2.6-1.8-.4-2.6.2-3.8-1.7-.6-.9-.8-1.9-1.4-2.8-2.4-3.5-5.7-4-9.5-2.7-3.5 1.3-2.1 6.6 1.5 5.6zM730.3 441.6c-4.2.1-9.5 2.4-10.8 6.7-1.4 4.6 6.1 6.6 7.2 2 .14-.52.94-1 1.86-1.29a3 3 0 0 0 5-.21c.6-1 .9-2.1 1.4-3.1s.9-3.1 2-2.2c1.5 1.2 1.4 6 2.2 7.8.8 2.4 4.6 1.5 3.7-1-1.4-3.9-.7-9.9-5.4-11.7-3.11-1.17-4.88.82-6.39 3.1a3.37 3.37 0 0 0-.77-.1zM741 470c-1.9-3-4.9-6.4-8.7-6.6a6.44 6.44 0 0 0-2.63.41 3.2 3.2 0 0 0-4.37-.21c-.3.2-.6.5-.9.7a3.08 3.08 0 0 0 .11 4.46 2.57 2.57 0 0 1-.11.64c-.1.3-.1.8-.2 1.1-.6 3.4 4 5.9 5.9 2.5a13.79 13.79 0 0 1 1.7-2.5c-.1.1-.7-.3 0 0a12.8 12.8 0 0 1 3.13 3.22 6.33 6.33 0 0 0-1.93-.22 5.27 5.27 0 0 0-4.5 3.2 5.7 5.7 0 0 0-.38 1.13 4 4 0 0 0-4.12 3.57 4.17 4.17 0 0 0 2.86 4.18l.14.12a3.53 3.53 0 0 0 5.4-.7 10.31 10.31 0 0 0 1.3-4.2 8.79 8.79 0 0 1 .35-1.88.71.71 0 0 1 .45.18c1.9 2.5 2.8 5.5 6.6 5.4 2.8.1 2.8-4.3-.2-4.5-1.1-.1-1.9-3-2.5-3.8a6.17 6.17 0 0 0-.61-.76c2.37-.09 4.75-2.95 3.21-5.44zm-16.14-.92l-.14-.13.14.13zM725.6 511.7l.28-.25a7 7 0 0 0 .72.45l.31.25c0 3.14 3.44 5.95 6.39 5.85a2.7 2.7 0 0 0 2.65-2.45 6.85 6.85 0 0 0 3.35-3c1.9-3.3-3-7.4-5.5-4.2l-.16.15c-.23-.2-1-.86-1.14-.95l-.34-.28v-.72c.25-1.81-2.07-2.46-3.07-1.53l-.43-.27a7.64 7.64 0 0 0-1.46-.59 16.54 16.54 0 0 1 .92-1.6 4.68 4.68 0 0 0 2.14.4c2.4 0 4.3-1.5 6.6-2 2.8-.5 2.3-4.9-.5-4.6a21.06 21.06 0 0 0-3.6.9c-.27.07-.79.13-1.21.23 0-2.66-3.23-3.4-5-1.93-3.7 3-7 8.7-6.9 13.6a3.51 3.51 0 0 0 5.95 2.54zM753.5 502.7a2.64 2.64 0 0 0-4.8 2 24.16 24.16 0 0 0 2 5.9 2.3 2.3 0 0 0 3.8.57 28 28 0 0 0 8.2 4c3.7 1.2 5.2-4.5 1.6-5.8-4.1-1.37-8.1-3.07-10.8-6.67zM774 513.8v-.6a11.12 11.12 0 0 0 1-.6 2.15 2.15 0 0 0-1.26-4 1.79 1.79 0 0 0-1.14-.6 1.85 1.85 0 0 0-2 1.3 4.34 4.34 0 0 0 .21 3.15c0 .42.06.84.09 1.25a1.55 1.55 0 1 0 3.1.1zM776.6 525a2.84 2.84 0 0 0-1.9-3.4 3.19 3.19 0 0 0-2.47.5 2.32 2.32 0 0 0-.63-.3 2.62 2.62 0 0 0-3.1 1.8 7.33 7.33 0 0 0 .1 4.4 2.76 2.76 0 0 0 1.2 1.6 3 3 0 0 0 2.1.3c2.5-.3 4.2-2.5 4.7-4.9zm-5.78-.36zm0 0zm.13-.13l-.1.1.13-.15zm.1-.1zM764.75 480.88a4.16 4.16 0 0 0 .51.88 3.88 3.88 0 0 1 .29.92c.8 2.2 4.4 2.7 4.9 0 .9-4.3 3.2.6 5.6 1.3a6.42 6.42 0 0 0 4.49-.55c.06.32.13.63.21.95a2.69 2.69 0 0 0 4.5 1.2 2.44 2.44 0 0 0 1.3-1.3 7.1 7.1 0 0 1 1.3-2.2 2.12 2.12 0 0 0-.65-2.94 5.48 5.48 0 0 0-.23-.74 4.59 4.59 0 0 0-2.42-3.52 2.44 2.44 0 0 0-3.44 1.08 12.41 12.41 0 0 1-2.11 1.14c-2 .8-.4.6-1.6 0-1.8-.9-2.4-2.1-4.7-2.2a5.94 5.94 0 0 0-4.75 2.18 2.67 2.67 0 0 0-3.2 3.8zM795.8 467.6a5.67 5.67 0 0 0 3-1.09 2.62 2.62 0 0 0 2.82-1.11 2.71 2.71 0 0 0 2-2c1.1-7.3-11-9.4-12.9-2.5a5.21 5.21 0 0 0 5.08 6.7zM808.58 468.07v.13c.2 1.2.8 2.5.9 3.6a3.33 3.33 0 0 0 3.3 3.3 3.4 3.4 0 0 0 3.3-3.3 11 11 0 0 0-.8-4l-.21-.58a2.66 2.66 0 0 0 .16-2.55c.27-2.23-2.73-4-4.65-2.77a11 11 0 0 0-2.3 2 2.83 2.83 0 0 0 .3 4.17zM811.3 488.4a33.63 33.63 0 0 0-5.86-4.7 5.94 5.94 0 0 0-1.54-4.4c-4.1-4.6-12.3-1.7-12.6 4.4a3.63 3.63 0 0 0 2.7 3.5 6.86 6.86 0 0 0 3.9-.3c2.14 1.79 4.17 1.68 5.59.62a29.83 29.83 0 0 1 4.91 3.58c2.1 1.7 4.8-.9 2.9-2.7zM812.3 503.8a4.65 4.65 0 0 0 .3 5.7c1.4 1.5 3.7 1.7 5.6 1.3a3.07 3.07 0 0 0 2.1-3.7 3.52 3.52 0 0 0-.77-1.27c.23-.11.45-.21.67-.33a2.43 2.43 0 0 0 1-2.9c-.5-1.1-1.8-2-2.9-1.5-1.9.8-4.8.8-6 2.7zm4.1 3.5a.42.42 0 0 1 .14-.09l-.24.19zM893.25 518.67a8.91 8.91 0 0 0 5.35 3.33c3.8.9 8.5.3 11.4-2.5a3.44 3.44 0 0 0 .43-4.64 2.55 2.55 0 0 0 1.87-.66 34.28 34.28 0 0 1 6.44-3.9c6.76 3.55 15.05-4.56 18.36-9.8 1.8-3-2.6-6.6-4.9-3.8-1.5 1.7-2.8 3.5-4.4 5.1a13.77 13.77 0 0 1-3 2.4l-.75.34c.09-.24.17-.48.25-.74a2.82 2.82 0 0 0-1.3-3.1c-4.69-2.88-9 1.75-7.67 5.88-2.26 1.37-5 2.37-6.83 4a2 2 0 0 0-.59 2.55 3.37 3.37 0 0 0-3.21 1c-.2.2-.3.3-1.2.5a8.42 8.42 0 0 1-2.7.4 9.35 9.35 0 0 1-2-.11 5 5 0 0 0-1.53-2.59 2.89 2.89 0 0 0-4.7 1.2c-.06.15-.09.3-.13.45a4.27 4.27 0 0 0-.67 2.55 2.31 2.31 0 0 0 1.48 2.14zM1199.55 566.3c-1.91-2.19-5.14-3.55-7.95-2.8a3.36 3.36 0 0 0-2.29 2.46c-6.31.88-12.31 3.54-18.11 6.44-3.9 1.9-.5 7.5 3.4 5.8 4.6-2 9.3-4.06 14.2-4.94a3.85 3.85 0 0 0 2.2 1.74 9.54 9.54 0 0 0 4.16 4.52c3.27 1.49 6.24-.07 7.86-2.65.27.06.55.11.84.15a3.64 3.64 0 0 0 4.3-2.4c1.84-5.16-4.33-7.39-8.61-8.32zM894.9 570.2c-.52.22-1 .42-1.47.58-.31-.76-.58-1.52-.83-2.28a3.38 3.38 0 0 0-6.54.36l-.25-.11a9.46 9.46 0 0 0-5.11-2.15 2.85 2.85 0 0 0-2.5 1.4c-1.4 3.1-1.5 7.5 2.4 8.8a4.2 4.2 0 0 0 4.55-1.07 8.53 8.53 0 0 0 3.64.75c2.8.45 5.16-.73 7.51-2.18s.9-5.1-1.4-4.1zM877.1 546.7c2.2 1.3 5.4 1 7.9 1s5.2 0 7-1.7c2.1-2 2.1-5.3 1.2-7.9a8.78 8.78 0 0 0-2.56-3.83 1.23 1.23 0 0 0-1-.75 9 9 0 0 0-11.14 1 2.39 2.39 0 0 0-.81 2 9.3 9.3 0 0 0-2.39 4.19c-.6 2.29-.4 4.69 1.8 5.99zm2.6-7.4a5 5 0 0 1 .31-.45 2.59 2.59 0 0 0 2.19-.65c2.6-2.2 6.3-.1 6.5 3 .2 2.6-3.7 1.8-5.5 1.8-1 0-3.2.4-4-.2s-.1-2.5.5-3.5zM907 542.6c4.5-1.2 8.3-3.9 10.1-8.3a2.72 2.72 0 0 0-1.9-3.4c-3.5-.9-7.1-.6-10.7-.8a2.71 2.71 0 0 0-2.1.76c-4.84-.12-9.94 6.31-5.9 10.34 2.6 2.6 7.2 2.3 10.5 1.4zm-5.57-9.14a2.86 2.86 0 0 0 3.07 3c1.57-.1 3.21-.31 4.86-.42a12.7 12.7 0 0 1-3 1.62c-1.7.7-4.7 1.6-6.5.6-2.12-1.08-.31-3.73 1.57-4.8zM938 541.8a11.53 11.53 0 0 0-3.08-.58 6.37 6.37 0 0 1 2.48-.52c1.5 0 1.8-2.3.4-2.6-2.68-.55-6.5.84-7.81 3.29h-.09a2.4 2.4 0 0 0 0 4.8h.89a6.44 6.44 0 0 0 4.31 2.06c2.7.2 4.4-1.7 4.6-4.2a2.37 2.37 0 0 0-1.7-2.25zM490 623.34h.41c2.2-.1 4-.3 5.5-2.1 1-1.2-.7-3-1.8-1.8-1 1-2.5 1.16-4.08 1.16-.42-2.33-2.07-4.13-5.52-4.16-3.1 0-3.1 4.8 0 4.8a.84.84 0 0 1 .37.08 15.72 15.72 0 0 0-5.88 4.78 2 2 0 0 0-.3 2.4c4.71 6.23 10.37.37 11.3-5.16zm-5.28 2.05a2.64 2.64 0 0 1-1.17 1.16 9.55 9.55 0 0 1 1.16-1.16zM497.1 605.9c-1.7.7-6.5 3-6.3 5.5a1.21 1.21 0 0 0 1.65 1 2.12 2.12 0 0 0 .35 1.6c2 3.2 5.7 4.4 8.7 1.6 2-1.9 3.4-5.2 2.6-7.9-1-3.3-4.5-2.9-7-1.8zm2.1 6.2c-1.1 1.2-1.5.9-2.3-.5a2.31 2.31 0 0 0-3.06-.86 6.54 6.54 0 0 1 .56-.44 25.43 25.43 0 0 1 2.8-1.6 7.71 7.71 0 0 1 2.6-.7c.7 0 .9-.1 1 .4.4 1.1-.9 3-1.6 3.7zM528.17 602.5a3.58 3.58 0 0 0-2.37-1.2 3.68 3.68 0 0 0-3.42 1.37 2.17 2.17 0 0 0-.58.63 4.25 4.25 0 0 0-.39.9c-.41 0-1 .3-1.41.3a2.16 2.16 0 0 1-2.5-1.2c-.5-2.1-3.8-1.2-3.3 1 .7 3.2 3.9 4.5 6.9 4.3a8.27 8.27 0 0 0 1.87-.37 3.64 3.64 0 0 0 3.05.23 6.76 6.76 0 0 0 2.68-.26c3.3-.99 2.37-5.25-.53-5.7zM540.78 595.92a3.42 3.42 0 0 0 .32 1.88c.9 2 3.8 2 5.6 1.5a3 3 0 0 0 1.7-1.2 3.46 3.46 0 0 0 .7-2 5.77 5.77 0 0 0-1.5-4.5 7.06 7.06 0 0 0-4.6-1.9 3.74 3.74 0 0 0-2.5 1 3.32 3.32 0 0 0-1 2.5 4.23 4.23 0 0 0 1.28 2.72zM549 558.6c3.5 0 3.5-5.5 0-5.5s-3.6 5.5 0 5.5zM39 500.8c2.42-.56 3.64-2.15 5.49-3.34a7.87 7.87 0 0 0 1 .54 3.32 3.32 0 0 0 4.62-1.73 4 4 0 0 0 .38-.17c2.2-1.4 2.7-3.6 4-5.7 2.66-4.33-4-8.26-6.76-4.18A6.29 6.29 0 0 0 44 487.7c-.2.16-.38.33-.56.5h-.14c-4.3.2-9.3 2-11.7 5.8a3.78 3.78 0 0 0 .6 4.6c1.9 1.7 4.2 2.8 6.8 2.2zM56.16 497.8a5.79 5.79 0 0 0 4.14 5.3 4.62 4.62 0 0 0 5.4-3.2 10.07 10.07 0 0 0-.2-5.7 2.6 2.6 0 0 0-1.5-1.78 3 3 0 0 0-2.6-1.09 1.78 1.78 0 0 0-2.5-.33c-1 .7-1.9 1.3-2.9 1.9a2.37 2.37 0 0 0-1.1 1.9 4.61 4.61 0 0 0 1.26 3zM39.34 478.43a4.44 4.44 0 0 0 1.36 1.47 5.28 5.28 0 0 0 2.77.76 2.41 2.41 0 0 0 2.33.74 2.21 2.21 0 0 0 1.4-2.7A4.38 4.38 0 0 0 45 472a6.47 6.47 0 0 0-6.2 1.7 3 3 0 0 0-.8 3 2.92 2.92 0 0 0 1.34 1.73zM61.55 485.09a3.68 3.68 0 0 0 .45 1.61c1.2 2.1 4.3 2.1 6.3 1.8a3.09 3.09 0 0 0 2.31-3l.09-.11a3.69 3.69 0 0 0-1-4.5 4.66 4.66 0 0 0-4.87-.78 2.23 2.23 0 0 0-2.73 1.58 5.14 5.14 0 0 0-.7 3 2.39 2.39 0 0 0 .15.4zM96.9 498c4.07-.69 3.11-7.09-.91-7.19a2.6 2.6 0 0 0-.29-3.11 5.42 5.42 0 0 0-7.6-.54 5.1 5.1 0 0 0-4.8 1.64 3.65 3.65 0 0 0-.6 4.3c3 4.1 9.3 5.7 14.2 4.9z"/><path class="cls-1" d="M111.9 483.9c-.7-1.2-2.7-2-3.9-1a16 16 0 0 1-4.4 2 10.25 10.25 0 0 0-4.7 3.5 2.62 2.62 0 0 0 0 2.7c.2.5.5 1 .7 1.5 1.3 2.8 6.1.8 4.9-2 1.89-1.2 4.49-1.42 6.41-2.78a3 3 0 0 0 .99-3.92zM143.3 503.9c-3.1 3.9-3.3 8.1-3 12.8a4 4 0 0 0 2.8 3.7c4.3 1.2 9.2 4.9 13.8 2.4 3.1-1.7 4.4-6.1 6.1-9 5.4-8.9-3.7-19-13.1-17.9a4.79 4.79 0 0 0-4.14 5.57 13 13 0 0 0-2.46 2.43zm9.67.89a3.93 3.93 0 0 1 2.53 2c1.3 2.3-.6 3.6-1.6 5.7a10.65 10.65 0 0 0-1.2 2.7 3.48 3.48 0 0 1-.7-.19 20.82 20.82 0 0 0-5.18-1.86c-.65-3.68 2.64-7.49 6.18-8.35zM107.1 426.7a9 9 0 0 1 6.2.7 16.14 16.14 0 0 0 8.9 1.4 30.62 30.62 0 0 0 8.7-3.3c3.6-1.8 6.3-2.2 10.3-2.5 5.6-.3 9.4-4.5 11.1-9.7 3.5-10.7-4-19.6-13.9-22.8-10.3-3.4-24.4-.2-29.4 10.2a4.7 4.7 0 0 0-.45 1.54c-4.39-.26-8.15-.26-11 3.66-3.6 4.9-1.8 10.5.3 15.7a9 9 0 0 0 9.25 5.1zm-5.9-16.8c1.4-4.1 4.8-3.5 8.3-3.6a2 2 0 0 0 .95-.22 4 4 0 0 0 5.55-1.28c4.6-6.6 12.4-9.1 20.2-6.6 3.4 1.1 7.2 3.4 8.6 6.8a9 9 0 0 1-.4 7c-1.3 3-2.9 3.4-5.9 3.5-5 .2-8.5 2.3-12.9 4.4-3.3 1.6-5.8 2.4-9.4 1-1.8-.7-3.4-1.7-5.4-1.8-3.8-.3-5.3 2.1-7.6-1.4-1.6-2.4-3-5-2-7.8z"/><path class="cls-1" d="M118 410.3a3.69 3.69 0 0 0 1 2.4 3 3 0 0 0 2.8.9 3.23 3.23 0 0 0 2.8-2.88 1.72 1.72 0 0 0 .9-.42 1.69 1.69 0 0 0 .6-2.4 7.7 7.7 0 0 0-.61-.79 2.81 2.81 0 0 0-.69-3 3 3 0 0 0-4.3 0c-.12.1-.23.21-.34.31l.09-.06-.11.07.07-.06-.13.11h-.07a4.22 4.22 0 0 0-1 .48 2.76 2.76 0 0 0-1 3.68 6.79 6.79 0 0 0-.01 1.66zm3.32-.39zM178 595.8c2 0 3.1.8 5.2.1a10.82 10.82 0 0 0 4.3-2.7c5.1-5.2 4.9-14 .8-19.7-4.7-6.5-14-8.8-21.7-8.1a3.88 3.88 0 0 0-3.82 3.95 6.51 6.51 0 0 0-6.28-.85c-6.27 2.69-5.31 10.81-.88 14.63-.51 6.73 1.92 12.89 9.18 14.87 5.1 1.4 8.4-2.2 13.2-2.2zm-16.5-19.2c-.15 1.12-.41 2.09-.51 3a3.56 3.56 0 0 0-1.39-.88c-2-.7-3.3-3.2-2-5.1 2.1-3.22 4.2.58 3.9 2.98zm.45 6.22a6.66 6.66 0 0 0 .85.78c.9.7 2.3-.5 1.4-1.5-2.2-2.37 1.1-6 .84-9.22a4.74 4.74 0 0 0 1.56.42c4.5.4 9.4-.3 13.4 2.5 3.4 2.4 5.9 8.8 2.3 12.3-1.7 1.6-3 .3-5.1.3-2.7-.1-4.4 1.5-6.7 2.4-6.99 2.61-8.25-2.86-8.5-7.98z"/><path class="cls-1" d="M170.7 581.8c0-.1.1-.2.1-.3v-.14l.2-.36a8.34 8.34 0 0 1 .8-1.2 2.85 2.85 0 0 0 .3-2 2.81 2.81 0 0 0-1-1.4 2.42 2.42 0 0 0-3.5.1c-.17.17-.33.35-.49.53a2.93 2.93 0 0 0-2.21 3 3.4 3.4 0 0 0 .1 1 2.92 2.92 0 0 0 2.5 2.9 2.88 2.88 0 0 0 3.2-2.13zM337.1 636c-5-2.7-11.7-6.4-17.4-3.5-2.7 1.4-4 3.8-6 5.9s-4.4 2.6-6.7 4.3c-4.3 3.2-2.2 8.4-1 12.8 1.3 4.8 4.4 8.3 9.5 9 6.9 1 11-3.5 17.1-5.5 5.88-1.87 17-.34 17.65-8l.75.68c1.9 1.6 4.5-.9 2.8-2.7A62.13 62.13 0 0 0 337.1 636zm5.7 13.8c.09.37-10 1.59-12.92 2.33a2.34 2.34 0 0 0 0-.33 3 3 0 0 0-2.9-2.9h-3a2.9 2.9 0 0 0 0 5.8h.78a16.83 16.83 0 0 1-6.08 2.5c-5 .7-5.3-2.6-6.2-6.5-.3-1.4-.8-2.2-.5-2.6.8-.9 3.2-1.5 4.2-2.2 3-2.2 4.8-7.1 8.6-7.3 2.2-.1 4.2 1 6.2 1.6a39.15 39.15 0 0 1 7.5 2.6 46.38 46.38 0 0 1 5.61 3.35 3.8 3.8 0 0 0-1.29 3.65zM124.5 648.9a46.1 46.1 0 0 0-19.43 1.56c-6.59-4.61-16.58-.95-20 6.54-4.3 9.4 9.4 15.4 16.6 14.5 2.6-.3 4.8-1.4 7.3-2 3.4-.8 6.2 1.5 9.4 1.9 5.6.8 11-2.7 14.5-6.8 2.6-3.1 4.9-7.3 2.2-11-2.27-3.3-6.87-4.2-10.57-4.7zm3.3 11.8c-1.7 1.9-4.2 4-6.8 4.4-4 .6-7.5-2.6-11.6-2.2-4.9.5-9 4.2-14.1 2-3.4-1.4-7.5-4.3-5.3-8.2a10.28 10.28 0 0 1 11.28-4.9 33.4 33.4 0 0 0-8.28 4.8c-3.9 3.2 1.7 9 5.6 5.6 4.26-3.69 11.14-5.76 17.22-6.39-1.74 1-1.36 4.29 1.18 4.29s3-3.66.85-4.44c.63 0 1.25-.05 1.85-.05 2.6 0 5.9 0 8.4 1.1s1.5 1.89-.3 3.99zM274.7 616.22a3.18 3.18 0 0 0-3.2-2.32 3.22 3.22 0 0 0-3.32 2.82c-3.12.49-6.15 1.49-8 3.67a5.94 5.94 0 0 0-4 2c-2.4 2.8-1.1 6.9-3 9.7-.9 1.4-2.8 2.2-3.9 3.6a11.29 11.29 0 0 0-2.4 5.2c-1.1 7.6 6.8 14 13.5 15.4 8.32 1.7 16.31-2.85 21.56-9 13.61 2.94 17-17.56 9.14-26.22-4.08-4.4-10.57-4.98-16.38-4.85zm-4.22 4.43h.06a4.74 4.74 0 0 1-.24.5c.06-.15.12-.32.18-.5zm-4 4.31c0 .13 0 .24-.05.32.03-.1.05-.2.06-.28zm21.42 10.84c-.4 4.2-2.3 5.8-6.4 4.4a3.63 3.63 0 0 0-3.9 1.6c-4.3 6.2-12.8 11.2-20.1 6.8-2.4-1.5-5.5-4.3-4.7-7.4.6-2.5 3.5-3.9 4.6-6.2 1-2 1-4.3 1.1-6.4 0-.69 0-1.39.11-2 1.2 3.32 7 3 7.8-1a2.77 2.77 0 0 1 .8-.42 4.86 4.86 0 0 1 .51-.18l.25-.07c.49-.13 1-.22 1.45-.35a29.22 29.22 0 0 1 5.1-.4c3.2-.1 7.6-.5 10.3 1.5 2.88 2.02 3.38 6.82 3.08 10.12z"/><path class="cls-1" d="M267.4 629c-.37.22-.76.5-1.18.75a2.5 2.5 0 0 0-1.72 1.55 2.79 2.79 0 0 0 .6 3 2.68 2.68 0 0 0 2.7.7 2.62 2.62 0 0 0 1.84-1.81 9 9 0 0 1 .76-1.19c1.1-1.9-1.2-4.2-3-3zM538.7 523.5c-2.26-2.42-8.67-5.33-13.8-5.69-3-1.94-7-3-10.1-1.81l-.29.13c-2.77-1.61-6.34-2.84-8.71-1.93-4.6 1.9-8.4 8.7-7.5 13.5 1.2 5.8 6.4 8.3 11.7 6.5l.52.11.08.09a3.48 3.48 0 0 0 .16 1 3.26 3.26 0 0 0-4.66 1c-.07.13-.12.27-.18.4a2.42 2.42 0 0 0-3 1.8c-.9 5.2-2.8 9.8-1.6 15.2.5 2.3 3.5 2.8 5.1 1.3a10.65 10.65 0 0 0 3-6 3.41 3.41 0 0 0 3.88.35c1.5-.8 2.9-1.7 4.4-2.6a3.49 3.49 0 0 0 .46-5.6c.44.11.88.21 1.34.3 5.8 1.1 10.6-1.3 14.9-5 3.6-3.15 8.5-8.55 4.3-13.05zm-31.8 4c-1 .7-1.5.3-1.4-1.2a2.34 2.34 0 0 1-.35-.54h.05a22.26 22.26 0 0 0 3.56 1.67 9.23 9.23 0 0 1-1.86.07zm1.8-7.6l-.24-.09a5.3 5.3 0 0 1 3.54.19 3.77 3.77 0 0 0 .29 1.46 15 15 0 0 1-3.59-1.56zm5.5 20.9l-.15.09a14.52 14.52 0 0 0-.65-1.9 10.44 10.44 0 0 0 2.18 1.31 3.65 3.65 0 0 0-1.38.5zm9.3-6.8a5.16 5.16 0 0 1-6-2.5 13 13 0 0 0-2.1-3.1 6.44 6.44 0 0 0-.55-.41 11.18 11.18 0 0 0 2-.59 4.35 4.35 0 0 0 1.64-1.21 4.54 4.54 0 0 0 3.51 2.11 5.67 5.67 0 0 0 5.29-2.17 13.91 13.91 0 0 1 4.31 2c-1.92 2.67-5.37 5.31-8.1 5.87zM433.62 485.61a4.2 4.2 0 0 1 1.08 2.69 1.8 1.8 0 0 0 3.6 0 11.18 11.18 0 0 0 0-1.61h.06c6.9.9 18.1 1.2 21.6-6.4s-5.6-14.4-11.1-17.7c-4-2.4-7.8-2.4-12.2-1.6-2.8.5-5.6 1.1-8.5.6s-5.8-1.7-8.7-2.5c-1.5-.4-3.7.5-3.9 2.2-.9 5.4-1.4 12.1 1.8 16.9a10.78 10.78 0 0 0 6.3 4.3c2 .57 4.78.72 7.06 1.45a9.76 9.76 0 0 0 2.9 1.67zm-5.51-7.61c-3.07-.85-5.55-1.55-6.51-5.21a19.33 19.33 0 0 1-.37-6.48c3.68 1.23 7.32 2.39 11.37 2.08 2.4-.2 4.6-.8 7-1 3.3-.3 5.3.7 7.8 2.8a35.68 35.68 0 0 1 5 4.5c2.4 3-.5 4.2-3.3 4.7a29.72 29.72 0 0 1-7.3 0c-1.1-.1-2.2-.2-3.3-.4a6 6 0 0 1-1.9-.6v-.06a2.49 2.49 0 0 0 3-.31 2.38 2.38 0 0 0 0-3.4c-.3-.3-.6-.7-.9-1-.1-.2-.3-.3-.4-.5l-.06-.06v.06-.11c0-.12-.09-.23-.12-.33s0-.27 0-.34a1.77 1.77 0 0 0-.15-.42 1.44 1.44 0 0 0-2.34-1.18 2.26 2.26 0 0 0-1.61 1.1 6 6 0 0 0-.27.7 3.45 3.45 0 0 0-2 .6 7.2 7.2 0 0 0-3.64 4.86z"/><path class="cls-1" d="M438.2 473c.02 0 0-.1 0 0zM1084.34 353.49a7 7 0 0 0 1.65 1.42c.16.13.33.24.5.36a3.09 3.09 0 0 0-1.19 5l.1.1c4.62 5.18 10.54 11.41 17.52 13.7l.88.6a2.14 2.14 0 0 0 1.84.34 7 7 0 0 0 4 .86c3.62-.33 5.33-3 6-6.24a4.3 4.3 0 0 0 3.33 1.54 7.58 7.58 0 0 0 1.86-.3 12.62 12.62 0 0 0-5.26 6.7c-1.7 6.2 8.1 8.8 9.5 2.6.5-2.1 5.3-4.1 7.1-5.2 1.37-.86 2.78-1.68 4.19-2.49a19.1 19.1 0 0 0 9.31-5.11 3.82 3.82 0 0 0 1.15-4.43 6 6 0 0 0 1.75-2.07 3 3 0 0 0-2.62-4.44 34.12 34.12 0 0 0 .12-4.26 3.59 3.59 0 0 0-2.3-3.1c-2-.8-4.2.2-5.9 1.2-.9.6-1.8 1.3-2.7 2-.3.2-.6.5-.9.7-.07.07-.51.42-.64.53a3.47 3.47 0 0 0-1.42 2.8 5 5 0 0 0-3-.43 11.51 11.51 0 0 0-4.83 2.22 4.89 4.89 0 0 0-.37-.82 6.09 6.09 0 0 0-4.81-2.73c.38-.79.75-1.68 1.15-2.49 3 .54 4.67-4.3 1.77-6-.5-.3-1-.6-1.4-.8-1.1-.6-3.1-.6-4 .5a14.41 14.41 0 0 0-1.88 3.18 10.73 10.73 0 0 0-.72-2.38c-1-2.2-4.1-1.3-4.8.6a9 9 0 0 0-.4 4c0 1.2.3 2.3-.7 3.3a2.31 2.31 0 0 0-.35 3.1 3.64 3.64 0 0 0-.25.4 34.43 34.43 0 0 0-1.55 3.58 23.44 23.44 0 0 0-4.35-4c-3.15-2.23-6.13 1.48-5.43 4.5-1.58-1.36-3.07-2.82-4.44-4.19a3.51 3.51 0 0 0 3.57-2.62 9.15 9.15 0 0 0 .18-2.26 8.49 8.49 0 0 0 5.72-1.24c2.9-1.7 1.8-6.8-1.8-6.6-3.4.2-4.8-.7-7.8-2.4a3.76 3.76 0 0 0-5 1.17c-1.12-2.79-3.09-5-6.4-5a3.25 3.25 0 0 0-2.8 4.8 30.86 30.86 0 0 0 6.82 9.8zm55.4 3.54v1.37a4.53 4.53 0 0 0-1.17-.35zm-20.58 5.97l.17.17a.49.49 0 0 1-.51.21 1.51 1.51 0 0 1 .34-.38z"/><path class="cls-1" d="M1133.56 353.53l.14-.13c-.21.17-.22.19-.14.13zM1141.3 338.2c3.75 2.2 7.44 1.92 11.28 1.26a3.47 3.47 0 0 0 2.82 1.84l2.5.3c3.5.35 3.86-4.26 1.29-5.77a3.1 3.1 0 0 0-3.19-3.33c-3.8.2-7.8 2.3-11.4.2-3.7-2.3-6.9 3.3-3.3 5.5zM1179.6 366.6h.25c.75 1.44 2.61 2.22 3.95.57a14 14 0 0 1 1.13-1.14c.47-.16 1-.35 1.47-.56a16.25 16.25 0 0 1 7.6-1.2c4.5.2 4.5-6.9 0-6.9a25 25 0 0 0-7.2.9 15.77 15.77 0 0 0-2.65 1.16c-2.21 0-4.32.08-5.95 1.94-1.3 1.63-1.2 4.83 1.4 5.23zM774.8 622.7c-3.9-2.6-9.6-1.9-13.4.2a3.39 3.39 0 0 0-1.88 2.87 18.49 18.49 0 0 0-5.22 1.93c-2.3 1.3-4.2 3.4-6.6 4.6-2 1.1-4.2 1-6.3 1.8-4.3 1.7-5.2 5.3-4.1 9.5a3.7 3.7 0 0 0 2.7 2.7c7.3 1.2 14.5 2.9 21.6.2a33.33 33.33 0 0 0 14.2-10.7c3-4 3.6-10-1-13.1zm-17.4 13.9h-.19zm6.6-.6c-5 3.61-9.94 4-15.26 3.59a14.63 14.63 0 0 0 4.16-3l1.94-1.74a2.67 2.67 0 0 0 2.06 1.69.51.51 0 0 0 .1.15c1 1.31 3.26.95 4.2-.33a2.65 2.65 0 0 0-.76-5.16c2.89-1.09 7.08-1.75 7.9 1.25A41.8 41.8 0 0 1 764 636zM677 620.64a7.6 7.6 0 0 0 3.5 4.36c3.3 1.8 7.9 2.1 10.6-.8 3.5-3.7 1.9-8.7-1.9-11.4-2.92-2.05-7.19-2.41-9.12.22a8.1 8.1 0 0 0-4.08 4.88 2.48 2.48 0 0 0 1 2.74zm10-1.26c0 .19 0 .3 0 0zm-2.32-1.82c-.25.32-.32-.35 0 0zm-1.7 1.39a3.61 3.61 0 0 0 2.09-1.11 14 14 0 0 1 1.26.66 3.73 3.73 0 0 1 .6.7.52.52 0 0 1 0 .1 1.33 1.33 0 0 1-.45.8c-.5.4-1.8.2-2.6-.2-.28-.14-.74-.41-1-.58a3.28 3.28 0 0 0 .12-.37zM637.8 616.9l-.38.23a17 17 0 0 0-4.89-2.12c-1.89-1.55-4.57-1.33-6.64-.2-2.72 1.55-1.38 5.18 1.27 5.56a5.29 5.29 0 0 0 2.53 1.94 2.4 2.4 0 0 0 2.5-.7 5.19 5.19 0 0 0 1.23-1.41c1 .53 2 1.33 2.77 1.71a2.13 2.13 0 0 0 2.3 0 13 13 0 0 0 1.5-1c2.51-1.71.31-5.61-2.19-4.01zM609.7 598.8c1 1.26 2.62 1.36 4.29.8 2.2-.7 1.3-4.2-1-3.6h-.1a.74.74 0 0 0-.1-.23 4.27 4.27 0 0 0-1.1-2.1 7.92 7.92 0 0 0-5.3-2.6c-2.6 0-5.1 2.7-3.7 5.2s4.31 3.23 7.01 2.53zm3.32-2.27c.07.06.09.14 0 .27a.42.42 0 0 0-.02-.27zM1109.9 574.4a38.41 38.41 0 0 0-4.12-.06c0-.41.06-.83.12-1.24.3-2.8.4-5.2-2-7.1a7.16 7.16 0 0 0-6.22-1.41c-1.64-1.24-3.55-2.12-5.18-3.29-4.3-3-8.6 4.2-4.1 7.1 1 .6 2.1 1.1 3.1 1.7l.11.05a6.82 6.82 0 0 0-.21 2.15c.1 2.2 2.3 4.5 4.7 3.6a8.21 8.21 0 0 0 3.83-2.7v.4c-.1 1.4-.5 2.9.3 4.2 1.9 3.3 6.9 1.8 9.8 1.6 2.97-.4 3.07-5-.13-5zM1045.1 563.06l.2-.06a5.9 5.9 0 0 0 3.92-4.45c2.27 1 4.33 2.66 4.88 4a2.18 2.18 0 0 0 3.4.4 9.18 9.18 0 0 0 1.9-3.5c.67-2.18-1.89-3.16-3.26-2a16.16 16.16 0 0 0-9.09-5 5.63 5.63 0 0 0-7.55-.09 6.84 6.84 0 0 0-2 3.08 2.88 2.88 0 0 0-.57 2.72 10.09 10.09 0 0 0 .43 1 8.4 8.4 0 0 0 2.27 4.1 3.78 3.78 0 0 0 5.47-.2zM1336.4 559.7c2.5.1 5 .7 7.5.5 5.9-.3 5.7-8.4 0-9.1-2.63-.33-6.55-1-10.06-.75a5.57 5.57 0 0 0-2.34-3.95 4.83 4.83 0 0 0-3.39-1.09 8.33 8.33 0 0 0-5-2.21c-2-.2-3.5 1.8-3.6 3.6a9.65 9.65 0 0 0 1.35 5.32 7.74 7.74 0 0 0 .71 1.83c-.79 4.92-1 11.38 2 15.35 1.3 1.7 2.8 2.5 4.9 2 5-1.1 6.2-7 6.1-11.4v-.06zm-11 3.36c.11.72-.58.37 0 0zM1365.8 582.1c-.61.35-1.14.69-1.66 1a7.81 7.81 0 0 0-1.34-.14 6.06 6.06 0 0 0-5.2 2.7 6.57 6.57 0 0 0-1.17 3.25c-1 2.38-.46 4.93.87 7.35a3.44 3.44 0 0 0 3.76 1.68c1.35 2.05 5.59 1.26 5.24-1.68a17.23 17.23 0 0 0-1.27-4.8 15.64 15.64 0 0 0 1.57-.2 23.13 23.13 0 0 0 3.5-1.8c4.8-2.76.5-9.86-4.3-7.36zM1387.58 577.41a3.65 3.65 0 0 0 .5-7.24 3.47 3.47 0 0 0-3.07-.67 3 3 0 0 0-2 1.64 2.82 2.82 0 0 0-.8-.34 3.16 3.16 0 0 0-3.8 2.2c-1.2 3.3.5 7.2 4.4 7a6.48 6.48 0 0 0 4.77-2.59zM1393.8 601.8a4.08 4.08 0 0 0-7.4 1.23 9.39 9.39 0 0 0-1.9 1.37 16.4 16.4 0 0 0-3.12 4.16 3.48 3.48 0 0 0-1.68 3.64c.1.3.1.7.2 1 .5 2.5 4.1 3.4 5.8 1.5 1.46-1.56 2.08-2.84 3.87-4.2a2.75 2.75 0 0 0 .41-.29h.11c.8-.2 1.6-.4 2.3-.6a4.27 4.27 0 0 0 2.5-6.2c-.39-.51-.69-1.11-1.09-1.61zM1191.11 323.93c-.63 1.18-.38 2.85 1.19 3.07a10 10 0 0 0 5.31-.65 3.7 3.7 0 0 0 2.64-1.59 20.19 20.19 0 0 0 2.65-2.56 2.76 2.76 0 0 0 0-3.93 3.62 3.62 0 0 0-2.67-3.37 7 7 0 0 0-7.06 2.11 4.1 4.1 0 0 0-2.65 5.22 3.69 3.69 0 0 0 .59 1.7zM1174.43 306.89a3.15 3.15 0 0 0 2.37 2.43 5.83 5.83 0 0 1-.6 1.28 2.12 2.12 0 0 0 2.4 3.1 6.28 6.28 0 0 1 1.9-.3 1.93 1.93 0 0 0 .88-3.51 17.78 17.78 0 0 0 .52-1.79 6.12 6.12 0 0 0-1-5.7 2.49 2.49 0 0 0-1.47-.76 10.45 10.45 0 0 0-.73-1 3.33 3.33 0 0 0-3.9-.5 9.63 9.63 0 0 0-2.5 1.6c-1.98 1.94-.43 4.9 2.13 5.15zm6-.33v.14zM1129.5 309.5a2.52 2.52 0 0 0 2.42-1.65 1.63 1.63 0 0 0 2.18-1.15c.05-.26.1-.52.14-.79a5.45 5.45 0 0 0 1.66-.81c2.7-2 3.4-6.5.1-8.4-5-2.9-9 6.3-9.2 10.1a2.75 2.75 0 0 0 2.7 2.7zm5.7-8.2a1.24 1.24 0 0 1-.27.17c.07-.09.18-.17.27-.17zM1101.47 299a2.14 2.14 0 0 0 .93-.14c0 .63.06 1.26.1 1.9 0 2.2 2.9 2.2 3.1 0a19.64 19.64 0 0 0 0-6.4 1.62 1.62 0 0 0-.08-.24 7.69 7.69 0 0 0 .08-4.06c-1.4-4.9-8.3-3.2-7.8 1.7a3.65 3.65 0 0 0 .16.76 22.05 22.05 0 0 0-.86 2.94c-.59 2.79 2 4.47 4.37 3.54zM1053.69 371.17a26.91 26.91 0 0 1 4.11 1.63 21.21 21.21 0 0 0 5.6 1.6c1.7.1 2-2.6.4-3-.24-.06-.48-.14-.71-.22 0-.28-.06-.55-.09-.82a2.26 2.26 0 0 0 .61-3.66 35.12 35.12 0 0 1-3.52-3.36c-.24-.33-.48-.66-.74-1-.11-.16-.24-.3-.35-.47-.12-.14-.24-.29-.37-.43-1.3-1.4-3.9.1-3.2 1.9 1 2.7 3 4.6 4.9 6.6v.1c-2.69-1.28-5.22-3-8.05-3.91a2.42 2.42 0 0 0-2.7 1.1 7 7 0 0 0-.6 1.9c-.35 2.96 3.54 4.46 4.71 2.04zM1076.6 374.3c0-3.5.7-7 .8-10.5.1-2.5-3.2-2.5-4-.5a28.06 28.06 0 0 0-2.2 11c0 3.5 5.4 3.5 5.4 0zM1084.8 377.7c.5-.5 1.1-1.1 1.5-1.6a16.6 16.6 0 0 0 1.6-2.1 2.13 2.13 0 0 0-.4-2.7 2.46 2.46 0 0 0-2.7-.4c-.7.5-1.4 1-2.1 1.6s-1.1 1-1.6 1.5a2.66 2.66 0 0 0 0 3.7 2.76 2.76 0 0 0 3.7 0zM1253.9 402.8c.1-3.8-5.8-3.8-5.9 0a38.58 38.58 0 0 0 1.8 11.2c.9 3.5 6.1 2.1 5.3-1.4a36 36 0 0 1-1.2-9.8zM1261.3 401.6a9.23 9.23 0 0 0-4.7 7.1 3.27 3.27 0 0 0 3.3 3.3 3.18 3.18 0 0 0 3.3-3.2c0-.32.06-.19 0-.08.06-.11.08-.26.16-.42a2.89 2.89 0 0 1 .28-.46l.12-.14c.1-.1.2-.3.4-.4l.9-.9a2.94 2.94 0 0 0 .2-4 3.08 3.08 0 0 0-3.96-.8zM1266.5 413.2a3.16 3.16 0 0 0 .85.11c1.25 2.81 6.71 2.31 6.45-1.51l-.3-6a3.15 3.15 0 0 0-.53-1.63 2.67 2.67 0 0 0-4.47-1.67c-2.2 1.9-3 4.5-4.1 7-.6 1.5.7 3.3 2.1 3.7zM1357.4 380.4a4.94 4.94 0 0 0-4.1 1.8 1.64 1.64 0 0 0 .2 2.4 1.59 1.59 0 0 0 2.3-.5 2 2 0 0 1 1.6-.9 1.4 1.4 0 0 0 0-2.8zM1369.6 376.1h-.2a2.75 2.75 0 0 0 0 5.5 13.1 13.1 0 0 0 5.16-1.45A20 20 0 0 0 1377 382a18.62 18.62 0 0 0 5.63 2.35 2.44 2.44 0 0 0-.93 2c0 1.3 1.3 2.9 2.7 2.7 2.66-.36 5.07-1.75 7.55-2.58 2.36.71 4.64 1.56 7.15 2.38 5.5 1.8 14.2-1 18.2-4.9s7.1-10.5 3-15.3c-2.4-2.8-5.8-4.4-8.2-7.2-2.7-3.2-4.5-7-7.9-9.6-.45-.36-.93-.69-1.42-1-1.57-2.43-3.51-4.39-6-5-5.5-1.4-13.8 2.3-18.6 4.7-5.8 2.8-10.9 7.9-10.9 14.7a19.43 19.43 0 0 0 3.5 10.69 2.14 2.14 0 0 1-.6.11c-.18-.05-.38.05-.58.05zm8-16.5a23.12 23.12 0 0 1 8.65-4.32 8.84 8.84 0 0 0 1.55 1.82 1.16 1.16 0 0 0 1.9-.5c.1-.3.2-.7.3-1a1.64 1.64 0 0 0-.25-1.25l1.95-.45c2.9-.7 3.1-.9 4.6 1.7 1.6 2.9 3.1 6 4.6 8.9s5.5 1.91 6.61-.43a24.29 24.29 0 0 0 2.39 2.93c1.8 1.8 5 3.4 5.7 5.9.8 2.7-1.8 6-4.2 7.4-2.2 1.3-7.2 2.9-9.8 2.3-2.2-.5-4.4-2.2-6.6-2.9-5.5-1.8-11.9-1.2-16.2-5.5-4.1-4.1-6.1-10.4-1.2-14.6zM1411.4 395.3a2.12 2.12 0 0 0-3-3 2.71 2.71 0 0 1-2.5 1.1 2 2 0 1 0-1 3.8 6.58 6.58 0 0 0 6.5-1.9zM1418.9 405.9l-.5.5c.1-.1.2-.1 0 0a.4.4 0 0 0-.14.06h-.16a.37.37 0 0 0-.3.1h-.4a2.4 2.4 0 0 0-2.3 2.3 2.31 2.31 0 0 0 2.3 2.2 5.85 5.85 0 0 0 4.8-2.7 2.08 2.08 0 0 0-3.3-2.5zM1419 414.5a62.61 62.61 0 0 1-4.4 5.6 28.68 28.68 0 0 1-2.52 2.75c-1.85-1.45-5.7-.44-5.38 2.45.3 2.6 1.6 5.1 4.6 5.1 2.3 0 4.4-1.6 6-3.1a40.72 40.72 0 0 0 7.6-9.4c2.2-3.8-3.4-7-5.9-3.4zm-8.1 9.3c-.34.42-.31.06 0 0zm2.18.91c.13.14.1.3 0 0zM1420.6 426.1c-1 .5-2 .9-3.1 1.4a2.74 2.74 0 0 0-1 3.7 2.88 2.88 0 0 0 3.8.9c1-.5 2-1.1 2.9-1.6a2.56 2.56 0 1 0-2.6-4.4zM1093.4 490.1a8.89 8.89 0 0 0 .92-.35 5.12 5.12 0 0 0 .68.75 3.55 3.55 0 0 0 2.39.8 6.41 6.41 0 0 0 .81 3.1c2 3.58 5 3.55 7.95 2.52a8.92 8.92 0 0 0 5.25 2.28c5.55.73 6.13-7.31 1.53-9.3a3.87 3.87 0 0 0-.23-.5 4.89 4.89 0 0 0-3.8-3.42 3.9 3.9 0 0 0-.51-.75 5.76 5.76 0 0 0-4.89-4.93 6.23 6.23 0 0 0-2.79.19c-.52-.83-1-1.67-1.21-2-1.7-2.8-5.3-2.4-7.1 0a8.38 8.38 0 0 1-2.1 2.1 4.22 4.22 0 0 0-1.53 5.23c-.38 2.46 1.91 5.18 4.63 4.28zM1218.8 503a3.37 3.37 0 0 0-2-4.39 4.27 4.27 0 0 0-4-2.91 7 7 0 0 0-2.45-2.4c-2.9-1.7-5.5-.6-7.3 2-2.44 3.62-3.72 12.66 2.29 13.53a3.45 3.45 0 0 0 3.61.07 7.81 7.81 0 0 0 2.06-1.48 6.59 6.59 0 0 0 3.24 0c2.45-.62 3.65-2.32 4.55-4.42zM432.08 561.93a5.86 5.86 0 0 0 2.52 2.47 3.38 3.38 0 0 0 3.1.2 2.61 2.61 0 0 0 4.56-2c.71.37 1.41.78 2.14 1.25 2.4 1.7 4.7-2.3 2.3-4.1-1.8-1.3-4.8-3.7-7.2-2.6a4 4 0 0 0-1.42 1.16 2.72 2.72 0 0 0-.83.27 7.44 7.44 0 0 1-.3-1 3.12 3.12 0 0 0-.25-1.28 20 20 0 0 0-.39-2.07 9.61 9.61 0 0 0-4.2-5.5 3.33 3.33 0 0 0-4 .5c-2.9 2.7-3.1 6.8-2.3 10.4a3.76 3.76 0 0 0 3.4 2.6 8.56 8.56 0 0 0 2.87-.3zM858.4 594.8a22.18 22.18 0 0 1-2.8-5c-.7-2.4-4.7-2.1-4.6.6.2 2.4.2 4.8.2 7.3a2.25 2.25 0 0 0 3.61 1.83 4 4 0 0 1 .19 1.17c0 4.4 7.1 3.3 5.8-.8a19.8 19.8 0 0 0-2.4-5.1zM911 634.8a3 3 0 0 0 4.3 1.09 6.21 6.21 0 0 0 .3 1.41 2.76 2.76 0 0 0 4.6 1.2c3.6-3.7 3.2-12.3-.2-16a5.19 5.19 0 0 0-5.62-1.56 4.35 4.35 0 0 0-.58 0 5.1 5.1 0 0 0-4.58 2.23 3.39 3.39 0 0 0-.8 3.1 3.9 3.9 0 0 0 1.58 2.83 9.2 9.2 0 0 0 1 5.7zM1062.1 544a10.5 10.5 0 0 0 5.4-2.3c.55-.44 1.08-.93 1.62-1.38a3.88 3.88 0 0 0 3-1.31h.25c3.32 0 3.2-4.57.21-5.15a4.14 4.14 0 0 0-1.21-1c-1.75-1-3.7-1-5.63-.92a9.23 9.23 0 0 0-2.37-3.88 4.17 4.17 0 0 0-4.51-.69 3.44 3.44 0 0 0-3.09 2.49 18.7 18.7 0 0 0-.2 9.1 3.55 3.55 0 0 0 3.45 2.6 3.12 3.12 0 0 0 3.08 2.44zm5.77-4a.31.31 0 0 1-.2 0zM1129.4 544.9c4.72.19 5.06-6.74 1-7.76a6.87 6.87 0 0 0-.14-2.93c1.59-.62 2.67-2.67 1-4.2a6.18 6.18 0 0 0-6.38-1.06c-5.12-1.17-10.59 3.16-8.82 8.66 1.74 4.89 8.64 7.09 13.34 7.29zM1240.1 455.3a3.61 3.61 0 0 0 1 3.8 7 7 0 0 0 4.66 1.67c.6.69 1 2.6 1.54 3.33a5 5 0 0 0 3.1 2c2.5.7 3.3-2.7 1-3.6-.52-.23-.9-1.22-1.21-2.31a9.16 9.16 0 0 0 3.81-4.29 7.81 7.81 0 0 0-1.8-8.9 3.8 3.8 0 0 0-4.4-.6c-3.8 1.6-6.2 5.2-7.7 8.9zm5-2.59c-.31 1.24-.59 0 0 0zM1344.7 458.1c1.6-2 1.4-5.6-1.6-6.2a13.58 13.58 0 0 0-5 0c-2.3-.17-4.65.64-5.2 3.27a4.11 4.11 0 0 0-.06.46 4.25 4.25 0 0 0-3.74 4.14c0 2.1 1.9 4.5 4.2 4.2a17.43 17.43 0 0 0 11.4-5.87zM241.5 468.2a1.33 1.33 0 0 0-.59.21v-.06-.55a2.61 2.61 0 0 0-2.14-2.61c-2.06-1.31-5.6-.36-5.26 2.61v.15a5.35 5.35 0 0 0 .16 2.56 8.62 8.62 0 0 0-4.17-1.1c-2 .3-3.7 1.5-3.7 3.7 0 1.8 1.7 3.9 3.7 3.7.1 0-.7-.4.1 0s.3.1.8.3c1 .4 1.9.9 2.9 1.3 2.2 1 4.6 2 7 1.7a5.44 5.44 0 0 0 4.8-5.5 5.13 5.13 0 0 0-1.85-3.51c.64-1.25.13-3.1-1.75-2.9zM216.2 457a16.47 16.47 0 0 0-2.52 2.61 4.63 4.63 0 0 0-5.58 1.39 7.38 7.38 0 0 0-10 1.84c-1.7 2.2-1.9 4.6.4 6.4a5.8 5.8 0 0 0 1.89 1c2.41 3.13 7.71 2.43 10.31-.61a3.19 3.19 0 0 0 .57-3.32v-.08c.2-.9.3-2.8 1.9-2a2.08 2.08 0 0 0 2.8-.7 14.83 14.83 0 0 1 2.9-3.7c1.63-1.83-.87-4.23-2.67-2.83zM263.4 467.5c5.2 2.7 12.8 2.5 18.5 2 6.1-.6 12-3.5 15.1-9.1a11.22 11.22 0 0 0-3.3-14.9c-3.76-2.48-9.06-2.84-13.65-2.26-4.85-5.54-16.43-3.08-21.55.66-3.3 2.4-4.7 5.9-3.1 9.7 2.2 5.2 2.4 11 8 13.9zm23.2-16.2c6 .3 4.9 6 1.1 8.7-4.3 3.1-10.4 2.4-15.4 2.2a13.27 13.27 0 0 1-5.2-.9 4.08 4.08 0 0 1-2.62-3.29 6.8 6.8 0 0 0 8.12-1.51 3.93 3.93 0 0 0 .84-1.6 23.23 23.23 0 0 1 3-1.9 25.48 25.48 0 0 1 10.16-1.7zm-24.9-2.6c1.72-2.54 7.92-4.3 12.28-3.85a49.16 49.16 0 0 0-4.68 2.55c-2.4 1.4-5.1 1.3-6.6 4-.08.15-.15.29-.22.43-.96-1.42-1.84-1.5-.78-3.13zM389.2 442.9a27.46 27.46 0 0 0-17.48-1.47c-5.45-1.31-9.46-1-12.92 4.47a7.43 7.43 0 0 0-.6 7.6c.5 1.1 1.5 1.8 2.1 2.8.9 1.6.9 2.7 1 4.6.5 6.4 6.8 9.5 12.8 9.7a12.07 12.07 0 0 0 7.3-2.2 28.1 28.1 0 0 1 8.2-3.9c10.9-3.1 8.2-17.5-.4-21.6zm.1 11.6c-.1 2.2-.9 2.6-2.7 3.3a36.19 36.19 0 0 0-5.64 2.3 3.54 3.54 0 0 0-3.06-5.2h-1a2.74 2.74 0 0 0-4-.08c.09-.09 0 0-.21.13l-1.79.07a3.5 3.5 0 0 0 0 7c.24 0 .48 0 .73-.07 2.14.09 4.21.16 6.27.07h.13c-2.81 1.88-8.49 2.79-10.33-1.08-.7-1.4-.2-3.6-.8-5.2a8.2 8.2 0 0 0-1.82-2.71 4 4 0 0 0 3.62-1c3.6-3.2 9.1-4.1 13.8-3.3 2.1.3 4.7 1.1 6 2.9a4.14 4.14 0 0 1 .8 2.87zM474 542.8c4.5 0 4.5-6.9 0-6.9s-4.5 6.9 0 6.9zM469.3 577.2c-2.4-3.8-7.2-5.9-11.3-7.2-3.57-1.1-7.86-1.84-11.52-.63a1.76 1.76 0 0 0-1-.27c-5.6-.1-12.8-3.5-16.2 3.2a9 9 0 0 0 .2 8.11 6.23 6.23 0 0 0-2.1 3c-1.7 4.9 3.1 10.2 7.1 12.3 5.8 3 11.8.4 16.7-2.9a15.63 15.63 0 0 1 8.3-3.1c2.4-.1 4.9-.1 7-1.3a8 8 0 0 0 2.82-11.21zm-27.9 12.6a6.39 6.39 0 0 1-5.9-1.8c-.5-.5-3.1-3.6-1.1-2.3h.08c2.8 1.5 6.4-2.5 3.6-4.7a8.67 8.67 0 0 0-2-1.17c-1.19-.81-2.49-2.36-2.57-3.63-.2-2.8 2.6-3.9 4.8-3.9a22.68 22.68 0 0 1 3.59.24 9.42 9.42 0 0 0-1.7 3.46c-.7 3 .7 5.3 1.3 8.1s3.6 3.47 5.75 2.43c-1.84 1.37-3.64 2.81-5.85 3.27zm19.6-7.7c-4.4.9-8 .7-12 3.2l-.51.34a3.75 3.75 0 0 0 .91-3.74c-.6-2.4-2.4-5 1.2-5.2a13 13 0 0 1 4.4.6c1.8.5 10.7 3.9 6 4.8zM358.84 604.61a8.25 8.25 0 0 0-5.44-2c-2.74 0-5.76 1.79-6.48 4.37a6.12 6.12 0 0 0-1.12.33c-.18.08-.35.16-.52.25a11.93 11.93 0 0 0-1.81-.29c-1.11-4.07-5.5-7.13-9.48-3.66a3.34 3.34 0 0 0-.5 3.8c1.47 3.31 4.71 5.59 8.53 6.84a14.42 14.42 0 0 0 .47 2.66c1.25 4.81 8.4 3 7.88-1.55a23.19 23.19 0 0 0 2.31-.21l.84.08a25.31 25.31 0 0 1 5.48 3.07c1.4.8 2.7-.9 1.8-1.8-.4-.38-1-.85-1.63-1.39a8.55 8.55 0 0 0 5.23-3.41 3.88 3.88 0 0 0 0-3.9 6.32 6.32 0 0 0-5.56-3.19zM191.9 636.6c-3.93-.07-6.59 1-7.87 3.81a9.78 9.78 0 0 0-4.93.59 5.93 5.93 0 0 0-2.21 2.09c-2-.52-3.57.64-4.81 2.47a38.65 38.65 0 0 0-4.28-5.47 3.44 3.44 0 0 0-4.8 0 10.75 10.75 0 0 0-2.7 7c-.19 3.26 4.29 4.39 6.07 2l.13.12c1 1.51 1.93 3.07 3 4.46l.29.6a2.45 2.45 0 0 0 1.17 1.1 9.89 9.89 0 0 0 3.53 2.4 5.48 5.48 0 0 0 6.6-2.1c1.37-2.4.32-4.59-.2-6.93a4.47 4.47 0 0 1 1.1-1c1.2-.8 3.3-.2 4.9-.3a3.65 3.65 0 0 0 3.6-3.6c-.8 0-.8-.1-.2-.2a4.53 4.53 0 0 1 1.6-.3c4.21-.54 4.51-6.74.01-6.74zM629 601.7c4.5 5.7 13-2.5 8.1-8.1-6.8-7.8-13.6-16.7-23.2-21.1a73.77 73.77 0 0 0-13.5-4.5c-2.27-.6-6-1.38-7.75-3.41a2.75 2.75 0 0 0-.75-3.69c-.4-.4-.9-.7-1.3-1.1-2.2-1.7-5.9-.8-5.8 2.4a10.06 10.06 0 0 0 5.2 8.8c1.8 1.1 3.7 1.5 5.5 2.5 2.1 1.2 4.2 2.3 6.4 3.3a48.67 48.67 0 0 1 15.2 10.5 181.82 181.82 0 0 1 11.9 14.4zM598.8 625.6c3.11-1.29 5.82-2 8.26-3.81a7.58 7.58 0 0 0 6.54 2.61c3.4-.1 3.5-5.6-.1-5.4-2.2.1-2.8-1.2-3.8-2.8s-3.3-2.1-4.6-.6a10 10 0 0 1-5.6 3.3c-1.5.4-3.9 1.9-5.4 1.9s-3.3-1.3-4.8-1.6c-2.3-.4-3.9.2-6 1.2a3.4 3.4 0 0 0-1.7 3c0 2.8 1 4.2 3.2 5.8s5.06-.5 5.38-2.86a14.77 14.77 0 0 0 4 1c1.82-.14 3.02-1.04 4.62-1.74zM643.57 536.54v.27c.4 3 4.8 2.4 5.5 0a14.62 14.62 0 0 1 1.6-3.6 5.43 5.43 0 0 1 .94-1.25c.14.23.46.62.46.55a2.14 2.14 0 0 0 3.9-.5 3.19 3.19 0 0 1 .9-1.6c1.7-2.1-1-4.8-2.9-3-.13.13-.24.26-.36.4a4.27 4.27 0 0 0-1.41-.6 4.79 4.79 0 0 0-.93-4.7 9.32 9.32 0 0 0-3-2.2c-.5-.2-1-.5-1.5-.7l-.35-.11c-.69-3.24-4.65-4.82-7-3.28a6.76 6.76 0 0 0-2.85-3 4.54 4.54 0 0 0-5.4.7 7.21 7.21 0 0 0-1.95 3.62c-4.09-.91-5.31 2.88-4.62 5.88-2.11 4.65 2.89 10.64 8.17 10.81a3.84 3.84 0 0 0 3.7-2.9c.09-.27.16-.54.23-.81l.47-.29a6.58 6.58 0 0 0 1.7-1.6 6.42 6.42 0 0 0 3.46-.67c.92.56 1.91 1.07 2.93 1.58a2.48 2.48 0 0 0-.9.61c-3.31.73-3.28 5.19-.79 6.39zm8.23-4.73c.17-.08.18.1 0 0zm-5.3-10.5a4.92 4.92 0 0 0 0-1.72 3.77 3.77 0 0 1 0 1.71zm-20.07-.18a7.41 7.41 0 0 0-.7.65l-.13-.07.7-.7h.21zm20-1.64c-.9-.35-.31-.75 0 0zM645.2 559.9h-.1a2.65 2.65 0 0 0 2.6-2.6 2.81 2.81 0 0 0-2.7-2.6 5.9 5.9 0 0 0-2.15.44 3.44 3.44 0 0 0-2.25-.94 3.29 3.29 0 0 0-3.2 3.2 5.57 5.57 0 0 0 2.7 5.1 3.11 3.11 0 0 0 4.5-1.8 1 1 0 0 0 0-.21l.06-.09a.58.58 0 0 1 .13-.2l.27-.21c.06 0 .26-.06.09-.08zM949.5 479.1a5.73 5.73 0 0 0 .66-.15 18.29 18.29 0 0 0 4.34.95 4 4 0 0 0 3.9-3 5.5 5.5 0 0 0-1.4-4.9 3.62 3.62 0 0 0 .07-3.33 6.15 6.15 0 0 1 2.58.54c2.6 2.2 6.5-1.4 3.8-3.8-2.47-2.2-10.46-3.59-14.25-1.53a9.58 9.58 0 0 0-6.79 4.53c-2.1.57-3.19 3.17-2.76 5.2.85 4.39 5.85 6.09 9.85 5.49zM912 479.42a2.27 2.27 0 0 0 .42.38 8 8 0 0 0 3.3 1.7c2.2.5 3.7-.7 5.8-1.2 2.8-.7 2.3-5.3-.6-5l-1.31.17a3.43 3.43 0 0 0-3.29-4.27 9 9 0 0 0-5.24 1.12 5 5 0 0 0-2.58 1.68c-2.09 2.75.24 6.58 3.5 5.42zM999.5 527.8a2.53 2.53 0 0 0-.78-1.71c-1.5-1.5-4.1-.5-5.4.6a8 8 0 0 0-.91.89 8.82 8.82 0 0 0-2.79 4.31 3.12 3.12 0 0 0 .23 2.78 5.92 5.92 0 0 0 .87 2.82c2.74 4.41 9 2.38 11-1.75l1-.45c4.18-1.89 1.18-9.09-3.22-7.49zM1012.4 559.8a3.64 3.64 0 0 0 4.4 2.5c2.5-.8 3.6-2.6 4.9-4.6 1.37-2.17-.2-4.65-2.2-5.43a12.89 12.89 0 0 0 .6-3.77 3.36 3.36 0 0 0-6.2-1.7 16.81 16.81 0 0 0-1.5 13zM1025.6 513.89a3.56 3.56 0 0 0 .53.24 3.06 3.06 0 0 0 .47 5.67c5.4 2.2 9.4-.4 13.4-3.9 2.9-2.5-1.3-6.6-4.2-4.2-2 1.7-4.1 3.6-6.8 2.4l-.21-.07a4 4 0 0 0 2-1.63 16 16 0 0 0 1.34-2.87l.46.07c2.9.3 4.3-1.5 5.7-3.8 1.5-2.5 2.7-3 5.7-2.8 5.4.3 5.1-7.7 0-8.3a13.69 13.69 0 0 0-8.6 1.7 7.9 7.9 0 0 0-1.86 1.59c-1.84-2.54-6.53-2.51-7.24 1.11-.06.34-.12.68-.17 1l-.27.19a3.89 3.89 0 0 0-2.05 1.69c-.1.15-.18.31-.27.46a11 11 0 0 0-2.43 8.94c.45 2.26 2.63 3 4.5 2.51zm9.07-12c.41.38.14.81 0 0zM1157.1 452.2c-3-3.37-7.52-.56-8 3a16.07 16.07 0 0 0-5.81-2.35c-3.3-.5-7.1 2.1-5.8 5.8 1.9 5.7 4.1 11.6 9.1 15.3a4.69 4.69 0 0 0 5.7-.7c.47-.53 1.11-1.09 1.66-1.66v.66c-.2 3.8-.3 7 1.4 10.5.88 1.92 3 2.42 4.89 2 .82 3.41 3 6.33 6.71 7a5.84 5.84 0 0 0 1.7 0 3.79 3.79 0 0 0 5.52 0l.28-.05c.2-.05.38-.13.57-.19a3.15 3.15 0 0 0 5.13-2.21 6.07 6.07 0 0 0-.07-1.65c.44-.45.81-.9 1.26-1.35 2.6-.6 2-5.5-1-5.2-.21 0-.41.06-.61.1a11.77 11.77 0 0 0-2.29-4.6 16.81 16.81 0 0 0-3.12-2.9 13 13 0 0 0-.18-2.5 4.43 4.43 0 0 0-2.87-3.07c.47-2.26-.45-4.76-3.23-5.23-4.94-.8-7.84-7.2-10.94-10.7zm6.42 19.36l-.79.67v-.4a4.44 4.44 0 0 0 .52-.33zM1188.85 456.92v-.28a13.59 13.59 0 0 0-.3-2 4 4 0 0 0-5.8-2.4 18.34 18.34 0 0 0-3.6 3.2 4 4 0 0 0 .4 6 3.84 3.84 0 0 0 1.21.63v.17a4.08 4.08 0 0 0 3.5 4 4.15 4.15 0 0 0 4.5-2.9s.4-1.1.2-.7a6.73 6.73 0 0 1 .7-1.1 3.58 3.58 0 0 0-.81-4.62zM1178.1 432.3a4.16 4.16 0 0 0-6.9-1.8c-3.4 2.9-3.9 8.9-2.1 12.8a3.16 3.16 0 0 0 2.94 1.88 4.38 4.38 0 0 0 3.56.82 6.93 6.93 0 0 0 4.8-4 3.69 3.69 0 0 0-1.3-4.9 3 3 0 0 0-.47-.19 10.89 10.89 0 0 0-.53-4.61zM1102.43 438.75c2.27.83 5.57-.64 5.57-3.55a8.68 8.68 0 0 1 .05-.93 3.52 3.52 0 0 0 1.45-3v-3.7a13.88 13.88 0 0 0-6.83-5.07c-.33-3.34-4.9-3.65-6.07-.53-.5 1.2-1 2.5-1.4 3.7a2.22 2.22 0 0 0 .71 2.72 3.15 3.15 0 0 0 1.68 2.23c-.06 1.61-.28 3.25-.38 4.85-.21 3.01 2.94 4.22 5.22 3.28zM1074.91 448.1h-.11c-.1 3.6-1.2 7.2-1.6 10.8-.2 1.7 1.4 3.3 2.9 3.8h.09a4.42 4.42 0 0 0 5.11 2.38 34.84 34.84 0 0 1 4.4-1c4.46-.66 3.69-7.89-.42-8.37.9-1.73 2.13-3.49 2.72-4.73 2.26-4.52-3.2-7.8-6.43-4.73-1.78-2.59-6.74-1.98-6.66 1.85zM1164.7 522.6c1.49 2.62 5.11 2 6.34-.16.26.85.51 1.68.76 2.46a2.67 2.67 0 0 0 3.72 1.67l.79.63c.9.7 2.1-.1 2.4-1 1.2-3.4 1.6-7.5-.8-10.4a2.22 2.22 0 0 0-2.85-.29 20.4 20.4 0 0 0-6.75-8.91 2.9 2.9 0 0 0-2.84-.18 3.1 3.1 0 0 0-2.16-1.92 11.6 11.6 0 0 0-1.74-.36h-.06c-6.2-3.8-10.4 3.3-8.5 8.9.9 2.6 4.4 4 6.4 1.7.39-.45.72-.86 1-1.3a23 23 0 0 1 2.75 5.35 16.62 16.62 0 0 0 1.54 3.81zM1221.1 552.8v-.08c1.89.65 4.4-.26 4.73-2.44a88.69 88.69 0 0 1 6.83 8.72c2.1 3 7 2 7.1-1.9a22.25 22.25 0 0 0-1.7-8.51 4.24 4.24 0 0 0 .6-6.09 12 12 0 0 0-5.7-3.9 4.12 4.12 0 0 0-.94-.16 20 20 0 0 0 2.3-1.72c.56 2.15 2.85 3.8 5.14 2.29a21.76 21.76 0 0 0 8.8-11.8 3.09 3.09 0 0 0 .1-1.44c1.14-1.48 2.29-3 3.4-4.46 1.38-1.85.16-3.55-1.55-4.22.94-.8 1.88-1.5 2.25-1.88 2-1.8-1-4.7-3.1-2.9-2.7 2.3-6.5 4.4-7.1 8.2a3.38 3.38 0 0 0 .1 1.56c-6.5.4-9.88 9.3-16.4 10.64a3.37 3.37 0 0 0-1.69.89 4.14 4.14 0 0 0-3 2.51l-.12-.1c-2.1-1.7-6.5-.9-6.1 2.5a20.64 20.64 0 0 0 1.52 5.44 8.25 8.25 0 0 0-1.52 8.06c.85 2.59 4.65 3.29 6.05.79zM1284.73 349.72a5 5 0 0 0-.73-.62 5.83 5.83 0 0 0-6.1.1c-1.6 1-2 3.3-1.5 5a5.77 5.77 0 0 0 2.24 3 6.93 6.93 0 0 0 1.36 2.1 2.81 2.81 0 0 0 3.9 0 7.28 7.28 0 0 0 2.23-7 2.34 2.34 0 0 0-1.4-2.58z"/><path class="cls-1" d="M1383.3 372.1a6.67 6.67 0 0 0 4.6.5c1.3-.3 2.1-.9 3.3-1.1a2.73 2.73 0 0 0 1.89-1.42 2.22 2.22 0 0 0 0-3.49 3.33 3.33 0 0 0-3.57-1.39l-.48.12a8.81 8.81 0 0 0-6.32 2.08c-1.32 1.2-1.22 4 .58 4.7zM1219.5 348.2c-6 1.3-15.9 2.3-18.7 8.8-3 7.05 2.77 10.63 7.51 14.61a17 17 0 0 0-.53 1.95c-6.72-1.77-11.54 12.55-11 17.25.7 5.8 5.3 9.5 10.1 12.3s9.9 7 15.7 7.1c10.7.2 18.5-12.2 18-21.9a18.38 18.38 0 0 0-7.6-13.5c-4.92-3.77-10.31-4-15.85-5.2-1-3-5.6-4.23-7.55-.9a16.83 16.83 0 0 0-.89 1.86c-3.94-3.36-8.37-7-5.11-12.16 2.9-4.5 9.5-3.8 14.1-4.6a44.05 44.05 0 0 1 20.7 1.5c3.55 1.1 9.89 5.75 10.16 10.36a2.54 2.54 0 0 0-2.36.74 5.84 5.84 0 0 0-.5 7.8 2.81 2.81 0 0 0 3.63 1.09 4.73 4.73 0 0 0-.23.81 4.91 4.91 0 0 0 1.4 4.6c2.4 2.3 6.1-1.4 3.7-3.7a7 7 0 0 1 .3-1.2 6 6 0 0 0 0-3.5 2.24 2.24 0 0 0-1.44-1.48c2.93-6.18-.75-13.23-6.26-17.52a28.3 28.3 0 0 0-10.92-4.73c1.11-1.78-1.11-4-2.68-2.47-.6.6-2.3-6.3-2.3-7.2-.3-5 2.1-6.6 6.7-7.4a46.19 46.19 0 0 1 9.1-.3c2.4 0 5.2-.8 7.6-.5 2.8.3 4.6 3.1 6.8 4.4a24.47 24.47 0 0 0 4.55 1.88c.83 2.57 4.11 2.55 5.89.92 1.13 2.58 5.15 3.82 6.76.6 1-2 1.4-3.3 3.7-3.4s5 1.7 7 2.8c4.1 2.5 7.9 5.6 10.2 9.8 2.6 5 3.5 10.2 0 15-3.1 4.2-5.7 4.9-10.6 3.1a13.39 13.39 0 0 0-4.9-1c-2.3 0-4.5 1.4-6.8 1.4-3.9-.1-2.6-4.7-2.9-7.5a14.65 14.65 0 0 0-3.8-8.9c-1.4-1.5-3.9-2.9-1.6-4.8 1.4-1.1 4.4-.9 6-.6 2.2.6 3.1-2.5.8-3.4-4.2-1.5-9.9-1.5-12.6 2.6-4.1 6.3 4 10.4 4.4 16.3.3 5-.4 10.3 5.1 12.6 3.5 1.5 6.4.4 9.9-.2 3.8-.7 7.2 2 11.1 1.9 6.3-.1 11.4-6 13.8-11.4 2.8-6.4.6-14.8-3.1-20.5a36.27 36.27 0 0 0-17.8-13.8c-6.24-2.05-10.75-.1-13.84 5l-.06-.23a3.69 3.69 0 0 0-2.5-2.5c-2.3-.6-4.5-1.1-6.4-2.5-1.6-1.1-2.8-2.6-4.6-3.4-3.8-1.7-8 0-12 0-6.2.1-15.8 0-19.6 6.2-2.6 4.3-1.1 9.9.7 14.2a14.07 14.07 0 0 0 1.26 2.32 37.3 37.3 0 0 0-9.64.6zm-.9 44.9a8.45 8.45 0 0 0 3-7.91 7 7 0 0 0-2-6.06 8 8 0 0 0 .25-1c4.61.74 9 1.89 11.71 6.4 3.4 5.6-.2 14-5.6 17.1s-13.5-3.8-18.1-6.6c-4-2.4-6.1-5.4-4.7-10.2a19.79 19.79 0 0 1 .85-2.36.61.61 0 0 0 .85 0 37.57 37.57 0 0 0 2.78-3.8 8.61 8.61 0 0 0 .4 1.38 15 15 0 0 0 .07 5.24 13.08 13.08 0 0 0-.35 4.67c.64 5.24 7.24 6.14 10.84 3.14z"/><path class="cls-1" d="M1226.4 366.7h.5a4.1 4.1 0 0 0 1.1-.1 2.6 2.6 0 0 0 2.6-2.3 2.72 2.72 0 0 0-1.6-2.88 2.3 2.3 0 0 0-.2-1.72 4.88 4.88 0 0 0-4.7-2.6 2.61 2.61 0 0 0-2.3 1.7 5.13 5.13 0 0 0 .74 4.15 2.9 2.9 0 0 0-.14 1.25 3.09 3.09 0 0 0 3.8 2.5c.4-.1.4-.1.2 0zM1240.9 336.8a4.35 4.35 0 0 1-.7.4 3.18 3.18 0 0 0-1.3 4 3 3 0 0 0 3.7 1.8 6.94 6.94 0 0 0 3.6-2.7l.35-.49.25-.11a5.58 5.58 0 0 0 .8-.5 2.74 2.74 0 0 0 1.27-2.94 2.47 2.47 0 0 0-.57-1.66 2.78 2.78 0 0 0-3.6-.7 10.52 10.52 0 0 0-2.7 2 6.47 6.47 0 0 1-.9.8c.6-.5-.1 0-.2.1zM985.2 488a8.81 8.81 0 0 0 3.84.85 2.77 2.77 0 0 0 3.15 1.7 2.37 2.37 0 0 0 3 1.15 15.18 15.18 0 0 1 2.8-.9c3.15-.61 2.47-4.83-.1-5.26a3.82 3.82 0 0 0-.5-1 5.29 5.29 0 0 0-.76-.87 5.76 5.76 0 0 0-3.63-4.97 6.89 6.89 0 0 0-6.1.1c-2.3 1.2-3.2 3.6-3.5 6a3.5 3.5 0 0 0 1.8 3.2zM732 642.7a151.61 151.61 0 0 1-25.22-.68 4.66 4.66 0 0 0-2.58-.72v-.1c-1.5 0-3 0-4.5-.1a4.24 4.24 0 0 0-.58 0 4.32 4.32 0 0 0-3.22-1.33c-7.3-.1-14.6-.9-21.7 1.5a4.71 4.71 0 0 0-3 3.08c-3.16.85-6.32 1.78-9.43 2.72-.67.12-1.33.25-2 .4a3.45 3.45 0 0 0-2.75 4.32l-1.55.18a1.45 1.45 0 1 0 0 2.9h3.87a4.08 4.08 0 0 0 2.48.32l.05.2c6.87-2.35 16.41-1.13 23.32-4.26 4.93.26 9.81-.25 14.79-.41 10.65 1.55 21.23 2.43 32 1.57 6.12-.49 6.22-9.89.02-9.59zM619 655.2l-.3-.25c.86-2.25-.88-5.43-3.61-5.35-4.24.06-5.75 2.72-5.44 5.67-3.46.46-6.95.67-10.26 1.93-3.7 1.5-4.3 6.9 0 8.1h.1a40 40 0 0 0-5.7 2.87 3.63 3.63 0 0 0-1.69 1.79c-3.13 1.17-6.38 2-9.81 3.11-2.85 1-2.7 6 .64 5.8a21.83 21.83 0 0 0 6.83-.45l1.43-.06a2.27 2.27 0 0 0 1.59-.75 41 41 0 0 0 6.48-2.77c6.08-1.38 14.45-3.83 16-10a4.11 4.11 0 0 0 0-2c.6-.13 1.19-.29 1.78-.47 2.96-.87 4.56-4.97 1.96-7.17zM567.2 634.1c-1.5 1.7-2.5.6-4.7 1a6.78 6.78 0 0 0-2.7 1.3 2.64 2.64 0 0 0-.59.72 21.23 21.23 0 0 0-4.91-3.32 3.93 3.93 0 0 0-5 1.08c-2.21-1.49-5.93.78-5.45 3.76a3.43 3.43 0 0 0-2.46 1.57 5.5 5.5 0 0 0-.16 5.81c-.18 0-.36 0-.54.09a3 3 0 0 0-1.8 4.4 22.49 22.49 0 0 0 2.32 2.92c-2 .23-3.8 2.3-2.42 4.48.2.3.4.7.6 1a3.09 3.09 0 0 0 3.4 1.4c4.3-1.5 7.8-4.8 11.1-7.9a2.44 2.44 0 0 0 .69-3 3.21 3.21 0 0 0 2.32-2.41c.08-.39.14-.77.19-1.14a3.92 3.92 0 0 0 4.51.44c1.1-.6 2.7-1.6 3.1-2.9l.1-.36h1.2a8.48 8.48 0 0 0 6.8-3.3c3.2-3.94-2.2-9.54-5.6-5.64zM501.69 660.45h.11l-.19-.32a10.82 10.82 0 0 0-2-4.48 3.07 3.07 0 0 0-1.83-1.16 2.35 2.35 0 0 0-2.84.46 15.91 15.91 0 0 0-2.34-3.5 3.14 3.14 0 0 0-4.4 0c-2.13 2.39-1.79 4.35-2.27 6.92a5 5 0 0 0-2.43 3.48 2.8 2.8 0 0 0-.14 1h-.06a6.49 6.49 0 0 0-6.2.1 7.85 7.85 0 0 0-3 3.51c-2.78.17-5.15 3.73-2.49 6.09a11 11 0 0 1 1.1 1 3.72 3.72 0 0 0 5.1 0c.9-1 1.5-2.9 2.4-3.7.36-.29.36-.43.26-.5h.14c.3 0 1.1.9 1.4 1.1 2.2 1.5 4.6 2.1 6.9.3a5.79 5.79 0 0 0 2-3.1c.19-.75-.32-4.78-1-4.12.48-.59 1.71-1.1 2.16-2.08a2.63 2.63 0 0 0 .08-.32c1.1 1.62 2.43 2.92 4.72 2.92a2.6 2.6 0 0 0 1.54-.5 2.31 2.31 0 0 0 3.36-2.5c-.01-.24-.04-.42-.08-.6zM368.2 538.8c-4.7-.6-8.7-2.4-13.1-4a4 4 0 0 0-4.45 1.64c-3.14-2.21-5.85-5.35-8.75-7.64-2.13-1.61-5.27-1-6.36 1l-.14-.24c-1.64-3-5.4-2-6.55.48l-.24-.26a10 10 0 0 0-4.21-7c-2.1-1.5-5.5 1-4.5 3.5.25.63.51 1.28.8 1.93-.45-.29-.91-.57-1.2-.73a6.4 6.4 0 0 0-4.3-.5 2.8 2.8 0 0 0-2.1 2.8 17.46 17.46 0 0 0 .4 2.92c-1.62.41-3.94 0-5.3.18-1.7.3-3.4 1.2-5.2 1.1-2-.1-4.2-1.2-6.2-1.7a9 9 0 0 0-2.25-.34c-1.9-1.4-3.6-3-5.35-4.56a2 2 0 0 0-2.4-.3c-2.54 1.43-3 4-2.78 6.71a2.18 2.18 0 0 0-.92.89c-1.4 2.6-.9 5.3 2.2 6.3a6.62 6.62 0 0 0 4.6-.3c1.6-.7 2.4-2.6 3.8-3.3a2.7 2.7 0 0 1 .66-.22 2.73 2.73 0 0 0 .9-.06c2 .11 4.2 1.59 5.83 2 3.2.7 5.4-.6 8.5-.9 3.6-.4 7.2.7 9.9-2.4a3 3 0 0 0 .81-1.52 5.72 5.72 0 0 0 1.89 1.12 5.54 5.54 0 0 0 2.75-.12 9.82 9.82 0 0 0 7.75 3.62h.21a20.58 20.58 0 0 0 8.89 6.72 3.77 3.77 0 0 0 4.67-2.53 21 21 0 0 0 7 3.53 3.79 3.79 0 0 0 4.42-1.79 25.1 25.1 0 0 0 9.18 2.09c4.54-.02 5.84-7.42 1.14-8.12zm-80.28-3.8a6.27 6.27 0 0 1-.31-2.78l1.69 1.42a7.5 7.5 0 0 0-1.38 1.36zM684.6 523.5c-3.2 1.9-2.5 7-.7 9.5 1.6 2.1 4.8 1.9 5.6-.7a4.87 4.87 0 0 1 .4-1.1c.26.11.52.22.8.31a2.56 2.56 0 0 0 2.6-.7l1.4-1.4c2.5-2.6-1.2-6.2-3.6-3.9h-.05c-.52-.41-1-.9-1.55-1.25-1.3-.86-3.5-1.66-4.9-.76zM485.82 487.26a4.3 4.3 0 0 0 1 1.74l.61.64a32.29 32.29 0 0 0 3.19 3.56c3.5 3.4 8.8 5.9 12.2 1.1a2.7 2.7 0 0 0 .32-.61 3.23 3.23 0 0 0 .18-4.59 47.23 47.23 0 0 0-13.8-10.9 4.14 4.14 0 0 0-1.3-.41 4 4 0 0 0-1.9-.39 2.18 2.18 0 0 0-2 3.15 4.78 4.78 0 0 0-.15.75 10 10 0 0 0 1.65 5.96zM380 492.2a16.88 16.88 0 0 1-10.49-1.43 16.26 16.26 0 0 0-4.41-3.57c-3.36-1.85-6.14 1.31-5.41 4.32-.72-.4-1.42-.79-2.09-1.12-1.39-.71-2.74-1.48-4.08-2.28 1.23-1.13 1.56-3.25-.32-4.12v-.08c-.57-.23-1.14-.45-1.71-.65-3.34-1.45-6.78-2.7-10.17-4l-.21-.17v.07l-.46-.17c-2.2-.9-3.8 2.9-1.6 3.9a7.19 7.19 0 0 1 2.1 1.2 1.5 1.5 0 0 0 1.18.17l.68.32a3.15 3.15 0 0 0 .24 4.11 63.27 63.27 0 0 0 13 8.8c4.1 2.2 8 4.8 12.8 5a3.62 3.62 0 0 0 3.51-2.59 21.5 21.5 0 0 0 9.49-.41c4.75-1.4 2.65-8-2.05-7.3zM958.5 607.2a2.11 2.11 0 0 0-1-1.84 20.54 20.54 0 0 0 4.31-7.86 3.68 3.68 0 0 0-2.73-4.49 4.2 4.2 0 0 0-3.63-2.41 16.68 16.68 0 0 0 1-6.35c6.72-.39 13.14-2.12 18.53-6a22.84 22.84 0 0 0 6.92-1.77c5.3-2 3-10.6-2.4-8.5-.93.35-1.82.65-2.71.89a4.08 4.08 0 0 0-3.19-.39 10.39 10.39 0 0 0-3.4 1.5 4.78 4.78 0 0 0-1.7 2 22 22 0 0 1-5 2.16c1.21-3.91-4-8.07-7.53-4.54-1 1-2 2-2.82 3-3.51 3.8-7 7.64-11.38 10.48-4.7 3.13-.58 10.57 4.19 8-.07.18-.14.36-.19.53a17.58 17.58 0 0 0-1 6 4.47 4.47 0 0 0 3.3 4.3l.45.09a9.27 9.27 0 0 0-.45 2.71 3.63 3.63 0 0 0 .13.93c-1.43 1.51-2.86 3-4 4.47a3.15 3.15 0 0 0 0 4.07c-1.15.3-2.24.59-3.18.93-2.4 1-1.2 5.4 1.5 4.4 6.88-2.41 15.48-3.41 15.98-12.31zM1089.57 621.5a13.73 13.73 0 0 0-7.87-3.7c-3-.34-5 3.41-3.89 5.91-2.26-.87-4.46-1.86-6.51-2.51a4.07 4.07 0 0 0-5.07 3.14 24.08 24.08 0 0 0-3.13-1.44 3.79 3.79 0 0 0-4.37 1.59 4.59 4.59 0 0 0-4.74 2.21c-.4-.12-.81-.24-1.2-.4-1.6-.6-3.2-1.3-4.8-2s-3.42-1.36-5.11-2.06l.61-.54c2.4-1.7-.5-4.4-2.5-2.8a4.47 4.47 0 0 1-2.83 1.23c-1.24-.63-2.44-1.4-3.67-2.1l-.59-.53a2.75 2.75 0 0 0-2-.69l-.31-.11a3.37 3.37 0 0 0-2.7.26 5.67 5.67 0 0 0-4.1 3.24c-2.67 5.35 3.28 8.55 7.13 6.82a5.52 5.52 0 0 0 5.17 1.58 2.3 2.3 0 0 0 .56-.22c.71.36 1.42.7 2.14 1 2.9 1.3 5.9 2.5 8.8 3.7 3.36 1.39 8.2 3.65 11.93 2.28a56.85 56.85 0 0 0 5.37 3.22c2.6 1.3 6.5-.2 6.2-3.6a8.1 8.1 0 0 0 6.3-1.17 4.88 4.88 0 0 0 1.08-1.06 20.26 20.26 0 0 0 10.62.46 4.17 4.17 0 0 0 3.1-4v-.13a8.52 8.52 0 0 0 2.21-2.17c2.54-3.59-2.62-7.69-5.83-5.41zM1155.92 569.58a9.06 9.06 0 0 0 6.58 1.22c4.1-.9 5.5-4.4 6.8-7.9 1.6-4.3-5.7-7.4-7.5-3.2-.3.8-.7 1.5-1 2.3-.2 1.2-.7 1.2-1.4.1-1.4-.4-3.1-2.4-4.3-3.2-2.1-1.5-5.6 0-6.1 2.5-.4 1.7 0 4.4-.6 6-1.21 2.93-4.34 2.37-6.85 1.58l-.15-.08-1-.33c-4.4-1.5-7.4 5.5-3.2 7.5 2.1 1 2.1 4 .5 5.6-1.5 1.4-4.1 1-5.9.8-2.8-.4-4.3 2.9-3.9 5.1a7.58 7.58 0 0 0 .7 2 5.58 5.58 0 0 0-.5 6 6.14 6.14 0 0 0 9.9 2.33c1.2 3.67 4.1 6.37 8.4 5 2.6-.8 3.3-3.3 2.3-5.7a16.72 16.72 0 0 0-3.48-5c2.63-1 5.28 5.13 5.38 6.68.1 3.2 4.5 4.5 6.1 1.7a24.48 24.48 0 0 1 1.2 4.4h.22c.3 3.49 5.58 3.46 5.58-.1a13.26 13.26 0 0 0-.12-1.95 7.33 7.33 0 0 0 0-1.25c0-.12.06-.24.08-.36 2 1.59 5.34-1 3.82-3.24-2.42-3.62-4.76-3.46-6.51-1.7a5.73 5.73 0 0 0-4.67-2.63c-1.86-4.69-6.34-8.91-10.88-9 .12-.21.24-.41.35-.63a12.67 12.67 0 0 0 1.21-6.6 11.33 11.33 0 0 0 5-2.1 9.62 9.62 0 0 0 3.94-5.84zM1377 536.5a7.22 7.22 0 0 0-2.5-4.1 3.91 3.91 0 0 0-6 .8 7.33 7.33 0 0 0-.87 1.71c-2.19 1.08-4.28 2-4.43 5-.1 3.7 3.4 6.1 6.8 6a5.59 5.59 0 0 0 4.24-1.81 26 26 0 0 0 5.56.71c5.2.1 5.1-7.7 0-8a16.36 16.36 0 0 1-2.8-.31zm-2.7-.7s0-.08.05 0zM1393.5 519.3a5.83 5.83 0 0 0 8.5-2 7.72 7.72 0 0 0 .91-4 12.15 12.15 0 0 0 1-2.43 3.7 3.7 0 0 0-1.7-4.1 3.5 3.5 0 0 0-4.4.6 6.17 6.17 0 0 0-1.56.05c-2.8.59-3.87 3.71-3.27 6.29l-.63 1.11a3.27 3.27 0 0 0 1.15 4.48zM1430.7 491.8c-2.6-3.3-8.4 1.1-5.9 4.5 1.3 1.7 2.7 4 2.2 6.3a4.05 4.05 0 0 0-.06 1.13l-.24.07a12.09 12.09 0 0 1-3.8.6c-3.4.1-6.6-.8-10-.6s-3.4 5.2 0 5.2c5.5 0 10.8 2.1 16.3.4 2.8-.91 5.32-3.1 4.73-5.8 1.35-3.88-.83-8.66-3.23-11.8zM1413.3 486.1a12.56 12.56 0 0 1-1.3 2.3 2.18 2.18 0 0 0 2.1 3.6l1.9-.3a1.78 1.78 0 0 0 1.57-2.6 17.93 17.93 0 0 0 1.13-1.5 2.19 2.19 0 0 0 .49-.78s.43-.28-.09 0a3.46 3.46 0 0 0-.4-6.1c-2.32-1-5.38 1.15-4.67 3.73a3.17 3.17 0 0 0-.13.47zm.8-1.9v.13c-.04-.07-.03-.13 0-.13zM147.1 633.8a6 6 0 0 0-3.18-.92 3.23 3.23 0 0 0-2.92-.38 3.31 3.31 0 0 0-1.5 3.6c.2.48.42.94.66 1.39a3.32 3.32 0 0 0 .12.44 4.67 4.67 0 0 0 .12.47h.06a3.6 3.6 0 0 0 .64.85c.2.2.3.4.5.5a3.87 3.87 0 0 0 3.83.81 3.38 3.38 0 0 0 1.67-.51 3.58 3.58 0 0 0 0-6.2zm-4 6.09a2.79 2.79 0 0 1-.6-.29zm0 0zm0 0zm2.49-5.49zM91.2 590.6a2 2 0 0 0 1.25-.49c.93.31 2.33-.72 1.65-1.91a4.35 4.35 0 0 0-1.34-1.44 10 10 0 0 0-.4-1 2.62 2.62 0 0 0 .14-2.27 2.84 2.84 0 0 0-3.3-1.6 2.79 2.79 0 0 0-2 2.7 2.61 2.61 0 0 0 1.6 2.47 1.54 1.54 0 0 0-.1.23c-.7 1.81.6 3.31 2.5 3.31zM629.1 456.4a2.16 2.16 0 0 0-2.4 1 3.35 3.35 0 0 0-3.1-.06 4.23 4.23 0 0 0-2.3 3.7 4.46 4.46 0 0 0 .63 2.21 2.62 2.62 0 0 0 .17.49 2.83 2.83 0 0 0 1.59 1.52 3.08 3.08 0 0 0 4-.22 3 3 0 0 0 .81-2.63l.29-.27a6.65 6.65 0 0 0 1.7-3.2 2.08 2.08 0 0 0-1.39-2.54zM659 484.45a3 3 0 0 0 1.48-.65c1.1-1 2.9-1 4.2-1.5a1.46 1.46 0 0 0 .1-2.8 9.67 9.67 0 0 0-4.17-.62 10.79 10.79 0 0 0-6.83-5.18 7.18 7.18 0 0 0-1.17-.2c-1-2-4.61-2.43-6.13-.3l-.21.3a7.08 7.08 0 0 0-1.09.4c-2.7 1.3-1.9 5.5.8 6.2a6.1 6.1 0 0 0 1.16.18 8.44 8.44 0 0 0 .24 1 3.3 3.3 0 0 0 2.68 2.27 2.43 2.43 0 0 0-1 1.77 5.67 5.67 0 0 0-.84 2 6.46 6.46 0 0 0 1.6 6.6 6 6 0 0 0 5.7 1.6c2.7-.8 3.6-3.4 3.1-5.9a2.6 2.6 0 0 0-2.09-2.11h.59a2.13 2.13 0 0 0 1.88-3.06zM645.9 474c-.18.31-.19.32 0 0zm6.72 8.9a3 3 0 0 0 .68-.8 6.74 6.74 0 0 0 .72-1.89 4.56 4.56 0 0 1 2.08 2.39 3.17 3.17 0 0 0 .19.39 36.66 36.66 0 0 0-3.67-.09zM660.5 502.4a20.48 20.48 0 0 0 1.9 1.5 3 3 0 0 0 4.88-3.33 2.63 2.63 0 0 0-.88-3.47c1.08-1.8-.81-4.59-3.07-3.29a5.59 5.59 0 0 0-2.24 2.66h-.16a2.77 2.77 0 0 0-1.9 3.3 5.26 5.26 0 0 0 1.47 2.63zm5-4.33zM682.6 503.5a7.35 7.35 0 0 0-1.73 2.43 6.28 6.28 0 0 0-3.85.27 13.68 13.68 0 0 0-6.52-1.6c-4.2-.1-4.2 6.7 0 6.5a26.14 26.14 0 0 0 2.8 0 1.26 1.26 0 0 1 .31.06v.81c.2 3 4.9 4 5.69.7a8.14 8.14 0 0 0 .2-2.5 2.55 2.55 0 0 1 1.7.5 2.1 2.1 0 0 0 3.1-1.8 4.9 4.9 0 0 1 1-2.6c1.6-1.97-.9-4.57-2.7-2.77zM791.9 509.2c.2.5.5 1 .7 1.5a2.17 2.17 0 0 0 1.55 1.23l.25.57c.09.17.17.35.26.52 1.1 2.1 4.7.7 3.9-1.6a22.49 22.49 0 0 0-1.51-3.39c-.11-.41-.21-.81-.29-1.21a6.17 6.17 0 0 1-.2-1.8v-.09c.21 0 .59.09.67.09a1.74 1.74 0 0 0 1.1-3.3c-3.1-1.1-5.4.7-5.6 3.8v.48a2.4 2.4 0 0 0-.83 3.2zM759.07 463.26c-1.17-1.21-3.81-.94-4.17 1-.4 2.6.4 4.6 2.9 5.6h.17a4.19 4.19 0 0 1 .4 1.45c-1.68-.06-3 1.87-2.1 3.11a1.06 1.06 0 0 0 .83 1.6 20 20 0 0 1 2.4.4 1.71 1.71 0 0 0 2.07-1.61l.13-.09a5.19 5.19 0 0 0 1.1-3.8 8.65 8.65 0 0 0-1.39-4.08c0-.11.07-.21.09-.32a2.59 2.59 0 0 0-2.43-3.26zM759.5 450.6a4.78 4.78 0 0 0-2.24 3c-1.23 2 .15 4.55 1.64 5.93a21.77 21.77 0 0 0 4.6 2.8c3.3 1.7 6.3-3.3 3-5.1-.27-.15-.61-.3-1-.47a4 4 0 0 0-.53-2.83 5 5 0 0 0-2.8-2.26 1.79 1.79 0 0 0-2.67-1.07zm1.81 5.5h.05-.06zm0 0zM806.9 510.3a4.64 4.64 0 0 0-5 2.8 15.67 15.67 0 0 0-.8 5.2c-.2 1.5 1.4 2.8 2.8 2.8s3-1.3 2.8-2.8a7.67 7.67 0 0 0-.1-.9c0-.2-.1-.5-.1-.7a8.6 8.6 0 0 1-.1-1.6v-.4c0-.1 0-.1.1-.2h-.08.08c-.09-.13.15-.09.05 0h.37a2.05 2.05 0 0 0-.02-4.2zM806.48 514.47h-.05zM684.5 598.8a3.57 3.57 0 0 0-.66-4.68 8.33 8.33 0 0 0-2.54-3.42c-1.5-1.3-3.4-2.7-5.2-1.1-2.3 2.1-2.1 6.1-.6 8.7 1.9 3.2 6.8 4 9 .5zM650.7 574.9a6.5 6.5 0 0 0 2 1.09 2.56 2.56 0 0 0 1 3 1.91 1.91 0 0 0 3.2-.9 7.77 7.77 0 0 0-.1-6.5c-1.1-2-3.1-3-5.1-3.8a1.92 1.92 0 0 0-1.57.21 2.9 2.9 0 0 0-3.33 3.49l.3 1.2a2.62 2.62 0 0 0 1.9 1.9c.56.08 1.13.19 1.7.31zM736.2 594.2c.6-1.4-.5-3-1.7-3.5a3 3 0 0 0-3.7 1.2 5.53 5.53 0 0 0-.71 1.18 8.46 8.46 0 0 0-4.19-1.38c-2.2-.1-3.3 2.1-3 4 .5 3.4 3.4 7.4 6.9 8.2a5.36 5.36 0 0 0 1.11.12v.11c-.17.28-.37.57-.57.87-1.6 2.3 2.1 5.2 3.9 3a7.16 7.16 0 0 0 1-1.48c1.55-2.59 2.14-5.41.49-8a12.54 12.54 0 0 1 .47-4.32zM803.3 553.3c-4.1-.7-6.2 2.7-7.1 6.2a2.55 2.55 0 0 0 3.1 3.1 10.26 10.26 0 0 0 5.3-4.1 1.84 1.84 0 0 0 .24-1.58 2.8 2.8 0 0 0 .26-.82 2.63 2.63 0 0 0-1.8-2.8zM938.2 505.5c3.89 4.25 9.43 2.59 13.68-.5 2.87 1.52 6.51.25 9.57-1.28a2.54 2.54 0 0 0 .84.48 11.2 11.2 0 0 0 5.7.6 19.49 19.49 0 0 0 5.1-2.3c2.7-1.6.3-5.8-2.5-4.2a15.16 15.16 0 0 1-3.6 1.8 4.8 4.8 0 0 1-2.57-.19 3.12 3.12 0 0 0-4.53-2.21c-1.06.48-2 1.06-3.09 1.46.12-2.58-3-5-5-2.46-1.6 1.9-6.7 7.2-9.1 4.5-2.7-3.1-7.2 1.4-4.5 4.3zM973.3 510.8c.3 2.3.7 3.8 3 4.6a9.43 9.43 0 0 0 5 .1c3.3-.8 5.9-3 8.7-5 3.1-2.3.3-7.4-3.1-5.2-1.5.9-2.9 1.9-4.4 2.8a10.24 10.24 0 0 1-3.24 1.43 3 3 0 0 0-2.86-1.93c-1.5 0-3.3 1.5-3.1 3.2zM1000.4 516.6c4.6.1 8-2.9 11.7-5.2 2.7-1.7.3-5.4-2.4-4.2-3 1.3-5.9 4-9.3 3.8s-3.5 5.5 0 5.6zM1190.78 488a3.38 3.38 0 0 0 4 2.25c5.3-1 8.2-6.5 11.1-10.6 1.1-1.5.3-3.8-1.2-4.7a3.53 3.53 0 0 0-4.7 1.2c-1.71 2.38-3.69 6.37-6.46 7.28 1.3-3.07-3.5-5.76-5.14-2.58a49.33 49.33 0 0 1-4.5 7.3c-1.7 2.3-3.8 4.2-5.5 6.5-1.4 1.9 1.4 4.5 3.2 3.2a38.71 38.71 0 0 0 9.2-9.85zM1228 496.9a2.76 2.76 0 0 0 3.9 3.9c5.1-4.9 10.5-9.6 15.2-14.8a3.37 3.37 0 0 0 .6-.95 2.42 2.42 0 0 0 2.6-1.35c1.4-2.5 3-5 4.3-7.6a2.56 2.56 0 0 0-4.4-2.6c-1.6 2.4-3.2 4.9-4.7 7.4v.08a3 3 0 0 0-2.66.72c-5.34 4.7-10.04 10-14.84 15.2zM1259.2 468.1a60.55 60.55 0 0 0 7.6-9.9 2.35 2.35 0 0 0-.14-3 3.08 3.08 0 0 0 1.54.06 11.18 11.18 0 0 0 5.85-3.55 4.15 4.15 0 0 0 4.65-2.45 4.29 4.29 0 0 0-1.18-4.87 47 47 0 0 0 4.68-6.71c4.18-.79 7.54-3.58 10.9-6.21 2.4-1.9-1-5.2-3.3-3.3a44.17 44.17 0 0 1-5.51 4.25 3.47 3.47 0 0 0-6.39-1.45c-1.79 2.33-3.45 4.91-5.26 7.35h-.06a5.4 5.4 0 0 0-4.08-.54c-1.9.5-3.4 2-4.8 3.4-1.6 1.5-1.5 4.9.8 5.8l.15.05v.15a3.83 3.83 0 0 0 .59 3 3.13 3.13 0 0 0 0 4.13 2.7 2.7 0 0 0-2.74.61c-2.9 2.6-5 5.9-7.8 8.7-3 2.88 1.6 7.38 4.5 4.48zM1303.5 436.5c-2.5 1.3-4.7 2.6-7.6 2.3-1.6-.2-3.1 1.5-3.1 3.1a3.24 3.24 0 0 0 3.1 3c4.1.5 7.2-1.5 10.4-3.7a2.74 2.74 0 0 0-2.8-4.7zM1305 456c-3 0-3 4.6-.1 4.6a14.82 14.82 0 0 0 4.2-.2 5.63 5.63 0 0 0 2.51-1.48 3.65 3.65 0 0 0 2.69 1.48 22.33 22.33 0 0 0 7.66-1.15 18.79 18.79 0 0 0 4.64-1.15c4.21-1.66 2.85-8-1.71-7.15a3.74 3.74 0 0 0 .07-2.75 7.26 7.26 0 0 0 5.14.2c2.4-.8 3.9-2.7 5.4-4.6a2.93 2.93 0 0 0 0-4 18.24 18.24 0 0 0 1.92-2.48c1.32-2-.36-3.94-2.22-4.12 1.28-2 2.45-4.18 3.72-6.38 1.7-2.9-2.3-6.1-4.7-3.6a65.41 65.41 0 0 0-5.3 6.5 19.89 19.89 0 0 1-3.86 4.12 3.67 3.67 0 0 0-4.24 4.48c0 .3.1.7.1 1a3.75 3.75 0 0 0 3.57 2.76 3.07 3.07 0 0 0-2.89 3.31 3.5 3.5 0 0 0-3.08 1.23 9.92 9.92 0 0 0-2.73 5.67 8.37 8.37 0 0 0-3.87 2.23 3.68 3.68 0 0 0-.39.46 1.82 1.82 0 0 0-1.91.44c-1.22 1.08-3.22.58-4.62.58zM1320.4 425.3c.1-1.1 2-2.3 2.8-3a28.92 28.92 0 0 0 3.5-3.5 29.85 29.85 0 0 0 2.26-3.16 3.18 3.18 0 0 0 3.44-.94c.24-.32.44-.64.64-1s.64-.81 1-1.21a24.86 24.86 0 0 0 2-1.94 4 4 0 0 0 .4-5c0-.25.09-.5.1-.76.1-2.4-2.9-4.2-4.9-2.8a9 9 0 0 0-3.06 3.74 2.79 2.79 0 0 0-2.24 1.46 38.62 38.62 0 0 1-7.3 9.7c-2.7 2.5-5.2 4.5-5.4 8.4-.44 4.51 6.46 4.51 6.76.01zm9.8-20.4c0-.09 0-.07 0 0zM1316.4 406.1a4 4 0 0 0 5.3-1.3c3.3-4.3 6-9 9-13.5 2.8-4.1-3.9-8.1-6.7-3.9-3 4.5-5.7 9.2-9 13.5-1.3 1.7-.2 4.3 1.4 5.2zM1339.4 378.4l1.07-.81a12.14 12.14 0 0 0-1.57 3.81c-.4 2.5 3.5 3.6 4 1 .67-3.46 3.4-5.85 4.31-9.09l.39.39a1.2 1.2 0 1 0 1.7-1.7l-1.44-1.44q.58-.7 1.12-1.42a3.31 3.31 0 0 0 2.41 1.06 10.19 10.19 0 0 0 8.7-4.8 3.12 3.12 0 0 0-.8-4.1 3.18 3.18 0 0 0-4.1.2 1 1 0 0 0-.22.18 5.36 5.36 0 0 1-.48.32c-.4.3-.9.5-1.3.8a3.46 3.46 0 0 1-1.7.5 3.18 3.18 0 0 0-1.25.26c-1-1-2.65-1.4-3.65-.06a49.36 49.36 0 0 1-10.1 9.8c-3.19 2.1-.19 7.3 2.91 5.1zM1443.4 434.9c-2.4 2.1-11.2 10.1-14.5 7.3-2.83-2.34-6.69.53-6.23 3.31a5.12 5.12 0 0 0-.55.56 2.66 2.66 0 0 0-3.82.53c-.19.25-.38.51-.57.77a3.39 3.39 0 0 0-2.63 2.93 4.3 4.3 0 0 0 .09 1 20.65 20.65 0 0 1-3.14 4 3.28 3.28 0 0 0-3.65 3.89 3.55 3.55 0 0 1 .2 1c.4 2.1 2.9 2.7 4.6 1.9 3.15-1.58 5.07-4.46 6.69-7.56a9.15 9.15 0 0 0 7.8-5c7.33 2.12 15.6-4.74 20.51-9.82 3.1-3.11-1.5-7.61-4.8-4.81zM1405.6 440.6c-4 5.1-9.5 15-16.8 15.4a3.74 3.74 0 0 0-3.6 3.64c-1.14.85-2.19 1.8-3.3 2.76s-2.1 2-3.4 1.9c-4.1-.3-4.1 6.1-.1 6.2a8.37 8.37 0 0 0 5.37-1.89 2.79 2.79 0 0 0 3 2.35h.12a6.11 6.11 0 0 1 1.3.3c2.76 1.05 4.26-2.95 2.5-4.56a29.58 29.58 0 0 0 1.43-3.54c8.41-2.13 13.9-10.6 19-17.1 2.98-3.86-2.42-9.36-5.52-5.46zM1386.9 423.3c-2.9 2.7-5.4 5.4-5.9 9.5-.19 1.69 1.47 3.18 3.08 3.36.36 2.16 2.64 4.11 5 2.64a19 19 0 0 0 2.32-1.64c-2.63 2.78-5.34 5.5-8 8.24-3.1 3.2 1.8 8.1 5 4.9 5-5 9.9-9.9 13.7-15.9 1.8-2.9-2.6-6.5-4.9-3.7-.38.47-.79.91-1.18 1.37.87-1.26 1.68-2.58 2.48-4 1.5-2.5-1.8-4.9-3.9-3s-4 4-6.13 5.79a46 46 0 0 1 2.93-4.19c2-2.67-2.2-5.57-4.5-3.37zM1381.6 499.7a12.88 12.88 0 0 0-3.46 1.73c-1.12-1.67-3.47-2.47-5.24-.53a7.85 7.85 0 0 0-2.33 6.48l-.3.19c-2.17-.66-4.85.44-4.67 3.33 0 .4.1.7.1 1.1.2 2.9 2.9 4.3 5.5 3.1a35 35 0 0 0 7.39-5 13.28 13.28 0 0 0 1.31-.9c.36-.3.72-.63 1.09-1a26.62 26.62 0 0 1 3.31-2.13c3.4-1.87 1.1-7.57-2.7-6.37zM1303.5 544.4a1.57 1.57 0 1 0 2.8-1.4c-.9-1.8 3.2-4.8 3.8-6.8a5.66 5.66 0 0 0-1.6-6c-2.3-1.94-5.26-1.64-8.17-1.1-.85-.09-1.69-.22-2.52-.39.65-2.18 2.25-4.64 2.79-6.11 1-2.5-1.5-4.4-3.6-4.7s-3.2.6-5.2 1.2c-3 1-5.6-.3-8.4-1.4a3.29 3.29 0 0 0-.67-.18c3.07-2.17 4.51-6.45 2.87-9.82a8.59 8.59 0 0 0-4-3.8 5.44 5.44 0 0 0-4.67-.8 4 4 0 0 0-1.67 1.13 1.77 1.77 0 0 0-.53.27 7.51 7.51 0 0 0-2.4 10.1 7.8 7.8 0 0 0 7.49 4.12c-1.46 1.71-1.68 4.71.71 5.78a26.64 26.64 0 0 0 7.38 2.68 3.8 3.8 0 0 0-.8 2 6.11 6.11 0 0 0-4.37 1.82c-2.9 2.9-.6 7.3 2.8 8.4 2.7.9 5.68-.28 7.65-2.28a2.56 2.56 0 0 0 3.52-1l.59-.18a56.57 56.57 0 0 0 7.16.8 24.85 24.85 0 0 0-1.92 3.12c-.54 1.84-.04 3.04.96 4.54zm-23.41-33.24v-.11.13zm.07-.24zM1244.4 550.8a14.08 14.08 0 0 0 0 4.1c.2 1.2 1.6 1.6 2.6 1.4 2.4-.4 4.5-2.2 6.3-3.6s5-4.7 7.4-4.8c3.7-.1-.2 6.5-1 7.8-1.4 2.4-3 4.7-3.2 7.5-.2 2.5 4 2.6 3.9 0-.1-4.9 10-14.8 2.4-18.8-5.11-2.77-9.81 4-14.31 6.67-.31-1.92-3.63-2.66-4.09-.27zM1252.9 582.2c2.3 5.6 7.6 13.8 14.6 13.1a3.72 3.72 0 0 0 3.6-3.6c-.1-4.26-3.74-11.07-9-9.73a9 9 0 0 0-5.5-3.39l-.08-.11c.52.09 1.06.17 1.64.23a1.9 1.9 0 0 0 1.8-1c.45-.94.82-1.92 1.19-2.89a2.26 2.26 0 0 0 1.11-.91c.07-.11.13-.24.2-.35l.2.15a12.74 12.74 0 0 0 .64-1.92c.93-2.52 1.14-5.41 1.76-7.88a1.21 1.21 0 0 0-2-1.2c-3 3.2-6.2 6.3-7.5 10.6a1.74 1.74 0 0 0 0 .23c-.12-.08-.25-.14-.37-.23-1-.5-2.6-.4-3.1.8-.88 2-.39 4.32.78 6.6a2.14 2.14 0 0 0 .03 1.5zM1267.3 608.4c-1.7 1.9-2.3 3.2-4.9 2.7-3-.6-5.6-2.4-8.7-2.9a14.07 14.07 0 0 0-7.6.9c-2 .7-6.9 2.5-8-.8-1-3.1-4.4-3.8-6.8-1.8 1.1-.9-.9-1.5-1.9-2.5-.9-.8-1.7-1.6-2.6-2.3-1.69-1.29-4.77-1.69-5.88.77-3.25 2.51-5 6.67-2.92 10.43a3.38 3.38 0 0 0 3.6 1.5 4.87 4.87 0 0 0 4-3.66c2 1.8 4.24 3.32 6.63 3.35a12.7 12.7 0 0 0 5.83 3.61 15.19 15.19 0 0 0 6 .6c2.4-.3 4.5-1.8 6.8-2 4.5-.3 8.6 3.5 13.3 3.5 4 0 6.6-2.6 9.1-5.4 3.74-4-2.26-10.1-5.96-6zM1324.4 583.1c-1.12 0-3.46.64-5.75 1a9.58 9.58 0 0 0-6.65-3.31 6.09 6.09 0 0 0-5.59 3.23 3.17 3.17 0 0 0-1.51 1.57c-2.3 4.7-3.7 10.9 2.6 13.1a7.83 7.83 0 0 0 4.68.09 11.64 11.64 0 0 0 7.32 3.81 3.85 3.85 0 0 0 3.8-2.9 13 13 0 0 0-.69-8.18c1-.24 1.93-.46 2.89-.62 4.4-.69 3.4-7.99-1.1-7.79zM1390.7 553c-2.3 2.5-5.2 4.1-7.8 6.1-2.3 1.7-4.4 4.7-7 5.9s-5.1-.7-7.7.6c-1 .48-2.53 2.92-3.67 3.53a2.21 2.21 0 0 0-1.63-.33c-.3.1-.7.1-1 .2a2.34 2.34 0 0 0-1.4 3.4c2 2.8 4.2 2.9 7.2 1.4 1-.46 3.67-1.7 2.45-2 1.64.21 3 1.14 4.85 1 4-.4 7.1-3.1 10-5.6 3.7-3 8.2-4.9 11.4-8.5 3.4-3.9-2.2-9.6-5.7-5.7zM70.55 589.21a6.44 6.44 0 0 0 .55-3.41 3.58 3.58 0 1 0-7.13.56 2.85 2.85 0 0 0-1.47 3 5 5 0 0 0 2.3 3 2.93 2.93 0 0 0 2.87.14 27.55 27.55 0 0 1 5.73 3.86c2.1 1.9 5.3-1.2 3.1-3.1a31.4 31.4 0 0 0-5.95-4.05zM75.1 541.5c-2.59-.13-3.93 1.13-5.39 2.41a4 4 0 0 0-5.81 2.29c0 .15-.09.35-.14.58a3.74 3.74 0 0 0-3.93.29 14 14 0 0 0-3.12-2.56 2.87 2.87 0 0 0-3.5.5 6.2 6.2 0 0 0-1.21 5.48c-2.4-.78-5.13 1.05-4.61 3.52a62.12 62.12 0 0 1-7.18-.32c-.73-.08-1.46-.19-2.18-.32a2.4 2.4 0 0 0-2.62-2c-1.3 0-2.62.11-3.94.14-.82 0-1.63 0-2.43-.07s-1.48-.27-2.23-.37v.11h-.11a3.27 3.27 0 0 0-1 0 14.72 14.72 0 0 1-3.92-1.25c0-2-2.36-3.75-4.12-1.83a10.94 10.94 0 0 1-1 1.1 2.51 2.51 0 0 0 0 3.5 16.93 16.93 0 0 0 6.49 3.3 2.47 2.47 0 0 0 1.85 1.2c4.5.8 8.8 2.2 13.3 2.8 4.8.7 9.8.5 14.7.8a3.18 3.18 0 0 0 2.83-1.67 14 14 0 0 0 4.34 5.16 3.09 3.09 0 0 0 4.1-1.1 8.49 8.49 0 0 0 .87-5.89 4 4 0 0 0 .89-1.52 3.89 3.89 0 0 0 .44-.19 8.05 8.05 0 0 0 2.53-2.28 4.46 4.46 0 0 0 1.06-.11c2.6-.6 3.7-3.7 6-4.3 4.34-1 3.14-7.2-.96-7.4zM88.7 549.8a2.9 2.9 0 0 0 2.6-1.5c1.66-3.37.91-6.45-.76-9.29a3.57 3.57 0 0 0 1.9-1.65 9.44 9.44 0 0 0 5.36.53c3.3-.8 3.9-3.6 5.4-6.2 1.7-3-2.4-6.5-4.9-3.8-.8.8-1.7 2.9-2.8 3.2s-3.7-1.2-4.9-1.4a3.37 3.37 0 0 0-4 2.21l-.18-.11c-1.1-.6-2.2-1.3-3.3-1.9a2.81 2.81 0 0 0-4.08 2c-1.83.46-3.35 2.39-2.12 4.43 2.68 4.58 4.98 13.88 11.78 13.48zM131.1 536.3c1 .1 2.1.5 3.2.7 2 .4 3.9.7 5.9 1 7.9.9 15.7-.4 20.4-7.4 2.6-3.9-3.5-7.3-6.2-3.6-4.2 5.8-12.7 4.3-18.7 3.1-1.7-.3-3.3-.8-5-1-1.4-.1-2.8.5-4 .4-1.91-.15-3.53-1.93-5.38-3.08h.08c3.7-1 5.9-5.5 7.3-8.7 1.6-3.9 1.3-7.8.2-11.8-2.9-10.6-14.7-10-21.1-2.9-2.47 2.78-.78 6.4 1.74 7.67-4.13.16-9.36 1.3-7.24 6.33 1.7 4.1 6.4 3.6 9.6 5.5 1.68 1 3.33 2.51 5.16 3.4a3 3 0 0 0-1.86 3 9.67 9.67 0 0 0 3.48 6.23c1.7 2.77 3.24 5.44 6.92 5.77 2.24.19 3.69-2.41 2.91-4.3a6.57 6.57 0 0 1 2.59-.32zm-12-16.4c-1.3 0-3.8-2.6-5-3.2-1.7-.9-3.5-1-5.3-1.6l.22-.1a9.4 9.4 0 0 1 3.6-1.1 1.61 1.61 0 0 0 .36-3.12 4.26 4.26 0 0 0 1.44-1.18c9.08-11.3 8.38 10.5 4.68 10.3z"/><path class="cls-1" d="M180.4 530.3c2-.5 3.3-3.2 2-5a14.11 14.11 0 0 0-3.9-3.8c-2.25-1.42-4.66.63-4.68 2.81a15.31 15.31 0 0 1-9.72-3.81c-2.9-2.6-7.2 1.7-4.3 4.5 5.2 5.1 13.6 7.1 20.6 5.3zM147.3 482.1a3 3 0 0 0-4-.43l-.31-.27c-2.22-1.92-4.66-3.65-6.5-5.89l-.3-.81-.22.12c-.13-.18-.27-.34-.38-.52a2.72 2.72 0 0 0-1.33-1.14 17.07 17.07 0 0 0-1.57-1.56 3 3 0 0 0-5 1.3c-1.06 4.06 1.16 6.41 3.89 8.83a17.78 17.78 0 0 0 2 4.07c2.6 4 6.9 3.4 11.1 3.1a3.76 3.76 0 0 0 1.22-.29 31.06 31.06 0 0 0 4 2c1.5.5 4.5.1 5.7 1a2.67 2.67 0 0 0 3.6-.42c2.32 4.51 7.18 7.84 12.3 7.52 6.3-.4 15.8-5.3 13.5-12.9-1.1-3.5-4.1-6.9-6.9-9.3-4.3-3.6-7.8-2.5-12.7-1.3a3.86 3.86 0 0 0-2.28 1.46 8.89 8.89 0 0 0-5 6.24 11 11 0 0 0-.21 4.2 8.41 8.41 0 0 0-3.09-1.3c-2.92-.81-5.22-1.51-7.52-3.71zm17.2 1.5a4.26 4.26 0 0 0 .32-.44 3.94 3.94 0 0 0 2.54.32c1.29 2 4.73 1.71 4.64-1.17.9.2 2.4 2.1 3.1 2.8 2.3 2.6 3.1 3-.3 4.6-2.3 1.1-4.3 1.8-6.6.5-1.8-1-3.5-2.6-3.8-4.7a5.92 5.92 0 0 1 .1-1.91zM1148.47 538.19v.41a3.61 3.61 0 0 0 2.6 2.6c2 .4 3.8 1.5 5.8 2a4 4 0 0 0 2 0 2.38 2.38 0 0 0 3-2.38 4.51 4.51 0 0 0-.11-.86 3.72 3.72 0 0 0-1.22-3.32 6.16 6.16 0 0 0 .72-3.18 4.15 4.15 0 0 0-1.06-2.42 3.81 3.81 0 0 0 .06-.58 3.89 3.89 0 0 0-2.93-3.76 5.42 5.42 0 0 0-5-2.84c-4.06.1-5.67 5.59-3.26 8.4a3.29 3.29 0 0 0-.07 1.5 5.27 5.27 0 0 0-.37.5 3.64 3.64 0 0 0-.16 3.93zM1183.22 541.19a24.14 24.14 0 0 0 .68-5.89c-.1-4-5.5-4.5-6.7-.9-1 2.8-2 5.7-1.6 8.7a6.7 6.7 0 0 0 .23 1 13.4 13.4 0 0 0 1.47 4.72c1.7 3.7 8.2 1 6.6-2.8 1.25-1.52.94-4.09-.68-4.83zM658.8 591.8a3.53 3.53 0 0 0-2.31-3.14 5 5 0 0 0-3.57-3.82 1.74 1.74 0 0 0-1.52-.74c-5.26.48-4 6.48-.6 8.8a5.57 5.57 0 0 0 4.7 2.2 3.33 3.33 0 0 0 3.3-3.3zM589.9 578.2c-.8-.3-1.5-.6-2.3-.9a1.94 1.94 0 0 0-2.21.29 2.93 2.93 0 0 0-1.69.31 2.87 2.87 0 0 0-1.2 2.9 7.9 7.9 0 0 0 2.29 4.65 33.59 33.59 0 0 0 1 3.65c.8 2.2 4.4 2.1 4.3-.6 0-.2 0-.39-.06-.59h.06c0-.17-.08-.33-.12-.5-.06-.42-.15-.85-.25-1.26a2.76 2.76 0 0 0-.53-4.34c-.14-.09-.26-.19-.39-.29 2.32.28 3.07-2.63 1.1-3.32zM574.5 541.9c-2 0-3.4-3.2-4.4-4.6a10.84 10.84 0 0 0-4.18-3.76 11.35 11.35 0 0 0-2.82-2.84 3.45 3.45 0 0 0-5 2c-.1.3-.1.7-.2 1a3.24 3.24 0 0 0 2.81 4c.4.61.84 1.19 1.29 1.77a2.54 2.54 0 0 0 1.15.81 14.13 14.13 0 0 0 .67 1.72c-1.56 1.72-1.63 3.8-1.22 6.37a2.27 2.27 0 0 0 1.73 1.88c0 3.18-.42 6.4-.75 9.52l-.18.9h.09c0 .3-.06.59-.09.89-.4 4.2 5.5 4.3 6.8.9a27.67 27.67 0 0 0 1.47-4.94c1.89-1 3.11-3.28 1.53-5.26a22 22 0 0 1-1.7-2.5 3.26 3.26 0 0 0-1.25-1.3 30.61 30.61 0 0 0-.87-5.37v-.31c1.34 1.51 3 2.76 5.23 2.58 2.29.24 2.29-3.46-.11-3.46zM553.56 519.51v-.08zM553.62 519.38v-.11l-.05.12zM553.6 519.4z"/><path class="cls-1" d="M550 521.6a3.4 3.4 0 0 0 3.51-2 .76.76 0 0 1 .15-.34v-.07.07c0-.05.09-.09.13-.07l-.1.13-.07.06h.05l-.08.11v.06l.14-.13a.5.5 0 0 0 .08-.11l.32-.19s.05 0 .05-.05a2.78 2.78 0 0 0 .45-.15l1.3-.3a3.31 3.31 0 0 0 2.4-3.7c-.2-1.5-1.7-3.2-3.3-3a11.58 11.58 0 0 0-4.8 1.4 6.47 6.47 0 0 0-3.1 5c-.23 1.58 1.37 3.08 2.87 3.28zM553.51 519.61v-.08zM49.7 593.8c-5.3.5-9.4 3.2-13.7 6.1a4.2 4.2 0 0 0-1.6 4.63c-3 1.54-6.26 2.74-9.1 4.47a3.58 3.58 0 0 0 2.8 6.5l1.47-.39c-2.26 1.33-4.52 2.65-6.84 3.88l-1.43.7c-3.3 1.6-.4 6.4 2.9 4.9l.28-.13.2-.14c3.36-1.54 6.57-3.41 9.82-5.14h.38a1.35 1.35 0 0 0 1.26-.84q.87-.44 1.74-.86c3.2-1.5 5.9-3 8.1-5.8 1.15-1.54.08-4.16-1.69-4.72a18.91 18.91 0 0 0 1.89-1.78 4.39 4.39 0 0 0 1-2.72 9.62 9.62 0 0 1 2.48-.58c5.14-.48 5.24-8.58.04-8.08zM32.93 586c.81.17 1.61.39 2.4.64l.47.28c3 1.8 5.8-3.2 2.7-4.7l-1-.44a4.2 4.2 0 0 0-.92-2.86c-1.4-1.6-3.2-2.3-4.9-3.6-2.81-2.09-5.68 1.37-4.84 4.11a24.06 24.06 0 0 0-6.36.69 3.23 3.23 0 0 0-1.4 5.4c2.92 3.22 9.31 2.48 13.85.48zm-9.23-5.2c-.34-.06-.42-.43 0 0zM62.8 530.6a7.83 7.83 0 0 1-1.45.81 3.1 3.1 0 0 0-.25-.21c-4.3-2.9-10.9-1.9-14.7 1.3a2.62 2.62 0 0 0-1.17 3.07c1.74 6 7.34 5.52 11.94 3.2 3.63 0 7.16-.85 9.56-3.1 2.57-2.47-.93-7.27-3.93-5.07zM1264.3 632.4a28.34 28.34 0 0 0-17.5 4.6 3.84 3.84 0 0 0-.51.43 39.86 39.86 0 0 0-7.6 1.34c-1.6-.36-3.23-.77-5-1.07-2.8-.3-4 3.5-1.3 4.1 1.05.25 2 .51 3 .78-.17 2.19 1.16 4.45 3.89 4.22.4 0 .9-.1 1.3-.1a4.21 4.21 0 0 0 1.87-.59 49.25 49.25 0 0 1 11.06-1.15c1 0 2.1 0 3.21-.05h.26a3.46 3.46 0 0 0 3.42-4.06 46.54 46.54 0 0 0 5.38-2.93 3 3 0 0 0-1.48-5.52zM1136.1 644.9c-3.36-.77-8-2.44-12.06-2.43a16.24 16.24 0 0 0-11.24.53c-3.7 1.8-.9 6.6 2.6 6.1l1.58-.27a2.79 2.79 0 0 0 .42.57 9.63 9.63 0 0 0 9.6 2.2 3.1 3.1 0 0 0 2.3-2.94c2.33.48 4.57 1.11 5.6 1.24 3 .3 4.4-4.3 1.2-5zM963.6 629.2c-1.69-3.18-5.47-5.12-9-5.44a1.25 1.25 0 0 1 0-.46c.4-2.5 4.7-1.5 6.3-1.5a6.62 6.62 0 0 0 5.4-3.2c1.6-2.5-2.2-4.7-3.8-2.4-1.1 1.6-3.1.8-4.7.8a7.41 7.41 0 0 0-3.9.8c-2.1 1.2-4 3.5-3.8 6.1a5.61 5.61 0 0 0 1 2.77c.14 5 6.24 9.52 11 8.53 1.94-.39 2.55-2.71 1.74-4.24a2.23 2.23 0 0 0-.24-1.76zM1033 571.9a13.72 13.72 0 0 1-2.73 2.5 2.74 2.74 0 0 0-3.87 1 37.94 37.94 0 0 0-1.2 3.6c-.9 2.8 3 5 4.9 2.9 2.2-2.4 5.2-3.9 7.2-6.6 1.8-2.6-2.4-5.9-4.3-3.4zM1059.1 488c-3 1-6.09 3.91-6 7.23a20.86 20.86 0 0 0-1.85 1.37 3.09 3.09 0 0 0-.8 3c1.55 4.56 6.43 5.19 11.53 4.32a6.25 6.25 0 0 0 2.67 4.28c3.73 2.89 9.74 2.39 13.95-.24 3.57 1.22 8.1.44 11.75.44 4.7 0 4.7-7.4 0-7.3-1.39 0-4.77.69-7.26.56a3.15 3.15 0 0 0-1.74-3c-2.5-1.2-4.7-1.1-6.6 1.1a4.05 4.05 0 0 0-1 2.83 5.9 5.9 0 0 1-3.46.57c-1.6-.3-1.4 0-.6-1.1a3 3 0 0 1 .61-.67 36.6 36.6 0 0 0 4-1.93c3.3-1.9 1.1-7.2-2.6-6.2l-.21.06a2.19 2.19 0 0 0-2.49-2.56c-1.7.3-3.8-2.3-5.3-2.9a6.36 6.36 0 0 0-4.6.14zm8.36 7.25l-.89.34a2.1 2.1 0 0 0-.27-.29 9.58 9.58 0 0 0-6.55-2.4 5.25 5.25 0 0 1 3.15-.3c2.25.8 3.21 2.12 5.2 2.24zM1131.68 471.11c3.74-3.77 6-9.87 2.43-12.93a3.23 3.23 0 0 0-3-1.78h-1.73a17.45 17.45 0 0 0-1.77-.1c-4.5 0-4.5 7 0 7.1v.1c1-.08 1.65.14 1.8-.09a3.49 3.49 0 0 1-.53 1.3c-3.54-.64-6.62 1.64-7.89 5.08a2.86 2.86 0 0 0 .8 2.9 4.9 4.9 0 0 0 1.92 1.33c-.66.65-1.29 1.25-1.72 1.77-1.6 1.8-3.1 3.7-3.5 6.1a2.39 2.39 0 0 0 2.9 2.9c4.4-.7 9.6-2.1 12.7-5.5 1.2-1.9-1.3-4.4-2.9-2.7a12.6 12.6 0 0 1-6.46 3c2.37-2.91 5.8-5.03 6.95-8.48zM1333.8 632.1c-6.4-.6-12.6-1.1-18.9 0h-.06a26.2 26.2 0 0 1-5.19-2.3 6.45 6.45 0 0 1 .84-.8c2.66 0 5.4-.55 8-.82a1.92 1.92 0 0 0 1.67-2.48c.28-.1.55-.2.83-.32 2.1-.9 1.9-4.2 0-5.2-3.74-1.87-7-.06-10.53 1.52a24.93 24.93 0 0 0-6.07.88 2.69 2.69 0 0 0-.79 4.77 18.21 18.21 0 0 0-1.31 2.53 3.22 3.22 0 0 0 .8 3.2 32 32 0 0 0 10.83 5.65 10.89 10.89 0 0 0 5.37 2.76 4.08 4.08 0 0 0 3.6 3.29c4.2.5 7.9-1.4 11.6-2.9a4 4 0 0 0 2.38-4.62 3.59 3.59 0 0 0-3.07-5.16zM1348.4 610.7c-1.3.09-2.68.17-4 .12 0-.1 0-.2-.07-.3.65-1.75-1.15-3.29-2.81-3.24a3.74 3.74 0 0 0-4.12 1.52 5.66 5.66 0 0 0-1.05 4.63c-.4 1-.74 2-1 3a3.35 3.35 0 0 0 3.2 4.2 6.3 6.3 0 0 0 4.67-2.7 47.87 47.87 0 0 0 5.23-.1c4.45-.23 4.55-7.23-.05-7.13zM1429.9 526.6a15.41 15.41 0 0 0-10.7 1.6c-3.5 1.7-6.7 4.7-10.8 3.6a3.87 3.87 0 0 0-4.66 2.45 5.7 5.7 0 0 0-4.84 7.35 3.85 3.85 0 0 0 3.48 2.7v.2a3.16 3.16 0 0 0 2.3 2.3c2.28.55 3.93 0 5-1.21a1.66 1.66 0 0 1 .44 1.31 9.17 9.17 0 0 1-1.22 4.15 6 6 0 0 0-2.78 4.25c-.2 2.3 2.6 2.8 4.1 1.7.29-.23.58-.48.87-.76-.06.86-.17 1.92-.17 2.76-.3 2.7 4 2.7 4.2-.2.16-2.26.67-5.3-.81-7.05 2-4.08 2.39-9-1.29-11.85-.12-.09-.25-.16-.37-.24a16.59 16.59 0 0 0 4.57-1.36c.48-.21 1-.46 1.47-.74a4 4 0 0 0 3.83 2.74c.8 0 1.6.1 2.4.1 3.11.12 4.31-2.52 3.75-4.83.73-.51 1.5-1 2.25-1.47 2.68-1.8 2.68-6.7-1.02-7.5zM926.9 662.1a107.54 107.54 0 0 0-13.9 1.6c-4.5.7-9.1 1-13.5 2a18.84 18.84 0 0 0-6.77 3.09 1.94 1.94 0 0 0-2.23-2.19 10.87 10.87 0 0 0-6.2 4 11 11 0 0 0-7.23.78c-4.11-1.23-8.65-1.06-11.17 2.66a3.38 3.38 0 0 0 0 3.5 14.29 14.29 0 0 0 11.6 6.4 3.41 3.41 0 0 0 3.06-1.87c5.47 1.06 9.94-1.82 15.24-5.93 4.2-3.2 9.1-3.1 14.1-3.8 4.67-.66 9.27-1.5 13.92-1.85 2.06 2.77 7.18 2.23 7.18-2.15v-2.1a4.12 4.12 0 0 0-4.1-4.14zm-37.1 9c-.47.4-.91.77-1.34 1.11l-.12-.07a4 4 0 0 1 2.67-2.06c-.4.33-.8.67-1.21 1.02zM1043.3 650.4c-5.5-.5-10.8 1.4-16.4 1-3.75-.34-7.06 0-9.63 2.43l-1.37.07c-2.67.19-5.34 1.11-8 1.44a4.51 4.51 0 0 0-3.48 0 8.7 8.7 0 0 1-1.33-.32c-3.3-1.1-6.7-1.7-9.7.6a3.92 3.92 0 0 0-.66.84 1.11 1.11 0 0 0-.44.06 27 27 0 0 1-2.8.4 37.32 37.32 0 0 0-7.3 1.3c-3.68 1.18-5.89 3.61-5.89 6.76a19.24 19.24 0 0 1-7.4 1.8l-.31-.06c-4.6-.9-5.6 5.8-.9 6.4h.59v.06h.22a23.18 23.18 0 0 0 13.88-3.56c1.2-.8 2.3-2.6 1.7-4.1a1.27 1.27 0 0 0-.14-.26h.14a22.67 22.67 0 0 1 2.5-.6c1.9-.3 3.7-.4 5.6-.7a12.29 12.29 0 0 0 4.2-1c.4-.2 1.7-1.7 2.1-1.7 1-.1 2.9 1.2 4 1.5l.44.1c4.29 5.8 14.64 2.81 20.66 3a4.19 4.19 0 0 0 4.59-4.45l2.77-.29c4.18-.23 8-1.86 12.24-1.76V659h.1c5.52.4 5.52-8.1.02-8.6zM701.8 623.7a10.42 10.42 0 0 0 3.66.84c2.15.64 4.33 1.09 5.84 1.66 4 1.5 5.6-4.2 2.7-6.4-1.81-1.36-3.61-2.69-5.44-4a3.39 3.39 0 0 0-3.66-3.8 10.32 10.32 0 0 1-3.92-.54l-.78-.36c-3.29-1.39-5.9 3.45-4 5.88h-.25a10.62 10.62 0 0 0-1.15 0c-2.37.09-2.13 3.42.11 3.51v.09c2.99.12 4.49 2.02 6.89 3.12zM622.6 633.5a3.42 3.42 0 0 0-3.2 2.5c-.06.35-.11.69-.14 1l-.56-.43a11.48 11.48 0 0 0-6.8-2.6c-3.1 0-3.8 4.7-.7 5.4s4.8 3.7 7.4 5.4a8.11 8.11 0 0 0 8.19.45 9.14 9.14 0 0 0 4.71 1.25 2.33 2.33 0 0 0 2.3-2.3c.2-2.6-2.2-4.9-3.8-6.7-1.8-1.97-4.6-3.87-7.4-3.97zM592.5 635.5a.2.2 0 1 0 0-.4.2.2 0 1 0 0 .4z"/></svg>