<svg id="Layer_1" data-name="Layer 1" xmlns="http://www.w3.org/2000/svg" viewBox="0 0 1440 712"><defs><style>.cls-1{fill:#00848f}</style></defs><title>Artboard 1</title><path class="cls-1" d="M1134.42 649.93a15 15 0 0 0-10.82-1.13c-3.1.9-6 2.8-7 6a7.37 7.37 0 0 0-.31 1.49 10.38 10.38 0 0 0-3.89 1.4 5.41 5.41 0 0 0-5.41 2.71c-2.53 3.68-1.46 7.88.65 11.37-1.41 4.72-.71 10 3.95 12.83 1.7 1.1 3.9 1.3 5.7 2.2 3 1.5 4.1 3.8 7.8 4 2 .1 3.5-.2 5.5.3 1.8.4 3.6 1.2 5.4 1.6a17.57 17.57 0 0 0 9.1-.5c5.3-1.4 10.6-.1 13.8-5.6 1.3-2.3 1.3-5.1 2.5-7.3 1.4-2.5 3.2-3.6 3-6.9-.3-5.2-6-10.8-9.2-14.6-4.47-5.26-14.19-10.87-20.77-7.87zm-4.82 8.07a.14.14 0 0 1-.1 0zm-18.24 6.49l.14.12h-.2zM1154 674.9c-1 1.7-1.2 6.4-2.7 7.5-.6.4-3.3 0-4.2.3-1.5.4-2.9 1.2-4.3 1.6-4.7 1.4-8.3-1-12.8-1.5-1.3-.1-3.7.4-4.9-.2-1.5-.7-2.2-2.6-3.9-3.3-4.1-1.7-7.9-.7-5.5-7a3.87 3.87 0 0 0-1-3.8 3.84 3.84 0 0 1-1.5-2.4 1.94 1.94 0 0 0-.27-.85 3 3 0 0 0 3.18-4 7.37 7.37 0 0 1 1.14-.62 7.1 7.1 0 0 0 4.56 3.31c3.2.7 6.4-2.1 5.4-5.4l-.18-.6a11.28 11.28 0 0 0 1.88-.1c.06 4.12 6.85 6 8.59 1.9 2.4-5.4 11.6 4.6 13.3 6.8a50.68 50.68 0 0 1 3.6 4.5c1.2 2.16.7 1.86-.4 3.86z"/><path class="cls-1" d="M1138.5 668.7l-1.25-.2a17.93 17.93 0 0 0-2.25-2.1 4.38 4.38 0 0 0-4.07-.75 4.19 4.19 0 0 0-1.23.15 5 5 0 0 0-3.5 4.5 5.33 5.33 0 0 0 .2 2.5 4.49 4.49 0 0 0 5.11 3.14 4 4 0 0 0 3.89 1.66 4.55 4.55 0 0 0 3.5-2.5 4.33 4.33 0 0 0 .17-3.75c.79-.7.63-2.48-.57-2.65zM837 660.7c-1.9-.6-4.6-.1-6.2-1.2-1.4-1-2-3.6-2.6-5.1-1.7-4-3.8-7.9-8.3-9.1a10.32 10.32 0 0 0-3.9-.3 16.31 16.31 0 0 0-3.7 1.7c-.8-.2-1.7-2.3-2.3-2.9a8.8 8.8 0 0 0-3.3-2.4c-3-1.2-5.2.1-7.9 1.3-2 .9-1.8.6-3.4-1.1a12.67 12.67 0 0 0-3.4-2.7 4 4 0 0 0-4.1 0c-2.2 1.6-1.3 1.5-3.8.2a10.2 10.2 0 0 0-5.4-1.2 17.56 17.56 0 0 0-10.8 4.8c-2.8 2.6-2.6 6.2-4.6 9.2-1.8 2.8-6.7 3.9-9.2 6.2-6.6 6.3-3.8 15.7.9 22.3 5.2 7.3 13.1 8.4 21.4 7.3 2.5-.6 3.6-4.4.8-4.8-7.4-1-13-.9-17.1-8.1-1.9-3.3-3.9-7.8-1-11.1 2.2-2.4 5.9-3.2 8.4-5.2 4.1-3.2 3.3-9.1 7.9-11.5 4.4-2.4 5.3.4 9.3 1.3a6.32 6.32 0 0 0 5.18-1.08c1.47 1.5 2.65 3.31 4.82 4.18 2.6 1 5.1.3 7.4-1 2.1-1.2 1-1.5 2.3-.3.8.7 1.2 1.8 2 2.5 2.3 2.3 5.2 2.6 8.2 1.7s3.6-1.3 5.1 1.7c1 2 1.5 4.1 2.6 6.1a13 13 0 0 0 5 5.4c2 1.1 5.5.4 7 1.6 1.7 1.3.9 5.7 1.6 7.8.6 1.9 2.2 3.6 2.3 5.7a12.73 12.73 0 0 1-1.8 5.7c-1.7 2.4-4.8 2.8-7.6 3.4a30 30 0 0 1-13 .2c-3.7-.8-6.9-.9-10.2 1.3-2.3 1.6-4.5 5.7-7.4 6-3.3.4-7.9-2.1-11.3-2.4-4.4-.4-8.9.1-13.3.1-6.4.1-6.4 10 0 9.9 3.6-.1 7.2-.4 10.8-.3 4 .1 7.6 1.7 11.5 2.3a13.51 13.51 0 0 0 8.8-1.7c2.4-1.5 4.5-5.6 7.2-6.1 1.1-.2 2.9.8 4 1a27.35 27.35 0 0 0 5.7.4 51.79 51.79 0 0 0 12.4-2c5.7-1.5 9.6-4 12-9.5 1.1-2.6 2.3-5.5 2.2-8.4-.2-3.4-2.4-6.3-3.4-9.4-1.6-5-2-10.5-7.8-12.4zM861.9 531.5a30 30 0 0 0-2.7-5c-3-3.9-7.6-5.4-11.3-8.3s-7.3-5.4-11.8-6.7c-8.8-2.5-17.9 3.8-16.4 13.2 1 5.9 10.2 4.4 10.3-1.4s9.9 2.1 11.4 3.4c3.8 3.2 8.1 4.5 10.9 8.8 2.1 3.4 4.7 5.8 3.1 10-.7 2-2.4 5.1-4.6 5.7-1.8.5-4.2.1-6.1.5-2.3.5-3.4 2.7-3.6 4.8-.6 5.7-7.7 4.4-11.4 5.8s-6.5 5.7-10.7 4.7c-2.6-.6-2-2.3-2.3-4.5a10.2 10.2 0 0 0-2.1-4.9c-2.3-2.9-7.6-4-7.5-8.2s5-6.7 3.5-11.3c-1.3-3.8-6-4.5-7.5-8.6-1.8-5.1.2-10.6 3.9-14.3a16.37 16.37 0 0 1 6.5-4.1c2.8-.7 4.1.6 6 2.6.7 1 2.6-.5 1.8-1.8-2.8-4.3-5.5-6.2-10.6-4.6a21.88 21.88 0 0 0-13.3 11.8 18.39 18.39 0 0 0 2.1 18.5 9 9 0 0 0 2.48 2.62 6 6 0 0 0-.58.78c-2.2 2.4-3 6.7-2.8 9.8a11.26 11.26 0 0 0 3.3 7.4c2.4 2.4 5.5 3 6 6.5.4 3.1.5 5.6 2.9 8a12.91 12.91 0 0 0 8.6 3.2 17.63 17.63 0 0 0 8.4-2c1.4-.8 2.5-2.1 3.9-2.8 2-1 4.1-.5 6.2-.9a16.94 16.94 0 0 0 11.77-9.32c2.67-.32 5.11-.33 7.73-2.18a22.79 22.79 0 0 0 7.3-10.5c1.3-3.8 2.2-8.3.2-12-.9-1.7-2.1-3-3-4.7z"/><path class="cls-1" d="M820.95 544.34a7.23 7.23 0 0 0 1.35 2.66c2.6 3.3 7.8 4.2 10.7.6a6.85 6.85 0 0 0 .7-1.07 5.15 5.15 0 0 0 1.58-1.9 2.63 2.63 0 0 0 .61-3.26c-.36-4.28-5.34-6.25-9.41-5.29a8 8 0 0 0-4.17 0c-4.05 1.25-4.23 6.03-1.36 8.26zM99.3 439.9c5.3 3.3 14.5.4 19.5-2.3 4.4-2.3 8.2-4.4 13-5.9 4.6-1.4 9.2-3.1 13-6.2 6.2-5.1 12.2-15.9 8.6-23.9-3.7-8.2-16.4-12.3-24.5-13.8-2.8-.5-5.7-.5-8.5-.9-1.6-.3-3.1-1-4.8-1.2-4.1-.6-7.2 1.3-7.6 5.6-.33 3.94 4.18 4.77 6.59 2.8l.21.2a8.33 8.33 0 0 0 1.5.4 22.93 22.93 0 0 0 2.8.9c3.7.8 7.4.6 11.1 1.5 4.5 1.1 16.3 4.2 15.9 10.3-.6 8.6-8.3 14-15.8 16.3a73.63 73.63 0 0 0-9.3 3.4c-2.8 1.3-5.2 3.2-8 4.3a26.72 26.72 0 0 1-7.4 1.8c-3.1.2-2.4-1.8-4.2-4-2.6-3.4-5.1-5.1-5.3-9.8-.2-3.5.7-7 .5-10.4-.2-3.1-1.5-5.6-2.8-8.3-1.9-3.8-1.3-5.9-1.4-10-.3-7.4-8.3-9.1-11.3-14.8-3.7-6.9 15.5-4.8 18.1-4.3a77.45 77.45 0 0 1 11.5 2.9c3.7 1.4 6.9 2.3 10.8 1.7 1.8-.4 1.2-3-.4-3.1-5.4-.4-10.4-3.9-15.5-5.4-4.6-1.3-9.1-2.8-13.9-3.3-6-.7-16.1.3-18.4 7.1-1.2 3.6.4 7.2 2.5 10 2.7 3.6 8.7 6.2 8.6 10.9s.3 7.8 2.5 12.2c2.5 5 1 9.4 1.2 14.7a19.1 19.1 0 0 0 4 11.5 45 45 0 0 1 3.9 5 9.43 9.43 0 0 0 3.3 4.1zm16.36-47.21c0-.1.1-.19.14-.29a2 2 0 0 1-.14.29zM1181.94 324.19c6.33-3.76 11.71-7.39 16.06-13.59 4.1-5.9 8-13.6 6.8-21-1.16-7.21-6.62-11-12.71-11.66a14.7 14.7 0 0 0 .51-6.74 9.7 9.7 0 0 0-7.6-7.9c-6-1.5-10.9 2-16.3 4-4.5 1.8-9.2 5.3-9 10.7.1 3.2 2.1 4.5 3.2 7.1.7 1.6-.1 5.7-1.1 7.2-1.4 2.1-3.6 3.2-4.5 5.8a11 11 0 0 0 .4 8.7c2.5 5.1 9.2 10.9 14.6 12.5v-.05c4.24 1.11 8.65-4.73 4.7-7.95-3-2.4-7.4-4.5-9.7-7.7-1.4-2.1-.6-2.5.9-4.2a15.64 15.64 0 0 0 2.7-4 27.78 27.78 0 0 0 1.6-10.3 9.74 9.74 0 0 0-1.2-4.1c-.6-.9-2.4-2.2-2.2-3.2.2-2 6.8-3.6 8.4-4.5 1.8-.9 5.8-3.2 7-.5.91 2-.35 4.64-2.16 6.86a16.65 16.65 0 0 0-6.54 5.54c-1.8 2.7 1.3 7.2 4.5 5.9a20.2 20.2 0 0 0 7.36-5.37 10.49 10.49 0 0 1 7.24-.13c4.7 1.9 4.5 8.3 3.4 12.4a39 39 0 0 1-6.4 12.9c-3.5 4.9-8.4 7.7-13.4 10.8a2.1 2.1 0 0 0 .5 3.8c.2.1.5.2.7.3a1.76 1.76 0 0 0 2.24-1.61zM1145.2 467c14.2-5.7 19.9-24.5 10.5-37-4.3-5.7-10.9-8.5-17.4-10.9-7.2-2.7-15.3-8.2-23.3-6.9a25.59 25.59 0 0 0-13 6.56c.1-.12.19-.24.3-.36 3.4-3.7-1.2-10.7-5.6-7.3-6 4.6-8.4 12.3-7.4 19.7 1.1 8.4 7.7 14.8 13.8 20.2a78.85 78.85 0 0 0 22.7 14.2c7.1 3 11.9 4.7 19.4 1.8zm-46.1-36.64a4.31 4.31 0 0 0 3.5-1.16c.8-.6-.2-1.8-.9-1.3-2.3.1-2.8-.2-1.6-1.2l1.5-1.5c.6-.6 1.2-1.3 1.9-1.9a22.91 22.91 0 0 1 9.7-5.2c7.4-1.7 14.2 4 20.8 6.8 5.6 2.3 12.2 4.7 15.6 10 3.3 5.1 3.1 13.1-.3 18.1-2.4 3.5-9.5 6.9-13.8 5.8a62.12 62.12 0 0 1-17.9-8.3c-6.42-4.32-16.24-11.93-18.5-20.14z"/><path class="cls-1" d="M1118.1 430.3l-.13.25-.47.25c-.3.1-.5.3-.8.4a4 4 0 0 0 3.1 7.3h.05a2.27 2.27 0 0 0 .25 0 3.09 3.09 0 0 0 1.93-.82 3.74 3.74 0 0 0 3.37-2.68 5.94 5.94 0 0 0-.6-4.7 3.93 3.93 0 0 0-6.7 0zm-.3.4l.08-.05c-.24.21-.5.35-.08.05zM915.32 487.35a37.63 37.63 0 0 0 6 12.25c3.4 4.5 8.8 8.9 14.5 5.3 4.6-2.9 6.3-9.4 7.1-14.4a25.79 25.79 0 0 0-.36-10.24c8.3.43 16.54-2.82 14.86-13.06-1.1-7-5.9-14.9-12.7-17.5a13 13 0 0 0-8.36-.6c-.23-2.32-.55-4.64-.94-6.9-.8-4.7-2.2-11.3-6.7-13.9-5.5-3.1-10.9 2.2-13 6.9a34.48 34.48 0 0 0-2.3 11.9 25.47 25.47 0 0 0 .29 4.94 5.29 5.29 0 0 0-.79-.34c-4.9-1.6-10-3.1-14.5.4a8.31 8.31 0 0 0-3.2 4.4c-.6 2.5-.6 3.1-2.3 5.2-5 5.9-5.2 15.8-4 23.2 1 6.1 4.3 14.3 11.8 13.7 6.99-.6 10.7-6.17 14.6-11.25zm-12.52.75c-1.8 1.2-2.2 2.2-3.6.7-1.2-1.4-1.6-4.5-1.8-6.2-.6-4.2-.6-11.2 1.7-14.7 1.3-2.1 3.3-3.4 4.2-5.9.2-.6.2-2.8.5-3.2 1-1 5.7.6 6.9.8a4.38 4.38 0 0 0 4.13-1.57 36.49 36.49 0 0 1 .87 6.67c-.3 2.7 3.7 2.6 4-.1.6-4.8-1-9.3-.9-14.1a35.85 35.85 0 0 1 1.3-9.2c.6-2 1.9-6.4 4.4-7 .8-.2.7-.1 1.5 1.3 3.5 5.9 3.2 16 2.6 22.6-.4 4.5 6.5 5.1 7.7 1a6.45 6.45 0 0 1 .29-.8c3-6.84 14.24 5.92 12.5 11.32-1.4 4.2-9.7 1.8-12.4.5-4.5-2.1-8.4 2.9-5.2 6.8 2.8 3.4 3.4 7.7 2.8 11.9-.2 1.4-1.3 8.1-3.1 8.4-1.4.2-4.6-5.4-5.4-6.8-2.4-4.2-3-8.8-4-13.4-.8-3.5-4.9-3.8-7.3-1.9-4.69 3.68-6.69 9.48-11.69 12.88zM819.4 453.5c3.2 1.8 5.4 5.1 8.3 7.3a22.21 22.21 0 0 0 7.6 4c5.3 1.4 14 .5 17.2-4.5s-1.4-10.1-4.9-13.4c-2.95-2.83-5.45-5.54-8.58-7.35-3.28-6.39-11.88-11.07-18.62-9.65-5.1 1.1-7.3 5.9-8 10.6a14.35 14.35 0 0 0 .6 7.7c1.4 3.1 3.7 3.8 6.4 5.3zm3-17.8c2.36-.64 5.43.25 8.05 1.87-2.38.74-3.33 3.62-2.6 6a3.53 3.53 0 0 0-2.15 3.08 3.39 3.39 0 0 0 4.3 3.2 7.36 7.36 0 0 1 1.4-.4 3.1 3.1 0 0 0 2-1.94c4.2 2.1 6.6 6 10.24 8.92a12 12 0 0 1-3.3.6 10.2 10.2 0 0 1-5.4-1.2c-3.3-1.7-5.6-4.6-8.4-7-2.5-2.1-6.7-2.8-7.2-6.2-.34-2.43.56-6.23 3.06-6.93zM705.24 688.73a8.73 8.73 0 0 0-.34-1.73 3.52 3.52 0 0 0-5.1-2.1 9.49 9.49 0 0 0-2.87 2.8l-.13-.1a3.6 3.6 0 0 0-4.74.12 2.07 2.07 0 0 0-2 1.18 7.55 7.55 0 0 0 2.2 9.2 3 3 0 0 0 4.3-1.8 7.92 7.92 0 0 0 .25-1 3.38 3.38 0 0 0 1.66-.3 3.67 3.67 0 0 0 3.39 2.48 5.92 5.92 0 0 0 6-3.2 3.89 3.89 0 0 0-2.62-5.55zM725.6 687.7a3.64 3.64 0 0 0-.43.06 2.19 2.19 0 0 0-.77-.36l-1.2-.3a2.54 2.54 0 0 0-3.1 1.8 2.62 2.62 0 0 0 1.24 2.89 8.83 8.83 0 0 0 2 4 3.23 3.23 0 0 0 3.5.7 3.3 3.3 0 0 0 2-2.9c.1-.8.1-1.6.2-2.5a3.37 3.37 0 0 0-3.44-3.39zM720.7 676.33c3.5.24 4.77-5.07 1.2-6.13a11.77 11.77 0 0 1-2-.7 2.67 2.67 0 0 0-2.93-.06 4.72 4.72 0 0 0-2.87.26c-1.7.7-2.9 2-2.6 4a3.66 3.66 0 0 0 3.6 3.2 6.21 6.21 0 0 0 .93-.06 3.4 3.4 0 0 0 4.67-.51zm-5 .27l.21.15a.74.74 0 0 1-.21-.15zM697.9 677.8c.19-.08.38-.15.57-.21a13.68 13.68 0 0 0 2.73.61 5.28 5.28 0 0 0 3.9-1.6c2.47-2.57-1.31-6.5-3.91-4.07h-.09l-1.27-.42a5.25 5.25 0 0 0-2.83-.88 3.29 3.29 0 0 0-3.3 3.8c.2 1.77 2.3 3.57 4.2 2.77zM559.7 637.8c.6-1.1 3.6-5.4 5.4-3.8 3.9 3.5 9.3-1.9 5.7-5.7-3.9-4.3-9.4-3.6-13.7-.3-4.5 3.5-6.9 9-7.5 14.6-.7 6.3 1.4 12.3 2.3 18.5.9 5.6 0 19.3-8.7 14.7-5.8-3.1-10.3-6.9-16.9-8.4-5.4-1.3-15.6-1.6-18.3-7.6-1.8-4.1 1.7-9.2 4-12.4a101.46 101.46 0 0 1 9.6-11.2 82.51 82.51 0 0 1 11.3-10c3.9-2.8 11.2-7.9 15.9-4.3 1.8 1.3 4.3-1 2.6-2.6-7.9-7.3-19.4-.2-26.5 4.8-8.6 6.2-17.5 14.3-22.5 23.8-2.4 4.6-3.8 10-1.7 14.9 2.6 6.1 9.3 9 15.3 10.6 4.1 1 8.3 1.5 12.2 2.9s6.8 4.1 10.2 6.2c6.2 3.7 12.8 3.6 17.6-2.2 5.3-6.4 5.2-14.6 3.9-22.3-.8-4.4-2.2-8.9-2-13.3a15.08 15.08 0 0 1 1.8-6.9zM605.9 644.7a7.68 7.68 0 0 0-.9 1.3c-3.16-1.77-7.69-1.87-11-1.71-5.9.3-11 3.8-15.7 7-8.7 6-16.9 15-16.3 26.4.2 5 3.3 7.8 7.9 8.9 3.3.8 5.3.9 7.8 3.4s3.2 5.7 5.4 8.1c8.6 9.4 21.5-1.9 25.3-10.3a71.92 71.92 0 0 0 5.5-20.3c.4-3.7-.4-6.8-.9-10.4-.2-1.3-.3-2.6-.4-3.9 0-.57-.09-1.14-.1-1.72l.6.52c4 3.5 9.7-2 5.9-5.9-3.5-3.49-9.2-5.79-13.1-1.39zm-1.4 26.1c-.7 3-1.4 6-2.3 9-1.1 3.7-7.5 17.3-13 12.2-1.2-1.1-1.7-3.2-2.7-4.6a18.66 18.66 0 0 0-2.9-3.4 17.68 17.68 0 0 0-7.1-4.7c-1.4-.4-5.4-.3-6.3-1.6-1.2-1.6 1-6.7 1.5-8.2 2.4-6.3 7.8-10.7 13.1-14.5 2.8-2 5.6-4.4 9.1-5 2.22-.39 7.8-1 9.89.45a37.12 37.12 0 0 0 .71 8.35c.7 4.4 1.1 7.6 0 12z"/><path class="cls-1" d="M676.7 660.1c-6.5-5.7-15.1-8.9-23-12.2a74.36 74.36 0 0 0-12.9-4.1 34.73 34.73 0 0 0-5.5-.8c-1.4-.1-4.1.6-5.3-.3-4.8-3.8-11.7 2.8-6.8 6.8a11.47 11.47 0 0 0 2.47 1.61c-3 3.92-4.32 9.1-4.57 13.89-.7 13.9 7.1 27.8 20.2 33 5.6 2.3 11.9 2.7 16.5-1.8 1.9-1.9 3.2-4.3 4.9-6.4 2.8-3.7 5.8-2.7 9.8-3.2 14.7-1.9 13-18.8 4.2-26.5zm-15.6 20c-4.4 2.5-6.2 10.3-11 11.6-6.4 1.7-14.8-5.7-17.9-10.5a30.42 30.42 0 0 1-4.2-21.6c.72-3.39 2-5.62 3.71-7.11a58 58 0 0 1 7.39.61 95.7 95.7 0 0 1 21.4 7.6c5.2 2.4 13.3 6 14.5 12.4 1.3 7-10 4.7-13.9 7zM1229.24 594.51a17.77 17.77 0 0 0-6.74-2 31.66 31.66 0 0 0-23.5 7.7c-7.7 6.7-8.9 15.5-8.8 25.2.1 6-1.2 9.8-4.7 14.6-3 4.1-5.3 8.5-5.3 13.7 0 8.3 5.6 15.4 13.2 18.3 8 3 17.1 1.1 24.6-2.5a37.52 37.52 0 0 0 10.9-7.6c3.2-3.3 4.7-7.1 6.8-11.1 3.1-5.8 7.7-6.4 13.4-8.6a21.48 21.48 0 0 0 10.7-8.3c11.35-17.55-12.85-40.19-30.56-39.4zm22 34.49c-1.8 3-5.5 4.1-8.6 5.1-3.6 1.1-7.1 2.4-10 5-5 4.3-5.9 10.9-10.1 15.7-6.7 7.7-26.1 15.6-32.3 3.2-3.5-7 2.7-12.1 5.7-17.8 3.9-7.3 1.7-14.8 2.6-22.6.8-7.3 6.3-13.3 12.9-16.2a24.12 24.12 0 0 1 11.7-2c0 2.64 1.8 5.38 4.9 5.27h1.64a8.46 8.46 0 0 1 .16 1.08c.29 3.19 5.07 3.29 5.46.11 4.37 1.64 8.18 4.76 11.54 8.19 3.56 3.65 7.36 9.85 4.36 14.95zM918 369.4a5.55 5.55 0 0 1 .8.6 3.17 3.17 0 0 0 4.49-1.4 2.23 2.23 0 0 0 2.11-1.5 3.52 3.52 0 0 0-3.3-4.6 6 6 0 0 0-5.1 2.9c-1 1.3-.1 3.2 1 4zM910.3 423.4c.4-6.6-3.1-12-9-14.8a40.57 40.57 0 0 0-8.9-3c-1.46-.27-2.91-.44-4.33-.66a1.91 1.91 0 0 0-2-2.54c-5.6.2-10.2-4.3-15.9-4.2-4.8.1-9.5 3.9-11.1 8.3-.9 2.6-.5 5.3-.9 7.9-.5 3-1.8 5.2-1.3 8.3.7 4.7 3.8 7.3 8 9.1 1.9.8 3.6 1.4 4.8 3.1 1.5 2.2 2.2 4.6 4.1 6.5 4 4 10.4 5.7 15.9 4.9 10.63-1.6 20.13-12.2 20.63-22.9zM878.5 434c-2.5-3.5-2.9-6.2-7.2-8.3-1.6-.8-3.7-1.1-5.1-2.2-2.2-1.7-1.2-3.6-.7-6s-.1-4.6.2-6.9c.4-3.4 2.7-5.2 5.9-6a10.43 10.43 0 0 1 5.39.32c-1.42 1.64-1.78 4 .31 5.78 4 3.2 8.4 3 13.2 3.9 5 1 11.3 2.8 10.9 8.9-.7 9.7-15.6 21-22.9 10.5z"/><path class="cls-1" d="M885 417.7h-.09a5.26 5.26 0 0 0-3.41-3.44c-3.3-.8-5 2.4-6.1 4.9-.9 2.2-.3 4.7 2.2 5.4a4 4 0 0 0 4.4-1.93 2.32 2.32 0 0 0 2.7.23c.9-.5 1.7-1 2.6-1.5 2.3-1.46.2-4.76-2.3-3.66zm-2.75 1.3l.15-.11zM205.3 432.4c6.1 5.2 14.5 6.5 22.3 5.5 8.5-1.1 14.9-6.1 22.7-9 6.5-2.4 14.1-9.5 15.8-16.4 2.1-8.6-6.3-16.2-8.4-24-1.5-5.5-1.7-11.88-3.53-17.5a3.64 3.64 0 0 0-1-5.42l-.12-.07-.7-.4-.69-.4-.14-.08-.63-.34-.58-.3a4.34 4.34 0 0 0-2.32-1.06c-5.9-2.45-11.66-2.67-18.44 0-7 2.7-14.1 7.2-17.4 14.1a30.81 30.81 0 0 0-1.76 4.75 15.83 15.83 0 0 0-7.34 5.55c-4.63 5.82-2.4 15 1.31 22.08-1.77 1.65-4.55 2.82-5.81 4.82-3.65 6.17 2.05 14.27 6.75 18.17zm52.8-22.3c-.3 3.7-5.8 8.9-8.9 10.6-3.4 1.9-7.1 2.5-10.5 4.7-7 4.4-16.6 6.8-24.5 3.3-2.6-1.1-9.8-6.6-8.6-10.2.32-.9 1.67-1.83 3.05-2.72 2.22 2.59 5.83 6.1 9.55 5.32a6.11 6.11 0 0 0 3.12-1.9 5.67 5.67 0 0 0 .58.9c1.7 2.2 5.1 1.9 7.2.6a8.73 8.73 0 0 0 2.41-2.12 2.79 2.79 0 0 0 2-.68 3.89 3.89 0 0 0 1.15-1.58 9.49 9.49 0 0 1 1.05.08 19.68 19.68 0 0 0 2.4.3c1.9.2 2.1-2.6.4-3.2a35.86 35.86 0 0 0-4.54-1.26v-.06a3.85 3.85 0 0 0-3.23-2 9.52 9.52 0 0 0-7 .74 6.36 6.36 0 0 0-3 5.28c-1.52 1.54-3.28 2.06-5.65-.48a24.87 24.87 0 0 1-2.55-3.27c3.29-5.48-.79-11.91 1.65-17.73.89-2 1.61-4.32 2.36-6.6a6.2 6.2 0 0 0 4.74-2.2c2.4-2.6 1.8-5.7 3.4-8.6s7-4.2 9.9-5.4c3.24-1.37 6.28-2.39 9.32-2.12 3.66 5.49 3.53 13.4 5.08 19.62a44.24 44.24 0 0 0 4.4 11.3c1.41 2.68 4.91 6.08 4.71 9.38zm-30.72 6.26c0 .08 0 .12-.08 0zM346.9 337c-2.6-2.3-6-3.2-8.6-5.4a3.73 3.73 0 0 0-3.66-.85 22.82 22.82 0 0 0-8.34-3.15 19.92 19.92 0 0 0-10 .1c-2.89.83-4.9 2.68-7 4.54-4.15-.23-6.17 4.11-6.87 8.06-1 5.3 1.8 10.3 5.6 13.8s7.2 8.6 11.9 11c2.5 1.3 4.4 1 7.1.7 3.4-.4 5.1 1.5 8.1 2.8 9.4 3.8 16.2-4.5 17.6-13a21.61 21.61 0 0 0-1.4-12.8 19.37 19.37 0 0 0-4.43-5.8zm-10 24.5c-2.9-1.3-5-3.3-8.3-3.2-1.3 0-2.4.6-3.7.7-2.5.2-3.8-1.4-5.4-3.1-2.2-2.3-4.3-4.4-6.7-6.6s-5.83-8-2.88-10.29c1.78-.14 2.59-1.12 4.28-2.81 3.7-3.7 7.8-4.2 12.8-3.3a17.39 17.39 0 0 1 4.58 1.51 3.32 3.32 0 0 0 1.22 2.69c5.5 4.8 12.7 5.7 12.7 14.4 0 4.9-2.2 12.8-8.6 10z"/><path class="cls-1" d="M321.4 339.6c-1.1.8-1.7 2.6-.5 3.6a10.27 10.27 0 0 0 4.9 2.4 3 3 0 0 0 2.21-.45 2 2 0 0 0 1.29-.55 2 2 0 0 0 .2-2.9c-1.9-2.4-5.3-4.1-8.1-2.1zM727.4 363.4c-5.2-2-10.8-2.8-15.8-5-.65-.28-1.28-.6-1.9-.93l-.1-.27a22.57 22.57 0 0 0-13.2-13c-5-1.7-9.7-.6-13.2 3.4a24.06 24.06 0 0 0-4.4 8 10.78 10.78 0 0 0 .2 6.66c-3.25 3.14-3.92 8.49-4.7 12.94-.6 3.9-2.3 6.2-4 9.7-1.9 3.8-1.5 7.8 0 11.6 1.7 4.1 4.6 7.4 6.8 11.3 2 3.5 3.9 6.5 7.3 8.8 5.7 3.8 15 6.8 21.3 2.6 1.6-1 2.6-2.7 4.2-3.7 2.3-1.4 4.7-.6 7.1-.1a31.67 31.67 0 0 0 11.5.8 20.26 20.26 0 0 0 15.8-11.6c3.5-7.5 7.3-16.4 3.2-24.3s-12-13.8-20.1-16.9zm9.5 36.7c-2.6 6.5-8.6 8.7-15.2 7.6-3.6-.6-7-1.8-10.6-1.4s-5.6 2.3-8.3 4.6c-5.9 5.1-14.7-1.2-17.8-6.7-1.9-3.3-4.4-6.2-6.1-9.5-2.6-5 .2-7.1 2-11.5 1.1-2.6 1.3-5.3 1.7-8.1.2-1.3.6-6.9 2-7.5 1.9-.8 3.4-2.5 2.7-4.7s-1.6-3.7-1.1-6a12.77 12.77 0 0 1 3.1-5.7c2.8-2.5 6.4-1 9.2.8a17.49 17.49 0 0 1 1.88 1.34 7.27 7.27 0 0 0-7.58 4.66c-1.5 3.9.2 7.9 2.2 11.3 2.5 4.1 9.1 1.4 7.8-3.3-.09-.27-.22-1.06-.38-1.89 1.59.85 3.1 1.66 4.66 2.41a81.88 81.88 0 0 1-.78 8.27c-.3 1.5 2.2 1.7 2.7.2a53.83 53.83 0 0 0 1.81-6.9c8 2.8 16.29 3.9 23 9.6 2.9 2.5 6.9 6.3 7 10.5-.01 3.41-2.61 8.61-3.91 11.91z"/><path class="cls-1" d="M711.71 384a3.9 3.9 0 0 0-1.91-1.67 9.09 9.09 0 0 0-4.65-.33 4.32 4.32 0 0 0-4.75-2.47c-.3.1-.7.1-1 .2-2.07.36-3.37 2.85-3.07 4.94a5.3 5.3 0 0 0 1.87 8.76c3.21 1.36 7.72.26 9.08-3.11a3.19 3.19 0 0 0 .62-.09 5.39 5.39 0 0 0 3.33-2.23h.07c1.3 1.1 3.2-.9 2.3-2.3a6.23 6.23 0 0 0-1.89-1.7zm-12.36 4.23c.55.49 0 .45 0 0zM963.7 303.6c-.2-3.7.3-7.1-1-10.7-2-5.4-7-11.1-12.7-12.7-10.17-2.89-22.68 5.18-23.91 15.69a17.93 17.93 0 0 0-3.89 3.21c-2 2.4-3 5.8-4.1 8.7-2.7 6.3-4.6 12.7-3.8 19.6s4 14 9.1 18.37c-6.54-1-15.26.86-18.4 2.83-11.2 7.1-16.2 26.6-3.8 34.8 6.4 4.2 14.4 4.2 21.5 6.5 8.6 2.8 17.4 3 26.3 2 5.8-.6 12.6-1.8 14.1-8.5 1.2-5.5-2.2-11.3-5.3-15.5-4.1-5.6-9.1-10.4-15.6-13a45.46 45.46 0 0 0-11-2.65 2.27 2.27 0 0 0 0-.65 5.59 5.59 0 0 0-.65-1.93 17.79 17.79 0 0 0 6.55.53 4.42 4.42 0 0 0 2.76-1.23 19.63 19.63 0 0 0 2 .34 7.67 7.67 0 0 0 3.82.69 9.75 9.75 0 0 0 2.4-.63 39.61 39.61 0 0 0 12.5-3c10.9-5.3 16.3-25.2 8.5-34.7-2.38-2.87-5.18-3.97-5.38-8.07zm-14.6 67.6c1.3 1.5 7 8.2 5.4 10.6-1.4 2.1-8.7 1.7-10.7 1.8a64.21 64.21 0 0 1-11.6 0c-3.5-.4-6.8-1.8-10.2-2.8s-6.7-1.2-10-1.9c-8-1.8-12-6.9-8.9-15.1 1.65-4.38 3.88-7.93 7.48-10-1.68 2.89-.34 7.59 4 7.59 12.12.01 25.92-.09 34.52 9.81zm-30.84-19.6c3.29-.55 8.08-1.12 9.59.32-3.2-.24-6.41-.3-9.59-.32zm46.64-23.2c-1.4 7.5-4.7 12.6-12.4 14.2-2.19.45-8.49 1.7-12.17 1.08a4.16 4.16 0 0 0-2.69-1.68 7.83 7.83 0 0 0-1.24-.6 2 2 0 0 0-1.9.22 8.8 8.8 0 0 1-6.6-3.62 24 24 0 0 1-4.9-10.3 23.64 23.64 0 0 1 1-11.8c1-3.3 2.3-7.9 4.3-10.7 1.6-2.3 5.2-3 6-5.9.8-2.6.2-4.5 2.2-6.9 3.9-4.6 10.4-6.1 14.8-1.7a13.11 13.11 0 0 1 4.3 10.2c0 2.9-.2 5.9 1 8.7s3.7 4.2 5.9 6.2c3.4 3.2 3.2 8.3 2.4 12.6z"/><path class="cls-1" d="M954.83 325.6a4.8 4.8 0 0 0-.93-3.2 6.62 6.62 0 0 0-.55-.7 3.63 3.63 0 0 0-.26-.29l-.07-.07a3.6 3.6 0 0 0-.32-.29 6.87 6.87 0 0 0-7.89-.65c-3.8 2.2-2.3 7.8 1.5 9a6.7 6.7 0 0 0 5-.61 1.87 1.87 0 0 0 1-.24 2.75 2.75 0 0 0 .59-.18c.53.15 1.09 1.26 1.17 1.83.1 1.3 2.3.8 2.4-.6a5.12 5.12 0 0 0-1.64-4zM951.8 681.2c-7.4-5.7-16.3-10.8-25.5-12.8-6-1.3-8.5 7.9-2.5 9.2 1.12.23 2.21.53 3.3.86-.64-.07-1.24-.12-1.8-.16-6.6-.4-19 .7-19.7 9.3-.5 5.7 4.7 10 8.7 13.1 5.1 3.9 8.2 10.2 13.9 13.3 6.2 3.4 14.9 3.4 21.4.7s9.3-7.9 10.2-14.5c1-8.1-1.7-14-8-19zm-1.1 19.1c-1.3 6.6-7.8 8.1-13.8 7.3-6.4-.8-8.6-5.7-12.8-9.8-1.8-1.8-11.4-6.9-10.8-9.8.3-1.6 4.4-2.4 5.7-2.7 2.7-.6 17-2.4 17.2 2.6.1 2.7 4.2 3.5 4.6.8a6.59 6.59 0 0 0-.48-4.07q1.61 1 3.18 2c5.5 3.47 8.5 6.97 7.2 13.67zM1376.3 587.1c-9.9-6.8-22.5-8.4-34.1-10.6-4.68-.92-7.45 3.94-6.3 7.28-.62.22-1.23.46-1.8.72-8.7 4.1-13.8 14.4-15.4 23.5-.9 5.1.1 8.6 1.3 13.3.6 2.5.6.6.1 2.4-.3 1.2-1.4 2.4-1.9 3.5a22.24 22.24 0 0 0-2.9 8.3c-1.7 17.5 21.7 19.5 33.9 18a104.78 104.78 0 0 0 15.7-3.5c5.2-1.5 10.8-3 15.2-6.3 7.6-5.7 9.2-17.2 10-26.1 1.2-12.2-3.6-23.5-13.8-30.5zm1.4 42.2c-2.2 7.9-9 9.3-16.3 11.4-9.6 2.9-24.3 6.7-33.8.8-6.8-4.2 0-11.1 1.6-16.4 1-3.3-.5-5.3-1.7-8.3-1.3-3.4-.8-7.3.1-10.8 2.4-9 8-16.9 18.2-16.6 3.6.1 10.3 1.1 10 5.7-.2 3.8-4.2 7.9-6.2 11.1a1.73 1.73 0 0 0 2.7 2.1c4.11-4.28 10.91-10.68 9-17.07 8 2.65 15 7 17.76 15.37 2.34 7.2.64 15.6-1.36 22.7zM1426.8 488.9c-1.8-8.8-8.8-13-16.4-16.5a4.93 4.93 0 0 0-3.38-.32c-6.34-1.86-13.74-3.59-20.12-2.88-15.9 1.7-21.6 22.7-19.6 36.2.7 4.5 1.6 8.8 1.9 13.4a17.46 17.46 0 0 0 3.4 9.1c3.7 5 9.9 7.8 16 8.8 14 2.5 29.1-2.7 34.9-16.5 1.9-4.5 2.5-9.4 3.1-14.3.6-5.5 1.3-11.6.2-17zm-13.4 31.1c-6.4 9.6-22.8 11.4-31.8 4.6a9 9 0 0 1-3.7-6.4 117.7 117.7 0 0 0-1.8-11.9 36.62 36.62 0 0 1 2-20.7c1.5-3.8 3.7-7.2 7.7-8.6 4.2-1.4 9-.4 13.3.3 1.11.17 2.56.27 4.14.4a4.13 4.13 0 0 0 2.36 2.9c2.8 1.5 5.9 2.8 8.4 5 2.8 2.5 3.3 6 3.6 9.6.7 7.8.2 18.1-4.2 24.8zM413.6 559.6c-3.5-.3-6.3-2.2-9.6-3.4a31.3 31.3 0 0 0-7.5-1.6h-.06a10.45 10.45 0 0 0-3-1.39 13.17 13.17 0 0 0-7.1.32 71.33 71.33 0 0 0-7.8-.22 14.53 14.53 0 0 0-3 .38 6.48 6.48 0 0 0-4.09.92c-3.34 1.94-3.59 5.18-2.62 8.25a4.17 4.17 0 0 0-1.68 3.55c.55 6.78 9.71 13.07 15.8 11.85a7.63 7.63 0 0 0 1.3.75c2.8 1.3 5 0 7.4-1.6 4.3-2.8 8.9-6.7 9.8-12a9.91 9.91 0 0 0-.11-3.79 38.09 38.09 0 0 1 5.11 1.79 13.37 13.37 0 0 0 7.4 1.2 2.51 2.51 0 0 0-.25-5.01zm-26 9.6a4.53 4.53 0 0 0-7.61-.3 11.41 11.41 0 0 0-1.33-.5c-.14-.08-.33-.2-.52-.34a4.35 4.35 0 0 0 1-1.65 5.09 5.09 0 0 0 2.29-.42c1.9-.8 10.3-6.5 10.9-2.2.33 1.8-2.33 3.88-4.7 5.41zM146.7 622.5a69.37 69.37 0 0 0-7.8-2.2c-2-.4-7-.3-8.5-1.8-4.2-4.1-10.7 2.5-6.4 6.4 3 2.8 6.8 3 10.7 3.1a31.81 31.81 0 0 1 11 2.3c5.4 2.3 3.2 7.1.4 10.9a22.76 22.76 0 0 1-4.9 4.9c-2.7 1.9-5.2 1.8-8.4 2.1a22.34 22.34 0 0 0-6.7 1.9 13.61 13.61 0 0 1-8.7.2 22.31 22.31 0 0 1-13.3-9.4c-1.5-2.4-3.1-5.6-2.5-8.5.6-2.7 3.1-3.9 5-5.6s3.3-3.4 5.1-5a8.1 8.1 0 0 1 4.6-2.3c1-.1 5.5.4 2.8 3.1-.8 1.2.3 2.2 1.1 1.5 2.4-2 3.7-4.4.5-6.5-3.7-2.5-8.4-1.2-11.8 1.1a52.11 52.11 0 0 1-7.8 4.7 11.54 11.54 0 0 0-5.9 6.2c-2 5.5.2 11.7 3.4 16.3a28.6 28.6 0 0 0 14.6 11 26.24 26.24 0 0 0 10 1.6c3.7-.2 6.7-2.4 10.3-2.8 6.7-.7 11-1.9 15.8-6.9 3.8-3.9 7.3-9.3 7.3-14.9 0-6-4.8-9.5-9.9-11.4zM260.8 470.2c-11.16-10-28.81-10.9-43.13-7.77-3.63-1.58-7.84-2-11.27-.43-2.9 1.3-4.9 4-7.4 5.9a21.74 21.74 0 0 0-6.3 7.2 11.85 11.85 0 0 0 3.2 15.4c3.2 2.7 7 3.6 10.7 5.5 4.3 2.2 8.5 4.8 12.9 7 5.9 2.9 12.4 9.1 19.5 7.7a11.68 11.68 0 0 0 7.3-5.2c.8-1.2 1.4-3.1 2.4-4.1 1.7-1.7 4.4-1.3 6.6-1.7 5.9-1 13.5-6.6 14.3-12.9s-4.4-12.6-8.8-16.6zm-3.1 19.4c-5.2 3.7-12.1 1.6-16.2 7.6-1.8 2.7-2.6 6.4-6.7 5-2.9-1-5.5-3.2-8.1-4.7-6.4-3.6-13.2-7.5-19.9-10.2-2.4-1-7.2-2.7-7.7-5.8-.4-2.8 2.8-5.9 4.6-7.4 2.1-1.8 4-5.3 6.4-6.4a5.92 5.92 0 0 1 1.08-.37 4.74 4.74 0 0 0 5.82 4.87c11.6-2.6 27.2-4 37.2 3.9a25 25 0 0 1 5.6 6.1c2.1 3.5 1.1 5.1-2.1 7.4z"/></svg>