<svg id="Layer_1" data-name="Layer 1" xmlns="http://www.w3.org/2000/svg" viewBox="0 0 1348.02 573.93"><defs><style>.cls-1{fill:#f8e}</style></defs><title>Artboard 1</title><path class="cls-1" d="M372.78 107.16c2.4-.1 5.7-.3 7.8 1 2.9 1.9 4.3 6.4 6.2 9.1 3.2 4.5 9.1 5.7 14.3 6.4a21.42 21.42 0 0 0 17.6-6c4.4-4.2 5.4-9.1 7.2-14.6.6-1.7 1.1-3.3 2.8-4 1.3-.6 3-.3 4.4-.5a25.72 25.72 0 0 0 7.5-2.6 24.56 24.56 0 0 0 11.9-12.3 14.27 14.27 0 0 0-1.8-14.6 60.94 60.94 0 0 0-5.4-6c-3.3-3.4-4.2-5.7-3.9-10.4.6-9.8-5-25-17.5-21.3-5.9 1.7-12.5 12-18.5 9.5-3.4-1.4-5.1-4.7-7.9-6.8a13.2 13.2 0 0 0-8.6-2.5c-6.2.7-5.7 6.1-6.8 10.7-1 4.2-3.1 10.9.9 14.1.9 1 2.7-.1 1.9-1.3-2.4-3.6 1.1-9.9 2.3-13.4.7-2.1.3-4.2 3.4-4.1s4.8 3.5 6.6 5.5c2.7 3 6.5 5.6 10.7 5.6 4.8 0 8.2-3.4 11.6-6.3 4.1-3.4 9.1-6.5 12.5-.6 3.1 5.4 1.5 10.1 1.9 15.9.4 4.5 3.1 7.8 6.1 10.9 3.1 3.3 8 7.3 5.4 12.3-1.9 3.7-6.9 7.5-10.8 9-4.4 1.8-9 .1-12.7 3.9-2.9 3-3.7 7.1-4.8 10.9-1.5 5.3-5.2 9.5-10.7 10.8-3.7.9-10.8-.3-13.2-3.5-3.3-4.3-4.6-9.4-9.8-11.7-8-3.6-16.7.2-24.9-.9-1.7-.2-5.7-1-6.3-2.9-.8-2.3 3.4-5.8 4.7-7.1 3.6-3.6 8.3-7.7 8.7-13.2a12.29 12.29 0 0 0-2.2-7.6c-.4-.6-1-1.3-1.5-1.9-.22-.22-.42-.44-.63-.66a98.25 98.25 0 0 1 13.53-.34c5.4.1 5.4-8.3 0-8.4s-10.8-1.1-16 .5c-4.6 1.4-8.6 6.1-6.1 11 1.4 2.7 5.3 4.5 4 8-1.2 2.9-4.6 5.3-6.8 7.5-3.9 4-8.1 9.7-5.5 15.5 4.7 10.7 19.4 7.7 28.4 7.4z"/><path class="cls-1" d="M383.68 70.46c-3.9 4.3-7.6 10.8-7.2 16.8a4.17 4.17 0 0 0 3.1 4c1.6.6 3.4-.2 4.8.3.7.2 1.6 1.8 2.4 2.3 1.5.8 2.9.6 4.5.7 2 .1 2 .1 3.9 1.4a4.15 4.15 0 0 0 4.3 0 22.38 22.38 0 0 1 3.7-2c1.6-.6 2.6-.7 3.9-2a10.33 10.33 0 0 0 1-1.21 4.45 4.45 0 0 0 4.68-2.09c1.3-2.3 1.5-5.2 2.9-7.3 1.2-1.7 3.2-2.5 4.3-4.3a11.71 11.71 0 0 0 1-8.4c-1-4.87-4.62-7.82-8.52-7a19 19 0 0 0-1.88-2.41 4 4 0 0 0-5.6 0 7.92 7.92 0 0 0-1.37 2.22 4.29 4.29 0 0 0-4.63.68l-1.21 1.08c-1.48-.34-2.92-.45-4.6-.68a5.5 5.5 0 0 0-.89-1.9c-1.7-2.2-5.6-1.7-5.6 1.5a41.72 41.72 0 0 0 .75 5.64 12.68 12.68 0 0 0 0 1.47 3.53 3.53 0 0 0-3.73 1.2zm5.9 5.9a4.11 4.11 0 0 0 1.08-2.89 9 9 0 0 0 .92 1.09c1.3 1.3 3.5-.2 2.5-1.7-.07-.1-.12-.2-.18-.3a3.39 3.39 0 0 0 .94-2.11 7.51 7.51 0 0 1 1.94.61 3.91 3.91 0 0 0 4.7-.6L402 70c.25.19.51.37.76.57a3.93 3.93 0 0 0 4.8-.6 4.67 4.67 0 0 0 .31-.39 4.07 4.07 0 0 0 5.22 1 4.56 4.56 0 0 1 .07.72c.1 1.7-.3 1.7-1.4 2.8a20 20 0 0 0-3.2 3.3 13 13 0 0 0-1 2.18 4.17 4.17 0 0 0-5.15 2.92 9 9 0 0 1-1.54 3.5 11.63 11.63 0 0 0-3.57 1.45 8.08 8.08 0 0 0-2.92-1.38 7.57 7.57 0 0 0-3 0 4.69 4.69 0 0 0-.63.2l-.07-.1c-1.1-1.2-2.1-2.4-3.8-2.8a4.52 4.52 0 0 0-1.39-.15 22.14 22.14 0 0 1 4.09-6.86zM715.48 206.36c6.11 2.31 11.72 1.34 17.36-.46a15.08 15.08 0 0 0-.86 3.56 22.09 22.09 0 0 0 1.1 7.2c1.3 3.9 3.9 9.1 8.2 10.4 8.94 2.63 10-8.12 10.75-16.09.51.47 1 .94 1.55 1.39a23.28 23.28 0 0 0 7.2 4.8c4.8 2 14 4.1 16.3-2.6 1.6-4.7-2.6-9.5-5.5-12.7-.63-.67-1.3-1.36-2-2l.48-.06c4.2-.7 8.8-2.4 11.9-5.4 5.9-5.8 2.6-13.5-3-18.1s-14-8.5-21.3-7.2a11.56 11.56 0 0 0-6.86 3.61 134.23 134.23 0 0 0-5.34-14.61c-2.9-6.9-10.2-8.4-15.1-2.3-5.1 6.5-5.1 15.2-3.5 23 .22 1.1.51 2.35.87 3.62-.78.21-1.55.41-2.27.58-6.3 1.5-13.5 2.2-16.5 8.9-2.78 6.16.42 12.16 6.52 14.46zm54.34 5.58c-.33-2 1.72.6 0 0zm-18.49-13.72c2.76-3.05 3.88-7.46 1.22-10.81a3.25 3.25 0 0 0 .12-.65v-.3-1.63c.21-4.67 1.15-9.42 6.94-9.77 4.6-.3 9.7 2.3 13.4 4.9s7.9 7.2 2.7 10.4c-5.7 3.5-10.9 2.1-16.9 1.2-3.8-.6-6.8 4.6-2.8 6.7 4.78 2.58 11.64 8.26 13.64 13.64l-.34-.14c-1.4-.7-3.5-.7-5.1-1.3a14.18 14.18 0 0 1-4.8-3.1c-2.6-2.4-5.6-6.5-9.2-7.5h-.2a7.16 7.16 0 0 0 1.32-1.64zm-5.85 4.34c-1 3.3-1.1 6.4-1.4 9.8-.1 1.9-.5 3.8-.7 5.7-.16.24-.28.45-.38.63a12.48 12.48 0 0 1-1.22-1.93 12.06 12.06 0 0 1-1.2-9.1 20.72 20.72 0 0 0 1.07-6.93h.2a6.1 6.1 0 0 0 3.33.91h.73a4 4 0 0 0-.43.92zm-12-42c2.2-3.6 5.5-4 7.1.2.8 2.1 1.3 4.3 2.1 6.4 2 5.7 4.17 11.33 4.26 17.37a6.24 6.24 0 0 0-3.1 1 5.2 5.2 0 0 0-1-1.73c-3-3.3-7.19-3.15-11.3-2.31-.24-1.4-.38-2.74-.5-3.79-.56-5.7-.76-12.04 2.44-17.14zm-16.2 33.3c2.2-2.3 7-2.3 9.9-2.9.87-.22 2.53-.85 4.26-1.35a7.81 7.81 0 0 0 1.65 1.32 7.81 7.81 0 0 0 .09 3.93 6.79 6.79 0 0 0 1 2.06c-3.81 1.47-7.62 3.06-11.78 2.64-3.02-.3-8.92-1.8-5.12-5.7zM1085.38 100.56a17.33 17.33 0 0 0-8.7-1.3c-2 .2-3.7.9-5.6 1.2-4.3.8-5-1.3-6.3-4.7-1.9-5.2-3.4-13.2-9-15.8-6-2.8-13.4 3.9-14.5 9.6-.8 4.5 1.9 8.5 1.6 13-.3 5.1-3.4 9.2-6.6 13-5 6.1-10.6 13-7.2 21.2 2.8 6.6 9.4 11.9 16.8 10.9 2.2-.3 1.7-4.2-.6-4.1-5.7.3-11.5-5.9-11.4-11.5.1-6.1 6.9-11.1 10.4-15.5 3.4-4.2 6.2-9.5 6.3-15 .1-3.2-1.6-6.3-1.5-9.4a4 4 0 0 1 1.8-3.5 8.62 8.62 0 0 1 1.59-1c5.89 7.05 4.18 22.89 17.21 21.79 2.3-.2 11.6-4.1 13.1-.2.9 2.4-2.6 4.6-4.1 5.7a19.36 19.36 0 0 0-5.7 5.7c-3.2 5.3-1.9 11.8-1.9 17.6 0 2.3.3 4.5-2.3 4.4a10.7 10.7 0 0 1-5.56-2.23c.68-3.8-4.61-7.44-7.54-4-.4.5-.8.9-1.2 1.4a4.71 4.71 0 0 0-.7 5.5c3.1 5.3 11.5 9.2 17.6 8.2 7.7-1.3 8.8-9 8.5-15.5-.1-3.3-1.1-8 .7-11 2-3.4 6.4-4.7 8.6-8.1 3.82-5.76 2.7-13.26-3.8-16.36z"/><path class="cls-1" d="M1058.28 127a6.1 6.1 0 0 0 4.9-2.79c2.84-.79 3.86-3.82 2.6-6.61a5.81 5.81 0 0 0-7.7-2.9 8.46 8.46 0 0 0-4.4 7.6 4.55 4.55 0 0 0 4.6 4.7zm-.84-7.34h.07c-.08.09-.16.17-.23.27a.88.88 0 0 1 .16-.3zM951.38 128.36c.28-.28.64-1 .94-1.23h.16a10 10 0 0 1 2.5 2.1 2.93 2.93 0 0 0 1.34.68 6.24 6.24 0 0 0 1 .62c1.8 1 3.6-1.3 2.2-2.6-.2-.2-.4-.41-.6-.64a1.65 1.65 0 0 0-.3-.86c-1.3-1.8-2.7-3.9-4.9-4.7-2.8-1-5.5.6-7.2 2.8-2.14 2.93 2.48 6.33 4.86 3.83zM425.48 231.16a32 32 0 0 0 2.6-9c.05-.2.2-1.17.34-2.07.62 0 1.43-.1 2 0 4.6.5 8.9 2.4 13.2-.2 5.9-3.6 4.9-10.4 8.8-15.1s10.5-7.9 9.4-15.2c-.2-1.1-1-2.4-.6-3.2s3-2 3.8-2.8a10.66 10.66 0 0 0 3.1-7.6c.43-10.05-11.92-17.34-21.9-17.36-.78-4.06-1.85-7.86-4.9-11.14a36.92 36.92 0 0 0-12.9-8.4 22.35 22.35 0 0 0-9.61-1.43 11.65 11.65 0 0 0-11.29-7.07c-7 .2-12.6 5.5-16.4 10.9-2.46 3.49-4.39 6.93-5.06 10.53-4-3.77-9.52-6.41-13.94-6.83-5.5-.6-10.3 2.4-13 7.1-2.5 4.3-1.6 9.6-.6 14.2 1.1 5 4 7.5 7.8 10.7 1.9 1.6 3.9 2.9 2.2 5.2-1.8 2.5-3.5 4.2-4.8 7-2.8 6.1-4.8 11.8-2.7 18.5 1.6 5 4.8 9.2 9.9 10.8 4.5 1.5 10 1.1 14.5-.2 1.7-.5 4.9-2.4 5.8-1.4 1.1 1.1 1.2 5.2 1.7 6.8 3.3 10.7 10.3 18.4 22.5 15.7 4.66-1.03 7.96-4.23 10.06-8.43zm-16 .8c-4.9-.6-6.6-4.5-8-8.7-2-6-2.2-15.5-10.8-14.6-6.8.7-17.3 7.6-21.3-1.8-2.2-5.3 0-11.4 2.9-16 2.3-3.5 5.6-5.3 5.3-10.1-.2-4-3.1-6.8-6-9.2-3.6-2.9-5.2-4.7-6-9.4-1.1-6.7 2.7-11.7 10-9.5 3.49 1 8.84 3.73 11.25 7.34.19.48.4 1 .65 1.46a4.1 4.1 0 0 0 .33.53 5.86 5.86 0 0 1 .27 2.07c-.2 1.6 3.1 2.1 3.4.1 0-.18 0-.36.05-.54 2.59-.27 5.1-2.58 4-5.56-1.8-5.3 2.5-11.3 6.3-14.9 1.5-1.4 4.5-3.8 6.8-3a1.83 1.83 0 0 1 1.21 1.11 10.82 10.82 0 0 0-2.81 4.69 4.69 4.69 0 0 0 4.5 5.9 7.42 7.42 0 0 0 7.51-5.35c3.39-.14 8.47 2.28 9.79 3 2.5 1.4 5.2 3 6.8 5.5 1.9 2.9 1.9 6.5 2.5 9.8.5 2.3 3.4 3.8 5.6 3.2 3.9-1.2 8.7 1.1 12.1 3 1.3.8 2.7 1.4 3.3 2.9 1.3 3.3-2.1 4.3-4 6.1a8.35 8.35 0 0 0-2.7 9c.8 2.7.5 3.2-1.6 5.3a56.64 56.64 0 0 0-4.9 4.9 17.91 17.91 0 0 0-3.3 5.5c-.8 2.1-.9 6.1-2.8 7.5-2.5 1.8-7.6-.4-10.6-.5-10.8-.5-7.5 8.9-11.1 16-1.75 3.65-4.65 4.65-8.65 4.29z"/><path class="cls-1" d="M427.68 206.86c3.8-3.1 4.3-8.5 5.6-12.9 1.7-5.6 6.4-8.3 10.6-11.9 4.5-3.8-2-10.3-6.5-6.5-1.81 1.51-3.71 2.94-5.49 4.47-3.83-5.63-14.12-8.14-21.32-5.82a6.58 6.58 0 0 0-2.87 0 32.73 32.73 0 0 0-6.52-5.16c-3.5-2.4-7.7 1.6-6.8 5.3a12.49 12.49 0 0 0 5.8 7.7 14.22 14.22 0 0 0 1.4.68 13.32 13.32 0 0 0 0 1.62 12.66 12.66 0 0 0 1.66 5.45l-.36.25a10.67 10.67 0 0 0-4.8 8c-.3 2.6 2.4 4.6 4.7 4.7a32.88 32.88 0 0 0 7.6-.9c3.4-.6 4.3.9 6.4 3.2 3 3.21 7.1 4.81 10.9 1.81zm-5-9.14zM281 284.86c1.3-3 2.1-1.4 5-.4a67.42 67.42 0 0 0 18.9 3.7c11.1.3 20.9-6.1 24.5-16.9 1.6-4.9.6-9.1-1.8-13.5-1.3-2.3-3.5-4.9-4.3-7.5-.9-3.3 1.5-5.5 3.2-8.2 4.8-7.7 5.9-18.8 1.1-26.8-6.5-10.9-18.6-5.7-28.6-5.2-2.5.1-5.4.9-5-2.3.3-2.2 1.5-4.4 2-6.6 1.5-6 1.5-12.5-1.4-18.1-4.5-8.6-15-15.2-24.7-14.4a19 19 0 0 0-12.5 6.4c-3.5 4-4.5 9.5-7.7 13.6a6.3 6.3 0 0 1-10.1-.8c-2.1-3.4-2.7-7.8-4.3-11.5-4.2-9.9-13-18-24.2-17.7-9.4.3-20.5 2.8-24.2 12.6-3.9 10.4 2.8 19.9 9.9 26.9 3 2.9 11.9 9.2 9.4 13.9-2.7 5.1-10.4 7.6-15 10.4-8.9 5.6-16.1 13.4-16.8 24.4-.8 12.8 10.6 18 21.5 20 6.8 1.3 13.5-.9 19.9-3.2.86-.32 1.71-.66 2.54-1 .68 1 1.41 2 2.16 3.12 3.4 5 .3 11.7-1.1 17.1-2.8 10.7-.4 21.9 7.6 29.8s19.6 9.7 29.9 5.3c11.4-4.9 17.5-14.4 21.5-25.7.88-2.42 1.6-5.02 2.6-7.42zm-14.8 9.9c-4.1 9-14.9 17.7-25.4 14.2-5-1.7-8.9-6.1-10.7-11-2-5.3-.9-10 .5-15.3s3.2-11.7 1.6-17.2a19.78 19.78 0 0 0-3.2-6.1c-.23-.31-.5-.63-.79-1 2.24-.82 4.5-1.58 6.69-2.54 2.6-1.3.9-5.6-1.7-4.6s-5.1 1.76-7.69 2.56v-.06c-.6-6.8-11.3-6.9-10.7 0a14.81 14.81 0 0 0 .65 3.34c-5 1.7-10.88 3.35-15.85 2.66-4.6-.6-10.6-2.4-14.2-5.4-3.3-2.8-3-7.2-1.8-11 2.9-9.4 11.7-13.3 19.6-17.9 6.6-3.8 14.7-10.3 12.1-19s-12.7-13.6-17.4-20.9c-2.1-3.4-3.6-8-1.7-11.8 2-4 6.7-4.9 10.7-5.5 5.1-.8 9.5-.9 13.6 2.7a27.58 27.58 0 0 1 7.9 12.5c2.1 6.5 4.4 13.5 11.6 15.7 8.8 2.7 15.8-1.5 19.8-9.2 2.1-4 3.5-9.1 7.8-11.2s9.1-.3 12.7 2c4.3 2.8 7.5 7 7.5 12.3s-2.8 9.5-3.4 14.5c-1.1 10.6 8.9 12.6 17.2 12.1 4.3-.3 10.7-2.9 14.8-1.6 3.6 1.1 4.2 5.5 4.3 8.8.1 4.3-1.2 7.6-3.6 11.2-2.8 4.2-5.2 8.2-4 13.4 1.2 4.9 5.4 8.5 6.7 13.2 1.1 4.1-3.1 9.1-6.3 11.3-8.6 5.8-20.8-1.7-29.5-3.5-12.43-2.56-14.33 14.64-17.83 22.34z"/><path class="cls-1" d="M215.48 190c-1.4-2.6-4.2-5.2-4.1-8.3.2-2.2-3-2.1-3.3 0-.4 3.7 2 6.2 3.4 9.4 1.7 3.6 2.9 7.2 5.5 10.3 2 2.4 5.8-1.2 3.5-3.5s-3.48-5.14-5-7.9zM260.38 209c1.4-3.9 3.4-7.6 4-11.7.5-3.1-4.2-3.7-4.2-.6 0 4.1-1.7 7.9-2 12-.1 1.3 1.82 1.36 2.2.3zM283.28 266.26c1.9-.2 4 1.7 5.7 2.4a8.27 8.27 0 0 0 4.9.6c.8-.1.6-1.3-.1-1.2-3.4.3-6.8-3.1-9-5.4-3-3.2-5.5 4.1-1.5 3.6zM268 227.06c-3.2-1.4-3.3-4.2-4.6-7.2-1.3-2.8-4-6.2-7.4-5.8-2.49.27-4.43 2.26-6 4.41-3.22-2-5.65-5-10.15-4.91a6.43 6.43 0 0 0-6.6 6.1c-.2 1.9.4 3.8.4 5.8-.1 3.1-2.7 4.5-3.8 7.2a7.43 7.43 0 0 0 3.7 9.8c1.3.6 3.7.4 4.3 1.5s-.2 4.2-.2 5.5c.2 3.3 1.8 6.6 5.3 7.3h.25a4.53 4.53 0 0 0 4.15 4.06c4.5.5 9.5-1 14-1.8 4-.7 6.7-2.6 8-6.4 2.1-5.9 10.7-15.7 5.1-22.1-1.67-1.96-4.17-2.46-6.45-3.46zm.1 9.4a14.19 14.19 0 0 1-1.7 4c-1.3 2.6-3.9 4.7-4.8 7.4-.4 1.1 0 1.7-.8 2.3s-2 .4-2.9.5c-2.06.29-4.11.76-6.17 1.09a14.78 14.78 0 0 0 1.77-9c-.5-1.9-3.2-1.3-3.3.4s-2.2 7.8-4.7 7.4c-1.7-.3-.5-3.9-.5-5.2.1-2.2 0-4.4-1.3-6.3s-3.2-2.1-5.1-3.2-1.9.9-.7-1.6a27.82 27.82 0 0 1 2.1-2.7c1.5-2.6 1.5-5.2 1.2-8.2-.05-.35-.2-1-.29-1.71a10.15 10.15 0 0 0 2.19 1.21c2.5 1.6 4.3 3.4 7.2 4.5a4.09 4.09 0 0 0 4.5-1.8 22.77 22.77 0 0 1 1.49-2.35c1.48 2.47 2 6.39 4 8.35a11.66 11.66 0 0 0 3.8 2.4c1 .5 3.46.8 4.18 1.68a4.23 4.23 0 0 0-.19.83zM666.08 230.86c-.7 1.7-.5 3-.8 4.7-.3 2.3-1.5 4.1-2.2 6.3-1.8 5.8 1.2 10.7 5.6 14.3 4 3.3 9.4 6.2 14.8 5.6 1.8-.2 3.5-.9 5.4-1.1a47.54 47.54 0 0 1 6.5.2c3.4.1 6.5.1 9.6-1.6 5.2-3 8.4-8.9 10.8-14.2 3-6.7 2-13.7-2-19.9-4.2-6.3-10.5-12.2-18.1-13.8-5.6-1.2-14.8-1.5-19.2 2.9a4.54 4.54 0 0 0-.7 5.5 14.62 14.62 0 0 0 2 3.24 20 20 0 0 0-6.4 2.36 13.36 13.36 0 0 0-5.3 5.5zm10.3-1.8a15 15 0 0 1 6.44-1.9 4.25 4.25 0 0 0 1.44.08 2.81 2.81 0 0 1 2.51 2.17h-.06a15.1 15.1 0 0 0-.94-1.25c-1.4-1.5-4.5-.8-4.8 1.3s-.5 4.5.9 6.4a20.67 20.67 0 0 0 4 3.8 3.72 3.72 0 0 0 5.1 0 3.62 3.62 0 0 0 0-5.1 15.3 15.3 0 0 0-1.95-1.48.9.9 0 0 0 .15-.42c.26-3 .79-6.32-1.4-8.23a3.41 3.41 0 0 0-.6-2.67c-.42-.66-.86-1.33-1.28-2a29 29 0 0 1 9.48.82c5 1.7 10.1 6.8 12.3 11.5 2.5 5.3.3 10.1-2.5 14.8-1.1 1.8-2.5 4.1-4.5 5.1-2.6 1.4-6.1.5-9 .5-4.7-.1-9 2.3-13.4.4-4-1.7-9.1-5-7.6-9.8.8-2.7 1.7-4.8 1.8-7.6.21-3.22 1.11-4.82 3.91-6.42zM780.18 458.26a11.32 11.32 0 0 0 5.8-5.8 13.85 13.85 0 0 0 1.19-3.35c1.7 1.36 6.13 2.6 7.51 2.95a51.13 51.13 0 0 0 12.3 1.5c5.6-.2 12.2-2.7 14.7-8.1s-.3-12.1-4-16.3c-1.8-2-4.3-3.5-6-5.6-2-2.5 0-4.6 1.5-7.1 3.7-5.9 6.2-12.7 1.5-18.9-3.9-5.1-10.4-4.7-16.2-4.5-3.6.1-6.7-1.3-10.3-1.3-4.9-.1-7.2-.8-8-5.9-1-6.7-3.5-14.2-8.5-19.1-4.1-4-9.2-3-12.7 1.1a41 41 0 0 0-4.2 6.6c-1.3 2.4-2.3 5.7-5.2 5.8-4.5.2-9.1-3.6-13.4-4.6a16.66 16.66 0 0 0-8.3 0c-5.8 1.5-10 6.5-8.7 12.6 1.5 7.2 9.3 10.6 15.3 13.6 4.27 2.21 9.59 4.29 14.42 6.95-5.22 6.08-11 14.11-8.52 21.55a10.17 10.17 0 0 0 4.6 5.4 11.64 11.64 0 0 0 3.7 1.3c.5.1 4.1 0 4.4.2.7.6.6 3.5.8 4.5a14.58 14.58 0 0 0 1.6 4.1 27.15 27.15 0 0 0 6.4 7.9c4.6 3.7 12.5 6.8 18.3 4.5zm-11.3-11.6a13.41 13.41 0 0 1-5.6-6.8c-1-3-.6-5.8-2.6-8.4a8.9 8.9 0 0 0-6.9-3.7c-1.2-.1-4.2 0-4.4-.5-.6-1.5 1.3-4.2 2-5.4a60.11 60.11 0 0 1 5.32-7.5 19.45 19.45 0 0 1 2.88 3.5c.3.4.7.8 1.2.7a4.33 4.33 0 0 0 3.7-2.2c.6-1.2-1.2-2.6-2.1-1.6-.71.78-2.35-1.43-3.54-3.11l.14-.19c3.6-4.6-2.5-11.2-6.6-6.6l-.4.45-.2-.15c-6-4.3-12.6-7.6-18.9-11.5-3.1-1.9-11.2-8.1-4.2-10.8 5.7-2.2 11.7 2.9 17 4.3 4.3 1.1 8.3 1.3 11.4-2.3 2.9-3.4 4.4-9.6 8-12.2.31-.24.36-.45.35-.58a4 4 0 0 0 .65.78 18.55 18.55 0 0 1 2.7 4.5 24.19 24.19 0 0 1 2.6 7.7c.9 5.8 1.5 10.3 7 13.5a13.19 13.19 0 0 0 7.2 1.9c3.2 0 5.9 1.1 9 1.3 3.9.3 14.2-2.4 13.3 4.4-.7 5.2-6.2 8.8-6.7 14.4-.5 5 2.5 8.6 6 11.7 2.2 2 7.5 6.2 5.5 9.7-2.7 4.6-13.2 1.2-16.8-.1-3.9-1.4-7.8-4.9-12.2-3.3a8.59 8.59 0 0 0-4.5 4.3c-.8 1.6-1.3 5.1-3.1 6-1.08.5-5.7-1.3-7.2-2.2zM940.68 347c-6.1-4.9-13.2-9.4-21.2-9.8a34 34 0 0 0-16.8 3.9 21.39 21.39 0 0 0-3.72 2.4c-2.31-2.48-8-1.42-8.58 3.2-.8 7.6-10.4 10.3-16.3 12.3-6.9 2.2-10.4 8.5-13 14.8-1.5 3.7-1.9 7.5-2.4 11.5a37.35 37.35 0 0 1-3.8 11.7c-3.4 6.8-11.1 7.8-15.1 13.9-3.3 5-4 11.7-2.5 17.5 1.8 6.7 6 9.7 12.2 11.9 7 2.6 14 5.6 21.6 5.5a72.13 72.13 0 0 0 22.1-3.7c13.9-4.6 24.7-15.3 24.6-30.6a67.54 67.54 0 0 0-1.4-11c-.4-2.4-.7-3.1.7-4.2s6.7-4.1 8.3-3.9c1.3.2 2.4 1.7 3.5 2.3a15 15 0 0 0 5 1.8c7.5 1.3 15.1-.5 21.9-3.6 5.7-2.6 10.6-5.8 10.3-12.8s-4-13.7-8.8-18.5a190.5 190.5 0 0 0-16.6-14.6zm16 35.3c-1.7 2.2-7.2 3.6-9.7 4.3a27.5 27.5 0 0 1-9.9 1.2c-2.9-.3-4-1.5-6.3-2.9-5.3-3.5-10.4-.7-15.5 1.7-3.4 1.6-6.8 3.4-8.2 7.1-1.8 4.7.4 9.9.9 14.7 1.4 13.6-8 22.1-20.4 25.4-5.8 1.6-12.3 2.8-18.3 2.5-6.2-.4-12.3-3.2-18-5.4-5-1.9-6.3-6.9-4.9-12 1.6-5.6 8-6.7 11.9-10.4 4.3-4.1 7-10.6 8.7-16.2 2.1-7.4 1.1-16.2 6.8-22.3 2.5-2.6 6.1-2.6 9.3-3.9a37.32 37.32 0 0 0 7.5-4.3 26.8 26.8 0 0 0 4.57-4.18c2.19 4.34 7.07 7.47 11.43 9.08a2.15 2.15 0 0 0 2.3-.9 17.73 17.73 0 0 1 1.5-3.1c.5-1.7-1.5-3.4-2.7-2.1-.48.48-.92 1-1.37 1.46-4.72-2.66-9.83-8.27-5.13-13.06 3.1-3.2 8.5-4.4 12.8-4.9 12.9-1.5 21.9 9 30.6 16.9 4.7 4.3 9.5 8.2 11.6 14.4.7 1.96 1.9 5.06.5 6.86z"/><path class="cls-1" d="M877.18 384.16c-.1 1.5-1.8 2.9-2.7 4.1a27.29 27.29 0 0 0-2.7 4.7 29.4 29.4 0 0 0-3.2 10.7c-.2 3.4 4.9 3.2 5.3 0a26.68 26.68 0 0 1 5-11.6c1.7-2.3 4-4.1 4.4-7.1.6-4.4-5.7-5.3-6.1-.8zM918 361.56c-.1 4.7.3 11.3-3.5 14.7-2.4 2.3 1.1 5.6 3.5 3.6 5-4 5.9-12.3 5.5-18.3-.22-3.5-5.42-3.56-5.5 0zM80.48 207c-4.4 4.2-9.9 7-15.4 9.4-6.7 2.9-12.6 4.5-18.6-.7-4.4-3.8-10.8 2.4-6.5 6.5 10.8 10.1 23.6 5.6 35.2-.6 11-5.9 20-15.5 22.9-27.9 1.3-5.4 2.1-12-1.1-16.9-1.7-2.6-4.1-4.6-6-7.1-2.1-2.9-2.3-6-5.6-7.9-5.2-2.9-11.7 3.8-15.5.6-2.1-1.8-3.3-4.5-5.6-6.2a13.33 13.33 0 0 0-7.9-2.8 8.41 8.41 0 0 0-6.4 3.1 7.05 7.05 0 0 0-1.25 2.14 28.87 28.87 0 0 0-5.58-7.17 8.38 8.38 0 0 0 7.47-.48 3.43 3.43 0 0 0 3.1-2.53c3.71-4.1 4.52-9.54 4-15.05-.4-4.8-.9-10.7-4.5-14.3-3.3-3.3-9.1-4.7-13.6-3.8-1.6.3-2.4 1.9-2.6 3.4-.07.59 0 1.65-.2 2.54a8.89 8.89 0 0 0-1.2-1.34 8.75 8.75 0 0 0-6.4-3.1 3.44 3.44 0 0 0-3.4 3.4c.1 5.6 3.6 10.6 5.5 15.7 1.53 4.11 3.35 8.11 6.91 10.72a4.18 4.18 0 0 0 .89 1.78l.05.06c-3.81-1.83-8.71-1.09-10.25 3.44-.7 2-.1 4.3-.4 6.3-.2 1.6-.8 3.1-1.1 4.7a5.51 5.51 0 0 0-.46 1.51l-.64-.21c-6.6-2.1-13.3-4.8-20-1.4-5.7 2.9-6.6 7.4-6.2 13.3.5 6.5 1.7 13 5.7 18.4 3.6 4.7 10.9 8.9 10.6 15.4-.5 10.7-14.2 28.5-2.3 37.3 5.8 4.2 13 2.8 19-.1a40.78 40.78 0 0 0 9.2-5.5c2.1-1.7 5.2-8.1 8.2-7.8a1.3 1.3 0 1 0 .7-2.5c-3.4-.8-4.8.7-6.9 3.1-4 4.8-10.2 7.7-16.4 8.9-3.1.6-7.6.8-9.7-2.1-1.6-2.2-1-5.2-.5-7.7 1.2-5 3.2-9.7 4.7-14.6s2.8-10.1 1-15c-1.7-4.5-5.4-7.8-8.6-11.2-4.1-4.3-5.9-8.9-6.4-14.9-.2-2.3-1.1-5.5.7-7.2 3.1-2.8 8.5-.8 11.8.3s6.8 3 10.1.9c3.9-2.5 5.4-8.8 5.8-13.1a15.56 15.56 0 0 0 .13-1.61 35.54 35.54 0 0 1 2.83 2.9c2.1 3 4 7.5 7.8 8.7 3.3 1 6.2-.8 7.7-3.7 1.1-2.2 1.1-4.5 4.2-2.3 2.3 1.7 3.6 4.5 5.7 6.4a10.18 10.18 0 0 0 10.9 2c1.1-.4 4.1-2.5 5.3-1.8a27 27 0 0 1 1.7 3.8 49.55 49.55 0 0 0 3.4 4.6c1.8 2.4 4 3.6 4.1 6.9a27.22 27.22 0 0 1-1.2 8 31 31 0 0 1-8.9 14.4zm-39.22-65.25a10.76 10.76 0 0 1-1.58-1.48c-1.9-3-2.6-6.8-3.9-10.1-.23-.58-.48-1.14-.73-1.71a6.23 6.23 0 0 0 4.53 0c2.61-1.13 3.48-3.76 3.94-6.44 4.42.36 6 5.13 6.56 9.14a27 27 0 0 1 .2 7.5c-.5 3.1-2.7 7.2-5.7 4.2a3.57 3.57 0 0 0-3.32-1.11zM113 259.39c-.06 5.84 5.31 10.49 9.67 13.87 5.5 4.3 11.7 4.2 16.6-.9 4.6-4.9 6.3-9.7 3.9-16s-5.5-12.8-12.2-15.5c-5.4-2.2-10.8-.4-14.8 3.6-3.1 3.1-5.7 8-4.4 12.5a7.68 7.68 0 0 0 1.23 2.43zm12.18-4.51a1.59 1.59 0 0 0-.51-2.52c-1.24-.49-2.08-1.17-3-1.53a13.06 13.06 0 0 1 1-1.07c5.3-4.7 9.9 1.8 12 6.4 1.2 2.6 2.6 5 1.5 7.7-1.2 2.9-4.2 6.3-7.5 4.8a25 25 0 0 1-7.24-5.95 14.25 14.25 0 0 0 2.54-.35c3.72-.88 3.78-5.65 1.22-7.48zM195.38 449.26c-2 0-1.1.6-1.9-.8a15.07 15.07 0 0 1-.8-3.8c-.7-3.3-1-6.7-1.7-10-2.6-11.8-11.2-17.2-22.8-18-5.2-.4-11.5.2-15.7 3.6-1.2 1-2.1 2.4-3.5 3.2-1.1.6-2.5.7-3.6 1.2a13.28 13.28 0 0 0-4.8 4.9c-2.81 4.68-6.14 14.09-3.74 20-3.54-.92-6.82-.45-9.06 4.21-2.9 6 3 10.4 1.3 15.9-1.4 4.6-7.7 8.6-6.6 13.8.9 4.6 6.9 6.7 11 7.3a19.59 19.59 0 0 0 8.3-1c2.6-.8 6.3-3.7 8.9-3.1s4.8 4.3 7.1 5.9a17.39 17.39 0 0 0 8.2 3.3 11.93 11.93 0 0 0 11.2-5.5c2-2.9 3.9-11.3 7.6-12.1 1.8-.4 4.6.9 6.4 1.2a20.42 20.42 0 0 0 7.4-.4c10.2-2.6 16.9-14 10.7-23.6-3.28-5.11-8.28-6.01-13.9-6.21zm7.3 18.3c-2.5 3.9-7.7 4.8-11.9 4.1-7-1.2-11.6-.8-15.3 6-1.6 2.9-2.4 6.4-4.5 8.9-3.9 4.8-9.9-.1-12.9-3.6-2.4-2.7-5.3-4.8-9.1-4.1-5 .9-8.8 5.4-14.3 4.9-.8-.1-5.3-1.3-5.3-1.3-.4-1.3 2.9-5.1 3.5-6.1 2.4-3.9 3.7-7.8 2.1-12.2-.8-2.3-3.1-4.8-2.5-7.5.6-2.9 3.2-3.1 5.6-2.7 3.5.5 6.7 1.6 10.3 1.2.6.1.9-1 .1-1.2a14.32 14.32 0 0 1-1.89-.52 4.53 4.53 0 0 0-1.23-7.51 1.75 1.75 0 0 1-.09-.37 8.09 8.09 0 0 1 0-2.2 18 18 0 0 1 1-4c.8-2.6 1.7-5.7 4.2-6.9 1.6-.8 3.2-1.1 4.7-2.3s2.5-2.8 4.2-3.7c3.3-1.6 8.1-1.2 11.5-.6s7.2 1.7 9.3 4.8c2.6 3.9 2.9 9 3.6 13.5.6 3.5 1 7.8 3.3 10.6 3.1 4 6.9 2.3 11.2 2.7 4.91.54 6.91 6.2 4.41 10.1z"/><path class="cls-1" d="M176.08 445.76c-6.14-4.75-15.7-2.44-19.87 4a4.7 4.7 0 0 0-4.23 2.38c-2 3.59-.15 6.24 2.65 8.2-1.05 3.29-.58 6.42 4.05 8 5.6 1.9 10.3-1.9 8.4-7.8a19.66 19.66 0 0 0-2.52-5l.22-.33c1.73-2.63-1-5-3.37-4.62a9.24 9.24 0 0 1 2.57-2.38 9.35 9.35 0 0 1 10.5.2c1.8 1.35 3.2-1.41 1.6-2.65zm-14 15.8c0 .33-.12.26-.33.06.18-.1.31-.14.33-.06zm-2.08 1.55c0 .11.06.19 0 .15-.16.07-.16 0 0-.15zm.06.19c.46.41-.3.19 0 0zM592.78 261.86c2.3-8.7-4-16.5-2.3-25.1 1.5-7.4 3-13.5.8-20.9-1.7-5.6-4.6-12-10.2-14.6a14.89 14.89 0 0 0-10.6-.5 38.27 38.27 0 0 0-5.6 2.2 20.37 20.37 0 0 1-2.2.9c-1.06.35-1.75.27-1.83.56-.23-1.13 0-3.07-.27-4a28.64 28.64 0 0 0-2-4.8 25.12 25.12 0 0 0-6.6-7.9c-5-4-11.5-5.9-17.7-3.5a19.63 19.63 0 0 0-8.5 7.1c-1.8 2.4-3.6 6.7-7 7.1-3.7.4-3.7-3.2-5-5.7-1.4-3-3.7-5-6.3-7-4.9-3.6-12.3-7.5-18.3-4.1-7.09 4-5.54 12.2-5 19.1-2.23.11-5.06-.75-6.94-.6a11.14 11.14 0 0 0-6.3 2.4 20.92 20.92 0 0 0-7.8 14 20.54 20.54 0 0 0 5.1 15.7 21.39 21.39 0 0 0 2 2 23.91 23.91 0 0 0-2.78 7.44 20.13 20.13 0 0 0 6.2 19c4.8 4.4 10.7 7.1 16.7 9.4.44.18 2.69 1.45 2.92 1 0 1.1-1.43 3.61-1.62 4.53a13.09 13.09 0 0 0 2 9.8c3.3 5.2 9.5 6.3 15.3 5.7 3.1-.3 6.2-1.2 9.3-1.2 4.3.1 6.9 2.4 10.4 4.5 6.6 4 14.4 4.8 21.1.5a24.19 24.19 0 0 0 7.2-7.4c1.9-2.7 3.1-7.3 5.5-9.5 1.5-1.3 2.9-1.1 4.9-1.2a48.56 48.56 0 0 0 10.7-1.6c6.82-2.03 12.82-6.13 14.72-13.33zm-14.6 2.1c-4.7 2.4-9.7 2.3-14.8 2.9s-8.3 3.2-10.8 7.5c-2.9 5-5.6 12.8-12.4 13.3-6 .4-10.7-6-16.3-7.4s-11 .4-16.6.7c-2 .1-4.9.2-5.5-2.3s1.9-5.9 1.7-8.7c-.6-6.4-6.8-8.3-11.8-10.3s-12.2-5.3-13.9-10.7a11.9 11.9 0 0 1 1.23-9.33 3.19 3.19 0 0 1 .47 1.83c-.3 2.3 3.2 2.9 3.7.7a6.77 6.77 0 0 0-1.66-6.32c1.62-2.06 3.45-4 5.06-5.68 4.5-4.8-2.6-11.9-7.2-7.2a81.07 81.07 0 0 0-6.13 6.81 19 19 0 0 1-3.28-6.31c-1.6-5.3.5-13.8 6.4-15.8 4.4-1.5 8.9 1.5 13.4-1a3.65 3.65 0 0 0 1.8-3.1c-.1-4.5-3.4-17.4 4.8-14.9a16.91 16.91 0 0 1 11 9.7c1.7 4.5 3.9 7.5 9 8.3s9.4-1.4 12.6-5.2 6.2-10.4 12.4-9c5.6 1.3 9.8 7.5 9.9 12.9.2 6.1 4.2 10.1 10.4 9.4 4.9-.5 12.6-7.3 16.7-3 9.4 9.7-.3 23.5 2.2 34.5 1.51 6.74 5.31 13.74-2.39 17.74z"/><path class="cls-1" d="M532.18 219.62c-3.53-1.19-7.19-1.62-10.79 0-5 2.3-7.8 7.4-8.6 12.6-.8 5.5-3.8 11.2.5 16 8.3 9.2 22 7.6 32.7 4.9 5.1-1.3 10.8-3.5 13-8.8 2.3-5.6-.5-11.5-3.9-16-4.34-5.61-15.21-11.19-22.91-8.7zm17.91 21.44c-.6 1.4-3.2 2.3-4.5 2.7a45.62 45.62 0 0 1-12.5 3 20.89 20.89 0 0 1-11.5-2.5c-2.5-1.5-2.7-2.3-2.2-5.2a43.38 43.38 0 0 0 .8-5.2c.35-4.4 1.87-8.8 6.26-9.72-3 4.87 3.67 9.3 7.74 5.82 1.8-1.5 5.5-.4 7.4.2.22.07.42.15.63.23a1.15 1.15 0 0 0 .69.27 12.75 12.75 0 0 1 5.68 5.2c.89 1.3 2.19 3.6 1.49 5.2zM475.58 381.06a8.91 8.91 0 0 1-.9-.39c.2.13.39.27.6.39s.1.2.3 0z"/><path class="cls-1" d="M521.28 364.56c-1.3-2.2-2.7-4.4-4.1-6.5-.7-.9-3.9-4-3.9-5.2s2.4-4.2 2.9-5.3a15.5 15.5 0 0 0 1.3-6.1 18.23 18.23 0 0 0-4.5-11.3c-5.7-6.7-13.5-5.4-20.7-2.1-3.6 1.7-7.1 4.3-11 5.1-4.8.9-9.1-1.5-12.4-4.8-5.4-5.5-9.9-13.8-18.2-15.3-7.9-1.5-17.2 5.9-19.9 13-3.08 7.92-.24 17.41 3.07 25.06a37.83 37.83 0 0 0-6.27 1.74c-6.7 2.5-13.4 7.1-15.7 14.2-2.1 6.7-.2 15.2 6.5 18.5 2.9 1.5 6.4 1.8 9.6 1.8 2.76.1 6.76-.86 9.46.26h-.06c-.1 1.1-1 2.5-1.4 3.6a18.47 18.47 0 0 0-1 5.7 23.72 23.72 0 0 0 3.4 11.6c3.9 6.7 10.7 11.2 18.6 10.5 8.4-.8 15-6.6 19.8-13 2.2-3 3.9-6.2 6-9.3 1.9-2.9 3.4-3.5 6.9-2.7 8.7 1.9 17.1 3.6 25.6-.4 7.5-3.6 12.8-10.4 10.6-19-.88-3.56-2.8-6.86-4.6-10.06zm-12.6 21.6c-8.3 2.4-15.8-3-23.9-1.9-14 2-14.2 25.7-29.9 25.1-7.5-.3-11.3-9.9-9.2-16.1 2.3-6.5 2.3-12.9-5.6-15-2.8-.8-5.8-.7-8.7-.7-2.4 0-6.4.7-8.6-.7-2.6-1.6-2.3-5.8-1-8.2 1.6-2.9 4.8-4.9 7.7-6.1 1.7-.7 4.8-2.1 6.7-2 2.1.1 3.6 2.3 4.9 3.7a32.29 32.29 0 0 0 4.22 4.07q.65.62 1.33 1.21a7.61 7.61 0 0 0 2.45 8.62c1.26 1 3 1.83 4.63 1.34a7.74 7.74 0 0 0 9.17-1.84l.1-.13h.2c2.2.2 4.2-.2 6.3.4s3.44 1.84 5.2 2.71c-2.36-1.58-4-3.68-6.9-4.51-1.22-.35-2.37-.7-3.49-1.07 1.52-5.13-3.33-11.19-8.66-11.61-2.08-1.78-4.69-3-6.54-5-2.58-2.68-5.06-5.64-8.71-7-2.88-7-6.68-17.32-2.39-23.94 1.8-2.8 6.4-6.9 10-6.9 4.2 0 7.8 4.9 10.2 7.9 4.8 5.7 9.6 11.3 17.3 12.7 7.5 1.4 13.4-2.6 19.9-5.6 3.8-1.7 7.9-3.4 11 .2 4.1 4.9 1.2 8.3-1 13-3.6 7.6 3.3 12.9 6.9 19 1.8 3 4.5 6.9 4.7 10.5.19 4.25-4.81 6.75-8.31 7.85zM695.18 389.26c6.2-.3 12.6-1 18.2-3.6 9.4-4.3 11.9-13 8.5-22.3-3.6-9.6-10.4-17.5-20.2-20.9-11.3-3.9-21 .6-31.4 4.7-1.9.7-7.6 3.3-9.6 1.7-3.5-2.8-.1-14.4-.4-18.4-.8-10.4-8.7-17.9-17.8-22-8.8-3.9-19-5.6-28.5-3.8-10.1 1.9-21.6 7.8-21 19.6.4 8.4 4.4 14.7 9.6 21 4.8 5.8 11.6 11.8 13.8 19.2 1.1 3.6-.4 5.8-3.5 7.5-5 2.8-10.8 4.1-15.9 6.6-10.5 5-16.8 13.6-15.9 25.5.8 11.3 7.2 24.3 19.1 26.8 4.48.92 12.35.19 16.68-3.19-.92 8.76.91 19 10.72 19.89 4.3.4 8.3-1.5 12.2-2.9 2.5-.9 4.1-1.6 6.6-.5 3.4 1.4 6.3 3.6 9.8 4.9a32.53 32.53 0 0 0 31.5-5.2c8.2-6.6 14.4-17.9 13.5-28.7-.5-5.2-3-9.8-6.3-13.8a55.83 55.83 0 0 0-5.3-5.6c-1-.9-2-1.8-3.1-2.7-.63-.56-1.6-1.75-2.54-2.64 1.35-.18 3.27-1 4.54-1.06 2.2-.1 4.52 0 6.7-.1zm-17.9 9.1c6.6 6 15.3 12.2 13.3 22.2-2.1 10.3-10.8 19.7-21.7 20.2-6.7.3-11.8-2.4-17.4-5.5-4.6-2.5-9-2.4-13.9-.7-3 1-8.7 5-10.3.9-2.1-5.4.7-12.2 2.6-17.2 4.7-12.5 8.1-25 8.4-38.5.1-6.6-10.1-6.6-10.2 0a96.6 96.6 0 0 1-3.2 22c-1.7 6.3-4.5 12.2-6.5 18.4a37.68 37.68 0 0 0-1.19 5.09c-3.26 2.67-9.87 2.22-13.41 1.51-5.7-1.1-9.6-4.2-12.5-9.2-4.9-8.7-6.6-21.8 1.9-28.7 9.2-7.5 33.3-7.7 31-24.3-1.8-12.9-14.8-20.9-20.6-31.7-1.7-3.2-3.4-8.6-2.1-12.2 1.7-4.7 8.2-6.4 12.5-7.5 7.8-2 16.7-.6 24 2.6a26.45 26.45 0 0 1 9.9 6.9c4 4.7 3.5 10.1 2.8 15.9-.9 7.9-.3 17.7 9.3 19.3 7 1.2 13.7-2.6 20-5 9.6-3.7 20.6-3.7 27.5 5 3.8 4.8 9.4 14.5 1.9 18.2-9.1 4.5-19.5 1.1-28.6 4.4-3.6 1.3-8 3.8-8.8 7.9-.8 4.3 2.4 7.4 5.3 10z"/><path class="cls-1" d="M655.58 400.46a2 2 0 0 0-1.6.9 13.76 13.76 0 0 0-1.2 3.4 6.46 6.46 0 0 1-.4 1.3l-.11.21a2.85 2.85 0 0 0-1 .89c-1.4 1.7-1.4 4.3.7 5.5a3.5 3.5 0 0 0 5.1-2.1c.4-1.5 0-2.9 0-4.3 0-.39.05-.77.07-1.16a1.21 1.21 0 0 0 1-1c.44-2.04-.46-3.54-2.56-3.64zM809.18 513.26c-4.9-2-10.8-3.2-14.4-7.3-3.3-3.7-4-9.1-4.5-13.8-.5-5.5-8.8-5.8-8.8 0-.1 6.2 1.1 12.6 4.7 17.8 3.8 5.4 9.5 8 15.5 10.1 6.4 2.3 12.6 5 17.6 9.8 4.1 3.9 9.7 11 8.7 17.1-1.2 7.4-8.5 6.5-14 5.3-5-1.1-10.4-1.8-14.4 2.2-3.1 3.1-5 9.7-9.4 11.4-5.2 1.9-12.4-3.3-15-7.4-4.9-7.6-3.3-17.6.6-25.3 1.94-3.78 7-12.81 12.26-13 0 .09 0 .17-.06.26a.85.85 0 0 0 1.4.8c.5-.4.9-.9 1.4-1.3a1.42 1.42 0 0 0 0-2c-4.2-4.2-9.9-.3-13.4 2.9a39.75 39.75 0 0 0-11.4 18.9c-3.8 15.3 4.5 32.5 21.3 34.1 6.9.7 11.1-4 14.7-9.2 2.1-3.1 3.2-5.6 7.3-5.1 3.8.5 7.4 2 11.3 2a16.17 16.17 0 0 0 15.4-11.8c2-7.4-1.9-15.1-6.2-21a47.24 47.24 0 0 0-20.6-15.46zM1074.88 204.06c-3.1-1.3-10.2-3.4-8.3-7.7s7.1-7.3 10.2-10.4c3.5-3.4 6-7.2 6.9-12 1.7-9.5-5.1-15.9-13.4-18.7-8.7-3-19.7-3.6-28.3-.2-10.1 4-17.1 12.8-22.8 21.7-3 4.7-5.8 9.5-8.7 14.2-3.9 6.3-7.2 12.7-13.7 16.7s-12.9 5.43-20.08 6.32a22.12 22.12 0 0 0 2.55-9.5 12.61 12.61 0 0 0 7.93-1.12c4.4-2.4 7.5-7.4 9.2-11.9a17 17 0 0 0-.9-14.6 16.55 16.55 0 0 0-6.13-6.51c4.31-3.19 7.5-7.93 7.83-13.29.5-7.9-5.7-12.9-12.8-14.8a27.67 27.67 0 0 0-7.17-.88 33.25 33.25 0 0 0 8.17-12c4.1-10.7-5.3-23.4-13.6-29.4-4.4-3.2-9.6-3.6-13.7.3-2.2 2.1-3.2 5.6-5.5 7.5s-5.4 1-8.2 1.3c-12.9 1.4-17.9 17.5-11.6 27.7a16.77 16.77 0 0 0 3.85 4.19c-.25.13-.5.25-.75.41-5 3.1-7 9.9-6.7 15.5a8.3 8.3 0 0 0 2.69 6.38 6 6 0 0 0-.59.12 12.72 12.72 0 0 0-6.7 5.4 23.25 23.25 0 0 0-3.2 19 21.08 21.08 0 0 0 11.7 13.7 17.06 17.06 0 0 0 11.07 1.6 26.86 26.86 0 0 0-.63 7 41.93 41.93 0 0 0-5.84 1.39c-12.2 3.9-20.6 12.7-25.3 24.4-4.1 10.2-6.5 23.1 2.6 31.4 10.4 9.4 25.7 8.4 37.5 2.7 5.1-2.5 8.9-6.7 13.7-9.7 2.7-1.7 9.7-3.6 9.7 1.6 0 3.8-4.3 8.6-6.3 11.5a62.1 62.1 0 0 0-7.2 11.8c-4.2 10.1-7.5 25.4 3.5 32.6 9.6 6.3 25.5 5.5 34.8-.8s11.8-17.8 15.5-27.7c1.4-3.7 2.9-6.8 7.3-6.1 6.6 1 12.9 3 19.7 2.2 12.6-1.5 18.3-11.9 18.7-23.6.1-5.2-1-10-1.8-15.1-1-6.5 7.3-8.8 12.1-10.8 8.6-3.6 19.8-11.6 14.5-22.3-2.4-4.91-7-7.51-11.8-9.51zM936.48 127a13.43 13.43 0 0 1 4.8-9c2-1.6 4-1.6 6.5-1.6 3.9 0 7.4-.4 10.2-3.2s4.6-9.9 9.2-6.7c4.1 2.8 7.7 7.8 9.7 12.3 1.8 4.2 1.5 7.2-.8 10.9-.8 1.3-4.9 7.7-6.9 6.6-4.6-2.5-8.1 3.9-4 6.9l.4.26a28.07 28.07 0 0 0-10.13 6.09 18 18 0 0 0-2.49-3.91 11.65 11.65 0 0 0 7-4c.5-.5-.1-1.1-.6-.7-3.3 2.9-11.1 1-14.6-.7-4.76-2.48-8.58-7.68-8.28-13.24zm-1.7 66.6a13.36 13.36 0 0 1-6.3-10.7c-.2-3.3 1.1-10 4.6-11.6 2-.9 4.9 0 7.1-.3a9.41 9.41 0 0 0 5.2-2.5c1.9-1.6 1-4.5-.7-5.8-2.1-1.4-4.5-2.1-6.6-3.4-1.8-1.1-1.8-.4-1.8-2.7-.1-3.2.9-9 4.6-9.9 4.3-1 8.6 3.5 10.5 6.6.18.3.35.61.51.92a17 17 0 0 0-2 8.65c-4.59 4.23-5.24 12.21-.78 16.93a9.79 9.79 0 0 0 7.81 3 4.93 4.93 0 0 0 3.49 1.7c5.83.43 9.12-5.09 8.46-10.16a3.35 3.35 0 0 0-.86-2.88 8.49 8.49 0 0 0-1.8-2.46 5 5 0 0 0-1.12-.79c.93-2.84-.79-6-3.38-7.51a7.22 7.22 0 0 0-2.44-.83 7.35 7.35 0 0 1 .94-2c1.2-2 3.4-3.3 5.4-4.4 3.8-2 8.2-3.4 12.4-3.1 3.2.2 9 1.2 10.4 4.7 2.1 5.2-4.8 10.3-8.9 11.3-3.7.9-3.9 5.8-1 7.7 5.1 3.5 12.2 5.6 10.5 13.5a18.15 18.15 0 0 1-3.8 7.1c-2.8 3.1-6 2.4-9.5.7s-7.8 1.9-5.6 5.6.43 9.14-2.86 13a13 13 0 0 0-1.54-.92 44.46 44.46 0 0 0-9.4-2.9 34.14 34.14 0 0 0-5-.58 18.22 18.22 0 0 1 3.3-10.82c2.7-3.4-.6-8.8-4.9-6.4l-.65.36v-.06l-.12.16c-4.94 2.71-8.76 4.07-14.16.75zm30.64 21.08h-.08l-.11-.11a.68.68 0 0 1 .19.07zm-9 2.38a4.78 4.78 0 0 0-.11 1.16 6.89 6.89 0 0 1-2.13-1.26h1.44zm103 13.94c-4.5 2.8-8.7 7-9.3 12.5-.5 4.7 1.4 9.4 1.7 14.1s.4 10.1-2.3 14.1c-3.6 5.3-11.1 4.5-16.6 3.5-5-.9-10.3-2.9-15.4-1.3-3.9 1.2-6.9 4.4-8.8 8-4.3 8.3-4.8 19.1-11.9 25.8-5.7 5.4-26.6 8.6-28.3-2.6-1.7-10.9 5.8-20.3 11.6-28.5 4.5-6.4 8.8-15.7 2.6-22.6-9-10-20.2-2.8-28.4 3.7-5.6 4.4-12.9 7.8-20.2 7.5-6.3-.2-14.2-2.9-16-9.6-1.5-5.7.9-12.5 3.1-17.7a31.94 31.94 0 0 1 14.1-16.2 36.29 36.29 0 0 1 10-3.89 14.63 14.63 0 0 0 11.26 8.39 15.21 15.21 0 0 0 8.15-.89 47.75 47.75 0 0 0 9.65-.21c7.2-.7 14.5-2 21.1-5.1 5.8-2.7 11.3-6 15.5-11 4-4.7 6.9-10.3 10.1-15.6 5.2-8.5 9.9-18 17.7-24.6 7.1-6 16.1-6.7 25-4.8 6.9 1.5 13.9 5.6 7.8 13.1-5.3 6.4-15.5 11.3-15.6 20.7-.1 4.3 2.4 8.1 5.7 10.7 4.1 3.3 9.6 4 13.7 7.1 9.3 6.96-11.9 12.86-16 15.4zM798.28 160.26c8 .5 11.3-6 16.8-10.4 5.9-4.6 11.5-7 14.5-14.3 2.7-6.7 2.5-14.6-1.7-20.6-2.6-3.8-6.4-7.2-9.8-10.4-2.8-2.6-6-4.9-9.9-4.9-4.6-.1-5.4 6.6-1.1 7.9 2.6.8 4.9 3.7 7.2 5.2 2.9 2 6.3 5 7.9 8.3 2.6 5.4.8 12.7-3.4 16.8-2.2 2.1-5.1 3.3-7.6 5.2a51.45 51.45 0 0 0-6.4 5.9c-2.4 2.6-4.2 4.1-7.8 3.3a19.62 19.62 0 0 1-8.4-4.2c-6.4-5.3-2.2-10.6.4-16.7 3-7 1.3-14.1 2.2-21.4.9-7.1 5.4-12.9 12.6-14.1 6.2-1.1 14.4 1.5 15.3 8.5.6 2.8 5.5 2.1 5.2-.7-1.3-13.6-18.4-17.6-29-12.1-5.9 3.1-9.7 9.1-10.9 15.6-.9 4.5-.4 9.1-.6 13.6-.2 5.1-2.3 8.5-4.4 13.1-3 6.4-2.8 12.6 2.1 17.9 4.1 4.5 10.7 8.1 16.8 8.5z"/><path class="cls-1" d="M800.08 116.36a3.16 3.16 0 0 0-1.7 2.2c-1.5 3.7 1.2 8.7 5.4 8.7a5.73 5.73 0 0 0 5.1-3.6 4.2 4.2 0 0 0 0-4.2 4.08 4.08 0 0 0-3.6-2.1 3.76 3.76 0 0 0-.5 0 4.39 4.39 0 0 0-2.8-1.24 4.13 4.13 0 0 0-1.9.24zm1.29 3.73s0-.01 0 0zM904.38 43.16c1.5.1 1.5-2.1-.1-2.3-5.1-.5-7.8-2-9-7a19.09 19.09 0 0 1 0-9.2c.8-3 2.6-6.9 5.6-8.5s6.2.6 9.2.4a3.63 3.63 0 0 0 3.4-2.6c.6-3.6-.8-8.1 4.5-6.2a12.71 12.71 0 0 1 6.4 5.7c3 5 3.8 11.3 4.3 17.1.2 2.8.1 5.7 1.2 8.3.7 1.7 4.5 4.5 4.5 5.9 0 2.6-8.6 2.5-10.2 2.3-4.3-.3-6.3-2.2-9.3-5.1-3.9-3.8-9.9 2.2-6 6 4.1 3.9 7.5 6.5 13.2 7.1 5.1.6 10.8.2 15.3-2.6 4.3-2.7 6.8-7.5 3.7-12.1-1.5-2.2-3.8-3.3-4.4-5.9a52 52 0 0 1-.6-6.8c-1.1-8.9-3.4-18.9-11.1-24.4-3.6-2.5-8.4-4.1-12.7-2.8-4.88 1.45-5.28 5-5.42 8.9a16.59 16.59 0 0 0-4.08-.4 11.49 11.49 0 0 0-6.6 3c-3.7 3.3-5.8 8.5-6.4 13.3a21.8 21.8 0 0 0 2.9 13.7c3 4.5 6.7 4.9 11.7 4.2z"/><path class="cls-1" d="M909.38 30.66a4.39 4.39 0 0 0 5.78 3.79 2.56 2.56 0 0 0 1.82.91 7 7 0 0 1 .82-.06 1.63 1.63 0 0 0 3.08-1c-.1-.4-.1-.8-.2-1.2a1.63 1.63 0 0 0-1.2-1.2 6.12 6.12 0 0 0-.46-2.08 6.14 6.14 0 0 0-4.73-7.52 3.76 3.76 0 0 0-4.5 2.6 4 4 0 0 0 .37 2.83 3.05 3.05 0 0 0-.78 2.93zM670.28 156.86c4.3 4.3 4 10.9 8 15.6 3.6 4.2 9 7.9 14.7 6.4 6.2-1.7 9.2-9.5 11.4-15a18.3 18.3 0 0 0-2.6-18.4l-.39-.49a1.6 1.6 0 0 0-.12-1.91c-4-4.9-5.6-11.1-10.9-14.9a21 21 0 0 0-14.3-4.2c-4.1.4-8.5 2.2-10.7 5.8a9.08 9.08 0 0 0-1.3 5.8 4.15 4.15 0 0 0 .64 1.6c-3.13 1.08-5.49 3.21-4.84 7.5.91 5.6 6.71 8.6 10.41 12.2zm.7-14.3c2.3-.4 2.7-3.1 1.9-4.8-1.1-2.4-4.2-3.5-1.6-6.3s7.8-3.1 11.4-2.2c5.31 1.25 8.17 4.61 10.79 8.39-5.13-3.52-11.07-5.32-14.59.11-2.4 3.7 3.2 8.1 6.1 4.7 1.3-1.5 9.7 6.5 10.9 8.2 3.3 4.5 2.3 9.1-.4 13.7-1.6 2.8-3.6 8.5-7.3 7.1-7.5-2.8-6.6-11.6-10.6-17-1.8-2.5-4.3-4.2-6.6-6.1-.9-.7-3.8-2.7-3.9-4-.2-1.8 2.3-1.5 3.92-1.8z"/><path class="cls-1" d="M684.08 157.36c.3.1.6.1 1 .2l.5.1a11.62 11.62 0 0 0 1.8.4 3.57 3.57 0 0 0 4.5-3.5 3.66 3.66 0 0 0-4.5-3.5 4.26 4.26 0 0 0-.41.14 3.4 3.4 0 0 0-1.79-.24l-.34.06a5 5 0 0 0-2.86-.16 2.57 2.57 0 0 0-1.5 3.8 5.51 5.51 0 0 0 3.6 2.7zm-.19-2c-.12 0-.21 0-.21-.11zM1345.08 147.46c-2.3-6.7-1.5-13.9-4.4-20.5-2.8-6.4-8.3-11.2-13.5-15.7a45.06 45.06 0 0 0-19.2-9.8 35.09 35.09 0 0 0-14.49-.76 28 28 0 0 0-13.31-3c-10.8.7-21.3 8.4-21.1 19.9a40.72 40.72 0 0 0 1.3 8.4c.6 2.9.7 3.5-1.7 5.5-3.9 3.2-7.2 6.2-9.1 11.1-3.6 9.1-1.2 19.9 4.8 27.4 7.7 9.6 22.1 12.6 33.8 11.2 3-.4 6.2-1.4 9.3-1.2 4 .2 5.6 3.4 8.2 6a21.13 21.13 0 0 0 17.9 5.9 28.22 28.22 0 0 0 24-23.5c1.2-7.24-.2-14.14-2.5-20.94zm-6.7 16.8c-.4 9.9-8 18.8-18.3 18.8-6.6 0-8.6-4.8-13.1-8.4-3.6-2.9-7.9-3.6-12.4-3.1-10.1 1.2-21.6 3.1-30.5-3.4a20.67 20.67 0 0 1-8-19.2 16 16 0 0 1 4.7-9.3c2.6-2.4 6-4.1 7.2-7.8s-.5-7.6-1.2-11.2c-1.1-5.7.1-10.1 5-13.7a19.1 19.1 0 0 1 13.82-3.38c-4.78 3-5.63 7.54-4.72 13.28.7 4.5 8.4 4.5 9.1 0 .1-1 .1-3.7.7-4.5s4.3-1.6 5.4-1.7a16.71 16.71 0 0 1 3-.19 12.07 12.07 0 0 1 2.44 3.19c1 2.1 4.7.6 3.8-1.6-.11-.27-.26-.53-.39-.8a48 48 0 0 1 6 1.9c4.6 1.8 8.3 4.7 11.9 7.9s7.4 6.5 9.1 11.1 1.1 9.7 2.4 14.5c1.55 6 4.35 11.2 4.05 17.6z"/><path class="cls-1" d="M1294.68 134.16c-.09-.07-.19-.12-.29-.19a1.81 1.81 0 0 0-.41-1.51c-2.7-3.4-7.2-2.7-9.3 1-1.9 3.4-1.5 7.9 2 10a7.07 7.07 0 0 0 9.4-2.5 4.8 4.8 0 0 0-1.4-6.8zM1312.82 159.19c0-.09 0-.18-.06-.28a2.39 2.39 0 0 0-.08-.35 3.9 3.9 0 0 0-1.59-2.21 3.71 3.71 0 0 0-2-.46 2.22 2.22 0 0 0-1.68-.54 2.56 2.56 0 0 0-1.7 2.3c0 .19.05.39.08.58a2.92 2.92 0 0 0-.08.32c-.1.3-.1.6-.2.9a3.92 3.92 0 0 0 1 3.7 3.83 3.83 0 0 0 2.35 1.07h.15a2.73 2.73 0 0 0 1.65-.28 3.73 3.73 0 0 0 1.25-.82 4.11 4.11 0 0 0 1-3.7 2.08 2.08 0 0 1-.09-.23zM1280.38 151.26c-1.7 1.32-3.82 1.74-5.9 2.32a2.93 2.93 0 0 0-4.1 3.38c.1.3.1.6.2.9a3 3 0 0 0 3.7 2.1c3.5-1.2 7-2.3 9.8-4.9a2.69 2.69 0 0 0 0-3.8 2.66 2.66 0 0 0-3.7 0zM575.18 67.56c.8.7 2.7 1.5 3.2 2.5.8 1.4.2 1.3-1.1 2.7-3.6 3.9-5.9 7.6-5 13.1 1.5 9.2 10.2 18.9 19.4 20.8 11.2 2.3 20.1-8.6 26.4-16.2a2.69 2.69 0 0 0 .65-1.34c5.28-.4 10.15-2.54 12.65-6.86a11.41 11.41 0 0 0 1.1-8.3 20.63 20.63 0 0 0-1.2-3.5l-.9-1.8c-.8-1-.9-1.3-.1-.9.4-1.2 2.1-2.3 2.7-3.6a10.13 10.13 0 0 0 .9-3.9 15.07 15.07 0 0 0-2.6-8.7 13.8 13.8 0 0 0-6.7-5.2c-3.7-1.2-6.7 0-10.3.5-6.7 1-7.8-7.5-12.3-11-3.8-2.9-9.5-5-14-2.2a9.72 9.72 0 0 0-4 5.7 10.85 10.85 0 0 0-.3 4c0 .41.06.95.11 1.45-3.68-.85-7.47-1-10.61 1.65a12.38 12.38 0 0 0-3.4 14.1 17.65 17.65 0 0 0 5.4 7zm4-15.3c1.4-.4 3.2.4 4.5.8 2.9.8 5.8.9 7.6-2.1 2-3.3-2.1-13.1 4.4-9.6 5 2.7 5.7 9.5 10.7 12.4a12.52 12.52 0 0 0 8.7 1.2c4-.7 9.3-2.4 10.7 3.2.9 3.6-3.2 5.1-3.8 8.5s2.1 5.6 2.7 8.8c.9 4.5-4.2 5.2-7.7 5.4-4.4.2-8.3-.8-11.6-3.7-3-2.6-8.5.8-5.9 4.5s7.61 6.23 13 7.15c-4.27 4.55-9.2 9.73-15.27 10.85-6.6 1.3-12.9-5.2-15.7-10.5-1.7-3.2-2.5-6.4 0-9.4 2.1-2.5 4.8-4.4 5.4-7.8 1.2-6.9-6.7-8.4-9.3-13.3-1.13-2.1-1.33-5.6 1.57-6.4z"/><path class="cls-1" d="M597.78 69.46a6 6 0 0 0 1.48-.61 3.48 3.48 0 0 0 2.32.61 3.78 3.78 0 0 0 3-2c.8-1.5.4-3.2-.1-4.7a2.13 2.13 0 0 0-2-1.5A6.06 6.06 0 0 0 600 62a3.72 3.72 0 0 0-.54-.11 3.42 3.42 0 0 0-2.9.9.65.65 0 0 0-.14.18 3.31 3.31 0 0 0-2.86 3.72 3.38 3.38 0 0 0 4.22 2.77zm-.9-6.6l-.33.06a.62.62 0 0 1 .33-.06zM122.28 401.36c-1.9-6-6.8-9.8-12.6-11.8-7.5-2.5-15.5-2.1-23.1-.2a75.42 75.42 0 0 0-10.75 3c-6.46.57-13.18 5-15.75 10.31a20.1 20.1 0 0 0-.3 15.6 18.42 18.42 0 0 0 4.7 7c2 1.89 5.08 2.78 7.23 4.53-2.66 5-3.62 11.91-.53 16.67s9.3 4.2 14.1 2.8c7.2-2 12.7-7.9 19.2-11.4 6.7-3.7 12-7.9 13.6-15.7 1.6-7.17 6.6-13.11 4.2-20.81zm-10.8 13.9c-.7 2.3-.8 4.8-1.5 7.1-1 3-3.2 4.9-5.7 6.6-3.8 2.5-7.9 4.2-11.5 7-3.8 2.9-7 5.8-11.9 6.6-2.9.5-4 .2-4.2-3a12.18 12.18 0 0 1 2-8.5 3.31 3.31 0 0 0-.5-4c-2.5-2.8-6-3.5-8.9-5.6-3.9-2.8-5.7-7.6-5.6-12.3a13.13 13.13 0 0 1 3.75-8.35c.37 3.33 4.87 6.07 7.45 2.85s7.8-3.9 11.5-5c5.5-1.6 11-2.6 16.7-1.8 3.9.6 8.5 1.8 10.6 5.4 2.8 4.8-.68 8.5-2.2 13z"/><path class="cls-1" d="M95.8 415.12a2 2 0 0 0-.22-.56c-.2-.3-.5-.6-.7-.9a2.9 2.9 0 0 0-4 0 2.57 2.57 0 0 0-.8 2 2.79 2.79 0 0 0 .8 2c.3.2.6.5.9.7a2 2 0 0 0 .47.2 6.61 6.61 0 0 0 .93.6 2.3 2.3 0 0 0 2.9-.4 2.4 2.4 0 0 0 .3-2.8c-.21-.28-.38-.56-.58-.84zM380.78 430.66c2.7-4.4 2.8-9.8 1.3-14.6-2.8-9.3-11.3-17.8-20.7-20.4-5-1.4-9.3-.1-14.3.9-7.3 1.4-8.8-3.8-11.7-9.3-4.5-8.5-14.4-14.3-24-10.7-12.1 4.5-8.4 21.4-19.6 25.7-4.9 1.9-9.2 3-13.3 6.6s-7.5 8.9-8 14.5c-1 10.7 4.1 22.2 14.6 25.8a20.26 20.26 0 0 0 6.23 1.18c.89 5.91-1.32 11.23-3 17.12-1.6 5.6-2.6 11.8-.5 17.4 2.2 6 7.8 9.7 13.5 11.9 6.1 2.4 13 3.2 19.5 3.5 6.2.3 13.4.5 19.3-1.6 8.4-3.08 12-11.09 12.53-19.37 9 1.46 17.34-1.78 23.17-9.73 6.1-8.2 8.2-19.3 2.3-28.2-1.6-2.5-2.9-3.4-1-6 1.17-1.6 2.57-3 3.67-4.7zm-6.8-6.8c-.9 3.6-4.7 6-6.2 9.3-1.8 3.9-1 7.6 1.2 11.1 2.4 3.8 4.3 7.7 3.2 12.4a21.49 21.49 0 0 1-8 11.8c-4.5 3.1-10.4 2-15.2.2-3.7-1.4-6.2 2.6-5.7 5.7.5 3.7.2 7.9-1.7 11.2-2.1 3.8-5.5 4.8-9.6 5.2-9.5.9-21.4.7-30-3.9-9.9-5.3-5.2-15.4-2.7-23.8a31 31 0 0 0 1.2-13.5c-.14-.89-.31-1.81-.5-2.72 1.66-1.92 2.58-4.34 4.4-6.08s4-2.6 5.5-4.9c.7-1.2-.7-2.5-1.7-1.8-3.2 1.9-6.5 1.7-9.4 4.5-.51.51-1 1-1.44 1.47-.06-.09-.1-.18-.16-.27a5.56 5.56 0 0 0-.81-1c2.39-4.15-4.16-9.2-7.29-5.2-1.8 2.3-3.1 4.5-2.2 7.5a6.39 6.39 0 0 0 .7 1.53c-7.82-3-11.71-13.46-8.9-21.33a18.23 18.23 0 0 1 10.6-10.3c3.9-1.4 7.9-2.2 11.2-4.9 3.1-2.6 4.8-6 6.2-9.7 1.6-4.3 2.6-10.6 7.3-12.5 3.6-1.5 8.2.1 11 2.5 3.1 2.7 4.3 7.1 6.3 10.6 4.3 7.3 10.7 9 18.7 7.3 4.2-.9 7.5-1.5 11.5.4a24.19 24.19 0 0 1 9.7 8.8c1.82 2.9 3.7 6.9 2.82 10.4z"/><path class="cls-1" d="M329.79 432.9a1.42 1.42 0 0 0 0-1.64c-2.3-3.1-6.5-7.1-10.6-4.5a7.13 7.13 0 0 0-1 .77 8.45 8.45 0 0 0-1.6.33 4.83 4.83 0 0 0-3.07 4.07 12.42 12.42 0 0 0-.73 7.53 10.66 10.66 0 0 0 7.7 7.9c4.6 1 8.6-1.8 11.9-4.8a4.22 4.22 0 0 0 .6-5 18.17 18.17 0 0 0-3.2-4.66zm-9.09 5.75a8.34 8.34 0 0 0 1.12-1.38c.12.06.25.12.37.2a7.71 7.71 0 0 1 1.68 1.37c-1.16.69-2.31.92-3.17-.19z"/></svg>