<svg id="Layer_1" data-name="Layer 1" xmlns="http://www.w3.org/2000/svg" viewBox="0 0 1392.19 571"><defs><style>.cls-1{fill:#ff7196}</style></defs><title>Artboard 1</title><path class="cls-1" d="M78.72 99.3C77.12 90 74.82 80 67 73.9c-4.1-3.2-9.3-3.5-13.9-5.7-2.2-1.1-4-2.6-6.1-3.9l-.11-.06a1.05 1.05 0 0 0-.19-1.14 5.72 5.72 0 0 0-6.65-1.77c-2.11-1.49-4.79.53-4.79 2.68C30.43 67.7 25.87 73.7 24 76.2a49.53 49.53 0 0 0-8.8 23.1c-1.2 9.5.1 19.5-2.2 28.8-2.1 8.3-7.1 15.5-9.8 23.6-1.1 3.4-1.8 7.1-2.7 10.6-.7 2.7-.9 5.3.7 7.7 7.3 11 17.7-5.2 20.3-11.7 3.6-9 4-18.7 5.3-28.2.13-1 .24-2 .36-3 .31 8 1.6 16.05 2.54 24.08 1 9.2 1.5 29 13.8 30.6 16.5 2.1 12-26.7 10.5-35.8s-3.6-18.4-5.3-27.6c-.61-3.41-3.9-11.17-2.38-15.14 3.29 2.64 4.6 7.83 6 11.54 2.2 6 3.9 12.2 5.6 18.4s3.6 12.5 5.1 18.8c1.1 4.7.9 10.7 3.9 14.7a2.22 2.22 0 0 0 3.5.4c7.3-6.8 8.4-20.4 9.2-29.7.6-6.6.2-13.4.2-20a110 110 0 0 0-1.1-18.08zm-3.5 32.3a97.24 97.24 0 0 1-2.1 17.9c-.79 3.95-1.59 8.33-3.8 11.77a50.87 50.87 0 0 1-.9-5.17 101.61 101.61 0 0 0-2.6-10.9c-1.8-6.8-3.7-13.7-5.6-20.5a133.78 133.78 0 0 0-5.8-17.2c-1.6-3.8-3.5-7.8-7.5-9.5a2.27 2.27 0 0 0-2.7.4c-3.5 3-2.4 8.5-1.7 12.5 1.3 6.7 2.7 13.5 4.1 20.2 2.4 11.5 5.3 23.3 4.5 35.2-.3 3.5-.8 10.1-5.2 11-8.7 1.9-10.1-14.5-10.9-19.8-1.4-9.6-2.8-19.4-3.3-29.1-.5-9.4 1.4-18.7 1.6-28.1 0-2.1-3.1-3.1-4.1-1.1-3.7 7-4.4 14.9-5.5 22.6-1.1 8-1.8 16.2-3.2 24.2-1.3 7.3-3.7 15-9 20.5-3.7 3.8-7.6 2.7-6.3-3.7a73.23 73.23 0 0 1 2.9-11.4c2.7-7.6 7.2-14.4 9.1-22.2 2.1-8.8.9-18.2 1.7-27.2.9-9.5 3.5-18.4 9.3-26.2a59.22 59.22 0 0 1 8.41-9.46c2.66 2.15 6.15 2.15 9.19 4.06a34.53 34.53 0 0 0 11 4.7c11.3 2.8 14.6 11.7 16.7 22.1 2.3 11.3 1.7 23 1.7 34.4zM201.32 32c-4.7-3.9-9.9-5.5-15.6-7.2-6.6-2-12.5-4-19.5-3.4a54.64 54.64 0 0 0-17.3 5 120.92 120.92 0 0 0-18 9.9 3.92 3.92 0 0 0 3.9 6.8c4.2-2.1 7.8-5.2 11.9-7.5a62.59 62.59 0 0 1 13.2-5.9c10.4-3.1 20.1-.2 30.1 3.1 8.1 2.7 19.5 13.5 13.8 22.6-2.7 4.3-6.2 8-9.7 11.8a38.09 38.09 0 0 1-3.3 3.6c-2.5 2.1-4.9 1.8-7.9 1.5a1.9 1.9 0 0 0-1.8 1c-1.7 3.5-1.1 8.4-3.4 11.4-1.7 2.3-5.1 2.2-6.9 4.4-1.4 1.6-1.2 6.8-4.1 5.6-2.1-.8-3-4.3-5.6-5.1-4.7-1.5-5.6 3.5-8.5 5.7-4.6 3.4-6.4-7.6-8.9-10.2a2.12 2.12 0 0 0-2.6-.3c-2.6 1.7-4.3 4.4-6.3 6.7-1 1.2-2.5 3.4-4 3.9-2.5.8-2.7-2-3-3.9-.9-7.1 2.3-16.3-2.3-22.4-.7-.9-2-1.6-3.1-.8-2.9 2-4.7 5.2-6.6 8-4.9 7.1-5.5-8.9-5.4-11.9.3-6.5 1.1-13.1 4-19 3.3-6.6 9.5-9.1 14.7-13.9 1.3-.9-.4-2.4-1.5-1.5-3.5 2.9-7.8 4.6-11.1 7.7a26.13 26.13 0 0 0-6 9.3c-3 7.5-4 16.4-3.5 24.5.3 4.3 1.8 11.7 7.5 10.8 4.63-.72 6.21-4.94 8.64-8.2 1.2 4.12-.45 10.65-.54 14.3-.1 3.9-.1 9.1 3.3 11.7 7 5.46 12-5.07 16.23-10.11 2.24 3.56 2.33 8.95 7.17 10.31a10.15 10.15 0 0 0 7.4-1.5c1.1-.7 1.5-1.8 2.4-2.7 1.7-1.9 1.8-1 3.7 1s3.8 3.9 6.7 3c2.7-.9 2.9-3.4 3.8-5.7 1.4-3.8 4.6-3.3 7.1-6 3-3.28 2.53-7.81 3.94-11.69 4.56.35 6.8 0 10.36-3.91 4-4.3 8.1-8.5 11.5-13.3 3-4.1 4.9-8.8 4.1-14.1s-5-10-9-13.4zM583.22 146c-1.6-4.6-2.3-9.2-4.3-13.7a87.63 87.63 0 0 0-7.9-13.6c-5.3-7.6-11.7-15.6-19.2-21.2a24.84 24.84 0 0 0-7.71-4c.61-6 1.41-11.87 1.52-17.62 1.91 1 3.81 2.07 5.69 3.27 2.5 1.6 5.6-2.3 3.2-4.1-3.3-2.5-5.2-6.2-7.9-9.4q-1.14-1.39-2.36-2.74a34.82 34.82 0 0 0-4.44-10.06c-3-4.7-6.1-10-11.8-11.6a9.65 9.65 0 0 0-6.7.3c-2 .8-1.9 1.4-4 .5a16 16 0 0 0-3-1.3 2.09 2.09 0 0 0-2.4 1c-2.2 3.5-2.5 7.3-2.4 11.4.1 5.1.1 10.2.6 15.2a81.17 81.17 0 0 0 3.31 16.35c-4.15-5.5-9.86-9.28-11-16.85-.3-2.4-4.4-1.8-4.2.6 0 .14 0 .26.05.39-2-1.88-4.11-3.71-6.25-5.49-.8-1-2.2.4-1.3 1.2 2.9 2.66 5.72 5.37 8.44 8.19 1.91 5.31 6.24 8.8 10.18 13.06a18.78 18.78 0 0 0 2.88 3.35 1.91 1.91 0 0 0 2.68-.17c.42 1.1.85 2.19 1.32 3.27.25.56.52 1.13.8 1.7a86.9 86.9 0 0 0-23.88 1.18 156 156 0 0 0-10.93-42.63c-1-2.4-5-1.4-4 1.1 5.1 12.9 9.1 26.1 10.4 40l.2 2.35-2.64.61a152.8 152.8 0 0 0-4.06-20.47c-1.7-6.3-4.4-12.9-9.6-17.2-2.8-2.3-6.1-3-6.8 1.4-.4 1.4 1.7 2 2 .6.6-3.6 4.6 1.1 5.4 2.1a29.65 29.65 0 0 1 5.3 10.1 121.81 121.81 0 0 1 4 17.9c.35 2.1.65 4.19.91 6.29q-3.46.92-6.91 2c-12.2 3.9-25.2 12.6-30 25.1-1.1 2.8-1.1 5.4-1.4 8.3-.4 4.1-1.4 8.1-1.2 12.2a38.87 38.87 0 0 0 .47 4.57 29.8 29.8 0 0 0-11.17 2.63c-7.9 3.3-18.7 9.1-21.9 17.8a1.52 1.52 0 0 0 1.4 1.9c5-.2 8.6-4.6 13.5-5 6.6-.6 5.1 8.3 4.6 12.4-.3 2.5-3.1 18.5 4.1 16.5 3.3-.9 4.2-7.5 4.7-10.1.4-2 .7-4 1.2-6.1s1.5-8.3 3.6-9.2c4.1-1.8 6.2 9.4 7.2 11.9 1.3 3.2 3.4 6.1 7.1 6.6 9.77 1.21 4.82-12.13 7.72-17.13 2.54 1 5.84 2 8 .13 2.9-2.6.4-6.9-1.9-8.8-3.7-3-9-4.5-13.6-4.8s-6.9-.8-8.5-5.3c-.16-.43-.28-.89-.41-1.34a7 7 0 0 1 4.51 1.64c1.2.4 2.3-.7 1.6-1.4-1.73-2-4.15-2.14-6.61-2.22a28.77 28.77 0 0 1-.59-4.68c-.2-4.1.9-8.1 1.2-12.2a21.55 21.55 0 0 1 3.4-11 44.09 44.09 0 0 1 17.5-15.1 69.05 69.05 0 0 1 12.92-4.46c.36 4 .57 8 .68 12.06.2 5.8-.7 11.6.1 17.4a1.89 1.89 0 0 0 1.3 1.3c9.8 3.5 7.9-27.7 7.7-31.9 0-.34 0-.68-.07-1l.87-.18a71.54 71.54 0 0 1 25.71-.65c2.27 3.09 5.18 5.63 9 6.45 5.7 1.2 12.8.4 15-5.6.4-1.2-1.4-2-1.9-.9-2.8 6.7-13.3 4.4-17.4.2a19.35 19.35 0 0 1-1.46-1.7 2.08 2.08 0 0 0-1.54-3.1l-.52-.07a53.39 53.39 0 0 1-3.88-9.73 84.8 84.8 0 0 1-3.5-19.9c-.11-1.6-.28-3.45-.42-5.4A54.11 54.11 0 0 1 533 68.5a65.12 65.12 0 0 0 8.48 5.15c.08 6.37-1 12.9-1.71 19.29-2.93.24-5.52 1.6-8.36 2.86-1.5.6-.3 2.6 1.1 2a22.24 22.24 0 0 1 7-2.08c0 .29-.05.59-.08.88-.2 2.8 4.1 2.8 4.4 0v-.39a17 17 0 0 1 3.67 1.69c3.5 2.1 6.4 5.2 9.1 8.2a104.34 104.34 0 0 1 16 21.9c4.2 7.8 5.7 15.7 7.9 24.2a11.81 11.81 0 0 1 .8 3.1 4.79 4.79 0 0 1-.12.64c-3.49-7.93-8.88-15.08-14.58-21.64-4.9-5.6-9.6-11.1-16.2-14.8-7.2-4.1-15.2-6.3-21.5-12-1.9-1.7-4.7 1.1-2.8 2.8 5.1 4.6 11.1 7.1 17.2 10a51.58 51.58 0 0 1 17.3 13c7.53 8.55 17.42 19.6 19.86 31.59.12 2.25.33 4.5.44 6.61.1 2.7 4.3 2.7 4.2 0h.1c0-2.6.2-5.3.2-7.9 0-1.2 0-2.5.1-3.7.2-1.4 1.1-2.5 1.3-3.9.72-3.7-2.48-6.7-3.58-10zm-121.1 17c2.1.5 8.3 2.1 8.8 4.5s-3.7.3-4.9-.1a2.14 2.14 0 0 0-2 .5c-2.3 2.1-2.4 5.5-2.6 8.4-.1 2.7.1 12.4-5 7.6-3-2.8-3.1-8.4-4.9-12-1.2-2.4-4.3-6.5-7.5-5.9-3.8.7-5.6 7.5-6.4 10.5-1.2 4.4-1.4 9.1-2.9 13.4-1.1 3.2-1.5 2.3-1.8-.4a35.4 35.4 0 0 1 .3-6.5c.4-4.1 1.2-8.3.6-12.4-.5-3.4-2.5-6.5-6.2-6.9-4.8-.59-8.46 3.34-12.78 4.79 3.33-5.66 10.91-10.14 16.18-12.69 4.1-2 8.6-4.1 13.3-4.2h.39a19.35 19.35 0 0 0 3.21 7.32c3.7 4.88 9 2.88 14.2 4.08zm27.1-48.9c-.22 3.41-.28 8.3-1.76 12.1 0-2.73.36-5.5.36-8.2 0-5-.4-10.1-.9-15.1 0-.49-.11-1-.16-1.46l2.39-.54a115.64 115.64 0 0 1 .07 13.2zm27.95-60.26c-.78-.2-1.56-.38-2.35-.54a3.23 3.23 0 0 0-1.51 0 22.07 22.07 0 0 1 1.37-7.9 10.11 10.11 0 0 0 3.54 1.75c2 .3 2.8-.7 4.4-1.4 6.41-2.88 11 4.94 14 9.91-5.62-4.18-11.71-5.16-18.45-3.81a1.33 1.33 0 0 0-1 1.99zm17.55 8.56a51.47 51.47 0 0 0-15-7.83c7.73-1 13.4 2.16 18.79 8 .7.76 1.35 1.56 2 2.37.16.67.3 1.35.41 2-2.11-1.38-4.09-2.94-6.2-4.54zM573 80.5l2.79 1.73a1.32 1.32 0 0 0 1.43.9c2.49 1.57 4.94 3.19 7.27 5 2.24 3.25 4.22 6.67 4.41 7 5.2 8.5 10.1 17.4 13.1 26.9a139.64 139.64 0 0 1 5.2 28c.4 4.1-.4 9.8 3.3 12.5a2 2 0 0 0 2.6-.7c3.8-6 2-14 1.9-20.7a65.4 65.4 0 0 0-5.4-25.4 106.33 106.33 0 0 0-14.2-23 49.78 49.78 0 0 0-10.94-9.87c-1.55-2-3.86-4.18-5.94-3.8q-1.7-1-3.42-2c-2.28-1.36-4.28 2.14-2.1 3.44zm31.6 34.1a59.74 59.74 0 0 1 6.5 24.8c.16 5 1.53 11.92.21 17.24-.46-2.34-.21-5.49-.41-7-.5-5.1-1.4-10.2-2.4-15.2a100.47 100.47 0 0 0-11.3-31.3c-.88-1.57-1.77-3.15-2.67-4.74a107 107 0 0 1 10.09 16.2zM1049.12 41.3a36.41 36.41 0 0 1-8.1-.3 12.76 12.76 0 0 0-5.5-.1 12.53 12.53 0 0 0-8.2 7.5c-1.8 4.9.2 9.5 1.4 14.3 1 4 1.3 7.4 4.8 10a1.79 1.79 0 0 0 .54.26 2.3 2.3 0 0 0 3.16 1.14 7.21 7.21 0 0 0 1.67-1.44c.68.72.51 1.58-.47 2.64-.4.8-.7 1.6-1.1 2.4-.9 1.9-1.7 3.9-2.7 5.8a70.54 70.54 0 0 1-8.9 12.2c-5.8 6.9-12.1 13.4-18.2 20-5.7 6.1-11.6 12.3-15.7 19.6-2.2 3.9-3.9 8-6 12-1.5 2.8-2.4 4.7-2.1 7.9-.2.7 1 .7 1-.1-.2-5.5 4.9-11.9 7.6-16.6 3.4-5.8 7.7-10.6 12.3-15.4 8.6-9.2 17.7-17.9 25.9-27.5a61.65 61.65 0 0 0 9-13.2c1.24-2.56 3.07-5.55 3.81-8.57a2.88 2.88 0 0 0 .79.07c7.7-.5 16.3-8.5 18.7-15.6 2.8-8.2-5.5-17.3-13.7-17zm7.7 17.1c-2.3 4.1-7.7 9.5-12.7 9.6a3 3 0 0 0-1 .22 3.87 3.87 0 0 0-2.15-2.26v-.16a2.31 2.31 0 0 0-3.9-1.6 29.13 29.13 0 0 0-2.46 2.87c-.82-1.71-1-4-1.34-5.67-.8-3.2-2.6-6.8-1.8-10.2 1.9-7.8 9-4.3 14.5-4.6 3.4-.2 5.7-.5 8.5 1.9 3.05 2.8 4.53 5.9 2.35 9.9zM1162.32 98.7c7.4-18.4 15.6-40.1 8.8-59.8-1-3-5.7-1.8-4.9 1.3 5.5 20.2-2.5 40.2-9.9 58.8q-.86 2.19-1.67 4.4a72.29 72.29 0 0 0 1-14.2c-.4-11-3.1-22.3-6.7-32.6-1.9-5.5-5.3-12.7-12.3-11.4-2.4.6-1.4 4.1 1 3.7 7.1-1.3 9.9 17 10.9 21.2 2.7 11.7 3.4 22.9 1 34.7-2.1 10.5-5.3 20.7-6.9 31.3-.8 5.1-1.1 10.3-2.3 15.3-.8 3.3-2.2 6.7-1 10 .7 2 3.8 2.9 4.9.6 4.6-9.1 5.5-19.3 7.6-29.1a214.5 214.5 0 0 1 10.47-34.2zM1344.32 49.1c-7-14-27.2-13.4-35.4-26a2.67 2.67 0 0 0-4.6 2.7c6.2 13.1 25.9 12.7 34.1 24 6.5 8.9-4.1 19-8.7 26.1a192.87 192.87 0 0 1-13.3 17.9c-.3.37-.6.73-.9 1.09.22-1.52.47-3 .8-4.49 2-8.7 3.9-16.6 2.1-25.5-1.5-7.2-3.4-15-7.9-21-3.6-4.8-9.6-10-16-8.4a1.08 1.08 0 0 0-.8 1.1c0 .4-.1.8-.1 1.3-.3 1.7 1.9 1.6 2.1.2.4-3.3 9.9 4.8 10.4 5.3A25.32 25.32 0 0 1 1311 52a64.66 64.66 0 0 1 4 17.8c.6 7.3-2.1 14.2-3.8 21.1-.87 3.48-1 7.81-2.11 11.56a21.58 21.58 0 0 0-3.19 6c-.8 2.5 2.9 4.8 4.6 2.7a18 18 0 0 0 2.66-4.88c1.43-2 3.23-3.8 4.84-5.72 2.3-2.8 4.6-5.6 6.8-8.5 4.5-5.7 8.2-11.8 12.4-17.7 5.12-7.36 11.8-15.86 7.12-25.26zM1384.12 45a1.17 1.17 0 0 0-2 1.2c5.3 9.8 8 19.5 6.7 30.7-1.3 10.8-5.4 21-10.1 30.7-4.4 9.2-9 18.4-14.9 26.8-5.8 8.2-9.3 17.9-15.3 25.9-2.7 3.5-5.7 6.8-8.3 10.5-2.2 3.1-3.9 6.7-6.7 9.4-2.5 2.4-2.2.8-1.9-1.7a31.38 31.38 0 0 1 1.2-5.1 85.33 85.33 0 0 1 4-9.9c4.1-9.2 9.8-17.4 14.9-26.1a174.88 174.88 0 0 0 12.2-25.9c4.1-10.7 6.3-21.7 8.6-32.9 2.4-11.8 4.9-23.8 5.3-35.9.1-2.9-4.3-2.9-4.5 0-1.1 15.1-4.3 29.9-7.1 44.7a154.75 154.75 0 0 1-14 40.2c-5.8 11.7-13.7 22.2-19 34.1-2.8 6.4-8.2 16.1-4.5 23a2.06 2.06 0 0 0 1.7 1c4.4-.2 7.2-3.8 9.5-7.1 3.8-5.5 7.8-10.6 11.8-15.9 4.5-5.9 7.1-12.8 10.8-19.2s8.4-12.3 11.9-19c6.9-13.3 14-27 16.8-41.8 2.6-13.8-.1-25.7-7.1-37.7zM1220.82 192.6c-.48.07-1 .05-1.43.12-1.69-1.9-5-1.69-5.77 1.08-.8 2.94 0 4.39 1.45 5.07l.05.27a13.88 13.88 0 0 1-3.6 3.27c-.43.21-1.09.48-1.66.77a14.73 14.73 0 0 0-1.14-2.17 3.13 3.13 0 0 0-4.4-1.1c-3.6 2.4-1.5 5.6-1.5 9a3.23 3.23 0 0 0 3.85 3.06l.05.34a14.72 14.72 0 0 0 1 2.2c.35.77.61 1.54.93 2.24-1.31 5.69-5.66 11.84-9.33 15.86-1.5 1.6-2.9 3-3.5 5.1-.68 2.32 0 4.63-.16 6.88a2.52 2.52 0 0 0-2.84 2.62v.74c.07 1.1.11 2.2.13 3.29a24.4 24.4 0 0 0-.07 4.17c.2 3.37 5.19 3.49 5.29.1h.11a21 21 0 0 1 0-3.41c2.61 2.27 5.07 5.29 4.29 8.11-1.2 4.7-6 8.3-7.9 12.9a52.11 52.11 0 0 0-3.1 15.6c-.5 6.5-1.3 13-1.3 19.5a.7.7 0 0 0 1.4-.1A194 194 0 0 1 1195 284a36 36 0 0 1 4.1-11.5c1.5-2.5 3.7-4.6 5.5-6.9 2.5-3.3 4.5-7 2.4-11a26.36 26.36 0 0 0-6.3-7.43 29.83 29.83 0 0 0 .3-5.87c.09-3.47 2.66-5.36 4.71-7.83-.54 3.15-1 6.3-1.41 9.43-.6 4.2 5.8 6 6.4 1.8 1.4-10.3 3.4-20.5 7.3-30.2 1.48-3.7 3.28-8.07 3.71-12.33a3 3 0 0 0 2.09-2.17 7.79 7.79 0 0 0 .1-5 3.3 3.3 0 0 0-3.08-2.4zm-8.22 18l-.41-.84c.39-.27.88-.64 1.11-.83-.23.56-.46 1.07-.7 1.67zM1317.32 183.6c-2.08.19-3.33 1.85-4.57 3.51a3.74 3.74 0 0 0-2.63.89c-3.15 2.63-4 6.39-5.59 9.86a7.11 7.11 0 0 0-2.41 4.34 3.93 3.93 0 0 0 1.1 3.24 13.5 13.5 0 0 0-1.2 5 3.25 3.25 0 0 0 2.54 3.11 13.48 13.48 0 0 0-.84 2.29 3.14 3.14 0 0 0 5.2 3 7.24 7.24 0 0 0-.08 2.62 54.91 54.91 0 0 0-7.15 7.82c-.43.58-1.4 2.45-2.38 4.27a2.83 2.83 0 0 0-4.32 2.13c-.1 1.3-.2 2.6-.2 4a2.5 2.5 0 0 0 .57 1.64 83.35 83.35 0 0 1-.53 19 1.86 1.86 0 0 0-.94 1.81v2.2a2 2 0 0 0 .43 1.34c1.28 7.07 3 14.07 4.27 21.16.9 4.9 3.8 12.1.6 16.6-1.2 1.1 1.5 2.6 2.7 1 3.2-4.4 1.5-10.7.6-15.6-1.48-8.13-3.37-16.42-4.2-24.66 2-7.63 1.58-15.27 1.74-23 1.71-1.44 2.84-3.88 4-5.63a46.18 46.18 0 0 1 10.1-11.5 2.73 2.73 0 0 0 .4-3.4c-1-1.8 2.3-5.6 3-7.2.8-1.9 1.1-3.3.2-5.2a2.77 2.77 0 0 0-3.08-1.33c1-2.91 1-5.61-1.92-7.27a3 3 0 0 0-1.33-.42 3.33 3.33 0 0 0-.17-.74c.36-.85.73-1.69 1.16-2.48a3.05 3.05 0 0 0 1.43-.57 17 17 0 0 0 2.57-2.29c-.32 1.92-.86 4.22-1 5-.7 4.3 5.9 6.2 6.6 1.8.6-4.1 2.7-9.2.5-13.2a5.68 5.68 0 0 0-5.17-3.14zM702.62 196.1c-2.9-7.3-8.2-6.6-14.6-8.6-4.9-1.6-10.8-5.9-15-.4-2.3 2.9-.4 6.6-2.1 9.5-1.6 2.7-6.2 3.1-8.4 5.5-4.7 4.9-1.9 11.1 1.2 16a53.59 53.59 0 0 0 16.1 16.4 47.75 47.75 0 0 0 10.3 5.3c3.1 1 8.5-.1 10.9 2a1.6 1.6 0 0 0 2.2-2.3 7.42 7.42 0 0 0-2.45-1.68c3.74-5.19 3.55-12.35 3.55-18.52 0-7.6 1.2-16-1.7-23.2zm-8.2 38.1a3.19 3.19 0 0 0-.68 1.95 13.36 13.36 0 0 1-3.42-1.15 56.85 56.85 0 0 1-15.4-12.2c-2.6-2.8-10.4-11.6-8.2-15.7 1.2-2.3 4.8-2.7 6.9-4.1a9.45 9.45 0 0 0 3.8-4.8c.5-1.3.2-6.4.8-6.8 1.4-1.1 5 1.6 6.4 2.1a29.2 29.2 0 0 0 6.5 1.5c3.5.7 4.9 2.6 5.7 6 1.4 5.9.3 12.3.3 18.3 0 4.9.4 10.8-2.7 14.9zM864.22 193.6c4.9-2.6 12.4-7.1 11.6-13.7a7.58 7.58 0 0 0-1.6-3.8c-1-1.3-2.8-1.5-3.8-2.5-1.4-1.5-1.2-4.3-1.7-6.2a30.46 30.46 0 0 0-3.2-7.9c-1.8-3.2-4.5-7.5-8.4-8.3-3.5-.7-7.2 1.7-9.8 3.8-1.1.9-2.1 2-3.3 3-.27.27-2.06 1.34-2.57 1.85l-.13-.15c-.1-.3-.5-.9-.7-1.3-1.6-3.4-2-7.2-3.4-10.6-2.2-5.4-8.9-11.5-14.2-5.6a13.62 13.62 0 0 0-2.72 4.8c-1.26-3.64-3.26-6.83-7.18-8.9-7.5-4-12.5 3.8-12.7 10.5-.1 6.4 2.4 12.6 2.6 19 .1 3.2.3 7.4-3.9 6.7-5-.8-8.9-4.3-14.2-4.2a3 3 0 0 0-2.9 2.2 20.12 20.12 0 0 0 1.3 10c1.1 3.4 1.7 7 2.9 10.3 2.2 5.9 7.7 9.7 13.8 10.7 7.1 1.2 14.2-.9 21.3.5 5.3 1.1 11.1 2.6 15.6-1.2a1.13 1.13 0 0 0 .41-1.29c9.39-1.23 18.54-3.22 26.89-7.71zm-49.5-1.1c-.1-3.3-5.6-4.4-6.1-.8-.53 3.77.81 6.25 3.15 7.87-2.27.06-4.53.17-6.75 0-6.3-.4-12.2-3-14-9.5-.6-2.3-.8-4.7-1.5-7.1a51.41 51.41 0 0 1-1.8-6.46c6 1.66 12.42 7.18 18 2.45 4.2-3.6 3.7-10.6 3.2-15.5-.6-5.2-3.2-11.6-2-16.8 1.7-7.2 7 .6 8.1 4.2 1.2 4.3 1.4 8.8 2.9 13 1 2.7 5.4 3.3 6.1 0 .9-4.6.9-9.4 2.2-13.9.6-2 1-4.7 3.3-3.1 2 1.4 2.7 5.4 3.3 7.6 1.1 3.7 2.4 10.8 6.8 12.2 6.5 2.1 10-9 15.6-9.2 3.5-.1 6.5 8.4 7.2 11 .8 3.1.7 7.2 3.1 9.6 1.4 1.4 4.2 1.1 3.7 3.4s-4.6 4.3-6.4 5.4c-6.9 4-13.7 5.7-21.7 7.1-3.3.64-26.2 4.64-26.4-1.46z"/><path class="cls-1" d="M828.58 175.43h-.16a2.31 2.31 0 0 0-2.5 1.6 9.36 9.36 0 0 1-.4 1.6 6.39 6.39 0 0 0-.2.7 1.9 1.9 0 0 1-.1.33l-.1.17c0 .11-.07.14 0 0a2.33 2.33 0 1 0 4 2.4h.07c.06-.14.1-.28.15-.41a11.92 11.92 0 0 1 .85-1.19c.1-.1.2-.3.3-.4l.13-.15c.2-.2.4-.5.6-.7a2.48 2.48 0 0 0 0-3.4 2.35 2.35 0 0 0-2.64-.55zM924.32 133.5a3 3 0 0 0-2.1-2.8c-1.7-.4-3-.1-4.7-.1-2.9 0-2.1-1.1-2.3-3.5s-.7-5.9-3.1-7.2c-4-2.24-6.45 2.47-8.77 5.34-1.24-2.12-1.4-5.64-2.33-7.64a2.9 2.9 0 0 0-3.2-1.3c-4.7.7-5.7 6.1-6.4 10-.2 1.1-.4 2.3-.6 3.4-.5 1.8-.1 2.1-1.6 1.7s-3.2-2.3-4.6-3a18.86 18.86 0 0 0-5.2-1.8c-3-.5-4.9 3.3-2.1 5l.37.24-.07.16.49.13c3.47 2.55 5.3 7.12 7.81 10.57a107.62 107.62 0 0 0 9.9 12.4 55.73 55.73 0 0 0 6.56 6.11c-1.05 2.14.47 5.27 3.24 4.19a12.84 12.84 0 0 0 1.93-1 18.29 18.29 0 0 0 9.45 1.9c.7.1.7-1.5-.4-1.6a18.71 18.71 0 0 1-6.75-2.07c2.69-2.59 4.37-6.13 6.25-9.53 3.52-6.3 7.42-12.2 8.22-19.6zm-19.46 25.77c-4.67-3.87-8.55-9.15-11.64-13.67-1.7-2.43-3.21-5.27-4.82-8.07 2.15.62 4.21.26 6-2.33 1.28-1.85 1.55-7.6 2.72-10.94.74 2.95 1.36 5.76 4.58 7.44a3 3 0 0 0 2.9 0 24.65 24.65 0 0 0 3.8-4.1c.17-.25.33-.47.51-.69a4.25 4.25 0 0 0 .49.89c0 .8-.1 1.7-.1 2.5a6.92 6.92 0 0 0 3 5.6c2 1.23 3.74.64 5.58.36-1.2 4.56-3.95 8.65-6.28 12.74-1.73 3.14-3.49 8.31-6.73 10.27zM964.22 80.7a5.76 5.76 0 0 0-4.48 1.55c.24-3.19.45-6.31-1.62-9.15a2.24 2.24 0 0 0-3.8 0c-3.9 6.2-4.4 13.8-5.6 20.9-.7 4-1.6 7.9-1.6 12 0 5.1 2.2 9.5 2.9 14.5a1.25 1.25 0 1 0 2.5.1c-.4-4.1-2-7.9-2.3-12-.4-4.6.9-9.1 1.8-13.5.94-4.78 1.57-10 3.33-14.63-.06 3.26-1 6.83-.33 9.83a2.48 2.48 0 0 0 4.1 1.1c.86-1.08 1.93-3.53 3.27-4.77.63 4.42-1 9-2.27 13.17a69.69 69.69 0 0 1-2.6 7.7c-1 2.2-2.4 4-3 6.3-.9 3.5 4.6 5 5.4 1.5.6-2.6 2.4-4.9 3.4-7.5 1.1-3 1.9-6.1 2.7-9.1 1.4-5.2 2.7-10.9.6-16.1a2.68 2.68 0 0 0-2.4-1.9zM1129 189.5c-.7-.3-1.5-.5-2.19-.8a4 4 0 0 0-.71-1.75 6 6 0 0 0-1.4-2 3.21 3.21 0 0 0-3.93-.39c-4.44.47-8.31 6.14-7 10.39a2.89 2.89 0 0 0 2.09 1.94c-.73.74-1.46 1.47-2.19 2.16-5.8 5.4-13.1 8.9-19.9 12.8a79.54 79.54 0 0 0-17.6 13.4c-4.5 4.5-10.7 8.8-12.8 14.9-1.1 2.4 2.7 3.4 3.6 1 1.9-5.2 8.1-9.3 12-13a68.41 68.41 0 0 1 14.2-11c9.2-5.3 18.8-9.7 26.4-17.2a47.35 47.35 0 0 0 5-5.29c.93.41 1.87.77 2.73 1.09 3.92 1.45 5.52-4.75 1.7-6.25zM1177.42 172.7c-3.2-2.5-7.8 1.6-4.7 4.7a3.36 3.36 0 0 1 1.1 1.63c-3.69 2.19-6.29 6.74-5.1 11a3 3 0 0 0 1.44 1.86c-.72 1.13-1.32 2-1.54 2.34a143.76 143.76 0 0 0-8.6 15.9c-4.3 9.4-9.9 18.3-10 29 0 2.6 3.9 2.6 4.1 0 .3-6.8 3-12.7 6.1-18.6 3-5.7 5.7-11.6 9-17.1 2.42-4 10.18-12.86 10.61-19.56 1.45-4 1.17-8.36-2.41-11.17zM890.82 367.1a3.06 3.06 0 0 0-3.72-1.31 3.37 3.37 0 0 0-2.58.71 5.93 5.93 0 0 0-.1 9.3 3.76 3.76 0 0 0 1.6.75c-.18 2.08-.51 4.09-.6 4.85a131 131 0 0 1-2.9 16.4 272 272 0 0 1-12.2 39.4c-4.7 12.3-10.1 24.5-14.5 36.9-3.9 11.1-8.8 23-9.4 34.8a1.15 1.15 0 1 0 2.3.2c.7-7.4 3.4-14.2 5.9-21.1 2.2-6.3 4.4-12.6 6.9-18.8 5.6-13.8 11.9-27.4 17-41.4a226.71 226.71 0 0 0 11.6-42.7c.49-3.15 1.67-8.42 1.18-12.75a6.74 6.74 0 0 0-.48-5.25zM611.22 387.9a10.1 10.1 0 0 0-3.3 1.54 5.32 5.32 0 0 0-2.7 2.16c-1.6 2.3 1.6 5.5 3.9 3.9l.09-.07a2.46 2.46 0 0 0 .81 1.47 2.52 2.52 0 0 1 .5 2.7 17.72 17.72 0 0 1-1.2 3.7 72.75 72.75 0 0 1-3.7 8c-2.6 4.9-5.7 9.6-8.5 14.4-5.6 9.4-9.5 18.8-10.4 29.8-1 12.5 1.1 25 3 37.2 1 6.8 2.4 13.5 3.4 20.3.5 3.3.4 6.8 2.9 9.2a1.52 1.52 0 0 0 2.1-2.2c-2-2.1-1.7-5.6-2-8.3-.4-3.4-1.1-6.8-1.6-10.2-1.1-7.6-2.2-15.2-3-22.9-1.6-15.1-1.4-30 5.8-43.7 5.5-10.5 13.1-19.9 17.2-31.2 1.42-3.82 2.36-8 0-11.28 1.21-1.89-.38-5.31-3.3-4.52zM450.42 537.2c-1.6-7.3-3.1-14.7-6-21.6-5.9-13.6-17.8-22.5-29.1-31.5-12.7-10.2-26.2-19.8-37.1-32A135 135 0 0 1 354 412.8c-3.3-8.2-6.5-16.5-9.4-24.9-.7-2-1.31-4.05-1.85-6.11a2.78 2.78 0 0 0 .55-2.49c-.82-3.73-2.42-7.62-3.34-11.43q-.39-2.39-.76-4.77c-.6-3.7-7.1-2.9-6.7.9 1.6 15.9 6.8 30.4 12.4 45.3a147.2 147.2 0 0 0 22.2 39.9c10.4 13.1 23.4 22.9 36.7 32.9 13 9.7 28.8 19 36.4 33.9 3.9 7.7 6.5 17 8 25.5.9 5.2.7 11.8 5.7 15a1.08 1.08 0 0 0 1.2-1.8c-4.68-3.4-3.58-12.3-4.68-17.5zM283.32 234.1c-.1.1-5.6-.3-6.3-.2l-.54.16a6.38 6.38 0 0 0-3.17-2.88c-1.94-6.52-10.39-5.28-13.9-1.08a5.92 5.92 0 0 0-1.79 1.71c-2.7 4 .2 10.2 4.9 11a7 7 0 0 0 2.81-.1c3 .77 5.61-1.31 7.1-4 .1 2.6 3.93 2.71 4.79.3 1.3-3.6 8.5.9 10.1-4.2.4-2.11-3.2-2.91-4-.71zM333 175.5a26 26 0 0 1 .4-8.8c1-5.2.6-11.5-3.1-15.7-1.9-2.1-4-2.5-6.3-3.8-2.7-1.5-2.2-3.7-3.5-6.1a8.59 8.59 0 0 0-5.3-4c-1.2-.3-2.5-.2-3.7-.5a6.37 6.37 0 0 1-1.15-.4 13.15 13.15 0 0 1 5.95-2.8c5.9-.8 10.6-4.4 11.1-10.8.3-3.7-.9-7-2.3-10.3-2-4.9-2.2-8.6-2.6-13.8-.6-7.8-6.1-14.8-11.9-19.7-5-4.3-12.2-6.4-16.4-11.5a11.12 11.12 0 0 1-1.66-2.75c4.67-6.95 6.18-15.57-.94-22.15a21.28 21.28 0 0 0-2-1.59c.75-8.28 4.52-16.08 7.37-23.71 1.8-4.8-5.8-6.7-7.6-2.1-2.8 6.9-5.9 13.7-7.3 21-.07.4-.14.79-.19 1.18a53.1 53.1 0 0 0-13.41-1.48c-4.2-.1-8.3-.4-12.4.4-4.5.8-8.4 4.1-12.9 4.1a3.47 3.47 0 0 0-3.6 2.8 9.25 9.25 0 0 0-.94.17c-4.8 1.2-7.2 5.4-6.7 10.2.3 3.3 1.8 6.3 2.8 9.4 1 2.9.3 6.1 1.3 8.9 1.59 4.33 8.33 5.69 12.77 6.43-.77.95-1.54 1.89-2.27 2.87a75 75 0 0 0-9.9 17.7c-2.3 5.8-4.2 11.9-1.6 17.9a20.33 20.33 0 0 0 13.9 11.3 18.44 18.44 0 0 0 4 .6c1.2 0 4.1-1 5.1-.4 1.5.9 2.2 5.4 3.1 7a15.33 15.33 0 0 0 7.66 6.32c-3 2.06-5.08-2.39-7.67-4.72s-5.8-3.5-9.2-2c-3.1 1.3-5.9 4.4-5.6 7.9a8.63 8.63 0 0 0 1.6 4.1 17.67 17.67 0 0 0 1.2 1.7l.12.13c-3.89 1.9-8.33 3.52-10.92 7.17-7.6 10.4 7.7 18 15.4 20.4 6.2 2 16.2 3.9 15.8 12.2-.2 5.3-1.9 10.2 2.6 14.2a1.69 1.69 0 0 0 2.3 0 19.91 19.91 0 0 0 2.8-3 1.42 1.42 0 0 0-2.1-1.9 8.49 8.49 0 0 1-1.32 1.33c-2.29-4 .4-8.68.12-13.13-.2-3.9-2.6-7.2-5.5-9.7-6.6-5.6-16.4-5.6-22.7-11.5-7.4-6.9 8.9-8.5 10.7-13.9.8-2.4-.4-4.4-1.7-6.4-.4-.5-1.7-1.8-1.6-2.4.3-1.9 2.3-1 3.1-.5 2.5 1.4 3.9 4.7 6.4 6.3a8.5 8.5 0 0 0 8.3.6c2.85-1.38 3.94-4.51 6.19-6.33a15.26 15.26 0 0 0 2.89-1 16.91 16.91 0 0 1 2.12 1.37 10 10 0 0 0 6.5 2c2.76-.23 4.83-2.25 6.94-3.82a11.18 11.18 0 0 0 3.76 1 9.5 9.5 0 0 0 4.72-.88 8.39 8.39 0 0 0 1.48 1.28c2.3 1.6 5.6.7 7.6 2 1.8 1.2 1.6 3.7 2.5 5.5a8.57 8.57 0 0 0 3.6 3.7c2.1 1.2 4.6 1.2 6 3.5 1.8 2.8 1.3 6.6.7 9.6a24.21 24.21 0 0 0-.8 7.1c.2 2.2.7 4.1.4 6.3-.7 4.1-2.7 9.7-6 12.5-5.2 4.4-13.1-1.1-18.6-2.3a17.89 17.89 0 0 0-6.9-.4c-1.5.3-7 3.1-7.9 2.3-3.6-2.9-8.2 1.6-5.1 5.1 4.6 5.2 8.5 1.2 13.9.1 6.6-1.2 12.9 4.1 19.4 4.3 10.8.3 16.6-10.5 18.4-19.7a20.19 20.19 0 0 0 .28-5.99zm-83.6-26.81c.83.92-.08.5 0 0zm-2.58-77.89c-1.3-.4-3.1-.6-4.2-1.4a2 2 0 0 0-.57-.32 2.1 2.1 0 0 0-.13-.38c-.9-2.2-.8-5-1.8-7.3-1.2-3-3.2-6-3.4-9.2a5.55 5.55 0 0 1 1.5-4.4 6.61 6.61 0 0 1 2-1.49 4 4 0 0 0 2.58 1.62.77.77 0 0 0 .32.06h.07c6.2.7 11.1-4.1 17.2-4.5s13.4-.8 19.4.7c.59.15 1.19.34 1.79.55.21 4.16.93 8.25 1.41 12.65a49.67 49.67 0 0 0 1 6.7 39.23 39.23 0 0 1-3.13 2.8C274.51 72 267 73.47 259.33 73c5.73-6.1 12.07-11.65 18.3-17.2 1.1-1-.1-2.7-1.2-2a123.87 123.87 0 0 0-22.57 18.57c-2.36-.37-4.72-.94-7.04-1.57zm38.55 65.1a22 22 0 0 1 1.64-2.29c.89.89 1.81 1.81 2.76 2.71-1.31.68-2.56.75-4.39-.42zm20-5l-.54.5c-3-1.53-6.35-.75-9.27.86-2.13-1.66-4-3.82-6-5.57a3.46 3.46 0 0 0-4.1-.5c-3 1.74-4.44 5.17-6.73 7.48h-.37a8.51 8.51 0 0 0-4.56 2.3c-6.4.2-7.5-5.7-9.9-10.1-2.2-3.9-5.1-3.9-9.2-3.6-6.6.5-14-3.5-15.3-10.5-1-5.4 2.8-13 5.1-17.8a77.6 77.6 0 0 1 9.3-14.7l.2-.27c6.07 1 12.28 1.65 18.28.07a36.11 36.11 0 0 0 14.57-8.17 18.7 18.7 0 0 0 2.15 2.7c4.2 4.3 9.9 6.4 14.7 9.9a35.46 35.46 0 0 1 8.1 8.3c2.5 3.8 2.7 7.2 2.9 11.6a27.14 27.14 0 0 0 2.4 9.6c1.5 3.4 4.2 7.5 2 11-1.7 2.8-4.9 2.1-7.7 3a16.81 16.81 0 0 0-5.98 3.9z"/><path class="cls-1" d="M277.92 178.3c2.43 1.67 4.42 1.34 5.79 0a17.28 17.28 0 0 0 7.51-.3 2.27 2.27 0 0 0 1-3.8 6.1 6.1 0 0 0-1.72-1.38 12.82 12.82 0 0 0 .82-1.52c.8-1.78 1.15-4.46 1.85-6.73a3.57 3.57 0 0 0 4.45-3.37 6 6 0 0 0-3.3-5.8 3.65 3.65 0 0 0-4.4.6c-2.1 1.7-2.9 4.5-3.6 7-.26.86-.66 3.34-1.31 5.06-1.67-4.61-5.54-8.47-7.69-12.86-1.8-3.5-7.8-1.1-6.4 2.7 1.57 4.34 2.83 11.77 6.42 16-1.52 1.2-.82 3.4.58 4.4zM324.22 44.5A36.52 36.52 0 0 1 332 29.92a25.33 25.33 0 0 0-4.24 13c-.2 3.6 5.8 4.5 6.3.9 1.6-11 10-19.2 20.9-21.5 6-1.3 17.4-1 20.7-7.5.8-1.7.2-4.1-1.8-4.5-10.4-2.1-23.1.5-32 6.3s-17.1 17.3-19.1 27.7c-.34.78 1.24 1.28 1.46.18zM352.72 56a1.75 1.75 0 0 0 .4 2.8c2.3 1.6 5 2 7.7 2.9 1 .5 1.7-1.2.7-1.8-1.46-.73-3-1.34-4.38-2.18 5.79-2.57 12.64-1.23 18.18 1.58a25.46 25.46 0 0 1 8.1 6.1 24.21 24.21 0 0 1 3.3 5.36c-17.27-3.28-35.9 8.94-37.9 26.94-.4 3.3 4 4.4 6.1 2.5 4.4-3.9 8.5-8.1 13.1-11.7 3.6-2.8 9.1-6.6 14-5.9 3.16.45 5 4.48 6.22 7.93a23.13 23.13 0 0 0 .08 4.37c.56 5.45 2.36 10.64 3.48 16v.33h.05c0 .24.1.47.15.71.8 4.1 7.5 3.2 7.3-1a111.12 111.12 0 0 0-1.42-13.06c2.55 3.59 5.18 7 7.44 10.63a40.42 40.42 0 0 0-4.53 6.34c-4.5 7.8-6.9 16.6-9.4 25.1-6.6 22.5-10.4 44.7-9.6 68.3.1 2.1 3.3 2.1 3.3 0 0-17 3.4-33 7.7-49.3 2.1-7.9 4.2-15.8 7.8-23.2 2.8-5.83 6.26-11.33 9.52-16.94.35 1.59.6 3.2.8 4.81q-.08 2-.12 4c-.1 6-2.2 14.3 2.2 19.2a1.93 1.93 0 0 0 3.2-.8c2.1-6.7 2.4-13.7 3.6-20.6 1.2-7.3 3-14.5 4.9-21.6q.74-2.82 1.62-5.58c1.86 1.32 3.71 2.64 5.58 3.88 3.8 2.5 8-3.1 4.8-6.3a47.14 47.14 0 0 0-7.38-5.92q1.68-4.2 3.66-8.26a19.14 19.14 0 0 1 6 4.58c3.5 4 9.4-1.9 5.9-5.9a25.64 25.64 0 0 0-8-6.1q2.77-4.89 5.92-9.6c1.4-2.1-1.9-4-3.4-2a114.46 114.46 0 0 0-6.36 10 37.26 37.26 0 0 0-6.94-1.58C427 69.61 428 68.2 429 66.8c.4-.6 7.3-9.3 7.2-4.6-.1.4.8.6.8 0a6.1 6.1 0 0 0 .1-3 .73.73 0 0 0-.6-.7c-4.5-1-8.6 6.1-10.8 9.1q-1.14 1.57-2.15 3.2c-10.24-.76-21.25 1.84-29.45 5.6a4.08 4.08 0 0 0-.38.2 3.94 3.94 0 0 0 .48-1.5c.3-4.2-2.7-9.3-5.2-12.5a28.31 28.31 0 0 0-11.4-8.5c-7.78-3.5-18.38-4.6-24.88 1.9zm44.1 79.5c-3.3 7.2-5.3 14.8-7.3 22.5q-.48 1.81-.93 3.6 1.81-9.24 4.43-18.4c2.3-8.1 4.3-16.5 8-24.1a42.18 42.18 0 0 1 5.46-8.75 43.78 43.78 0 0 1 2 4c-3.93 7.03-8.39 13.83-11.66 21.15zm15.83-30.07l-.09-.14.12-.07zm1.35 33.92a49.08 49.08 0 0 1 .14-9.93 4.29 4.29 0 0 0 1.3.17c-.44 3.27-.85 6.54-1.44 9.76zm7.42-38.35c-1.41 5.25-2.75 10.56-3.89 15.88a36.06 36.06 0 0 0-1.21-4.28 27.41 27.41 0 0 0-1.1-2.62q.33-3.19.76-6.36a36.55 36.55 0 0 0 5.53-2.91zm.6-22.11a32.46 32.46 0 0 1 7.14 1.23q-1.79 3.76-3.32 7.64c-1.22-.68-2.46-1.32-3.71-1.93q-1.08-.65-2.17-1.27c.6-1.93 1.29-3.82 2.04-5.67zm.92 16.95c-.4 1.25-.75 2.51-1.11 3.77a.88.88 0 0 0-1.31-.61 26.72 26.72 0 0 1-4.2 2.25q.28-1.88.6-3.75c.28-1.65.61-3.3 1-5 1.68 1.09 3.36 2.19 5.02 3.34zm-3.56-17q-1 2.22-1.76 4.5a49.62 49.62 0 0 0-5.2-2.31c-1-.36-2.07-.75-3.21-1.12a50.64 50.64 0 0 1 10.17-1.11zm-19.28 6.88c5.06 1.86 10.23 3.55 15.17 5.65-.23 1-.45 1.94-.65 2.92q-.88 4.18-1.56 8.41c-.56.26-1.11.53-1.66.82-.65-1-1.32-1.94-2-2.93-2.4-3.7-4.8-7.3-7.2-11a38.48 38.48 0 0 0-2.88-3.84 5.84 5.84 0 0 1 .78-.03zm-10-7.52a2.77 2.77 0 0 0 2.3-.2 3.67 3.67 0 0 0-.08 2.78 6.93 6.93 0 0 0-.49.51 16.35 16.35 0 0 0-2.77-3.39c.36.1.71.19 1.06.3zM716.12 125.4a15 15 0 0 0-8.95-2.64 19 19 0 0 0-2.75-16.26c-2.7-3.7-7.8-5.9-12.2-4a11.36 11.36 0 0 0-5.72 6.67 13 13 0 0 0-1.5-1.77 11.42 11.42 0 0 0-7.3-3 15 15 0 0 0-2.75.15l-1.66-1.93a14 14 0 0 1-.43-6.24l.24-.38c1.3-2 2.6-3.7 2.7-6.2.1-2.2-2.4-2.8-3.9-1.6a12.1 12.1 0 0 0-4.46 8.42c-3.38-2.93-7.18-5.11-11.64-5.42-7.8-.5-10.8 4.9-8.1 11.7a91.86 91.86 0 0 0 5.2 9.8c.6 1.2 2.2 3.1 2.2 4.5 0 2.5-2.8 1.9-4.9 1.9-7.5-.2-21.6 3.4-17.3 13.8 1.6 4 5.4 6.9 9.4 8.4 2.2.8 4.4 1.3 6.6 2 .9.3 2.8.6 3.5 1.4 1 .3 1.2.6.3.8-.4.9-.8 1.8-1.3 2.7-3.2 7-6.6 21.8 4.2 24.6 4.2 1.1 8-1.4 10.6-4.5 2.1-2.5 5-10.7 9-10 3.7.7 6 5.5 9.9 6.4 4.4 1.1 8.2-1.7 10.6-5.2 1.6-2.3 2.6-5 4.1-7.4 2.2-3.4 4.4-2.8 7.8-3.9 2.9-.9 5.5-3.4 8.1-5 2.2-1.3 4.3-2.4 5.3-4.8 1.92-4.6-1.18-10.2-4.88-13zm-23.7-9.3c.1-1.8.5-5.9 2.4-6.9 2.4-1.3 4.2 1.9 4.9 3.6a12.1 12.1 0 0 1 .91 7.32 2.16 2.16 0 0 0-1.21-.62c-2.5-.41-5.1-.83-7.66-1.42a4.69 4.69 0 0 0 .66-1.98zM652 95.9c3.33-4.11 11.92 2.22 14.63 4.46-1.5 3.58-2.92 7.16-4.53 10.64-.64 1.45-1.25 2.89-1.82 4.33a14.94 14.94 0 0 0-1.08-2.83c-1.58-3.4-9.98-13.1-7.2-16.6zm60.4 41.7c-2 1.4-4.7 3.5-7 4.3-3.7 1.2-6.6 1.1-9.4 4.3-2.5 3-3.5 6.9-5.9 9.9-3.2 4-5.5.9-8.5-1.4-2.5-1.9-5.2-3.5-8.5-3.1-7.3 1-8.1 9.4-12.9 13.4-6.2 5.3-6.1-6.8-5.1-9.9s5.5-8.9 4.3-12.4c-2.2-6.3-12.4-5.9-17.2-8.8-2.5-1.5-4.9-4.4-2.3-7 1.3-1.4 4.3-2.1 6.2-2.4 3.3-.5 6.7.4 10-.7a8.54 8.54 0 0 0 1.84-.88 32.52 32.52 0 0 0-.74 6.78c-.2 1.4 1.6 1.3 1.7.1.7-8.7 5.1-15.7 8.8-23.4l.67-1.41q.3 1 .67 1.91a10.21 10.21 0 0 0-3.64 4.8c-1.6 4.7 5.9 6.7 7.4 2a1.19 1.19 0 0 1 .08-.15c5.7 7.11 14.55 9.86 23.33 11.21-1.12 2.08 1.35 5.24 4.09 4.84h.18v.13l.49-.2c4.28-.6 9.47-1.31 12.41 2.3 2.34 2.67 1.62 3.87-.96 5.77z"/><path class="cls-1" d="M687.32 146.7c-1.7-.4-2.8-1.7-4.4-2.3a7 7 0 0 0-2.93-.46 2.73 2.73 0 0 0-3-1.54 3.13 3.13 0 0 0-3 2.9c0 1.6 1.2 2.6 2.6 3.2a2.77 2.77 0 0 0 3.8-1.16c.2-.09.4-.17.6-.24 1.1-.4 1.7 0 2.7.4a11 11 0 0 0 3.5 1.1c.93 0 1.13-1.7.13-1.9z"/></svg>