<svg id="Layer_1" data-name="Layer 1" xmlns="http://www.w3.org/2000/svg" viewBox="0 0 1440 712"><defs><style>.cls-1{fill:#ff9d08}</style></defs><title>Artboard 1</title><path class="cls-1" d="M1287.43 258.66c1.08-1.25 2.38-2.37 3.47-3.56a62.12 62.12 0 0 1 8.4-7.8c4.5-3.6 9.6-8.8 8.7-15.1-.7-5-5.4-8-10-5.6-4.4 2.2-8.5 7.7-11.5 11.4-4 5.1-6.8 11.3-6.6 17.9 0 .85.15 1.69.21 2.54a14 14 0 0 0-1.31 5.06 3.36 3.36 0 0 0 .06.8c-.42.69-.9 1.37-1.36 2.1a82.45 82.45 0 0 0-5.6 11.1 464.45 464.45 0 0 1-24.7 49.4c-9 15.6-17.4 30.9-28.5 45.1a466.5 466.5 0 0 1-33.9 37.8c-24.06 24.46-53.75 43.19-74.63 70.73 1.92-11.33 4.44-22.57 7.23-33.73 5.6-22.6 11.7-45 17.3-67.7 2.7-11 5.9-21.8 9.3-32.6 3.5-11.3 9.3-21.7 14.8-32.1a201.42 201.42 0 0 1 18.2-27.5c6.4-8.4 11.6-17.7 17.8-26.3 13.2-18.1 25.1-37.1 36.7-56.3 6-10 11.5-20.3 17.4-30.4 5.6-9.6 11.9-18.8 18-28s12.1-18.4 16.8-28.4c.86-1.8 1.7-3.61 2.54-5.42 5.88-5.84 9.83-13.77 14.86-20.28 7.4-9.6 14.2-19.6 22.1-28.7 3.9-4.5 10.9-13.8 7.7-20.3-3.3-6.9-13.8-.4-18.2 1.9-8.2 4.3-11.6 14.1-13.4 22.6-2.65 12.08-9 22.42-13.92 33.68-3 3.47-5.84 6.88-7.48 11.22a2.61 2.61 0 0 0 1 3 181.23 181.23 0 0 1-9.9 17.9c-6.4 10.1-13.3 19.9-19.6 30-6.7 10.7-12.5 21.9-18.8 32.8-6.2 10.7-13.1 21-19.6 31.6-6.2 10.2-12.6 20.1-19.6 29.8s-12.5 20.1-19.8 29.4a180.28 180.28 0 0 0-18.5 29.5c-5.4 10.6-10.6 20.9-14 32.3-7 23.6-12.4 47.5-18.6 71.3-5.78 21.95-11.48 44-14.53 66.56-9.73 14.21-17 29.82-22.77 46.14-3.3 9.3-6 18.8-8.4 28.4-1.3 5.2-2.6 10.5-3.6 15.7-.5 2.4-.4 8.8-2.7 10.1-1.1.7-.1 2.3 1.1 1.8 3.5-1.5 3.4-7 4.1-10.2 2-8.5 4.6-17 7.4-25.3 5.5-16.4 11.8-32.6 20.1-47.7q1.58-2.88 3.29-5.69a275.52 275.52 0 0 0-.09 42.49c.5 7 1.2 13.9 2.1 20.9.3 2.7.5 5.4.9 8.1.4 3.4 1.9 6.7 1.9 10.1-.1.8.6.8.6.4.4-4.5-1.1-9.3-1.4-13.8-.5-5.9-1.1-11.8-1.4-17.7-.7-11.7-1-23.4-.6-35.1.25-7.11.85-14.18 1.72-21.21a167.5 167.5 0 0 1 22.88-27.29c12.1-11.8 25.8-21.9 38.6-32.9 24.3-20.8 47.2-44.6 65.5-70.9 9.7-14 17.8-29.3 26.2-44.1 4.3-7.5 7.9-15.3 11.6-23.2 3.5-7.5 6.5-15.4 10.7-22.6a24.88 24.88 0 0 0 3.7-9.8 22.74 22.74 0 0 0 .03-4.34zM1309.9 54.3c2.8-4.2 7-5.6 11.4-7.6 2.4-1.1 5.5-3.2 4.5 1.1a22.17 22.17 0 0 1-2.4 6c-3 5.2-7.8 9.3-11.4 14l-3 4c1-2.74 1.93-5.47 3.6-7.48 2.3-2.7-1.6-6.6-3.9-3.9s-3.3 6.22-4.57 9.53c1.27-5.52 2.68-10.82 5.77-15.65zm-10.8 179.8c1.4-1.3 2.8-2.8 2.6.2-.1 1.8-1.5 3.6-2.7 4.8-2.8 3.1-6.6 5.2-9.6 8.1l-.78.76c2.2-5.27 6.44-9.96 10.48-13.86zM425.6 517.4c-6.5.5-12.7-5-17.6-8.8a181.42 181.42 0 0 1-14.4-13.3 362.85 362.85 0 0 1-27-29.8c-17-21.2-28.5-45-37.3-70.6-8.5-24.8-15.6-50.2-23.4-75.3-4.2-13.6-8.5-27.3-12.5-41-2.3-7.9-4.4-20.1-13.5-23.3-6-2.1-13.8 3.2-9.5 9.7 1.4 2.2 4.8 3.8 7.4 2.8 3.26-1.34 3.11-6.08 1.51-8.59 3.53 1.77 6.13 7.07 7.19 10.09 3.7 10.7 6.3 21.9 9.6 32.8 6.7 22 13.7 43.9 20.4 65.8 6.1 20 12.5 40 21.5 58.8 9.3 19.5 22 36.8 36.5 52.7a319.17 319.17 0 0 0 26.6 26.7c6.4 5.6 15.4 14.4 24.5 13.6 1.5-.1 1.5-2.4 0-2.3zM273.5 262.2a2.49 2.49 0 0 1-.1-.88c.84.87 1.69 1.75 2.53 2.6a2.47 2.47 0 0 1-2.43-1.72zM548.9 503c-4.6-2.1-2.7-14.7-3-18.7a73.57 73.57 0 0 0-2.9-14.7c-2.9-10.8-6.8-21.4-9.9-32.1-6.6-22.4-7.2-44.5-3.2-67.4s4.6-46.4 3.9-69.4a136.26 136.26 0 0 0-4.9-31.1c-1.3-4.9-2.9-9.7-4.3-14.6-1.3-4.7-2-9.1-4.2-13.5-1.25-2.45-7.67-12.79-11.79-21.21a43.72 43.72 0 0 0-2-13.69 2.09 2.09 0 0 0-3.1-1.2c-4.58 2.57-2.34 9.73.93 16.27v2.93a2 2 0 0 0 2.69 1.94c1.67 2.86 3.23 5.24 4 6.56 3.9 6.7 7.3 13.1 9.1 20.7 2.8 11.7 7.1 22.8 8.9 34.8 1.9 12.7 1.5 26 1.2 38.8-.3 13.1-.9 26.3-2.9 39.3-1.8 11.6-3.5 23-3 34.8a143 143 0 0 0 5.4 33.2c3.7 12.8 8.7 25.2 12.1 38.1 1.9 7.5 2.1 14.5 2.6 22.2.2 3.3 0 7.7 3.5 9.3.97.2 1.57-.9.87-1.3zM648.2 426.7c-4-13.5-8.4-26.9-12.5-40.4-8.3-26.9-16.6-53.8-27.3-79.8-5.2-12.7-11.2-25.1-16.6-37.8s-9.3-25.6-14.7-38.1c-2.5-5.9-5-11.9-8.1-17.6s-7.1-10.7-11.1-15.7a83.64 83.64 0 0 1-9.6-14.6c-1.51-3.13-2.89-6.35-4.57-9.41-.27-1.13-.54-2.26-.83-3.39-3.4-13.5-6.9-27.1-12.3-40-1.7-4.2-3.4-8.4-5.3-12.5-1.3-2.9-3.3-6.5-6.7-7.4-1.6-.4-2.8.4-4.2.4-2.4 0-3.5-2.4-5-4.2-2.8-3.5-5.5-6.7-10.2-7.1a2.46 2.46 0 0 0-2.4 1.8 16.36 16.36 0 0 0-.45 5c-2.91-3.43-6.28-6.17-10-7a2.65 2.65 0 0 0-3.2 1.8c-1 5.2.9 10 2.6 14.9a75 75 0 0 0 7.9 17.3 106.76 106.76 0 0 0 10.6 14.4c4.2 4.6 9.9 8.3 14.9 11.9s11.2 5.6 15.7 10a26.8 26.8 0 0 1 4.14 5.36q.73 3 1.46 5.94c1.4 5.6 3 11.1 4.8 16.6 1.3 4.2 2.5 8.1 6 11.1 2.4 2.1 5.9-1.4 3.5-3.5-3.27-2.8-4.72-7.61-5.91-12 5.66 8.33 12.72 15.69 17.21 24.91 6.3 13 11.3 26.4 16.2 40 4.8 13.1 10.7 25.8 16.5 38.6 12.2 26.9 21.5 54.8 30.6 82.8 5 15.6 10.4 31 15.4 46.6 4.7 14.6 7.5 30 14 44 .5 1.3 2.4.2 1.8-1.1-5.95-13.31-8.25-28.01-12.35-41.81zM506.9 142.4a88.49 88.49 0 0 1-11.9-17.7 90.45 90.45 0 0 1-4.1-10.2c-1-2.72-2.4-5.83-2.81-8.87 2.76 1.94 5 5.32 6.81 7.67a89.68 89.68 0 0 1 7.1 11.56 87.35 87.35 0 0 0 3.55 9c2.34 5 5.48 11.14 9.53 16.12a62.39 62.39 0 0 1-8.18-7.58zm19.77 15.54a2.61 2.61 0 0 0 1.23-3.64c-7.8-11-15.69-21.73-22.15-33.56-.43-1.29-.87-2.57-1.35-3.84-1.43-3.77-3.47-8.11-3.34-12.3 3.41 1.76 5.53 6.94 8.14 9.3a5.73 5.73 0 0 0 4.3 1.7c1.7-.1 2.8-1.2 4.3-.5 3.1 1.5 4.2 7.7 5.5 10.5 2.5 5.9 4.9 11.7 7 17.7 2.3 6.84 4.22 13.78 6 20.76a72.48 72.48 0 0 0-9.63-6.12zM788.4 383.5c-.2-9.6 0-19.1.1-28.6a212.11 212.11 0 0 0-1.9-27.6c-1.1-9-1.1-18-2.5-26.9-1.3-8.7-3.7-17.2-6.1-25.7-2.3-8-4.5-15.6-8.4-23a37.2 37.2 0 0 1-2-4.94 3.35 3.35 0 0 0 .7-.46c1.7-1.5 5.5-.9 7.7-1.3 2.7-.5 5.3-1.4 6.8-3.9 3.7-6.3-2.9-11.7-6.6-15.9-4.4-5-.7-8.7 1.6-13.7a29 29 0 0 0 2.8-14.5c-.2-3-.5-7.8-3.3-9.4-2.4-1.3-5.7-.6-7.9.7-2.5 1.5-4.2 4-6.1 6.2-2.1 2.5-4.1 4.8-6.3 1.2-3.1-5-2.7-11.9-7.2-16.1-5.7-5.3-11.3.2-11.1 6.6.1 4.1 1.3 8.2 1.8 12.2.8 5.5 1.5 11 2.7 16.5s-.4 7.5-4.1 11.4a107 107 0 0 0-9.8 11.4c-3.3 4.7-4.1 10.4 3 11.1 7.3.7 13.4 2 19.9-2.3 3.5-2.3 6.6-4.5 8.5.3 1.5 3.8 3.1 7.2 4.9 10.8 4.7 9.5 7.1 20.6 9.7 30.8 3 11.9 3.6 23.8 5 35.9 1.4 11.5 2.6 22.7 2.6 34.3.1 12.1 0 24.2 1.2 36.3 1.3 13.2 2.7 26.3 3.2 39.6s.1 26.5-.4 39.8c-1 26.5-8 52.3-8.2 78.8.1 1 1.7 1 1.7 0 .5-19.3 4.7-38.1 7.6-57.1 2.8-18.2 3.2-37.3 3.1-55.7-.2-19-2.3-37.9-2.7-56.8zm-40.7-141.7c-3.7 2.2-5.8 1.3-9.7.9-1.2-.1-2.4-.1-3.5-.1-.19 0-.52 0-.89-.07.5-.66 1-1.65 1.49-2.23 1.3-1.8 2.8-3.5 4.3-5.2 2.7-3 5.8-5.8 8.1-9.1 3.6-5.1 1.9-10.2.8-15.8-1-5-1.5-10-2.3-15-.2-1.3-2.6-11.5-.5-11.2 1.7.2 2.8 5.8 3.2 7a35.26 35.26 0 0 0 3.1 7.8c2.3 4 6.5 6.4 11 4.2 3.56-1.78 6.88-9.17 10.95-9.73 1.85 7.71-.55 13.62-4.15 20.73-2.6 5-2.6 9.9 1 14.3 2.1 2.6 11.2 9.5 4.1 10.7-3.46.62-6.76.3-9.69 2.1a9.13 9.13 0 0 0-2.41-2.5c-5.2-3.5-10.5.6-14.9 3.2z"/><path class="cls-1" d="M764.2 221.3c1.5-1.5-.9-3.8-2.3-2.3a7 7 0 0 0-2 5.7 1.64 1.64 0 0 0 1.6 1.6c.9-.1 1.8-.8 1.7-1.7a3.89 3.89 0 0 1 1-3.3zM1083 159.2c3.26-8.76 7.65-16.83 11.88-25.1a2.52 2.52 0 0 0 2.82.5c2.4-1.1 3.7-3.4 4.9-5.8.21-.41.43-.81.65-1.22 1.76-1.72 3.66-3.34 5.25-5a63.51 63.51 0 0 0 9.7-11.7 96.26 96.26 0 0 0 5.14-9 119.31 119.31 0 0 0 13-20.29c2.8-5.7 6.9-12.5 5.4-19a2.43 2.43 0 0 0-1.7-1.7c-5.1-1.2-8.9 3.1-11.8 6.7a113.22 113.22 0 0 0-12.1 18.5c-4.2 8.1-8.9 15.9-13.6 23.7s-8.8 16.2-13.1 24.4c-8.6 16.5-14.5 33.7-21.4 51a346.74 346.74 0 0 1-25.5 51.9c-4.9 8-10.3 15.7-15 23.7s-9.3 16.4-14.4 24.4c-10.1 15.9-20.2 31.5-29.3 48-9.3 16.6-19.1 32.7-29.6 48.6-10.3 15.5-21 30.9-30 47.1-9.9 17.7-16.9 36.5-22.1 56.1a181 181 0 0 0-5.1 26.4c-.4 3.6-1.9 10.3 1.6 12.9a1 1 0 0 0 1.4-.4 15.28 15.28 0 0 1 1.9-3c.7-1.4-.9-2.3-1.7-1.3a27.6 27.6 0 0 0-1.25 1.77c-1.76-3.32.49-12.55.95-15.37 1.3-8.9 3.7-17.5 6.2-26.1a226.18 226.18 0 0 1 19.9-48c17.1-30.7 39.3-58.2 56.6-88.8 8.6-15.2 17.3-30.3 26.9-45s18-30.3 27.8-45c9.6-14.5 18.6-29.3 26-45.1s13.56-32.29 19.66-48.79zm40.7-77.1c1.53-2.71 8.6-15.18 13.57-16.71 0 3.07-1.71 6-3 8.81-1.08 2.39-2.16 4.77-3.37 7.11-.92-1.63-3.71-1.94-4 .29-.7 4.9-3.5 9.7-5.6 14.2-.34.72-.7 1.44-1.06 2.16-1 1.27-1.93 2.52-2.94 3.74-4.2 5.1-8.8 9.9-12.8 15.1q-.86 1.11-1.7 2.24c2.18-3.94 4.43-7.86 6.8-11.74 5-8.2 9.2-16.8 14.1-25.2zM329.4 530.4c-4.6 5.7-12.2 8.6-18.9 10.9a43.61 43.61 0 0 1-27.2.7c-16.7-5.3-26.8-20.5-34.7-35.1a152.73 152.73 0 0 1-16.8-50.5c-2.8-19.1-2.8-38.5-2.1-57.8.6-18.7 1.3-37.3 3.2-55.9.9-9.2 1.9-18.4 2.2-27.7s-.6-18.3-1.1-27.5c-.4-8.9-1.1-17.6-1.8-26.5-.7-8.6-.7-17.4-2-25.9-2.6-16.3-9.4-31.7-16.2-46.6-8.3-18.2-11.7-37.6-15.1-57.2-1.7-10-3.8-19.8-5.6-29.8-1.37-7.32-3.32-15.75-3-23.61.41 2.8.37 6.2.48 7.41.6 5.3 1.7 7.6 5.5 11.4l.33.37a1.82 1.82 0 0 0-2.13 2.23c2.92 10.76 7.52 21.35 7.52 32.7 0 .75-.06 1.5-.06 2.23v.08c.1 2.26 3.38 2.16 3.67 0v-1.07-.44c.27-7.49 2.36-15.58.67-22.88-1.1-4.8-3.3-11.3-6.6-15.1-1.2-1.3-2.8-2.3-3.7-3.8s-1.1-3.8-1.2-5.6c-.2-2-.3-4-.5-6-.4-3.4-.8-8.4-4.7-9.6a2.16 2.16 0 0 0-2.6 1.5c-1.8 7.2-.5 14.9.6 22.2 1.4 9.5 3.6 18.9 5.4 28.4 3.5 18.2 5.8 36.7 11.7 54.3s15.4 33.4 19.9 51.5c2.3 9.2 2.5 18.5 3.2 27.9.7 10.1 1.7 20.1 2.2 30.2.4 9.5 1.5 18.9 1.3 28.5-.2 9.9-1.2 19.8-2.1 29.6-1.8 19.9-2.4 39.9-2.7 59.8-.3 19.6.2 39.2 3.7 58.5a154.9 154.9 0 0 0 18.4 49.2c8.5 14.8 20.4 29.2 38 32.8a46.06 46.06 0 0 0 24.9-2.2c6.7-2.4 14-5.3 18.6-11-.08-.52-.48-.82-.68-.62zM202.9 112.1a28.62 28.62 0 0 1 .31 4c-1.51-5.67-3.45-11.27-5-16.9a34.81 34.81 0 0 1 4.69 12.9zM846.18 334a1.73 1.73 0 0 0 .92-1.82c-3-18.7-5.6-37.5-8.1-56.3-1.2-9.1-2.5-18.1-3.8-27.2-1.4-9.6-4.9-18.9-5.2-28.6a1 1 0 1 0-1.9 0c0 8.7 2.9 16.9 4.2 25.4 1.6 10.2 2.7 20.5 4 30.8 2.12 16.68 4.26 33.43 6.72 50.13-3.58-8.25-7.42-16.41-10.82-24.73-5.4-13.2-10.5-26.5-16.3-39.5-5-11.4-10.3-22.7-14.8-34.4-.76-2-2-6.29-4.21-7.6q.15-.39.29-.79a2.26 2.26 0 0 0 1.53-2.22v-3.21c.69-2.11 1.51-4.16 2.11-6.29a2 2 0 0 0-3.3-1.9 9.64 9.64 0 0 0-1.66 2 2.33 2.33 0 0 0-1.94 1.68l-.62 2.29a1.72 1.72 0 0 0-1.58 1.11c0 .1-.06.2-.1.3a18 18 0 0 0-.54 2.16.89.89 0 0 0-.37.47h-.1a24 24 0 0 1-1.2 3.8c-.43 1.13.93 1.95 1.89 1.56a11.77 11.77 0 0 0 .41 2c-.21.35-.41.69-.6 1-.4.7.6 1.3 1 .7l.44-.67a1.59 1.59 0 0 0 2.06-.23 11.45 11.45 0 0 0 1.51-2.13 3.87 3.87 0 0 1 1.79 1.83 32.57 32.57 0 0 1 2.5 6.1c1 3 2.1 5.9 3.3 8.8 5.1 11.9 10.2 23.8 15 35.9 4.4 11 8.4 22.2 12.8 33.2 4.5 11.5 10 22.6 13.9 34.4.7 2.2 4.3 1.2 3.5-1-.91-2.32-1.78-4.68-2.73-7.04zM858.7 252.2c-.43-6.26-1.14-13.24.42-19.52a.62.62 0 0 0 .58-.58l.3-2.1c0-.12.09-.25.13-.37h-.11a.88.88 0 0 0-1.59-.58c-3.5 5.1-2.8 13-2.6 18.9.3 8 .6 15.9.8 23.9.4 17.2.8 34.5.8 51.7a1.7 1.7 0 0 0 3.4 0c.1-16.3-.5-32.5-1.1-48.7-.33-7.55-.53-15.15-1.03-22.65zM666.4 336c-3.1-13-6.8-25.9-10.2-38.9-3.5-13.5-6.9-27-11.3-40.2-3.9-11.8-7.5-24.1-12.9-35.3-2.8-5.9-6.2-11.4-8.8-17.4a108.39 108.39 0 0 1-6.1-20.1c-1.6-7.2-3.4-14.3-4.9-21.5-1.7-8.1-1.5-16.1-1.4-24.3 0-3.48-1.88-15.35-.38-21.59a7.08 7.08 0 0 0 6.45 1 7.63 7.63 0 0 1-2.49-1.56 10 10 0 0 0 2.82 1.45c.2-.07.4-.14.61-.23 5.7-2.5 9.1-8 10.1-13.8 1.2-7.2 4.6-14.5 4.1-21.9-.3-3.9-1.8-7.7-2.3-11.6-.3-2.7-.8-5.2-2.8-7.3C622 57.6 615.2 59 609 57.9c-5-.9-8.6 1.3-12 5.2-2.3 2.6-3 5.8-4.8 8.6s-3.8 4.7-4 8.1c-.3 3.8 1.4 7.4 2.4 10.9 1.3 4.5 2.5 8.9 4.7 13.1a2.23 2.23 0 0 0 2.5 1c3.3-1.1 4.7-3.6 8 .4l.12.16a19.13 19.13 0 0 0 1.78 8 9.77 9.77 0 0 0 1.59 2.31c-1 3.5-.52 8.15-.39 10.59.4 10.7-.8 21.7.6 32.3.8 6.1 2.3 12 3.5 18 1.4 7.2 2.8 14.5 4.9 21.6 4.1 13.3 11.8 25.1 16.2 38.4s8.9 26.2 12.5 39.6c3.8 14.1 7.1 28.3 10.8 42.5 7 26.8 11.8 53.8 16.4 81.1 5.1 30.3 10.7 60.8 22.4 89.4 1.2 2.8 5.8 1.6 4.6-1.3C681.4 439.2 678.5 386.5 666.4 336zM594.8 89.1c-1.3-4.6-3.2-8.3-.1-12.5 3.2-4.4 5.9-14.3 12.8-13.5 3.9.4 8.6 0 12.2 1.4 4.6 1.8 4.4 5.2 5.2 9.6.9 5 2.4 8.9 1.3 14-.9 4.1-2.4 7.9-3.1 12s-1.1 7.3-4.3 10.3c-1.45 1.37-3.41 3.09-5.14 2.07a.7.7 0 0 0-.76-1.07c-.09 0-.16.07-.25.1-.86-1.16-1-3.27-1.15-4.6-.6-5 .8-10.2-.1-15.1-.7-4.1-4.7-6.7-8.5-3.9s-2.91 8.06-2.8 12c-.56.14-1.14.32-1.75.5-1.35-3.77-2.45-7.5-3.55-11.3zm10.6 11.53a3 3 0 0 0 .1-.73c0-1.6-.8-5.3.1-6.7s.5 1.2.5 1.8c0 1.1 0 2.3-.1 3.4 0 .89 0 1.79-.07 2.71a6.72 6.72 0 0 0-.53-.48zM910.7 254.3c4.2 1.2 8.2 1.4 11.8-1.3 3.2-2.4 5-6 6.5-9.6 1.7-4 4.1-8.2 5.1-12.5 2-8.6-3.5-16.4-10.7-20.5-6.2-3.5-16.4-7-23.2-3.3a9.91 9.91 0 0 0-3.87 3.61 15.45 15.45 0 0 0-6.43-2c-7.3-.7-9.3 5.4-9.2 11.7.1 4.1 2.9 9.1-.6 12.1-3.1 2.7-6.9 3.5-9.1 7.4-3.6 6.5-1.5 16.1 5.7 19.3 2.9 1.3 5.9.7 8.7-.4a27.66 27.66 0 0 0 5.6-3.1c1.9-1.3 3.2-3.2 4.9-4.5 3.9-2.71 10.5 1.79 14.8 3.09zm-16.9-7.8c-3.1 2.5-5.2 5.4-8.9 7.3-4.4 2.2-8.4 1.4-10.1-3.8-3.3-10 8.9-10.2 11.7-17.2 2-5.2-2.8-11.1-1.1-16.7 1.37-4.54 6.16-4.29 9.78-2.27a9.13 9.13 0 0 0 1.48 6.7 3.25 3.25 0 0 0 2 4.47c.34.14.72.29 1.09.45a6 6 0 0 0 2.71 3.25c1.9 1.2 4.1-.1 4.8-1.9a4.15 4.15 0 0 0-.67-4.37c.43-1.7-.19-3.68-2.13-4-3-.6-4.1-3.5-1.4-5.5 1.3-1 3.3-.9 4.8-.9a30.06 30.06 0 0 1 9.3 2.2 19.86 19.86 0 0 1 10.1 7.7c2.5 4.2 1.6 8.4-.3 12.6-1.4 3.3-2.6 6.7-4.2 9.9-2.8 5.4-6.4 6.3-12 4.6-5.26-1.73-11.66-6.73-16.96-2.53zM1214 147.8c6.5-.8 10.9-5.1 14.5-10.2 4.9-6.9 9.2-14.6 11.1-22.9 2-8.8 1.6-17.6-4.2-24.8-4.1-5.1-13.1-10-18.4-3.8-1.8 2.2.7 6.3 3.3 4.3 7.8-6 14.7 8.4 14.8 14.2.2 8.4-2.9 16.3-7 23.4-3 5.2-6.6 12-12.7 14-6.9 2.2-17.3-1.8-19.7-9-2.5-7.5 6.7-11.9 5.2-19.6-1.3-7-3.3-14-2-21.2 1.5-8.7 9.2-13.8 17.4-15.5 5-1.1 9.6-.9 13.8 2.3 2.4 1.8 5.8 2.9 7.8 5.1.7.6 1.7-.2 1.2-.8-1.8-2.4-3.9-3.4-6.2-5.3-3-2.4-5.2-4.2-9.1-4.8-7.4-1.2-15.8 1.4-21.7 6.1-5.5 4.3-7.6 10.8-7.8 17.6a59.39 59.39 0 0 0 .9 11.1c.3 2.1 1.1 4.3 1.2 6.4.2 3.8-1.9 5.6-3.7 8.5-8.9 13.8 8.4 26.4 21.3 24.9z"/><path class="cls-1" d="M1209.4 106.5a1.51 1.51 0 0 0 .2 1.8 11.33 11.33 0 0 0 2.7 2.2 1.4 1.4 0 0 0 1.5.09c-.09 1.19 1.6 1.17 1.7 0 .1-2.3.9-5-.5-7-2.2-2.99-4.7.81-5.6 2.91zm3 .14a4.72 4.72 0 0 1 1-1.89c.66.54.77 1.7.71 2.89a16.53 16.53 0 0 1-1.75-1zM235 585.8c-3.2-15.8-5.8-31.8-8.2-47.8-5.1-33.2-10.3-66.6-13.7-100-1.7-16.2-.5-32.4-1.9-48.6-1.3-15.9-3.6-31.8-5.3-47.8-1.6-14.6-2.7-29.7-8.6-43.3-6.7-15.1-12.7-30.7-18.4-46.2-2.8-7.5-5.5-15.1-8.5-22.5s-5-15.2-8.3-22.4c-2.3-5-5.6-8.1-6.1-13.8-.2-1.9-.6-4.6.2-6.4 1.1-2.5 3.2-.9 5.1.2 3 1.8 6.1 4.5 9.8 3.3 4.5-1.5 6.4-7.7 7.1-11.8 1.3-6.9-.2-13.7-.9-20.5-.4-3.5-.7-6.9-1.3-10.4-1-5.4-2.7-15.2-9-17.1-2.9-.9-5.9.6-7.9 2.7-1.5 1.6-2.3 3.6-3.4 5.5s-1.3 2.8-3.5 3-3.6-1.2-5-2.7c-3-3.4-4.6-8.3-8.9-10.6a9.75 9.75 0 0 0-11.3 1.9c-3.7 3.7-4.5 9.2-3.8 14.2a88.13 88.13 0 0 0 2.2 10.2c.3 1.4 1.5 4.8.6 6.3-1.8 3-11.7-1.8-14.3-2.5-4.9-1.2-10.8-1.3-12.7 4.4-3.4 10.2 8.7 19.8 15.4 25.5 5.9 5 12.9 9.5 14.3 17.7 1.1 6.9-2.1 13.3-1.4 20.1.4 3.7 1.5 8.9 5.2 10.6a2.26 2.26 0 0 0 2.6-.3c1.1-1.2 3.2-1.6 4.6-2.7a17.58 17.58 0 0 0 3.7-5.2c1.94-3.62 3-7.73 5.27-11.08.87 2.2 1.45 4.5 2.43 6.68s2.2 3.8 2.3 6.4c0 .1.1.1.1 0 .4-2.2.8-3.7.2-5.8-1-3.5-1.8-7.6-3.4-11a1.56 1.56 0 0 0-2.4-.3c-3.1 3.1-4.5 6.8-6.4 10.7-1 2.1-2.3 4.9-4.1 6.3a22.36 22.36 0 0 1-3.69 1.86c-1.57-1.93-2-5.92-2-7.86 0-3 1-6.1 1.4-9.1.8-5.6.6-11.4-2-16.5-5.7-11.3-19.8-16.2-26.3-27.1-1.7-2.8-3.2-8.5 1.2-9.3 2.5-.5 5.6.9 8 1.7 4 1.3 10.2 4.2 14.2 1.5 6.2-4.1.6-15.4-.2-20.7-.6-3.9-.6-9.7 3.4-12 3.8-2.2 6.3.9 8.2 3.7 2.4 3.5 4.6 7.4 8.5 9.6 3.6 2 7.2 1.4 9.8-1.8 1.7-2 3.9-9.8 7.6-8.9 2.7.7 3.8 6.6 4.4 8.7a68.34 68.34 0 0 1 1.7 9.9c.6 5.6 1.5 11.3 1.7 17 .1 3.9-.2 8.5-2.3 11.9-1.6 2.7-2.5 2.1-4.9.6-5.9-3.7-13.7-6.5-15.8 2.6a26.17 26.17 0 0 0 .4 11.8c1.2 5.4 5.2 9.3 7.2 14.4 5.7 14.1 10.7 28.6 15.9 42.9 5.2 14.1 10.8 28.2 16.7 42a89.6 89.6 0 0 1 6.4 20.2c1.3 7.9 2.3 15.9 3.1 23.9 1.6 15.3 3.7 30.5 5.2 45.8s.3 30.5 1.7 45.7c3.3 34.6 9 69.1 14.3 103.4 2.6 17.2 5.5 34.5 8.9 51.5 3 14.7 4.7 31.3 12.5 44.4 1.6 2.8 5.8.3 4.3-2.5-7.21-13.1-9.01-29.6-11.91-44.2zM993.5 379.3c-4.5-1.4-8.6-.5-11.8 3-2.2 2.4-3.9 5.1-6.2 7.4a42.81 42.81 0 0 0-5.6 6.5c-3.1 4.7-4.5 10.4-5.8 15.8-.9 4.1-1.9 9.1 1.1 12.6a2.57 2.57 0 0 0 3 .4c3.2-1.9 4.3-5.9 5.7-9.1 1-2.4 2.3-5.3 4.3-7a6.88 6.88 0 0 1 1.45-1 6.62 6.62 0 0 0 .65 1.77 2.43 2.43 0 0 0 4.1 0 8.89 8.89 0 0 0 .75-1.28 1.88 1.88 0 0 0 .15-.22 13.34 13.34 0 0 0 2.06-5.33c.21-.17.42 0 .64.63.7 2.2-1.6 6.4-2.3 8.5-.72 1.87-1.34 3.78-1.92 5.7a5 5 0 0 1-2.11-.45c.94-3.12-4.11-4.46-5.37-1.25-.2.5-.4 1.1-.6 1.6a2.74 2.74 0 0 0 .7 2.7 13.83 13.83 0 0 0 5.89 2.89c-.82 3.29-1.55 6.61-2.29 9.91-3.7 16.5-6.8 33.1-10.6 49.6-3.7 16.2-4.6 32.9-7.2 49.4-.63 4-1.34 8-2.07 12.06C955.23 536 950 528 945.5 519.6c-5.6-10.4-8.5-21.7-12.9-32.6 0-.1-.2 0-.1.1 4.1 10.4 6.8 21.1 12 31.1 4.68 9.11 10.34 17.68 15.54 26.45-2.14 11.82-4.35 23.6-4.64 35.65-.4 15.3-.6 31.5 6.5 45.5.4.7 1.9-.2 1.4-1.1-7.6-15.6-6.6-35.1-5-52 .79-8.27 2.19-16.47 3.72-24.66l.38.66c.1.2.5 0 .3-.2l-.58-1c1.94-10.34 4.06-20.66 5.38-31.11 1.2-9.8 2.4-19.6 4.5-29.3 2-9.2 4.3-18.3 6.3-27.4 2.63-12.43 5.22-24.7 8.61-36.81a12.64 12.64 0 0 0 3.69-2c4.5-3.5 9-8.6 10.1-14.3.6-3.3.5-6.6 1-9.9a19.13 19.13 0 0 0-.1-8.9 11.8 11.8 0 0 0-8.1-8.48zm2.6 19.2c-.5 4-.2 7.8-2.5 11.4a27.18 27.18 0 0 1-4.41 5.27c.58-1.86 1.18-3.72 1.81-5.57 1.1-3.4 3-11.2-2.7-11.8a4 4 0 0 0-2.68.66 2.22 2.22 0 0 0-2.42.44 12.92 12.92 0 0 0-2.18 2.67 2.34 2.34 0 0 0-.62.43c-1.3 1.4-3.7 1.5-5.1 2.9a22.36 22.36 0 0 0-4.2 5.4c-1.2 2-1.9 5.46-3.26 7.94-.19-5.14 3.46-14.15 4.76-16.74 1.9-3.8 4.8-6.4 7.6-9.4 2-2.1 3.6-5.3 5.8-7.1 2.8-2.2 7.5-1.4 9.6 1.6 2.5 3.6 1 8 .5 11.9zM1454.4 93a2.31 2.31 0 0 0-2.1-2.8c-4.5.1-6.2 4-10.1 5.6-1.7.7-5.6 2.2-7.5 1.9-1.5-.2-2.2-1.4-3.8-1.3-6.7.1-12.3 9.7-13.8 15.3-1.8 6.6 6 9.7 11.2 11.2a8.82 8.82 0 0 0 3.15.36q-1.79 3.16-3.55 6.34c-3.4 6.3-7.4 12.3-9.4 19.3-2.1 7.8-4.8 15.8-6.1 23.8-1.2 7.3-.5 14.7-.2 22a116 116 0 0 1-2.3 26.3c-3.1 16.3-7.9 32.4-12.3 48.4-4.5 16.3-11.4 31.4-17.9 46.9-6.2 14.7-11.2 29.9-17.2 44.7-6.4 15.6-13.2 31-19.2 46.7a481.57 481.57 0 0 0-15 48.3c-4.7 18-10 36.1-12.7 54.5-1.3 8.7-1.7 17.6-2.8 26.4a237.67 237.67 0 0 0-2.3 29.1c-.1.8.2.8.2.6.5-16.8 3.5-33.9 5.7-50.6s7.4-33.1 11.7-49.4 8.9-32.9 14.8-48.8c5.8-15.7 12.4-31 19-46.3 6.3-14.8 11.8-29.8 17.6-44.7 6-15.2 13.7-29.6 18.6-45.2s9.1-31.9 13-47.9a196.56 196.56 0 0 0 4.3-22.9c.9-8.1.6-16.1.3-24.3-.3-9.5 1.8-17.7 4.2-26.8 1.3-4.6 2.1-9.4 4-13.8 1.7-4.1 4.1-7.8 6.3-11.7 3-5.36 5.89-10.71 9.05-15.91a55.9 55.9 0 0 0 4.39-6.82c4.05-5.76 9.43-11.35 10.76-18.47zm-20.8 25c-2.5 2.1-6.7 0-9.2-1.5-4.2-2.5-2.8-4.9-.7-8.4 1.91-3.28 3.84-6.12 7.41-7.29 2.71 2 5.92.86 9.29-.11a23.43 23.43 0 0 0 5.8-2 16 16 0 0 0 2.45-2c-1.8 3.64-4.53 7-7 10.21a2.11 2.11 0 0 0-1 .92c-.42.72-.87 1.51-1.34 2.32q-1.62 2.47-3.14 5a16.28 16.28 0 0 1-2.57 2.85zM1079.8 323.9c4.4-3.1 10-6.6 12.5-11.6 5.1-10.3 3.1-22.4-8.1-27.2-4.1-1.7-11-2.7-14 1.6a14.06 14.06 0 0 0-8.48 5.67c-3.3 4.8-.8 10.4.9 15.3 1.9 5.4.2 11.7 4.7 16 3.78 3.63 8.48 3.03 12.48.23zm-11.4-9.1a39.18 39.18 0 0 0-2.7-11.1c-.9-2.5-1.8-4.9-1.2-7.5a9.83 9.83 0 0 1 4.47-5.58c-.06 3 1.3 6.11 1.43 9 .2 4 6.4 4 6.2 0-.1-2.6-1.5-5.2-1.5-7.8a2.47 2.47 0 0 1 .37-1.4c3.61 1.36 6.92 4.43 9.53 6.8a.81.81 0 1 0 1.1-1.2 43.73 43.73 0 0 0-7.33-6.5 17.45 17.45 0 0 1 6.23 2.3c4.9 3.3 5.5 8.1 4.3 13.5-1.2 5.6-4 8-8.3 11.4-1.6 1.2-3 2.8-4.8 3.7-4.3 2.38-7.3-1.22-7.8-5.62zM474.9 502.7c-7.2 1.2-12.6-8.7-16.2-13.4a144.54 144.54 0 0 1-13.1-20.4c-8.6-16.5-18.3-32.3-25.9-49.3-8-18.1-14.7-36.9-21-55.7-2.9-8.7-5.8-17.3-8.2-26.1-2.4-8.6-5.8-16-9.2-24.1-3.8-9.2-7.6-18.3-11.8-27.3a27.14 27.14 0 0 0-6-8.81 2.2 2.2 0 0 0 2.88-2.09 9.54 9.54 0 0 0-2.5-7.2c-2.2-2.6-2.5-5.9-5.3-8a2.27 2.27 0 0 0-2.8.4c-5.63 5.63-4.2 11.63-3.6 18.43a6.28 6.28 0 0 0 .2 4.27 2.85 2.85 0 0 0 3.7 1.49 6.64 6.64 0 0 0 2.9 1.51 2.76 2.76 0 0 0 3-1.2c.11-.22.19-.44.29-.65.55 1 1 2 1.41 2.75 1.8 3.8 3.4 7.6 5.2 11.4 3.8 8.2 6.9 16.7 10.8 24.8 4.1 8.4 6.1 17.7 9.2 26.5 3.2 9.1 6.4 18.3 9.7 27.4a546.32 546.32 0 0 0 21.9 52.4c4.2 8.6 8.9 16.8 13.9 24.9 4.7 7.7 8.8 15.8 13.5 23.4a173.15 173.15 0 0 0 13.7 18.2c3.4 4.1 7.9 9.1 13.8 8 1.12-.1.62-1.8-.48-1.6zM357.47 266.13a25 25 0 0 0 1.63 3.67c1.7 2.3 2.8 2.7 2.8 5.7a2.29 2.29 0 0 0 .19.95q-.48-.33-1-.61l-.1-.14a2.18 2.18 0 0 0-1.91-.74 10.84 10.84 0 0 0-2.29-.46 2 2 0 0 0-.52 0c-.33-2.91-.27-5.76 1.2-8.37z"/><path class="cls-1" d="M394.9 214.5a19 19 0 0 0 4.9-3.5 18.11 18.11 0 0 0 2.08-3.38c.57 2.09.71 4.35 1.12 6.38 1 5 1.5 10 2.1 15a286.61 286.61 0 0 1 2.2 29.3c.1 10.1-1.5 20.1-2.4 30.2a243.67 243.67 0 0 0-.4 29.6c.5 18.4 4.4 37 9.8 54.5 5.5 17.9 14.2 34 23.1 50.4 4.9 8.9 9.8 17.9 15 26.7 4 6.8 8.4 13.8 15 18.4.6.7 1.3-.6.6-1.2-6.7-4.8-11-12.2-14.9-19.2-4.4-7.9-8.7-16-12.9-24-9-17.1-17.7-34-23.2-52.6-5.3-18-8.9-36.9-9.1-55.7a266.07 266.07 0 0 1 .9-29.6c1-9.4 2.4-18.8 2.3-28.3-.1-10.8-1.3-21.5-2.5-32.2-.5-4.3-1-8.5-1.9-12.8-.25-1.4-.42-2.83-.67-4.23a4.42 4.42 0 0 0 1-1.17.94.94 0 0 0 .07-.35h.23c2.2.5 3.1-2.9.9-3.4a20 20 0 0 0-3.79-.06c-.1-.18-.19-.36-.31-.54a2.05 2.05 0 0 0-3.1-.4l-.18.17a2.48 2.48 0 0 1-.72-.87 1.53 1.53 0 0 0-2.8.4 20 20 0 0 0-1.05 4.84V207.56a1.93 1.93 0 0 0-.6 0c-3.4.4-5.6 3-3.4 6.2a2 2 0 0 0 2.62.74zM128.3 527.1c-5.1 3.5-11.4-3.9-14-7.3-3.2-4.2-6.3-8.6-9.2-13-6.5-10.1-13.2-20.1-19.4-30.4-12.5-20.8-20.3-44-27.5-67.1-14.8-46.9-26.5-98.7-17.7-147.8 4.18-23.51 6.28-47.44 10.71-70.91a22.21 22.21 0 0 0 8 2.81c12 1.6 11.4-19.5 11.5-26.7 0-4 .6-9.6-4.5-10.6a4.43 4.43 0 0 0-4.2 1.4c-.5.6-.8 1.4-1.3 2-2.2 2.1-3.6 1.4-6 1.4-5.3-.1-7.4 3.7-9.6 8.1-2.14 4.12-2.78 7.9-.65 11.51a7.91 7.91 0 0 0 1.75 5.89 14.63 14.63 0 0 0 1.85 1.94c-4.37 22.71-6.26 45.9-10.15 68.66-2.3 13.2-4.1 25.9-3.7 39.3A340.6 340.6 0 0 0 37.6 334c3.9 26.5 10.7 52.5 19.1 77.9 8 24.3 16.6 48.5 30.6 70.1 7.8 11.9 15.3 24.2 23.9 35.6 3.2 4.3 11 15.6 17.9 10.8.4-.7-.2-1.7-.8-1.3zM49.31 178a2.92 2.92 0 0 0 .84.45c-.19.82-.39 1.65-.57 2.47a2.14 2.14 0 0 0-.48-1c-.11-.12-.2-.25-.3-.38a10.51 10.51 0 0 1 .51-1.54zm1.59-10.8c2.5-3 4.9-1.6 8.2-2.2a7.29 7.29 0 0 0 4.5-2.5c1-1.1 1.4-3.7 3.2-.4.5 1 .1 3.5.1 4.6a93.77 93.77 0 0 1-.2 10.6c-.3 3.3-1.7 11.8-5.9 12.5-2.6.5-6.5-1.7-8.7-3.2l-.1-.07c.65-3.22 1.34-6.43 2.1-9.63.3-1.3-.9-2.8-2.3-2.3-.08-.31-.1-.6-.15-.86l.15-.24-.17-.1a1.85 1.85 0 0 0-3.23-1.8l-.34.55a15.65 15.65 0 0 1 2.84-4.95zm-2 15.67a2.33 2.33 0 0 0 .35-.41l-.17.82c-.08-.14-.13-.28-.18-.41zM617.6 118c.2 0 .1.2.3-.2a5.88 5.88 0 0 1-.71-.17l-.33.11a7.07 7.07 0 0 0 .74.26zM816.7 218.5a7.68 7.68 0 0 0 2.73 0 6.34 6.34 0 0 0 3.37 2.84c1.06.3 1.66-.93 1.29-1.73 1.17.58 2.95-.44 2.41-1.87a8.74 8.74 0 0 0-.58-1.34 2.64 2.64 0 0 0-.06-1.45 2.67 2.67 0 0 0 .14-1.11 13 13 0 0 0-.16-1.3h.06c.3 0 1.9.3 1.1 0 3.2 1 5.5-4.2 2.3-5.5a9.83 9.83 0 0 0-3.4-.7h-.16a3.29 3.29 0 0 0-2.35-2.35c-.08-1.65 2.57-3.42 4-3.61s2.7.5 3.8 1.1a54.39 54.39 0 0 1 5.5 3.9c-.1 0 .1-.2 0-.3-2.7-2.4-5.8-6.7-9.8-6.5a8 8 0 0 0-6 3.34l-.51-.34a2.63 2.63 0 0 0-2.6-.15 6 6 0 0 0-4.4 3.35c-2.38 4.12-2.98 12.62 3.32 13.72zm5.76 0a2.87 2.87 0 0 0 .51.05l.4.44a2.87 2.87 0 0 1-.91-.53zM857.7 225.5a.86.86 0 0 0-.1-1.7 14.86 14.86 0 0 1-3-.41v-.55c.27-.39.55-.77.82-1.14 1.9-2.6-2.3-5.7-4.4-3.4-1 1.1-2.6 5.4-4.3 4.3a4.09 4.09 0 0 1-1.5-2.57 6.65 6.65 0 0 0-.6-6.43 2.52 2.52 0 0 0-4.5.51c-3.93-.21-6 5.25-3 8.59a3.76 3.76 0 0 0 2.29 1.25c.22.81.43 1.62.61 2.45a1.62 1.62 0 0 0 2 1.1 3.51 3.51 0 0 0 1.27-.74 7.07 7.07 0 0 0 1.43.94 5.39 5.39 0 0 0 6.61-.83 2.07 2.07 0 0 0 2.37 1.13 2 2 0 0 0 1.43-2.19c.87-.08 1.74-.19 2.57-.31zM502.6 204.6a7.83 7.83 0 0 0-.5-1.4c-.3-.8-1.3-1.7-2.3-1.3-2.1.9-3 2.9-3.3 5.1-.1 1-.5 2.3.1 3.2.4.6.4.4.6 1.1.1.4.1.9.2 1.3-.1.5.5.4.5 0v-.9a1.64 1.64 0 0 1 .2-1c.1-.2.5-.4.6-.6a3.54 3.54 0 0 0 .3-1.1 15.42 15.42 0 0 1 .55-2.26c1.28.81 3.6-.27 3.05-2.14zM1129.6 199.1a2.34 2.34 0 0 0-.17 2.79c-5.27-1-13.05.85-15.43 2.71-5.4 4.2-6.5 11.4-4.8 17.5 1.3 4.9.1 7.7-1 12.4-.7 2.8-1.3 5.8-.4 8.6 2 6.8 9.2 7.4 15 7 4-.3 6.6 2.8 10.4 3.7a18.05 18.05 0 0 0 11-.8c7.4-3 9.9-9.6 14-15.8 4.5-6.8 7.3-13.4 4.7-21.6-2.6-7.9-9.2-11.1-15.8-15.1-5.2-3.1-12.9-7.7-17.5-1.4zm20 10c6.1 3.6 9.7 10.2 7.7 17.4-.9 3.3-3.3 6-4.9 9s-2.8 6.2-5 8.8a14 14 0 0 1-9.2 5.1c-4.2.4-6.6-1.7-10.2-3.2-5.5-2.2-16.5 3.2-16.6-6.7-.1-5.1 3.4-10.1 2.2-15.3-1-4.4-3-6.6-1.6-11.3 1-3.2 2.8-6.2 5.9-7.5 2.4-1 14.7-3.4 14.8 1.2a.9.9 0 1 0 1.8 0 3.93 3.93 0 0 0-1.58-3.32 3 3 0 0 0 1.28-.58c2.8-2.3 12.7 4.8 15.4 6.4z"/><path class="cls-1" d="M1135.1 216.9a3.85 3.85 0 0 0-4.4 1.8 2.12 2.12 0 0 0 .1 2.25 5.05 5.05 0 0 0-.2 2 1.86 1.86 0 0 0 1.2 1.6 3.77 3.77 0 0 0 5-2.25h.38a2.2 2.2 0 0 0 1.61-2.35l.09-.05c1.4-1.1 0-3.7-1.6-2.6a3.93 3.93 0 0 1-1 .46 2.13 2.13 0 0 0-1.18-.86zM1332.7 297.2c5-13.3-10.7-22.6-22.1-23-3.8-.1-3.8 5.9 0 6a22 22 0 0 1 11.9 4c5.5 3.7 6.7 8.4 3.5 14.3-4.6 8.5-11.1 14.6-21.3 11.1-7.5-2.6-22.1-13.5-13.8-22.3 2.9-3 7.5-3.3 11.4-2.7 2.8.4 5.6 1.5 4.8 5.1-.3 1.7-3.2 3.9-4.3 5.2a.32.32 0 0 0 .5.4c2.2-2.3 6.4-4.9 5.8-8.6-.6-3.3-4.6-4.4-7.4-4.8-8.5-1.3-17.8 3.2-16.5 13.1 1.3 10.4 13.9 19.1 23.7 20.4 11.6 1.5 20.1-8.1 23.8-18.2z"/><path class="cls-1" d="M1311.8 295.2l1.4.3a2.06 2.06 0 0 0 2.18-.91 1.6 1.6 0 0 0 2.82-1 4.28 4.28 0 0 0-4-4.6c-2.7-.1-4.2 2.4-3.8 4.8a2 2 0 0 0 1.4 1.41zm2.9-2.7zm-.41 0s.03-.03 0-.05z"/></svg>