<svg id="Layer_1" data-name="Layer 1" xmlns="http://www.w3.org/2000/svg" viewBox="0 0 1440 380"><defs><style>.cls-1{fill:#ff7196}</style></defs><title>Artboard 1</title><path class="cls-1" d="M1031.4 148.7a3.15 3.15 0 0 0-2.7 1.5 9 9 0 0 0-.71 2.92c-3 3.67-4.27 8.08-2.49 12.58 3 7.6 4.5 14 3.9 22.3-.5 7.2-1.9 14.3-2.2 21.5-.4 7.8-.8 15.6-1.9 23.4a127 127 0 0 1-14.5 43.5c-.28.51-.57 1-.84 1.51a43.9 43.9 0 0 0-.9-4.56c.34-3.45-.43-6.9-1.15-10.35a81.78 81.78 0 0 1-1.76-11.36c.07-1.85 0-3.7 0-5.53v-.3c-.43-7.82-2.11-15.53-3.44-23.27a3.62 3.62 0 0 0 .16-.53c1.1-5.2.7-10.4.5-15.6-.07-2.14-.14-4.28-.25-6.42.61-2.5 1.27-5 1.75-7.28.92-4.74 1.75-9.49 2.47-14.23a3.6 3.6 0 0 0 .23-.87c.67-5.26 1.55-10.43 2.62-15.56a22.07 22.07 0 0 0 1.78-8.34c0-3.15-4.21-4.23-5.86-2-1-3.21-6.34-2.87-6.44 1v.34c-.06 2.11 0 4.17 0 6.25-.17 2.15-.46 4.29-.81 6.42a3 3 0 0 0-2.27 3.09c.14 5.53.85 11.17.31 16.65a3.37 3.37 0 0 0-1.71 2.75 16.31 16.31 0 0 0 .6 5.4 3.58 3.58 0 0 0 .29.72c.26 2.19.41 4.4.51 6.61a38 38 0 0 0-1.3 8.66 2.89 2.89 0 0 0 1.31 2.54 3.06 3.06 0 0 0-1.6 2.76 13.63 13.63 0 0 0 .95 6.5c1.35 8.07 3.16 16.09 3.67 24.24v.16a47.09 47.09 0 0 0 .1 5.26v1.63a3.51 3.51 0 0 0 .29 1.37c.26 2.14.61 4.28 1 6.43s1.14 4.74 1.57 7.18a3 3 0 0 0-.77 1.42 8.73 8.73 0 0 0 1.2 7.5 3.1 3.1 0 0 0 .48.55 57.63 57.63 0 0 1 1 10.3q-3.83 6.41-7.89 12.66c-2.5 3.8-4.9 7.6-7.2 11.5-1.6 2.7-3.7 5.4-4.3 8.6-.5 2 2.6 2.9 3 .8.7-3.4 3.7-7 5.6-10 2.3-3.6 4.7-7.1 7.1-10.6q1.83-2.75 3.63-5.5v1.5h.3a2.79 2.79 0 0 0 4 2.55 82.89 82.89 0 0 1 1.14 8.45c.34 2.67.95 5.31 1.52 8 0 4-.27 8 .08 11.94.4 4.2 1.5 8.3 1.6 12.6.2 2.6 4 2.6 4 .2 0-4.1-.9-7.9-1.4-12a2.13 2.13 0 0 0 1.7-2.06c.4-7.4-1.9-14.9-2.7-22.2-.55-4.85-1.11-9.78-4-13.72v-4.84q1.76-2.89 3.45-5.84a133.84 133.84 0 0 0 16.3-44.2 185.52 185.52 0 0 0 2.5-22.3c.4-7.8 1.6-15.4 2.4-23.2.7-7.4.6-14.9-2.1-21.9-.36-.86-.81-1.72-1.19-2.57a2.64 2.64 0 0 0 .89-.73c1.42-1.76 3.59-3.66 4.8-5.81a3.32 3.32 0 0 0 2.2-5.39c-2.42-2.68-4.92-4.68-8.52-4.68zM898.6 55.1c-8.58.34-17.24.32-25.84.24-1.42-.05-2.83-.07-4.26 0a2.82 2.82 0 0 0-2 4.61c-.48.11-1 .24-1.44.38A26.83 26.83 0 0 0 859.7 59a59.91 59.91 0 0 0-6.46-3.36C840.87 47.7 827.3 43 818.3 55.5a1.75 1.75 0 0 0 .6 2.3c3 1.6 6.1 1.8 9.5 1.8 5.3.1 10.6.5 16 .9 1.09.07 2.21.1 3.35.12a12.44 12.44 0 0 1 1.55.58 53.26 53.26 0 0 1 7.14 4l-.22.22A28 28 0 0 0 844.8 65c-4.5.9-8.6 3.1-12.5 5.4-3.6 2.1-7.9 3.7-11 6.7-1.8 1.7-.3 4.5 1.9 4.6 3.4.2 6.4-1.7 9.2-3.4 4.7-2.8 9.1-4.3 14.7-3.9a25.89 25.89 0 0 1 7.3 1.6c3.74 7.49 16.57 13.2 23.9 11.45a2.69 2.69 0 0 0 1.6-4c-2.4-3.7-6.4-4.8-10.3-6.4-2.48-1-4.86-2.27-7.27-3.48l1.47.68c2.62 1.21 5.23 2.06 8 1.27q.74.43 1.49.83c2.59 1.44 4.71-2.09 2.67-3.88l.13-.22c-.69-.38-1.37-.78-2-1.18l-1-.71a44.55 44.55 0 0 0-4.64-4.93c.61-.16 1.2-.29 1.73-.38 11.7-2 23.1-.2 34.8.5 2.38.15 3.39-2.86 2.3-4.5a16.26 16.26 0 0 1 7.9 3.5c2.7 2.3 6.7-1.5 4-4-5.98-5.25-12.78-5.75-20.58-5.45zm-75.74.66c3.47-3.5 7.85-4.26 12.33-3.61a2.51 2.51 0 0 0-.49 2.16 5.45 5.45 0 0 0 2.56 2.91c-4.54-.22-10.05.13-14.4-1.46zM1154.12 110.87a18.32 18.32 0 0 1-1.43-2.45 6.29 6.29 0 0 0-1.2-4.22c-.6-.9-2.3-1-2.6.3-.9 4.5 2.4 10.1 5.4 13.3a2.22 2.22 0 0 0 3.6-.9 21.67 21.67 0 0 0 .68-3.55 5.45 5.45 0 0 0 1.9.81 2.73 2.73 0 0 0 2.69 0c2.56-.48 4.53-2.24 6.29-4.34 4.7-3.55 9.32-8.24 6.84-12.93a3.11 3.11 0 0 0-2.6-1.5 25.21 25.21 0 0 0-4.8.6c-2.2.4-2.5 1.1-2.5-1.5 0-2.14.18-4.28.16-6.37a5.56 5.56 0 0 0 2.95-2.12 5.91 5.91 0 0 0 1.19-3.89 12.64 12.64 0 0 0 3.06-4.85c5.32-1.73 10.82-8.2 6.55-13.16a9.88 9.88 0 0 0-3.5-2.2 11.73 11.73 0 0 1-2.4-.9c-1.13-.78-1-2.24-1.51-1.69 1-1.3 2.67-1.89 3.31-3.81a6.85 6.85 0 0 0 .38-2.54 3.64 3.64 0 0 0 1.92-1.46 4.16 4.16 0 0 0 .8-3.7c0-.08-.06-.22-.1-.36a13.8 13.8 0 0 0 2.8-2.54 13.72 13.72 0 0 1 1.6-1.8c1.5-1 .1-1.4 1.7.5 2.3 2.7 7.1-.9 5-3.8-4-5.6-8.1-4.3-12.5 0-1.4 1.4-3.7 2.2-4.7 3.8a4.43 4.43 0 0 0-.5 1.32 3 3 0 0 0-3.1 3.18c.2 1.9 1 4.2-.1 5.8-.6.9-2 1.1-2.6 2.2-1.1 2-.5 4.4.5 6.3a10.32 10.32 0 0 0 5 4.73 14.05 14.05 0 0 0-3.46 5l-.32.79a2.55 2.55 0 0 0-.32.74 17.47 17.47 0 0 1-1 1.92c-2.08-1.82-4.77-2.85-7.19-2.25a3.12 3.12 0 0 0-2.31 2.84 3.26 3.26 0 0 0-1.7 2.73c-.33 3 1.7 6.09 4.41 7.91.11 4.05.12 9.22.29 10.39 1 5 4.25 5.07 7.85 4.61a35.72 35.72 0 0 1-5.15 4.29 17.47 17.47 0 0 0-2.51 1.92 5.33 5.33 0 0 1-1.69-2.12c-.8-1.4-1.4-2.9-2.2-4.3-1.3-2.3-5.3-.7-4.3 1.8a22.25 22.25 0 0 1 1.42 7.47zM1144.3 57.3c-1.3 2 1.8 4.6 3.4 2.6.16-.21.31-.42.45-.64a4.54 4.54 0 0 1 .15 1.94c-.3 1.9 3.2 2.4 3.5.4a6.88 6.88 0 0 0-2.53-6.94c0-.19 0-.37-.07-.56-.2-1.2-2-4.8-.9-5.6 3.2-2.3-.6-7-3.2-4.2a6.45 6.45 0 0 0-1.8 6.2c.5 2.3 2.2 4.6 1 6.8zM462 196.5q-2 2-3.86 4.08a3 3 0 0 0-2.14 1.52c-.52.87-1 1.8-1.48 2.75-4.67 5.89-8.41 12.35-10.22 19.85-.81 3.43-1.5 6.92-2.1 10.43-1.75-1.09-4.67.07-4.5 2.47 0 .22 0 .45.06.67-1.55-2.73-6.33-.58-5.26 2.53l.35 1-.15.06a17.26 17.26 0 0 1 1.1 3.2 10.55 10.55 0 0 0 .5 1.9c.8 1.6-.8 1 1.3 1.1-3.3-.1-3.8 4-1.5 5.6 1.41 1 3.62 2.05 5.68 3.29-.13 2.28-.23 4.55-.28 6.81v3.7c-1.09-2-2-4-3-5.5-1.4-2.1-5.3-1.5-5.1 1.4.09 1.29.23 2.54.42 3.79a3 3 0 0 0-.62 3.31c.86 2 1.81 3.84 2.68 5.84v.06l.09.2a2.29 2.29 0 0 0 2.74 1.31 9 9 0 0 0 2.8 2.22c.09 4.64.22 9.27.36 13.88.1 5.1-.2 14.8 5.1 17.6a2.63 2.63 0 0 0 3.8-1.5c1.4-7.1 1-14.3.7-21.5-.1-3.3-.5-6.6-.9-9.9-.07-.49-.12-1-.17-1.49a16.78 16.78 0 0 0 1.29-2.38c4.11-2 5.88-7.28 5.68-11.64-.1-2.2-3.1-4-4.7-2l-.25.33a7.17 7.17 0 0 0-1.35-4.73 17.37 17.37 0 0 0-4.7-4.2q.26-4 .69-8.07a5.54 5.54 0 0 0 2.11-.33 6.47 6.47 0 0 0 3.5-3.4 17 17 0 0 0 .68-2.82h.07a2.89 2.89 0 0 0 4.24-1.58c.29-1 .53-2.08.8-3.19 1.46-2.43 2.61-5 4-7.51a2.78 2.78 0 0 0-.89-3.76 5 5 0 0 0 .09-1.74c-.3-2-1.2-3-1.3-5.4-.1-3.9 1.1-6.3 3.1-9.5a2.8 2.8 0 0 0 0-3.18q1.45-1.63 3-3.22c1.14-1.56-1.06-3.76-2.46-2.36zM444.9 263a15.83 15.83 0 0 1-.08 2.87 3.08 3.08 0 0 0-.86.21v-4-1.5a4.86 4.86 0 0 1 .94 2.42zm7.9-42.5c.29.76.48 1.13.62 1.14-.55 1.57-1.77 3.33-2.32 4.66a32.74 32.74 0 0 0-1.83 4.79 6.12 6.12 0 0 0-2.57 3.51c-.3.7-.2 2.4-.7 2.9.49-3.35 1.05-6.7 1.72-10a44.77 44.77 0 0 1 4.15-11.78 14.48 14.48 0 0 0 .93 4.78zM1392.8 51.7c3.8-3.3-1.6-8.4-5.4-5.4-4.9 3.9-15.5 9.3-11.8 17.3 1.5 3.2 5.3 3.6 7.7 5.7 2.6 2.3 1.5 3.7-.7 6a35.69 35.69 0 0 0-4.5 5 3.7 3.7 0 0 0-.41 2.81 17.6 17.6 0 0 0-3.39.49c-3.7.9-3 5.6 0 6.8a9.43 9.43 0 0 0 1.67.49 3 3 0 0 0 .23 4.31c.35.26.72.52 1.09.77a27.59 27.59 0 0 0-4.29 1 3.12 3.12 0 0 0-2.3 3.1 5.4 5.4 0 0 0 .76 3.1h-1.36a3.15 3.15 0 0 0-2.8 4.39c-1.06 0-2.12 0-3.2.11-1.8.2-3.7 1.9-3 3.9a8 8 0 0 0 4.08 4.44 3.93 3.93 0 0 0-.08 1.56 7.84 7.84 0 0 0 2.5 4.3 7.26 7.26 0 0 0 1 .78 18.13 18.13 0 0 0-2.68.12c-1.9.3-2.8 3-1.8 4.4.82 1.22 4.81 3.88 7.07 5.89-2.68-.66-5.23-1.36-8.17-.09a3.17 3.17 0 0 0-2.17 2.78c-.31-.13-.61-.26-.93-.38-2.7-1-4.2 2.2-3.3 4.3a16.7 16.7 0 0 0 1.54 2.67 7.82 7.82 0 0 0-.84-.07 3.15 3.15 0 0 0-1.62.53 51.78 51.78 0 0 1-3.58-9.33c-1-3.4-2.2-7.2-5.5-9.1a2.81 2.81 0 0 0-4.2 2.4c-.3 5.3 1.8 10.2 3.3 15.2.8 2.6 1.8 5.5.4 7.9a33.52 33.52 0 0 1-3.25 4.11.69.69 0 0 0-.55-.71 3.61 3.61 0 0 1-1-.31c0-.51 0-1 .06-1.39h-.25a2.16 2.16 0 0 0-2.23-1.87c-.75-2.33-.92-5.24-1.82-6.93a1.75 1.75 0 0 0-1.9-.8c-3.3 1.3-3 6.4-3.2 9.3-.3 5.4-.4 10.4 3.7 14.5a2.18 2.18 0 0 0 3 0c.11-.13.21-.26.32-.39 1.48 2.79 3.72 4.9 7 5.39a2.73 2.73 0 0 0 2.8-1.1 10.94 10.94 0 0 0 .39-1.05c4.12 3 9.54 5 13.31 2.05a1.79 1.79 0 0 0 .15-.17c2.75.06 5.36-.5 6.65-3.33a2.72 2.72 0 0 0-.4-3.2 25.72 25.72 0 0 0-10.3-5.8c-3.14-1-6.86-1.35-10-2.67 1.81-2.32 3.38-4.32 3.68-7.35a20.66 20.66 0 0 0 2.52 3.12 2.91 2.91 0 0 0 4.9-2v-.42c1.72.89 3.42 2.28 5.16 2.82 2 .6 4.4-1.5 3.6-3.6a17.87 17.87 0 0 0-.89-1.84 12.63 12.63 0 0 0 3.29 1c2.4.4 4.8-2 3.3-4.3-.94-1.54-2.93-2.84-4.66-4.2a37.58 37.58 0 0 0 5.66 1.2 2.9 2.9 0 0 0 2.6-1.5 6.63 6.63 0 0 0-.7-8.1 8.26 8.26 0 0 0-1.34-1.23 3.19 3.19 0 0 0 2.14-2.87 7.54 7.54 0 0 0-2.2-5.5 9.77 9.77 0 0 0-1.56-1.27c.39 0 .77-.07 1.16-.13 2.15-.34 2.89-3.49 1.53-5 2.47 0 3.6-3 2.49-4.82a18.41 18.41 0 0 0 3.78-.58c2.7-.7 3-4.3.8-5.8-.35-.22-1.76-.74-3.24-1.31 1-.11 2-.19 3-.29a3.3 3.3 0 0 0 3.1-2.4 4.88 4.88 0 0 0-.17-3.4c.42 0 .85 0 1.27-.1 2.3-.3 4.3-2.6 2.8-4.9a10 10 0 0 0-1.5-1.82 4 4 0 0 0 1.1-3.68 5.54 5.54 0 0 0-2-3 6.43 6.43 0 0 0-1.6-.74c2.21-2.19 4.64-4 5.6-7.36a9.39 9.39 0 0 0-2.6-9.4 19.24 19.24 0 0 0-4.3-3.2 11.88 11.88 0 0 1-2.5-1.3c-.06-.1-.11-.13-.16-.13a5.13 5.13 0 0 0 .36-.57c1.88-3.13 6.98-5.43 9.78-7.83zm-57 95.79c.38 1.16.71 2.36 1.15 3.43a2.67 2.67 0 0 0-.29 1 29 29 0 0 0 .43 7.92c0 .11 0 .22-.06.33-1.21-2.42-1.16-5.21-1.16-8.15.03-.76-.13-2.8-.03-4.53zm5.57 7.93v-.77a6.71 6.71 0 0 0 .83 0 .42.42 0 0 0 .14 0l-.14.2c-.9 1.3-.1 2.9 1 3.8a15.14 15.14 0 0 0 2.54 1.57 2.77 2.77 0 0 0-1.34 2.83 6.64 6.64 0 0 1 .34 1.64c-2.22-1.78-3.1-5.86-3.33-9.27zm20.52 9.87c-1.6-.07-3.37-.44-4.13-.49a2.16 2.16 0 0 0-2.32 1.4 29.76 29.76 0 0 1-6-4.52c4.19 1.19 8.63 1.64 12.49 3.61zM1111 274.2a14.74 14.74 0 0 0-3.14 3.32 3 3 0 0 0-1.56-.15 7.22 7.22 0 0 0 .4-4.28c-.36-1.43-1.58-2.7-2.27-4.09.57-1.68 1-3.41 1.45-5.08a3.6 3.6 0 0 0 3.62-1.74c1-2.2 1.7-4.4 2.5-6.7l-.25-.07a3.47 3.47 0 0 0-3.42-4.28 3.2 3.2 0 0 0-2.53-2.33c-.16-7-.7-17.1-3.33-21.63.51-3.54.37-7.1.52-10.79.2-4.6.4-9-.5-13.6a3.07 3.07 0 0 0-1.19-2c.08-.71.16-1.42.19-2.14.2-4.2-.3-8.5-.2-12.7.2-9.1 2.3-17.9 4.5-26.7 1.2-4.8-6.2-6.8-7.3-2-2.2 8.8-4.3 17.7-4.7 26.8-.2 4.3.2 8.5.2 12.8 0 4.6-1.3 8.9-1.4 13.5a3.38 3.38 0 0 0 3 3.57c0 .77-.05 1.55-.07 2.33-.1 3.9.2 7.9-.8 11.7a4 4 0 0 0 2.2 4.48 14.57 14.57 0 0 0 .6 2.72c.3 1.5.5 3.1.7 4.7.6 6.1-.8 12 .7 18a3.39 3.39 0 0 0 1 1.77c-.13.37-.25.74-.36 1.12a3.88 3.88 0 0 0-4.08 3.61c0 2.85.56 4.9 2.59 6.59 0 .1.07.21.11.31.3.8 1.5 2.4 1.6 3.2.19 1.71-.87 3.43-.81 5.32a2.09 2.09 0 0 0-2.39 2.68 7 7 0 0 0 1.85 3.14c.11.3.2.61.3.92a1.79 1.79 0 0 0 0 2.14 5.76 5.76 0 0 1 1.17 2.74 23.1 23.1 0 0 0-1.47 4c-1 3.8 4 5.7 6.1 2.6q.4-.59.79-1.2a20.59 20.59 0 0 0 3.17-7.35c2.27-3.65 5.11-7.06 6.82-10.92 1.09-2.51-1.51-6.41-4.31-4.31zM1210.3 168.8a8.68 8.68 0 0 0-4.3 2.2 22.07 22.07 0 0 0-.49-6.31 3.15 3.15 0 0 0-5.2-1.4 35.65 35.65 0 0 0-7.7 12.8c-1.85 5-1.72 10.49-4.2 15.12-3.64 2.47-7.34 4.79-8.7 9.56-1.45 1.45-2.92 2.9-4.4 4.32a3.31 3.31 0 0 0-.94 1.59c-1.41 2.49-3.11 4.74-4.26 7.31a3.65 3.65 0 0 0 .6 4.3 8.07 8.07 0 0 0 .75.7c-.17.68-.34 1.36-.51 2-.05-.11-.09-.22-.14-.33-1-2-3.8-1.6-4.8 0a28.16 28.16 0 0 0-2.82 6.39 6.66 6.66 0 0 0-.58-.79 2.42 2.42 0 0 0-3.8.5 27.24 27.24 0 0 0-1.46 3.27 1.5 1.5 0 0 0-2-.77c-2.2 1.2-3.1 3.1-4.4 5.2-.8 1 .6 2.2 1.4 1.3s1.22-1.61 1.89-2.34c-.37 2.12-1 4.14-.69 6.44.3 2 3 1.9 3.9.5a16.09 16.09 0 0 0 .93-1.44 2.91 2.91 0 0 0 3 1.82 3.63 3.63 0 0 0 .31.38c-1.41 1.84-3.09 3.56-4.31 5.43a52.92 52.92 0 0 0-5.5 12.1 2.59 2.59 0 0 0 .07 1.89c-1.28 2.74-2.53 5.47-3.87 8.21-1.5 3-2.7 6.5-.8 9.6a3.34 3.34 0 0 0 1.57 1.3 42.72 42.72 0 0 0-2.67 8.7c-.41 2-.25 5.17-.44 8.15a2.46 2.46 0 0 0-1.86 1.55 30.18 30.18 0 0 0-1.9 7.3 2.53 2.53 0 0 0 3 2.37c-.17 1-.38 2-.59 2.93a2.28 2.28 0 0 0 1.6 2.8c2.4.7 3.7-.2 5-2.3A2.4 2.4 0 0 0 1149 308a22.29 22.29 0 0 0 .15-5.44 36.54 36.54 0 0 0 1.51-8.05c.9-8.3 4.6-15.7 8.9-22.7 1.49-2.54-1.47-5.38-3.77-4.31 1.29-2.71 2.38-5.52 3.67-8.19v-.12l.05-.08a3.16 3.16 0 0 0 0-2.72 39.23 39.23 0 0 1 5.46-9c2.4-2.9 5-5.6 5.7-9.5a4 4 0 0 0-1.08-3.41c.13-.26.28-.52.42-.78a2.72 2.72 0 0 0 2.76-1.31 23.77 23.77 0 0 0 2.46-5.89 32.56 32.56 0 0 0 3.82-4.7 2.72 2.72 0 0 0 .92-.92c2.4-3.9 2.7-8.1 4-12.4a15 15 0 0 1 1.71-3.69l2.85-2.84q1.72-1.63 3.34-3.35l1.71-1.71-.06-.06a3.54 3.54 0 0 0 .85-1.48 23.7 23.7 0 0 0 6.7-6.46c0-.08.08-.16.12-.24a17.08 17.08 0 0 1 3-2.26 3.64 3.64 0 0 0 1.58-3.65 26.64 26.64 0 0 1 4.13-5.73 3.78 3.78 0 0 0 3.49-1.52c.3-.5.7-.9 1-1.4 2.11-2.89-1.39-5.79-4.09-5.29zm-10.35 5.92a2.65 2.65 0 0 0 1.6 1.53c-1.35 1.67-3.1 3.73-3.55 5.79l-.83.74a36.87 36.87 0 0 1 2.78-8.06zM1083 153.1l-.9 1a3 3 0 0 0-2.7 1.16 89.17 89.17 0 0 0-8.35 12.07 4 4 0 0 0-2.35 1.53c-1.94 2.72-2.49 5.8-2.88 9a2.94 2.94 0 0 0-.15 1.29c-.06.48-.11 1-.17 1.46s-.11.95-.16 1.42a3.43 3.43 0 0 0-4.54 3.38v5.6a3.29 3.29 0 0 0-2.89 3.3h-.11c.06 2.75.14 5.51.18 8.25-1.81.19-3.53 1.44-3.28 3.55.43 3.27.74 6.55 1 9.83a3.44 3.44 0 0 0-.69 2.17 104.37 104.37 0 0 0 1.5 20.14c0 1.32 0 2.64.1 4a3.35 3.35 0 0 0 1.66 2.86q.05 3.82-.06 7.64a3 3 0 0 0 .27 1.34q-.06.67-.09 1.34a2.36 2.36 0 0 0-1.07 1.72l-.08.52h-.12c0 .53-.07 1.09-.13 1.66-.2 1.3-.41 2.61-.64 3.9a5.3 5.3 0 0 0-1-.35c-1.4-.3-3.3.4-3.5 2-.19 1.34-.26 2.78-.33 4.24a2.77 2.77 0 0 0-3 2.56 60.34 60.34 0 0 0 .4 10.4 2.1 2.1 0 0 0 .95 1.51c0 .34 0 .67.06 1a2.06 2.06 0 0 0-1.21 2 23.75 23.75 0 0 0 .44 4.46 1.53 1.53 0 0 0-1 1.34h-.32c-.1 3.3-.3 6.5-.4 9.7a2 2 0 0 0 1.78 2c.62 3.85 1.47 7.65 2.42 11.19.2 1.3 2.6.7 2.2-.9a115.57 115.57 0 0 1-1.7-11.8c0-.32-.08-.64-.13-1a19.28 19.28 0 0 0 1.18-4.3 2.35 2.35 0 0 0 1.94-2.24v-.4c0-4.5-.11-9-.44-13.42a16.8 16.8 0 0 0 1.61-5.06 2.46 2.46 0 0 0 2.43-1.41l.07-.17a3 3 0 0 0 4.43-1.73c2.1-7 4.3-14.1 2.5-21.4a2.6 2.6 0 0 0-.45-.93 85.65 85.65 0 0 0 1-9c0-.45 0-.89.07-1.34s0-.63 0-.95v-.1a3 3 0 0 0-1.73-2.82q-.35-6.54-1.17-13v-.25a3.09 3.09 0 0 0 .4-1c.4-2.16.68-4.31.89-6.46a2.84 2.84 0 0 0 1.71-2.24c.54-3.82.92-7.66 1.18-11.51a3.71 3.71 0 0 0 2.22-2.19c1.5-4.7 1.8-9.5 2.4-14.3.17-1.76.25-3.72.48-5.66l.09-.15.15-.34a21.51 21.51 0 0 0 1.27-2.8 78.34 78.34 0 0 1 4.8-8.6c.06-.06.12-.09.18-.16 3-3.1 5.9-6.3 8.7-9.5 3.08-3.45-1.92-8.45-4.92-5.05zm-30.08 114.54zM1278.2 193.2c2.4-4.3 6.2-7.6 9.2-11.5 2.7-3.3-1.9-8.2-4.8-4.8-1.44 1.72-3 3.38-4.47 5.07a2.22 2.22 0 0 0-.43-2.47c-1.9-2.1 1.2-10.3 1.7-12.8.83-3.59 1.54-7.17 2.36-10.74.65-2 1.23-4 1.84-6.06 1-3.34 2.63-6.69 2.89-10.22 3.9-5.69 5.83-12.49 7.69-19.14l.33-.15c3.3-1.7 5.6-6 7.6-9 3.5-5.1 7.8-9.8 11.6-14.6 5.1-6.4 10-12.8 15.3-19 5-5.9 9.5-12.3 15.4-17.4 2.9-2.5-.9-7.3-4-5.2-5.8 3.7-9.6 9.8-13.9 15-5.4 6.4-10.6 12.9-15.9 19.4-4.4 5.5-9.4 10.9-13.5 16.6-.93 1.32-1.93 3.21-3.05 4.86a3.85 3.85 0 0 0-5.15 2.24c-2.3 7.79-4.06 15.42-8 22.33a8.66 8.66 0 0 0-2.17 3.47 3 3 0 0 0 .87 3.23c-.53 1.94-1.3 3.84-1.82 5.69a41.34 41.34 0 0 0-4.85 14.18 3.21 3.21 0 0 0 1.83 3.44q-.31 1.53-.63 3.06c-.8 3.9-2.8 10.7.4 14a2 2 0 0 0 2.61.42 40.43 40.43 0 0 0-4.81 6.58c-1.4 2.4-2.3 5.1-3.6 7.6s-2.9 5-3.3 7.7v.2a61.4 61.4 0 0 0-6 8.53 18.33 18.33 0 0 0-3.64 5.27 3.42 3.42 0 0 0 .12 3 12.62 12.62 0 0 0-2.42 6.32c-.09 2.38 2.16 3.44 4.13 3-2.18 7.32-6.71 13.8-8.73 21.26a3.71 3.71 0 0 0 2.68 4.35c-.67 1-1.36 2-2 3.05-2.1 3.6-4.2 7.3-6.2 11a3.69 3.69 0 0 0 2.26 5.24 44.3 44.3 0 0 0-3.06 4.8c-.23.35-.47.7-.7 1.06h.08a3.55 3.55 0 0 0-.39 1.74c-3.37 4.27-6.94 8.42-9 13.61-1.3 3.3 3.2 5 5.4 3.1l.7-.6c1.38-1.24 2.69-2.69 4.08-4-2.39 4.27-5.76 8.21-6.49 13.22a3 3 0 0 0 .85 2.73c-2.51 4.89-5.38 9.59-6.75 15.07a2.41 2.41 0 0 0 .86 2.54 119.64 119.64 0 0 0-5.22 13.82c-.5 1.9 2 2.8 3.1 1.3l.15-.14.25.14.25-.63c.58-.55 1.16-1.09 1.75-1.67 1.45-.17.93-1.86-.18-2.11 1.89-4.4 3.91-8.71 5.77-13.09a15.08 15.08 0 0 0 1.53-3.77c.26-.67.53-1.34.78-2l-.25-.07.05-.23a2.28 2.28 0 0 0-.09-1.32c2.16-3.94 4.59-7.74 6.29-11.88a2.38 2.38 0 0 0-1.11-3c2.61-5 6.48-9.45 7.21-15.4.28-2-1.93-3.16-3.61-3a51 51 0 0 0 6.4-9.92l.31-.45c1.6-2.4 4.2-5.8 3.2-8.9a3.58 3.58 0 0 0-2.83-2.5c.54-.91 1.08-1.81 1.63-2.7 1.9-3.2 4.1-6.1 4.8-9.8a3.37 3.37 0 0 0-3.45-4.25c2.68-6.26 6.16-12.21 7.05-19.05.2-1.7-.4-3.6-2.3-4l-.58-.12a32.66 32.66 0 0 0 2.28-2.88 24.92 24.92 0 0 0 3.5-7.8 3.13 3.13 0 0 0-.16-1.89 19.19 19.19 0 0 1 3.76-4 3.39 3.39 0 0 0 1.16-3.9c.74-1.42 1.66-2.83 2.34-4.2 1.1-2.27 2-4.67 3.2-6.87zM1349.4 229.1c-5 .6-7.5 3.9-10.1 8-3.6 5.6-6.9 11.1-10.9 16.5-3.7 4.9-7.5 9.8-11.5 14.4-2.5 2.9-5.6 6.5-5.2 10.6 0 .12 0 .23.05.35a43.41 43.41 0 0 0-3 4.33 4.52 4.52 0 0 0-5.3 2.62c-.6 1.7-1.15 3.4-1.68 5.11a3.41 3.41 0 0 0-1.85 1.33c-1.87-.63-4.13 0-4.58 2.36-.45 2.62-.79 5.32-1.22 8a3.76 3.76 0 0 0-3.58 2.41 51.69 51.69 0 0 0-2.35 11.47c-1 3.59-1.42 7.33-2.19 11-2.32 3.81-2.9 8.25-3.55 12.62a123.39 123.39 0 0 1-4.1 18l.4.11a2.34 2.34 0 0 0 2.27 3c-.64 3.83-1.41 7.64-2.17 11.35s-3.1 9.7-.7 13.2c.6.8 2.1 1.3 2.8.4.4-.4.8-.7 1.2-1.1 2.5-.7 1.6-4.1-.5-3.3l-.55.19c-.21-3.83 2.16-10.1 2.65-12.89 1.18-7.06 2.75-14 3.11-21.23.34-1.62.67-3.24 1-4.87.65-3.34 1-6.83 2.2-10a3.27 3.27 0 0 0 1.3-1.61l.29.12a36 36 0 0 0 1.49-5.75 2.66 2.66 0 0 0 .91-1.65c.28-1.58.5-3.17.72-4.77a2.85 2.85 0 0 0 2.19-1.39c1.84 2 6.2 1 6.59-2.54.39-3.18.73-6.36 1.16-9.53a3.28 3.28 0 0 0 1.84-2.37c.09-.44.2-.88.3-1.32l.3-.08c5.7-2.1 9.8-9.8 11-15.5a4.53 4.53 0 0 0 0-2.17 23.22 23.22 0 0 1 2.23-2.43 111.35 111.35 0 0 1 9.2-7.5c2.43-1.91 1.12-5.54-1.25-6.78 2-2.51 4-5.08 6-7.62a145.42 145.42 0 0 0 8.6-12c1.2-2 2.3-4 3.5-6 .5-.7 2.4-4.3 3.1-4.4 5.37-.67 5.37-9.37-.13-8.67zM1238 163.8c.8-5.4 3.1-11 4.6-16.3 1-3.48 2.11-6.89 3.29-10.29a19.58 19.58 0 0 0 2.51-7.12l.1-.29h-.07c0-.29 0-.59.06-.89a98.15 98.15 0 0 0 4.85-14.39 4 4 0 0 0 1.06-1.61 63.56 63.56 0 0 0 2.52-9.68 72.19 72.19 0 0 0 4.51-21.83 67.26 67.26 0 0 0 2.07-13c.1-2.3-1.9-3.8-4-4a6.76 6.76 0 0 0-2.09.17c.11-3.42.5-6.84.79-10.17.06-.72.14-1.48.22-2.25a3.07 3.07 0 0 0 1.68-2.25c.19-.94.41-1.86.65-2.76 1.31-2.85 2.33-5.84 3.21-8.08V39c.14-.35.27-.69.41-1 1.7-4-5.1-6.8-7-2.9-.29.58-.56 1.18-.82 1.77-3.17-2.64-7.37 2-5.78 5.53-.11-.26-.17-.34-.21-.31a3.16 3.16 0 0 1-.19-.35 1.86 1.86 0 0 1-.2 1.06 20 20 0 0 0-.9 3.5 39.17 39.17 0 0 0-1.3 4.9 4.43 4.43 0 0 0 2 4.65c-.16 1.87-.32 3.75-.46 5.65-.3 4.2-1.9 14.2 4.1 15.4a5.46 5.46 0 0 0 .91.07 97.34 97.34 0 0 1-.92 4c-2.19 4.79-3.31 9.93-4.49 15-1.13 4.77-3.08 9.69-2.4 14.63-1.22 3.09-2.15 6.45-1 8.49-2.34 7.21-5.55 14.11-8 21.28a2.36 2.36 0 0 0 .76 2.7c-.26.87-.52 1.73-.76 2.61-1.5 5.3-3.8 10.9-4.6 16.3-.41 3.62 4.39 5.02 4.89 1.82zm19.94-93.06l-.58-.58a1.23 1.23 0 0 1 0-.26.63.63 0 0 0 0-.39c1.38.59 1.04 1.16.58 1.23zm-7.4-22.18v.12c-.46.5-1.09.14.01-.12z"/><path class="cls-1" d="M1250.4 41.74c0-.2-.1-.22 0 0zM1116.9 58.7c-.8.9-1.6 1.9-2.3 2.8a3.83 3.83 0 0 0-.87 2.65h-.15v-.11a2.89 2.89 0 0 0-.17-2c1.3-3.84 2.75-7.62 4.38-11.29a1.79 1.79 0 0 0 1-1.15 5.07 5.07 0 0 0 .3-3.2c-.2-2-3-3.3-4.1-1.1a108.19 108.19 0 0 0-6.49 16 3.06 3.06 0 0 0-.61 1.13q-1.42 4.81-2.77 9.63c-.87 2.82-1.76 5.65-2.73 8.47a2.31 2.31 0 0 0 0 1.67c-.31 1.24-.63 2.48-.93 3.73-1.15 4.69-2.93 9.44-3.76 14.27a121.89 121.89 0 0 1-4.78 14.28 3.83 3.83 0 0 0-1.46 2c-.36 1.08-.7 2.17-1 3.26-.56 1.06-1.14 2.11-1.77 3.14l.3.13c-.14.31-.27.63-.4 1a3.07 3.07 0 0 0 .07 2.48c-.16.67-.32 1.34-.47 2-.7 3.2-2.1 7.6.4 10.4 2 2.2 5.4.9 6.3-1.7 1.7-5 3.3-9.7 3.5-15a3.66 3.66 0 0 0-.07-.83c.17-.35.33-.71.49-1.06 5.27-2.91 7.11-12.24 8.39-17.4 3.6-14 10.6-27.2 16.1-40.5 1.5-3.5-4-6.6-6.4-3.7zm-3 6.55l-.73 1.67.57-2.27a4.06 4.06 0 0 0 .2.6zm-18.69 48.48H1095h.25zm-.76 20.67c.72 1.11-.13.92 0 0zM517.3 205.5a2.09 2.09 0 0 0-1.13.24 10.44 10.44 0 0 0-1.27-1.54c-1.5-1.5-4.6-.9-5 1.3a20.15 20.15 0 0 0-.35 2.73 15.87 15.87 0 0 0-1.33-1.75c-.5-4-1.4-7.9-2.29-11.81a3.31 3.31 0 0 0 0-2.48l-.07-.18h.07c-.28-.7-.54-1.4-.81-2.1s-.51-1.68-.7-2.53-.27-1.57-.39-2.36a3 3 0 0 0-1.56-2.35c-2.56-7.52-4.73-15.18-6.93-22.8a3.17 3.17 0 0 0 0-.85c-.52-4-1.27-7.88-2.09-11.77-.33-1.68-.68-3.36-1.07-5-.42-2-.84-3.93-1.23-5.92-1.5-7.9-2.3-15.8-4-23.7a3.46 3.46 0 0 0-3.2-2.71 15.18 15.18 0 0 0-1.8-2c-3.5-3.3-8.5 1.7-5.3 5.3a14.78 14.78 0 0 1 3.4 8.8 3.92 3.92 0 0 0 1.29 2.57c.4 2.53.77 5.06 1.17 7.59a4.24 4.24 0 0 0-.46 2.74 317.74 317.74 0 0 0 8.5 38.7 3.45 3.45 0 0 0 1.6 2.12c1.57 5.17 3.26 10.3 5.18 15.35.48 2.39 1.06 4.77 1.61 7.15-2.1.09-4 1.74-3.2 4.38 1.2 4.2 2.7 11.7 8 12.4a5.16 5.16 0 0 0 1.89-.11 21.11 21.11 0 0 0 4.31 5.61 3.32 3.32 0 0 0 5.24-.93c.07.17.14.34.22.5v.23h.06c.11.21.22.43.34.63 1.7 2.8 5.8.9 5.2-2.2-.42-2-1-4-1.36-6 .53.91 1 1.88 1.26 2.45 1.4 2.7 5.3.4 4-2.3-1.7-3.5-3.5-7.1-7.8-7.4zM423.5 217.4c-1-1.74-2.22-3.39-3.16-5.16q-.68-1.81-1.41-3.62c0-.17-.1-.34-.13-.52h-.07l-.33-.83a2.86 2.86 0 0 0-4-1.57c-3.33-6.17-6.27-12.58-9.33-18.93l-.12.07a3 3 0 0 0-4-1.47q-.59-1.34-1.14-2.69c-.59-1.59-1.21-3.17-1.84-4.74s-1.1-3-1.65-4.47h-.13a3.59 3.59 0 0 0-4.17-2.11c-1-3.12-2-6.23-3.17-9.24-.07-.46-.14-.93-.22-1.39 0-.25-.09-.5-.14-.76a2.22 2.22 0 0 0 0-.24v-.2h.39c-.09-.91-.18-1.85-.26-2.8a28.86 28.86 0 0 0-.32-6.67 23.67 23.67 0 0 1 1.51-8.59 1 1 0 0 0 .77-1.24l-.07-.25.08-.15h-.12c-.06-.21-.12-.42-.18-.6a1.16 1.16 0 0 0-1.9-.5 15.92 15.92 0 0 0-2.81 5.78 2.13 2.13 0 0 0-3.19 1.22 18.21 18.21 0 0 0-.54 4.87 3 3 0 0 0-4.06 1.93c-.9 4.7-1.2 15 4 17.5a3.73 3.73 0 0 0 2.48.2c.11.41.23.81.34 1.22a49.36 49.36 0 0 0 1.08 5.78 2.36 2.36 0 0 0 2.15 1.92c2.35 7.13 5 14.1 10.15 20a2.68 2.68 0 0 0 3.25.85 44.59 44.59 0 0 0 3.65 4.45 3.46 3.46 0 0 0 1.2.82 109.86 109.86 0 0 0 10.3 17.08 3.79 3.79 0 0 0 2.53 1.49c1.26 2.32 2.49 4.65 3.87 6.91 2.4 3.8 8.1.4 6-3.5-1.79-3.25-3.39-6.65-5.29-9.85zM375 226.29a17.88 17.88 0 0 0-1.33-5.47 31 31 0 0 0-3.47-9.4c-.24-8.19-2.12-16.12-4.36-24 1.5-6.61 1.83-13.37 2.26-20.13 1.63-3.67 1.76-8.59 2.44-11.91 1-4.9 5.4-12.9 1.4-17.3a3 3 0 0 0-2.16-1l-.23-.14c2.51-5.8 5.22-11.44 4.09-18.26-.6-3.9-7-3-6.9.9.3 10-6.7 18.3-7.9 28.2a2.8 2.8 0 0 0 1.57 3.1 19.52 19.52 0 0 0-1 7.3 3.66 3.66 0 0 0 1 2.26 45.21 45.21 0 0 0-.88 8 3 3 0 0 0 1.6 2.79c-.09 1.4-.2 2.8-.32 4.2a3 3 0 0 0-4 2.11 21.77 21.77 0 0 0 1.92 14.64 3.13 3.13 0 0 0 0 1.06c0 .28.08.56.12.85l-.12.05.19.46c.76 6 .78 13.1 4.27 18.18.33 1.48.72 2.94 1.18 4.37.21 1 .42 2.07.66 3.09l.32-.14c.08.17.14.34.22.51.91 2.44 1.93 4.87 3 7.32a2.84 2.84 0 0 0 4.22 1.21 1.86 1.86 0 0 0 2.21-1.74v-.58h.12zM184.8 151.9c2.5-.3 5.4-2.6 4.2-5.6a169.84 169.84 0 0 1-7-21.6q-.13-.49-.28-1a34.84 34.84 0 0 1 8.18.27c5.6.9 8.2-7.2 2.4-8.7h-.17l.07-.26q-1.26-.2-2.52-.34a91.53 91.53 0 0 0-13.86-2.2l1.08-1.16c4-4.1 8.2-8.2 10.6-13.5 1.5-3.3-.3-6.4-3.9-6.8-7.1-.7-13.8 5.6-19.2 9.5a17.59 17.59 0 0 0-4 3.68c-.88-.52-1.78-1-2.71-1.48-4.6-2.4-9.1-5.1-14.3-5.7-4.2-.5-5.5 5.1-3.2 7.7 3.53 3.82 8.43 7 13 9.45a9.27 9.27 0 0 0-1.64.45 4.79 4.79 0 0 0-2.4 2c-6.82 1.35-13.44 3.25-20.2 4.81-4.2 1-3.3 7.7 1 7.6l1.24-.06c0 .16 0 .31.06.46 1.9-.43 3.79-.89 5.68-1.35l1-.24a11.86 11.86 0 0 0-1.52 7.79c.7 3.3 5.1 3.4 4.9.5-.56-6.35 4.67-9.35 11.29-10.9a4 4 0 0 0-1 2.21c-4.1 5.69-5.9 15.12-6.94 20.59-1 5.2 5.2 7.6 8.3 3.5 3.7-5 4.9-11 7.5-16.6a25.05 25.05 0 0 1 1.63-2.82c.78.53 1.54 1.16 2 1.42a76.64 76.64 0 0 1 5.8 5.6c3.81 3.78 8.51 13.58 14.91 12.78zm-15.34-25.11c1.32-.53 2.65-1 4-1.43a40.93 40.93 0 0 1 1.35 5.73c.06.27.13.54.19.8a49.39 49.39 0 0 0-5.54-5.1zM295.4 101.63v-.33c-5.1.16-11.22-.46-17 .06 3-1.78 6.8-3.76 7.89-2.66 4 4.3 9.6-1.9 6.3-6.3-3.8-4.9-10.3-3.1-15.1-.9-1.12.5-2.2 1.07-3.27 1.65 2.35-3.35 4.68-6.71 7.07-10.05 2.7-3.8-2.6-9-6.5-6.5a32.79 32.79 0 0 0-13.29 18c-3.28-.82-6.75-2.8-9.71-3.6-6.5-1.7-13.4-2.6-19.5-5.6l-.12.29c-.39-.13-.78-.27-1.18-.39-5.1-1.5-8.6 6.3-3.7 8.7 5.5 2.71 11.32 4 17.26 5.41a5.09 5.09 0 0 1 2.14 1.49c1.3 1.7-.3 2.5-1.4 4.2a3.27 3.27 0 0 0-.2.36 105.17 105.17 0 0 0-20.2 8.14c-3.5 1.8-1.1 7.6 2.7 6.4 7.1-2.37 14.05-5 21.2-7.15 4 1.91 9.07.6 13.69-.23-.18 1.78-.09 3.66-.09 5.58 0 6.4-.5 12.5 1.4 18.7 1.3 4.2 7.5 4.4 8.7 0 1-3.6.9-7.2 1.5-10.9.7-4.3 2.4-8.4 3.4-12.7.1-.45.17-.88.23-1.3h.17c4.23-.07 8.41-.91 12.62-1.31 1.63.09 3.21.15 4.68.11 5.8-.2 5.99-8.8.31-9.17zM161.5 226.8c-10.8.3-20.4 4.4-30 8.9-5.8 2.7-14.9 6.9-14.5 14.5a4.3 4.3 0 0 0 3 4c5.68 1 11.51 1.1 17.26 1.62a65.77 65.77 0 0 0-7.26 5.08l-.83.7a100.79 100.79 0 0 0-17.54 2.26A37.64 37.64 0 0 0 97 267.8c-3.3 1.74-2 5.58.69 6.82.21 7.42 10 3.76 13.81.58a4.45 4.45 0 0 0 4.89 3l.83-.17.07.17.58-.32a24.63 24.63 0 0 0 6.19-2.58 38.93 38.93 0 0 1 13.14-1.3c3.5.18 5.38-5 2.76-7l1.24-.37a3.37 3.37 0 0 0 1.71-4.77c2.78-1.7 5.66-3.29 8.69-4.83 3.2-1.7 2.3-6.6-1-7.5-7.55-2.11-15.36-2-23.06-2.8 2.94-2.13 7.81-3.89 9.56-4.7 7.9-3.6 15.7-6.7 24.4-7.3 5-.43 5.2-8.13 0-7.93zm-51.7 46.4c-1.35 1-7.8 4-8.49 1.7 1.81-.31 3.55-1.08 5.39-1.5 1.62-.37 3.27-.67 4.92-1a3.37 3.37 0 0 0-.25.77 1.28 1.28 0 0 0-1.57.03zM203.4 241.1c-1.8-5-4.1-9.8-6.1-14.7-1.75-4.22-4.13-8.19-6-12.36 1.36-5.41-.85-10.42-2.52-15.55a47.93 47.93 0 0 1 .81-5.67 2.69 2.69 0 0 0 2-2.13c.05-.3.12-.6.17-.9v-.2c1.83-9.82 4.84-19.47 6.09-29.3.5-3.6-5.6-4.4-6.3-.9-1.67 7.81-3.4 15.68-4.89 23.56a3.13 3.13 0 0 0-1.31 1.64 60.15 60.15 0 0 0-2.28 9.7 3.05 3.05 0 0 0-.42 1.5h-.1c0 2.4 0 4.7-.1 7.1h.1a2.87 2.87 0 0 0 2.5 2.88 18.07 18.07 0 0 1 .71 3.27 2.45 2.45 0 0 0-1.61 3.35c3.4 9.2 8.8 17.7 12.5 26.9 1.9 4.8 3.6 9.7 5.5 14.5.7 1.6 1.3 3.3 2.1 4.9.54 1 1.51 2.28 2.22 3.6a1.92 1.92 0 0 0-1.52 1.4 14.56 14.56 0 0 0 0 5.1c.37 1.87 3.21 1.11 3.32-.8a2.33 2.33 0 0 0 3.38-1.3c1.2-3.6-.8-6.6-2.3-9.7-2.45-5.09-3.95-10.59-5.95-15.89zM673 29.6c-5.3 3-9 8.7-11.4 14.2a3.89 3.89 0 0 0 .07 3.14 2.58 2.58 0 0 0-4.07-.64 5.27 5.27 0 0 0-.67.69c-.26-4.94.5-10.16.57-14.79h-.11a2.18 2.18 0 0 0-3.05-1.83c.08-.91.15-1.76.17-2.47-.1-2.6-4.5-2.6-4.6.2-.19 4.76-1.32 11.67 2.28 15.55-.26 4.48-.11 8.93 1.62 13.15.49 1.22 2.11 2.31 3.4 1.75.07 3.43 0 6.86-.06 10.29-3.22 13.49-2.63 27.8-3.06 41.8-.3 3.78-.57 7.57-.77 11.36-.2 4.3 6.1 4.1 6.6 0h.1c0-.81.09-1.63.13-2.44.43-4.55.72-9.11.92-13.67.85-11.16 1.79-22.32 2-33.48a44 44 0 0 1 3.33-10.5c2.79-5.85 12.2-18.08 8.33-25.16a14.44 14.44 0 0 1 1.77-1.24c3.8-2.21.4-8.21-3.5-5.91zm-10.33 25c-.15-2.14-.33-4.28-.57-6.41a3.36 3.36 0 0 0-.3-1 3.11 3.11 0 0 0 4 1.57c-.78 1.52-1.48 2.79-1.79 3.35zM753.5 157.6c-5.3 4.7-9.4 12.5-12.2 18.9-2.6 6.2-6.8 13.5-6.8 20.4a3 3 0 0 0 1.37 2.55c-1 2.75-1.76 5.51-2.57 7.95-1.18 3.64-4.67 12-1.51 15.73-.11 1.55-.21 3.09-.34 4.63a3.73 3.73 0 0 0-.75 0c-1.85.35-2.56 2.2-2.85 4.17-2.36-9.88-4.21-19.87-4.35-30.07-.4-2.4-4.5-2.4-4.5.2 0 14.5 3.4 28.6 7 42.6.71 2.72 1.43 5.44 2.08 8.17 0 .64.08 1.28.12 1.93.62 10 1.47 19.83 2.34 29.77 0 1.41 0 2.82.05 4.23h.34c.49 3 5.16 3 5.06-.2-.3-7.3.1-14.6-.4-21.9a85.7 85.7 0 0 0-2.59-14.45c-.16-3.35-.28-6.71-.34-10.11v-1.54a2.9 2.9 0 0 0 2.71-2.06c1.46-5.92 1.57-12 2.17-17.93.28-1.86.55-3.74.93-5.57h-.18a3 3 0 0 0-.53-2.13q.77-2.7 1.72-5.41a3 3 0 0 0 2.79-2.11c.88-2.65 1.73-5.34 2.52-8a65.31 65.31 0 0 0 3.68-9.35 2.77 2.77 0 0 0-.51-2.78q.33-1 .69-1.9c1.1-2 2.2-4.09 3.32-6.12a3 3 0 0 0-1.85-4.46A40.7 40.7 0 0 1 758 162.1c3-2.7-1.5-7.2-4.5-4.5zM979.5 123.2c-9.6 10.1-19.3 21.1-22.7 35a3.93 3.93 0 0 0 .87 3.34 15.23 15.23 0 0 0-1.47 6.06 3.18 3.18 0 0 0 .47 1.78c-.14.35-.26.71-.4 1.06s-.43.72-.67 1.06l.24.1c-.11.3-.23.6-.34.9a2.8 2.8 0 0 0 .36 2.73c-.7 2.93-1.4 5.86-2.26 8.77-3.5 12.1-10.4 23-12.3 35.6-1.5 9.8-.6 19.8.6 29.6.6 4.9 1.2 13.5 7 15.1a1.73 1.73 0 0 0 1.7-.4c.5-.5 1-1.1 1.5-1.6 1.2-2.1-1.2-4.5-2.7-2.9-1.8 1.9-3-4.2-3.3-5.8-.6-3.1-.8-6.3-1.1-9.4-.7-10.1-1.3-20.2 1.5-30.1 2.7-9.5 7.9-18.1 11.2-27.4 1.25-3.55 2.17-7.2 3.15-10.81a3.26 3.26 0 0 0 .75-.79 48.54 48.54 0 0 0 5.29-12.47c1.18-2.35 2.4-4.68 3.62-7 .75-1.31 1.51-2.63 2.29-3.92l-.19-.11a3.51 3.51 0 0 0-2.57-5.11c4.11-6.52 9.43-12.34 14.77-18 3.39-3.49-2.01-8.89-5.31-5.29z"/></svg>