<svg id="Layer_1" data-name="Layer 1" xmlns="http://www.w3.org/2000/svg" viewBox="0 0 1440 712"><defs><style>.cls-1{fill:#df87a9}</style></defs><title>Artboard 1</title><path class="cls-1" d="M176.5 344h-1.26c.05-.75.08-1.54.06-2.39 0-2-3.1-2-3.2 0a20.25 20.25 0 0 1-.15 2.14c-3.81-.55-6.71-2.19-7.95-6.94a3.12 3.12 0 0 0-1.59-2 6.14 6.14 0 0 0 .19-1c.4-3.9-2.4-7.8-5.5-9.8a3.48 3.48 0 0 0-4.1.5 6.7 6.7 0 0 0-2.14 3.26 13.74 13.74 0 0 1-1.51-2.93c2.42-2.9 2.83-6.89-2.05-8.23a3.27 3.27 0 0 0-2.44.29 4.11 4.11 0 0 0-1.11-1.89l.85.2c2.2.5 4.2.3 5.9 2.2.8.9 1.3 2.1 2.1 3 1.3 1.7 4.2-.5 3-2.3-1.4-2-2.3-4.7-4.3-6.1-3.2-2.2-6.7.2-9.8-2.6-3.8-3.4-5.3-8-11.1-8.3h-.19l-.11-.09c-1-3.29-4.33-6.68-8-5.43a4.68 4.68 0 0 0-3 3.81 4.25 4.25 0 0 0-4.37 2.89c-1 2.3.1 4.5 0 6.8-.3 4.3-2.5 7.7-6.9 7.7a2.37 2.37 0 0 0-2.3 1.7c-.39 2.1.49 5.95-.14 8.5a5.57 5.57 0 0 0-4.66-.7 4.74 4.74 0 0 0-2.7 5.8c.7 2.7 3.3 5.3 5 7.4a39.07 39.07 0 0 0 6.91 6 32.57 32.57 0 0 0-5.94 2.81 2.77 2.77 0 0 0-1.2 2.9c.5 1.2 3 3.4 3.1 4.3.1 1.3-3.7 2.6-4.9 3.4a2.58 2.58 0 0 0-.9 3.4c3.4 5.8 11.9 4.3 17.5 3.7 1.1-.1 4.9-.9 5.7-.1s-1 2.9-1.5 3.8c-1.6 2.5-3.3 4.8-2.6 7.8a2.15 2.15 0 0 0 3.1 1.3 56.2 56.2 0 0 0 7.8-3.8c2.4-1.5 4.3-3.9 7.4-3.9 1.6.2 1.5-2 .1-2.1-2.4-.3-4.1.5-6.2 1.7a40.79 40.79 0 0 1-7.4 3.3c1.2-2 3.49-4.15 4-6.1a5 5 0 0 0-2.5-5.9c-4-2-14.09 1.62-19-.27 1.79-.92 3.51-1.94 4.27-3.83 1.28-3.12-.7-4.38-2.16-6.35 2.6-1.29 5.42-2.08 7.76-3.95 1.4-1.1.7-3.2-.5-4.1-3.3-2.4-6.7-4.5-9.3-7.6-1-1.2-5.6-5.9-1.7-3a2.59 2.59 0 0 0 3.1-.4c3.28-3.19 1.85-7.18 2-11.11 3.34-.52 5.55-2 7.13-5.79a17.42 17.42 0 0 0 1.6-5.5 12.28 12.28 0 0 0-.2-2.7c-.2-1-.3-2.1-.4-3.1.19-.07.37-.11.55-.16a4.68 4.68 0 0 0 1 2.16l.12.13a5.7 5.7 0 0 0 5.48 4.25 5.79 5.79 0 0 0 3.79 4.77 10.85 10.85 0 0 0 3.18 5.18c.67 1.3 1.38 2.58 2.12 3.82a2 2 0 0 0 3 .54 6.78 6.78 0 0 0 5.78 3.06h.36c1.62 4.53 5.13 8.67 9.18 10.28a14.06 14.06 0 0 0 1 1.48 1 1 0 0 0-.81 1.06 10.73 10.73 0 0 1-.6 3.5c-.28.94.84 1.51 1.56 1.08q.29.77.64 1.52c.8 1.5 3.1.2 2.3-1.4a16.71 16.71 0 0 1-1.14-3c.1-.23.21-.45.33-.67a8.13 8.13 0 0 0 2.73 1.08 9.44 9.44 0 0 1 .88 4.78c-.1.6 1.1.6 1.1-.1a9.52 9.52 0 0 0 0-2.31 15.76 15.76 0 0 0 9.1 5c-.71 1.31-1.55 2.65-2.48 4.18-2.48 4.13-4.54 8.58-7.49 12.46l-.11-.06c-2.2-1-4 2.1-1.9 3.2.5.3 1 .5 1.5.8a2 2 0 0 0 2.2-.3c3.9-4.8 6.4-10.4 9.7-15.6a37.08 37.08 0 0 0 2.33-4.14q1.5.12 3.07.14c4.43.07 4.43-6.93-.07-7.03zm-43.74-37.09a10.8 10.8 0 0 0-.61-1.41 7.4 7.4 0 0 1 2.31 1.62 3.89 3.89 0 0 0-1.7-.21zm6.24 7a7.22 7.22 0 0 0-2.31 2.74 4.13 4.13 0 0 1-1.59-1.74s0-.1-.06-.15a5.49 5.49 0 0 0 2.66-3.66 12.19 12.19 0 0 0 2.36 2.38 2.16 2.16 0 0 0-1.06.42zM96.48 231.52a8.42 8.42 0 0 0-.52-1.64c1.58-3 .88-7-1.05-9.88-2.2-3.2-6.4-4.9-10.1-3.2s-3.9 5.8-.9 8.2c1.89 1.49 4.46 1 5.28-1.35a3.9 3.9 0 0 0 .52.25 6.59 6.59 0 0 0 .69 1.71c-.23 0-.45-.09-.69-.11-2.2-.2-3.4 2.2-3.1 4a5.46 5.46 0 0 0 1 2.28 6.94 6.94 0 0 0-.24 3.6 3.16 3.16 0 0 0-.85 2.82 7.83 7.83 0 0 0 1.05 2.71c.45 1.37.51 2.7-2 .83a13.87 13.87 0 0 0-1.26-5.24c-1.19-2.5-5.31-1.34-5.31 1.26a7.32 7.32 0 0 0-1.8-1.36 2.86 2.86 0 0 0-3.7 1 8.64 8.64 0 0 0-.39 9.4 4.51 4.51 0 0 1-2.21-3.2h-.07v-.3c-.3-3.1-5.1-3.2-4.9 0a10.73 10.73 0 0 0 .41 2.27 8.59 8.59 0 0 1-.1 4 8.84 8.84 0 0 0-1.8-3.63 2.15 2.15 0 0 0-3.38.31 5.65 5.65 0 0 0-.72-.41 1.8 1.8 0 0 0-2.2.3 5.6 5.6 0 0 0-1.23 5s-.05.09-.07.14c-.8 2.5-.4 4.4 1.9 5.6a1.55 1.55 0 0 0 1.78-.08 13 13 0 0 0 1.12.88 2.12 2.12 0 0 0 2.5-.3 9.12 9.12 0 0 0 1.48-2.21 4.19 4.19 0 0 0 1.52-.19 5.13 5.13 0 0 0 3.34-3.33 6.3 6.3 0 0 0 8.06-.47 7.52 7.52 0 0 0 1.19-1.23 6.12 6.12 0 0 0 4-1.92 6.26 6.26 0 0 0 4 .65c3.31-.49 5-2.37 5.64-4.73 1.8-.31 3.45-1.67 4.26-4.37.56-2.11.08-5.48-1.15-8.06zM26.5 229.4c-.4 0-.8.1-1.2.1a3 3 0 0 0-2.7 2c-.52 2.8.27 6 .08 9-2-1.76-5.3 1.14-3.88 3.52.12.2.24.38.36.55h-.06a5.93 5.93 0 0 1 .89 3.94c-1.46-3.78-4.23-7-7.69-7.54a2.46 2.46 0 0 0-2.73 1.34 4.27 4.27 0 0 0-3.87-1.21 1.75 1.75 0 0 0-1.7 1.7c0 5.5 1.5 10.9 5.2 15.1 2.8 3.1 7 6.7 10.2 2.4a9 9 0 0 0 1.68-4.77c3-1.26 4.26-4.69 4.17-8.1a2.4 2.4 0 0 0 1.55-1.14c1.79-4 .62-7.82 1-11.88 2.12-1.41 1.69-5.35-1.3-5.01zm-10.79 28.78c-4.81-2.74-7.44-7.39-8.19-12.76a14.57 14.57 0 0 1 1.18 4.28 1.52 1.52 0 0 0 1.9 1.1l.69-.31c1.27 2.43 3.14 4.49 5.45 5.23a4.43 4.43 0 0 1-1.03 2.46zM62.64 141.87a6.73 6.73 0 0 0 .66 5.63 2.56 2.56 0 0 0 2.8 1.1c3.53-.54 4.86-2.23 4.82-4.19a2.15 2.15 0 0 0 .78.59c3.81 1.58 5.7-1 5.68-4 1 0 2.16.33 3.32.49 1 .3 1.6-1.7.2-1.9s-2.77-.6-3.88-.79a6.21 6.21 0 0 0-2.52-3.41c-3.13-2-6.68-.7-9.14 1.83a9 9 0 0 0-1.66-.63c-4.6-1.2-6.9 2.5-11.1 2.7-1.45 0-2.9-.14-4.27-.16a13.36 13.36 0 0 0-5.33-4.41 3 3 0 0 0-.57-.72c-5.3-4.7-9.5-.2-11.6 5-.38.91-.71 1.76-1.08 2.57A8.27 8.27 0 0 0 20.8 144c-3 3.4-3.8 9 1.7 10.3 3.86.83 7.21-2.48 9.51-5.28a3 3 0 0 0 3.59-2.12c.3-2.1.4-5.5 2.4-6.7 1.8-1.17 4.09 1.14 5.11 1.17a7.1 7.1 0 0 0-.41.63c-1.8 3.1 2.2 5.8 4.7 3.6a6.64 6.64 0 0 0 .84-.83c.78-.46 3.92.23 4.66.23a10 10 0 0 0 5.1-1.1c1.73-.96 2.55-2.36 4.64-2.03zm6.56-2.07c1.2-.07 2.4-.2 3.6-.3a8.52 8.52 0 0 0-2.16 3.41A8.78 8.78 0 0 0 69 140a1.07 1.07 0 0 1 .2-.2zM233.5 231.6c2.85 1.26 4.81.33 5.83-1.44a7.31 7.31 0 0 0 4.67-2.76 8.29 8.29 0 0 0 .89-1.52 32.71 32.71 0 0 1 7.61 4c.9.8 2.1-.5 1.3-1.5a23.89 23.89 0 0 0-8-5.7c.06-.3.11-.6.15-.9a38.89 38.89 0 0 0 .79-4.78c1.38-1.15 3-3.83 4.81-4a3.39 3.39 0 1 0-.9-6.7c-2.7.4-4.8 2.3-6.6 4.2-.4.4-2 2-1.1 1.4-.78.59-1.47.61-2.06 1.54-3.25-2.64-8.05-2.78-10.54 1.76-2.55 4.7-2.45 13.9 3.15 16.4zm2.4-14.7c1.8-.8 3 1.6 3.4 2.8a11 11 0 0 1 .36 2.4 3.4 3.4 0 0 0-.74.49 5.32 5.32 0 0 0-4.3-2.41c.16-1.59.59-2.95 1.28-3.28zM305.2 199c5 3.39 8.83-.05 10.4-4.59a9.78 9.78 0 0 0 3.7-.41c4.7-1.36 7.44-4.91 9.24-9.07a50.29 50.29 0 0 0 3.16 4.77 7.06 7.06 0 0 0 7.5 1.1c5.9-2.6 5.9-11 7.1-16.3 1-4.2-5.5-6-6.5-1.8-.5 2.2-.7 4.4-1.2 6.6-.4 1.9-.9 6.4-3.3 4.9-1.5-1-2.3-3.8-3.5-5.1a6.36 6.36 0 0 0-4.9-2.3 3.34 3.34 0 0 0-3.1 2.3 18.8 18.8 0 0 1-2.5 6.2 16.52 16.52 0 0 1-2.69 2.11A14.67 14.67 0 0 0 316 187c0-.12-.06-.24-.1-.35a2.89 2.89 0 0 0-2.32-2 7.92 7.92 0 0 0-1-.87 2.55 2.55 0 0 0-2.4 0c-4.48 2.02-10.68 11.42-4.98 15.22zM618.3 513.5a17.37 17.37 0 0 1-14.9 3.3c-4.5-1.2-7.8-5.4-11.6-8a3 3 0 0 0-3.6.5c-2.8 2.2-4 9.7-8 9-3.6-.6-5.6-7.2-6.9-10-.7-1.5-2.6-1.6-3.9-1-.54.27-2.55 1.69-2.56 2.1-.22-.46-1-2.54-1.3-3.56v-.44h-.09c-1.2-3.6-6.1-2.1-5.6 1.5.4 1.2 0 1.9-1.4 2.2a8.08 8.08 0 0 1-.7-2.2c-.12-.51-.2-1-.27-1.53a8.42 8.42 0 0 0-.33-3.07c-.9-3-6.1-2.6-5.7.8.08.89.17 1.86.31 2.87-.46 1.59-3.18 0-3.81-.77a10 10 0 0 1-1.5-3.7c-.6-2.1-.9-4.2-1.4-6.4s-3.4-2.7-4.9-1.3c-2.2 2.1-4.4 7-7.9 6.5-2.79-.4-4.59-3.28-5.39-5.77a9.33 9.33 0 0 0 .09-6.73 2.92 2.92 0 0 0-4.1-1.7c-3 1.27-3.26 4.43-2.39 7.75a2.32 2.32 0 0 1-1.51-.55 4.17 4.17 0 0 1-1.25-2.28 5.53 5.53 0 0 0 .65-.42c3.7-2.7 2.4-8.3-.7-10.9a2.42 2.42 0 0 0-3.8.5 10.49 10.49 0 0 0-1.63 3.77 17.63 17.63 0 0 1-.47-3.27c-.06-.66.07-2.88.2-4.73a3.57 3.57 0 0 0 .72-.42l1.58-.45c1.8.1 1.8-2.9-.1-3v-.4a1.59 1.59 0 0 0-1.2-1.5c-6.8-2.2-4.8 14.7-3.4 17.5a7.59 7.59 0 0 0 2.64 3c.65 3.19 2.2 6.13 4.56 7.74a5.94 5.94 0 0 0 6 .83 16.54 16.54 0 0 0 3.42 4.37c2.9 2.2 6.8 3.4 10.3 1.9a11.34 11.34 0 0 0 4.06-3.23c1 4 2.55 7.85 6.44 9.53a7.5 7.5 0 0 0 6.37-.08 6.72 6.72 0 0 0 4.63 3.88 5.36 5.36 0 0 0 5.49-1.54 5.38 5.38 0 0 0 1.41 1c2.42 1.21 3.7.27 5-.9 2 4.32 4.59 8.93 9.46 9.9a9.11 9.11 0 0 0 7.6-2c2-1.7 2.41-4.71 3.81-6.8 4.55 3.44 8.1 7.28 14.39 7.9a23.18 23.18 0 0 0 17.5-5.4c2.87-2.5-1.43-6.8-4.33-4.3zM1057.1 433.2c-3.8-.2-7.8-.7-11.4.9-3.4 1.5-5.3 6.8-8.9 6.7-2.1 0-3.9-2-5.8-3a38.28 38.28 0 0 0-5.6-2.2 15.56 15.56 0 0 0-6-1.1 10.54 10.54 0 0 0-3.59 1.17 14.36 14.36 0 0 0-9.21-15.07c-5-1.79-9.19-.2-12.52 2.82-.06-.14-.11-.28-.18-.42a11.32 11.32 0 0 0-4.19-4.59l.89-.71c3.1-2.5-1.1-8-4.3-5.6a48.94 48.94 0 0 1-8.3 4.9q-.53-.42-1.05-.79c-2.61-1.77-5.64-3.1-8.69-2.35-1.66-3.21-4.12-5.86-6.61-6.55a7.6 7.6 0 0 0-8.48 3 7 7 0 0 0-4.32 1.81c-7.3 6.2-1.6 26 9.5 23 3.14-.86 6.22-3.66 8.3-7.07a5.75 5.75 0 0 0 1.85-1.21 23.53 23.53 0 0 0 8.79-1.49c.3.36.6.75.9 1.16a20.83 20.83 0 0 0 1.61 9.49c1 2.2 4.5 2 5.5 0 1.86-3.53 1.16-7.51-.72-11.11a2.77 2.77 0 0 1 .52-1c1.2-1.4 2.7.1 3.4 1.6 1.2 2.4.3 5.2-1 7.3h.08c-.13.29-.26.58-.38.86-1.3 3.1 3.7 5 5.4 2.3a17 17 0 0 0 1.81-4.18c2.15-4 5.51-7.81 10.29-6.32 5.5 1.7 7.2 7.9 5.5 12.9-.6 1.8 1.3 3.2 2.9 2.9 2.5-.5 4.4-2.2 7-2.4s5.2.8 7.5 1.8c2.9 1.2 6 5.3 9.4 4.9 2.7-.4 4.7-3.3 6.2-5.2 3.8-4.6 8.2-4.5 13.8-4.5a1.35 1.35 0 1 0 .1-2.65zM1045.3 680.8c4.6-4.3.4-13-5.9-12.2a12.35 12.35 0 0 0-3.87 1.31 8 8 0 0 0-4.53-4.51c-4-1.54-7 .29-8.61 3.22a5.22 5.22 0 0 0-2.89.88 7.73 7.73 0 0 0-3.22 5.23 7.85 7.85 0 0 0-2.88.87c-5.4 2.9-5.5 11.8-5.6 17.1-.1 4.7.6 12.3 6.1 13.8a5.86 5.86 0 0 0 6.66-2.11 8.06 8.06 0 0 0 5.54 2.51 6.73 6.73 0 0 0 6.61-4.29c5.08 1 9.92-2.69 10.93-8.53 2.71-1.68 3-7 1.35-10.39a31.83 31.83 0 0 0-8.48-10.05 13.3 13.3 0 0 1 2-1.15c4.2-1.6 9.49 4.19 6.11 8.29.06.05.43.22.68.02zm-6 7.28c.88.88-.71.45 0 0zm-1.38-2c.32.4.65 1.05 1 1.56a3 3 0 0 0-2.12 3.14c.28 3.53-1.34 7-4.54 4.23l-.06-.13h-.05c-.21-.19-.43-.4-.65-.64-2.7-2.9-7.2.8-5.4 4.1-.4 1.8-1 2-1.8.5-.3-.5-.6-.9-.9-1.4a9.86 9.86 0 0 1-.65-1.5 13.65 13.65 0 0 0-.25-2.1l-.33.09c-1-4.05-7.26-2.26-6.37 1.91.5 2.2-.2 6.6-1.4 2.3a20 20 0 0 1-.5-6c.1-1.8.4-3.7.6-5.5.1-1.2 0-2.8.6-3.9a3 3 0 0 1 2-1.49 7.78 7.78 0 0 0 4.53 4.49 2.78 2.78 0 0 0 3.31-1.26 3.18 3.18 0 0 0 3.19.56 27.16 27.16 0 0 0 6-2.64l.35.34c1.12 1.16 2.42 2.16 3.42 3.36zM1134.4 597.6c-2.27-.16-4.08 1.08-5.48 2.89-1.41-1.62-3.06-3.16-4.72-4.79-3.5-3.5-9 2-5.5 5.5 1.58 1.58 4.53 3.62 5.86 6a3.8 3.8 0 0 0-.66 1.23 5.4 5.4 0 0 1-2.66 3.22 12.39 12.39 0 0 0-1.08-2.56c-.53-3.89-4.25-7-8.26-5.66a7.26 7.26 0 0 0-2.06 1.09 3.18 3.18 0 0 0-1.44.83c-.7-1.33-1.77-1.63-3.3-1.82-1-.1-1.7.8-2.1 1.6-2.3 5.6-4.2 20.3 5.4 20a10.25 10.25 0 0 0 5.85-2.18h.35a7.69 7.69 0 0 0 5.76-3.94 14.17 14.17 0 0 0 7.24-3.55 7.37 7.37 0 0 0 7.2.69c4-1.6 6-5.8 6.1-10 .1-4.05-2.1-8.25-6.5-8.55zm-28.2 19.9a14.15 14.15 0 0 1-.44-4.68 2.63 2.63 0 0 0 .51.44 12.36 12.36 0 0 0 .23 1.93 12.53 12.53 0 0 0 1.87 4.48c-1.05.2-1.7-.51-2.17-2.17zM1070 232.8a12.65 12.65 0 0 0-1.19 1.11 9 9 0 0 0-.61-2.81 3.33 3.33 0 0 0-4-2.2 7.87 7.87 0 0 0-4.2 2.87 2.85 2.85 0 0 0-3.7.93 52.83 52.83 0 0 0-5.6 9.8 3 3 0 0 0 4.1 4.1 4.27 4.27 0 0 0 1.43-1.22 2.69 2.69 0 0 0 3.17-1.58h.18c0-.07 0-.14.06-.21a1.79 1.79 0 0 0 1.84-.49c.22-.25.44-.53.65-.8a4 4 0 0 0 2 1.7c4.5 1.4 7.6-4.2 10.5-6.5 3.47-2.6-1.33-7.4-4.63-4.7zm-4.89 4.74c-.24.08-.3 0 0 0zM1194.4 283.8c9.3-2 18.9-2.4 28-5.3a1.44 1.44 0 0 0-.7-2.8c-7.85 1.54-15.77 2.27-23.7 3.2 2.24-3 5.5-5.19 8.7-7.2 4.1-2.5 8.3-6.1 13.1-7 2.71-.48 2.37-3.92.4-5a1.17 1.17 0 0 0-.8-.54c-3.2-.5-5.3-5.1-6.5-7.7a31.15 31.15 0 0 1-2.72-7.08c2.53 2.68 5.31 5.29 9 5.58a2.46 2.46 0 0 0 2.4-1.8 24.42 24.42 0 0 0 .9-4.7c.2-1.7-.3-3.4 1.9-3a2.51 2.51 0 0 0 2.61-1 11.45 11.45 0 0 0 1.29 5.17 1.36 1.36 0 1 0 2.4-1.3c-1.77-3.44-.49-9.61 2-13 1.43 2.43.89 7.18 1.23 9.5a2.14 2.14 0 0 0 1.9 1.5c.4 0 .8.1 1.2.1 2.2.2 2.7-3.5.5-3.8-.66-3.87-.45-8.72-4.15-10.89a1.66 1.66 0 0 0-1.9.2 14.84 14.84 0 0 0-3.22 5.4 17.46 17.46 0 0 1 1.82-10.5c2.6-4.8 5-.1 8.8-1.2 1.7-.5 2.6-1.8 4-2.7 2.33-1.61 4.85-1.66 7.47-1.52a11.19 11.19 0 0 1 2.83 3.82c.88 2.19.83 3.93 2 5.74a1.77 1.77 0 0 0-.76.26c-2 1.2-2.7 3-4.3 4.3-1.7 1.5-2.6.6-4.8 0a5.46 5.46 0 0 0-1.8-.6c-3.5.1-4.1 3.6-2.2 5.8.4.6 1.6-.3 1.1-1.1.6-.3 1.1-.7 1.7-1 .4.3.7.6 1.1.9.5.1 1 .6 1.5.7a4.16 4.16 0 0 0 3.1.1c2.37-.76 3.53-3.39 5.4-5 1.62 1.51 2.67 3.54 4.8 4.56 2.3 1.2 4.8 1.1 7.3.9 2.9-.2 3-4.5 0-4.5s-5.1.2-7.4-2.1a21.63 21.63 0 0 0-2.56-2.41 1 1 0 0 0 .26-1.39c-1.7-2.4-1.1-5-2.3-7.5a9 9 0 0 0-.85-1.46 20.84 20.84 0 0 1 5 0c2.5.4 2.6 3.1 3.8 5.1a2.6 2.6 0 0 0 2.5 1.36l-.4.64c-1.2 2.2 2.2 4.2 3.6 2a44 44 0 0 1 4.84-6.89c.51.83 1 1.72 1.56 2.69 1.7 3 6.2.3 4.6-2.7q-.87-1.66-1.8-3.13c.17-.06.33-.12.5-.17 4.1-1.1 4.3 4.3 7.1 6.4 2.2 1.7 4.8 1.7 7.4 1.8 2.8.1 4.5.2 5.9 2.7.8 1.3 1.2 2.6 2.1 3.9 1.8 2.4 5.8 0 4-2.3-2.4-3.1-2.6-6.9-6.8-8.2-2.7-.8-5.8.2-8.4-.6-3.2-1.1-3.4-4.1-5.1-6.3-2.63-3.48-6-2.9-9.29-.74a14.65 14.65 0 0 0-12.25-5.22c-.72-3.34-2.17-5.88-6-7.14s-8.5-.5-11 2.7c-2.34 2.94-2 6.41-.21 9.36a14.9 14.9 0 0 0-2.19.44c-2.9.9-5 4.3-7.8 4.1-2-.2-2.9-1.3-5.1-.3a9.19 9.19 0 0 0-4.2 4.7 21.94 21.94 0 0 0-1.7 13.6 1.53 1.53 0 0 0 2.41.82c-.11.53-.21 1.06-.27 1.6a2.68 2.68 0 0 0-1.43-1.12c-7.42-2.59-7.47 3.82-8.37 8.91-2.59-1.17-5-4.09-6.83-5.71a2.09 2.09 0 0 0-3.2.4c-2.6 3.6.5 9.8 2.2 13.2 1.33 2.59 3.25 6 5.86 8-4.83 1.85-9.32 5.48-13.46 8.3-4.6 3.2-8.7 6.8-10.3 12.3a2.29 2.29 0 0 0 2.68 2.86zm77-68.26a44.27 44.27 0 0 0-3.07 3.57 3 3 0 0 0-.2-.41c-1.47-2.34-2-5.35-4.53-6.79a10.41 10.41 0 0 1 7.76 3.63zm-18.7-12.24c4.4-.4 5.7 2.4 6 6.1a2.87 2.87 0 0 0 .76 1.74c-1.41.08-2.84.36-4.16.46-1.72.09-3.46 0-5.21 0-2.19-3.31-2.54-7.75 2.61-8.3z"/><path class="cls-1" d="M1239.7 260.3a2.28 2.28 0 1 0 3.6-2.8c-1.9-2.1-2.3-5.3-5.1-6.7s-4.4.2-5.5 2.7c-2.4 5.3-.9 13 1.2 18.1.7 2.2 4.4 1.3 3.5-1-1.56-4-3.71-11.89-.92-15.93 1.58 1.17 2.05 4.13 3.22 5.63zM1251.4 257a6 6 0 0 0 3.3 1.6c1.6.2 3.4-.6 4.7.7 2.2 2.3 5.8-1.3 3.5-3.5a6.15 6.15 0 0 0-3.3-1.9c-1.4-.3-2.6.3-3.9.2-2.6-.2-2.6-4.5-3.6-6.6a2 2 0 0 0-1.8-1.1c-5.4 0-6.7 6.8-6.3 11.1.3 2.7 4.3 2.7 4.1.1-.08-1.26-.15-4.79 1-6.25.49 1.99.69 4.11 2.3 5.65zM1292.4 277.8a80.91 80.91 0 0 1-16.3-1.3 31.93 31.93 0 0 0-7.48-.66c1.27-1 1.65-3.1-.22-3.94l-.16-.07c.51-1.14 2.13-2.09 2.76-3a4.77 4.77 0 0 0 .9-3.2c.89-.21 1.8-.39 2.7-.53l-.1.24a2.43 2.43 0 0 0 1 2.6l.9.6c2.14 1.46 4-1.19 3-3 .4-.71.82-1.42 1.28-2.11 1.1-1.5-.4-3.6-2-3.6a37.89 37.89 0 0 0-10.6 1.7 2.42 2.42 0 0 0-1.4 3.6c.7 1.1.7.6-.2 1.5a12.55 12.55 0 0 0-2.2 2.4 6 6 0 0 0-1.1 3.4c0 2.09.89 2.89 2.67 3.79-.32.07-.65.13-1 .21s-.58.18-.86.27a1.66 1.66 0 0 0-1.44-1.17 9.42 9.42 0 0 0-2.9-.1 1.69 1.69 0 0 0-1.7 1.7c0 .54 0 1.08.08 1.61a19.5 19.5 0 0 1-7.08-.21 21.71 21.71 0 0 0-4.4-.3c-.3 0-5.5.4-5.1-.2 1.2-2-1.8-3.7-3-1.8-.3.5-.7 1.1-1 1.6a1.91 1.91 0 0 0 0 1.8c1.8 2.7 4.6 2.6 7.6 2.5 4.3-.2 8.6 1.5 12.9.9.26 0 .51-.09.76-.15a69.85 69.85 0 0 1 1.64 7.95 95.15 95.15 0 0 1 0 15.1 201.89 201.89 0 0 1-3 21.28 3.84 3.84 0 0 0-4.41-.88c-4 1.8-8 4.6-12.4 5.5a7.53 7.53 0 0 1-5.25-.62c.7-4 .31-9.27-3.85-11.08-2.1-.9-4.4-.3-5.2 2.1a13.9 13.9 0 0 0 .83 10.35 6.45 6.45 0 0 1-5 2.65 4.37 4.37 0 0 1-1.46-.27c2.77-6.13 4-13.24-2.54-14.43a3.5 3.5 0 0 0-3.4.9 15 15 0 0 0-2.28 14c-.33.55-.67 1.08-1 1.59-.6.9-2.4 3.7-4 2.8a1 1 0 0 1-.36-.35 25.54 25.54 0 0 0 .46-6.45c-.3-3.7-5.7-4.9-6.7-.9-.06.23-.12.47-.17.7s0 .07 0 .1a19.57 19.57 0 0 0-.45 6.28 12.36 12.36 0 0 1-.76 2.22 8.55 8.55 0 0 1-.71 1.35 14.5 14.5 0 0 0-.29-5 3.66 3.66 0 0 0-3.2-2.5c-6.65-.52-6.8 6.61-4 11.3a6 6 0 0 1-2.43 2.91 18.24 18.24 0 0 0-1.06-7.21 3.34 3.34 0 0 0-3-2.3c-7.67-.63-7.36 10.54-3.18 14.93a8.81 8.81 0 0 1-2.92 3.67 4.9 4.9 0 0 1-1.29.65 8.81 8.81 0 0 0-.32-3c.08-4.45-1.41-8.82-4.7-10.74a2.42 2.42 0 0 0-2.9.4c-4.24 3.28-4.2 9.52-1.58 14.07a17.29 17.29 0 0 0 0 7.13 2.06 2.06 0 0 0 2.6 1.4 7.31 7.31 0 0 0 2-1.08 8.61 8.61 0 0 0-.05.88c0 2.6 3.6 2.6 3.6.3a17 17 0 0 1 .48-3.21c5.19 0 8.75-3.55 10.69-8.1 4 .18 7.26-2.79 9.3-6.71 3.78.89 6.48-1.16 8.28-4.28 3.58 1.7 8.16 0 10.76-2.9a21.05 21.05 0 0 0 1.8-2.34 11.28 11.28 0 0 0 6.3 1.14 13.67 13.67 0 0 0 8.77-4.44 12.14 12.14 0 0 0 1.43.64c7.94 2.94 15.6-2.48 22.59-5.61-.16.77-.32 1.54-.49 2.31-4.3 19-9.4 37.9-14.2 56.8q-7.35 28.8-14.6 57.6c-4.8 19.1-9.6 38.3-12.5 57.8-.6 4.2 5.8 6 6.4 1.8 2.8-19.6 7.4-38.7 12-57.9q7.2-29.85 14.5-59.6c4.8-19.2 9.9-38.5 13.6-57.9a198 198 0 0 0 3.6-27.7 84.84 84.84 0 0 0-.3-15.1 90.5 90.5 0 0 0-2.18-9.14c1.08-.42 2.16-.85 3.28-1.16a19.21 19.21 0 0 1 8.6-.1 112.61 112.61 0 0 0 18.4 2c2.91.02 2.91-4.68-.09-4.68zm-121.21 76.55a6.34 6.34 0 0 1 .09-3.1 10 10 0 0 1 .81 2.73 4.4 4.4 0 0 0-.9.37zm13.63-8.37c.14-.22.37-.06 0 0zm30.91-18.88c-.54-.24 0-.68 0 0z"/><path class="cls-1" d="M1300.21 242.23a6.46 6.46 0 0 0-.21-.73c-1.16-3.28-3.73-3.94-6.57-3.77l-.31-.12c1-1.75-1.65-4.21-3.62-2.51a28.43 28.43 0 0 1-2.5 1.9 8.61 8.61 0 0 0-4.74 2.92c-1.24 1.51.5 3.55 2 2.82a2 2 0 0 0 1.65.28c1.48-.34 4.72-1.59 7.23-1.69a17.51 17.51 0 0 1 3.37 2.63c0 2.79-2.2 5.77-3.8 7.87a2.09 2.09 0 0 0-.31.47c-2.38-2.39-4.9-4.74-8.09-6.07-2.3-.9-4.7-1-7.1-1.6s-3.3-2.4-5.2-3.8c-6.3-4.8-12.7 1.2-14 7.4-.4 2 2.7 2.9 3.1.8.4-1.6.9-3.5 2.1-4.7 2.5-2.5 5.4-1 7.5.8 1.4 1.2 2.2 2.5 4 3.3 2.9 1.3 6.3 1.2 9.1 2.9s4.8 4.4 7 6.6c2 2.17 5.18-.63 4.09-2.89a1.9 1.9 0 0 0 .61-.51 27.22 27.22 0 0 0 4.15-6.88 25.83 25.83 0 0 1 1.65 2.58c1.49 2.75 3.08 6.1 5.61 8.14a2.38 2.38 0 0 0 2.49 1.4c.17.06.33.12.5.17a2.26 2.26 0 0 0 2.91-2.47 2.51 2.51 0 0 0 .22-.53c2.28-1.42 5.84-1.8 8.53-1.65-.25 3.8-4.83 7.82-7.55 9.75-4.5 3.3-8.8 6.4-12.5 10.6-1.6 2 1.2 4.9 3 2.9 4.8-5.2 11.3-8.1 16.2-13 3.3-3.3 6.8-8 5.4-13a2.43 2.43 0 0 0-1.7-1.7c-4.75-.88-11.51-.36-15.65 2.83-1.86-1.83-3.18-4.52-4.55-6.53a27.7 27.7 0 0 0-4.01-4.91z"/><path class="cls-1" d="M1409.3 276.3a12.94 12.94 0 0 0-3.6-4.82 9.81 9.81 0 0 0 3.1-2.68 2.93 2.93 0 0 0 0-3 18.34 18.34 0 0 0-6.23-6.22 2.32 2.32 0 0 0 2.43-.58c4.2-3.9 3-11.2 1.7-16.1a36.83 36.83 0 0 0-1.47-4.27 3.72 3.72 0 0 0 .17-1.23c-.1-3-2.8-5.4-5.3-6.7l-.51-.24c-1.24-1-2.62-1.83-4.19-2.86a1.71 1.71 0 0 0-2.59 1.08c-.75-.07-1.52-.1-2.28-.1.73-7.13-4.94-14.74-11.43-17.28a10.46 10.46 0 0 0-4.4-.73c-4.44-6.11-12.89-9.74-18.3-2.87-.47.61-.9 1.25-1.31 1.9a10.33 10.33 0 0 0-4.49 1c-3 1.5-4.5 4.24-6.13 7a4.86 4.86 0 0 0-2.37-1.1c-4.73-3.75-10.21-10.17-15.5-4.25-2.62 2.91-1.9 7.89-.81 12.12-.95 2.56-1.55 5.4-2.09 7.28-1.5 5.7-.7 11.7 1.1 17.3a21.17 21.17 0 0 0 7.15 10.27 2.56 2.56 0 0 0 0 3.63c3.7 3.9 10.2 3.7 15.1 3.7 2.77 0 5.54-.18 8.31-.19-.95 1.57-1.93 3.11-3 4.59-5.7 7.8-8.8 16.8-13.1 25.5-9.1 18.4-17.7 36.4-24.3 55.8-6.8 20-14.1 39.9-20.1 60.2a208.87 208.87 0 0 0-7.2 34.1c-1.5 12.3-2.1 24.7-4 36.9-.6 3.9 5.3 5.6 6 1.7 3.4-19 3.3-38.5 7.7-57.4s11.2-36.8 17.2-55.1c6.2-18.8 11.9-37.9 20.5-55.8 3.9-8.1 8.3-16 12-24.2 1.8-4 3.3-8 5.3-11.9s4.8-7 6.9-10.7c.31-.52.6-1 .89-1.57.4.74.77 1.69 1.31 2.87 5.7 13 20.6 24.9 35.1 25.5a2.88 2.88 0 0 0 2.7-2.1c1.26-5.46-1.1-11.33-4.32-16.77 4 2.23 8.19 3.53 12.42 2 1.24-.58 2.64-2.08 1.94-3.68zm-22.08-40.87c3.41-.68 7.3-.46 10 1s1.7.8.4 2.7a8.07 8.07 0 0 0-1.6 4.7 3 3 0 0 0 1.6 2.7c1.9 1 4.2 2.5 1.5 4.2h-.09a17.66 17.66 0 0 0-3.11-1.94c-4.1-1.9-8.9-2.2-13.3-2.8l-.55-.08a32.83 32.83 0 0 0 2.45-3.82 31.56 31.56 0 0 0 1.75-4.28 3.18 3.18 0 0 0 .95-2.38zm14.12 23.44a30.06 30.06 0 0 0-3.74-1.62q.8-.11 1.58-.26c.68.61 1.4 1.24 2.16 1.88zm-9-6.69a24.28 24.28 0 0 0-2.47.63c.17-.17.35-.33.51-.51a2.6 2.6 0 0 0 .42-.67 15.62 15.62 0 0 1 1.56.54zm-17.24-17.58c1.79-5.18 3.22-10.45 1.37-15.73a2.3 2.3 0 0 0 .93-2.47 13.53 13.53 0 0 0-.58-1.93 10.1 10.1 0 0 1 2.58 1.23c4.31 2.87 7.4 8.25 6.25 13.37a20.48 20.48 0 0 0-5.95 2.13 2.94 2.94 0 0 0-.92.84 37 37 0 0 0-3.93 3.42c.08-.29.15-.58.25-.86zm2.5 5.6c.78-.74 1.76-1.79 2.8-2.74l.21.12c-1.07 2.64-2.9 5-4.44 7.44a18.79 18.79 0 0 0-3-.12 36.28 36.28 0 0 1 4.43-4.7zm-3.59 9.2a11.41 11.41 0 0 0-.36 1.43 14.53 14.53 0 0 1-1.56-.8 6 6 0 0 1 1.91-.63zm-2.61-33.2a5.15 5.15 0 0 1 .62-.75c.12.28.23.56.32.84a9.86 9.86 0 0 0-1 .39l-.15-.2c.1-.1.15-.19.21-.28zm.3 10.51a53.7 53.7 0 0 1-2.3 7.89 63.61 63.61 0 0 0-1.52 6.7 1.47 1.47 0 0 0-.36-.05c.63-2.28 1-4.69 1.38-6.95.28-1.5.66-4.3 1.35-7a1.44 1.44 0 0 0 1.45-.59zm-5.2-17.61a15.22 15.22 0 0 1 3.67 3.3 7.62 7.62 0 0 0-1 1.15c-.73-1-1.47-1.93-2.22-2.84-1.6-1.9-2.4-1.6-4.6-1.2a14.87 14.87 0 0 1-2.46.2c1.62-1.71 3.76-2.42 6.61-.61zm-3.6 5.3a1 1 0 0 0 .25-.09 14.55 14.55 0 0 0 1.55 2.19c.9 1.27 1.82 2.53 2.73 3.79-3.15 5.26-2.4 13.81-4.46 19.74-.21-1.32-.34-2.68-.45-4a1.38 1.38 0 0 0-.14-1.86c-.14-1.86-.28-3.69-.58-5.43a59.38 59.38 0 0 0-4.2-14.2 1.43 1.43 0 0 0-.08-.13 20.51 20.51 0 0 0 5.38-.01zm-3.46 31.85c-.27-.28-.79-1-1.49-2q.12-.51.22-1c.19.24.38.48.58.71a18.77 18.77 0 0 0 .69 2.29zm-2.13-15.14a49.39 49.39 0 0 1-1-5.92q.62 2.91 1 5.92zm-4.78-16l-.13.44c-1.32 2.27-1.34 5.81-.84 9.37a52.13 52.13 0 0 1-3.82-4c1.42-2.17 2.53-4.54 4.79-5.78zM1339.9 221a3.57 3.57 0 0 1 .68.14 12.78 12.78 0 0 0 1.81 1.15c.77.79 1.4 1.8 2.21 2.71a31 31 0 0 0 5.5 4.7 2 2 0 0 0 2.36-.05c.64 2.68 1.39 5 1.84 6.35a27.24 27.24 0 0 0 1.45 3.38c0 .57-.08 1.15-.14 1.73-4.63-6.13-12-14.61-14.91-7.62-1.1 2.7.9 6.5 1.9 8.8l.08.17a11 11 0 0 0-6.68-2.17 2.72 2.72 0 0 0-.58.12 77.91 77.91 0 0 1-4.32-11.92c-.22-.81-.58-1.9-1-3.11.71-1.93 1.36-2.7 4-3.39a16.47 16.47 0 0 1 5.8-.99zm3 27.81a8.28 8.28 0 0 1-3.42-2.22c-.12-.22-.23-.44-.33-.66a16.45 16.45 0 0 1 3.77 2.88zm-13.8-32.61c1.52-3.24 4.5-1.49 6.84.56a18.62 18.62 0 0 0-6.74 2.34 5.1 5.1 0 0 0-.41.32 6.75 6.75 0 0 1 .31-3.22zm.2 30.2a2.75 2.75 0 0 0-1.7.24 40 40 0 0 1-.9-6.44 22.71 22.71 0 0 1 1.24-8.4 55.61 55.61 0 0 0 6.29 14.09 14.89 14.89 0 0 0 1 2.29 27.79 27.79 0 0 0-5.93-1.78zm7.1 12a13.38 13.38 0 0 1-4.9-3.44 13.11 13.11 0 0 1-1.18-1.55 33.19 33.19 0 0 0 6.78 3.35c2.1.8 5.14 1.22 7.78 2a53.5 53.5 0 0 1-8.48-.32zm9.27-4.25l-.07-.1c-.38-.43-.81-.89-1.26-1.37a9.69 9.69 0 0 0 2.12-.21q1.16 1.25 2.27 2.52a26.51 26.51 0 0 0-3.06-.79zm-1.17-15c-.8-1.9-3.3-6.7 2.4-4 1.6.8 3.3 3.2 4.2 4.5 1.3 1.77 2.49 3.54 3.79 5.23a32.45 32.45 0 0 1-2.77 7.15 75.6 75.6 0 0 1-7.62-12.83zm13.8 21.91a32.24 32.24 0 0 0-5.68 0l.08-.06a2.08 2.08 0 0 0 .73-1.47c1.49.2 3.19-1.49 2.07-2.93l-.48-.64.08-.06c-.3-.33-.6-.69-.91-1.07l-.31-.43a36.4 36.4 0 0 0 2.13-4.4c.34-.88.68-1.76 1-2.66.27.29.54.58.82.86.79.63 2-.3 1.95-1.31a2.48 2.48 0 0 0 4.05.81 10.32 10.32 0 0 0 .89-.92 4.63 4.63 0 0 0 1.54-.64c-.08.15-.14.31-.23.46h.1c-.1.22-.21.43-.3.66a2.3 2.3 0 0 0-.17 1.2 2.68 2.68 0 0 0-.72 1.49 119.6 119.6 0 0 0-6.64 11.16zm40 5.59c-3.1-.4-3.6 4-1.5 5.5.83.56 1.88 1.16 2.92 1.81-5.1-1.9-10.36-7-14.12-9.21-2.4-1.4-5.6 1.5-3.9 3.9a148.35 148.35 0 0 1 8.1 12.5c1.54 2.76 3.8 6.36 4.12 9.76-6.62-1-13.07-5-18-9.26a36.61 36.61 0 0 1-8.2-9.8c-1.5-2.7-2.2-6.1-4.3-8.4a6.86 6.86 0 0 0-.59-.57 40.74 40.74 0 0 1 2.89-5.13c.82-1.22 1.59-2.57 2.44-3.83 5.57 3.66 12.84 4.62 18.54 1.34a3.35 3.35 0 0 0 .82 3c4.09 4.27 10.54 4.44 14.64 8.44a11.56 11.56 0 0 1-3.86 0zM145.7 352.1c-4.4 2.6-8.6 1.6-11.5-2.5-1.3-1.8-2.2-4.1-4.3-5.1-2.4-1.1-6 .6-5.5-3.8a15.46 15.46 0 0 1 .7-2.3c1.4-3.2 3.6-2.7 6.2-1.6 1.1.3 1.9-1.6.8-2.1-3.4-1.6-7.3-2.9-9.3 1.3-1.4 2.9-3.5 8.2-.2 10.6 2.6 2 4.7-.4 7.4 2.6 1.6 1.7 2.1 4 4.1 5.5 4 3.3 9.1 3 13.4.6 2.1-1.1.2-4.4-1.8-3.2zM163.1 327.5c0 1.9 2.9 1.9 3 0V326.57c-.06-8.89-2.28-17.78-2-26.67.1-2.2 0-4 2.1-4.7 1.9-.6 3.2-.2 5-1.4 3.5-2.3 4.6-6.5 7-9.7 1.3-1.7-1.6-3.9-2.9-2.3a27.47 27.47 0 0 0-3.1 5.2c-1.4 2.7-2.6 4.1-6 4.9a19.67 19.67 0 0 0-2.4.3c-2.1 1.1-2.6 3.9-2.8 6-.9 9.6 2.2 19.5 2.1 29.2zM191.2 288.5c3.7-.2 7.5-.2 10.5-2.8 1.5-1.3-.7-3.6-2.2-2.2-4.2 3.9-11.6 1.1-16.5 4.1a7.37 7.37 0 0 0-2.7 2.85c-.24-8.34 12.08-18 19.8-17.95 4.1.1 7.5 2.4 11.5 3.1 3.8.7 8 .4 11.8.3 7-.3 17.1-4.5 22.6 1.3 4.3 4.6 5.7 11.2 9.3 16.3a2.47 2.47 0 1 0 3.9-3c-4.6-5.8-6.4-14-13.1-18.1-3-1.8-6.4-2-9.8-1.6-5.9.7-11.5 1.9-17.4 2.1a32.64 32.64 0 0 1-8.8-.6c-2.5-.6-4.7-1.7-7.2-2.1a16.9 16.9 0 0 0-11.2 2.2c-6 3.4-13.8 10.9-13 18.5a1 1 0 0 0 1.17.49c-1 2.63-.63 5.8.13 8.61.3 1.4 2.6.8 2.2-.7-.7-2.8-1.3-6.5 1.1-8.8 2-1.9 5.3-1.9 7.9-2zM206.3 313.6c3.4-.9 5.2-4.2 7.3-6.8 1.3-1.6-1-3.9-2.3-2.3-1.7 2.2-3.6 6.1-6.8 6.1-1.7 0-3.2-1.2-4.8-1.4a11.91 11.91 0 0 0-3.63.47l-.17-.37c-.8-1.9-3.6-.2-2.8 1.7.2.4.4.9.6 1.3a1.6 1.6 0 0 0 1.4.8c2.1-.1 3.8-.6 5.9 0s3.3 1.1 5.3.5z"/><path class="cls-1" d="M242.7 305.6c1.9 1.5 4.7-1.2 2.7-2.7a9 9 0 0 0-8.5-1.8c-2.3.5-5.3 2.2-7.6.9-1.7-1-2.4-3.5-3.8-4.9-4.6-4.5-10.6.4-8.3 6a1.86 1.86 0 0 0 1.6 1.2c.4 0 .8.1 1.3.1 1.7 0 2.1-2.9.4-3.2 1.5-1.8 2.6-2 3.2-.7a13 13 0 0 0 1 1.5c.3.4.6.9.9 1.3a7.06 7.06 0 0 0 4 2.5c4.2 1 9.5-3.1 13.1-.2zM211.69 353.54c1.41 3.08 8.41 3.06 11.71 2.76 3.1-.3 6-.9 9.1-1.3 4.1-.6 7.5 0 11.5.3 3.6.3 6.9-1.2 10.6-1.1 2.2.1 2.9-3.7.5-4s-4.3.2-6.7.7c-3 .7-5.6.2-8.6 0a36.62 36.62 0 0 0-9.9 1c-2 .41-12.7 2.53-15 .54a2.46 2.46 0 0 0-.15-3.14 1.36 1.36 0 0 0-2.3 0 9.63 9.63 0 0 0-.47.86c-.47-.46-.38-.28-.23-1.86a15.19 15.19 0 0 1 .6-2c.3-1 .8-2 1-3a.88.88 0 0 0-1.7-.4c-.7 2.6-4 7.1-1.7 9.7a3.09 3.09 0 0 0 1.74.94zM231.5 372.9c-4-2.1-7.9-4.6-12.4-5.5s-8 .2-12.1 1.8c-5.5 2.2-11 1.9-13.2-4.4-.7-2-1-4.9.2-6.8 2.6-4.2 8.8-.9 12 1 1.2.9 2.3-1.1 1.1-1.8-4.3-2.7-10.6-6-14.7-1.1-2.7 3.3-2.1 8.3-.4 11.9a10.43 10.43 0 0 0 11.7 5.9c4.4-.8 8.1-3.6 12.7-3.2s9 3.4 13.2 5.5c2.2 1.1 4.1-2.1 1.9-3.3zM260.4 366.4c3.3-2.4 3.1-6.7 7.4-7.9 2.5-.7 5-.8 7.5-1.7a37.62 37.62 0 0 0 7.6-4.2c3.56-2.5 5.57-6 8.08-9.21 1.83 3.64 5.67 4.82 8.52 1.21 1.6-2.1-1.3-5-2.9-2.9-.9 1.2-1.3 1.2-2-.2a6.53 6.53 0 0 1-.63-1.6 2.32 2.32 0 0 0-.15-2.28c.18-3 1.5-6.1 2.67-8.72.9-1.8-1.9-3.5-2.9-1.6-1.6 3.07-3.28 6.62-3.61 10.19-2.56 2.29-4 5.1-6 7.91-3.3 4.7-9.4 8.4-15 9.6-2.6.6-4.6.7-6.3 3a16.41 16.41 0 0 0-1.6 2.9c-.3.5-.6 1.1-.9 1.6a14.63 14.63 0 0 1-.9 1.3c-.5.9-.7.7-.8-.6.8-1.2-1.1-2.3-1.9-1.1-.4.6-.7 1.1-1.1 1.7a1.27 1.27 0 0 0 0 1.2c1.22 2.1 2.92 2.9 4.92 1.4zM254 338.6a3 3 0 0 1 1.1-2.4c.8-.6-.2-1.8-1-1.3a4.39 4.39 0 0 0-2 3.7c-.1 1.2 1.9 1.2 1.9 0zM255.51 307.43c-5.2.47-9.85 8.1-6.71 12.57 1.1 1.5 3.7 0 2.6-1.6-1.3-1.9-.2-4.2 1.1-5.8a7 7 0 0 1 2.3-1.92c-.25 2.72.21 5.86 2.2 7.62.8.7 2-.5 1.2-1.2-1.61-1.46-1.92-4.15-1.62-6.46l.12.06c2.2 1.4 2.1 6.2 2.2 8.5s3.5 2.2 3.4 0c-.27-3.57-.73-10.21-4.78-11.55 1.64-2.41 5.33-1.88 8.08-1.35 6.1 1.2 6.9 6 6.7 11.4a1.74 1.74 0 0 0 .06.53 16.55 16.55 0 0 0-3.16.47c-4 1-9.3 3.5-11.2 7.5s1.7 6.2 4.7 7.9c1.5.9 3.4-1.3 2-2.5-2.1-1.8-4.9-3.2-1.6-5.7a17.53 17.53 0 0 1 7.4-2.8c1.56-.24 4.69-.72 6.83-.11a2.67 2.67 0 0 0-.23.41c-1.4 3.6 1.3 6.1 4.9 5.2a2.17 2.17 0 0 0 1.4-1.4c.88-5.4-3-8.11-7.61-8.81a1.69 1.69 0 0 0 .11-.69 22.07 22.07 0 0 0-1.58-8c1.24 1.27 3.65-.27 2.58-1.82-4.2-6.1 7.3-7.2 10.4-6.2 4.6 1.4 5.8 5 8.4 8.5 3.9 5.3 11.2 5 16 8.9 1.9 1.5 4.4-.9 2.7-2.7-4.2-4.6-11.3-3.9-15.3-8.2-3.6-3.8-4.8-7.7-10.3-9.5-4-1.3-8.6-1.4-12.1 1.2-2.77 2.08-4.41 5.21-3.24 8.29a9.43 9.43 0 0 0-.76-1c-2.7-2.9-6.9-3.4-10.7-3.3-3.15.13-5.38.89-6.49 3.56zM235.1 334.1l-1.5-1.5a5.35 5.35 0 0 0 1.5 1.5zM210.1 325.7c.8 1.3 1 2.6 2 3.9a.83.83 0 0 0 1.2.2c3-2.9 5.6-3.9 9.7-4.4.4 0 .4-.5.1-.5a16.34 16.34 0 0 0-7.2 1.5c-2.1 1.1-2.3 1.9-3.4-.4a14 14 0 0 0-1.5-3.3c-3.1-3.8-8.8-1.8-11.2 1.7a1.2 1.2 0 0 0 0 1.4c.3.5.7 1 1 1.6 1 1.6 3.7 0 2.5-1.5-1.8-2.5 4.9-3.3 6.8-.2zM352.9 284.6c.9 1.8 1.5 3.8 2.3 5.7a1.94 1.94 0 0 0 3.1.4c4.41-4.77.88-10.6-.09-16 3.27-.57 6.48-1 9.69.12 2.3.8 3.9-3 1.7-4-4.7-2.1-9.5-1-14.4-.1a2.13 2.13 0 0 0-1.6 2.1 9.05 9.05 0 0 0 .24 1.55 28 28 0 0 0-2.24-2 1.12 1.12 0 0 0-1.6 0c-1.7 2.1-4.4 7.2-.6 8.8.7.3 1.1.1 1.8.5.8.53 1.3 2.03 1.7 2.93zm-2.45-7c-.28-.75.22-2.07.7-3a16.32 16.32 0 0 1 4 4 32.82 32.82 0 0 1 1.17 4.17c-1.42-2.96-3.32-5.57-5.87-5.21zM368.3 305.9c-1.8-1.4-4.3 1.1-2.5 2.5 6 4.8 11.7.2 16.1-4.4 1.7-1.8-1-4.5-2.7-2.7-2.6 2.8-6.8 7.8-10.9 4.6zM345.3 256.7c.5.9 2 0 1.5-1-1.5-2.82-2-5.79.1-8.16a12.1 12.1 0 0 1 .9 6.56v.08c-.09 1.43 2 2.16 2.39.6l.08-.3v-.08c.64-2.41 1.86-7 4.11-8.41 1.46 3 2.28 7.57 6 8.19a4.41 4.41 0 0 0 3.3-.9c1.1-.7 2.2-3 3.6-3.2 1.9-.4 3.3 1.9 4.4 3.1 1.8 1.8 4.6-1 2.8-2.8-2.2-2.3-4.7-5.3-8.2-4-2.4.9-4.2 5.3-6.9 2.8-1.4-1.3-1.8-4.3-3-5.8a1.62 1.62 0 0 0-1.7-.7c-2.56.47-4.24 3-5.34 5.84a26.33 26.33 0 0 0-1.26-2.94c-.3-.6-1-.5-1.5-.2-3.78 3.12-3.38 7.32-1.28 11.32zM388.3 263.7c0-3.1-.2-14.3 5.8-9 2.4 2.1 2.6 5.6 6.3 6.2 1.7.3 2.9-.3 4.4-1.1 3.1-1.5 6-2.4 9.5-1.5 7.2 1.9 7.2 9.8 11 14.6 1.9 2.5 5.7-1.1 3.5-3.5-2.4-2.6-3.1-6.7-5.3-9.5s-4.7-5-8.1-5.8a16.55 16.55 0 0 0-9.6.5c-1.2.5-2.4 1.8-3.6 2.1-3 .6-3.3-1.5-4.6-3.2-2.4-3.2-6.7-5.1-10.2-2.1s-2.8 8.4-2.7 12.4c.2 2.1 3.6 2.1 3.6-.1zM416.4 290.8c3.3 3.8 4.4 9.2 8.4 12.5 1.1 1 2.6-.6 1.5-1.4-5-3.9-6.5-14.6-13.9-15.2a9.2 9.2 0 0 0-4.6 1.1c-.8.4-1.7 1.5-2.5 1.9-3.2 1.4-2.2-.2-4.5.1-4.6.6-7.7 4.3-7 8.8.3 2.1 3.6 1.5 3.6-.5.1-5.8 6.4-3.3 9.4-6.1s6.1-5.1 9.6-1.2zM363.5 337c3.7 3.1 8.2.8 11.7-1.4 5.6-3.6 10.5-8.9 17.3-10 6.1-.9 10.4-4 14.9-8.1 1.8-1.7-.8-4-2.6-2.6-4.8 3.7-7.8 6-13.8 7.2a20.92 20.92 0 0 0-9.4 4.7c-3.2 2.4-6.3 5.1-9.8 7s-6.2.3-8.5-2.5c-1.6-1.9-3.7-3.2-3.5-6.1a1.65 1.65 0 0 0-3.3 0 7.47 7.47 0 0 0 1.7 5.4c1.6 2 3.4 4.8 5.3 6.4zM420.7 311.5a2.13 2.13 0 0 0-2.7.4c-4.6 4.1 1.1 12.1 4.2 15.4a29.84 29.84 0 0 0 3.67 3.3 1.42 1.42 0 0 0-.07.2c-.9 3.79-2.12 6.37-.51 9.78a10.08 10.08 0 0 0-3.79 6.12c-1.4 8.6 7.7 13.4 15.1 12.1 2.6-.4 1.8-4.2-.6-4.4-3.6-.2-8.3-.1-10-4.1a5.47 5.47 0 0 1 1.49-6.34c1.68 2.08 3.91 3.94 6.41 4.24 6.8.9 7.1-7.7 1.5-9.7a10.23 10.23 0 0 0-7.5.49c-1.05-2.34-.28-4.36.3-6.73a41.91 41.91 0 0 0 3.7 2.15c4.2 2.1 7.2.3 11.6-.1a1.9 1.9 0 0 0 .56-.21c.37 5 2.68 10.38 8.54 10.11a1.05 1.05 0 0 0-.1-2.1c-6.6 0-6.7-9.6-4.9-14.1 1.4-3.6 4.1-3.3 6.6-5.3a7.08 7.08 0 0 0 1.72-2.18c.91 4.13 2.1 8 5.88 10.68a2.35 2.35 0 0 0 2.3 0 16.46 16.46 0 0 0 2.68-2.31c.53 1.43.77 3 1.92 4 1.9 1.6 4.7.8 6.8.2 2.5-.7 1.5-4.4-1.1-3.9-3.1.7-2.4.8-3.6-1.3a27.74 27.74 0 0 0-2.2-3.7 2.05 2.05 0 0 0-2.9 0c-.9.76-1.67 1.61-2.58 2.33-3.06-3.1-3.35-7.93-4.62-11.93a2 2 0 0 0-3.5-.5c-.6.9-.9 1.7-1.4 2.5a12 12 0 0 1-4 4.6 10.65 10.65 0 0 0-2.8 1.9c-2 2.17-2.58 5.32-2.75 8.19a1.62 1.62 0 0 0-.55-.09c-2.2 0-4.4.8-6.6.6-3.3-.2-6.9-3-9.3-5.1-1.1-.94-6-6.28-6.86-9.62 2.6 2.77 4 6.8 8.36 7.52a2.5 2.5 0 0 0 3-1.7c.8-2.6 1.4-5.9 3.7-7.6 3.5-2.5 8 1.1 11.5 1.8a2.49 2.49 0 0 0 1.3-4.8c-5-1.8-10.2-4.8-15.2-1.5-2.93 1.9-4.35 5.07-5.37 8.29-2.53-1.79-4.69-6.35-7.33-7.59zm10.4 30.7c1.1-.2 2.7-.4 3.7.3s1.8 2.1-.9 2.2c-.9 0-2.2-1.2-2.8-1.7-.24-.2-.47-.42-.7-.64q.35-.09.7-.16z"/><path class="cls-1" d="M473.4 348.6c3.5-2.4 4.4-7.7-.7-8.8-3.26-.68-6 1.56-8 4.36-4.1-2.29-11.49.12-10.68 6.24a3.93 3.93 0 0 0 1.9 3 5.42 5.42 0 0 0 4.5 4.22c2 .5 3.9-.1 5.8-.4 3.2-.5 6.1.7 9.2.5 4.4-.2 8.7-3.2 12.2-5.9s4.8-5.9 5.3-10.2c.4-3.7-5.4-3.7-5.8 0-.6 4.8-6.1 8.8-10.6 9.9-2.5.6-5-.6-7.6-.7-.65 0-1.27 0-1.9.09a8.56 8.56 0 0 0 .28-2.11 10.28 10.28 0 0 1 .92-2.48 7.69 7.69 0 0 1 2.3-2.8 5.27 5.27 0 0 1 1.73 1.33 21 21 0 0 1-.83 2.27 1.35 1.35 0 0 0 1.98 1.48zm-6.49 2.31h.07zM494.3 306.4c-6.26-2.87-12.74-2.63-17.81 1.55a6.06 6.06 0 0 0-3 3.45c-.8 2.9 3 5.3 5.2 3a15.52 15.52 0 0 1 1.3-1.24 11.83 11.83 0 0 0-.3 2.14c-.22 2 2.08 3.18 3.8 2.66a2.71 2.71 0 0 0 3.7 1.14 7.46 7.46 0 0 0 1.2-.7c2.24-1.08 1.45-3.78-.33-4.63-.05-1.18 0-2.39 0-3.59a15.5 15.5 0 0 1 4.29.71c2.65.81 4.55-3.29 1.95-4.49zM504.2 327a1.44 1.44 0 0 0 2.2.3 32.79 32.79 0 0 0 2.79-3.86c.72 1.91.3 4.3.61 6.26a1.56 1.56 0 0 0 2.3.9 10.34 10.34 0 0 0 5.2-8.5c.1-2.2-3.3-2.2-3.4 0a7.35 7.35 0 0 1-1.51 4.09c-.23-2.23-.34-4.26-2.09-6.29a1.42 1.42 0 0 0-2 0 28.47 28.47 0 0 0-3 4.12c-.28-.33-.55-.66-.82-1a1.13 1.13 0 0 0-1.9 1.2 15.57 15.57 0 0 0 1.62 2.78zM468.89 289.54l.11.06a4.28 4.28 0 0 0 4-.74c2.47.28 4.29 1.82 6.19 3.54 2.4 2.1 5.9-1.4 3.5-3.5a21.9 21.9 0 0 0-6.2-4.2 9.83 9.83 0 0 0-3.4-.7 7.08 7.08 0 0 0-1.5.1 8.78 8.78 0 0 0-.84.49 16.49 16.49 0 0 0-1.87-3.09 1.69 1.69 0 0 0 .4-.8 10 10 0 0 1 7.8-7.6c4.4-.8 6.9 2 9 5.3 2.5 4.1 4.9 6.6 9.9 6.9 2.4.2 3-3.9.6-4.2-7.4-1-8.4-10.4-16.1-11.7-6.7-1.2-13.4 3.9-14.8 10.3a2 2 0 0 0 0 .37 2 2 0 0 0-.86.53c-2.4 2.8-1.5 6.2.9 8.7a2.32 2.32 0 0 0 3.17.24zM451.9 304.8a14.12 14.12 0 0 0 1.58-7 4.67 4.67 0 0 1 3.42-.55c3.3.6 5.4 1.1 8.6-.3 2.1-1 .6-4.7-1.5-3.8-4.3 1.7-8.6-2.1-13 .6a7.68 7.68 0 0 0-.93.71 1.91 1.91 0 0 0-1.45 1.65 9 9 0 0 0-1.12 8c.7 1.89 3.4 2.69 4.4.69zM518.4 304.1a6.32 6.32 0 0 1 .66-.22 1.14 1.14 0 0 0 .14.32c.4 1.9-.2 4.1-.2 6-.09 3 4 3.34 5.05 1.14a7.85 7.85 0 0 0 3.65 7l.1.06a11.37 11.37 0 0 1-3.2.44c-2.7-.3-2.7 3.7-.1 3.9 1.9.1 8.6-2.6 9.6-1.1.6.9-.9 3.9-1.2 4.8a19.54 19.54 0 0 0-1.4 4.7 2.25 2.25 0 0 0 1.6 2.1c4 1.3 10-2.1 10.1-6.5.1-2.3-3-2.9-4.1-1.1a8 8 0 0 1-2.6 2.6c.79-2.43 2-5.06 1.59-7.34a19.34 19.34 0 0 1 6.71 1.84c4.7 2.6 7.9 4.7 13.2 2.1 2.3-1.1 4.3-3.1 6.7-4 3.9-1.4 6.5 1.8 10.3 2.2 3 .4 5.25-1 8-1.77 0 1.39-.24 2.92-.12 4.07a10.82 10.82 0 0 0 1.8 5.2c2.6 3.4 6.5 2.7 9.9 1.1 1-.45 2.2-1.27 3.4-1.71a17.91 17.91 0 0 0 5.52 3.11 5.8 5.8 0 0 0 1.28 1.3c4.3 3 8.7.8 13-.8 5-1.9 10.3.3 15.2-2.3a23.15 23.15 0 0 0 6.5-5.46l.6-.14c4.47-1.17 7.23-4.33 8.76-8.63 4.27-2.41 9.21-3.86 12.94-7.37a3.36 3.36 0 0 0 .16-4.46 18.27 18.27 0 0 0 6.15-2.21 25.64 25.64 0 0 0 8.79-4.23c1.5-1.1 2.1-3.8 0-4.8 1.68-2.62 2.71-5.52 1.82-8.59-1.29-4.69-5.79-9.12-10.32-11.8l.32-.4c1.2-1.5.6-4.7-1.8-4.4a16.52 16.52 0 0 0-5.45 1.68 2.15 2.15 0 0 0-1.55-2.58 8.35 8.35 0 0 0-1-.21 27.06 27.06 0 0 0-1.62-2.69 38.67 38.67 0 0 0-7.1-6.9c-2.5-2-4.9-4.3-8.1-5a10.24 10.24 0 0 0-3.9 0c-1.3.2-3.2 1.6-4.4 1.4s-2.7-2-3.7-2.7a35 35 0 0 0-4.9-2.9c-3-1.5-8.4-2.4-8.7-6.4-.3-4.4-7.3-4.4-6.9 0a12.19 12.19 0 0 0 1.85 5.75c-5.13-6-4.18-17.43-13.75-19.35a2.5 2.5 0 0 0-3 1.7c-1.52 3.74-1 7.81-1.34 11.68-1.35-3.06-2.33-6.5-3.56-9.28a37 37 0 0 0-6.7-11.1 2.61 2.61 0 0 0-2.5-.7c-7 2.1-6.2 10.8-5.3 16.5.34 2.33.66 4.79 1.06 7.28l-.86-1c-4.1-4.7-8-9.5-12.2-14.1-2.6-2.9-10.8-13.8-15.3-7.5-3 4.2 1.7 12.1 3.5 15.9a87.43 87.43 0 0 0 10.1 17.44 11.45 11.45 0 0 0-7.1 3.46c-2.5 2.6-6.5 7.9-5.3 11.8 1.35 4.46 6.85 4.89 10.24 7.29-3.92 1.65-10.48.73-14 1.31-4.5.8-11.8 2.8-15 6.5s-.5 8.3 2 11.6c.54.72 2 2 2.24 2.85a6.69 6.69 0 0 0-.94-.25c-3.94-.7-7 1.36-9.23 4.31a7.08 7.08 0 0 0-1.67-4.61c-1.44-1.51-3.16-1.37-4.87-.88-.67-1.72-3.46-2.46-4.43-.52a4.26 4.26 0 0 0 0 4.6c1.28 1.77 2.98 1.47 4.88.97zm71 22.6c-.81-.59-.7-3.16-.62-4.9a18.44 18.44 0 0 1 3.62 2.9l.92.9c-1.32.78-3.11 1.64-3.92 1.1zm63.12-19.31a5.48 5.48 0 0 1 2.46-1.32q-1.21.7-2.46 1.32zm-120.07 1.36a12.3 12.3 0 0 0 2.94 2.05 2.36 2.36 0 0 0 3.19-.92 2.53 2.53 0 0 0 3.71 2.42c2.12-1.15 4-2.59 6.16-3.67.63.69.3 1.45-.16 2.67a16.53 16.53 0 0 0-1.6 4.4c-.4 2.4 3.3 3.6 3.8 1 .7-3.5 4.2-6.6 2-10.2a5.78 5.78 0 0 0-2.1-2 3.39 3.39 0 0 0-3.5-.1c-2.5 1-4.7 2.5-7.1 3.7a2.27 2.27 0 0 0-.84.7 2.2 2.2 0 0 0-1.16-2.2c-.17-.1-.32-.22-.47-.32A6.3 6.3 0 0 0 540 303a6.38 6.38 0 0 0-.8-5.2c-1.1-1.9-5.4-5.5-5.1-7.7.4-2.4 5.6-3.8 7.4-4.5a35.42 35.42 0 0 1 10.3-1.9c4.4-.2 10 0 13.1-3.7a2.74 2.74 0 0 0 .4-3c-1.9-2.6-4.7-3.7-7.5-5.1-1.6-.8-4.1-1.6-4.2-3.7 0-1.6 2.2-4.2 3.1-5.5a9 9 0 0 1 7.47-4q1.21 1.36 2.53 2.67a1.72 1.72 0 0 0 2.4 0l2.1-.6a1.32 1.32 0 0 0 1-.38 35.79 35.79 0 0 1 8.46 5c1.2 1.2 2.5-.1 1.6-1-3.69-3.75-10-7.64-16.11-8.62a61.81 61.81 0 0 1-9.69-16.38c-1-2.4-2.1-4.8-3-7.2-.5-1.2-2.5-5.4-1.8-6.6.6-1 1.9 1 2.8 2 .6.6 1.1 1.2 1.6 1.8 3.1 3.5 6.1 7.2 9 10.9 5.5 6.9 10.7 14.8 16.9 21.1l.11-.11c2.25 2.28 6.38-.29 4.59-3.39-.56-1-1.2-2-1.87-2.9-2.87-6.56-7.37-23.75-4.14-28 5.29 7.08 6 16.53 11.71 23.22 1 1.1 3.3.9 3.9-.5 2.3-4.94 1.2-10.23 2.24-15.28 3.3 2.15 4.45 7.16 5.86 10.58 1.6 3.8 3.4 7.5 7.2 9.6a2.48 2.48 0 0 0 2.5 0c.4-.2.8-.5 1.3-.7a2.54 2.54 0 0 0 1.4-1.36c2.51 1.21 5.1 2 7.5 3.46s4.5 3.8 7.2 4.8a6.36 6.36 0 0 0 4.3.1c3.8-1 5.2-1.9 8.7.7A66.45 66.45 0 0 1 651 267a12.34 12.34 0 0 1 1.32 1.67c-3.65 1.68-6.68 5-6.92 8.73-.3 2.6 4.1 2.6 4.4-.2.16-1.79 1.82-3.38 3.78-4.38a22.48 22.48 0 0 0-3.78 5.78c-.9 2.1 1.1 4.8 3.4 3.4s4.62-3.55 7.08-5.29h.16a2.68 2.68 0 0 0 3.1 1.14 20 20 0 0 1 6.35 4.51c3.12 3.22 4 5.78 1.39 9.52-1.47-.4-3-.77-4.45-1.19 2.79-1.22 2.31-6.25-1.44-6.33s-7.5-.6-11.2.6a3.28 3.28 0 0 0-.45.18 1.78 1.78 0 0 0-1.74-2.44 8.87 8.87 0 0 0-4.2 1.2c-1 .5-2.1 1.4-3.3 1.4a2.33 2.33 0 1 0 .6 4.6 11 11 0 0 0 3.7-1.6c1-.7 2-1.6 3.2-1.7a2.28 2.28 0 0 0 .33-.07 3 3 0 0 0 .47 3.67c4.12 4 9.36 5 14.56 6.4a14.36 14.36 0 0 1-2.19 1.7 21.22 21.22 0 0 1-2.59.41h-.08a4.1 4.1 0 0 1-1.1-.1 2.13 2.13 0 0 0-2.29 1.47c-3.15.26-6.37.13-9 2-3 2.17-4.1 5.64-5 9a25.44 25.44 0 0 0-3.2 2.1c-2.7 2.14-4.62 5.07-6.83 7.67h-.57c-5.6.2-10.1.2-15.2 2.8-4 2-7.86 4.63-12 4.48-.93-1-1.64-2.46-2.69-3.28a7.58 7.58 0 0 0-6-1.44c-2.76-2.71-5.22-5.79-8.86-7.26a11.65 11.65 0 0 0-2-.62 6.33 6.33 0 0 0-3.75-3.28 7 7 0 0 0-3.28-.25c3.75-1.21 7-1.42 10.48 1.15 1.6.8 3.3-1.5 2-2.6-4.2-3.8-7.9-4.2-13.2-2.7-4.48 1.34-9 3.34-12.28 6.77a13.13 13.13 0 0 0-6.72 1.93c-1.7 1-3.3 2.3-5.1 3.2-3.5 1.6-5.4-.2-8.4-1.9a26.93 26.93 0 0 0-7.4-2.5c-2.3-.5-6.8-.3-8.9-1.5-3.79-2.19-1.27-3.91 1.25-5.1zm-8.14.64l.07.06c0 .1-.05.2-.08.3.01-.12.01-.24.02-.36z"/><path class="cls-1" d="M495.2 371.5c-.1 1.1 1.5 1.4 1.7.4 1-5.3-10-3.3-12.7-3.3-.67 0-1.23.07-1.75.06 4-1.43 7.45-4.65 10.55-7.56 1.9-1.8-.9-4.5-2.8-2.8-3.52 3.17-7.59 7.65-12.54 7.52a18.48 18.48 0 0 0-3.26-3.22c-4.73-3.22-11-2.76-16.47-2.71a2.6 2.6 0 0 0-3.63-2.19c-1.29.64-17.4 8.36-20.72 5.52a6.34 6.34 0 0 0-1.08-1.92c-1.4-1.8-4.2.2-3.7 2.1a7.46 7.46 0 0 0 .33.89c.11 1.19-2.91 1.61-3.73 1.61-3 0-4.8-1.6-5-4.6-.1-3.2-4.9-3.2-4.7-.1.4 6.3 5.2 10.1 11.5 9.2a9.1 9.1 0 0 0 5.49-2.85c5.89 2.12 16.34-2.3 21.78-4.75a2.4 2.4 0 0 0 2.53 2.4c5.6-.2 11.9-1.4 16.5 2.6a1.64 1.64 0 0 0 .94.91c1.57 1.58 3 3.22 5.42 3.55 2.04.34 15.44-2.96 15.34-.76zM502 363c9.1 1.2 17.1-5.9 22.6-12.3 1.9-2.2-1.2-5.3-3.2-3.2-5.2 5.4-11.2 12.1-19.4 11.7-2.4-.1-2.3 3.5 0 3.8zM540.24 335.23a1.93 1.93 0 0 0-2.24-1.83c-.4.1-.8.1-1.2.2a2.69 2.69 0 0 0-2.4 1.8 10.38 10.38 0 0 0-.33 1.81c-2.93 2.07-5.26 5-7.77 7.69-1.8 1.7.8 4.3 2.6 2.6 2-1.91 4-4.16 6.18-6a2.27 2.27 0 0 0 3.62-1.14 2.55 2.55 0 0 1 1.6-1.6 2.06 2.06 0 0 0-.06-3.53zM554 341.5l1.84-.6a34.28 34.28 0 0 1 4.76 0 2.06 2.06 0 0 0 2-1.7 8.19 8.19 0 0 0 1.85-2c.8-1.3-.6-3.4-2.1-2.8q-2.78 1.17-5.67 2.08a10.77 10.77 0 0 0-3.92 1.11l-.4.2c-1.96 1.11-.66 4.51 1.64 3.71zM567 351.6c.8 2.8 3.4 3.4 5.8 2.5 1.5-.6 2.8-1.7 4.3-2.3 2.6-1.1 2.5-.3 4.4.9 3.2 2 6.1 1.2 9.5-.2a1.71 1.71 0 0 0-.9-3.3c-3.1.5-4.1-.4-6.1-2.2a6.56 6.56 0 0 0-4.2-1.7c-2.37-.12-4.54 1-6.65 2.13a3.83 3.83 0 0 0-1.05-2.23 4.63 4.63 0 0 0-2.19-1.32c1.8-1.39 4.22-2.55 5.59-3.68 1.6-1.6-.7-4.5-2.4-3.2-3.2 2.3-8.4 3.8-10.1 7.6-.6 1.3-.3 3.5 1.5 3.8.24.08 2.48.48 3 .07a12.78 12.78 0 0 0-.5 3.13zM685 313.5c-2.8-1.8-6.3 2.5-3.6 4.7 1.7 1.4 2.1 1.4.3 2.8a48.47 48.47 0 0 1-5.7 3.5c-2.27 1.3-5 2.73-6.49 4.93-1.73.54-3.21 1.31-5 2-2.2.8-4.5 1.2-6.6 2.1a2.46 2.46 0 0 0-1.8 2.4 3.8 3.8 0 0 0 .05.47h-.15c-1.4.3-2.6.8-4 1-2.6.3-5.3.3-7.9.4a41.89 41.89 0 0 0-7.9 1.2c-4.1 1-6.4 3.1-9.9 5.1-3 1.7-6.3 1-9.2 3.1-1.1.7-2.5 3-4.1 2.2-.3-.2-.7-1.7-1-2.1-4-4.6-10.6 2.2-14.3 3.6-1.3.5-1.2 2.6.3 2.5 2.9-.1 8.8-5.1 10.9-3.8.5.3.7 2.2 1.1 2.7a4.56 4.56 0 0 0 2.3 1.8c2.9 1 5-1.5 7.2-2.9 3.4-2 7.2-1.2 10.6-3.5 6.5-4.4 12.9-5 20.4-5.8 3.17-.33 8.14-1 9.93-4 3.94-1.06 7.94-2.76 11.87-3.31a2.88 2.88 0 0 0 2-2c.4-1 4.4-2.7 5.6-3.3a30.25 30.25 0 0 0 6.7-4.5c3.89-3.89 2.79-8.49-1.61-11.29zM631.5 287.3c-8.89-.46-13.15 7.55-20.24 10.89-2.32-.88-5.26.72-4.46 3.91l.3 1.2a3.59 3.59 0 0 0 4.4 2.5 25.24 25.24 0 0 0 7.07-4.06 10.09 10.09 0 0 0-1.17 6.36 3.61 3.61 0 0 0 2.4 2.4c6.2 1.6 10-4.6 13.5-8.6a3.25 3.25 0 0 0-1.79-5.25 20.9 20.9 0 0 0 3-4.15 3.47 3.47 0 0 0-3.01-5.2z"/><path class="cls-1" d="M579.5 290.4a26.8 26.8 0 0 0 6.23.19 9 9 0 0 0 .67.61l.09.05a12.81 12.81 0 0 0-4.59 2 2.71 2.71 0 0 0 0 4.6c.16.11.33.18.49.28-.13.24-.27.47-.39.72a1.64 1.64 0 0 0 .2 1.9c3.3 3.3 8.5 3.5 12.4 5.8 3.2 1.9 6.9 3.4 9.4-.2 1.3-1.8-1.7-3.5-2.9-1.7-1.4 2-6-1.9-7.6-2.6-2.53-1-5.76-1.33-8.06-2.86 5.61.85 12.58-2.83 17.56-3.64 2.3-.4 1.8-4.2-.5-4-.44 0-.87.12-1.3.19.24-.22.47-.44.7-.69a3.11 3.11 0 0 0 .36-3.61 12.36 12.36 0 0 0 .11-1.51 4.79 4.79 0 0 0 1-4.51 2.91 2.91 0 0 0 .82-.22v.55c.2 2.5 3.2 4.1 5.1 2.1 1.44-1.44 2.38-3.75 3.31-6.1a3 3 0 0 0 3.69.3 15.06 15.06 0 0 0 2.21-2.59 9 9 0 0 0 1 3.49 3.45 3.45 0 0 0 2.9 1.7c3.9.2 7-1.5 10.2-3.5 3.6-2.2.4-7.5-3.3-5.6-1.27.61-2.46 1.3-3.7 1.79a8.53 8.53 0 0 0 .4-1.49 7.25 7.25 0 0 0-.6-4.1 3.68 3.68 0 0 0-3.3-2.5 6.2 6.2 0 0 0-3.64.6 3.26 3.26 0 0 0-4.36-1.2c-3 1.6-4.28 4.37-5.39 7.27l-.21-.07c-2.91-.9-3.95.84-5.21 2.55a22.78 22.78 0 0 0-1.49-2.25c-1.2-1.7-4.2-1.8-4.7.6a4.65 4.65 0 0 0 0 1.35 7.77 7.77 0 0 0-4.73-1.68l-.27-.37a2.14 2.14 0 0 0-2.1-.6 4 4 0 0 0-3.07 2.81 10 10 0 0 0-2.47 2.71c-.29-.1-.62-.24-1.07-.42a8.25 8.25 0 0 0-3.5-.9 1.68 1.68 0 0 0-1.6 2.1 7.32 7.32 0 0 0 3.17 4.64 9.39 9.39 0 0 0-3.87 3.36 3.14 3.14 0 0 0 1.91 4.65zm9.87.21l.07-.1h.39zm8.63-11.06l.13.74a42.21 42.21 0 0 1-3.07-4 8.06 8.06 0 0 1 2.94 3.26zm-11.16 2a4.35 4.35 0 0 0 .95-.29c1.29-.61 1.93-2.82 2.56-4.25 2 2.94 3.76 5.93 6.29 8.42a50.62 50.62 0 0 0-5.65-.67c-1.2-.08-2.45 0-3.69 0a3 3 0 0 0-.59-2.06 7.54 7.54 0 0 1 .14-1.11zM393.8 334.9c3-.5 4.4-2.2 4.4-5.2.1-3.4-5.3-3.4-5.3 0 .8.1.6.1-.3.1-.5 0-1 .1-1.5.1a8.47 8.47 0 0 0-3.4 1.4c-2.2 1.7-3 4.5-4.1 6.9a20.11 20.11 0 0 1-2.2 4.4c-2.1 2.7-3.6 2-6.4 1.5a4.87 4.87 0 0 0-5.1 2c-.5.6-.6 1.8-1.1 2.4-1.5 1.6-2.1.4-3.8-.3-2.1-.9-3.7-1.7-5.9-.6-2.8 1.4-4 6.1-7.8 5.1-3.3-.9-4.9-5.6-6.5-8.3a1.92 1.92 0 0 0-3.3 0c-.5.7-1 1.3-1.5 2.1-1.6-.2-3.1-.5-4.7-.7-.6-.6-.6-2.6-.9-3.4a7.56 7.56 0 0 0-2.4-3.4c-.9-.6-1.8.1-2.2.9-1.5-1.3-1.6-2.1-.2-2.6.5-.3 1.1-.6 1.6-.9 1.1-.6.3-1.8-.5-1.4-2.9 1.4-6.8 3.4-5 7.2 1.5 3.24 4.12 2.36 5.89.42 1.42 2.74.58 6.62 4.11 8.38 3.31 1.62 5.43-.09 7.33-2.32 2.6 4.69 6.37 10.08 12.27 7.72a10.38 10.38 0 0 0 3.7-2.9c2-2.1 3.1-1.2 5.5-.3 2.6 1 5.4 1.9 7.5-.6 1.1-1.3.8-2.5 2.4-3.1s3.2.7 5 .5c3.5-.5 5.7-3.7 7.3-6.5 2-3.7 2.5-7.9 7.1-8.6zM307.4 281.4c3.26-2.12 3.33-6.16 4.49-9.54a6.3 6.3 0 0 0 1 .14 2.06 2.06 0 0 0 1.7-1 39.4 39.4 0 0 1 3.7-5.19c2.5.89 5.39.76 8 .69a1.34 1.34 0 0 0 .71-2.5 1.7 1.7 0 0 0-.34-1.28c-2-2.8-4.6-4.1-7.9-2.3a10.08 10.08 0 0 0-1.37 1l-.13-.16c-1.9-2.5-2-5.5-2.9-8.5a1.58 1.58 0 0 0-2-1.1c-4.5 1.4-6.1 6.1-7.1 10.3-1.2 5-4.1 10.4-4.2 15.5-.06 3.84 2.64 6.44 6.34 3.94zm15-17.56a10.87 10.87 0 0 1-1.08-.16 1.69 1.69 0 0 1 1.08.16zm-16.7 9a71.48 71.48 0 0 0 2.3-7.9c.62-2.93 1.09-7.67 3.85-9.61 1.17 2.82 1.11 6 3.2 8.4l-.45.51c-.6.7-1.1 1.4-1.6 2.1-.26.33-.49.66-.72 1a2.07 2.07 0 0 0-3.18.38c-1.4 1.9-1.8 4.4-2.5 6.6-.1.5-1.2 3.8-1.7 3.6-.8-.32.6-4.32.8-5.12z"/><path class="cls-1" d="M345.2 301.9c1.2-.1 1.8 2 2.3 3.1 1.1 2.2 4.4.3 3.3-1.9-.9-1.8-1.7-4.1-3.7-4.9-1.8-.7-4.1.2-5.5 1.4a11.76 11.76 0 0 0-2.31 2.89 1.71 1.71 0 0 0-.79.71c-1.8 3-3.8 5.8-3.9 9.4a1.59 1.59 0 0 0 .45 1.23 4.29 4.29 0 0 1-2 .27c-3.3-.3-6.7-2.5-9.7-3.8-1-.4-5.5-1.4-6.1-2.2-1.8-2.3 3.7-3.2 5.1-3.9 2.7-1.3 4.2-2.8 2.7-5.8-.2-.4-1-1-1-1.4-.5-2.1.8-2.5 2.2-3.1 1.9-.8 3.1-.6 4.5-2.4a2 2 0 0 0 .3-2.4c-1.2-2.3-3.6-4.2-5.4-6s-6.5-5.5-6.9-8.3 3-1.4 5.1-1.5a9.66 9.66 0 0 0 5-1.7 16.79 16.79 0 0 1 7.1-3.1c1.8-.4 2.6-.5 4-1.9 1.8-1.8-1-4.5-2.7-2.7-1.4 1.4-5.1 1-7.1 2-1 .5-1.9 1.4-2.9 2-2.5 1.4-3.9 1.2-6.7 1.3s-6.2 1.4-6.2 4.8c0 6.88 8.49 10.81 12.29 15.89-1.94 1-4.67.7-6.29 2.81a5.31 5.31 0 0 0-.9 5c.3.7 1.1 1.3 1.3 1.9 1.3.8 1 1.3-.9 1.6-.8.3-1.5.5-2.3.8a12.13 12.13 0 0 0-6 4.4 2 2 0 0 0 0 2c1.3 2.5 3.1 3 5.7 3.8 4.6 1.3 8.8 3.8 13.4 5 5.4 1.4 8.1-1.6 10.6-6.1a1.57 1.57 0 0 0-.71-2.28c.57-1.33 1.13-2.66 1.81-3.92.55-1 1.45-2.9 2.85-3zM456.4 371.7c-2.6-.6-4.9-.4-6.9 1.5a12.08 12.08 0 0 0-2 3 9.5 9.5 0 0 1-1 1.7c-.09.09-.11.16-.09.2h-.21c-1.3 0-2.6-1.4-3.8-1.6-1.7-.3-2.3.5-3.7 1.1-2.4 1.1-4.1-.3-6.5.7a12.27 12.27 0 0 0-3.3 2.3c-1.5 1.2-1 1.3-1.7-.7-.7-2.2-2.1-4.6-4.1-5.6a7 7 0 0 0-7 .7c-1.1.7-1.6 1.8-2.6 2.7s-.4 1.1-1 .6a13.13 13.13 0 0 1-.1-2.8 3.37 3.37 0 0 0-4.07-3.27 2.35 2.35 0 0 0 .57-.63c1.13-1.91-.06-2.77-1.9-3.11a3.93 3.93 0 0 0-2.61-1.31 8.44 8.44 0 0 0 .71-.58c1.5-1.5.9-4.6-1.3-5-3.28-.59-6.25.41-9.3 1a16.35 16.35 0 0 0 2.32-1.81l.08-.05a4.76 4.76 0 0 0 .71-.89 2.36 2.36 0 0 0-3.2-3.2c-3 1.74-5.95 3.75-7.17 6.88a5.79 5.79 0 0 0-2.13 5.62 1.83 1.83 0 0 0 1.8 1.4 31.43 31.43 0 0 1 3.33.26c-.32 1.6.31 3.49 2.17 3.74a17.85 17.85 0 0 0 4.6.18 9.23 9.23 0 0 0-1.4 4.52 3.33 3.33 0 0 0 3.3 3.3c2.87.07 5-1 7.19-2.16.65 2.83 2.19 5.14 5.91 5.26a7.26 7.26 0 0 0 5.7-2.7c2.3-2.4 1.7-3.5 3.4-.1 2.1 4.1 5.9 7.4 10.3 4.3a24.8 24.8 0 0 0 2.91-2.32l1.09.22a10.68 10.68 0 0 0 6.12-1.38c2.17 1.1 4.44 2.09 6.78 1.08 2.9-1.2 4.8-6.8 7.3-6.8 3.49-.05 4.29-5.45.79-6.25zM510 384c2.3-1.7 5.2-2 8-2.4 5-.7 10.1-1.3 14.2-4.6 4.9-3.8 5.1-9 7.9-14 1.3-2.4 2.9-4 3.3-6.8.4-2.5.1-4.3 2.8-5.8a35.33 35.33 0 0 1 4.6-1.5c3.5-1.1 2-6.6-1.5-5.5-4.9 1.5-10.4 2.9-11.3 8.7-.3 1.9 0 3.4-.9 5.4-.7 1.4-1.9 2.6-2.6 4.1-1.6 3.5-1.8 7.3-4.7 10.1-4.3 4.3-11.1 3.9-16.6 5.1-4.79 1.09-7.46 3.67-10.27 7.08L502 383l.36-.42c2.2-2.7-1.6-6.5-3.8-3.8 0 0-.59.74-1.1 1.25a7 7 0 0 0-2.6-.25c-2.5.2-3.4 2.7-1.9 4.6a4.19 4.19 0 0 0 4.71 1.71c1.34 1 2.48 2.61 3.59 3.59s2.9 1.2 3.8 0c1.54-1.88 3.04-4.18 4.94-5.68zM316.1 355.1c-3.5-.1-4.4 5.7-.8 6.2 3.3.5 6.5 7.3 8.1 10 2.3 4 3.5 7 2.7 11.7-.5 2.7-1.5 9.2-4.6 9.3-2.6.1-4.7-2.1-7.5-1.5-2.3.5-2.6 2.2-4.3 3.4-2 1.4-4.6.8-6.2 2.9-1.4 1.7-.1 4.6-3.6 4.7-1.4 0-4-2.5-5.1-3.4a3.19 3.19 0 0 0-3 0 5.75 5.75 0 0 0-2.6 2.3c-.5.8-.9 3.3-1.4 3.8-1.1.8-2.7-4.6-3.8-5.9a3 3 0 0 0-3.5-.5c-1.4 1-1.8 1.6-3.6 1.5-2-.1-1.4-.5-2.8-1.4-1.2-.7-2.4-1.8-3.8-1.7s-2.1.9-3.1 1.8a10.47 10.47 0 0 1-4.2 2.5c-2.7.9-2.1.3-4-1-2.4-1.6-4.9-2.1-7.4-.4-1.7 1.2-3.5 3.9-5 1.1a3.5 3.5 0 0 1-.37-1.16c2.25-3.42 2.69-7.16-1.13-8.44a2.53 2.53 0 0 0-2.57.67 3.18 3.18 0 0 0-.33-.47 4.23 4.23 0 0 0-1-.89c.77-1 1.6-2 2.37-3 2.2-2.9 4-6.1 6.8-8.5 3.6-3.1 8.5-3.1 9.6-8.3-.1-.8-1.1-1.2-1.5-.6-2.2 3-5.4 3.2-8.4 4.9a22.84 22.84 0 0 0-6.3 5.7c-2.6 3.27-6.38 6.82-8.37 10.83-4.45 3.55-7.58 11.93-.73 14.37 2.1.76 4.66-.05 7-1.62a8.48 8.48 0 0 0 .84 1.22 6.79 6.79 0 0 0 6 2.3c2.5-.3 4.2-3.1 6.2-3.1 2.2 0 3.9 3 6.5 3.1 3.8.2 5.4-2.8 8.5-4.2 1-1.3 1.3-1.3 1 0a6.88 6.88 0 0 0 1.1 1.3 5.85 5.85 0 0 0 3.3 1.7 7.77 7.77 0 0 0 5.5-1.46 10.15 10.15 0 0 0 1.1 3.36 5.75 5.75 0 0 0 4.9 2.8 6.22 6.22 0 0 0 5.1-2.2c.82-1 1.09-2.73 1.67-4 2.47 1.78 5.15 3.36 8.33 2.72 3.37-.67 5.39-3.48 6.48-6.5a11 11 0 0 0 3-.7c1.4-.6 2-2 3.2-2.7 2.2-1.4 5.6 1.1 8.4.8 6.7-.6 8.5-10 9.5-15.3 1.2-6.6-1.7-12.2-5.1-17.7-2.49-4.03-5.69-10.13-11.09-10.33zm-75.75 43.74a5.09 5.09 0 0 1-2.55 1.76c-2.86.36-1.76-2.19-.39-4.18a5 5 0 0 0 3.31-.79 13.48 13.48 0 0 0-.37 3.21zm2.64-3.49c-.88-.51.34-.65 0 0z"/><path class="cls-1" d="M281.4 396.2c2.9-1.32 3.84-4.72 3.95-8a6 6 0 0 0 3.35-.59c3.91-1.91 3.67-6.23 5.18-9.7 7.41 1.29 13.29-1.83 17.72-8.2 1.2-1.7-1.3-3.4-2.7-2.1-4.8 4.2-9 7.1-15.5 5.3a2.42 2.42 0 0 0-2.7 1.1 12.45 12.45 0 0 0-1.7 3.7c-.2.6-1.5 8.6-4.4 4.9a1.79 1.79 0 0 0-1.75-.74 1.85 1.85 0 0 0-2.24-.27c-.59-1.76-.53-3.84-2.11-5.19a4.51 4.51 0 0 0-5.4-.3c-3.4 2.4-3.1 8.9-1.9 12.4 1.3 3.99 5.3 9.89 10.2 7.69zm-6.3-13.9c.3-1.3.1-2.3 1.1-1 1.1 1.5.8 3.6 2.3 5.3a2.29 2.29 0 0 0 2.44.52c.09 2.41-.31 5.44-2.94 4.38-1.6-.7-2.7-4.6-2.9-6a11.43 11.43 0 0 1 0-3.2zM549.3 390.1a1.08 1.08 0 0 0 0-1.1 10.12 10.12 0 0 0-3.1-3.4c-1-.3-2.1 1-1.3 1.7.6.5 2 1.8 1.2 2.7-.4.5-2.5.1-3.1 0-1.4-.1-2.8-.5-4.3-.5h-.36c-3.2-6.65-17.18-5.19-22.44-2.7-3 1.4-1.5 6.3 1.7 6.1a3.4 3.4 0 0 0 1-.1 3.27 3.27 0 0 0 2.39-1.2c3.27-1.18 9.26-2 11.89-.32-.13.11-.26.21-.38.32-.9.9-.8 2.8.4 3.3a4.24 4.24 0 0 0 4.8-.4 2.61 2.61 0 0 0 1.3-2.2c3.33-.35 8.15 1.24 10.3-2.2zM761.9 327.8l-.47.59c-2.6-3.69-5.83-7.27-10.14-7.78 1.09-1.58-.11-4.39-2.3-3.52a12.12 12.12 0 0 0-1.48.66c-3.19-2.23-7.69-3.19-10.12-1.16a5.05 5.05 0 0 0-1.62 4.85c-.87 3.18.36 4.33 2.45 4.39a3.47 3.47 0 0 0 5.08-.44 2 2 0 0 0 .48-.82c1-.36 1.91-.77 2.79-1.18.25 1.3 1.26 2 2.83 1.9a1.71 1.71 0 0 0 1.7-1.3 4.17 4.17 0 0 0 0-.45c3.85.07 7 4.91 9 7.75a1.25 1.25 0 0 0 1.7.4 5.7 5.7 0 0 0 2.3-3 1.19 1.19 0 1 0-2.2-.89zm-19.8-7.2l-.17.06a5 5 0 0 0-1.46-.83c.48-.33 1.06-.05 2 .17l.54.17c-.28.15-.6.3-.91.43z"/></svg>